<svg width="750" height="365" viewBox="0 0 750 365" fill="none" xmlns="http://www.w3.org/2000/svg">
<g clip-path="url(#clip0_49_40)">
<path d="M750 39H88V345H750V39Z" fill="#FFE600"/>
<path d="M720.25 8.84211V48H729V8.84211V0H720.25H704V8.84211H720.25Z" fill="black"/>
<path d="M8.75 8.84211V48H0V8.84211V0H8.75H25V8.84211H8.75Z" fill="black"/>
<path d="M8.75 327.158V288H0V327.158V336H8.75H25V327.158H8.75Z" fill="black"/>
<path d="M596.79 39V18.06H605.13C607.01 18.06 608.45 18.6 609.45 19.68C610.47 20.74 610.98 22.2 610.98 24.06C610.98 25.92 610.47 27.39 609.45 28.47C608.45 29.53 607.01 30.06 605.13 30.06H599.31V39H596.79ZM599.31 27.84H605.13C606.13 27.84 606.9 27.58 607.44 27.06C608 26.54 608.28 25.8 608.28 24.84V23.28C608.28 22.32 608 21.58 607.44 21.06C606.9 20.54 606.13 20.28 605.13 20.28H599.31V27.84ZM620.277 39.36C619.217 39.36 618.257 39.17 617.397 38.79C616.557 38.41 615.827 37.87 615.207 37.17C614.607 36.45 614.137 35.6 613.797 34.62C613.477 33.62 613.317 32.5 613.317 31.26C613.317 30.04 613.477 28.93 613.797 27.93C614.137 26.93 614.607 26.08 615.207 25.38C615.827 24.66 616.557 24.11 617.397 23.73C618.257 23.35 619.217 23.16 620.277 23.16C621.317 23.16 622.247 23.35 623.067 23.73C623.887 24.11 624.587 24.64 625.167 25.32C625.747 25.98 626.187 26.77 626.487 27.69C626.807 28.61 626.967 29.62 626.967 30.72V31.86H615.837V32.58C615.837 33.24 615.937 33.86 616.137 34.44C616.357 35 616.657 35.49 617.037 35.91C617.437 36.33 617.917 36.66 618.477 36.9C619.057 37.14 619.707 37.26 620.427 37.26C621.407 37.26 622.257 37.03 622.977 36.57C623.717 36.11 624.287 35.45 624.687 34.59L626.397 35.82C625.897 36.88 625.117 37.74 624.057 38.4C622.997 39.04 621.737 39.36 620.277 39.36ZM620.277 25.17C619.617 25.17 619.017 25.29 618.477 25.53C617.937 25.75 617.467 26.07 617.067 26.49C616.687 26.91 616.387 27.41 616.167 27.99C615.947 28.55 615.837 29.17 615.837 29.85V30.06H624.387V29.73C624.387 28.35 624.007 27.25 623.247 26.43C622.507 25.59 621.517 25.17 620.277 25.17ZM643.702 39H631.222V23.52H633.622V36.9H640.912V23.52H643.312V36.9H645.892V43.2H643.702V39ZM655.331 39.36C654.271 39.36 653.311 39.17 652.451 38.79C651.611 38.41 650.881 37.87 650.261 37.17C649.661 36.45 649.191 35.6 648.851 34.62C648.531 33.62 648.371 32.5 648.371 31.26C648.371 30.04 648.531 28.93 648.851 27.93C649.191 26.93 649.661 26.08 650.261 25.38C650.881 24.66 651.611 24.11 652.451 23.73C653.311 23.35 654.271 23.16 655.331 23.16C656.371 23.16 657.301 23.35 658.121 23.73C658.941 24.11 659.641 24.64 660.221 25.32C660.801 25.98 661.241 26.77 661.541 27.69C661.861 28.61 662.021 29.62 662.021 30.72V31.86H650.891V32.58C650.891 33.24 650.991 33.86 651.191 34.44C651.411 35 651.711 35.49 652.091 35.91C652.491 36.33 652.971 36.66 653.531 36.9C654.111 37.14 654.761 37.26 655.481 37.26C656.461 37.26 657.311 37.03 658.031 36.57C658.771 36.11 659.341 35.45 659.741 34.59L661.451 35.82C660.951 36.88 660.171 37.74 659.111 38.4C658.051 39.04 656.791 39.36 655.331 39.36ZM655.331 25.17C654.671 25.17 654.071 25.29 653.531 25.53C652.991 25.75 652.521 26.07 652.121 26.49C651.741 26.91 651.441 27.41 651.221 27.99C651.001 28.55 650.891 29.17 650.891 29.85V30.06H659.441V29.73C659.441 28.35 659.061 27.25 658.301 26.43C657.561 25.59 656.571 25.17 655.331 25.17ZM666.275 23.52H678.365V39H675.965V25.62H668.675V39H666.275V23.52ZM687.103 25.62H681.823V23.52H694.783V25.62H689.503V39H687.103V25.62ZM596.55 51.52H598.95V54.04H599.07C599.47 53.06 600.05 52.34 600.81 51.88C601.59 51.4 602.52 51.16 603.6 51.16C604.56 51.16 605.43 51.35 606.21 51.73C606.99 52.11 607.65 52.65 608.19 53.35C608.75 54.05 609.17 54.9 609.45 55.9C609.75 56.9 609.9 58.02 609.9 59.26C609.9 60.5 609.75 61.62 609.45 62.62C609.17 63.62 608.75 64.47 608.19 65.17C607.65 65.87 606.99 66.41 606.21 66.79C605.43 67.17 604.56 67.36 603.6 67.36C601.5 67.36 599.99 66.4 599.07 64.48H598.95V73H596.55V51.52ZM602.94 65.2C604.3 65.2 605.37 64.78 606.15 63.94C606.93 63.08 607.32 61.96 607.32 60.58V57.94C607.32 56.56 606.93 55.45 606.15 54.61C605.37 53.75 604.3 53.32 602.94 53.32C602.4 53.32 601.88 53.4 601.38 53.56C600.9 53.7 600.48 53.9 600.12 54.16C599.76 54.42 599.47 54.74 599.25 55.12C599.05 55.48 598.95 55.87 598.95 56.29V62.05C598.95 62.55 599.05 63 599.25 63.4C599.47 63.78 599.76 64.11 600.12 64.39C600.48 64.65 600.9 64.85 601.38 64.99C601.88 65.13 602.4 65.2 602.94 65.2ZM623.646 51.52H626.016L619.086 70.6C618.906 71.06 618.726 71.44 618.546 71.74C618.366 72.06 618.146 72.31 617.886 72.49C617.626 72.67 617.296 72.8 616.896 72.88C616.516 72.96 616.046 73 615.486 73H614.256V70.9H616.686L617.856 67.6L612.066 51.52H614.466L618.186 62.05L618.906 64.57H619.056L619.896 62.05L623.646 51.52ZM629.377 51.52H631.777V58H634.867L637.867 53.26C638.087 52.9 638.297 52.61 638.497 52.39C638.697 52.15 638.897 51.97 639.097 51.85C639.297 51.73 639.507 51.65 639.727 51.61C639.947 51.55 640.197 51.52 640.477 51.52H641.887V53.62H640.027L637.597 57.46C637.437 57.72 637.297 57.93 637.177 58.09C637.057 58.25 636.937 58.39 636.817 58.51C636.697 58.61 636.567 58.7 636.427 58.78C636.287 58.84 636.117 58.9 635.917 58.96V59.08C636.337 59.14 636.697 59.28 636.997 59.5C637.317 59.7 637.647 60.1 637.987 60.7L640.357 64.9H642.127V67H640.387C639.867 67 639.387 66.87 638.947 66.61C638.527 66.33 638.117 65.83 637.717 65.11L634.867 60.04H631.777V67H629.377V51.52ZM651.552 67.36C650.512 67.36 649.562 67.17 648.702 66.79C647.842 66.41 647.102 65.87 646.482 65.17C645.882 64.45 645.412 63.6 645.072 62.62C644.732 61.62 644.562 60.5 644.562 59.26C644.562 58.04 644.732 56.93 645.072 55.93C645.412 54.93 645.882 54.08 646.482 53.38C647.102 52.66 647.842 52.11 648.702 51.73C649.562 51.35 650.512 51.16 651.552 51.16C652.592 51.16 653.532 51.35 654.372 51.73C655.232 52.11 655.972 52.66 656.592 53.38C657.212 54.08 657.692 54.93 658.032 55.93C658.372 56.93 658.542 58.04 658.542 59.26C658.542 60.5 658.372 61.62 658.032 62.62C657.692 63.6 657.212 64.45 656.592 65.17C655.972 65.87 655.232 66.41 654.372 66.79C653.532 67.17 652.592 67.36 651.552 67.36ZM651.552 65.23C652.852 65.23 653.912 64.83 654.732 64.03C655.552 63.23 655.962 62.01 655.962 60.37V58.15C655.962 56.51 655.552 55.29 654.732 54.49C653.912 53.69 652.852 53.29 651.552 53.29C650.252 53.29 649.192 53.69 648.372 54.49C647.552 55.29 647.142 56.51 647.142 58.15V60.37C647.142 62.01 647.552 63.23 648.372 64.03C649.192 64.83 650.252 65.23 651.552 65.23ZM662.789 51.52H670.589C671.849 51.52 672.839 51.88 673.559 52.6C674.279 53.3 674.639 54.25 674.639 55.45C674.639 57.39 673.629 58.48 671.609 58.72V58.84C672.809 58.94 673.699 59.32 674.279 59.98C674.879 60.62 675.179 61.42 675.179 62.38C675.179 63 675.079 63.59 674.879 64.15C674.699 64.71 674.429 65.2 674.069 65.62C673.709 66.04 673.269 66.38 672.749 66.64C672.229 66.88 671.639 67 670.979 67H662.789V51.52ZM670.259 65.02C670.979 65.02 671.549 64.83 671.969 64.45C672.389 64.07 672.599 63.53 672.599 62.83V62.14C672.599 61.44 672.389 60.9 671.969 60.52C671.549 60.14 670.979 59.95 670.259 59.95H665.189V65.02H670.259ZM669.959 58C670.619 58 671.129 57.84 671.489 57.52C671.869 57.18 672.059 56.7 672.059 56.08V55.42C672.059 54.8 671.869 54.33 671.489 54.01C671.129 53.67 670.619 53.5 669.959 53.5H665.189V58H669.959ZM685.668 67.36C684.628 67.36 683.678 67.17 682.818 66.79C681.958 66.41 681.218 65.87 680.598 65.17C679.998 64.45 679.528 63.6 679.188 62.62C678.848 61.62 678.678 60.5 678.678 59.26C678.678 58.04 678.848 56.93 679.188 55.93C679.528 54.93 679.998 54.08 680.598 53.38C681.218 52.66 681.958 52.11 682.818 51.73C683.678 51.35 684.628 51.16 685.668 51.16C686.708 51.16 687.648 51.35 688.488 51.73C689.348 52.11 690.088 52.66 690.708 53.38C691.328 54.08 691.808 54.93 692.148 55.93C692.488 56.93 692.658 58.04 692.658 59.26C692.658 60.5 692.488 61.62 692.148 62.62C691.808 63.6 691.328 64.45 690.708 65.17C690.088 65.87 689.348 66.41 688.488 66.79C687.648 67.17 686.708 67.36 685.668 67.36ZM685.668 65.23C686.968 65.23 688.028 64.83 688.848 64.03C689.668 63.23 690.078 62.01 690.078 60.37V58.15C690.078 56.51 689.668 55.29 688.848 54.49C688.028 53.69 686.968 53.29 685.668 53.29C684.368 53.29 683.308 53.69 682.488 54.49C681.668 55.29 681.258 56.51 681.258 58.15V60.37C681.258 62.01 681.668 63.23 682.488 64.03C683.308 64.83 684.368 65.23 685.668 65.23ZM696.718 59.17V56.59H704.548V59.17H696.718ZM594.24 92.9H596.01C596.63 91.9 597.13 90.65 597.51 89.15C597.89 87.65 598.08 85.93 598.08 83.99V79.52H608.55V92.9H611.13V99.2H608.94V95H596.43V99.2H594.24V92.9ZM606.15 92.9V81.62H600.36V84.11C600.36 86.17 600.18 87.93 599.82 89.39C599.48 90.83 599.07 92 598.59 92.9H606.15ZM614.75 79.52H617.09V88.1L616.85 91.82H616.97L618.89 88.52L625.07 79.52H627.29V95H624.95V86.42L625.19 82.7H625.07L623.15 86L616.97 95H614.75V79.52ZM636.017 81.62H630.737V79.52H643.697V81.62H638.417V95H636.017V81.62ZM652.577 95.36C651.517 95.36 650.557 95.17 649.697 94.79C648.857 94.41 648.127 93.87 647.507 93.17C646.907 92.45 646.437 91.6 646.097 90.62C645.777 89.62 645.617 88.5 645.617 87.26C645.617 86.04 645.777 84.93 646.097 83.93C646.437 82.93 646.907 82.08 647.507 81.38C648.127 80.66 648.857 80.11 649.697 79.73C650.557 79.35 651.517 79.16 652.577 79.16C653.617 79.16 654.547 79.35 655.367 79.73C656.187 80.11 656.887 80.64 657.467 81.32C658.047 81.98 658.487 82.77 658.787 83.69C659.107 84.61 659.267 85.62 659.267 86.72V87.86H648.137V88.58C648.137 89.24 648.237 89.86 648.437 90.44C648.657 91 648.957 91.49 649.337 91.91C649.737 92.33 650.217 92.66 650.777 92.9C651.357 93.14 652.007 93.26 652.727 93.26C653.707 93.26 654.557 93.03 655.277 92.57C656.017 92.11 656.587 91.45 656.987 90.59L658.697 91.82C658.197 92.88 657.417 93.74 656.357 94.4C655.297 95.04 654.037 95.36 652.577 95.36ZM652.577 81.17C651.917 81.17 651.317 81.29 650.777 81.53C650.237 81.75 649.767 82.07 649.367 82.49C648.987 82.91 648.687 83.41 648.467 83.99C648.247 84.55 648.137 85.17 648.137 85.85V86.06H656.687V85.73C656.687 84.35 656.307 83.25 655.547 82.43C654.807 81.59 653.817 81.17 652.577 81.17ZM661.211 92.9H663.251C663.511 92.54 663.741 92.11 663.941 91.61C664.141 91.11 664.311 90.51 664.451 89.81C664.591 89.11 664.701 88.28 664.781 87.32C664.861 86.36 664.901 85.23 664.901 83.93V79.52H675.371V95H672.971V81.62H667.181V83.99C667.181 85.49 667.121 86.8 667.001 87.92C666.901 89.04 666.751 90 666.551 90.8C666.371 91.6 666.151 92.26 665.891 92.78C665.631 93.28 665.351 93.68 665.051 93.98C664.671 94.36 664.251 94.63 663.791 94.79C663.331 94.93 662.781 95 662.141 95H661.211V92.9ZM693.474 95.36C691.514 95.36 689.924 94.72 688.704 93.44C687.504 92.16 686.834 90.36 686.694 88.04H683.184V95H680.784V79.52H683.184V86H686.754C686.954 83.82 687.644 82.14 688.824 80.96C690.024 79.76 691.574 79.16 693.474 79.16C694.494 79.16 695.424 79.35 696.264 79.73C697.104 80.09 697.814 80.62 698.394 81.32C698.994 82 699.454 82.84 699.774 83.84C700.094 84.84 700.254 85.98 700.254 87.26C700.254 88.54 700.094 89.68 699.774 90.68C699.454 91.68 698.994 92.53 698.394 93.23C697.814 93.91 697.104 94.44 696.264 94.82C695.424 95.18 694.494 95.36 693.474 95.36ZM693.474 93.23C694.754 93.23 695.774 92.85 696.534 92.09C697.294 91.33 697.674 90.09 697.674 88.37V86.15C697.674 84.43 697.294 83.19 696.534 82.43C695.774 81.67 694.754 81.29 693.474 81.29C692.194 81.29 691.174 81.67 690.414 82.43C689.654 83.19 689.274 84.43 689.274 86.15V88.37C689.274 90.09 689.654 91.33 690.414 92.09C691.174 92.85 692.194 93.23 693.474 93.23Z" fill="black"/>
<path d="M604.488 131.6H604.408C604.12 131.717 603.763 131.808 603.336 131.872C602.909 131.936 602.445 131.968 601.944 131.968C600.557 131.968 599.539 131.648 598.888 131.008C598.248 130.357 597.928 129.355 597.928 128V124.832H599.272V128C599.272 128.981 599.496 129.691 599.944 130.128C600.403 130.565 601.085 130.784 601.992 130.784C602.525 130.784 603.005 130.752 603.432 130.688C603.859 130.624 604.211 130.533 604.488 130.416V124.832H605.832V136H604.488V131.6ZM614.832 136C614.353 136 614.006 135.872 613.793 135.616C613.59 135.36 613.462 135.04 613.409 134.656H613.329C613.147 135.168 612.848 135.552 612.432 135.808C612.017 136.064 611.521 136.192 610.944 136.192C610.07 136.192 609.387 135.968 608.896 135.52C608.416 135.072 608.176 134.464 608.176 133.696C608.176 132.917 608.459 132.32 609.024 131.904C609.6 131.488 610.491 131.28 611.696 131.28H613.329V130.464C613.329 129.877 613.169 129.429 612.849 129.12C612.529 128.811 612.038 128.656 611.377 128.656C610.875 128.656 610.454 128.768 610.112 128.992C609.782 129.216 609.504 129.515 609.28 129.888L608.512 129.168C608.736 128.72 609.094 128.341 609.584 128.032C610.075 127.712 610.694 127.552 611.441 127.552C612.443 127.552 613.222 127.797 613.777 128.288C614.331 128.779 614.609 129.461 614.609 130.336V134.88H615.552V136H614.832ZM611.152 135.104C611.473 135.104 611.766 135.067 612.033 134.992C612.299 134.917 612.528 134.811 612.72 134.672C612.913 134.533 613.062 134.373 613.168 134.192C613.275 134.011 613.329 133.813 613.329 133.6V132.24H611.633C610.897 132.24 610.358 132.347 610.016 132.56C609.686 132.773 609.52 133.083 609.52 133.488V133.824C609.52 134.229 609.664 134.544 609.952 134.768C610.251 134.992 610.651 135.104 611.152 135.104ZM619.018 128.864H616.202V127.744H623.115V128.864H620.299V136H619.018V128.864ZM625.077 124.832H631.157V126.016H626.421V136H625.077V124.832ZM633.222 124.832H641.334V136H639.99V126.016H634.566V136H633.222V124.832ZM648.235 126.016V136H646.891V126.016H643.339V124.832H651.787V126.016H648.235Z" fill="black"/>
<path d="M616.819 267.663C617.394 267.308 617.854 266.792 618.14 266.179C618.97 264.293 619.337 262.236 619.21 260.179C619.338 258.122 618.971 256.065 618.14 254.179C617.854 253.566 617.394 253.05 616.819 252.695C616.243 252.34 615.576 252.16 614.9 252.179C614.222 252.16 613.554 252.339 612.976 252.694C612.399 253.049 611.938 253.565 611.65 254.179C610.819 256.065 610.452 258.122 610.58 260.179C610.453 262.236 610.82 264.293 611.65 266.179C611.938 266.793 612.399 267.309 612.976 267.664C613.554 268.02 614.222 268.199 614.9 268.179C615.576 268.198 616.243 268.019 616.819 267.663Z" fill="black"/>
<path d="M638.82 253.049H634.82V258.039H638.82C639.612 258.091 640.397 257.865 641.04 257.399C641.306 257.173 641.515 256.888 641.652 256.567C641.789 256.246 641.85 255.897 641.83 255.549C641.848 255.202 641.786 254.856 641.649 254.537C641.512 254.218 641.304 253.935 641.04 253.709C640.402 253.231 639.615 252.997 638.82 253.049Z" fill="black"/>
<path d="M618.43 288.66C617.787 289.126 617.002 289.352 616.21 289.3H612.21V284.3H616.21C617.005 284.248 617.792 284.482 618.43 284.96C618.692 285.187 618.898 285.47 619.033 285.789C619.169 286.108 619.229 286.454 619.21 286.8C619.235 287.149 619.177 287.499 619.041 287.823C618.906 288.146 618.696 288.432 618.43 288.66Z" fill="black"/>
<path d="M638.59 284.311H634.5V289.401H638.59C639.371 289.447 640.141 289.201 640.75 288.711C641.01 288.482 641.215 288.198 641.352 287.88C641.488 287.561 641.553 287.217 641.54 286.871C641.555 286.52 641.492 286.17 641.355 285.847C641.219 285.523 641.012 285.234 640.75 285.001C640.141 284.511 639.371 284.265 638.59 284.311Z" fill="black"/>
<path d="M663.43 297.43C663.121 298.023 662.654 298.52 662.082 298.867C661.51 299.214 660.854 299.397 660.185 299.397C659.516 299.397 658.86 299.214 658.288 298.867C657.716 298.52 657.249 298.023 656.94 297.43C656.105 295.545 655.734 293.488 655.86 291.43C655.735 289.372 656.105 287.315 656.94 285.43C657.249 284.837 657.716 284.34 658.288 283.993C658.86 283.646 659.516 283.463 660.185 283.463C660.854 283.463 661.51 283.646 662.082 283.993C662.654 284.34 663.121 284.837 663.43 285.43C664.257 287.317 664.624 289.373 664.5 291.43C664.625 293.49 664.259 295.55 663.43 297.44V297.43Z" fill="black"/>
<path d="M709 288.66C708.357 289.126 707.572 289.352 706.78 289.3H702.78V284.3H706.78C707.58 284.259 708.368 284.508 709 285C709.263 285.226 709.471 285.509 709.608 285.828C709.745 286.147 709.807 286.493 709.79 286.84C709.806 287.183 709.743 287.526 709.606 287.841C709.47 288.157 709.262 288.437 709 288.66Z" fill="black"/>
<path fill-rule="evenodd" clip-rule="evenodd" d="M597 345V238H750V365H740V355H730V345H597ZM607.2 250.169C608.967 247.889 611.533 246.749 614.9 246.749C616.362 246.661 617.824 246.925 619.163 247.52C620.501 248.115 621.677 249.024 622.59 250.169C624.35 252.449 625.23 255.782 625.23 260.169C625.23 264.556 624.35 267.889 622.59 270.169C621.679 271.317 620.504 272.229 619.165 272.826C617.826 273.423 616.363 273.688 614.9 273.599C611.527 273.579 608.96 272.436 607.2 270.169C605.44 267.902 604.56 264.569 604.56 260.169C604.553 255.782 605.433 252.449 607.2 250.169ZM638.82 263.439H634.82V272.999H628.82V247.349H638.82C640.466 247.308 642.099 247.65 643.59 248.349C644.882 248.975 645.968 249.957 646.72 251.179C647.496 252.494 647.885 254.002 647.84 255.529C647.878 256.998 647.489 258.447 646.72 259.699C645.96 260.893 644.874 261.844 643.59 262.439C642.095 263.125 640.465 263.467 638.82 263.439ZM669.04 267.861H658.1V262.771H667.76V257.781H658.1V252.511H669.36V247.391H652.09V272.981H669.04V267.861ZM678.16 252.091L678.54 262.651V272.981H673.39V247.391H682.67L686.86 268.271H687.5L687.11 257.721V247.391H692.26V272.981H682.98L678.8 252.091H678.16ZM620.56 279.66C619.07 278.96 617.436 278.617 615.79 278.66H605.79V304.24H611.79V294.71H615.79C617.435 294.737 619.065 294.396 620.56 293.71C621.844 293.128 622.931 292.187 623.69 291C624.459 289.747 624.848 288.299 624.81 286.83C624.852 285.303 624.464 283.796 623.69 282.48C622.936 281.261 621.85 280.283 620.56 279.66ZM646.45 290.771C645.684 291.925 644.615 292.845 643.36 293.431C642.922 293.656 642.467 293.846 642 294.001L648.18 304.241H641.43L635.78 294.391H634.49V304.241H628.49V278.661H638.82C640.408 278.625 641.981 278.968 643.41 279.661C644.682 280.294 645.742 281.284 646.46 282.511C647.212 283.827 647.59 285.325 647.55 286.841C647.577 288.23 647.194 289.597 646.45 290.771ZM660.18 278C656.813 278 654.25 279.143 652.49 281.43C650.73 283.717 649.85 287.05 649.85 291.43C649.85 295.823 650.73 299.157 652.49 301.43C654.25 303.703 656.813 304.843 660.18 304.85C663.553 304.85 666.117 303.71 667.87 301.43C669.623 299.15 670.503 295.817 670.51 291.43C670.51 287.03 669.63 283.697 667.87 281.43C666.11 279.163 663.547 278.02 660.18 278ZM682.63 291.03H683.27L684.9 278.65H692.42V304.24H687.33V294.74L687.75 284.09H687.11L685.51 296.24H680.14L678.54 284.09H677.9L678.31 294.74V304.24H673.23V278.65H681L682.63 291.03ZM711.55 279.66C710.059 278.961 708.426 278.618 706.78 278.66H696.78V304.24H702.78V294.71H706.78C708.425 294.737 710.055 294.395 711.55 293.71C712.832 293.125 713.918 292.185 714.68 291C715.449 289.747 715.838 288.299 715.8 286.83C715.842 285.303 715.454 283.796 714.68 282.48C713.923 281.263 712.838 280.286 711.55 279.66ZM717.97 284.38V278.65H738.25V284.38H731.12V304.24H725.1V284.38H717.97ZM605.75 315.64H612.02V329.78H605.75V335.5H624.3V329.78H618.03V315.64H624.3V309.91H605.75V315.64ZM642.21 330.8L641.82 320.25V309.92H646.97V335.5H637.7L633.51 314.62H632.87L633.25 325.17V335.5H628.1V309.92H637.38L641.57 330.8H642.21ZM660.66 314.75C661.125 314.734 661.588 314.814 662.02 314.986C662.452 315.158 662.844 315.418 663.17 315.75C663.911 316.596 664.394 317.637 664.56 318.75H670.19C670.146 316.956 669.687 315.197 668.85 313.61C668.104 312.234 666.97 311.108 665.59 310.37C664.066 309.59 662.371 309.205 660.66 309.25C657.273 309.25 654.7 310.39 652.94 312.67C651.18 314.95 650.3 318.283 650.3 322.67C650.3 326.983 651.023 330.283 652.47 332.57C653.1 333.649 654.009 334.538 655.102 335.144C656.195 335.749 657.431 336.048 658.68 336.01C659.697 336.042 660.703 335.796 661.59 335.3C662.356 334.858 662.927 334.144 663.19 333.3H664.5V335.5H669.74V321.81H660.05V327.06H664.5C664.5 327.786 664.328 328.502 664 329.15C663.715 329.748 663.261 330.25 662.694 330.595C662.128 330.94 661.473 331.111 660.81 331.09C660.098 331.133 659.389 330.966 658.77 330.611C658.152 330.255 657.651 329.727 657.33 329.09C656.603 327.756 656.24 325.636 656.24 322.73C656.115 320.67 656.493 318.611 657.34 316.73C657.643 316.114 658.118 315.6 658.707 315.248C659.296 314.897 659.975 314.724 660.66 314.75Z" fill="black"/>
<path d="M30.952 48.328H63.4V93H58.024V53.064H36.328V93H30.952V48.328ZM87.935 93.768C85.7163 93.768 83.6897 93.3627 81.855 92.552C80.0203 91.7413 78.4417 90.5893 77.119 89.096C75.839 87.56 74.8363 85.7467 74.111 83.656C73.3857 81.5227 73.023 79.1333 73.023 76.488C73.023 73.8853 73.3857 71.5173 74.111 69.384C74.8363 67.2507 75.839 65.4373 77.119 63.944C78.4417 62.408 80.0203 61.2347 81.855 60.424C83.6897 59.6133 85.7163 59.208 87.935 59.208C90.1537 59.208 92.159 59.6133 93.951 60.424C95.7857 61.2347 97.3643 62.408 98.687 63.944C100.01 65.4373 101.034 67.2507 101.759 69.384C102.484 71.5173 102.847 73.8853 102.847 76.488C102.847 79.1333 102.484 81.5227 101.759 83.656C101.034 85.7467 100.01 87.56 98.687 89.096C97.3643 90.5893 95.7857 91.7413 93.951 92.552C92.159 93.3627 90.1537 93.768 87.935 93.768ZM87.935 89.224C90.7083 89.224 92.9697 88.3707 94.719 86.664C96.4683 84.9573 97.343 82.3547 97.343 78.856V74.12C97.343 70.6213 96.4683 68.0187 94.719 66.312C92.9697 64.6053 90.7083 63.752 87.935 63.752C85.1617 63.752 82.9003 64.6053 81.151 66.312C79.4017 68.0187 78.527 70.6213 78.527 74.12V78.856C78.527 82.3547 79.4017 84.9573 81.151 86.664C82.9003 88.3707 85.1617 89.224 87.935 89.224ZM130.34 77.832H130.02C128.995 78.984 127.737 79.944 126.243 80.712C124.75 81.4373 122.787 81.8 120.355 81.8C116.985 81.8 114.361 80.968 112.483 79.304C110.606 77.5973 109.667 75.0373 109.667 71.624V59.976H114.787V71.176C114.787 75.1867 117.155 77.192 121.891 77.192C124.323 77.192 126.329 76.872 127.907 76.232C129.529 75.5493 130.34 74.5253 130.34 73.16V59.976H135.459V93H130.34V77.832ZM146.985 59.976H151.977V78.28L151.465 86.216H151.721L155.817 79.176L169.001 59.976H173.737V93H168.745V74.696L169.257 66.76H169.001L164.905 73.8L151.721 93H146.985V59.976ZM185.25 59.976H190.37V73.736H206.882V59.976H212.002V93H206.882V78.216H190.37V93H185.25V59.976ZM223.515 59.976H228.507V78.28L227.995 86.216H228.251L232.347 79.176L245.531 59.976H250.267V93H245.275V74.696L245.787 66.76H245.531L241.435 73.8L228.251 93H223.515V59.976ZM268.884 64.456H257.62V59.976H285.268V64.456H274.004V93H268.884V64.456ZM292.608 59.976H297.728V71.944H307.136C310.464 71.944 313.109 72.8827 315.072 74.76C317.034 76.6373 318.016 79.2187 318.016 82.504C318.016 85.832 317.056 88.4133 315.136 90.248C313.216 92.0827 310.57 93 307.2 93H292.608V59.976ZM306.432 88.52C308.352 88.52 309.845 88.1573 310.912 87.432C311.978 86.7067 312.512 85.4907 312.512 83.784V81.096C312.512 79.3893 311.978 78.1947 310.912 77.512C309.845 76.7867 308.352 76.424 306.432 76.424H297.728V88.52H306.432ZM30.44 119.976H47.08C49.768 119.976 51.88 120.744 53.416 122.28C54.952 123.773 55.72 125.8 55.72 128.36C55.72 132.499 53.5653 134.824 49.256 135.336V135.592C51.816 135.805 53.7147 136.616 54.952 138.024C56.232 139.389 56.872 141.096 56.872 143.144C56.872 144.467 56.6587 145.725 56.232 146.92C55.848 148.115 55.272 149.16 54.504 150.056C53.736 150.952 52.7973 151.677 51.688 152.232C50.5787 152.744 49.32 153 47.912 153H30.44V119.976ZM46.376 148.776C47.912 148.776 49.128 148.371 50.024 147.56C50.92 146.749 51.368 145.597 51.368 144.104V142.632C51.368 141.139 50.92 139.987 50.024 139.176C49.128 138.365 47.912 137.96 46.376 137.96H35.56V148.776H46.376ZM45.736 133.8C47.144 133.8 48.232 133.459 49 132.776C49.8107 132.051 50.216 131.027 50.216 129.704V128.296C50.216 126.973 49.8107 125.971 49 125.288C48.232 124.563 47.144 124.2 45.736 124.2H35.56V133.8H45.736ZM79.1835 153.768C76.9222 153.768 74.8742 153.363 73.0395 152.552C71.2475 151.741 69.6902 150.589 68.3675 149.096C67.0875 147.56 66.0848 145.747 65.3595 143.656C64.6768 141.523 64.3355 139.133 64.3355 136.488C64.3355 133.885 64.6768 131.517 65.3595 129.384C66.0848 127.251 67.0875 125.437 68.3675 123.944C69.6902 122.408 71.2475 121.235 73.0395 120.424C74.8742 119.613 76.9222 119.208 79.1835 119.208C81.4022 119.208 83.3862 119.613 85.1355 120.424C86.8848 121.235 88.3782 122.365 89.6155 123.816C90.8528 125.224 91.7915 126.909 92.4315 128.872C93.1142 130.835 93.4555 132.989 93.4555 135.336V137.768H69.7115V139.304C69.7115 140.712 69.9248 142.035 70.3515 143.272C70.8208 144.467 71.4608 145.512 72.2715 146.408C73.1248 147.304 74.1488 148.008 75.3435 148.52C76.5808 149.032 77.9675 149.288 79.5035 149.288C81.5942 149.288 83.4075 148.797 84.9435 147.816C86.5222 146.835 87.7382 145.427 88.5915 143.592L92.2395 146.216C91.1728 148.477 89.5088 150.312 87.2475 151.72C84.9862 153.085 82.2982 153.768 79.1835 153.768ZM79.1835 123.496C77.7755 123.496 76.4955 123.752 75.3435 124.264C74.1915 124.733 73.1888 125.416 72.3355 126.312C71.5248 127.208 70.8848 128.275 70.4155 129.512C69.9462 130.707 69.7115 132.029 69.7115 133.48V133.928H87.9515V133.224C87.9515 130.28 87.1408 127.933 85.5195 126.184C83.9408 124.392 81.8288 123.496 79.1835 123.496ZM115.581 153.768C113.277 153.768 111.208 153.384 109.373 152.616C107.538 151.848 105.981 150.653 104.701 149.032C103.421 147.411 102.418 145.32 101.693 142.76C101.01 140.157 100.669 137.021 100.669 133.352C100.669 128.616 100.968 124.563 101.565 121.192C102.205 117.821 103.208 115.048 104.573 112.872C105.938 110.696 107.666 109.075 109.757 108.008C111.89 106.899 114.472 106.216 117.501 105.96L127.869 105.128V110.312L116.861 111.208C114.984 111.379 113.405 111.741 112.125 112.296C110.845 112.851 109.778 113.725 108.925 114.92C108.114 116.072 107.474 117.608 107.005 119.528C106.578 121.448 106.258 123.837 106.045 126.696H106.301C107.282 124.435 108.541 122.749 110.077 121.64C111.656 120.531 113.725 119.976 116.285 119.976C118.376 119.976 120.296 120.36 122.045 121.128C123.794 121.896 125.288 123.005 126.525 124.456C127.762 125.864 128.722 127.635 129.405 129.768C130.13 131.859 130.493 134.248 130.493 136.936C130.493 139.453 130.13 141.736 129.405 143.784C128.68 145.832 127.656 147.603 126.333 149.096C125.01 150.589 123.432 151.741 121.597 152.552C119.805 153.363 117.8 153.768 115.581 153.768ZM115.837 149.224C117.16 149.224 118.376 149.011 119.485 148.584C120.594 148.157 121.554 147.517 122.365 146.664C123.176 145.811 123.816 144.765 124.285 143.528C124.754 142.291 124.989 140.84 124.989 139.176V135.144C124.989 131.56 124.114 128.893 122.365 127.144C120.616 125.395 118.269 124.52 115.325 124.52C112.253 124.52 109.949 125.288 108.413 126.824C106.92 128.317 106.173 130.28 106.173 132.712V138.6C106.173 142.184 107.048 144.851 108.797 146.6C110.546 148.349 112.893 149.224 115.837 149.224ZM139.211 136.296V130.792H155.915V136.296H139.211ZM179.35 153.768C177.046 153.768 174.977 153.363 173.142 152.552C171.308 151.741 169.75 150.589 168.47 149.096C167.233 147.603 166.273 145.789 165.59 143.656C164.95 141.523 164.63 139.133 164.63 136.488C164.63 133.843 164.95 131.453 165.59 129.32C166.273 127.187 167.233 125.373 168.47 123.88C169.75 122.387 171.308 121.235 173.142 120.424C174.977 119.613 177.046 119.208 179.35 119.208C182.636 119.208 185.26 119.933 187.222 121.384C189.228 122.792 190.721 124.648 191.702 126.952L187.414 129.128C186.817 127.421 185.836 126.099 184.47 125.16C183.105 124.221 181.398 123.752 179.35 123.752C177.814 123.752 176.47 124.008 175.318 124.52C174.166 124.989 173.206 125.672 172.438 126.568C171.67 127.421 171.094 128.467 170.71 129.704C170.326 130.899 170.134 132.221 170.134 133.672V139.304C170.134 142.205 170.902 144.595 172.438 146.472C174.017 148.307 176.321 149.224 179.35 149.224C183.489 149.224 186.476 147.304 188.31 143.464L192.022 145.96C190.956 148.349 189.356 150.248 187.222 151.656C185.132 153.064 182.508 153.768 179.35 153.768ZM211.931 153.768C209.67 153.768 207.622 153.363 205.787 152.552C203.995 151.741 202.438 150.589 201.115 149.096C199.835 147.56 198.832 145.747 198.107 143.656C197.424 141.523 197.083 139.133 197.083 136.488C197.083 133.885 197.424 131.517 198.107 129.384C198.832 127.251 199.835 125.437 201.115 123.944C202.438 122.408 203.995 121.235 205.787 120.424C207.622 119.613 209.67 119.208 211.931 119.208C214.15 119.208 216.134 119.613 217.883 120.424C219.632 121.235 221.126 122.365 222.363 123.816C223.6 125.224 224.539 126.909 225.179 128.872C225.862 130.835 226.203 132.989 226.203 135.336V137.768H202.459V139.304C202.459 140.712 202.672 142.035 203.099 143.272C203.568 144.467 204.208 145.512 205.019 146.408C205.872 147.304 206.896 148.008 208.091 148.52C209.328 149.032 210.715 149.288 212.251 149.288C214.342 149.288 216.155 148.797 217.691 147.816C219.27 146.835 220.486 145.427 221.339 143.592L224.987 146.216C223.92 148.477 222.256 150.312 219.995 151.72C217.734 153.085 215.046 153.768 211.931 153.768ZM211.931 123.496C210.523 123.496 209.243 123.752 208.091 124.264C206.939 124.733 205.936 125.416 205.083 126.312C204.272 127.208 203.632 128.275 203.163 129.512C202.694 130.707 202.459 132.029 202.459 133.48V133.928H220.699V133.224C220.699 130.28 219.888 127.933 218.267 126.184C216.688 124.392 214.576 123.496 211.931 123.496ZM235.28 119.976H240.4V125.352H240.656C241.509 123.261 242.747 121.725 244.368 120.744C246.032 119.72 248.016 119.208 250.32 119.208C252.368 119.208 254.224 119.613 255.888 120.424C257.552 121.235 258.96 122.387 260.112 123.88C261.307 125.373 262.203 127.187 262.8 129.32C263.44 131.453 263.76 133.843 263.76 136.488C263.76 139.133 263.44 141.523 262.8 143.656C262.203 145.789 261.307 147.603 260.112 149.096C258.96 150.589 257.552 151.741 255.888 152.552C254.224 153.363 252.368 153.768 250.32 153.768C245.84 153.768 242.619 151.72 240.656 147.624H240.4V165.8H235.28V119.976ZM248.912 149.16C251.813 149.16 254.096 148.264 255.76 146.472C257.424 144.637 258.256 142.248 258.256 139.304V133.672C258.256 130.728 257.424 128.36 255.76 126.568C254.096 124.733 251.813 123.816 248.912 123.816C247.76 123.816 246.651 123.987 245.584 124.328C244.56 124.627 243.664 125.053 242.896 125.608C242.128 126.163 241.509 126.845 241.04 127.656C240.613 128.424 240.4 129.256 240.4 130.152V142.44C240.4 143.507 240.613 144.467 241.04 145.32C241.509 146.131 242.128 146.835 242.896 147.432C243.664 147.987 244.56 148.413 245.584 148.712C246.651 149.011 247.76 149.16 248.912 149.16ZM273.045 119.976H289.685C292.373 119.976 294.485 120.744 296.021 122.28C297.557 123.773 298.325 125.8 298.325 128.36C298.325 132.499 296.17 134.824 291.861 135.336V135.592C294.421 135.805 296.32 136.616 297.557 138.024C298.837 139.389 299.477 141.096 299.477 143.144C299.477 144.467 299.264 145.725 298.837 146.92C298.453 148.115 297.877 149.16 297.109 150.056C296.341 150.952 295.402 151.677 294.293 152.232C293.184 152.744 291.925 153 290.517 153H273.045V119.976ZM288.981 148.776C290.517 148.776 291.733 148.371 292.629 147.56C293.525 146.749 293.973 145.597 293.973 144.104V142.632C293.973 141.139 293.525 139.987 292.629 139.176C291.733 138.365 290.517 137.96 288.981 137.96H278.165V148.776H288.981ZM288.341 133.8C289.749 133.8 290.837 133.459 291.605 132.776C292.416 132.051 292.821 131.027 292.821 129.704V128.296C292.821 126.973 292.416 125.971 291.605 125.288C290.837 124.563 289.749 124.2 288.341 124.2H278.165V133.8H288.341ZM321.788 153.768C319.527 153.768 317.479 153.363 315.644 152.552C313.852 151.741 312.295 150.589 310.972 149.096C309.692 147.56 308.69 145.747 307.964 143.656C307.282 141.523 306.94 139.133 306.94 136.488C306.94 133.885 307.282 131.517 307.964 129.384C308.69 127.251 309.692 125.437 310.972 123.944C312.295 122.408 313.852 121.235 315.644 120.424C317.479 119.613 319.527 119.208 321.788 119.208C324.007 119.208 325.991 119.613 327.74 120.424C329.49 121.235 330.983 122.365 332.22 123.816C333.458 125.224 334.396 126.909 335.036 128.872C335.719 130.835 336.06 132.989 336.06 135.336V137.768H312.316V139.304C312.316 140.712 312.53 142.035 312.956 143.272C313.426 144.467 314.066 145.512 314.876 146.408C315.73 147.304 316.754 148.008 317.948 148.52C319.186 149.032 320.572 149.288 322.108 149.288C324.199 149.288 326.012 148.797 327.548 147.816C329.127 146.835 330.343 145.427 331.196 143.592L334.844 146.216C333.778 148.477 332.114 150.312 329.852 151.72C327.591 153.085 324.903 153.768 321.788 153.768ZM321.788 123.496C320.38 123.496 319.1 123.752 317.948 124.264C316.796 124.733 315.794 125.416 314.94 126.312C314.13 127.208 313.49 128.275 313.02 129.512C312.551 130.707 312.316 132.029 312.316 133.48V133.928H330.556V133.224C330.556 130.28 329.746 127.933 328.124 126.184C326.546 124.392 324.434 123.496 321.788 123.496ZM345.138 119.976H350.258V125.352H350.514C351.367 123.261 352.604 121.725 354.226 120.744C355.89 119.72 357.874 119.208 360.178 119.208C362.226 119.208 364.082 119.613 365.746 120.424C367.41 121.235 368.818 122.387 369.97 123.88C371.164 125.373 372.06 127.187 372.658 129.32C373.298 131.453 373.618 133.843 373.618 136.488C373.618 139.133 373.298 141.523 372.658 143.656C372.06 145.789 371.164 147.603 369.97 149.096C368.818 150.589 367.41 151.741 365.746 152.552C364.082 153.363 362.226 153.768 360.178 153.768C355.698 153.768 352.476 151.72 350.514 147.624H350.258V165.8H345.138V119.976ZM358.77 149.16C361.671 149.16 363.954 148.264 365.618 146.472C367.282 144.637 368.114 142.248 368.114 139.304V133.672C368.114 130.728 367.282 128.36 365.618 126.568C363.954 124.733 361.671 123.816 358.77 123.816C357.618 123.816 356.508 123.987 355.442 124.328C354.418 124.627 353.522 125.053 352.754 125.608C351.986 126.163 351.367 126.845 350.898 127.656C350.471 128.424 350.258 129.256 350.258 130.152V142.44C350.258 143.507 350.471 144.467 350.898 145.32C351.367 146.131 351.986 146.835 352.754 147.432C353.522 147.987 354.418 148.413 355.442 148.712C356.508 149.011 357.618 149.16 358.77 149.16ZM43.176 213.768C40.872 213.768 38.8027 213.384 36.968 212.616C35.1333 211.848 33.576 210.653 32.296 209.032C31.016 207.411 30.0133 205.32 29.288 202.76C28.6053 200.157 28.264 197.021 28.264 193.352C28.264 188.616 28.5627 184.563 29.16 181.192C29.8 177.821 30.8027 175.048 32.168 172.872C33.5333 170.696 35.2613 169.075 37.352 168.008C39.4853 166.899 42.0667 166.216 45.096 165.96L55.464 165.128V170.312L44.456 171.208C42.5787 171.379 41 171.741 39.72 172.296C38.44 172.851 37.3733 173.725 36.52 174.92C35.7093 176.072 35.0693 177.608 34.6 179.528C34.1733 181.448 33.8533 183.837 33.64 186.696H33.896C34.8773 184.435 36.136 182.749 37.672 181.64C39.2507 180.531 41.32 179.976 43.88 179.976C45.9707 179.976 47.8907 180.36 49.64 181.128C51.3893 181.896 52.8827 183.005 54.12 184.456C55.3573 185.864 56.3173 187.635 57 189.768C57.7253 191.859 58.088 194.248 58.088 196.936C58.088 199.453 57.7253 201.736 57 203.784C56.2747 205.832 55.2507 207.603 53.928 209.096C52.6053 210.589 51.0267 211.741 49.192 212.552C47.4 213.363 45.3947 213.768 43.176 213.768ZM43.432 209.224C44.7547 209.224 45.9707 209.011 47.08 208.584C48.1893 208.157 49.1493 207.517 49.96 206.664C50.7707 205.811 51.4107 204.765 51.88 203.528C52.3493 202.291 52.584 200.84 52.584 199.176V195.144C52.584 191.56 51.7093 188.893 49.96 187.144C48.2107 185.395 45.864 184.52 42.92 184.52C39.848 184.52 37.544 185.288 36.008 186.824C34.5147 188.317 33.768 190.28 33.768 192.712V198.6C33.768 202.184 34.6427 204.851 36.392 206.6C38.1413 208.349 40.488 209.224 43.432 209.224ZM79.621 213.768C77.3597 213.768 75.3117 213.363 73.477 212.552C71.685 211.741 70.1277 210.589 68.805 209.096C67.525 207.56 66.5223 205.747 65.797 203.656C65.1143 201.523 64.773 199.133 64.773 196.488C64.773 193.885 65.1143 191.517 65.797 189.384C66.5223 187.251 67.525 185.437 68.805 183.944C70.1277 182.408 71.685 181.235 73.477 180.424C75.3117 179.613 77.3597 179.208 79.621 179.208C81.8397 179.208 83.8237 179.613 85.573 180.424C87.3223 181.235 88.8157 182.365 90.053 183.816C91.2903 185.224 92.229 186.909 92.869 188.872C93.5517 190.835 93.893 192.989 93.893 195.336V197.768H70.149V199.304C70.149 200.712 70.3623 202.035 70.789 203.272C71.2583 204.467 71.8983 205.512 72.709 206.408C73.5623 207.304 74.5863 208.008 75.781 208.52C77.0183 209.032 78.405 209.288 79.941 209.288C82.0317 209.288 83.845 208.797 85.381 207.816C86.9597 206.835 88.1757 205.427 89.029 203.592L92.677 206.216C91.6103 208.477 89.9463 210.312 87.685 211.72C85.4237 213.085 82.7357 213.768 79.621 213.768ZM79.621 183.496C78.213 183.496 76.933 183.752 75.781 184.264C74.629 184.733 73.6263 185.416 72.773 186.312C71.9623 187.208 71.3223 188.275 70.853 189.512C70.3837 190.707 70.149 192.029 70.149 193.48V193.928H88.389V193.224C88.389 190.28 87.5783 187.933 85.957 186.184C84.3783 184.392 82.2663 183.496 79.621 183.496ZM112.314 213.768C108.943 213.768 106.255 213.192 104.25 212.04C102.245 210.888 100.602 209.245 99.322 207.112L103.162 204.04C104.015 205.661 105.189 206.941 106.682 207.88C108.218 208.776 110.095 209.224 112.314 209.224C115.002 209.224 116.986 208.733 118.266 207.752C119.589 206.771 120.25 205.512 120.25 203.976V203.208C120.25 201.544 119.674 200.285 118.522 199.432C117.413 198.536 115.834 198.088 113.786 198.088H106.746V193.8H113.146C115.194 193.8 116.773 193.395 117.882 192.584C118.991 191.773 119.546 190.621 119.546 189.128V188.36C119.546 186.952 118.97 185.843 117.818 185.032C116.709 184.179 114.831 183.752 112.186 183.752C110.01 183.752 108.218 184.2 106.81 185.096C105.402 185.949 104.271 187.123 103.418 188.616L100.026 185.736C101.05 183.816 102.543 182.259 104.506 181.064C106.511 179.827 109.157 179.208 112.442 179.208C116.751 179.208 119.93 179.997 121.978 181.576C124.026 183.155 125.05 185.331 125.05 188.104C125.05 190.152 124.495 191.773 123.386 192.968C122.319 194.163 120.762 194.995 118.714 195.464V195.72C121.061 196.061 122.81 196.915 123.962 198.28C125.157 199.603 125.754 201.309 125.754 203.4C125.754 206.6 124.538 209.139 122.106 211.016C119.717 212.851 116.453 213.768 112.314 213.768ZM175.437 213C173.517 213 172.131 212.488 171.277 211.464C170.467 210.44 169.955 209.16 169.741 207.624H169.421C168.696 209.672 167.501 211.208 165.837 212.232C164.173 213.256 162.189 213.768 159.885 213.768C156.387 213.768 153.656 212.872 151.693 211.08C149.773 209.288 148.813 206.856 148.813 203.784C148.813 200.669 149.944 198.28 152.205 196.616C154.509 194.952 158.072 194.12 162.893 194.12H169.421V190.856C169.421 188.509 168.781 186.717 167.501 185.48C166.221 184.243 164.259 183.624 161.613 183.624C159.608 183.624 157.923 184.072 156.557 184.968C155.235 185.864 154.125 187.059 153.229 188.552L150.157 185.672C151.053 183.88 152.483 182.365 154.445 181.128C156.408 179.848 158.883 179.208 161.869 179.208C165.88 179.208 168.995 180.189 171.213 182.152C173.432 184.115 174.541 186.845 174.541 190.344V208.52H178.317V213H175.437ZM160.717 209.416C161.997 209.416 163.171 209.267 164.237 208.968C165.304 208.669 166.221 208.243 166.989 207.688C167.757 207.133 168.355 206.493 168.781 205.768C169.208 205.043 169.421 204.253 169.421 203.4V197.96H162.637C159.693 197.96 157.539 198.387 156.173 199.24C154.851 200.093 154.189 201.331 154.189 202.952V204.296C154.189 205.917 154.765 207.176 155.917 208.072C157.112 208.968 158.712 209.416 160.717 209.416ZM182.837 208.52H186.613C187.936 206.387 189.002 203.72 189.813 200.52C190.624 197.32 191.029 193.651 191.029 189.512V179.976H213.365V208.52H218.869V221.96H214.197V213H187.509V221.96H182.837V208.52ZM208.245 208.52V184.456H195.893V189.768C195.893 194.163 195.509 197.917 194.741 201.032C194.016 204.104 193.141 206.6 192.117 208.52H208.245ZM226.592 179.976H233.312L243.36 197.128H243.616L253.6 179.976H260.256V213H255.264V186.12H254.944L253.088 189.704L243.424 206.088L233.76 189.704L231.904 186.12H231.584V213H226.592V179.976ZM271.795 179.976H276.787V198.28L276.275 206.216H276.531L280.627 199.176L293.811 179.976H298.547V213H293.555V194.696L294.067 186.76H293.811L289.715 193.8L276.531 213H271.795V179.976ZM310.06 179.976H315.18V193.736H331.692V179.976H336.812V213H331.692V198.216H315.18V213H310.06V179.976ZM348.325 179.976H353.317V198.28L352.805 206.216H353.061L357.157 199.176L370.341 179.976H375.077V213H370.085V194.696L370.597 186.76H370.341L366.245 193.8L353.061 213H348.325V179.976ZM398.878 213.768C396.574 213.768 394.505 213.363 392.67 212.552C390.835 211.741 389.278 210.589 387.998 209.096C386.761 207.603 385.801 205.789 385.118 203.656C384.478 201.523 384.158 199.133 384.158 196.488C384.158 193.843 384.478 191.453 385.118 189.32C385.801 187.187 386.761 185.373 387.998 183.88C389.278 182.387 390.835 181.235 392.67 180.424C394.505 179.613 396.574 179.208 398.878 179.208C402.163 179.208 404.787 179.933 406.75 181.384C408.755 182.792 410.249 184.648 411.23 186.952L406.942 189.128C406.345 187.421 405.363 186.099 403.998 185.16C402.633 184.221 400.926 183.752 398.878 183.752C397.342 183.752 395.998 184.008 394.846 184.52C393.694 184.989 392.734 185.672 391.966 186.568C391.198 187.421 390.622 188.467 390.238 189.704C389.854 190.899 389.662 192.221 389.662 193.672V199.304C389.662 202.205 390.43 204.595 391.966 206.472C393.545 208.307 395.849 209.224 398.878 209.224C403.017 209.224 406.003 207.304 407.838 203.464L411.55 205.96C410.483 208.349 408.883 210.248 406.75 211.656C404.659 213.064 402.035 213.768 398.878 213.768ZM418.394 196.296V190.792H435.098V196.296H418.394ZM37.544 244.456H26.28V239.976H53.928V244.456H42.664V273H37.544V244.456ZM61.2675 239.976H66.3875V245.352H66.6435C67.4968 243.261 68.7342 241.725 70.3555 240.744C72.0195 239.72 74.0035 239.208 76.3075 239.208C78.3555 239.208 80.2115 239.613 81.8755 240.424C83.5395 241.235 84.9475 242.387 86.0995 243.88C87.2942 245.373 88.1902 247.187 88.7875 249.32C89.4275 251.453 89.7475 253.843 89.7475 256.488C89.7475 259.133 89.4275 261.523 88.7875 263.656C88.1902 265.789 87.2942 267.603 86.0995 269.096C84.9475 270.589 83.5395 271.741 81.8755 272.552C80.2115 273.363 78.3555 273.768 76.3075 273.768C71.8275 273.768 68.6062 271.72 66.6435 267.624H66.3875V285.8H61.2675V239.976ZM74.8995 269.16C77.8008 269.16 80.0835 268.264 81.7475 266.472C83.4115 264.637 84.2435 262.248 84.2435 259.304V253.672C84.2435 250.728 83.4115 248.36 81.7475 246.568C80.0835 244.733 77.8008 243.816 74.8995 243.816C73.7475 243.816 72.6382 243.987 71.5715 244.328C70.5475 244.627 69.6515 245.053 68.8835 245.608C68.1155 246.163 67.4968 246.845 67.0275 247.656C66.6008 248.424 66.3875 249.256 66.3875 250.152V262.44C66.3875 263.507 66.6008 264.467 67.0275 265.32C67.4968 266.131 68.1155 266.835 68.8835 267.432C69.6515 267.987 70.5475 268.413 71.5715 268.712C72.6382 269.011 73.7475 269.16 74.8995 269.16ZM123.032 273C121.112 273 119.726 272.488 118.872 271.464C118.062 270.44 117.55 269.16 117.337 267.624H117.017C116.291 269.672 115.096 271.208 113.432 272.232C111.769 273.256 109.785 273.768 107.48 273.768C103.982 273.768 101.251 272.872 99.2885 271.08C97.3685 269.288 96.4085 266.856 96.4085 263.784C96.4085 260.669 97.5392 258.28 99.8005 256.616C102.104 254.952 105.667 254.12 110.488 254.12H117.017V250.856C117.017 248.509 116.377 246.717 115.097 245.48C113.817 244.243 111.854 243.624 109.208 243.624C107.203 243.624 105.518 244.072 104.152 244.968C102.83 245.864 101.72 247.059 100.824 248.552L97.7525 245.672C98.6485 243.88 100.078 242.365 102.04 241.128C104.003 239.848 106.478 239.208 109.464 239.208C113.475 239.208 116.59 240.189 118.809 242.152C121.027 244.115 122.136 246.845 122.136 250.344V268.52H125.912V273H123.032ZM108.312 269.416C109.592 269.416 110.766 269.267 111.833 268.968C112.899 268.669 113.816 268.243 114.584 267.688C115.352 267.133 115.95 266.493 116.376 265.768C116.803 265.043 117.017 264.253 117.017 263.4V257.96H110.233C107.288 257.96 105.134 258.387 103.768 259.24C102.446 260.093 101.784 261.331 101.784 262.952V264.296C101.784 265.917 102.36 267.176 103.512 268.072C104.707 268.968 106.307 269.416 108.312 269.416ZM139.776 244.456H128.512V239.976H156.16V244.456H144.896V273H139.776V244.456ZM175.167 273.768C172.949 273.768 170.922 273.363 169.087 272.552C167.253 271.741 165.674 270.589 164.351 269.096C163.071 267.56 162.069 265.747 161.343 263.656C160.618 261.523 160.255 259.133 160.255 256.488C160.255 253.885 160.618 251.517 161.343 249.384C162.069 247.251 163.071 245.437 164.351 243.944C165.674 242.408 167.253 241.235 169.087 240.424C170.922 239.613 172.949 239.208 175.167 239.208C177.386 239.208 179.391 239.613 181.183 240.424C183.018 241.235 184.597 242.408 185.919 243.944C187.242 245.437 188.266 247.251 188.991 249.384C189.717 251.517 190.079 253.885 190.079 256.488C190.079 259.133 189.717 261.523 188.991 263.656C188.266 265.747 187.242 267.56 185.919 269.096C184.597 270.589 183.018 271.741 181.183 272.552C179.391 273.363 177.386 273.768 175.167 273.768ZM175.167 269.224C177.941 269.224 180.202 268.371 181.951 266.664C183.701 264.957 184.575 262.355 184.575 258.856V254.12C184.575 250.621 183.701 248.019 181.951 246.312C180.202 244.605 177.941 243.752 175.167 243.752C172.394 243.752 170.133 244.605 168.383 246.312C166.634 248.019 165.759 250.621 165.759 254.12V258.856C165.759 262.355 166.634 264.957 168.383 266.664C170.133 268.371 172.394 269.224 175.167 269.224ZM199.14 239.976H204.26V245.352H204.516C205.369 243.261 206.607 241.725 208.228 240.744C209.892 239.72 211.876 239.208 214.18 239.208C216.228 239.208 218.084 239.613 219.748 240.424C221.412 241.235 222.82 242.387 223.972 243.88C225.167 245.373 226.063 247.187 226.66 249.32C227.3 251.453 227.62 253.843 227.62 256.488C227.62 259.133 227.3 261.523 226.66 263.656C226.063 265.789 225.167 267.603 223.972 269.096C222.82 270.589 221.412 271.741 219.748 272.552C218.084 273.363 216.228 273.768 214.18 273.768C209.7 273.768 206.479 271.72 204.516 267.624H204.26V285.8H199.14V239.976ZM212.772 269.16C215.673 269.16 217.956 268.264 219.62 266.472C221.284 264.637 222.116 262.248 222.116 259.304V253.672C222.116 250.728 221.284 248.36 219.62 246.568C217.956 244.733 215.673 243.816 212.772 243.816C211.62 243.816 210.511 243.987 209.444 244.328C208.42 244.627 207.524 245.053 206.756 245.608C205.988 246.163 205.369 246.845 204.9 247.656C204.473 248.424 204.26 249.256 204.26 250.152V262.44C204.26 263.507 204.473 264.467 204.9 265.32C205.369 266.131 205.988 266.835 206.756 267.432C207.524 267.987 208.42 268.413 209.444 268.712C210.511 269.011 211.62 269.16 212.772 269.16ZM260.905 273C258.985 273 257.598 272.488 256.745 271.464C255.934 270.44 255.422 269.16 255.209 267.624H254.889C254.164 269.672 252.969 271.208 251.305 272.232C249.641 273.256 247.657 273.768 245.353 273.768C241.854 273.768 239.124 272.872 237.161 271.08C235.241 269.288 234.281 266.856 234.281 263.784C234.281 260.669 235.412 258.28 237.673 256.616C239.977 254.952 243.54 254.12 248.361 254.12H254.889V250.856C254.889 248.509 254.249 246.717 252.969 245.48C251.689 244.243 249.726 243.624 247.081 243.624C245.076 243.624 243.39 244.072 242.025 244.968C240.702 245.864 239.593 247.059 238.697 248.552L235.625 245.672C236.521 243.88 237.95 242.365 239.913 241.128C241.876 239.848 244.35 239.208 247.337 239.208C251.348 239.208 254.462 240.189 256.681 242.152C258.9 244.115 260.009 246.845 260.009 250.344V268.52H263.785V273H260.905ZM246.185 269.416C247.465 269.416 248.638 269.267 249.705 268.968C250.772 268.669 251.689 268.243 252.457 267.688C253.225 267.133 253.822 266.493 254.249 265.768C254.676 265.043 254.889 264.253 254.889 263.4V257.96H248.105C245.161 257.96 243.006 258.387 241.641 259.24C240.318 260.093 239.657 261.331 239.657 262.952V264.296C239.657 265.917 240.233 267.176 241.385 268.072C242.58 268.968 244.18 269.416 246.185 269.416Z" fill="black"/>
</g>
<defs>
<clipPath id="clip0_49_40">
<rect width="750" height="365" fill="white"/>
</clipPath>
</defs>
</svg>
