<svg width="750" height="365" viewBox="0 0 750 365" fill="none" xmlns="http://www.w3.org/2000/svg">
<g clip-path="url(#clip0_180_2)">
<path d="M750 39H88V345H750V39Z" fill="#00EF00"/>
<path d="M720.25 8.84211V48H729V8.84211V0H720.25H704V8.84211H720.25Z" fill="black"/>
<path d="M8.75 8.84211V48H0V8.84211V0H8.75H25V8.84211H8.75Z" fill="black"/>
<path d="M8.75 327.158V288H0V327.158V336H8.75H25V327.158H8.75Z" fill="black"/>
<path d="M596.79 39V18.06H605.13C607.01 18.06 608.45 18.6 609.45 19.68C610.47 20.74 610.98 22.2 610.98 24.06C610.98 25.92 610.47 27.39 609.45 28.47C608.45 29.53 607.01 30.06 605.13 30.06H599.31V39H596.79ZM599.31 27.84H605.13C606.13 27.84 606.9 27.58 607.44 27.06C608 26.54 608.28 25.8 608.28 24.84V23.28C608.28 22.32 608 21.58 607.44 21.06C606.9 20.54 606.13 20.28 605.13 20.28H599.31V27.84ZM620.277 39.36C619.217 39.36 618.257 39.17 617.397 38.79C616.557 38.41 615.827 37.87 615.207 37.17C614.607 36.45 614.137 35.6 613.797 34.62C613.477 33.62 613.317 32.5 613.317 31.26C613.317 30.04 613.477 28.93 613.797 27.93C614.137 26.93 614.607 26.08 615.207 25.38C615.827 24.66 616.557 24.11 617.397 23.73C618.257 23.35 619.217 23.16 620.277 23.16C621.317 23.16 622.247 23.35 623.067 23.73C623.887 24.11 624.587 24.64 625.167 25.32C625.747 25.98 626.187 26.77 626.487 27.69C626.807 28.61 626.967 29.62 626.967 30.72V31.86H615.837V32.58C615.837 33.24 615.937 33.86 616.137 34.44C616.357 35 616.657 35.49 617.037 35.91C617.437 36.33 617.917 36.66 618.477 36.9C619.057 37.14 619.707 37.26 620.427 37.26C621.407 37.26 622.257 37.03 622.977 36.57C623.717 36.11 624.287 35.45 624.687 34.59L626.397 35.82C625.897 36.88 625.117 37.74 624.057 38.4C622.997 39.04 621.737 39.36 620.277 39.36ZM620.277 25.17C619.617 25.17 619.017 25.29 618.477 25.53C617.937 25.75 617.467 26.07 617.067 26.49C616.687 26.91 616.387 27.41 616.167 27.99C615.947 28.55 615.837 29.17 615.837 29.85V30.06H624.387V29.73C624.387 28.35 624.007 27.25 623.247 26.43C622.507 25.59 621.517 25.17 620.277 25.17ZM643.702 39H631.222V23.52H633.622V36.9H640.912V23.52H643.312V36.9H645.892V43.2H643.702V39ZM655.331 39.36C654.271 39.36 653.311 39.17 652.451 38.79C651.611 38.41 650.881 37.87 650.261 37.17C649.661 36.45 649.191 35.6 648.851 34.62C648.531 33.62 648.371 32.5 648.371 31.26C648.371 30.04 648.531 28.93 648.851 27.93C649.191 26.93 649.661 26.08 650.261 25.38C650.881 24.66 651.611 24.11 652.451 23.73C653.311 23.35 654.271 23.16 655.331 23.16C656.371 23.16 657.301 23.35 658.121 23.73C658.941 24.11 659.641 24.64 660.221 25.32C660.801 25.98 661.241 26.77 661.541 27.69C661.861 28.61 662.021 29.62 662.021 30.72V31.86H650.891V32.58C650.891 33.24 650.991 33.86 651.191 34.44C651.411 35 651.711 35.49 652.091 35.91C652.491 36.33 652.971 36.66 653.531 36.9C654.111 37.14 654.761 37.26 655.481 37.26C656.461 37.26 657.311 37.03 658.031 36.57C658.771 36.11 659.341 35.45 659.741 34.59L661.451 35.82C660.951 36.88 660.171 37.74 659.111 38.4C658.051 39.04 656.791 39.36 655.331 39.36ZM655.331 25.17C654.671 25.17 654.071 25.29 653.531 25.53C652.991 25.75 652.521 26.07 652.121 26.49C651.741 26.91 651.441 27.41 651.221 27.99C651.001 28.55 650.891 29.17 650.891 29.85V30.06H659.441V29.73C659.441 28.35 659.061 27.25 658.301 26.43C657.561 25.59 656.571 25.17 655.331 25.17ZM666.275 23.52H678.365V39H675.965V25.62H668.675V39H666.275V23.52ZM687.103 25.62H681.823V23.52H694.783V25.62H689.503V39H687.103V25.62ZM594.24 64.9H596.01C596.63 63.9 597.13 62.65 597.51 61.15C597.89 59.65 598.08 57.93 598.08 55.99V51.52H608.55V64.9H611.13V71.2H608.94V67H596.43V71.2H594.24V64.9ZM606.15 64.9V53.62H600.36V56.11C600.36 58.17 600.18 59.93 599.82 61.39C599.48 62.83 599.07 64 598.59 64.9H606.15ZM614.75 51.52H617.09V60.1L616.85 63.82H616.97L618.89 60.52L625.07 51.52H627.29V67H624.95V58.42L625.19 54.7H625.07L623.15 58L616.97 67H614.75V51.52ZM637.067 67.36C635.487 67.36 634.227 67.09 633.287 66.55C632.347 66.01 631.577 65.24 630.977 64.24L632.777 62.8C633.177 63.56 633.727 64.16 634.427 64.6C635.147 65.02 636.027 65.23 637.067 65.23C638.327 65.23 639.257 65 639.857 64.54C640.477 64.08 640.787 63.49 640.787 62.77V62.41C640.787 61.63 640.517 61.04 639.977 60.64C639.457 60.22 638.717 60.01 637.757 60.01H634.457V58H637.457C638.417 58 639.157 57.81 639.677 57.43C640.197 57.05 640.457 56.51 640.457 55.81V55.45C640.457 54.79 640.187 54.27 639.647 53.89C639.127 53.49 638.247 53.29 637.007 53.29C635.987 53.29 635.147 53.5 634.487 53.92C633.827 54.32 633.297 54.87 632.897 55.57L631.307 54.22C631.787 53.32 632.487 52.59 633.407 52.03C634.347 51.45 635.587 51.16 637.127 51.16C639.147 51.16 640.637 51.53 641.597 52.27C642.557 53.01 643.037 54.03 643.037 55.33C643.037 56.29 642.777 57.05 642.257 57.61C641.757 58.17 641.027 58.56 640.067 58.78V58.9C641.167 59.06 641.987 59.46 642.527 60.1C643.087 60.72 643.367 61.52 643.367 62.5C643.367 64 642.797 65.19 641.657 66.07C640.537 66.93 639.007 67.36 637.067 67.36ZM659.12 67C658.22 67 657.57 66.76 657.17 66.28C656.79 65.8 656.55 65.2 656.45 64.48H656.3C655.96 65.44 655.4 66.16 654.62 66.64C653.84 67.12 652.91 67.36 651.83 67.36C650.19 67.36 648.91 66.94 647.99 66.1C647.09 65.26 646.64 64.12 646.64 62.68C646.64 61.22 647.17 60.1 648.23 59.32C649.31 58.54 650.98 58.15 653.24 58.15H656.3V56.62C656.3 55.52 656 54.68 655.4 54.1C654.8 53.52 653.88 53.23 652.64 53.23C651.7 53.23 650.91 53.44 650.27 53.86C649.65 54.28 649.13 54.84 648.71 55.54L647.27 54.19C647.69 53.35 648.36 52.64 649.28 52.06C650.2 51.46 651.36 51.16 652.76 51.16C654.64 51.16 656.1 51.62 657.14 52.54C658.18 53.46 658.7 54.74 658.7 56.38V64.9H660.47V67H659.12ZM652.22 65.32C652.82 65.32 653.37 65.25 653.87 65.11C654.37 64.97 654.8 64.77 655.16 64.51C655.52 64.25 655.8 63.95 656 63.61C656.2 63.27 656.3 62.9 656.3 62.5V59.95H653.12C651.74 59.95 650.73 60.15 650.09 60.55C649.47 60.95 649.16 61.53 649.16 62.29V62.92C649.16 63.68 649.43 64.27 649.97 64.69C650.53 65.11 651.28 65.32 652.22 65.32ZM664.195 51.52H666.535V60.1L666.295 63.82H666.415L668.335 60.52L674.515 51.52H676.735V67H674.395V58.42L674.635 54.7H674.515L672.595 58L666.415 67H664.195V51.52ZM670.525 49.12C669.445 49.12 668.585 48.91 667.945 48.49C667.305 48.05 666.795 47.48 666.415 46.78L665.815 45.64L667.915 44.71L668.965 47.17C669.205 47.23 669.465 47.28 669.745 47.32C670.025 47.34 670.285 47.35 670.525 47.35C670.765 47.35 671.025 47.34 671.305 47.32C671.585 47.28 671.845 47.23 672.085 47.17L673.135 44.71L675.235 45.64L674.635 46.78C674.255 47.48 673.745 48.05 673.105 48.49C672.465 48.91 671.605 49.12 670.525 49.12ZM681.652 59.17V56.59H689.482V59.17H681.652ZM596.55 79.52H598.95V85.97H606.69V79.52H609.09V95H606.69V88.07H598.95V95H596.55V79.52ZM620.307 95.36C619.247 95.36 618.287 95.17 617.427 94.79C616.587 94.41 615.857 93.87 615.237 93.17C614.637 92.45 614.167 91.6 613.827 90.62C613.507 89.62 613.347 88.5 613.347 87.26C613.347 86.04 613.507 84.93 613.827 83.93C614.167 82.93 614.637 82.08 615.237 81.38C615.857 80.66 616.587 80.11 617.427 79.73C618.287 79.35 619.247 79.16 620.307 79.16C621.347 79.16 622.277 79.35 623.097 79.73C623.917 80.11 624.617 80.64 625.197 81.32C625.777 81.98 626.217 82.77 626.517 83.69C626.837 84.61 626.997 85.62 626.997 86.72V87.86H615.867V88.58C615.867 89.24 615.967 89.86 616.167 90.44C616.387 91 616.687 91.49 617.067 91.91C617.467 92.33 617.947 92.66 618.507 92.9C619.087 93.14 619.737 93.26 620.457 93.26C621.437 93.26 622.287 93.03 623.007 92.57C623.747 92.11 624.317 91.45 624.717 90.59L626.427 91.82C625.927 92.88 625.147 93.74 624.087 94.4C623.027 95.04 621.767 95.36 620.307 95.36ZM620.307 81.17C619.647 81.17 619.047 81.29 618.507 81.53C617.967 81.75 617.497 82.07 617.097 82.49C616.717 82.91 616.417 83.41 616.197 83.99C615.977 84.55 615.867 85.17 615.867 85.85V86.06H624.417V85.73C624.417 84.35 624.037 83.25 623.277 82.43C622.537 81.59 621.547 81.17 620.307 81.17ZM631.252 79.52H633.652V82.04H633.772C634.172 81.06 634.752 80.34 635.512 79.88C636.292 79.4 637.222 79.16 638.302 79.16C639.262 79.16 640.132 79.35 640.912 79.73C641.692 80.11 642.352 80.65 642.892 81.35C643.452 82.05 643.872 82.9 644.152 83.9C644.452 84.9 644.602 86.02 644.602 87.26C644.602 88.5 644.452 89.62 644.152 90.62C643.872 91.62 643.452 92.47 642.892 93.17C642.352 93.87 641.692 94.41 640.912 94.79C640.132 95.17 639.262 95.36 638.302 95.36C636.202 95.36 634.692 94.4 633.772 92.48H633.652V101H631.252V79.52ZM637.642 93.2C639.002 93.2 640.072 92.78 640.852 91.94C641.632 91.08 642.022 89.96 642.022 88.58V85.94C642.022 84.56 641.632 83.45 640.852 82.61C640.072 81.75 639.002 81.32 637.642 81.32C637.102 81.32 636.582 81.4 636.082 81.56C635.602 81.7 635.182 81.9 634.822 82.16C634.462 82.42 634.172 82.74 633.952 83.12C633.752 83.48 633.652 83.87 633.652 84.29V90.05C633.652 90.55 633.752 91 633.952 91.4C634.172 91.78 634.462 92.11 634.822 92.39C635.182 92.65 635.602 92.85 636.082 92.99C636.582 93.13 637.102 93.2 637.642 93.2ZM658.347 79.52H660.717L653.787 98.6C653.607 99.06 653.427 99.44 653.247 99.74C653.067 100.06 652.847 100.31 652.587 100.49C652.327 100.67 651.997 100.8 651.597 100.88C651.217 100.96 650.747 101 650.187 101H648.957V98.9H651.387L652.557 95.6L646.767 79.52H649.167L652.887 90.05L653.607 92.57H653.757L654.597 90.05L658.347 79.52Z" fill="black"/>
<path d="M604.488 131.6H604.408C604.12 131.717 603.763 131.808 603.336 131.872C602.909 131.936 602.445 131.968 601.944 131.968C600.557 131.968 599.539 131.648 598.888 131.008C598.248 130.357 597.928 129.355 597.928 128V124.832H599.272V128C599.272 128.981 599.496 129.691 599.944 130.128C600.403 130.565 601.085 130.784 601.992 130.784C602.525 130.784 603.005 130.752 603.432 130.688C603.859 130.624 604.211 130.533 604.488 130.416V124.832H605.832V136H604.488V131.6ZM614.832 136C614.353 136 614.006 135.872 613.793 135.616C613.59 135.36 613.462 135.04 613.409 134.656H613.329C613.147 135.168 612.848 135.552 612.432 135.808C612.017 136.064 611.521 136.192 610.944 136.192C610.07 136.192 609.387 135.968 608.896 135.52C608.416 135.072 608.176 134.464 608.176 133.696C608.176 132.917 608.459 132.32 609.024 131.904C609.6 131.488 610.491 131.28 611.696 131.28H613.329V130.464C613.329 129.877 613.169 129.429 612.849 129.12C612.529 128.811 612.038 128.656 611.377 128.656C610.875 128.656 610.454 128.768 610.112 128.992C609.782 129.216 609.504 129.515 609.28 129.888L608.512 129.168C608.736 128.72 609.094 128.341 609.584 128.032C610.075 127.712 610.694 127.552 611.441 127.552C612.443 127.552 613.222 127.797 613.777 128.288C614.331 128.779 614.609 129.461 614.609 130.336V134.88H615.552V136H614.832ZM611.152 135.104C611.473 135.104 611.766 135.067 612.033 134.992C612.299 134.917 612.528 134.811 612.72 134.672C612.913 134.533 613.062 134.373 613.168 134.192C613.275 134.011 613.329 133.813 613.329 133.6V132.24H611.633C610.897 132.24 610.358 132.347 610.016 132.56C609.686 132.773 609.52 133.083 609.52 133.488V133.824C609.52 134.229 609.664 134.544 609.952 134.768C610.251 134.992 610.651 135.104 611.152 135.104ZM619.018 128.864H616.202V127.744H623.115V128.864H620.299V136H619.018V128.864ZM625.077 124.832H631.157V126.016H626.421V136H625.077V124.832ZM633.222 124.832H641.334V136H639.99V126.016H634.566V136H633.222V124.832ZM648.235 126.016V136H646.891V126.016H643.339V124.832H651.787V126.016H648.235Z" fill="black"/>
<path d="M618.591 268.269C619.158 267.927 619.619 267.435 619.926 266.849C621.341 263.022 621.341 258.817 619.926 254.99C619.619 254.404 619.158 253.913 618.591 253.57C618.025 253.228 617.375 253.046 616.712 253.046C616.05 253.046 615.4 253.228 614.833 253.57C614.267 253.913 613.805 254.404 613.499 254.99C612.084 258.817 612.084 263.022 613.499 266.849C613.805 267.435 614.267 267.927 614.833 268.269C615.4 268.612 616.05 268.793 616.712 268.793C617.375 268.793 618.025 268.612 618.591 268.269Z" fill="black"/>
<path d="M636.442 253.873H640.403C641.19 253.822 641.97 254.053 642.601 254.525C642.849 254.76 643.045 255.043 643.18 255.357C643.314 255.67 643.384 256.007 643.384 256.348C643.384 256.689 643.314 257.027 643.18 257.34C643.045 257.653 642.849 257.936 642.601 258.172C641.965 258.632 641.187 258.856 640.403 258.804H636.442V253.873Z" fill="black"/>
<path d="M618.014 289.696C618.798 289.748 619.576 289.524 620.212 289.064C620.476 288.839 620.683 288.556 620.818 288.236C620.952 287.917 621.009 287.571 620.985 287.226C621.004 286.884 620.944 286.542 620.81 286.227C620.676 285.912 620.472 285.631 620.212 285.407C619.581 284.935 618.801 284.704 618.014 284.755H614.053V289.696H618.014Z" fill="black"/>
<path d="M636.125 284.765H640.175C640.948 284.719 641.711 284.963 642.314 285.447C642.574 285.678 642.778 285.964 642.914 286.283C643.049 286.603 643.111 286.948 643.096 287.295C643.115 287.643 643.054 287.992 642.919 288.313C642.783 288.635 642.577 288.922 642.314 289.153C641.711 289.637 640.948 289.88 640.175 289.835H636.125V284.765Z" fill="black"/>
<path d="M663.438 299.162C664.004 298.819 664.466 298.328 664.772 297.741C666.187 293.915 666.187 289.709 664.772 285.883C664.466 285.296 664.004 284.805 663.438 284.463C662.871 284.12 662.221 283.939 661.559 283.939C660.896 283.939 660.247 284.12 659.68 284.463C659.114 284.805 658.652 285.296 658.346 285.883C656.917 289.707 656.917 293.917 658.346 297.741C658.652 298.328 659.114 298.819 659.68 299.162C660.247 299.504 660.896 299.686 661.559 299.686C662.221 299.686 662.871 299.504 663.438 299.162Z" fill="black"/>
<path d="M707.698 289.696C708.482 289.748 709.26 289.524 709.896 289.064C710.161 288.839 710.37 288.556 710.506 288.237C710.642 287.918 710.701 287.572 710.678 287.225C710.695 286.883 710.634 286.541 710.498 286.226C710.362 285.911 710.157 285.631 709.896 285.407C709.265 284.935 708.485 284.704 707.698 284.755H703.737V289.696H707.698Z" fill="black"/>
<path d="M691.99 330.802C691.816 331.171 691.539 331.48 691.193 331.692C690.848 331.904 690.448 332.009 690.044 331.995C689.64 332.008 689.242 331.902 688.896 331.69C688.551 331.478 688.273 331.17 688.098 330.802C687.605 329.663 687.384 328.423 687.453 327.182C687.381 325.935 687.603 324.688 688.098 323.543C688.272 323.173 688.549 322.862 688.894 322.649C689.24 322.435 689.639 322.328 690.044 322.34C690.448 322.325 690.848 322.431 691.193 322.643C691.539 322.854 691.816 323.164 691.99 323.532C692.492 324.679 692.714 325.931 692.636 327.182C692.709 328.424 692.488 329.665 691.99 330.802Z" fill="black"/>
<path d="M701.802 322.849H704.252C704.718 322.819 705.178 322.965 705.543 323.257C705.704 323.399 705.832 323.575 705.917 323.772C706.002 323.97 706.044 324.184 706.037 324.399C706.044 324.608 706.006 324.816 705.924 325.009C705.842 325.201 705.719 325.372 705.563 325.51C705.199 325.807 704.739 325.956 704.273 325.928H701.802V322.849Z" fill="black"/>
<path fill-rule="evenodd" clip-rule="evenodd" d="M597 345V238H750V365H740V355H730V345H597ZM609.093 251.028C610.842 248.774 613.384 247.648 616.717 247.648C618.165 247.56 619.613 247.821 620.938 248.41C622.263 248.998 623.428 249.896 624.332 251.028C626.075 253.281 626.946 256.575 626.946 260.91C626.946 265.245 626.075 268.539 624.332 270.792C623.43 271.927 622.266 272.828 620.941 273.418C619.615 274.008 618.166 274.27 616.717 274.182C613.377 274.162 610.835 273.032 609.093 270.792C607.35 268.552 606.478 265.258 606.478 260.91C606.472 256.575 607.343 253.281 609.093 251.028ZM636.442 264.141H640.403C642.028 264.183 643.642 263.862 645.127 263.202C646.409 262.618 647.495 261.678 648.256 260.494C649.017 259.256 649.402 257.825 649.365 256.373C649.409 254.864 649.024 253.374 648.256 252.074C647.511 250.866 646.435 249.896 645.156 249.277C643.68 248.587 642.063 248.248 640.433 248.289H630.531V273.578H636.472L636.442 264.141ZM659.494 268.509H670.327V273.569H653.543V248.28H670.644V253.34H659.494V258.548H669.06V263.479H659.494V268.509ZM679.734 263.361L679.358 252.925H679.982L684.141 273.569H693.32V248.28H688.22V258.489L688.606 268.915H687.973L683.814 248.28H674.635V273.569H679.734V263.361ZM617.598 279.181C619.228 279.14 620.846 279.478 622.322 280.17C623.586 280.795 624.647 281.764 625.381 282.966C626.148 284.267 626.532 285.757 626.49 287.265C626.528 288.717 626.142 290.148 625.381 291.386C624.634 292.57 623.557 293.511 622.282 294.094C620.801 294.772 619.187 295.109 617.559 295.082H613.598V304.47H607.656V279.181H617.598ZM644.899 293.778C646.144 293.194 647.203 292.277 647.958 291.129C648.696 289.969 649.074 288.619 649.048 287.246C649.087 285.748 648.713 284.267 647.968 282.966C647.258 281.754 646.208 280.775 644.948 280.15C643.533 279.465 641.975 279.126 640.403 279.162H630.174V304.451H636.115V294.717H637.363L642.958 304.451H649.642L643.502 294.292C643.981 294.158 644.448 293.986 644.899 293.778ZM653.939 281.93C655.682 279.67 658.22 278.54 661.554 278.54C664.888 278.56 667.426 279.69 669.169 281.93C670.911 284.17 671.783 287.464 671.783 291.812C671.783 296.147 670.911 299.441 669.169 301.694C667.426 303.948 664.888 305.074 661.554 305.074C658.22 305.074 655.682 303.948 653.939 301.694C652.196 299.441 651.325 296.147 651.325 291.812C651.325 287.484 652.196 284.189 653.939 281.93ZM684.418 291.407H683.784L682.17 279.172H674.476V304.461H679.516V295.073L679.1 284.548H679.734L681.319 296.555H686.636L688.22 284.548H688.854L688.438 295.073V304.461H693.478V279.172H686.032L684.418 291.407ZM707.698 279.181C709.328 279.14 710.945 279.479 712.421 280.169C713.687 280.796 714.751 281.765 715.491 282.966C716.257 284.267 716.642 285.757 716.6 287.265C716.637 288.717 716.252 290.148 715.491 291.386C714.741 292.568 713.665 293.508 712.392 294.094C710.911 294.771 709.297 295.109 707.668 295.082H703.707V304.47H697.766V279.181H707.698ZM718.779 279.172V284.835H725.849V304.461H731.8V284.835H738.86V279.172H718.779ZM613.865 315.727H607.656V310.064H626.025V315.727H619.816V329.691H626.025V335.353H607.656V329.691H613.865V315.727ZM643.374 320.282L643.76 330.708H643.126L638.977 310.074H629.788V335.353H634.888V325.144L634.511 314.718H635.145L639.294 335.353H648.473V310.074H643.374V320.282ZM663.376 315.08C662.949 314.91 662.49 314.831 662.03 314.847C661.357 314.829 660.694 315.003 660.119 315.35C659.543 315.697 659.079 316.201 658.782 316.803C657.943 318.662 657.569 320.697 657.693 322.733C657.686 325.605 658.046 327.7 658.772 329.018C659.09 329.647 659.586 330.17 660.198 330.521C660.811 330.873 661.513 331.037 662.218 330.994C662.874 331.016 663.522 330.846 664.083 330.506C664.644 330.165 665.094 329.669 665.377 329.077C665.688 328.434 665.844 327.726 665.832 327.012H661.426V321.823H671.031V335.293H665.832V333.178H664.535C664.274 334.012 663.709 334.718 662.951 335.155C662.072 335.645 661.076 335.888 660.069 335.856C658.832 335.895 657.608 335.599 656.526 335.001C655.444 334.402 654.543 333.524 653.92 332.457C652.487 330.191 651.771 326.929 651.771 322.673C651.771 318.338 652.642 315.044 654.385 312.791C656.128 310.538 658.676 309.411 662.03 309.411C663.724 309.367 665.403 309.747 666.911 310.518C668.278 311.247 669.4 312.361 670.139 313.72C670.968 315.288 671.422 317.027 671.466 318.799H665.891C665.727 317.7 665.249 316.671 664.515 315.835C664.192 315.507 663.804 315.251 663.376 315.08ZM675.215 330.52H680.014V335.309H675.215V330.52ZM719.792 329.803H717.13V326.622H722.978V334.89H719.832V333.596H719.046C718.874 334.112 718.513 334.543 718.037 334.799C717.502 335.091 716.9 335.236 716.293 335.217C715.549 335.245 714.811 335.071 714.156 334.712C713.501 334.353 712.954 333.823 712.572 333.177C711.598 331.339 711.147 329.264 711.271 327.183C711.115 325.023 711.672 322.871 712.854 321.065C713.408 320.375 714.117 319.83 714.922 319.475C715.728 319.12 716.606 318.966 717.483 319.026C718.509 318.997 719.526 319.232 720.437 319.709C721.26 320.162 721.934 320.85 722.373 321.687C722.873 322.648 723.148 323.712 723.18 324.797H719.872C719.773 324.114 719.483 323.473 719.035 322.951C718.84 322.752 718.605 322.595 718.346 322.492C718.088 322.388 717.811 322.34 717.533 322.35C717.118 322.328 716.706 322.429 716.348 322.641C715.99 322.853 715.701 323.167 715.516 323.543C715.007 324.684 714.782 325.933 714.861 327.183C714.783 328.498 715.007 329.813 715.516 331.026C715.708 331.414 716.008 331.736 716.379 331.953C716.75 332.171 717.176 332.274 717.604 332.25C718.009 332.261 718.409 332.151 718.753 331.934C719.08 331.723 719.345 331.427 719.519 331.077C719.707 330.68 719.801 330.243 719.792 329.803ZM690.044 319.026C689.171 318.97 688.297 319.125 687.495 319.48C686.694 319.835 685.987 320.378 685.436 321.065C684.254 322.871 683.697 325.023 683.853 327.182C683.707 329.326 684.263 331.457 685.436 333.249C685.987 333.936 686.694 334.479 687.495 334.834C688.297 335.189 689.171 335.344 690.044 335.288C690.918 335.345 691.792 335.19 692.594 334.835C693.396 334.48 694.102 333.936 694.653 333.249C695.825 331.457 696.381 329.326 696.236 327.182C696.391 325.023 695.834 322.871 694.653 321.065C694.102 320.378 693.396 319.834 692.594 319.479C691.792 319.124 690.918 318.969 690.044 319.026ZM707.106 328.365C707.859 328.016 708.502 327.461 708.962 326.765C709.409 326.052 709.637 325.222 709.617 324.379C709.641 323.459 709.418 322.55 708.972 321.748C708.535 321.014 707.897 320.423 707.136 320.046C706.28 319.622 705.336 319.412 704.383 319.434H698.192V334.921H701.802V328.957H702.568L705.957 334.921H709.99L706.259 328.691C706.55 328.606 706.833 328.497 707.106 328.365Z" fill="black"/>
<path d="M46.696 93.768C41.0213 93.768 36.6053 91.848 33.448 88.008C30.2907 84.1253 28.712 78.4293 28.712 70.92C28.712 63.4107 30.2907 57.6507 33.448 53.64C36.6053 49.5867 41.0213 47.56 46.696 47.56C50.4507 47.56 53.5867 48.4133 56.104 50.12C58.664 51.8267 60.648 54.2373 62.056 57.352L57.704 59.976C56.808 57.672 55.4427 55.8373 53.608 54.472C51.7733 53.064 49.4693 52.36 46.696 52.36C44.776 52.36 43.048 52.7227 41.512 53.448C40.0187 54.1733 38.7387 55.2187 37.672 56.584C36.648 57.9067 35.8587 59.5067 35.304 61.384C34.7493 63.2187 34.472 65.288 34.472 67.592V74.248C34.472 78.856 35.5387 82.4613 37.672 85.064C39.8053 87.6667 42.8133 88.968 46.696 88.968C49.5547 88.968 51.944 88.2427 53.864 86.792C55.784 85.2987 57.192 83.336 58.088 80.904L62.376 83.592C60.968 86.7493 58.9413 89.2453 56.296 91.08C53.6507 92.872 50.4507 93.768 46.696 93.768ZM83.31 93.768C81.0913 93.768 79.0647 93.3627 77.23 92.552C75.3953 91.7413 73.8167 90.5893 72.494 89.096C71.214 87.56 70.2113 85.7467 69.486 83.656C68.7607 81.5227 68.398 79.1333 68.398 76.488C68.398 73.8853 68.7607 71.5173 69.486 69.384C70.2113 67.2507 71.214 65.4373 72.494 63.944C73.8167 62.408 75.3953 61.2347 77.23 60.424C79.0647 59.6133 81.0913 59.208 83.31 59.208C85.5287 59.208 87.534 59.6133 89.326 60.424C91.1607 61.2347 92.7393 62.408 94.062 63.944C95.3847 65.4373 96.4087 67.2507 97.134 69.384C97.8593 71.5173 98.222 73.8853 98.222 76.488C98.222 79.1333 97.8593 81.5227 97.134 83.656C96.4087 85.7467 95.3847 87.56 94.062 89.096C92.7393 90.5893 91.1607 91.7413 89.326 92.552C87.534 93.3627 85.5287 93.768 83.31 93.768ZM83.31 89.224C86.0833 89.224 88.3447 88.3707 90.094 86.664C91.8433 84.9573 92.718 82.3547 92.718 78.856V74.12C92.718 70.6213 91.8433 68.0187 90.094 66.312C88.3447 64.6053 86.0833 63.752 83.31 63.752C80.5367 63.752 78.2753 64.6053 76.526 66.312C74.7767 68.0187 73.902 70.6213 73.902 74.12V78.856C73.902 82.3547 74.7767 84.9573 76.526 86.664C78.2753 88.3707 80.5367 89.224 83.31 89.224ZM119.57 93.768C117.266 93.768 115.197 93.3627 113.362 92.552C111.528 91.7413 109.97 90.5893 108.69 89.096C107.453 87.6027 106.493 85.7893 105.81 83.656C105.17 81.5227 104.85 79.1333 104.85 76.488C104.85 73.8427 105.17 71.4533 105.81 69.32C106.493 67.1867 107.453 65.3733 108.69 63.88C109.97 62.3867 111.528 61.2347 113.362 60.424C115.197 59.6133 117.266 59.208 119.57 59.208C122.856 59.208 125.48 59.9333 127.442 61.384C129.448 62.792 130.941 64.648 131.923 66.952L127.635 69.128C127.037 67.4213 126.056 66.0987 124.691 65.16C123.325 64.2213 121.618 63.752 119.57 63.752C118.034 63.752 116.69 64.008 115.538 64.52C114.386 64.9893 113.426 65.672 112.658 66.568C111.89 67.4213 111.314 68.4667 110.93 69.704C110.546 70.8987 110.354 72.2213 110.354 73.672V79.304C110.354 82.2053 111.122 84.5947 112.658 86.472C114.237 88.3067 116.541 89.224 119.57 89.224C123.709 89.224 126.696 87.304 128.531 83.464L132.243 85.96C131.176 88.3493 129.576 90.248 127.442 91.656C125.352 93.064 122.728 93.768 119.57 93.768ZM147.464 64.456H136.2V59.976H163.848V64.456H152.584V93H147.464V64.456ZM194.375 93C192.455 93 191.068 92.488 190.215 91.464C189.404 90.44 188.892 89.16 188.679 87.624H188.359C187.634 89.672 186.439 91.208 184.775 92.232C183.111 93.256 181.127 93.768 178.823 93.768C175.324 93.768 172.594 92.872 170.631 91.08C168.711 89.288 167.751 86.856 167.751 83.784C167.751 80.6693 168.882 78.28 171.143 76.616C173.447 74.952 177.01 74.12 181.831 74.12H188.359V70.856C188.359 68.5093 187.719 66.7173 186.439 65.48C185.159 64.2427 183.196 63.624 180.551 63.624C178.546 63.624 176.86 64.072 175.495 64.968C174.172 65.864 173.063 67.0587 172.167 68.552L169.095 65.672C169.991 63.88 171.42 62.3653 173.383 61.128C175.346 59.848 177.82 59.208 180.807 59.208C184.818 59.208 187.932 60.1893 190.151 62.152C192.37 64.1147 193.479 66.8453 193.479 70.344V88.52H197.255V93H194.375ZM179.655 89.416C180.935 89.416 182.108 89.2667 183.175 88.968C184.242 88.6693 185.159 88.2427 185.927 87.688C186.695 87.1333 187.292 86.4933 187.719 85.768C188.146 85.0427 188.359 84.2533 188.359 83.4V77.96H181.575C178.631 77.96 176.476 78.3867 175.111 79.24C173.788 80.0933 173.127 81.3307 173.127 82.952V84.296C173.127 85.9173 173.703 87.176 174.855 88.072C176.05 88.968 177.65 89.416 179.655 89.416ZM205.202 59.976H221.842C224.53 59.976 226.642 60.744 228.178 62.28C229.714 63.7733 230.482 65.8 230.482 68.36C230.482 72.4987 228.328 74.824 224.018 75.336V75.592C226.578 75.8053 228.477 76.616 229.714 78.024C230.994 79.3893 231.634 81.096 231.634 83.144C231.634 84.4667 231.421 85.7253 230.994 86.92C230.61 88.1147 230.034 89.16 229.266 90.056C228.498 90.952 227.56 91.6773 226.45 92.232C225.341 92.744 224.082 93 222.674 93H205.202V59.976ZM221.138 88.776C222.674 88.776 223.89 88.3707 224.786 87.56C225.682 86.7493 226.13 85.5973 226.13 84.104V82.632C226.13 81.1387 225.682 79.9867 224.786 79.176C223.89 78.3653 222.674 77.96 221.138 77.96H210.322V88.776H221.138ZM220.498 73.8C221.906 73.8 222.994 73.4587 223.762 72.776C224.573 72.0507 224.978 71.0267 224.978 69.704V68.296C224.978 66.9733 224.573 65.9707 223.762 65.288C222.994 64.5627 221.906 64.2 220.498 64.2H210.322V73.8H220.498ZM241.53 59.976H246.522V78.28L246.01 86.216H246.266L250.362 79.176L263.546 59.976H268.282V93H263.29V74.696L263.802 66.76H263.546L259.45 73.8L246.266 93H241.53V59.976ZM286.899 64.456H275.635V59.976H303.283V64.456H292.019V93H286.899V64.456ZM310.622 59.976H315.742V71.944H325.15C328.478 71.944 331.124 72.8827 333.086 74.76C335.049 76.6373 336.03 79.2187 336.03 82.504C336.03 85.832 335.07 88.4133 333.15 90.248C331.23 92.0827 328.585 93 325.214 93H310.622V59.976ZM324.446 88.52C326.366 88.52 327.86 88.1573 328.926 87.432C329.993 86.7067 330.526 85.4907 330.526 83.784V81.096C330.526 79.3893 329.993 78.1947 328.926 77.512C327.86 76.7867 326.366 76.424 324.446 76.424H315.742V88.52H324.446ZM42.728 153.768C40.424 153.768 38.3547 153.363 36.52 152.552C34.6853 151.741 33.128 150.589 31.848 149.096C30.6107 147.603 29.6507 145.789 28.968 143.656C28.328 141.523 28.008 139.133 28.008 136.488C28.008 133.843 28.328 131.453 28.968 129.32C29.6507 127.187 30.6107 125.373 31.848 123.88C33.128 122.387 34.6853 121.235 36.52 120.424C38.3547 119.613 40.424 119.208 42.728 119.208C46.0133 119.208 48.6373 119.933 50.6 121.384C52.6053 122.792 54.0987 124.648 55.08 126.952L50.792 129.128C50.1947 127.421 49.2133 126.099 47.848 125.16C46.4827 124.221 44.776 123.752 42.728 123.752C41.192 123.752 39.848 124.008 38.696 124.52C37.544 124.989 36.584 125.672 35.816 126.568C35.048 127.421 34.472 128.467 34.088 129.704C33.704 130.899 33.512 132.221 33.512 133.672V139.304C33.512 142.205 34.28 144.595 35.816 146.472C37.3947 148.307 39.6987 149.224 42.728 149.224C46.8667 149.224 49.8533 147.304 51.688 143.464L55.4 145.96C54.3333 148.349 52.7333 150.248 50.6 151.656C48.5093 153.064 45.8853 153.768 42.728 153.768ZM63.2675 119.976H89.0595V153H83.9395V124.456H68.3875V153H63.2675V119.976ZM100.595 119.976H105.587V138.28L105.075 146.216H105.331L109.427 139.176L122.611 119.976H127.347V153H122.355V134.696L122.867 126.76H122.611L118.515 133.8L105.331 153H100.595V119.976ZM151.148 153.768C148.844 153.768 146.775 153.363 144.94 152.552C143.105 151.741 141.548 150.589 140.268 149.096C139.031 147.603 138.071 145.789 137.388 143.656C136.748 141.523 136.428 139.133 136.428 136.488C136.428 133.843 136.748 131.453 137.388 129.32C138.071 127.187 139.031 125.373 140.268 123.88C141.548 122.387 143.105 121.235 144.94 120.424C146.775 119.613 148.844 119.208 151.148 119.208C154.433 119.208 157.057 119.933 159.02 121.384C161.025 122.792 162.519 124.648 163.5 126.952L159.212 129.128C158.615 127.421 157.633 126.099 156.268 125.16C154.903 124.221 153.196 123.752 151.148 123.752C149.612 123.752 148.268 124.008 147.116 124.52C145.964 124.989 145.004 125.672 144.236 126.568C143.468 127.421 142.892 128.467 142.508 129.704C142.124 130.899 141.932 132.221 141.932 133.672V139.304C141.932 142.205 142.7 144.595 144.236 146.472C145.815 148.307 148.119 149.224 151.148 149.224C155.287 149.224 158.273 147.304 160.108 143.464L163.82 145.96C162.753 148.349 161.153 150.248 159.02 151.656C156.929 153.064 154.305 153.768 151.148 153.768ZM183.792 153.768C181.574 153.768 179.547 153.363 177.712 152.552C175.878 151.741 174.299 150.589 172.976 149.096C171.696 147.56 170.694 145.747 169.968 143.656C169.243 141.523 168.88 139.133 168.88 136.488C168.88 133.885 169.243 131.517 169.968 129.384C170.694 127.251 171.696 125.437 172.976 123.944C174.299 122.408 175.878 121.235 177.712 120.424C179.547 119.613 181.574 119.208 183.792 119.208C186.011 119.208 188.016 119.613 189.808 120.424C191.643 121.235 193.222 122.408 194.544 123.944C195.867 125.437 196.891 127.251 197.616 129.384C198.342 131.517 198.704 133.885 198.704 136.488C198.704 139.133 198.342 141.523 197.616 143.656C196.891 145.747 195.867 147.56 194.544 149.096C193.222 150.589 191.643 151.741 189.808 152.552C188.016 153.363 186.011 153.768 183.792 153.768ZM183.792 149.224C186.566 149.224 188.827 148.371 190.576 146.664C192.326 144.957 193.2 142.355 193.2 138.856V134.12C193.2 130.621 192.326 128.019 190.576 126.312C188.827 124.605 186.566 123.752 183.792 123.752C181.019 123.752 178.758 124.605 177.008 126.312C175.259 128.019 174.384 130.621 174.384 134.12V138.856C174.384 142.355 175.259 144.957 177.008 146.664C178.758 148.371 181.019 149.224 183.792 149.224ZM207.765 119.976H212.885V133.8H219.477L225.877 123.688C226.346 122.92 226.794 122.301 227.221 121.832C227.648 121.32 228.074 120.936 228.501 120.68C228.928 120.424 229.376 120.253 229.845 120.168C230.314 120.04 230.848 119.976 231.445 119.976H234.453V124.456H230.485L225.301 132.648C224.96 133.203 224.661 133.651 224.405 133.992C224.149 134.333 223.893 134.632 223.637 134.888C223.381 135.101 223.104 135.293 222.805 135.464C222.506 135.592 222.144 135.72 221.717 135.848V136.104C222.613 136.232 223.381 136.531 224.021 137C224.704 137.427 225.408 138.28 226.133 139.56L231.189 148.52H234.965V153H231.253C230.144 153 229.12 152.723 228.181 152.168C227.285 151.571 226.41 150.504 225.557 148.968L219.477 138.152H212.885V153H207.765V119.976ZM268.701 153.768C265.331 153.768 262.643 153.192 260.637 152.04C258.632 150.888 256.989 149.245 255.709 147.112L259.549 144.04C260.403 145.661 261.576 146.941 263.069 147.88C264.605 148.776 266.483 149.224 268.701 149.224C271.389 149.224 273.373 148.733 274.653 147.752C275.976 146.771 276.637 145.512 276.637 143.976V143.208C276.637 141.544 276.061 140.285 274.909 139.432C273.8 138.536 272.221 138.088 270.173 138.088H263.133V133.8H269.533C271.581 133.8 273.16 133.395 274.269 132.584C275.379 131.773 275.933 130.621 275.933 129.128V128.36C275.933 126.952 275.357 125.843 274.205 125.032C273.096 124.179 271.219 123.752 268.573 123.752C266.397 123.752 264.605 124.2 263.197 125.096C261.789 125.949 260.659 127.123 259.805 128.616L256.413 125.736C257.437 123.816 258.931 122.259 260.893 121.064C262.899 119.827 265.544 119.208 268.829 119.208C273.139 119.208 276.317 119.997 278.365 121.576C280.413 123.155 281.437 125.331 281.437 128.104C281.437 130.152 280.883 131.773 279.773 132.968C278.707 134.163 277.149 134.995 275.101 135.464V135.72C277.448 136.061 279.197 136.915 280.349 138.28C281.544 139.603 282.141 141.309 282.141 143.4C282.141 146.6 280.925 149.139 278.493 151.016C276.104 152.851 272.84 153.768 268.701 153.768ZM315.747 153C313.827 153 312.441 152.488 311.587 151.464C310.777 150.44 310.265 149.16 310.051 147.624H309.731C309.006 149.672 307.811 151.208 306.147 152.232C304.483 153.256 302.499 153.768 300.195 153.768C296.697 153.768 293.966 152.872 292.003 151.08C290.083 149.288 289.123 146.856 289.123 143.784C289.123 140.669 290.254 138.28 292.515 136.616C294.819 134.952 298.382 134.12 303.203 134.12H309.731V130.856C309.731 128.509 309.091 126.717 307.811 125.48C306.531 124.243 304.569 123.624 301.923 123.624C299.918 123.624 298.233 124.072 296.867 124.968C295.545 125.864 294.435 127.059 293.539 128.552L290.467 125.672C291.363 123.88 292.793 122.365 294.755 121.128C296.718 119.848 299.193 119.208 302.179 119.208C306.19 119.208 309.305 120.189 311.523 122.152C313.742 124.115 314.851 126.845 314.851 130.344V148.52H318.627V153H315.747ZM301.027 149.416C302.307 149.416 303.481 149.267 304.547 148.968C305.614 148.669 306.531 148.243 307.299 147.688C308.067 147.133 308.665 146.493 309.091 145.768C309.518 145.043 309.731 144.253 309.731 143.4V137.96H302.947C300.003 137.96 297.849 138.387 296.483 139.24C295.161 140.093 294.499 141.331 294.499 142.952V144.296C294.499 145.917 295.075 147.176 296.227 148.072C297.422 148.968 299.022 149.416 301.027 149.416ZM323.147 148.52H326.923C328.246 146.387 329.312 143.72 330.123 140.52C330.934 137.32 331.339 133.651 331.339 129.512V119.976H353.675V148.52H359.179V161.96H354.507V153H327.819V161.96H323.147V148.52ZM348.555 148.52V124.456H336.203V129.768C336.203 134.163 335.819 137.917 335.051 141.032C334.326 144.104 333.451 146.6 332.427 148.52H348.555ZM390.902 153C388.982 153 387.596 152.488 386.742 151.464C385.932 150.44 385.42 149.16 385.206 147.624H384.886C384.161 149.672 382.966 151.208 381.302 152.232C379.638 153.256 377.654 153.768 375.35 153.768C371.852 153.768 369.121 152.872 367.158 151.08C365.238 149.288 364.278 146.856 364.278 143.784C364.278 140.669 365.409 138.28 367.67 136.616C369.974 134.952 373.537 134.12 378.358 134.12H384.886V130.856C384.886 128.509 384.246 126.717 382.966 125.48C381.686 124.243 379.724 123.624 377.078 123.624C375.073 123.624 373.388 124.072 372.022 124.968C370.7 125.864 369.59 127.059 368.694 128.552L365.622 125.672C366.518 123.88 367.948 122.365 369.91 121.128C371.873 119.848 374.348 119.208 377.334 119.208C381.345 119.208 384.46 120.189 386.678 122.152C388.897 124.115 390.006 126.845 390.006 130.344V148.52H393.782V153H390.902ZM376.182 149.416C377.462 149.416 378.636 149.267 379.702 148.968C380.769 148.669 381.686 148.243 382.454 147.688C383.222 147.133 383.82 146.493 384.246 145.768C384.673 145.043 384.886 144.253 384.886 143.4V137.96H378.102C375.158 137.96 373.004 138.387 371.638 139.24C370.316 140.093 369.654 141.331 369.654 142.952V144.296C369.654 145.917 370.23 147.176 371.382 148.072C372.577 148.968 374.177 149.416 376.182 149.416ZM419.475 137.832H419.155C418.131 138.984 416.872 139.944 415.379 140.712C413.885 141.437 411.923 141.8 409.491 141.8C406.12 141.8 403.496 140.968 401.619 139.304C399.741 137.597 398.803 135.037 398.803 131.624V119.976H403.923V131.176C403.923 135.187 406.291 137.192 411.027 137.192C413.459 137.192 415.464 136.872 417.043 136.232C418.664 135.549 419.475 134.525 419.475 133.16V119.976H424.595V153H419.475V137.832ZM30.44 179.976H56.232V213H51.112V184.456H35.56V213H30.44V179.976ZM80.2475 213.768C78.0288 213.768 76.0022 213.363 74.1675 212.552C72.3328 211.741 70.7542 210.589 69.4315 209.096C68.1515 207.56 67.1488 205.747 66.4235 203.656C65.6982 201.523 65.3355 199.133 65.3355 196.488C65.3355 193.885 65.6982 191.517 66.4235 189.384C67.1488 187.251 68.1515 185.437 69.4315 183.944C70.7542 182.408 72.3328 181.235 74.1675 180.424C76.0022 179.613 78.0288 179.208 80.2475 179.208C82.4662 179.208 84.4715 179.613 86.2635 180.424C88.0982 181.235 89.6768 182.408 90.9995 183.944C92.3222 185.437 93.3462 187.251 94.0715 189.384C94.7968 191.517 95.1595 193.885 95.1595 196.488C95.1595 199.133 94.7968 201.523 94.0715 203.656C93.3462 205.747 92.3222 207.56 90.9995 209.096C89.6768 210.589 88.0982 211.741 86.2635 212.552C84.4715 213.363 82.4662 213.768 80.2475 213.768ZM80.2475 209.224C83.0208 209.224 85.2822 208.371 87.0315 206.664C88.7808 204.957 89.6555 202.355 89.6555 198.856V194.12C89.6555 190.621 88.7808 188.019 87.0315 186.312C85.2822 184.605 83.0208 183.752 80.2475 183.752C77.4742 183.752 75.2128 184.605 73.4635 186.312C71.7142 188.019 70.8395 190.621 70.8395 194.12V198.856C70.8395 202.355 71.7142 204.957 73.4635 206.664C75.2128 208.371 77.4742 209.224 80.2475 209.224ZM119.985 179.976H145.777V213H140.657V184.456H125.105V213H119.985V179.976ZM157.312 179.976H162.432V185.352H162.688C163.542 183.261 164.779 181.725 166.4 180.744C168.064 179.72 170.048 179.208 172.352 179.208C174.4 179.208 176.256 179.613 177.92 180.424C179.584 181.235 180.992 182.387 182.144 183.88C183.339 185.373 184.235 187.187 184.833 189.32C185.472 191.453 185.792 193.843 185.792 196.488C185.792 199.133 185.472 201.523 184.833 203.656C184.235 205.789 183.339 207.603 182.144 209.096C180.992 210.589 179.584 211.741 177.92 212.552C176.256 213.363 174.4 213.768 172.352 213.768C167.872 213.768 164.651 211.72 162.688 207.624H162.432V225.8H157.312V179.976ZM170.944 209.16C173.846 209.16 176.128 208.264 177.792 206.472C179.456 204.637 180.288 202.248 180.288 199.304V193.672C180.288 190.728 179.456 188.36 177.792 186.568C176.128 184.733 173.846 183.816 170.944 183.816C169.792 183.816 168.683 183.987 167.616 184.328C166.592 184.627 165.696 185.053 164.928 185.608C164.16 186.163 163.542 186.845 163.072 187.656C162.646 188.424 162.432 189.256 162.432 190.152V202.44C162.432 203.507 162.646 204.467 163.072 205.32C163.542 206.131 164.16 206.835 164.928 207.432C165.696 207.987 166.592 208.413 167.616 208.712C168.683 209.011 169.792 209.16 170.944 209.16ZM207.557 213.768C205.339 213.768 203.312 213.363 201.477 212.552C199.643 211.741 198.064 210.589 196.741 209.096C195.461 207.56 194.459 205.747 193.733 203.656C193.008 201.523 192.645 199.133 192.645 196.488C192.645 193.885 193.008 191.517 193.733 189.384C194.459 187.251 195.461 185.437 196.741 183.944C198.064 182.408 199.643 181.235 201.477 180.424C203.312 179.613 205.339 179.208 207.557 179.208C209.776 179.208 211.781 179.613 213.573 180.424C215.408 181.235 216.987 182.408 218.309 183.944C219.632 185.437 220.656 187.251 221.381 189.384C222.107 191.517 222.469 193.885 222.469 196.488C222.469 199.133 222.107 201.523 221.381 203.656C220.656 205.747 219.632 207.56 218.309 209.096C216.987 210.589 215.408 211.741 213.573 212.552C211.781 213.363 209.776 213.768 207.557 213.768ZM207.557 209.224C210.331 209.224 212.592 208.371 214.341 206.664C216.091 204.957 216.965 202.355 216.965 198.856V194.12C216.965 190.621 216.091 188.019 214.341 186.312C212.592 184.605 210.331 183.752 207.557 183.752C204.784 183.752 202.523 184.605 200.773 186.312C199.024 188.019 198.149 190.621 198.149 194.12V198.856C198.149 202.355 199.024 204.957 200.773 206.664C202.523 208.371 204.784 209.224 207.557 209.224ZM243.946 213.768C241.685 213.768 239.637 213.363 237.802 212.552C236.01 211.741 234.453 210.589 233.13 209.096C231.85 207.56 230.847 205.747 230.122 203.656C229.439 201.523 229.098 199.133 229.098 196.488C229.098 193.885 229.439 191.517 230.122 189.384C230.847 187.251 231.85 185.437 233.13 183.944C234.453 182.408 236.01 181.235 237.802 180.424C239.637 179.613 241.685 179.208 243.946 179.208C246.165 179.208 248.149 179.613 249.898 180.424C251.647 181.235 253.141 182.365 254.378 183.816C255.615 185.224 256.554 186.909 257.194 188.872C257.877 190.835 258.218 192.989 258.218 195.336V197.768H234.474V199.304C234.474 200.712 234.687 202.035 235.114 203.272C235.583 204.467 236.223 205.512 237.034 206.408C237.887 207.304 238.911 208.008 240.106 208.52C241.343 209.032 242.73 209.288 244.266 209.288C246.357 209.288 248.17 208.797 249.706 207.816C251.285 206.835 252.501 205.427 253.354 203.592L257.002 206.216C255.935 208.477 254.271 210.312 252.01 211.72C249.749 213.085 247.061 213.768 243.946 213.768ZM243.946 183.496C242.538 183.496 241.258 183.752 240.106 184.264C238.954 184.733 237.951 185.416 237.098 186.312C236.287 187.208 235.647 188.275 235.178 189.512C234.709 190.707 234.474 192.029 234.474 193.48V193.928H252.714V193.224C252.714 190.28 251.903 187.933 250.282 186.184C248.703 184.392 246.591 183.496 243.946 183.496ZM267.295 179.976H272.415V193.8H279.007L285.407 183.688C285.876 182.92 286.324 182.301 286.751 181.832C287.178 181.32 287.604 180.936 288.031 180.68C288.458 180.424 288.906 180.253 289.375 180.168C289.844 180.04 290.378 179.976 290.975 179.976H293.983V184.456H290.015L284.831 192.648C284.49 193.203 284.191 193.651 283.935 193.992C283.679 194.333 283.423 194.632 283.167 194.888C282.911 195.101 282.634 195.293 282.335 195.464C282.036 195.592 281.674 195.72 281.247 195.848V196.104C282.143 196.232 282.911 196.531 283.551 197C284.234 197.427 284.938 198.28 285.663 199.56L290.719 208.52H294.495V213H290.783C289.674 213 288.65 212.723 287.711 212.168C286.815 211.571 285.94 210.504 285.087 208.968L279.007 198.152H272.415V213H267.295V179.976ZM310.226 184.456H298.962V179.976H326.61V184.456H315.346V213H310.226V184.456ZM333.95 179.976H338.942V198.28L338.43 206.216H338.686L342.782 199.176L355.966 179.976H360.702V213H355.71V194.696L356.222 186.76H355.966L351.87 193.8L338.686 213H333.95V179.976ZM372.215 179.976H377.335V185.352H377.591C378.444 183.261 379.682 181.725 381.303 180.744C382.967 179.72 384.951 179.208 387.255 179.208C389.303 179.208 391.159 179.613 392.823 180.424C394.487 181.235 395.895 182.387 397.047 183.88C398.242 185.373 399.138 187.187 399.735 189.32C400.375 191.453 400.695 193.843 400.695 196.488C400.695 199.133 400.375 201.523 399.735 203.656C399.138 205.789 398.242 207.603 397.047 209.096C395.895 210.589 394.487 211.741 392.823 212.552C391.159 213.363 389.303 213.768 387.255 213.768C382.775 213.768 379.554 211.72 377.591 207.624H377.335V225.8H372.215V179.976ZM385.847 209.16C388.748 209.16 391.031 208.264 392.695 206.472C394.359 204.637 395.191 202.248 395.191 199.304V193.672C395.191 190.728 394.359 188.36 392.695 186.568C391.031 184.733 388.748 183.816 385.847 183.816C384.695 183.816 383.586 183.987 382.519 184.328C381.495 184.627 380.599 185.053 379.831 185.608C379.063 186.163 378.444 186.845 377.975 187.656C377.548 188.424 377.335 189.256 377.335 190.152V202.44C377.335 203.507 377.548 204.467 377.975 205.32C378.444 206.131 379.063 206.835 379.831 207.432C380.599 207.987 381.495 208.413 382.519 208.712C383.586 209.011 384.695 209.16 385.847 209.16ZM422.46 213.768C420.241 213.768 418.215 213.363 416.38 212.552C414.545 211.741 412.967 210.589 411.644 209.096C410.364 207.56 409.361 205.747 408.636 203.656C407.911 201.523 407.548 199.133 407.548 196.488C407.548 193.885 407.911 191.517 408.636 189.384C409.361 187.251 410.364 185.437 411.644 183.944C412.967 182.408 414.545 181.235 416.38 180.424C418.215 179.613 420.241 179.208 422.46 179.208C424.679 179.208 426.684 179.613 428.476 180.424C430.311 181.235 431.889 182.408 433.212 183.944C434.535 185.437 435.559 187.251 436.284 189.384C437.009 191.517 437.372 193.885 437.372 196.488C437.372 199.133 437.009 201.523 436.284 203.656C435.559 205.747 434.535 207.56 433.212 209.096C431.889 210.589 430.311 211.741 428.476 212.552C426.684 213.363 424.679 213.768 422.46 213.768ZM422.46 209.224C425.233 209.224 427.495 208.371 429.244 206.664C430.993 204.957 431.868 202.355 431.868 198.856V194.12C431.868 190.621 430.993 188.019 429.244 186.312C427.495 184.605 425.233 183.752 422.46 183.752C419.687 183.752 417.425 184.605 415.676 186.312C413.927 188.019 413.052 190.621 413.052 194.12V198.856C413.052 202.355 413.927 204.957 415.676 206.664C417.425 208.371 419.687 209.224 422.46 209.224ZM446.432 179.976H463.072C465.76 179.976 467.872 180.744 469.408 182.28C470.944 183.773 471.712 185.8 471.712 188.36C471.712 192.499 469.558 194.824 465.248 195.336V195.592C467.808 195.805 469.707 196.616 470.944 198.024C472.224 199.389 472.864 201.096 472.864 203.144C472.864 204.467 472.651 205.725 472.224 206.92C471.84 208.115 471.264 209.16 470.496 210.056C469.728 210.952 468.79 211.677 467.68 212.232C466.571 212.744 465.312 213 463.904 213H446.432V179.976ZM462.368 208.776C463.904 208.776 465.12 208.371 466.016 207.56C466.912 206.749 467.36 205.597 467.36 204.104V202.632C467.36 201.139 466.912 199.987 466.016 199.176C465.12 198.365 463.904 197.96 462.368 197.96H451.552V208.776H462.368ZM461.728 193.8C463.136 193.8 464.224 193.459 464.992 192.776C465.803 192.051 466.208 191.027 466.208 189.704V188.296C466.208 186.973 465.803 185.971 464.992 185.288C464.224 184.563 463.136 184.2 461.728 184.2H451.552V193.8H461.728ZM506.448 213C504.528 213 503.141 212.488 502.288 211.464C501.477 210.44 500.965 209.16 500.752 207.624H500.432C499.706 209.672 498.512 211.208 496.848 212.232C495.184 213.256 493.2 213.768 490.896 213.768C487.397 213.768 484.666 212.872 482.704 211.08C480.784 209.288 479.824 206.856 479.824 203.784C479.824 200.669 480.954 198.28 483.216 196.616C485.52 194.952 489.082 194.12 493.904 194.12H500.432V190.856C500.432 188.509 499.792 186.717 498.512 185.48C497.232 184.243 495.269 183.624 492.624 183.624C490.618 183.624 488.933 184.072 487.568 184.968C486.245 185.864 485.136 187.059 484.24 188.552L481.168 185.672C482.064 183.88 483.493 182.365 485.456 181.128C487.418 179.848 489.893 179.208 492.88 179.208C496.89 179.208 500.005 180.189 502.224 182.152C504.442 184.115 505.552 186.845 505.552 190.344V208.52H509.328V213H506.448ZM491.728 209.416C493.008 209.416 494.181 209.267 495.248 208.968C496.314 208.669 497.232 208.243 498 207.688C498.768 207.133 499.365 206.493 499.792 205.768C500.218 205.043 500.432 204.253 500.432 203.4V197.96H493.648C490.704 197.96 488.549 198.387 487.184 199.24C485.861 200.093 485.2 201.331 485.2 202.952V204.296C485.2 205.917 485.776 207.176 486.928 208.072C488.122 208.968 489.722 209.416 491.728 209.416ZM515.938 196.296V190.792H532.642V196.296H515.938ZM30.44 239.976H35.56V253.736H52.072V239.976H57.192V273H52.072V258.216H35.56V273H30.44V239.976ZM68.705 239.976H73.697V258.28L73.185 266.216H73.441L77.537 259.176L90.721 239.976H95.457V273H90.465V254.696L90.977 246.76H90.721L86.625 253.8L73.441 273H68.705V239.976ZM134.042 273.768C129.861 273.768 126.469 272.403 123.866 269.672C121.306 266.941 119.877 263.101 119.578 258.152H112.09V273H106.97V239.976H112.09V253.8H119.706C120.133 249.149 121.605 245.565 124.122 243.048C126.682 240.488 129.989 239.208 134.042 239.208C136.218 239.208 138.202 239.613 139.994 240.424C141.786 241.192 143.301 242.323 144.538 243.816C145.818 245.267 146.799 247.059 147.482 249.192C148.165 251.325 148.506 253.757 148.506 256.488C148.506 259.219 148.165 261.651 147.482 263.784C146.799 265.917 145.818 267.731 144.538 269.224C143.301 270.675 141.786 271.805 139.994 272.616C138.202 273.384 136.218 273.768 134.042 273.768ZM134.042 269.224C136.773 269.224 138.949 268.413 140.57 266.792C142.191 265.171 143.002 262.525 143.002 258.856V254.12C143.002 250.451 142.191 247.805 140.57 246.184C138.949 244.563 136.773 243.752 134.042 243.752C131.311 243.752 129.135 244.563 127.514 246.184C125.893 247.805 125.082 250.451 125.082 254.12V258.856C125.082 262.525 125.893 265.171 127.514 266.792C129.135 268.413 131.311 269.224 134.042 269.224ZM173.375 239.976H178.367V258.28L177.855 266.216H178.111L182.207 259.176L195.391 239.976H200.127V273H195.135V254.696L195.647 246.76H195.391L191.295 253.8L178.111 273H173.375V239.976ZM211.64 239.976H216.76V253.736H233.272V239.976H238.392V273H233.272V258.216H216.76V273H211.64V239.976ZM257.009 244.456H245.745V239.976H273.393V244.456H262.129V273H257.009V244.456ZM292.336 273.768C290.075 273.768 288.027 273.363 286.192 272.552C284.4 271.741 282.843 270.589 281.52 269.096C280.24 267.56 279.237 265.747 278.512 263.656C277.829 261.523 277.488 259.133 277.488 256.488C277.488 253.885 277.829 251.517 278.512 249.384C279.237 247.251 280.24 245.437 281.52 243.944C282.843 242.408 284.4 241.235 286.192 240.424C288.027 239.613 290.075 239.208 292.336 239.208C294.555 239.208 296.539 239.613 298.288 240.424C300.037 241.235 301.531 242.365 302.768 243.816C304.005 245.224 304.944 246.909 305.584 248.872C306.267 250.835 306.608 252.989 306.608 255.336V257.768H282.864V259.304C282.864 260.712 283.077 262.035 283.504 263.272C283.973 264.467 284.613 265.512 285.424 266.408C286.277 267.304 287.301 268.008 288.496 268.52C289.733 269.032 291.12 269.288 292.656 269.288C294.747 269.288 296.56 268.797 298.096 267.816C299.675 266.835 300.891 265.427 301.744 263.592L305.392 266.216C304.325 268.477 302.661 270.312 300.4 271.72C298.139 273.085 295.451 273.768 292.336 273.768ZM292.336 243.496C290.928 243.496 289.648 243.752 288.496 244.264C287.344 244.733 286.341 245.416 285.488 246.312C284.677 247.208 284.037 248.275 283.568 249.512C283.099 250.707 282.864 252.029 282.864 253.48V253.928H301.104V253.224C301.104 250.28 300.293 247.933 298.672 246.184C297.093 244.392 294.981 243.496 292.336 243.496ZM315.685 239.976H320.805V245.352H321.061C321.914 243.261 323.152 241.725 324.773 240.744C326.437 239.72 328.421 239.208 330.725 239.208C332.773 239.208 334.629 239.613 336.293 240.424C337.957 241.235 339.365 242.387 340.517 243.88C341.712 245.373 342.608 247.187 343.205 249.32C343.845 251.453 344.165 253.843 344.165 256.488C344.165 259.133 343.845 261.523 343.205 263.656C342.608 265.789 341.712 267.603 340.517 269.096C339.365 270.589 337.957 271.741 336.293 272.552C334.629 273.363 332.773 273.768 330.725 273.768C326.245 273.768 323.024 271.72 321.061 267.624H320.805V285.8H315.685V239.976ZM329.317 269.16C332.218 269.16 334.501 268.264 336.165 266.472C337.829 264.637 338.661 262.248 338.661 259.304V253.672C338.661 250.728 337.829 248.36 336.165 246.568C334.501 244.733 332.218 243.816 329.317 243.816C328.165 243.816 327.056 243.987 325.989 244.328C324.965 244.627 324.069 245.053 323.301 245.608C322.533 246.163 321.914 246.845 321.445 247.656C321.018 248.424 320.805 249.256 320.805 250.152V262.44C320.805 263.507 321.018 264.467 321.445 265.32C321.914 266.131 322.533 266.835 323.301 267.432C324.069 267.987 324.965 268.413 325.989 268.712C327.056 269.011 328.165 269.16 329.317 269.16ZM369.45 269.544H369.258C368.405 270.824 367.423 271.848 366.314 272.616C365.205 273.384 363.839 273.768 362.218 273.768C358.506 273.768 355.754 272.381 353.962 269.608C352.17 266.792 351.274 262.419 351.274 256.488C351.274 250.557 352.17 246.205 353.962 243.432C355.754 240.616 358.506 239.208 362.218 239.208C363.839 239.208 365.205 239.592 366.314 240.36C367.423 241.128 368.405 242.152 369.258 243.432H369.45V227.56H374.57V243.432H374.762C375.615 242.152 376.597 241.128 377.706 240.36C378.815 239.592 380.181 239.208 381.802 239.208C385.514 239.208 388.266 240.616 390.058 243.432C391.85 246.205 392.746 250.557 392.746 256.488C392.746 262.419 391.85 266.792 390.058 269.608C388.266 272.381 385.514 273.768 381.802 273.768C380.181 273.768 378.815 273.384 377.706 272.616C376.597 271.848 375.615 270.824 374.762 269.544H374.57V285.8H369.45V269.544ZM363.562 269.224C367.53 269.224 369.514 267.731 369.514 264.744V248.232C369.514 245.245 367.53 243.752 363.562 243.752C361.173 243.752 359.445 244.52 358.378 246.056C357.311 247.549 356.778 250.088 356.778 253.672V259.304C356.778 262.888 357.311 265.448 358.378 266.984C359.445 268.477 361.173 269.224 363.562 269.224ZM380.458 269.224C382.805 269.224 384.511 268.477 385.578 266.984C386.687 265.448 387.242 262.888 387.242 259.304V253.672C387.242 250.088 386.687 247.549 385.578 246.056C384.511 244.52 382.805 243.752 380.458 243.752C376.49 243.752 374.506 245.245 374.506 248.232V264.744C374.506 267.731 376.49 269.224 380.458 269.224ZM414.631 273.768C412.37 273.768 410.322 273.363 408.487 272.552C406.695 271.741 405.138 270.589 403.815 269.096C402.535 267.56 401.532 265.747 400.807 263.656C400.124 261.523 399.783 259.133 399.783 256.488C399.783 253.885 400.124 251.517 400.807 249.384C401.532 247.251 402.535 245.437 403.815 243.944C405.138 242.408 406.695 241.235 408.487 240.424C410.322 239.613 412.37 239.208 414.631 239.208C416.85 239.208 418.834 239.613 420.583 240.424C422.332 241.235 423.826 242.365 425.063 243.816C426.3 245.224 427.239 246.909 427.879 248.872C428.562 250.835 428.903 252.989 428.903 255.336V257.768H405.159V259.304C405.159 260.712 405.372 262.035 405.799 263.272C406.268 264.467 406.908 265.512 407.719 266.408C408.572 267.304 409.596 268.008 410.791 268.52C412.028 269.032 413.415 269.288 414.951 269.288C417.042 269.288 418.855 268.797 420.391 267.816C421.97 266.835 423.186 265.427 424.039 263.592L427.687 266.216C426.62 268.477 424.956 270.312 422.695 271.72C420.434 273.085 417.746 273.768 414.631 273.768ZM414.631 243.496C413.223 243.496 411.943 243.752 410.791 244.264C409.639 244.733 408.636 245.416 407.783 246.312C406.972 247.208 406.332 248.275 405.863 249.512C405.394 250.707 405.159 252.029 405.159 253.48V253.928H423.399V253.224C423.399 250.28 422.588 247.933 420.967 246.184C419.388 244.392 417.276 243.496 414.631 243.496ZM437.98 239.976H442.972V258.28L442.46 266.216H442.716L446.812 259.176L459.996 239.976H464.732V273H459.74V254.696L460.252 246.76H459.996L455.9 253.8L442.716 273H437.98V239.976ZM451.484 234.856C449.18 234.856 447.345 234.408 445.98 233.512C444.615 232.573 443.527 231.357 442.716 229.864L441.436 227.432L445.916 225.448L448.156 230.696C448.668 230.824 449.223 230.931 449.82 231.016C450.417 231.059 450.972 231.08 451.484 231.08C451.996 231.08 452.551 231.059 453.148 231.016C453.745 230.931 454.3 230.824 454.812 230.696L457.052 225.448L461.532 227.432L460.252 229.864C459.441 231.357 458.353 232.573 456.988 233.512C455.623 234.408 453.788 234.856 451.484 234.856ZM488.533 273.768C486.229 273.768 484.16 273.363 482.325 272.552C480.49 271.741 478.933 270.589 477.653 269.096C476.416 267.603 475.456 265.789 474.773 263.656C474.133 261.523 473.813 259.133 473.813 256.488C473.813 253.843 474.133 251.453 474.773 249.32C475.456 247.187 476.416 245.373 477.653 243.88C478.933 242.387 480.49 241.235 482.325 240.424C484.16 239.613 486.229 239.208 488.533 239.208C491.818 239.208 494.442 239.933 496.405 241.384C498.41 242.792 499.904 244.648 500.885 246.952L496.597 249.128C496 247.421 495.018 246.099 493.653 245.16C492.288 244.221 490.581 243.752 488.533 243.752C486.997 243.752 485.653 244.008 484.501 244.52C483.349 244.989 482.389 245.672 481.621 246.568C480.853 247.421 480.277 248.467 479.893 249.704C479.509 250.899 479.317 252.221 479.317 253.672V259.304C479.317 262.205 480.085 264.595 481.621 266.472C483.2 268.307 485.504 269.224 488.533 269.224C492.672 269.224 495.658 267.304 497.493 263.464L501.205 265.96C500.138 268.349 498.538 270.248 496.405 271.656C494.314 273.064 491.69 273.768 488.533 273.768ZM533.073 273C531.153 273 529.766 272.488 528.913 271.464C528.102 270.44 527.59 269.16 527.377 267.624H527.057C526.331 269.672 525.137 271.208 523.473 272.232C521.809 273.256 519.825 273.768 517.521 273.768C514.022 273.768 511.291 272.872 509.329 271.08C507.409 269.288 506.449 266.856 506.449 263.784C506.449 260.669 507.579 258.28 509.841 256.616C512.145 254.952 515.707 254.12 520.529 254.12H527.057V250.856C527.057 248.509 526.417 246.717 525.137 245.48C523.857 244.243 521.894 243.624 519.249 243.624C517.243 243.624 515.558 244.072 514.193 244.968C512.87 245.864 511.761 247.059 510.865 248.552L507.793 245.672C508.689 243.88 510.118 242.365 512.081 241.128C514.043 239.848 516.518 239.208 519.505 239.208C523.515 239.208 526.63 240.189 528.849 242.152C531.067 244.115 532.177 246.845 532.177 250.344V268.52H535.953V273H533.073ZM518.353 269.416C519.633 269.416 520.806 269.267 521.873 268.968C522.939 268.669 523.857 268.243 524.625 267.688C525.393 267.133 525.99 266.493 526.417 265.768C526.843 265.043 527.057 264.253 527.057 263.4V257.96H520.273C517.329 257.96 515.174 258.387 513.809 259.24C512.486 260.093 511.825 261.331 511.825 262.952V264.296C511.825 265.917 512.401 267.176 513.553 268.072C514.747 268.968 516.347 269.416 518.353 269.416Z" fill="black"/>
</g>
<defs>
<clipPath id="clip0_180_2">
<rect width="750" height="365" fill="white"/>
</clipPath>
</defs>
</svg>
