<svg width="750" height="365" viewBox="0 0 750 365" fill="none" xmlns="http://www.w3.org/2000/svg">
<path d="M750 39H88V345H750V39Z" fill="#007D00"/>
<path d="M618.591 268.269C619.158 267.927 619.619 267.435 619.926 266.849C621.341 263.022 621.341 258.817 619.926 254.99C619.619 254.404 619.158 253.913 618.591 253.57C618.025 253.228 617.375 253.046 616.712 253.046C616.05 253.046 615.4 253.228 614.833 253.57C614.267 253.913 613.805 254.404 613.499 254.99C612.084 258.817 612.084 263.022 613.499 266.849C613.805 267.435 614.267 267.927 614.833 268.269C615.4 268.612 616.05 268.793 616.712 268.793C617.375 268.793 618.025 268.612 618.591 268.269Z" fill="white"/>
<path d="M636.442 253.873H640.403C641.191 253.822 641.97 254.053 642.601 254.525C642.849 254.76 643.045 255.043 643.18 255.357C643.314 255.67 643.384 256.007 643.384 256.348C643.384 256.689 643.314 257.027 643.18 257.34C643.045 257.653 642.849 257.936 642.601 258.172C641.965 258.632 641.188 258.856 640.403 258.804H636.442V253.873Z" fill="white"/>
<path d="M618.014 289.696C618.798 289.748 619.576 289.524 620.212 289.064C620.476 288.839 620.683 288.556 620.818 288.236C620.952 287.917 621.009 287.571 620.985 287.226C621.004 286.884 620.944 286.542 620.81 286.227C620.676 285.912 620.472 285.632 620.212 285.407C619.581 284.935 618.801 284.704 618.014 284.755H614.053V289.696H618.014Z" fill="white"/>
<path d="M636.125 284.765H640.175C640.948 284.719 641.711 284.963 642.314 285.447C642.574 285.678 642.778 285.964 642.914 286.283C643.049 286.603 643.111 286.948 643.096 287.295C643.115 287.643 643.054 287.992 642.919 288.313C642.783 288.635 642.577 288.922 642.314 289.153C641.711 289.637 640.948 289.88 640.175 289.835H636.125V284.765Z" fill="white"/>
<path d="M663.438 299.162C664.004 298.819 664.466 298.328 664.772 297.741C666.187 293.915 666.187 289.709 664.772 285.883C664.466 285.296 664.004 284.805 663.438 284.463C662.871 284.12 662.221 283.939 661.559 283.939C660.896 283.939 660.247 284.12 659.68 284.463C659.114 284.805 658.652 285.296 658.346 285.883C656.917 289.707 656.917 293.917 658.346 297.741C658.652 298.328 659.114 298.819 659.68 299.162C660.247 299.504 660.896 299.686 661.559 299.686C662.221 299.686 662.871 299.504 663.438 299.162Z" fill="white"/>
<path d="M707.698 289.696C708.482 289.748 709.26 289.524 709.896 289.064C710.161 288.839 710.37 288.556 710.506 288.237C710.642 287.918 710.701 287.572 710.678 287.225C710.695 286.883 710.634 286.541 710.498 286.226C710.363 285.911 710.157 285.631 709.896 285.407C709.265 284.935 708.485 284.704 707.698 284.755H703.737V289.696H707.698Z" fill="white"/>
<path d="M691.99 330.802C691.816 331.171 691.539 331.48 691.193 331.692C690.848 331.904 690.448 332.009 690.044 331.995C689.64 332.008 689.242 331.902 688.896 331.69C688.551 331.478 688.273 331.17 688.098 330.802C687.605 329.663 687.384 328.423 687.453 327.182C687.381 325.935 687.603 324.688 688.098 323.543C688.272 323.173 688.549 322.862 688.894 322.649C689.24 322.435 689.639 322.328 690.044 322.34C690.448 322.325 690.848 322.431 691.193 322.643C691.539 322.854 691.816 323.164 691.99 323.532C692.492 324.679 692.714 325.931 692.636 327.182C692.709 328.424 692.488 329.665 691.99 330.802Z" fill="white"/>
<path d="M701.802 322.849H704.252C704.718 322.819 705.178 322.965 705.543 323.257C705.704 323.399 705.832 323.575 705.917 323.772C706.002 323.97 706.044 324.184 706.037 324.399C706.044 324.608 706.006 324.816 705.924 325.009C705.842 325.201 705.719 325.372 705.563 325.51C705.199 325.807 704.739 325.956 704.273 325.928H701.802V322.849Z" fill="white"/>
<path fill-rule="evenodd" clip-rule="evenodd" d="M597 345V238H750V365H740V355H730V345H597ZM609.093 251.028C610.842 248.774 613.384 247.648 616.717 247.648C618.165 247.56 619.613 247.821 620.938 248.41C622.263 248.998 623.428 249.896 624.332 251.028C626.075 253.281 626.946 256.575 626.946 260.91C626.946 265.245 626.075 268.539 624.332 270.792C623.43 271.927 622.266 272.828 620.941 273.418C619.615 274.008 618.166 274.27 616.717 274.182C613.377 274.162 610.835 273.032 609.093 270.792C607.35 268.552 606.478 265.258 606.478 260.91C606.472 256.575 607.343 253.281 609.093 251.028ZM636.442 264.141H640.403C642.028 264.183 643.642 263.862 645.127 263.202C646.409 262.618 647.495 261.678 648.256 260.494C649.017 259.256 649.402 257.825 649.365 256.373C649.409 254.864 649.024 253.374 648.256 252.074C647.511 250.866 646.435 249.896 645.156 249.277C643.68 248.587 642.063 248.248 640.433 248.289H630.531V273.578H636.472L636.442 264.141ZM659.494 268.509H670.327V273.569H653.543V248.28H670.644V253.34H659.494V258.548H669.06V263.479H659.494V268.509ZM679.734 263.361L679.358 252.925H679.982L684.141 273.569H693.32V248.28H688.22V258.489L688.606 268.915H687.973L683.814 248.28H674.635V273.569H679.734V263.361ZM617.598 279.181C619.228 279.14 620.846 279.478 622.322 280.17C623.586 280.795 624.647 281.764 625.381 282.966C626.148 284.267 626.532 285.757 626.49 287.265C626.528 288.717 626.142 290.148 625.381 291.386C624.634 292.57 623.557 293.511 622.282 294.094C620.801 294.772 619.187 295.109 617.559 295.082H613.598V304.47H607.656V279.181H617.598ZM644.899 293.778C646.144 293.194 647.203 292.277 647.958 291.129C648.696 289.969 649.074 288.619 649.048 287.246C649.087 285.747 648.713 284.267 647.968 282.966C647.258 281.754 646.208 280.775 644.948 280.15C643.533 279.465 641.975 279.126 640.403 279.162H630.174V304.451H636.115V294.717H637.363L642.958 304.451H649.642L643.502 294.292C643.981 294.157 644.448 293.986 644.899 293.778ZM653.939 281.93C655.682 279.67 658.22 278.54 661.554 278.54C664.888 278.56 667.426 279.69 669.169 281.93C670.911 284.17 671.783 287.464 671.783 291.812C671.783 296.147 670.911 299.441 669.169 301.694C667.426 303.948 664.888 305.074 661.554 305.074C658.22 305.074 655.682 303.948 653.939 301.694C652.196 299.441 651.325 296.147 651.325 291.812C651.325 287.484 652.196 284.189 653.939 281.93ZM684.418 291.407H683.784L682.17 279.172H674.476V304.461H679.516V295.073L679.1 284.548H679.734L681.319 296.555H686.636L688.22 284.548H688.854L688.438 295.073V304.461H693.478V279.172H686.032L684.418 291.407ZM707.698 279.181C709.328 279.14 710.945 279.479 712.421 280.169C713.687 280.796 714.751 281.765 715.491 282.966C716.257 284.267 716.642 285.757 716.6 287.265C716.637 288.717 716.252 290.148 715.491 291.386C714.741 292.568 713.665 293.508 712.392 294.094C710.911 294.771 709.297 295.109 707.668 295.082H703.707V304.47H697.766V279.181H707.698ZM718.779 279.172V284.835H725.849V304.461H731.8V284.835H738.86V279.172H718.779ZM613.865 315.727H607.656V310.064H626.025V315.727H619.816V329.691H626.025V335.353H607.656V329.691H613.865V315.727ZM643.374 320.282L643.76 330.708H643.126L638.977 310.074H629.788V335.353H634.888V325.144L634.511 314.718H635.145L639.294 335.353H648.473V310.074H643.374V320.282ZM663.376 315.08C662.949 314.91 662.49 314.831 662.03 314.847C661.357 314.829 660.694 315.003 660.119 315.35C659.543 315.697 659.079 316.201 658.782 316.803C657.943 318.662 657.569 320.697 657.693 322.733C657.686 325.605 658.046 327.7 658.772 329.018C659.09 329.647 659.586 330.17 660.198 330.521C660.811 330.873 661.513 331.037 662.218 330.994C662.874 331.016 663.522 330.846 664.083 330.505C664.644 330.165 665.094 329.669 665.377 329.077C665.688 328.434 665.844 327.726 665.832 327.012H661.426V321.823H671.031V335.293H665.832V333.178H664.535C664.274 334.012 663.709 334.718 662.951 335.155C662.072 335.645 661.076 335.888 660.069 335.856C658.832 335.895 657.608 335.599 656.526 335.001C655.444 334.402 654.543 333.524 653.92 332.457C652.487 330.191 651.771 326.929 651.771 322.673C651.771 318.338 652.642 315.044 654.385 312.791C656.128 310.538 658.676 309.411 662.03 309.411C663.724 309.367 665.403 309.747 666.911 310.518C668.278 311.247 669.4 312.361 670.139 313.72C670.968 315.288 671.422 317.027 671.466 318.799H665.891C665.727 317.7 665.249 316.671 664.515 315.835C664.192 315.507 663.804 315.25 663.376 315.08ZM675.215 330.52H680.014V335.309H675.215V330.52ZM719.792 329.803H717.13V326.622H722.978V334.89H719.832V333.596H719.046C718.874 334.112 718.513 334.543 718.037 334.799C717.502 335.091 716.9 335.236 716.293 335.217C715.549 335.245 714.811 335.071 714.156 334.712C713.501 334.353 712.954 333.823 712.572 333.177C711.598 331.339 711.147 329.264 711.271 327.183C711.115 325.023 711.672 322.871 712.854 321.065C713.408 320.375 714.117 319.83 714.922 319.475C715.728 319.12 716.606 318.966 717.483 319.026C718.509 318.997 719.526 319.232 720.437 319.709C721.26 320.162 721.934 320.85 722.373 321.687C722.873 322.648 723.148 323.712 723.18 324.797H719.872C719.773 324.114 719.483 323.473 719.035 322.951C718.84 322.752 718.605 322.595 718.346 322.492C718.088 322.388 717.811 322.34 717.533 322.35C717.118 322.328 716.707 322.429 716.348 322.641C715.99 322.853 715.701 323.167 715.516 323.543C715.007 324.684 714.782 325.933 714.861 327.183C714.783 328.498 715.007 329.813 715.516 331.026C715.708 331.414 716.008 331.736 716.379 331.953C716.75 332.171 717.176 332.274 717.604 332.25C718.009 332.261 718.409 332.151 718.753 331.934C719.08 331.723 719.345 331.427 719.519 331.077C719.707 330.68 719.801 330.243 719.792 329.803ZM690.044 319.026C689.171 318.97 688.297 319.125 687.495 319.48C686.694 319.835 685.987 320.378 685.436 321.065C684.254 322.871 683.697 325.023 683.853 327.182C683.707 329.326 684.263 331.457 685.436 333.249C685.987 333.936 686.694 334.479 687.495 334.834C688.297 335.189 689.171 335.344 690.044 335.288C690.918 335.345 691.792 335.19 692.594 334.835C693.396 334.48 694.102 333.936 694.653 333.249C695.825 331.457 696.381 329.326 696.236 327.182C696.391 325.023 695.834 322.871 694.653 321.065C694.102 320.378 693.396 319.834 692.594 319.479C691.792 319.124 690.918 318.969 690.044 319.026ZM707.106 328.365C707.859 328.016 708.502 327.461 708.962 326.765C709.409 326.052 709.637 325.222 709.617 324.379C709.641 323.459 709.418 322.55 708.972 321.748C708.535 321.014 707.897 320.423 707.136 320.046C706.28 319.622 705.336 319.412 704.383 319.434H698.192V334.921H701.802V328.957H702.568L705.957 334.921H709.99L706.259 328.691C706.55 328.606 706.833 328.497 707.106 328.365Z" fill="white"/>
<path d="M720.25 8.8421V48H729V0H704V8.8421H720.25Z" fill="white"/>
<path d="M8.75 8.8421V48H0V0H25V8.8421H8.75Z" fill="white"/>
<path d="M8.75 327.158V288H0V336H25V327.158H8.75Z" fill="white"/>
<path d="M596.79 39V18.06H605.13C607.01 18.06 608.45 18.6 609.45 19.68C610.47 20.74 610.98 22.2 610.98 24.06C610.98 25.92 610.47 27.39 609.45 28.47C608.45 29.53 607.01 30.06 605.13 30.06H599.31V39H596.79ZM599.31 27.84H605.13C606.13 27.84 606.9 27.58 607.44 27.06C608 26.54 608.28 25.8 608.28 24.84V23.28C608.28 22.32 608 21.58 607.44 21.06C606.9 20.54 606.13 20.28 605.13 20.28H599.31V27.84Z" fill="white"/>
<path d="M620.277 39.36C619.217 39.36 618.257 39.17 617.397 38.79C616.557 38.41 615.827 37.87 615.207 37.17C614.607 36.45 614.137 35.6 613.797 34.62C613.477 33.62 613.317 32.5 613.317 31.26C613.317 30.04 613.477 28.93 613.797 27.93C614.137 26.93 614.607 26.08 615.207 25.38C615.827 24.66 616.557 24.11 617.397 23.73C618.257 23.35 619.217 23.16 620.277 23.16C621.317 23.16 622.247 23.35 623.067 23.73C623.887 24.11 624.587 24.64 625.167 25.32C625.747 25.98 626.187 26.77 626.487 27.69C626.807 28.61 626.967 29.62 626.967 30.72V31.86H615.837V32.58C615.837 33.24 615.937 33.86 616.137 34.44C616.357 35 616.657 35.49 617.037 35.91C617.437 36.33 617.917 36.66 618.477 36.9C619.057 37.14 619.707 37.26 620.427 37.26C621.407 37.26 622.257 37.03 622.977 36.57C623.717 36.11 624.287 35.45 624.687 34.59L626.397 35.82C625.897 36.88 625.117 37.74 624.057 38.4C622.997 39.04 621.737 39.36 620.277 39.36ZM620.277 25.17C619.617 25.17 619.017 25.29 618.477 25.53C617.937 25.75 617.467 26.07 617.067 26.49C616.687 26.91 616.387 27.41 616.167 27.99C615.947 28.55 615.837 29.17 615.837 29.85V30.06H624.387V29.73C624.387 28.35 624.007 27.25 623.247 26.43C622.507 25.59 621.517 25.17 620.277 25.17Z" fill="white"/>
<path d="M643.702 39H631.222V23.52H633.622V36.9H640.912V23.52H643.312V36.9H645.892V43.2H643.702V39Z" fill="white"/>
<path d="M655.331 39.36C654.271 39.36 653.311 39.17 652.451 38.79C651.611 38.41 650.881 37.87 650.261 37.17C649.661 36.45 649.191 35.6 648.851 34.62C648.531 33.62 648.371 32.5 648.371 31.26C648.371 30.04 648.531 28.93 648.851 27.93C649.191 26.93 649.661 26.08 650.261 25.38C650.881 24.66 651.611 24.11 652.451 23.73C653.311 23.35 654.271 23.16 655.331 23.16C656.371 23.16 657.301 23.35 658.121 23.73C658.941 24.11 659.641 24.64 660.221 25.32C660.801 25.98 661.241 26.77 661.541 27.69C661.861 28.61 662.021 29.62 662.021 30.72V31.86H650.891V32.58C650.891 33.24 650.991 33.86 651.191 34.44C651.411 35 651.711 35.49 652.091 35.91C652.491 36.33 652.971 36.66 653.531 36.9C654.111 37.14 654.761 37.26 655.481 37.26C656.461 37.26 657.311 37.03 658.031 36.57C658.771 36.11 659.341 35.45 659.741 34.59L661.451 35.82C660.951 36.88 660.171 37.74 659.111 38.4C658.051 39.04 656.791 39.36 655.331 39.36ZM655.331 25.17C654.671 25.17 654.071 25.29 653.531 25.53C652.991 25.75 652.521 26.07 652.121 26.49C651.741 26.91 651.441 27.41 651.221 27.99C651.001 28.55 650.891 29.17 650.891 29.85V30.06H659.441V29.73C659.441 28.35 659.061 27.25 658.301 26.43C657.561 25.59 656.571 25.17 655.331 25.17Z" fill="white"/>
<path d="M666.275 23.52H678.365V39H675.965V25.62H668.675V39H666.275V23.52Z" fill="white"/>
<path d="M687.103 25.62H681.823V23.52H694.783V25.62H689.503V39H687.103V25.62Z" fill="white"/>
<path d="M594.24 64.9H596.01C596.63 63.9 597.13 62.65 597.51 61.15C597.89 59.65 598.08 57.93 598.08 55.99V51.52H608.55V64.9H611.13V71.2H608.94V67H596.43V71.2H594.24V64.9ZM606.15 64.9V53.62H600.36V56.11C600.36 58.17 600.18 59.93 599.82 61.39C599.48 62.83 599.07 64 598.59 64.9H606.15Z" fill="white"/>
<path d="M614.75 51.52H617.09V60.1L616.85 63.82H616.97L618.89 60.52L625.07 51.52H627.29V67H624.95V58.42L625.19 54.7H625.07L623.15 58L616.97 67H614.75V51.52Z" fill="white"/>
<path d="M637.067 67.36C635.487 67.36 634.227 67.09 633.287 66.55C632.347 66.01 631.577 65.24 630.977 64.24L632.777 62.8C633.177 63.56 633.727 64.16 634.427 64.6C635.147 65.02 636.027 65.23 637.067 65.23C638.327 65.23 639.257 65 639.857 64.54C640.477 64.08 640.787 63.49 640.787 62.77V62.41C640.787 61.63 640.517 61.04 639.977 60.64C639.457 60.22 638.717 60.01 637.757 60.01H634.457V58H637.457C638.417 58 639.157 57.81 639.677 57.43C640.197 57.05 640.457 56.51 640.457 55.81V55.45C640.457 54.79 640.187 54.27 639.647 53.89C639.127 53.49 638.247 53.29 637.007 53.29C635.987 53.29 635.147 53.5 634.487 53.92C633.827 54.32 633.297 54.87 632.897 55.57L631.307 54.22C631.787 53.32 632.487 52.59 633.407 52.03C634.347 51.45 635.587 51.16 637.127 51.16C639.147 51.16 640.637 51.53 641.597 52.27C642.557 53.01 643.037 54.03 643.037 55.33C643.037 56.29 642.777 57.05 642.257 57.61C641.757 58.17 641.027 58.56 640.067 58.78V58.9C641.167 59.06 641.987 59.46 642.527 60.1C643.087 60.72 643.367 61.52 643.367 62.5C643.367 64 642.797 65.19 641.657 66.07C640.537 66.93 639.007 67.36 637.067 67.36Z" fill="white"/>
<path d="M659.12 67C658.22 67 657.57 66.76 657.17 66.28C656.79 65.8 656.55 65.2 656.45 64.48H656.3C655.96 65.44 655.4 66.16 654.62 66.64C653.84 67.12 652.91 67.36 651.83 67.36C650.19 67.36 648.91 66.94 647.99 66.1C647.09 65.26 646.64 64.12 646.64 62.68C646.64 61.22 647.17 60.1 648.23 59.32C649.31 58.54 650.98 58.15 653.24 58.15H656.3V56.62C656.3 55.52 656 54.68 655.4 54.1C654.8 53.52 653.88 53.23 652.64 53.23C651.7 53.23 650.91 53.44 650.27 53.86C649.65 54.28 649.13 54.84 648.71 55.54L647.27 54.19C647.69 53.35 648.36 52.64 649.28 52.06C650.2 51.46 651.36 51.16 652.76 51.16C654.64 51.16 656.1 51.62 657.14 52.54C658.18 53.46 658.7 54.74 658.7 56.38V64.9H660.47V67H659.12ZM652.22 65.32C652.82 65.32 653.37 65.25 653.87 65.11C654.37 64.97 654.8 64.77 655.16 64.51C655.52 64.25 655.8 63.95 656 63.61C656.2 63.27 656.3 62.9 656.3 62.5V59.95H653.12C651.74 59.95 650.73 60.15 650.09 60.55C649.47 60.95 649.16 61.53 649.16 62.29V62.92C649.16 63.68 649.43 64.27 649.97 64.69C650.53 65.11 651.28 65.32 652.22 65.32Z" fill="white"/>
<path d="M664.195 51.52H666.535V60.1L666.295 63.82H666.415L668.335 60.52L674.515 51.52H676.735V67H674.395V58.42L674.635 54.7H674.515L672.595 58L666.415 67H664.195V51.52ZM670.525 49.12C669.445 49.12 668.585 48.91 667.945 48.49C667.305 48.05 666.795 47.48 666.415 46.78L665.815 45.64L667.915 44.71L668.965 47.17C669.205 47.23 669.465 47.28 669.745 47.32C670.025 47.34 670.285 47.35 670.525 47.35C670.765 47.35 671.025 47.34 671.305 47.32C671.585 47.28 671.845 47.23 672.085 47.17L673.135 44.71L675.235 45.64L674.635 46.78C674.255 47.48 673.745 48.05 673.105 48.49C672.465 48.91 671.605 49.12 670.525 49.12Z" fill="white"/>
<path d="M681.652 59.17V56.59H689.482V59.17H681.652Z" fill="white"/>
<path d="M596.55 79.52H598.95V85.97H606.69V79.52H609.09V95H606.69V88.07H598.95V95H596.55V79.52Z" fill="white"/>
<path d="M620.307 95.36C619.247 95.36 618.287 95.17 617.427 94.79C616.587 94.41 615.857 93.87 615.237 93.17C614.637 92.45 614.167 91.6 613.827 90.62C613.507 89.62 613.347 88.5 613.347 87.26C613.347 86.04 613.507 84.93 613.827 83.93C614.167 82.93 614.637 82.08 615.237 81.38C615.857 80.66 616.587 80.11 617.427 79.73C618.287 79.35 619.247 79.16 620.307 79.16C621.347 79.16 622.277 79.35 623.097 79.73C623.917 80.11 624.617 80.64 625.197 81.32C625.777 81.98 626.217 82.77 626.517 83.69C626.837 84.61 626.997 85.62 626.997 86.72V87.86H615.867V88.58C615.867 89.24 615.967 89.86 616.167 90.44C616.387 91 616.687 91.49 617.067 91.91C617.467 92.33 617.947 92.66 618.507 92.9C619.087 93.14 619.737 93.26 620.457 93.26C621.437 93.26 622.287 93.03 623.007 92.57C623.747 92.11 624.317 91.45 624.717 90.59L626.427 91.82C625.927 92.88 625.147 93.74 624.087 94.4C623.027 95.04 621.767 95.36 620.307 95.36ZM620.307 81.17C619.647 81.17 619.047 81.29 618.507 81.53C617.967 81.75 617.497 82.07 617.097 82.49C616.717 82.91 616.417 83.41 616.197 83.99C615.977 84.55 615.867 85.17 615.867 85.85V86.06H624.417V85.73C624.417 84.35 624.037 83.25 623.277 82.43C622.537 81.59 621.547 81.17 620.307 81.17Z" fill="white"/>
<path d="M631.252 79.52H633.652V82.04H633.772C634.172 81.06 634.752 80.34 635.512 79.88C636.292 79.4 637.222 79.16 638.302 79.16C639.262 79.16 640.132 79.35 640.912 79.73C641.692 80.11 642.352 80.65 642.892 81.35C643.452 82.05 643.872 82.9 644.152 83.9C644.452 84.9 644.602 86.02 644.602 87.26C644.602 88.5 644.452 89.62 644.152 90.62C643.872 91.62 643.452 92.47 642.892 93.17C642.352 93.87 641.692 94.41 640.912 94.79C640.132 95.17 639.262 95.36 638.302 95.36C636.202 95.36 634.692 94.4 633.772 92.48H633.652V101H631.252V79.52ZM637.642 93.2C639.002 93.2 640.072 92.78 640.852 91.94C641.632 91.08 642.022 89.96 642.022 88.58V85.94C642.022 84.56 641.632 83.45 640.852 82.61C640.072 81.75 639.002 81.32 637.642 81.32C637.102 81.32 636.582 81.4 636.082 81.56C635.602 81.7 635.182 81.9 634.822 82.16C634.462 82.42 634.172 82.74 633.952 83.12C633.752 83.48 633.652 83.87 633.652 84.29V90.05C633.652 90.55 633.752 91 633.952 91.4C634.172 91.78 634.462 92.11 634.822 92.39C635.182 92.65 635.602 92.85 636.082 92.99C636.582 93.13 637.102 93.2 637.642 93.2Z" fill="white"/>
<path d="M658.347 79.52H660.717L653.787 98.6C653.607 99.06 653.427 99.44 653.247 99.74C653.067 100.06 652.847 100.31 652.587 100.49C652.327 100.67 651.997 100.8 651.597 100.88C651.217 100.96 650.747 101 650.187 101H648.957V98.9H651.387L652.557 95.6L646.767 79.52H649.167L652.887 90.05L653.607 92.57H653.757L654.597 90.05L658.347 79.52Z" fill="white"/>
<path d="M605.72 134.368H605.672C605.533 134.891 605.192 135.328 604.648 135.68C604.115 136.021 603.421 136.192 602.568 136.192C601.885 136.192 601.256 136.069 600.68 135.824C600.115 135.568 599.629 135.2 599.224 134.72C598.819 134.229 598.499 133.627 598.264 132.912C598.04 132.187 597.928 131.355 597.928 130.416C597.928 129.488 598.04 128.667 598.264 127.952C598.488 127.227 598.808 126.624 599.224 126.144C599.64 125.653 600.141 125.28 600.728 125.024C601.315 124.768 601.965 124.64 602.68 124.64C603.683 124.64 604.52 124.864 605.192 125.312C605.864 125.76 606.381 126.352 606.744 127.088L605.64 127.76C605.384 127.163 605 126.693 604.488 126.352C603.987 126.011 603.384 125.84 602.68 125.84C602.189 125.84 601.741 125.931 601.336 126.112C600.931 126.283 600.579 126.528 600.28 126.848C599.992 127.168 599.768 127.552 599.608 128C599.448 128.448 599.368 128.949 599.368 129.504V131.312C599.368 131.867 599.448 132.373 599.608 132.832C599.768 133.28 599.992 133.664 600.28 133.984C600.579 134.304 600.941 134.555 601.368 134.736C601.795 134.907 602.275 134.992 602.808 134.992C603.192 134.992 603.555 134.944 603.896 134.848C604.248 134.741 604.552 134.587 604.808 134.384C605.075 134.181 605.283 133.931 605.432 133.632C605.581 133.323 605.656 132.96 605.656 132.544V131.44H603.192V130.256H606.968V136H605.72V134.368Z" fill="white"/>
<path d="M609.773 136V124.832H614.221C615.224 124.832 615.992 125.12 616.525 125.696C617.069 126.261 617.341 127.04 617.341 128.032C617.341 129.024 617.069 129.808 616.525 130.384C615.992 130.949 615.224 131.232 614.221 131.232H611.117V136H609.773ZM611.117 130.048H614.221C614.754 130.048 615.165 129.909 615.453 129.632C615.752 129.355 615.901 128.96 615.901 128.448V127.616C615.901 127.104 615.752 126.709 615.453 126.432C615.165 126.155 614.754 126.016 614.221 126.016H611.117V130.048Z" fill="white"/>
<path d="M623.396 126.016V136H622.052V126.016H618.5V124.832H626.948V126.016H623.396Z" fill="white"/>
<path d="M641.598 126.592H641.518L640.574 128.464L637.902 133.328L635.23 128.464L634.286 126.592H634.206V136H632.894V124.832H634.686L637.886 130.848H637.966L641.182 124.832H642.91V136H641.598V126.592Z" fill="white"/>
<path d="M651.91 136C651.43 136 651.083 135.872 650.87 135.616C650.667 135.36 650.539 135.04 650.486 134.656H650.406C650.225 135.168 649.926 135.552 649.51 135.808C649.094 136.064 648.598 136.192 648.022 136.192C647.147 136.192 646.465 135.968 645.974 135.52C645.494 135.072 645.254 134.464 645.254 133.696C645.254 132.917 645.537 132.32 646.102 131.904C646.678 131.488 647.569 131.28 648.774 131.28H650.406V130.464C650.406 129.877 650.246 129.429 649.926 129.12C649.606 128.811 649.115 128.656 648.454 128.656C647.953 128.656 647.531 128.768 647.19 128.992C646.859 129.216 646.582 129.515 646.358 129.888L645.59 129.168C645.814 128.72 646.171 128.341 646.662 128.032C647.153 127.712 647.771 127.552 648.518 127.552C649.521 127.552 650.299 127.797 650.854 128.288C651.409 128.779 651.686 129.461 651.686 130.336V134.88H652.63V136H651.91ZM648.23 135.104C648.55 135.104 648.843 135.067 649.11 134.992C649.377 134.917 649.606 134.811 649.798 134.672C649.99 134.533 650.139 134.373 650.246 134.192C650.353 134.011 650.406 133.813 650.406 133.6V132.24H648.71C647.974 132.24 647.435 132.347 647.094 132.56C646.763 132.773 646.598 133.083 646.598 133.488V133.824C646.598 134.229 646.742 134.544 647.03 134.768C647.329 134.992 647.729 135.104 648.23 135.104Z" fill="white"/>
<path d="M656.441 136C655.993 136 655.652 135.877 655.417 135.632C655.193 135.376 655.081 135.045 655.081 134.64V128.864H653.721V127.744H654.489C654.766 127.744 654.953 127.691 655.049 127.584C655.156 127.467 655.209 127.269 655.209 126.992V125.456H656.361V127.744H658.169V128.864H656.361V134.88H658.041V136H656.441Z" fill="white"/>
<path d="M663.428 136.192C662.862 136.192 662.35 136.091 661.892 135.888C661.444 135.685 661.054 135.397 660.724 135.024C660.404 134.64 660.153 134.187 659.972 133.664C659.801 133.131 659.716 132.533 659.716 131.872C659.716 131.221 659.801 130.629 659.972 130.096C660.153 129.563 660.404 129.109 660.724 128.736C661.054 128.352 661.444 128.059 661.892 127.856C662.35 127.653 662.862 127.552 663.428 127.552C663.982 127.552 664.478 127.653 664.916 127.856C665.353 128.059 665.726 128.341 666.036 128.704C666.345 129.056 666.58 129.477 666.74 129.968C666.91 130.459 666.996 130.997 666.996 131.584V132.192H661.06V132.576C661.06 132.928 661.113 133.259 661.22 133.568C661.337 133.867 661.497 134.128 661.7 134.352C661.913 134.576 662.169 134.752 662.468 134.88C662.777 135.008 663.124 135.072 663.508 135.072C664.03 135.072 664.484 134.949 664.868 134.704C665.262 134.459 665.566 134.107 665.78 133.648L666.692 134.304C666.425 134.869 666.009 135.328 665.444 135.68C664.878 136.021 664.206 136.192 663.428 136.192ZM663.428 128.624C663.076 128.624 662.756 128.688 662.468 128.816C662.18 128.933 661.929 129.104 661.716 129.328C661.513 129.552 661.353 129.819 661.236 130.128C661.118 130.427 661.06 130.757 661.06 131.12V131.232H665.62V131.056C665.62 130.32 665.417 129.733 665.012 129.296C664.617 128.848 664.089 128.624 663.428 128.624Z" fill="white"/>
<path d="M43.984 87.672C39.0187 87.672 35.1547 85.992 32.392 82.632C29.6293 79.2347 28.248 74.2507 28.248 67.68C28.248 61.1093 29.6293 56.0693 32.392 52.56C35.1547 49.0133 39.0187 47.24 43.984 47.24C47.2693 47.24 50.0133 47.9867 52.216 49.48C54.456 50.9733 56.192 53.0827 57.424 55.808L53.616 58.104C52.832 56.088 51.6373 54.4827 50.032 53.288C48.4267 52.056 46.4107 51.44 43.984 51.44C42.304 51.44 40.792 51.7573 39.448 52.392C38.1413 53.0267 37.0213 53.9413 36.088 55.136C35.192 56.2933 34.5013 57.6933 34.016 59.336C33.5307 60.9413 33.288 62.752 33.288 64.768V70.592C33.288 74.624 34.2213 77.7787 36.088 80.056C37.9547 82.3333 40.5867 83.472 43.984 83.472C46.4853 83.472 48.576 82.8373 50.256 81.568C51.936 80.2613 53.168 78.544 53.952 76.416L57.704 78.768C56.472 81.5307 54.6987 83.7147 52.384 85.32C50.0693 86.888 47.2693 87.672 43.984 87.672Z" fill="white"/>
<path d="M76.0212 87.672C74.0799 87.672 72.3066 87.3173 70.7012 86.608C69.0959 85.8987 67.7146 84.8907 66.5573 83.584C65.4373 82.24 64.5599 80.6533 63.9253 78.824C63.2906 76.9573 62.9733 74.8667 62.9733 72.552C62.9733 70.2747 63.2906 68.2027 63.9253 66.336C64.5599 64.4693 65.4373 62.8827 66.5573 61.576C67.7146 60.232 69.0959 59.2053 70.7012 58.496C72.3066 57.7867 74.0799 57.432 76.0212 57.432C77.9626 57.432 79.7173 57.7867 81.2853 58.496C82.8906 59.2053 84.2719 60.232 85.4293 61.576C86.5866 62.8827 87.4826 64.4693 88.1173 66.336C88.7519 68.2027 89.0693 70.2747 89.0693 72.552C89.0693 74.8667 88.7519 76.9573 88.1173 78.824C87.4826 80.6533 86.5866 82.24 85.4293 83.584C84.2719 84.8907 82.8906 85.8987 81.2853 86.608C79.7173 87.3173 77.9626 87.672 76.0212 87.672ZM76.0212 83.696C78.4479 83.696 80.4266 82.9493 81.9573 81.456C83.4879 79.9627 84.2533 77.6853 84.2533 74.624V70.48C84.2533 67.4187 83.4879 65.1413 81.9573 63.648C80.4266 62.1547 78.4479 61.408 76.0212 61.408C73.5946 61.408 71.6159 62.1547 70.0853 63.648C68.5546 65.1413 67.7893 67.4187 67.7893 70.48V74.624C67.7893 77.6853 68.5546 79.9627 70.0853 81.456C71.6159 82.9493 73.5946 83.696 76.0212 83.696Z" fill="white"/>
<path d="M107.749 87.672C105.733 87.672 103.923 87.3173 102.317 86.608C100.712 85.8987 99.3492 84.8907 98.2292 83.584C97.1465 82.2773 96.3065 80.6907 95.7092 78.824C95.1492 76.9573 94.8692 74.8667 94.8692 72.552C94.8692 70.2373 95.1492 68.1467 95.7092 66.28C96.3065 64.4133 97.1465 62.8267 98.2292 61.52C99.3492 60.2133 100.712 59.2053 102.317 58.496C103.923 57.7867 105.733 57.432 107.749 57.432C110.624 57.432 112.92 58.0667 114.637 59.336C116.392 60.568 117.699 62.192 118.557 64.208L114.805 66.112C114.283 64.6187 113.424 63.4613 112.229 62.64C111.035 61.8187 109.541 61.408 107.749 61.408C106.405 61.408 105.229 61.632 104.221 62.08C103.213 62.4907 102.373 63.088 101.701 63.872C101.029 64.6187 100.525 65.5333 100.189 66.616C99.8532 67.6613 99.6852 68.8187 99.6852 70.088V75.016C99.6852 77.5547 100.357 79.6453 101.701 81.288C103.083 82.8933 105.099 83.696 107.749 83.696C111.371 83.696 113.984 82.016 115.589 78.656L118.837 80.84C117.904 82.9307 116.504 84.592 114.637 85.824C112.808 87.056 110.512 87.672 107.749 87.672Z" fill="white"/>
<path d="M132.156 62.024H122.3V58.104H146.492V62.024H136.636V87H132.156V62.024Z" fill="white"/>
<path d="M173.203 87C171.523 87 170.31 86.552 169.563 85.656C168.854 84.76 168.406 83.64 168.219 82.296H167.939C167.304 84.088 166.259 85.432 164.803 86.328C163.347 87.224 161.611 87.672 159.595 87.672C156.534 87.672 154.144 86.888 152.427 85.32C150.747 83.752 149.907 81.624 149.907 78.936C149.907 76.2107 150.896 74.12 152.875 72.664C154.891 71.208 158.008 70.48 162.227 70.48H167.939V67.624C167.939 65.5707 167.379 64.0027 166.259 62.92C165.139 61.8373 163.422 61.296 161.107 61.296C159.352 61.296 157.878 61.688 156.683 62.472C155.526 63.256 154.555 64.3013 153.771 65.608L151.083 63.088C151.867 61.52 153.118 60.1947 154.835 59.112C156.552 57.992 158.718 57.432 161.331 57.432C164.84 57.432 167.566 58.2907 169.507 60.008C171.448 61.7253 172.419 64.1147 172.419 67.176V83.08H175.723V87H173.203ZM160.323 83.864C161.443 83.864 162.47 83.7333 163.403 83.472C164.336 83.2107 165.139 82.8373 165.811 82.352C166.483 81.8667 167.006 81.3067 167.379 80.672C167.752 80.0373 167.939 79.3467 167.939 78.6V73.84H162.003C159.427 73.84 157.542 74.2133 156.347 74.96C155.19 75.7067 154.611 76.7893 154.611 78.208V79.384C154.611 80.8027 155.115 81.904 156.123 82.688C157.168 83.472 158.568 83.864 160.323 83.864Z" fill="white"/>
<path d="M182.677 58.104H197.237C199.589 58.104 201.437 58.776 202.781 60.12C204.125 61.4267 204.797 63.2 204.797 65.44C204.797 69.0613 202.912 71.096 199.141 71.544V71.768C201.381 71.9547 203.043 72.664 204.125 73.896C205.245 75.0907 205.805 76.584 205.805 78.376C205.805 79.5333 205.619 80.6347 205.245 81.68C204.909 82.7253 204.405 83.64 203.733 84.424C203.061 85.208 202.24 85.8427 201.269 86.328C200.299 86.776 199.197 87 197.965 87H182.677V58.104ZM196.621 83.304C197.965 83.304 199.029 82.9493 199.813 82.24C200.597 81.5307 200.989 80.5227 200.989 79.216V77.928C200.989 76.6213 200.597 75.6133 199.813 74.904C199.029 74.1947 197.965 73.84 196.621 73.84H187.157V83.304H196.621ZM196.061 70.2C197.293 70.2 198.245 69.9013 198.917 69.304C199.627 68.6693 199.981 67.7733 199.981 66.616V65.384C199.981 64.2267 199.627 63.3493 198.917 62.752C198.245 62.1173 197.293 61.8 196.061 61.8H187.157V70.2H196.061Z" fill="white"/>
<path d="M214.464 58.104H218.832V74.12L218.384 81.064H218.608L222.192 74.904L233.728 58.104H237.872V87H233.504V70.984L233.952 64.04H233.728L230.144 70.2L218.608 87H214.464V58.104Z" fill="white"/>
<path d="M254.162 62.024H244.306V58.104H268.498V62.024H258.642V87H254.162V62.024Z" fill="white"/>
<path d="M274.92 58.104H279.4V68.576H287.632C290.544 68.576 292.858 69.3973 294.576 71.04C296.293 72.6827 297.152 74.9413 297.152 77.816C297.152 80.728 296.312 82.9867 294.632 84.592C292.952 86.1973 290.637 87 287.688 87H274.92V58.104ZM287.016 83.08C288.696 83.08 290.002 82.7627 290.936 82.128C291.869 81.4933 292.336 80.4293 292.336 78.936V76.584C292.336 75.0907 291.869 74.0453 290.936 73.448C290.002 72.8133 288.696 72.496 287.016 72.496H279.4V83.08H287.016Z" fill="white"/>
<path d="M40.512 141.672C38.496 141.672 36.6853 141.317 35.08 140.608C33.4747 139.899 32.112 138.891 30.992 137.584C29.9093 136.277 29.0693 134.691 28.472 132.824C27.912 130.957 27.632 128.867 27.632 126.552C27.632 124.237 27.912 122.147 28.472 120.28C29.0693 118.413 29.9093 116.827 30.992 115.52C32.112 114.213 33.4747 113.205 35.08 112.496C36.6853 111.787 38.496 111.432 40.512 111.432C43.3867 111.432 45.6827 112.067 47.4 113.336C49.1547 114.568 50.4613 116.192 51.32 118.208L47.568 120.112C47.0453 118.619 46.1867 117.461 44.992 116.64C43.7973 115.819 42.304 115.408 40.512 115.408C39.168 115.408 37.992 115.632 36.984 116.08C35.976 116.491 35.136 117.088 34.464 117.872C33.792 118.619 33.288 119.533 32.952 120.616C32.616 121.661 32.448 122.819 32.448 124.088V129.016C32.448 131.555 33.12 133.645 34.464 135.288C35.8453 136.893 37.8613 137.696 40.512 137.696C44.1333 137.696 46.7467 136.016 48.352 132.656L51.6 134.84C50.6667 136.931 49.2667 138.592 47.4 139.824C45.5707 141.056 43.2747 141.672 40.512 141.672Z" fill="white"/>
<path d="M58.4841 112.104H81.0521V141H76.5721V116.024H62.9641V141H58.4841V112.104Z" fill="white"/>
<path d="M91.1456 112.104H95.5136V128.12L95.0656 135.064H95.2896L98.8736 128.904L110.41 112.104H114.554V141H110.186V124.984L110.634 118.04H110.41L106.826 124.2L95.2896 141H91.1456V112.104Z" fill="white"/>
<path d="M135.38 141.672C133.364 141.672 131.553 141.317 129.947 140.608C128.342 139.899 126.979 138.891 125.859 137.584C124.777 136.277 123.937 134.691 123.34 132.824C122.78 130.957 122.5 128.867 122.5 126.552C122.5 124.237 122.78 122.147 123.34 120.28C123.937 118.413 124.777 116.827 125.859 115.52C126.979 114.213 128.342 113.205 129.947 112.496C131.553 111.787 133.364 111.432 135.38 111.432C138.254 111.432 140.55 112.067 142.268 113.336C144.022 114.568 145.329 116.192 146.188 118.208L142.436 120.112C141.913 118.619 141.054 117.461 139.859 116.64C138.665 115.819 137.172 115.408 135.38 115.408C134.036 115.408 132.86 115.632 131.852 116.08C130.844 116.491 130.003 117.088 129.331 117.872C128.659 118.619 128.156 119.533 127.82 120.616C127.484 121.661 127.315 122.819 127.315 124.088V129.016C127.315 131.555 127.987 133.645 129.331 135.288C130.713 136.893 132.729 137.696 135.38 137.696C139.001 137.696 141.614 136.016 143.219 132.656L146.467 134.84C145.534 136.931 144.134 138.592 142.268 139.824C140.438 141.056 138.142 141.672 135.38 141.672Z" fill="white"/>
<path d="M163.943 141.672C162.002 141.672 160.229 141.317 158.623 140.608C157.018 139.899 155.637 138.891 154.479 137.584C153.359 136.24 152.482 134.653 151.847 132.824C151.213 130.957 150.895 128.867 150.895 126.552C150.895 124.275 151.213 122.203 151.847 120.336C152.482 118.469 153.359 116.883 154.479 115.576C155.637 114.232 157.018 113.205 158.623 112.496C160.229 111.787 162.002 111.432 163.943 111.432C165.885 111.432 167.639 111.787 169.207 112.496C170.813 113.205 172.194 114.232 173.351 115.576C174.509 116.883 175.405 118.469 176.039 120.336C176.674 122.203 176.991 124.275 176.991 126.552C176.991 128.867 176.674 130.957 176.039 132.824C175.405 134.653 174.509 136.24 173.351 137.584C172.194 138.891 170.813 139.899 169.207 140.608C167.639 141.317 165.885 141.672 163.943 141.672ZM163.943 137.696C166.37 137.696 168.349 136.949 169.879 135.456C171.41 133.963 172.175 131.685 172.175 128.624V124.48C172.175 121.419 171.41 119.141 169.879 117.648C168.349 116.155 166.37 115.408 163.943 115.408C161.517 115.408 159.538 116.155 158.007 117.648C156.477 119.141 155.711 121.419 155.711 124.48V128.624C155.711 131.685 156.477 133.963 158.007 135.456C159.538 136.949 161.517 137.696 163.943 137.696Z" fill="white"/>
<path d="M184.919 112.104H189.399V124.2H195.167L200.767 115.352C201.178 114.68 201.57 114.139 201.943 113.728C202.317 113.28 202.69 112.944 203.063 112.72C203.437 112.496 203.829 112.347 204.239 112.272C204.65 112.16 205.117 112.104 205.639 112.104H208.271V116.024H204.799L200.263 123.192C199.965 123.677 199.703 124.069 199.479 124.368C199.255 124.667 199.031 124.928 198.807 125.152C198.583 125.339 198.341 125.507 198.079 125.656C197.818 125.768 197.501 125.88 197.127 125.992V126.216C197.911 126.328 198.583 126.589 199.143 127C199.741 127.373 200.357 128.12 200.991 129.24L205.415 137.08H208.719V141H205.471C204.501 141 203.605 140.757 202.783 140.272C201.999 139.749 201.234 138.816 200.487 137.472L195.167 128.008H189.399V141H184.919V112.104Z" fill="white"/>
<path d="M238.239 141.672C235.289 141.672 232.937 141.168 231.183 140.16C229.428 139.152 227.991 137.715 226.871 135.848L230.231 133.16C230.977 134.579 232.004 135.699 233.311 136.52C234.655 137.304 236.297 137.696 238.239 137.696C240.591 137.696 242.327 137.267 243.447 136.408C244.604 135.549 245.183 134.448 245.183 133.104V132.432C245.183 130.976 244.679 129.875 243.671 129.128C242.7 128.344 241.319 127.952 239.527 127.952H233.367V124.2H238.967C240.759 124.2 242.14 123.845 243.111 123.136C244.081 122.427 244.567 121.419 244.567 120.112V119.44C244.567 118.208 244.063 117.237 243.055 116.528C242.084 115.781 240.441 115.408 238.127 115.408C236.223 115.408 234.655 115.8 233.423 116.584C232.191 117.331 231.201 118.357 230.455 119.664L227.487 117.144C228.383 115.464 229.689 114.101 231.407 113.056C233.161 111.973 235.476 111.432 238.351 111.432C242.121 111.432 244.903 112.123 246.695 113.504C248.487 114.885 249.383 116.789 249.383 119.216C249.383 121.008 248.897 122.427 247.927 123.472C246.993 124.517 245.631 125.245 243.839 125.656V125.88C245.892 126.179 247.423 126.925 248.431 128.12C249.476 129.277 249.999 130.771 249.999 132.6C249.999 135.4 248.935 137.621 246.807 139.264C244.716 140.869 241.86 141.672 238.239 141.672Z" fill="white"/>
<path d="M279.404 141C277.724 141 276.511 140.552 275.764 139.656C275.055 138.76 274.607 137.64 274.42 136.296H274.14C273.505 138.088 272.46 139.432 271.004 140.328C269.548 141.224 267.812 141.672 265.796 141.672C262.735 141.672 260.345 140.888 258.628 139.32C256.948 137.752 256.108 135.624 256.108 132.936C256.108 130.211 257.097 128.12 259.076 126.664C261.092 125.208 264.209 124.48 268.428 124.48H274.14V121.624C274.14 119.571 273.58 118.003 272.46 116.92C271.34 115.837 269.623 115.296 267.308 115.296C265.553 115.296 264.079 115.688 262.884 116.472C261.727 117.256 260.756 118.301 259.972 119.608L257.284 117.088C258.068 115.52 259.319 114.195 261.036 113.112C262.753 111.992 264.919 111.432 267.532 111.432C271.041 111.432 273.767 112.291 275.708 114.008C277.649 115.725 278.62 118.115 278.62 121.176V137.08H281.924V141H279.404ZM266.524 137.864C267.644 137.864 268.671 137.733 269.604 137.472C270.537 137.211 271.34 136.837 272.012 136.352C272.684 135.867 273.207 135.307 273.58 134.672C273.953 134.037 274.14 133.347 274.14 132.6V127.84H268.204C265.628 127.84 263.743 128.213 262.548 128.96C261.391 129.707 260.812 130.789 260.812 132.208V133.384C260.812 134.803 261.316 135.904 262.324 136.688C263.369 137.472 264.769 137.864 266.524 137.864Z" fill="white"/>
<path d="M285.879 137.08H289.183C290.34 135.213 291.273 132.88 291.983 130.08C292.692 127.28 293.047 124.069 293.047 120.448V112.104H312.591V137.08H317.407V148.84H313.319V141H289.967V148.84H285.879V137.08ZM308.111 137.08V116.024H297.303V120.672C297.303 124.517 296.967 127.803 296.295 130.528C295.66 133.216 294.895 135.4 293.999 137.08H308.111Z" fill="white"/>
<path d="M345.165 141C343.485 141 342.271 140.552 341.525 139.656C340.815 138.76 340.367 137.64 340.181 136.296H339.901C339.266 138.088 338.221 139.432 336.765 140.328C335.309 141.224 333.573 141.672 331.557 141.672C328.495 141.672 326.106 140.888 324.389 139.32C322.709 137.752 321.869 135.624 321.869 132.936C321.869 130.211 322.858 128.12 324.837 126.664C326.853 125.208 329.97 124.48 334.189 124.48H339.901V121.624C339.901 119.571 339.341 118.003 338.221 116.92C337.101 115.837 335.383 115.296 333.069 115.296C331.314 115.296 329.839 115.688 328.645 116.472C327.487 117.256 326.517 118.301 325.733 119.608L323.045 117.088C323.829 115.52 325.079 114.195 326.797 113.112C328.514 111.992 330.679 111.432 333.293 111.432C336.802 111.432 339.527 112.291 341.469 114.008C343.41 115.725 344.381 118.115 344.381 121.176V137.08H347.685V141H345.165ZM332.285 137.864C333.405 137.864 334.431 137.733 335.365 137.472C336.298 137.211 337.101 136.837 337.773 136.352C338.445 135.867 338.967 135.307 339.341 134.672C339.714 134.037 339.901 133.347 339.901 132.6V127.84H333.965C331.389 127.84 329.503 128.213 328.309 128.96C327.151 129.707 326.573 130.789 326.573 132.208V133.384C326.573 134.803 327.077 135.904 328.085 136.688C329.13 137.472 330.53 137.864 332.285 137.864Z" fill="white"/>
<path d="M370.165 127.728H369.885C368.989 128.736 367.888 129.576 366.581 130.248C365.275 130.883 363.557 131.2 361.429 131.2C358.48 131.2 356.184 130.472 354.541 129.016C352.899 127.523 352.077 125.283 352.077 122.296V112.104H356.557V121.904C356.557 125.413 358.629 127.168 362.773 127.168C364.901 127.168 366.656 126.888 368.037 126.328C369.456 125.731 370.165 124.835 370.165 123.64V112.104H374.645V141H370.165V127.728Z" fill="white"/>
<path d="M29.76 166.104H52.328V195H47.848V170.024H34.24V195H29.76V166.104Z" fill="white"/>
<path d="M73.3416 195.672C71.4002 195.672 69.6269 195.317 68.0216 194.608C66.4162 193.899 65.0349 192.891 63.8776 191.584C62.7576 190.24 61.8802 188.653 61.2456 186.824C60.6109 184.957 60.2936 182.867 60.2936 180.552C60.2936 178.275 60.6109 176.203 61.2456 174.336C61.8802 172.469 62.7576 170.883 63.8776 169.576C65.0349 168.232 66.4162 167.205 68.0216 166.496C69.6269 165.787 71.4002 165.432 73.3416 165.432C75.2829 165.432 77.0376 165.787 78.6056 166.496C80.2109 167.205 81.5922 168.232 82.7496 169.576C83.9069 170.883 84.8029 172.469 85.4376 174.336C86.0722 176.203 86.3896 178.275 86.3896 180.552C86.3896 182.867 86.0722 184.957 85.4376 186.824C84.8029 188.653 83.9069 190.24 82.7496 191.584C81.5922 192.891 80.2109 193.899 78.6056 194.608C77.0376 195.317 75.2829 195.672 73.3416 195.672ZM73.3416 191.696C75.7682 191.696 77.7469 190.949 79.2776 189.456C80.8082 187.963 81.5736 185.685 81.5736 182.624V178.48C81.5736 175.419 80.8082 173.141 79.2776 171.648C77.7469 170.155 75.7682 169.408 73.3416 169.408C70.9149 169.408 68.9362 170.155 67.4056 171.648C65.8749 173.141 65.1096 175.419 65.1096 178.48V182.624C65.1096 185.685 65.8749 187.963 67.4056 189.456C68.9362 190.949 70.9149 191.696 73.3416 191.696Z" fill="white"/>
<path d="M108.112 166.104H130.68V195H126.2V170.024H112.592V195H108.112V166.104Z" fill="white"/>
<path d="M140.773 166.104H145.253V170.808H145.477C146.224 168.979 147.307 167.635 148.725 166.776C150.181 165.88 151.917 165.432 153.933 165.432C155.725 165.432 157.349 165.787 158.805 166.496C160.261 167.205 161.493 168.213 162.501 169.52C163.547 170.827 164.331 172.413 164.853 174.28C165.413 176.147 165.693 178.237 165.693 180.552C165.693 182.867 165.413 184.957 164.853 186.824C164.331 188.691 163.547 190.277 162.501 191.584C161.493 192.891 160.261 193.899 158.805 194.608C157.349 195.317 155.725 195.672 153.933 195.672C150.013 195.672 147.195 193.88 145.477 190.296H145.253V206.2H140.773V166.104ZM152.701 191.64C155.24 191.64 157.237 190.856 158.693 189.288C160.149 187.683 160.877 185.592 160.877 183.016V178.088C160.877 175.512 160.149 173.44 158.693 171.872C157.237 170.267 155.24 169.464 152.701 169.464C151.693 169.464 150.723 169.613 149.789 169.912C148.893 170.173 148.109 170.547 147.437 171.032C146.765 171.517 146.224 172.115 145.813 172.824C145.44 173.496 145.253 174.224 145.253 175.008V185.76C145.253 186.693 145.44 187.533 145.813 188.28C146.224 188.989 146.765 189.605 147.437 190.128C148.109 190.613 148.893 190.987 149.789 191.248C150.723 191.509 151.693 191.64 152.701 191.64Z" fill="white"/>
<path d="M184.738 195.672C182.796 195.672 181.023 195.317 179.418 194.608C177.812 193.899 176.431 192.891 175.274 191.584C174.154 190.24 173.276 188.653 172.642 186.824C172.007 184.957 171.69 182.867 171.69 180.552C171.69 178.275 172.007 176.203 172.642 174.336C173.276 172.469 174.154 170.883 175.274 169.576C176.431 168.232 177.812 167.205 179.418 166.496C181.023 165.787 182.796 165.432 184.738 165.432C186.679 165.432 188.434 165.787 190.002 166.496C191.607 167.205 192.988 168.232 194.146 169.576C195.303 170.883 196.199 172.469 196.834 174.336C197.468 176.203 197.786 178.275 197.786 180.552C197.786 182.867 197.468 184.957 196.834 186.824C196.199 188.653 195.303 190.24 194.146 191.584C192.988 192.891 191.607 193.899 190.002 194.608C188.434 195.317 186.679 195.672 184.738 195.672ZM184.738 191.696C187.164 191.696 189.143 190.949 190.674 189.456C192.204 187.963 192.97 185.685 192.97 182.624V178.48C192.97 175.419 192.204 173.141 190.674 171.648C189.143 170.155 187.164 169.408 184.738 169.408C182.311 169.408 180.332 170.155 178.802 171.648C177.271 173.141 176.506 175.419 176.506 178.48V182.624C176.506 185.685 177.271 187.963 178.802 189.456C180.332 190.949 182.311 191.696 184.738 191.696Z" fill="white"/>
<path d="M216.578 195.672C214.599 195.672 212.807 195.317 211.202 194.608C209.634 193.899 208.271 192.891 207.114 191.584C205.994 190.24 205.116 188.653 204.482 186.824C203.884 184.957 203.586 182.867 203.586 180.552C203.586 178.275 203.884 176.203 204.482 174.336C205.116 172.469 205.994 170.883 207.114 169.576C208.271 168.232 209.634 167.205 211.202 166.496C212.807 165.787 214.599 165.432 216.578 165.432C218.519 165.432 220.255 165.787 221.786 166.496C223.316 167.205 224.623 168.195 225.706 169.464C226.788 170.696 227.61 172.171 228.17 173.888C228.767 175.605 229.066 177.491 229.066 179.544V181.672H208.29V183.016C208.29 184.248 208.476 185.405 208.85 186.488C209.26 187.533 209.82 188.448 210.53 189.232C211.276 190.016 212.172 190.632 213.218 191.08C214.3 191.528 215.514 191.752 216.858 191.752C218.687 191.752 220.274 191.323 221.618 190.464C222.999 189.605 224.063 188.373 224.81 186.768L228.002 189.064C227.068 191.043 225.612 192.648 223.634 193.88C221.655 195.075 219.303 195.672 216.578 195.672ZM216.578 169.184C215.346 169.184 214.226 169.408 213.218 169.856C212.21 170.267 211.332 170.864 210.586 171.648C209.876 172.432 209.316 173.365 208.906 174.448C208.495 175.493 208.29 176.651 208.29 177.92V178.312H224.25V177.696C224.25 175.12 223.54 173.067 222.122 171.536C220.74 169.968 218.892 169.184 216.578 169.184Z" fill="white"/>
<path d="M237.008 166.104H241.488V178.2H247.256L252.856 169.352C253.267 168.68 253.659 168.139 254.032 167.728C254.405 167.28 254.779 166.944 255.152 166.72C255.525 166.496 255.917 166.347 256.328 166.272C256.739 166.16 257.205 166.104 257.728 166.104H260.36V170.024H256.888L252.352 177.192C252.053 177.677 251.792 178.069 251.568 178.368C251.344 178.667 251.12 178.928 250.896 179.152C250.672 179.339 250.429 179.507 250.168 179.656C249.907 179.768 249.589 179.88 249.216 179.992V180.216C250 180.328 250.672 180.589 251.232 181C251.829 181.373 252.445 182.12 253.08 183.24L257.504 191.08H260.808V195H257.56C256.589 195 255.693 194.757 254.872 194.272C254.088 193.749 253.323 192.816 252.576 191.472L247.256 182.008H241.488V195H237.008V166.104Z" fill="white"/>
<path d="M274.573 170.024H264.717V166.104H288.909V170.024H279.053V195H274.573V170.024Z" fill="white"/>
<path d="M295.331 166.104H299.699V182.12L299.251 189.064H299.475L303.059 182.904L314.595 166.104H318.739V195H314.371V178.984L314.819 172.04H314.595L311.011 178.2L299.475 195H295.331V166.104Z" fill="white"/>
<path d="M328.813 166.104H333.293V170.808H333.517C334.264 168.979 335.346 167.635 336.765 166.776C338.221 165.88 339.957 165.432 341.973 165.432C343.765 165.432 345.389 165.787 346.845 166.496C348.301 167.205 349.533 168.213 350.541 169.52C351.586 170.827 352.37 172.413 352.893 174.28C353.453 176.147 353.733 178.237 353.733 180.552C353.733 182.867 353.453 184.957 352.893 186.824C352.37 188.691 351.586 190.277 350.541 191.584C349.533 192.891 348.301 193.899 346.845 194.608C345.389 195.317 343.765 195.672 341.973 195.672C338.053 195.672 335.234 193.88 333.517 190.296H333.293V206.2H328.813V166.104ZM340.741 191.64C343.28 191.64 345.277 190.856 346.733 189.288C348.189 187.683 348.917 185.592 348.917 183.016V178.088C348.917 175.512 348.189 173.44 346.733 171.872C345.277 170.267 343.28 169.464 340.741 169.464C339.733 169.464 338.762 169.613 337.829 169.912C336.933 170.173 336.149 170.547 335.477 171.032C334.805 171.517 334.264 172.115 333.853 172.824C333.48 173.496 333.293 174.224 333.293 175.008V185.76C333.293 186.693 333.48 187.533 333.853 188.28C334.264 188.989 334.805 189.605 335.477 190.128C336.149 190.613 336.933 190.987 337.829 191.248C338.762 191.509 339.733 191.64 340.741 191.64Z" fill="white"/>
<path d="M372.777 195.672C370.836 195.672 369.063 195.317 367.457 194.608C365.852 193.899 364.471 192.891 363.314 191.584C362.194 190.24 361.316 188.653 360.682 186.824C360.047 184.957 359.729 182.867 359.729 180.552C359.729 178.275 360.047 176.203 360.682 174.336C361.316 172.469 362.194 170.883 363.314 169.576C364.471 168.232 365.852 167.205 367.457 166.496C369.063 165.787 370.836 165.432 372.777 165.432C374.719 165.432 376.474 165.787 378.042 166.496C379.647 167.205 381.028 168.232 382.186 169.576C383.343 170.883 384.239 172.469 384.874 174.336C385.508 176.203 385.826 178.275 385.826 180.552C385.826 182.867 385.508 184.957 384.874 186.824C384.239 188.653 383.343 190.24 382.186 191.584C381.028 192.891 379.647 193.899 378.042 194.608C376.474 195.317 374.719 195.672 372.777 195.672ZM372.777 191.696C375.204 191.696 377.183 190.949 378.714 189.456C380.244 187.963 381.009 185.685 381.009 182.624V178.48C381.009 175.419 380.244 173.141 378.714 171.648C377.183 170.155 375.204 169.408 372.777 169.408C370.351 169.408 368.372 170.155 366.841 171.648C365.311 173.141 364.546 175.419 364.546 178.48V182.624C364.546 185.685 365.311 187.963 366.841 189.456C368.372 190.949 370.351 191.696 372.777 191.696Z" fill="white"/>
<path d="M393.753 166.104H408.313C410.665 166.104 412.513 166.776 413.857 168.12C415.201 169.427 415.873 171.2 415.873 173.44C415.873 177.061 413.988 179.096 410.217 179.544V179.768C412.457 179.955 414.119 180.664 415.201 181.896C416.321 183.091 416.881 184.584 416.881 186.376C416.881 187.533 416.695 188.635 416.321 189.68C415.985 190.725 415.481 191.64 414.809 192.424C414.137 193.208 413.316 193.843 412.345 194.328C411.375 194.776 410.273 195 409.041 195H393.753V166.104ZM407.697 191.304C409.041 191.304 410.105 190.949 410.889 190.24C411.673 189.531 412.065 188.523 412.065 187.216V185.928C412.065 184.621 411.673 183.613 410.889 182.904C410.105 182.195 409.041 181.84 407.697 181.84H398.233V191.304H407.697ZM407.137 178.2C408.369 178.2 409.321 177.901 409.993 177.304C410.703 176.669 411.057 175.773 411.057 174.616V173.384C411.057 172.227 410.703 171.349 409.993 170.752C409.321 170.117 408.369 169.8 407.137 169.8H398.233V178.2H407.137Z" fill="white"/>
<path d="M446.267 195C444.587 195 443.373 194.552 442.627 193.656C441.917 192.76 441.469 191.64 441.283 190.296H441.003C440.368 192.088 439.323 193.432 437.867 194.328C436.411 195.224 434.675 195.672 432.659 195.672C429.597 195.672 427.208 194.888 425.491 193.32C423.811 191.752 422.971 189.624 422.971 186.936C422.971 184.211 423.96 182.12 425.939 180.664C427.955 179.208 431.072 178.48 435.291 178.48H441.003V175.624C441.003 173.571 440.443 172.003 439.323 170.92C438.203 169.837 436.485 169.296 434.171 169.296C432.416 169.296 430.941 169.688 429.747 170.472C428.589 171.256 427.619 172.301 426.835 173.608L424.147 171.088C424.931 169.52 426.181 168.195 427.899 167.112C429.616 165.992 431.781 165.432 434.395 165.432C437.904 165.432 440.629 166.291 442.571 168.008C444.512 169.725 445.483 172.115 445.483 175.176V191.08H448.787V195H446.267ZM433.387 191.864C434.507 191.864 435.533 191.733 436.467 191.472C437.4 191.211 438.203 190.837 438.875 190.352C439.547 189.867 440.069 189.307 440.443 188.672C440.816 188.037 441.003 187.347 441.003 186.6V181.84H435.067C432.491 181.84 430.605 182.213 429.411 182.96C428.253 183.707 427.675 184.789 427.675 186.208V187.384C427.675 188.803 428.179 189.904 429.187 190.688C430.232 191.472 431.632 191.864 433.387 191.864Z" fill="white"/>
<path d="M455.741 166.104H460.221V178.144H474.669V166.104H479.149V195H474.669V182.064H460.221V195H455.741V166.104Z" fill="white"/>
<path d="M489.223 166.104H493.59V182.12L493.142 189.064H493.366L496.951 182.904L508.486 166.104H512.63V195H508.262V178.984L508.711 172.04H508.486L504.902 178.2L493.366 195H489.223V166.104Z" fill="white"/>
<path d="M546.392 195.672C542.734 195.672 539.766 194.477 537.488 192.088C535.248 189.699 533.998 186.339 533.736 182.008H527.184V195H522.704V166.104H527.184V178.2H533.848C534.222 174.131 535.51 170.995 537.712 168.792C539.952 166.552 542.846 165.432 546.392 165.432C548.296 165.432 550.032 165.787 551.6 166.496C553.168 167.168 554.494 168.157 555.576 169.464C556.696 170.733 557.555 172.301 558.152 174.168C558.75 176.035 559.048 178.163 559.048 180.552C559.048 182.941 558.75 185.069 558.152 186.936C557.555 188.803 556.696 190.389 555.576 191.696C554.494 192.965 553.168 193.955 551.6 194.664C550.032 195.336 548.296 195.672 546.392 195.672ZM546.392 191.696C548.782 191.696 550.686 190.987 552.104 189.568C553.523 188.149 554.232 185.835 554.232 182.624V178.48C554.232 175.269 553.523 172.955 552.104 171.536C550.686 170.117 548.782 169.408 546.392 169.408C544.003 169.408 542.099 170.117 540.68 171.536C539.262 172.955 538.552 175.269 538.552 178.48V182.624C538.552 185.835 539.262 188.149 540.68 189.568C542.099 190.987 544.003 191.696 546.392 191.696Z" fill="white"/>
<path d="M29.76 220.104H34.128V236.12L33.68 243.064H33.904L37.488 236.904L49.024 220.104H53.168V249H48.8V232.984L49.248 226.04H49.024L45.44 232.2L33.904 249H29.76V220.104Z" fill="white"/>
<path d="M63.2419 220.104H67.7219V232.144H82.1699V220.104H86.6499V249H82.1699V236.064H67.7219V249H63.2419V220.104Z" fill="white"/>
<path d="M102.94 224.024H93.0838V220.104H117.276V224.024H107.42V249H102.94V224.024Z" fill="white"/>
<path d="M133.851 249.672C131.872 249.672 130.08 249.317 128.475 248.608C126.907 247.899 125.544 246.891 124.387 245.584C123.267 244.24 122.39 242.653 121.755 240.824C121.158 238.957 120.859 236.867 120.859 234.552C120.859 232.275 121.158 230.203 121.755 228.336C122.39 226.469 123.267 224.883 124.387 223.576C125.544 222.232 126.907 221.205 128.475 220.496C130.08 219.787 131.872 219.432 133.851 219.432C135.792 219.432 137.528 219.787 139.059 220.496C140.59 221.205 141.896 222.195 142.979 223.464C144.062 224.696 144.883 226.171 145.443 227.888C146.04 229.605 146.339 231.491 146.339 233.544V235.672H125.563V237.016C125.563 238.248 125.75 239.405 126.123 240.488C126.534 241.533 127.094 242.448 127.803 243.232C128.55 244.016 129.446 244.632 130.491 245.08C131.574 245.528 132.787 245.752 134.131 245.752C135.96 245.752 137.547 245.323 138.891 244.464C140.272 243.605 141.336 242.373 142.083 240.768L145.275 243.064C144.342 245.043 142.886 246.648 140.907 247.88C138.928 249.075 136.576 249.672 133.851 249.672ZM133.851 223.184C132.619 223.184 131.499 223.408 130.491 223.856C129.483 224.267 128.606 224.864 127.859 225.648C127.15 226.432 126.59 227.365 126.179 228.448C125.768 229.493 125.563 230.651 125.563 231.92V232.312H141.523V231.696C141.523 229.12 140.814 227.067 139.395 225.536C138.014 223.968 136.166 223.184 133.851 223.184Z" fill="white"/>
<path d="M154.281 220.104H158.761V224.808H158.985C159.732 222.979 160.815 221.635 162.233 220.776C163.689 219.88 165.425 219.432 167.441 219.432C169.233 219.432 170.857 219.787 172.313 220.496C173.769 221.205 175.001 222.213 176.009 223.52C177.055 224.827 177.839 226.413 178.361 228.28C178.921 230.147 179.201 232.237 179.201 234.552C179.201 236.867 178.921 238.957 178.361 240.824C177.839 242.691 177.055 244.277 176.009 245.584C175.001 246.891 173.769 247.899 172.313 248.608C170.857 249.317 169.233 249.672 167.441 249.672C163.521 249.672 160.703 247.88 158.985 244.296H158.761V260.2H154.281V220.104ZM166.209 245.64C168.748 245.64 170.745 244.856 172.201 243.288C173.657 241.683 174.385 239.592 174.385 237.016V232.088C174.385 229.512 173.657 227.44 172.201 225.872C170.745 224.267 168.748 223.464 166.209 223.464C165.201 223.464 164.231 223.613 163.297 223.912C162.401 224.173 161.617 224.547 160.945 225.032C160.273 225.517 159.732 226.115 159.321 226.824C158.948 227.496 158.761 228.224 158.761 229.008V239.76C158.761 240.693 158.948 241.533 159.321 242.28C159.732 242.989 160.273 243.605 160.945 244.128C161.617 244.613 162.401 244.987 163.297 245.248C164.231 245.509 165.201 245.64 166.209 245.64Z" fill="white"/>
<path d="M201.326 245.976H201.158C200.411 247.096 199.552 247.992 198.582 248.664C197.611 249.336 196.416 249.672 194.998 249.672C191.75 249.672 189.342 248.459 187.774 246.032C186.206 243.568 185.422 239.741 185.422 234.552C185.422 229.363 186.206 225.555 187.774 223.128C189.342 220.664 191.75 219.432 194.998 219.432C196.416 219.432 197.611 219.768 198.582 220.44C199.552 221.112 200.411 222.008 201.158 223.128H201.326V209.24H205.806V223.128H205.974C206.72 222.008 207.579 221.112 208.55 220.44C209.52 219.768 210.715 219.432 212.134 219.432C215.382 219.432 217.79 220.664 219.358 223.128C220.926 225.555 221.71 229.363 221.71 234.552C221.71 239.741 220.926 243.568 219.358 246.032C217.79 248.459 215.382 249.672 212.134 249.672C210.715 249.672 209.52 249.336 208.55 248.664C207.579 247.992 206.72 247.096 205.974 245.976H205.806V260.2H201.326V245.976ZM196.174 245.696C199.646 245.696 201.382 244.389 201.382 241.776V227.328C201.382 224.715 199.646 223.408 196.174 223.408C194.083 223.408 192.571 224.08 191.638 225.424C190.704 226.731 190.238 228.952 190.238 232.088V237.016C190.238 240.152 190.704 242.392 191.638 243.736C192.571 245.043 194.083 245.696 196.174 245.696ZM210.958 245.696C213.011 245.696 214.504 245.043 215.438 243.736C216.408 242.392 216.894 240.152 216.894 237.016V232.088C216.894 228.952 216.408 226.731 215.438 225.424C214.504 224.08 213.011 223.408 210.958 223.408C207.486 223.408 205.75 224.715 205.75 227.328V241.776C205.75 244.389 207.486 245.696 210.958 245.696Z" fill="white"/>
<path d="M240.859 249.672C238.88 249.672 237.088 249.317 235.483 248.608C233.915 247.899 232.552 246.891 231.395 245.584C230.275 244.24 229.398 242.653 228.763 240.824C228.166 238.957 227.867 236.867 227.867 234.552C227.867 232.275 228.166 230.203 228.763 228.336C229.398 226.469 230.275 224.883 231.395 223.576C232.552 222.232 233.915 221.205 235.483 220.496C237.088 219.787 238.88 219.432 240.859 219.432C242.8 219.432 244.536 219.787 246.067 220.496C247.598 221.205 248.904 222.195 249.987 223.464C251.07 224.696 251.891 226.171 252.451 227.888C253.048 229.605 253.347 231.491 253.347 233.544V235.672H232.571V237.016C232.571 238.248 232.758 239.405 233.131 240.488C233.542 241.533 234.102 242.448 234.811 243.232C235.558 244.016 236.454 244.632 237.499 245.08C238.582 245.528 239.795 245.752 241.139 245.752C242.968 245.752 244.555 245.323 245.899 244.464C247.28 243.605 248.344 242.373 249.091 240.768L252.283 243.064C251.35 245.043 249.894 246.648 247.915 247.88C245.936 249.075 243.584 249.672 240.859 249.672ZM240.859 223.184C239.627 223.184 238.507 223.408 237.499 223.856C236.491 224.267 235.614 224.864 234.867 225.648C234.158 226.432 233.598 227.365 233.187 228.448C232.776 229.493 232.571 230.651 232.571 231.92V232.312H248.531V231.696C248.531 229.12 247.822 227.067 246.403 225.536C245.022 223.968 243.174 223.184 240.859 223.184Z" fill="white"/>
<path d="M261.289 220.104H265.657V236.12L265.209 243.064H265.433L269.017 236.904L280.553 220.104H284.697V249H280.329V232.984L280.777 226.04H280.553L276.969 232.2L265.433 249H261.289V220.104ZM273.105 215.624C271.089 215.624 269.484 215.232 268.289 214.448C267.095 213.627 266.143 212.563 265.433 211.256L264.313 209.128L268.233 207.392L270.193 211.984C270.641 212.096 271.127 212.189 271.649 212.264C272.172 212.301 272.657 212.32 273.105 212.32C273.553 212.32 274.039 212.301 274.561 212.264C275.084 212.189 275.569 212.096 276.017 211.984L277.977 207.392L281.897 209.128L280.777 211.256C280.068 212.563 279.116 213.627 277.921 214.448C276.727 215.232 275.121 215.624 273.105 215.624Z" fill="white"/>
<path d="M305.523 249.672C303.507 249.672 301.697 249.317 300.091 248.608C298.486 247.899 297.123 246.891 296.003 245.584C294.921 244.277 294.081 242.691 293.483 240.824C292.923 238.957 292.643 236.867 292.643 234.552C292.643 232.237 292.923 230.147 293.483 228.28C294.081 226.413 294.921 224.827 296.003 223.52C297.123 222.213 298.486 221.205 300.091 220.496C301.697 219.787 303.507 219.432 305.523 219.432C308.398 219.432 310.694 220.067 312.411 221.336C314.166 222.568 315.473 224.192 316.331 226.208L312.579 228.112C312.057 226.619 311.198 225.461 310.003 224.64C308.809 223.819 307.315 223.408 305.523 223.408C304.179 223.408 303.003 223.632 301.995 224.08C300.987 224.491 300.147 225.088 299.475 225.872C298.803 226.619 298.299 227.533 297.963 228.616C297.627 229.661 297.459 230.819 297.459 232.088V237.016C297.459 239.555 298.131 241.645 299.475 243.288C300.857 244.893 302.873 245.696 305.523 245.696C309.145 245.696 311.758 244.016 313.363 240.656L316.611 242.84C315.678 244.931 314.278 246.592 312.411 247.824C310.582 249.056 308.286 249.672 305.523 249.672Z" fill="white"/>
<path d="M344.495 249C342.815 249 341.602 248.552 340.855 247.656C340.146 246.76 339.698 245.64 339.511 244.296H339.231C338.597 246.088 337.551 247.432 336.095 248.328C334.639 249.224 332.903 249.672 330.887 249.672C327.826 249.672 325.437 248.888 323.719 247.32C322.039 245.752 321.199 243.624 321.199 240.936C321.199 238.211 322.189 236.12 324.167 234.664C326.183 233.208 329.301 232.48 333.519 232.48H339.231V229.624C339.231 227.571 338.671 226.003 337.551 224.92C336.431 223.837 334.714 223.296 332.399 223.296C330.645 223.296 329.17 223.688 327.975 224.472C326.818 225.256 325.847 226.301 325.063 227.608L322.375 225.088C323.159 223.52 324.41 222.195 326.127 221.112C327.845 219.992 330.01 219.432 332.623 219.432C336.133 219.432 338.858 220.291 340.799 222.008C342.741 223.725 343.711 226.115 343.711 229.176V245.08H347.015V249H344.495ZM331.615 245.864C332.735 245.864 333.762 245.733 334.695 245.472C335.629 245.211 336.431 244.837 337.103 244.352C337.775 243.867 338.298 243.307 338.671 242.672C339.045 242.037 339.231 241.347 339.231 240.6V235.84H333.295C330.719 235.84 328.834 236.213 327.639 236.96C326.482 237.707 325.903 238.789 325.903 240.208V241.384C325.903 242.803 326.407 243.904 327.415 244.688C328.461 245.472 329.861 245.864 331.615 245.864Z" fill="white"/>
</svg>
