<svg width="750" height="365" viewBox="0 0 750 365" fill="none" xmlns="http://www.w3.org/2000/svg">
<path d="M8.75 325.158V286H0V334H25V325.158H8.75Z" fill="black"/>
<path d="M8.75 8.8421V48H0V0H25V8.8421H8.75Z" fill="black"/>
<path d="M720.25 8.8421V48H729V0H704V8.8421H720.25Z" fill="black"/>
<path d="M66.32 135.1C68.9999 133.821 71.2484 131.788 72.79 129.25C74.3703 126.52 75.1598 123.403 75.07 120.25C75.1474 117.136 74.3581 114.062 72.79 111.37C71.2526 108.836 69.0021 106.812 66.32 105.55C63.2411 104.12 59.874 103.418 56.48 103.5H48.25V93.62H73V82.72H36.74V137.18H56.48C59.8772 137.262 63.2467 136.55 66.32 135.1ZM48.25 113.9H56.55C58.4162 113.781 60.2597 114.362 61.72 115.53C62.3437 116.108 62.832 116.816 63.1501 117.604C63.4682 118.392 63.6081 119.241 63.56 120.09C63.613 120.95 63.4756 121.81 63.1575 122.611C62.8395 123.411 62.3486 124.131 61.72 124.72C60.2611 125.892 58.4175 126.476 56.55 126.36H48.25V113.9Z" fill="black"/>
<path d="M106.94 121.25L110.4 137.18H122L109.72 82.72H90.53L78.27 137.18H89.1L92.6 121.25H106.94ZM100.4 91.1L104.58 110.36H95L99.24 91.1H100.4Z" fill="black"/>
<path d="M162.4 131C164.031 128.554 164.875 125.669 164.82 122.73C164.919 119.874 164.226 117.047 162.82 114.56C161.544 112.359 159.516 110.694 157.11 109.87V108.37C159.477 107.641 161.542 106.16 162.99 104.15C164.434 102.105 165.187 99.6528 165.14 97.15C165.2 94.2349 164.37 91.3708 162.76 88.94C161.089 86.541 158.792 84.6457 156.12 83.46C153.005 82.0812 149.626 81.3987 146.22 81.46C142.433 81.3537 138.672 82.1094 135.22 83.67C132.269 85.0609 129.803 87.304 128.14 90.11C126.369 93.2476 125.41 96.7777 125.35 100.38H136.1C136.476 97.9212 137.662 95.6583 139.47 93.95C141.3 92.4616 143.614 91.6997 145.97 91.81C147.999 91.7142 149.994 92.3533 151.59 93.61C152.279 94.1713 152.831 94.8832 153.202 95.6911C153.573 96.499 153.754 97.3813 153.73 98.27C153.777 99.144 153.626 100.017 153.291 100.825C152.955 101.634 152.442 102.356 151.79 102.94C150.224 104.137 148.277 104.727 146.31 104.6H140.12V114.54H146.12C147.085 114.476 148.054 114.603 148.97 114.913C149.886 115.224 150.733 115.712 151.46 116.35C152.107 117.019 152.608 117.815 152.93 118.688C153.252 119.561 153.388 120.491 153.33 121.42C153.375 122.652 153.053 123.87 152.405 124.918C151.757 125.967 150.812 126.799 149.69 127.31C148.437 127.889 147.07 128.18 145.69 128.16C143.451 128.28 141.246 127.567 139.5 126.16C137.83 124.598 136.726 122.527 136.36 120.27H125.61C125.634 123.733 126.547 127.131 128.26 130.14C129.895 132.855 132.3 135.024 135.17 136.37C138.514 137.876 142.154 138.608 145.82 138.51C149.23 138.572 152.612 137.89 155.73 136.51C158.417 135.321 160.725 133.414 162.4 131Z" fill="black"/>
<path d="M183.13 121.25H197.47L200.93 137.18H212.5L200.25 82.72H181.05L168.8 137.18H179.62L183.13 121.25ZM190.92 91.1L195.1 110.36H185.52L189.76 91.1H190.92Z" fill="black"/>
<path d="M248.68 136.33C252.024 137.836 255.664 138.568 259.33 138.47C262.736 138.534 266.115 137.851 269.23 136.47C271.912 135.292 274.219 133.4 275.9 131C277.531 128.554 278.375 125.669 278.32 122.73C278.414 119.875 277.722 117.049 276.32 114.56C275.04 112.359 273.009 110.693 270.6 109.87V108.37C272.972 107.645 275.04 106.162 276.49 104.15C277.931 102.104 278.681 99.6518 278.63 97.15C278.695 94.2343 277.864 91.3689 276.25 88.94C274.579 86.541 272.282 84.6457 269.61 83.46C266.495 82.0791 263.116 81.3964 259.71 81.46C255.923 81.3537 252.162 82.1094 248.71 83.67C245.761 85.0634 243.296 87.306 241.63 90.11C239.859 93.2476 238.9 96.7777 238.84 100.38H249.6C249.977 97.9064 251.175 95.6313 253 93.92C254.834 92.4318 257.151 91.6701 259.51 91.78C261.536 91.6857 263.527 92.3248 265.12 93.58C265.811 94.1402 266.365 94.8518 266.737 95.6597C267.11 96.4677 267.292 97.3505 267.27 98.24C267.317 99.114 267.166 99.9872 266.831 100.795C266.495 101.604 265.982 102.326 265.33 102.91C263.763 104.106 261.817 104.696 259.85 104.57H253.65V114.51H259.65C260.617 114.445 261.587 114.572 262.505 114.882C263.423 115.193 264.271 115.681 265 116.32C265.645 116.99 266.144 117.786 266.466 118.659C266.788 119.532 266.926 120.462 266.87 121.39C266.91 122.621 266.586 123.836 265.938 124.884C265.291 125.932 264.349 126.765 263.23 127.28C261.962 127.867 260.577 128.157 259.18 128.13C256.938 128.249 254.73 127.537 252.98 126.13C251.313 124.567 250.213 122.496 249.85 120.24H239.11C239.138 123.703 240.053 127.102 241.77 130.11C243.399 132.828 245.806 134.995 248.68 136.33Z" fill="black"/>
<path d="M297.79 115.53H313.04V137.18H324.54V82.72H313.04V104.64H297.79V82.72H286.29V137.18H297.79V115.53Z" fill="black"/>
<path d="M344.4 121.25H358.74L362.2 137.18H373.77L361.52 82.72H342.32L330.07 137.18H340.89L344.4 121.25ZM352.19 91.1L356.37 110.36H346.79L351 91.1H352.19Z" fill="black"/>
<path d="M390.76 115.53H406.01V137.18H417.51V82.72H406.01V104.64H390.76V82.72H379.25V137.18H390.76V115.53Z" fill="black"/>
<path d="M453.93 93.75H455.16L454.48 112.13V137.18H465.3V82.72H447.94L437.6 126.15H436.37L437.05 107.77V82.72H426.23V137.18H443.59L453.93 93.75Z" fill="black"/>
<path d="M483.9 75.37C486.013 77.1233 489.157 78 493.33 78C497.503 78 500.647 77.1133 502.76 75.34C504.873 73.5733 506.11 70.7833 506.47 66.97H497.21C497.142 68.1441 496.72 69.27 496 70.2C495.65 70.5511 495.229 70.8222 494.765 70.9949C494.3 71.1675 493.804 71.2375 493.31 71.2C492.823 71.231 492.334 71.1578 491.877 70.9854C491.42 70.813 491.005 70.5452 490.66 70.2C489.933 69.2853 489.51 68.1666 489.45 67H480.19C480.563 70.8133 481.8 73.6033 483.9 75.37Z" fill="black"/>
<path d="M485.16 126.15H483.94L484.62 107.77V82.72H473.8V137.18H491.15L501.5 93.75H502.73L502.04 112.13V137.18H512.87V82.72H495.51L485.16 126.15Z" fill="black"/>
<path d="M54.44 155.63C47.4067 155.63 42.0733 158.037 38.44 162.85C34.8067 167.663 32.9933 174.767 33 184.16C33 193.553 34.8167 200.654 38.45 205.46C42.0833 210.267 47.4167 212.673 54.45 212.68C61.4767 212.68 66.81 210.274 70.45 205.46C74.09 200.647 75.9033 193.547 75.89 184.16C75.89 174.76 74.0767 167.657 70.45 162.85C66.8233 158.043 61.4867 155.637 54.44 155.63ZM61.93 197.74C61.2451 199.126 60.1732 200.284 58.8439 201.074C57.5146 201.864 55.985 202.252 54.44 202.19C52.9034 202.242 51.3844 201.85 50.065 201.06C48.7455 200.271 47.6814 199.118 47 197.74C45.3733 194.76 44.5567 190.233 44.55 184.16C44.5433 178.087 45.36 173.56 47 170.58C47.6835 169.192 48.7548 168.032 50.0842 167.24C51.4136 166.449 52.944 166.06 54.49 166.12C56.036 166.06 57.5664 166.449 58.8958 167.24C60.2252 168.032 61.2965 169.192 61.98 170.58C63.6133 173.547 64.43 178.073 64.43 184.16C64.43 190.247 63.5967 194.774 61.93 197.74Z" fill="black"/>
<path d="M123.14 178.851H107.89V156.931H96.38V211.381H107.89V189.741H123.14V211.381H134.64V156.931H123.14V178.851Z" fill="black"/>
<path d="M144.75 211.381H179.67V201.441H156.25V189.061H176.94V179.391H156.25V166.861H180.35V156.931H144.75V211.381Z" fill="black"/>
<path d="M203.08 143.2H193.82C194.193 147.014 195.43 149.807 197.53 151.58C199.63 153.354 202.787 154.237 207 154.23C211.18 154.23 214.323 153.347 216.43 151.58C218.537 149.814 219.773 147.02 220.14 143.2H210.88C210.814 144.362 210.399 145.478 209.69 146.4C208.956 147.058 208.005 147.422 207.02 147.422C206.035 147.422 205.084 147.058 204.35 146.4C203.6 145.494 203.155 144.374 203.08 143.2Z" fill="black"/>
<path d="M198.79 200.351H197.57L198.25 181.981V156.931H187.43V211.381H204.78L215.13 167.951H216.35L215.68 186.331V211.381H226.5V156.931H209.14L198.79 200.351Z" fill="black"/>
<path d="M266.39 158.999C263.334 157.537 259.977 156.814 256.59 156.889H235.83V211.339H247.33V190.549H256.59C259.966 190.635 263.317 189.951 266.39 188.549C269.071 187.308 271.331 185.309 272.89 182.799C274.456 180.155 275.247 177.122 275.17 174.049C275.253 170.881 274.464 167.75 272.89 164.999C271.361 162.403 269.1 160.316 266.39 158.999ZM261.8 178.529C260.347 179.69 258.517 180.274 256.66 180.169H247.33V167.749H256.66C258.516 167.642 260.346 168.222 261.8 169.379C262.436 169.964 262.933 170.683 263.257 171.484C263.58 172.284 263.721 173.147 263.67 174.009C263.717 174.861 263.574 175.712 263.25 176.501C262.927 177.29 262.431 177.996 261.8 178.569V178.529Z" fill="black"/>
<path d="M300.92 155.63C293.887 155.63 288.553 158.037 284.92 162.85C281.287 167.663 279.47 174.767 279.47 184.16C279.47 193.553 281.287 200.654 284.92 205.46C288.553 210.267 293.887 212.673 300.92 212.68C307.96 212.68 313.293 210.274 316.92 205.46C320.547 200.647 322.363 193.547 322.37 184.16C322.37 174.76 320.553 167.657 316.92 162.85C313.287 158.043 307.953 155.637 300.92 155.63ZM308.41 197.74C307.68 199.094 306.598 200.225 305.277 201.013C303.957 201.802 302.448 202.218 300.91 202.218C299.372 202.218 297.863 201.802 296.543 201.013C295.222 200.225 294.14 199.094 293.41 197.74C291.803 194.76 291 190.233 291 184.16C291 178.087 291.817 173.56 293.45 170.58C294.177 169.224 295.259 168.09 296.58 167.299C297.9 166.509 299.411 166.091 300.95 166.091C302.489 166.091 304 166.509 305.32 167.299C306.641 168.09 307.723 169.224 308.45 170.58C310.09 173.547 310.907 178.073 310.9 184.16C310.893 190.247 310.063 194.774 308.41 197.74Z" fill="black"/>
<path d="M349.65 166.119C350.782 166.08 351.909 166.295 352.947 166.748C353.986 167.202 354.909 167.882 355.65 168.739C357.17 170.479 358.27 173.109 358.95 176.599H369.44C369.34 172.648 368.374 168.767 366.61 165.229C365.089 162.244 362.738 159.761 359.84 158.079C356.711 156.381 353.189 155.536 349.63 155.629C342.59 155.629 337.257 158.036 333.63 162.849C330.003 167.663 328.19 174.766 328.19 184.159C328.19 193.553 329.96 200.653 333.5 205.459C337.04 210.266 342.207 212.673 349 212.679C352.453 212.766 355.867 211.941 358.9 210.289C361.727 208.666 364.031 206.269 365.54 203.379C367.271 199.989 368.247 196.263 368.4 192.459H358C357.574 195.125 356.46 197.634 354.77 199.739C354.061 200.54 353.185 201.174 352.203 201.598C351.222 202.021 350.159 202.223 349.09 202.189C347.614 202.222 346.161 201.817 344.916 201.025C343.67 200.233 342.687 199.09 342.09 197.739C340.543 194.759 339.77 190.233 339.77 184.159C339.77 178.086 340.587 173.559 342.22 170.579C342.899 169.201 343.961 168.047 345.279 167.256C346.596 166.465 348.114 166.071 349.65 166.119Z" fill="black"/>
<path d="M377.05 211.381H411.97V201.441H388.56V189.061H409.25V179.391H388.56V166.861H412.65V156.931H377.05V211.381Z" fill="black"/>
<path d="M418.49 167.821H433.94V211.381H445.37V167.821H460.83V156.931H418.49V167.821Z" fill="black"/>
<path d="M474.58 159.07C471.858 160.411 469.596 162.531 468.08 165.16C466.486 168.056 465.696 171.325 465.79 174.63C465.717 177.713 466.511 180.755 468.08 183.41C469.621 185.925 471.887 187.915 474.58 189.12C475.705 189.651 476.881 190.066 478.09 190.36L463.75 211.36H476.62L489.89 191.08H492.89V211.36H504.39V156.93H484.51C481.077 156.845 477.673 157.578 474.58 159.07ZM492.89 167.75V181.5H485.13C483.051 181.626 481 180.97 479.38 179.66C478.047 178.323 477.298 176.512 477.298 174.625C477.298 172.737 478.047 170.926 479.38 169.59C481 168.28 483.051 167.623 485.13 167.75H492.89Z" fill="black"/>
<path d="M553.35 156.931H541.71L533.4 175.031L532.65 179.661H531.43L530.68 175.031L522.51 156.931H510.19L523.19 184.901L511.07 211.381H522.78L530.13 195.391L530.88 190.621H532.11L532.79 195.391L540 211.381H552.46L540.28 184.841L553.35 156.931Z" fill="black"/>
<path d="M612.998 264.005C613.588 263.647 614.069 263.134 614.388 262.522C615.863 258.527 615.863 254.136 614.388 250.141C614.069 249.529 613.588 249.016 612.998 248.658C612.408 248.3 611.73 248.111 611.04 248.111C610.35 248.111 609.673 248.3 609.082 248.658C608.492 249.016 608.011 249.529 607.692 250.141C606.217 254.136 606.217 258.527 607.692 262.522C608.011 263.134 608.492 263.647 609.082 264.005C609.673 264.363 610.35 264.552 611.04 264.552C611.73 264.552 612.408 264.363 612.998 264.005Z" fill="black"/>
<path d="M631.599 248.974H635.726C636.546 248.92 637.359 249.162 638.017 249.655C638.274 249.9 638.479 250.196 638.619 250.523C638.759 250.85 638.832 251.202 638.832 251.558C638.832 251.914 638.759 252.267 638.619 252.594C638.479 252.921 638.274 253.216 638.017 253.462C637.354 253.943 636.543 254.176 635.726 254.122H631.599V248.974Z" fill="black"/>
<path d="M612.397 286.377C613.214 286.431 614.024 286.197 614.687 285.716C614.962 285.481 615.178 285.186 615.318 284.852C615.458 284.519 615.517 284.158 615.492 283.797C615.512 283.44 615.449 283.083 615.31 282.754C615.17 282.425 614.957 282.133 614.687 281.898C614.029 281.406 613.217 281.164 612.397 281.217H608.269V286.377H612.397Z" fill="black"/>
<path d="M631.268 281.228H635.489C636.294 281.18 637.089 281.434 637.717 281.94C637.988 282.181 638.201 282.479 638.342 282.813C638.483 283.147 638.548 283.507 638.532 283.869C638.552 284.233 638.488 284.597 638.347 284.933C638.206 285.269 637.991 285.568 637.717 285.809C637.089 286.315 636.294 286.569 635.489 286.521H631.268V281.228Z" fill="black"/>
<path d="M659.728 296.259C660.318 295.901 660.799 295.388 661.118 294.776C662.593 290.781 662.593 286.39 661.118 282.395C660.799 281.783 660.318 281.27 659.728 280.912C659.138 280.554 658.46 280.365 657.77 280.365C657.08 280.365 656.403 280.554 655.812 280.912C655.222 281.27 654.741 281.783 654.422 282.395C652.934 286.388 652.934 290.783 654.422 294.776C654.741 295.388 655.222 295.901 655.812 296.259C656.403 296.617 657.08 296.806 657.77 296.806C658.46 296.806 659.138 296.617 659.728 296.259Z" fill="black"/>
<path d="M705.847 286.376C706.664 286.43 707.475 286.197 708.138 285.716C708.414 285.482 708.631 285.186 708.773 284.853C708.914 284.52 708.976 284.158 708.953 283.797C708.97 283.439 708.906 283.082 708.765 282.753C708.623 282.424 708.409 282.132 708.138 281.898C707.48 281.405 706.667 281.164 705.847 281.217H701.72V286.376H705.847Z" fill="black"/>
<path d="M689.48 329.294C689.298 329.679 689.009 330.002 688.649 330.223C688.289 330.445 687.873 330.555 687.452 330.54C687.031 330.553 686.616 330.443 686.256 330.222C685.896 330.001 685.607 329.678 685.424 329.294C684.91 328.106 684.68 326.811 684.751 325.515C684.677 324.213 684.908 322.911 685.424 321.715C685.605 321.329 685.893 321.005 686.254 320.782C686.614 320.559 687.03 320.446 687.452 320.459C687.873 320.444 688.289 320.554 688.649 320.775C689.009 320.997 689.298 321.319 689.48 321.704C690.003 322.902 690.233 324.209 690.152 325.515C690.229 326.811 689.998 328.107 689.48 329.294Z" fill="black"/>
<path d="M699.703 320.991H702.257C702.742 320.96 703.221 321.112 703.602 321.417C703.769 321.565 703.902 321.749 703.991 321.955C704.08 322.161 704.123 322.384 704.117 322.609C704.124 322.828 704.083 323.045 703.998 323.246C703.913 323.446 703.785 323.625 703.623 323.77C703.243 324.079 702.764 324.234 702.278 324.206H699.703V320.991Z" fill="black"/>
<path fill-rule="evenodd" clip-rule="evenodd" d="M590.5 344.364V233.445H749.926V365H739.608V354.682H729.29V344.364H590.5ZM603.1 246.003C604.923 243.651 607.572 242.474 611.045 242.474C612.554 242.383 614.062 242.656 615.443 243.27C616.824 243.884 618.037 244.822 618.98 246.003C620.796 248.356 621.704 251.795 621.704 256.321C621.704 260.847 620.796 264.287 618.98 266.639C618.04 267.824 616.827 268.764 615.446 269.38C614.065 269.997 612.555 270.27 611.045 270.178C607.565 270.158 604.916 268.978 603.1 266.639C601.284 264.3 600.377 260.861 600.377 256.321C600.37 251.795 601.278 248.356 603.1 246.003ZM631.599 259.694H635.726C637.419 259.739 639.101 259.404 640.648 258.714C641.984 258.105 643.116 257.123 643.908 255.887C644.701 254.595 645.103 253.1 645.064 251.584C645.11 250.009 644.709 248.453 643.908 247.096C643.132 245.835 642.011 244.822 640.679 244.176C639.14 243.455 637.455 243.101 635.757 243.144H625.439V269.548H631.63L631.599 259.694ZM655.619 264.256H666.907V269.539H649.418V243.135H667.237V248.418H655.619V253.855H665.586V259.004H655.619V264.256ZM676.709 258.88L676.317 247.984H676.967L681.3 269.539H690.865V243.135H685.551V253.793L685.954 264.679H685.293L680.96 243.135H671.395V269.539H676.709V258.88ZM611.963 275.398C613.662 275.354 615.347 275.708 616.885 276.43C618.202 277.083 619.308 278.095 620.073 279.35C620.872 280.708 621.272 282.263 621.229 283.838C621.268 285.354 620.866 286.849 620.073 288.141C619.295 289.377 618.172 290.36 616.844 290.968C615.301 291.676 613.619 292.028 611.922 292H607.795V301.802H601.604V275.398H611.963ZM640.41 290.638C641.708 290.028 642.811 289.071 643.599 287.873C644.367 286.662 644.761 285.252 644.734 283.818C644.774 282.254 644.385 280.708 643.609 279.35C642.868 278.084 641.775 277.062 640.462 276.409C638.987 275.694 637.364 275.341 635.726 275.378H625.067V301.781H631.258V291.618H632.558L638.388 301.781H645.353L638.955 291.175C639.454 291.034 639.94 290.855 640.41 290.638ZM649.83 278.268C651.646 275.908 654.291 274.729 657.765 274.729C661.239 274.749 663.884 275.929 665.7 278.268C667.516 280.606 668.424 284.046 668.424 288.586C668.424 293.112 667.516 296.551 665.7 298.904C663.884 301.256 661.239 302.432 657.765 302.432C654.291 302.432 651.646 301.256 649.83 298.904C648.014 296.551 647.106 293.112 647.106 288.586C647.106 284.066 648.014 280.627 649.83 278.268ZM681.589 288.162H680.929L679.247 275.389H671.23V301.792H676.482V291.99L676.049 281.002H676.709L678.36 293.538H683.901L685.551 281.002H686.212L685.778 291.99V301.792H691.03V275.389H683.271L681.589 288.162ZM705.847 275.398C707.545 275.355 709.23 275.709 710.769 276.43C712.088 277.084 713.196 278.095 713.967 279.35C714.766 280.708 715.166 282.263 715.123 283.838C715.162 285.354 714.76 286.848 713.967 288.141C713.186 289.375 712.064 290.357 710.738 290.968C709.195 291.675 707.513 292.028 705.816 292H701.689V301.802H695.498V275.398H705.847ZM717.393 275.389V281.301H724.76V301.792H730.961V281.301H738.318V275.389H717.393ZM608.073 313.555H601.604V307.643H620.744V313.555H614.275V328.134H620.744V334.046H601.604V328.134H608.073V313.555ZM638.821 318.311L639.224 329.196H638.563L634.24 307.652H624.665V334.046H629.979V323.387L629.587 312.502H630.247L634.57 334.046H644.135V307.652H638.821V318.311ZM659.664 312.88C659.218 312.702 658.74 312.619 658.261 312.636C657.56 312.617 656.869 312.799 656.269 313.161C655.669 313.523 655.186 314.05 654.876 314.679C654.002 316.62 653.612 318.744 653.742 320.869C653.735 323.868 654.109 326.056 654.866 327.432C655.198 328.089 655.714 328.635 656.352 329.001C656.991 329.368 657.722 329.54 658.457 329.495C659.141 329.518 659.816 329.34 660.401 328.985C660.985 328.629 661.454 328.111 661.748 327.494C662.073 326.822 662.235 326.083 662.223 325.337H657.631V319.92H667.64V333.984H662.223V331.776H660.871C660.6 332.646 660.01 333.383 659.22 333.839C658.305 334.351 657.267 334.605 656.218 334.572C654.929 334.612 653.654 334.303 652.526 333.678C651.398 333.054 650.46 332.136 649.81 331.022C648.318 328.656 647.571 325.251 647.571 320.807C647.571 316.281 648.479 312.842 650.295 310.489C652.111 308.137 654.766 306.961 658.261 306.961C660.026 306.914 661.775 307.312 663.348 308.116C664.772 308.878 665.941 310.04 666.711 311.459C667.575 313.097 668.048 314.912 668.094 316.763H662.285C662.113 315.615 661.615 314.54 660.851 313.667C660.514 313.326 660.11 313.057 659.664 312.88ZM672 329H677V334H672V329ZM718.449 328.251H715.675V324.93H721.769V333.563H718.491V332.211H717.671C717.492 332.75 717.116 333.2 716.62 333.467C716.063 333.773 715.436 333.924 714.803 333.904C714.027 333.933 713.258 333.751 712.576 333.377C711.894 333.002 711.324 332.449 710.925 331.775C709.911 329.855 709.441 327.689 709.57 325.515C709.408 323.26 709.988 321.014 711.22 319.128C711.797 318.408 712.536 317.839 713.375 317.468C714.214 317.098 715.129 316.937 716.043 316.999C717.112 316.969 718.171 317.214 719.121 317.713C719.979 318.186 720.681 318.904 721.139 319.778C721.659 320.781 721.946 321.892 721.979 323.024H718.533C718.43 322.311 718.127 321.643 717.661 321.098C717.457 320.889 717.212 320.726 716.943 320.618C716.673 320.51 716.385 320.459 716.095 320.47C715.663 320.447 715.234 320.553 714.86 320.774C714.487 320.995 714.186 321.322 713.994 321.715C713.463 322.906 713.228 324.211 713.311 325.515C713.229 326.889 713.463 328.262 713.994 329.529C714.194 329.933 714.506 330.27 714.893 330.497C715.279 330.724 715.723 330.831 716.169 330.806C716.591 330.817 717.008 330.703 717.367 330.476C717.707 330.256 717.983 329.947 718.165 329.582C718.361 329.167 718.458 328.711 718.449 328.251ZM687.452 316.999C686.542 316.94 685.631 317.103 684.796 317.473C683.96 317.844 683.225 318.411 682.65 319.128C681.418 321.014 680.838 323.26 681 325.515C680.848 327.753 681.428 329.979 682.65 331.849C683.225 332.566 683.96 333.134 684.796 333.504C685.631 333.874 686.542 334.037 687.452 333.978C688.362 334.038 689.273 333.876 690.108 333.505C690.944 333.135 691.68 332.567 692.254 331.849C693.475 329.979 694.055 327.753 693.903 325.515C694.065 323.26 693.485 321.014 692.254 319.128C691.68 318.411 690.944 317.843 690.108 317.472C689.273 317.102 688.362 316.94 687.452 316.999ZM705.23 326.75C706.015 326.385 706.684 325.807 707.164 325.079C707.63 324.335 707.867 323.469 707.847 322.588C707.871 321.628 707.639 320.679 707.174 319.842C706.719 319.075 706.055 318.458 705.262 318.064C704.37 317.622 703.386 317.403 702.393 317.425H695.942V333.595H699.703V327.368H700.502L704.033 333.595H708.236L704.348 327.091C704.651 327.002 704.946 326.888 705.23 326.75Z" fill="black"/>
</svg>
