<svg width="750" height="365" viewBox="0 0 750 365" fill="none" xmlns="http://www.w3.org/2000/svg">
<g clip-path="url(#clip0_149_62)">
<path d="M88 61.5V39H750V344H88V234" stroke="black"/>
<path d="M8.75 325.158V286H0V325.158V334H8.75H25V325.158H8.75Z" fill="black"/>
<path d="M8.75 8.84211V48H0V8.84211V0H8.75H25V8.84211H8.75Z" fill="black"/>
<path d="M720.25 8.84211V48H729V8.84211V0H720.25H704V8.84211H720.25Z" fill="black"/>
<path d="M66.32 135.101C68.9999 133.822 71.2485 131.789 72.79 129.251C74.3704 126.52 75.1598 123.404 75.07 120.251C75.1475 117.137 74.3581 114.062 72.79 111.371C71.2526 108.837 69.0021 106.812 66.32 105.551C63.2411 104.12 59.874 103.419 56.48 103.501H48.25V93.6207H73V82.7207H36.74V137.181H56.48C59.8772 137.263 63.2467 136.551 66.32 135.101ZM48.25 113.901H56.55C58.4162 113.781 60.2597 114.363 61.72 115.531C62.3437 116.108 62.832 116.817 63.1501 117.605C63.4682 118.393 63.6082 119.242 63.56 120.091C63.613 120.95 63.4756 121.811 63.1576 122.611C62.8395 123.412 62.3486 124.132 61.72 124.721C60.2612 125.892 58.4175 126.477 56.55 126.361H48.25V113.901Z" fill="black"/>
<path d="M106.94 121.251L110.4 137.181H122L109.72 82.7207H90.53L78.27 137.181H89.1L92.6 121.251H106.94ZM100.4 91.1007L104.58 110.361H95L99.24 91.1007H100.4Z" fill="black"/>
<path d="M162.4 131.001C164.031 128.555 164.875 125.67 164.82 122.731C164.919 119.875 164.227 117.048 162.82 114.561C161.544 112.36 159.516 110.695 157.11 109.871V108.371C159.477 107.642 161.542 106.16 162.99 104.151C164.434 102.106 165.187 99.6535 165.14 97.1507C165.2 94.2356 164.37 91.3715 162.76 88.9407C161.089 86.5417 158.792 84.6464 156.12 83.4607C153.005 82.0819 149.626 81.3994 146.22 81.4607C142.433 81.3544 138.672 82.1101 135.22 83.6707C132.269 85.0616 129.803 87.3047 128.14 90.1107C126.369 93.2483 125.41 96.7784 125.35 100.381H136.1C136.476 97.9219 137.662 95.659 139.47 93.9507C141.3 92.4623 143.614 91.7004 145.97 91.8107C147.999 91.7149 149.994 92.354 151.59 93.6107C152.279 94.172 152.831 94.8839 153.202 95.6918C153.573 96.4997 153.754 97.382 153.73 98.2707C153.777 99.1447 153.626 100.018 153.291 100.826C152.955 101.634 152.442 102.357 151.79 102.941C150.224 104.138 148.277 104.727 146.31 104.601H140.12V114.541H146.12C147.085 114.477 148.054 114.603 148.97 114.914C149.887 115.225 150.733 115.713 151.46 116.351C152.107 117.019 152.608 117.816 152.93 118.688C153.252 119.561 153.388 120.492 153.33 121.421C153.375 122.653 153.053 123.87 152.405 124.919C151.757 125.968 150.812 126.8 149.69 127.311C148.437 127.89 147.07 128.18 145.69 128.161C143.451 128.28 141.246 127.568 139.5 126.161C137.83 124.599 136.726 122.527 136.36 120.271H125.61C125.634 123.733 126.547 127.132 128.26 130.141C129.895 132.856 132.3 135.024 135.17 136.371C138.514 137.877 142.154 138.608 145.82 138.511C149.23 138.573 152.612 137.891 155.73 136.511C158.417 135.321 160.725 133.415 162.4 131.001Z" fill="black"/>
<path d="M183.13 121.251H197.47L200.93 137.181H212.5L200.25 82.7207H181.05L168.8 137.181H179.62L183.13 121.251ZM190.92 91.1007L195.1 110.361H185.52L189.76 91.1007H190.92Z" fill="black"/>
<path d="M248.68 136.331C252.024 137.837 255.664 138.568 259.33 138.471C262.736 138.534 266.115 137.852 269.23 136.471C271.912 135.292 274.219 133.4 275.9 131.001C277.531 128.555 278.375 125.67 278.32 122.731C278.414 119.876 277.722 117.05 276.32 114.561C275.04 112.359 273.009 110.694 270.6 109.871V108.371C272.972 107.645 275.04 106.163 276.49 104.151C277.931 102.105 278.681 99.6525 278.63 97.1507C278.695 94.2351 277.864 91.3696 276.25 88.9407C274.579 86.5417 272.282 84.6464 269.61 83.4607C266.495 82.0798 263.116 81.3971 259.71 81.4607C255.923 81.3544 252.162 82.1101 248.71 83.6707C245.761 85.0641 243.296 87.3067 241.63 90.1107C239.859 93.2483 238.9 96.7784 238.84 100.381H249.6C249.977 97.9071 251.175 95.632 253 93.9207C254.834 92.4325 257.151 91.6708 259.51 91.7807C261.536 91.6864 263.527 92.3255 265.12 93.5807C265.811 94.141 266.365 94.8525 266.737 95.6604C267.11 96.4684 267.292 97.3512 267.27 98.2407C267.317 99.1147 267.166 99.9879 266.831 100.796C266.495 101.604 265.982 102.327 265.33 102.911C263.763 104.107 261.817 104.697 259.85 104.571H253.65V114.511H259.65C260.617 114.446 261.587 114.572 262.505 114.883C263.423 115.193 264.271 115.682 265 116.321C265.645 116.991 266.144 117.787 266.466 118.66C266.788 119.532 266.926 120.462 266.87 121.391C266.91 122.622 266.586 123.837 265.938 124.885C265.291 125.932 264.349 126.766 263.23 127.281C261.962 127.867 260.577 128.158 259.18 128.131C256.938 128.25 254.73 127.538 252.98 126.131C251.313 124.568 250.213 122.496 249.85 120.241H239.11C239.138 123.704 240.053 127.102 241.77 130.111C243.399 132.829 245.806 134.995 248.68 136.331Z" fill="black"/>
<path d="M297.79 115.531H313.04V137.181H324.54V82.7207H313.04V104.641H297.79V82.7207H286.29V137.181H297.79V115.531Z" fill="black"/>
<path d="M344.4 121.251H358.74L362.2 137.181H373.77L361.52 82.7207H342.32L330.07 137.181H340.89L344.4 121.251ZM352.19 91.1007L356.37 110.361H346.79L351 91.1007H352.19Z" fill="black"/>
<path d="M390.76 115.531H406.01V137.181H417.51V82.7207H406.01V104.641H390.76V82.7207H379.25V137.181H390.76V115.531Z" fill="black"/>
<path d="M453.93 93.7507H455.16L454.48 112.131V137.181H465.3V82.7207H447.94L437.6 126.151H436.37L437.05 107.771V82.7207H426.23V137.181H443.59L453.93 93.7507Z" fill="black"/>
<path d="M483.9 75.3707C486.013 77.124 489.157 78.0007 493.33 78.0007C497.503 78.0007 500.647 77.114 502.76 75.3407C504.873 73.574 506.11 70.784 506.47 66.9707H497.21C497.142 68.1448 496.72 69.2707 496 70.2007C495.65 70.5518 495.229 70.8229 494.765 70.9956C494.3 71.1682 493.804 71.2382 493.31 71.2007C492.823 71.2317 492.334 71.1585 491.877 70.9861C491.42 70.8137 491.005 70.5459 490.66 70.2007C489.933 69.286 489.51 68.1673 489.45 67.0007H480.19C480.563 70.814 481.8 73.604 483.9 75.3707Z" fill="black"/>
<path d="M485.16 126.151H483.94L484.62 107.771V82.7207H473.8V137.181H491.15L501.5 93.7507H502.73L502.04 112.131V137.181H512.87V82.7207H495.51L485.16 126.151Z" fill="black"/>
<path d="M54.44 155.631C47.4067 155.631 42.0734 158.038 38.44 162.851C34.8067 167.664 32.9934 174.768 33 184.161C33 193.554 34.8167 200.654 38.45 205.461C42.0834 210.268 47.4167 212.674 54.45 212.681C61.4767 212.681 66.81 210.274 70.45 205.461C74.09 200.648 75.9034 193.548 75.89 184.161C75.89 174.761 74.0767 167.658 70.45 162.851C66.8234 158.044 61.4867 155.638 54.44 155.631ZM61.93 197.741C61.2451 199.127 60.1732 200.285 58.8439 201.075C57.5146 201.865 55.985 202.252 54.44 202.191C52.9034 202.242 51.3845 201.85 50.065 201.061C48.7455 200.272 47.6814 199.119 47 197.741C45.3734 194.761 44.5567 190.234 44.55 184.161C44.5434 178.088 45.36 173.561 47 170.581C47.6835 169.193 48.7548 168.033 50.0842 167.241C51.4136 166.449 52.944 166.06 54.49 166.121C56.0361 166.06 57.5665 166.449 58.8959 167.241C60.2252 168.033 61.2966 169.193 61.98 170.581C63.6134 173.548 64.43 178.074 64.43 184.161C64.43 190.248 63.5967 194.774 61.93 197.741Z" fill="black"/>
<path d="M123.14 178.852H107.89V156.932H96.38V211.382H107.89V189.742H123.14V211.382H134.64V156.932H123.14V178.852Z" fill="black"/>
<path d="M144.75 211.382H179.67V201.442H156.25V189.062H176.94V179.392H156.25V166.862H180.35V156.932H144.75V211.382Z" fill="black"/>
<path d="M203.08 143.201H193.82C194.193 147.015 195.43 149.808 197.53 151.581C199.63 153.355 202.787 154.238 207 154.231C211.18 154.231 214.323 153.348 216.43 151.581C218.537 149.815 219.773 147.021 220.14 143.201H210.88C210.814 144.363 210.399 145.478 209.69 146.401C208.956 147.059 208.005 147.423 207.02 147.423C206.035 147.423 205.084 147.059 204.35 146.401C203.6 145.495 203.155 144.375 203.08 143.201Z" fill="black"/>
<path d="M198.79 200.352H197.57L198.25 181.982V156.932H187.43V211.382H204.78L215.13 167.952H216.35L215.68 186.332V211.382H226.5V156.932H209.14L198.79 200.352Z" fill="black"/>
<path d="M266.39 159C263.334 157.538 259.977 156.815 256.59 156.89H235.83V211.34H247.33V190.55H256.59C259.966 190.635 263.317 189.952 266.39 188.55C269.071 187.309 271.331 185.31 272.89 182.8C274.456 180.155 275.247 177.123 275.17 174.05C275.253 170.882 274.464 167.751 272.89 165C271.361 162.404 269.1 160.317 266.39 159ZM261.8 178.53C260.347 179.691 258.517 180.275 256.66 180.17H247.33V167.75H256.66C258.516 167.642 260.346 168.223 261.8 169.38C262.436 169.965 262.933 170.684 263.257 171.484C263.58 172.285 263.721 173.148 263.67 174.01C263.717 174.861 263.574 175.713 263.25 176.501C262.927 177.29 262.431 177.997 261.8 178.57V178.53Z" fill="black"/>
<path d="M300.92 155.631C293.887 155.631 288.553 158.038 284.92 162.851C281.287 167.664 279.47 174.768 279.47 184.161C279.47 193.554 281.287 200.654 284.92 205.461C288.553 210.268 293.887 212.674 300.92 212.681C307.96 212.681 313.293 210.274 316.92 205.461C320.547 200.648 322.363 193.548 322.37 184.161C322.37 174.761 320.553 167.658 316.92 162.851C313.287 158.044 307.953 155.638 300.92 155.631ZM308.41 197.741C307.68 199.095 306.598 200.226 305.277 201.014C303.957 201.802 302.448 202.219 300.91 202.219C299.372 202.219 297.863 201.802 296.543 201.014C295.222 200.226 294.14 199.095 293.41 197.741C291.803 194.761 291 190.234 291 184.161C291 178.088 291.817 173.561 293.45 170.581C294.177 169.224 295.259 168.09 296.58 167.3C297.9 166.51 299.411 166.092 300.95 166.092C302.489 166.092 304 166.51 305.32 167.3C306.641 168.09 307.723 169.224 308.45 170.581C310.09 173.548 310.907 178.074 310.9 184.161C310.893 190.248 310.063 194.774 308.41 197.741Z" fill="black"/>
<path d="M349.65 166.12C350.782 166.081 351.909 166.295 352.948 166.749C353.986 167.202 354.909 167.883 355.65 168.74C357.17 170.48 358.27 173.11 358.95 176.6H369.44C369.34 172.649 368.374 168.767 366.61 165.23C365.089 162.245 362.738 159.762 359.84 158.08C356.711 156.381 353.189 155.536 349.63 155.63C342.59 155.63 337.257 158.037 333.63 162.85C330.003 167.663 328.19 174.767 328.19 184.16C328.19 193.553 329.96 200.653 333.5 205.46C337.04 210.267 342.207 212.673 349 212.68C352.453 212.766 355.867 211.942 358.9 210.29C361.727 208.667 364.031 206.27 365.54 203.38C367.271 199.989 368.247 196.264 368.4 192.46H358C357.574 195.126 356.46 197.635 354.77 199.74C354.061 200.54 353.185 201.175 352.203 201.598C351.222 202.022 350.159 202.224 349.09 202.19C347.614 202.223 346.162 201.818 344.916 201.026C343.67 200.234 342.687 199.091 342.09 197.74C340.543 194.76 339.77 190.233 339.77 184.16C339.77 178.087 340.587 173.56 342.22 170.58C342.899 169.202 343.961 168.048 345.279 167.257C346.596 166.466 348.114 166.071 349.65 166.12Z" fill="black"/>
<path d="M377.05 211.382H411.97V201.442H388.56V189.062H409.25V179.392H388.56V166.862H412.65V156.932H377.05V211.382Z" fill="black"/>
<path d="M418.49 167.822H433.94V211.382H445.37V167.822H460.83V156.932H418.49V167.822Z" fill="black"/>
<path d="M474.58 159.07C471.858 160.412 469.596 162.532 468.08 165.16C466.486 168.057 465.696 171.326 465.79 174.63C465.717 177.714 466.511 180.756 468.08 183.41C469.621 185.926 471.887 187.916 474.58 189.12C475.705 189.651 476.881 190.067 478.09 190.36L463.75 211.36H476.62L489.89 191.08H492.89V211.36H504.39V156.93H484.51C481.077 156.845 477.673 157.579 474.58 159.07ZM492.89 167.75V181.5H485.13C483.051 181.627 481 180.97 479.38 179.66C478.047 178.324 477.298 176.513 477.298 174.625C477.298 172.738 478.047 170.927 479.38 169.59C481 168.281 483.051 167.624 485.13 167.75H492.89Z" fill="black"/>
<path d="M553.35 156.932H541.71L533.4 175.032L532.65 179.662H531.43L530.68 175.032L522.51 156.932H510.19L523.19 184.902L511.07 211.382H522.78L530.13 195.392L530.88 190.622H532.11L532.79 195.392L540 211.382H552.46L540.28 184.842L553.35 156.932Z" fill="black"/>
<path d="M612.998 264.005C613.588 263.647 614.069 263.134 614.388 262.522C615.863 258.527 615.863 254.136 614.388 250.141C614.069 249.529 613.588 249.016 612.998 248.658C612.408 248.3 611.73 248.111 611.04 248.111C610.35 248.111 609.673 248.3 609.082 248.658C608.492 249.016 608.011 249.529 607.692 250.141C606.217 254.136 606.217 258.527 607.692 262.522C608.011 263.134 608.492 263.647 609.082 264.005C609.673 264.363 610.35 264.552 611.04 264.552C611.73 264.552 612.408 264.363 612.998 264.005Z" fill="black"/>
<path d="M631.599 248.974H635.726C636.546 248.92 637.359 249.162 638.017 249.655C638.274 249.9 638.479 250.196 638.619 250.523C638.759 250.85 638.832 251.202 638.832 251.558C638.832 251.914 638.759 252.267 638.619 252.594C638.479 252.921 638.274 253.216 638.017 253.462C637.354 253.943 636.543 254.176 635.726 254.122H631.599V248.974Z" fill="black"/>
<path d="M612.397 286.377C613.214 286.431 614.024 286.197 614.687 285.716C614.962 285.481 615.178 285.186 615.318 284.852C615.458 284.519 615.517 284.158 615.492 283.797C615.512 283.44 615.449 283.083 615.31 282.754C615.17 282.425 614.957 282.133 614.687 281.898C614.029 281.406 613.217 281.164 612.397 281.217H608.269V286.377H612.397Z" fill="black"/>
<path d="M631.268 281.228H635.489C636.294 281.18 637.089 281.434 637.717 281.94C637.988 282.181 638.201 282.479 638.342 282.813C638.483 283.147 638.548 283.507 638.532 283.869C638.552 284.233 638.488 284.597 638.347 284.933C638.206 285.269 637.991 285.568 637.717 285.809C637.089 286.315 636.294 286.569 635.489 286.521H631.268V281.228Z" fill="black"/>
<path d="M659.728 296.259C660.318 295.901 660.799 295.388 661.118 294.776C662.593 290.781 662.593 286.39 661.118 282.395C660.799 281.783 660.318 281.27 659.728 280.912C659.138 280.554 658.46 280.365 657.77 280.365C657.08 280.365 656.403 280.554 655.812 280.912C655.222 281.27 654.741 281.783 654.422 282.395C652.934 286.388 652.934 290.783 654.422 294.776C654.741 295.388 655.222 295.901 655.812 296.259C656.403 296.617 657.08 296.806 657.77 296.806C658.46 296.806 659.138 296.617 659.728 296.259Z" fill="black"/>
<path d="M705.847 286.376C706.664 286.43 707.475 286.197 708.138 285.716C708.414 285.482 708.631 285.186 708.773 284.853C708.914 284.52 708.976 284.158 708.953 283.797C708.97 283.439 708.906 283.082 708.765 282.753C708.623 282.424 708.409 282.132 708.138 281.898C707.48 281.405 706.667 281.164 705.847 281.217H701.72V286.376H705.847Z" fill="black"/>
<path d="M689.48 329.294C689.298 329.679 689.009 330.002 688.649 330.223C688.289 330.445 687.873 330.555 687.452 330.54C687.031 330.553 686.616 330.443 686.256 330.222C685.896 330.001 685.607 329.678 685.424 329.294C684.91 328.106 684.68 326.811 684.751 325.515C684.677 324.213 684.908 322.911 685.424 321.715C685.605 321.329 685.893 321.005 686.254 320.782C686.614 320.559 687.03 320.446 687.452 320.459C687.873 320.444 688.289 320.554 688.649 320.775C689.009 320.997 689.298 321.319 689.48 321.704C690.003 322.902 690.233 324.209 690.152 325.515C690.229 326.811 689.998 328.107 689.48 329.294Z" fill="black"/>
<path d="M699.703 320.991H702.257C702.742 320.96 703.221 321.112 703.602 321.417C703.769 321.565 703.902 321.749 703.991 321.955C704.08 322.161 704.123 322.384 704.117 322.609C704.124 322.828 704.083 323.045 703.998 323.246C703.913 323.446 703.785 323.625 703.623 323.77C703.243 324.079 702.764 324.234 702.278 324.206H699.703V320.991Z" fill="black"/>
<path fill-rule="evenodd" clip-rule="evenodd" d="M590.5 344.364V233.445H749.926V365H739.608V354.682H729.29V344.364H590.5ZM603.1 246.003C604.923 243.651 607.572 242.474 611.045 242.474C612.554 242.383 614.062 242.656 615.443 243.27C616.824 243.884 618.037 244.822 618.98 246.003C620.796 248.356 621.704 251.795 621.704 256.321C621.704 260.847 620.796 264.287 618.98 266.639C618.04 267.824 616.827 268.764 615.446 269.38C614.065 269.997 612.555 270.27 611.045 270.178C607.565 270.158 604.916 268.978 603.1 266.639C601.284 264.3 600.377 260.861 600.377 256.321C600.37 251.795 601.278 248.356 603.1 246.003ZM631.599 259.694H635.726C637.419 259.739 639.101 259.404 640.648 258.714C641.984 258.105 643.116 257.123 643.908 255.887C644.701 254.595 645.103 253.1 645.064 251.584C645.11 250.009 644.709 248.453 643.908 247.096C643.132 245.835 642.011 244.822 640.679 244.176C639.14 243.455 637.455 243.101 635.757 243.144H625.439V269.548H631.63L631.599 259.694ZM655.619 264.256H666.907V269.539H649.418V243.135H667.237V248.418H655.619V253.855H665.586V259.004H655.619V264.256ZM676.709 258.88L676.317 247.984H676.967L681.3 269.539H690.865V243.135H685.551V253.793L685.954 264.679H685.293L680.96 243.135H671.395V269.539H676.709V258.88ZM611.963 275.398C613.662 275.354 615.347 275.708 616.885 276.43C618.202 277.083 619.308 278.095 620.073 279.35C620.872 280.708 621.272 282.263 621.229 283.838C621.268 285.354 620.866 286.849 620.073 288.141C619.295 289.377 618.172 290.36 616.844 290.968C615.301 291.676 613.619 292.028 611.922 292H607.795V301.802H601.604V275.398H611.963ZM640.41 290.638C641.708 290.028 642.811 289.071 643.599 287.873C644.367 286.662 644.761 285.252 644.734 283.818C644.774 282.254 644.385 280.708 643.609 279.35C642.868 278.084 641.775 277.062 640.462 276.409C638.987 275.694 637.364 275.341 635.726 275.378H625.067V301.781H631.258V291.618H632.558L638.388 301.781H645.353L638.955 291.175C639.454 291.034 639.94 290.855 640.41 290.638ZM649.83 278.268C651.646 275.908 654.291 274.729 657.765 274.729C661.239 274.749 663.884 275.929 665.7 278.268C667.516 280.606 668.424 284.046 668.424 288.586C668.424 293.112 667.516 296.551 665.7 298.904C663.884 301.256 661.239 302.432 657.765 302.432C654.291 302.432 651.646 301.256 649.83 298.904C648.014 296.551 647.106 293.112 647.106 288.586C647.106 284.066 648.014 280.627 649.83 278.268ZM681.589 288.162H680.929L679.247 275.389H671.23V301.792H676.482V291.99L676.049 281.002H676.709L678.36 293.538H683.901L685.551 281.002H686.212L685.778 291.99V301.792H691.03V275.389H683.271L681.589 288.162ZM705.847 275.398C707.545 275.355 709.23 275.709 710.769 276.43C712.088 277.084 713.196 278.095 713.967 279.35C714.766 280.708 715.166 282.263 715.123 283.838C715.162 285.354 714.76 286.848 713.967 288.141C713.186 289.375 712.064 290.357 710.738 290.968C709.195 291.675 707.513 292.028 705.816 292H701.689V301.802H695.498V275.398H705.847ZM717.393 275.389V281.301H724.76V301.792H730.961V281.301H738.318V275.389H717.393ZM608.073 313.555H601.604V307.643H620.744V313.555H614.275V328.134H620.744V334.046H601.604V328.134H608.073V313.555ZM638.821 318.311L639.224 329.196H638.563L634.24 307.652H624.665V334.046H629.979V323.387L629.587 312.502H630.247L634.57 334.046H644.135V307.652H638.821V318.311ZM659.664 312.88C659.218 312.702 658.74 312.619 658.261 312.636C657.56 312.617 656.869 312.799 656.269 313.161C655.669 313.523 655.186 314.05 654.876 314.679C654.002 316.62 653.612 318.744 653.742 320.869C653.735 323.868 654.109 326.056 654.866 327.432C655.198 328.089 655.714 328.635 656.352 329.001C656.991 329.368 657.722 329.54 658.457 329.495C659.141 329.518 659.816 329.34 660.401 328.985C660.985 328.629 661.454 328.111 661.748 327.494C662.073 326.822 662.235 326.083 662.223 325.337H657.631V319.92H667.64V333.984H662.223V331.776H660.871C660.6 332.646 660.01 333.383 659.22 333.839C658.305 334.351 657.267 334.605 656.218 334.572C654.929 334.612 653.654 334.303 652.526 333.678C651.398 333.054 650.46 332.136 649.81 331.022C648.318 328.656 647.571 325.251 647.571 320.807C647.571 316.281 648.479 312.842 650.295 310.489C652.111 308.137 654.766 306.961 658.261 306.961C660.026 306.914 661.775 307.312 663.348 308.116C664.772 308.878 665.941 310.04 666.711 311.459C667.575 313.097 668.048 314.912 668.094 316.763H662.285C662.113 315.615 661.615 314.54 660.851 313.667C660.514 313.326 660.11 313.057 659.664 312.88ZM672 329H677V334H672V329ZM718.449 328.251H715.675V324.93H721.769V333.563H718.491V332.211H717.671C717.492 332.75 717.116 333.2 716.62 333.467C716.063 333.773 715.436 333.924 714.803 333.904C714.027 333.933 713.258 333.751 712.576 333.377C711.894 333.002 711.324 332.449 710.925 331.775C709.911 329.855 709.441 327.689 709.57 325.515C709.408 323.26 709.988 321.014 711.22 319.128C711.797 318.408 712.536 317.839 713.375 317.468C714.214 317.098 715.129 316.937 716.043 316.999C717.112 316.969 718.171 317.214 719.121 317.713C719.979 318.186 720.681 318.904 721.139 319.778C721.659 320.781 721.946 321.892 721.979 323.024H718.533C718.43 322.311 718.127 321.643 717.661 321.098C717.457 320.889 717.212 320.726 716.943 320.618C716.673 320.51 716.385 320.459 716.095 320.47C715.663 320.447 715.234 320.553 714.86 320.774C714.487 320.995 714.186 321.322 713.994 321.715C713.463 322.906 713.228 324.211 713.311 325.515C713.229 326.889 713.463 328.262 713.994 329.529C714.194 329.933 714.506 330.27 714.893 330.497C715.279 330.724 715.723 330.831 716.169 330.806C716.591 330.817 717.008 330.703 717.367 330.476C717.707 330.256 717.983 329.947 718.165 329.582C718.361 329.167 718.458 328.711 718.449 328.251ZM687.452 316.999C686.542 316.94 685.631 317.103 684.796 317.473C683.96 317.844 683.225 318.411 682.65 319.128C681.418 321.014 680.838 323.26 681 325.515C680.848 327.753 681.428 329.979 682.65 331.849C683.225 332.566 683.96 333.134 684.796 333.504C685.631 333.874 686.542 334.037 687.452 333.978C688.362 334.038 689.273 333.876 690.108 333.505C690.944 333.135 691.68 332.567 692.254 331.849C693.475 329.979 694.055 327.753 693.903 325.515C694.065 323.26 693.485 321.014 692.254 319.128C691.68 318.411 690.944 317.843 690.108 317.472C689.273 317.102 688.362 316.94 687.452 316.999ZM705.23 326.75C706.015 326.385 706.684 325.807 707.164 325.079C707.63 324.335 707.867 323.469 707.847 322.588C707.871 321.628 707.639 320.679 707.174 319.842C706.719 319.075 706.055 318.458 705.262 318.064C704.37 317.622 703.386 317.403 702.393 317.425H695.942V333.595H699.703V327.368H700.502L704.033 333.595H708.236L704.348 327.091C704.651 327.002 704.946 326.888 705.23 326.75Z" fill="black"/>
</g>
<defs>
<clipPath id="clip0_149_62">
<rect width="750" height="365" fill="white"/>
</clipPath>
</defs>
</svg>
