<svg width="750" height="365" viewBox="0 0 750 365" fill="none" xmlns="http://www.w3.org/2000/svg">
<g clip-path="url(#clip0_149_226)">
<path d="M88 61.5V39H750V344H88V234" stroke="white"/>
<path fill-rule="evenodd" clip-rule="evenodd" d="M590.5 344.364V233.445H749.926V344.364V354.682V365H739.608V354.682H729.29V344.364H590.5ZM603.1 246.003C604.923 243.651 607.571 242.474 611.045 242.474C612.554 242.383 614.062 242.656 615.443 243.27C616.824 243.884 618.037 244.821 618.98 246.003C620.796 248.356 621.704 251.795 621.704 256.321C621.704 260.847 620.796 264.287 618.98 266.639C618.039 267.824 616.827 268.764 615.446 269.38C614.064 269.997 612.555 270.27 611.045 270.178C607.565 270.158 604.916 268.978 603.1 266.639C601.284 264.3 600.376 260.861 600.376 256.321C600.369 251.795 601.277 248.356 603.1 246.003ZM612.998 264.005C613.588 263.647 614.069 263.134 614.388 262.522C615.863 258.527 615.863 254.136 614.388 250.141C614.069 249.529 613.588 249.016 612.998 248.658C612.407 248.3 611.73 248.111 611.04 248.111C610.35 248.111 609.673 248.3 609.082 248.658C608.492 249.016 608.011 249.529 607.692 250.141C606.217 254.136 606.217 258.527 607.692 262.522C608.011 263.134 608.492 263.647 609.082 264.005C609.673 264.363 610.35 264.552 611.04 264.552C611.73 264.552 612.407 264.363 612.998 264.005ZM631.599 259.694H635.726C637.419 259.739 639.101 259.404 640.648 258.714C641.984 258.105 643.116 257.123 643.908 255.887C644.701 254.595 645.103 253.1 645.064 251.584C645.11 250.009 644.709 248.453 643.908 247.096C643.132 245.835 642.011 244.822 640.679 244.176C639.14 243.455 637.455 243.101 635.757 243.144H625.439V269.548H631.63L631.599 259.694ZM631.599 248.974H635.726C636.546 248.92 637.359 249.162 638.017 249.655C638.274 249.9 638.479 250.196 638.619 250.523C638.759 250.85 638.831 251.202 638.831 251.558C638.831 251.914 638.759 252.267 638.619 252.594C638.479 252.921 638.274 253.216 638.017 253.462C637.354 253.943 636.543 254.176 635.726 254.122H631.599V248.974ZM655.619 264.256H666.907V269.539H649.418V243.135H667.237V248.418H655.619V253.855H665.586V259.004H655.619V264.256ZM676.709 258.88L676.317 247.984H676.967L681.3 269.539H690.865V243.135H685.551V253.793L685.954 264.679H685.294L680.96 243.135H671.395V269.539H676.709V258.88ZM611.963 275.398C613.662 275.354 615.347 275.708 616.885 276.43C618.202 277.083 619.308 278.095 620.073 279.35C620.872 280.708 621.272 282.263 621.229 283.838C621.268 285.354 620.866 286.849 620.073 288.141C619.295 289.377 618.172 290.36 616.844 290.968C615.301 291.676 613.619 292.028 611.922 292H607.795V301.802H601.604V275.398H611.963ZM612.397 286.377C613.214 286.431 614.024 286.197 614.687 285.716C614.962 285.481 615.178 285.186 615.318 284.852C615.458 284.519 615.517 284.158 615.492 283.797C615.512 283.44 615.449 283.084 615.31 282.754C615.17 282.425 614.957 282.133 614.687 281.898C614.029 281.406 613.217 281.164 612.397 281.217H608.27V286.377H612.397ZM640.41 290.638C641.708 290.028 642.811 289.071 643.599 287.873C644.367 286.662 644.761 285.252 644.734 283.818C644.774 282.254 644.385 280.708 643.609 279.35C642.868 278.084 641.775 277.062 640.462 276.409C638.988 275.694 637.364 275.341 635.726 275.378H625.067V301.781H631.258V291.618H632.558L638.388 301.781H645.353L638.955 291.175C639.454 291.034 639.94 290.855 640.41 290.638ZM631.269 281.228H635.489C636.294 281.18 637.089 281.434 637.717 281.94C637.988 282.181 638.201 282.479 638.342 282.813C638.483 283.147 638.548 283.507 638.532 283.869C638.552 284.233 638.488 284.597 638.347 284.933C638.206 285.269 637.991 285.568 637.717 285.809C637.089 286.315 636.294 286.569 635.489 286.521H631.269V281.228ZM649.831 278.268C651.647 275.908 654.291 274.729 657.765 274.729C661.239 274.749 663.884 275.929 665.7 278.268C667.516 280.606 668.424 284.046 668.424 288.586C668.424 293.112 667.516 296.551 665.7 298.904C663.884 301.256 661.239 302.432 657.765 302.432C654.291 302.432 651.647 301.256 649.831 298.904C648.015 296.551 647.107 293.112 647.107 288.586C647.107 284.066 648.015 280.627 649.831 278.268ZM659.728 296.259C660.318 295.901 660.799 295.388 661.119 294.776C662.593 290.781 662.593 286.39 661.119 282.395C660.799 281.783 660.318 281.27 659.728 280.912C659.138 280.554 658.461 280.365 657.77 280.365C657.08 280.365 656.403 280.554 655.813 280.912C655.222 281.27 654.741 281.783 654.422 282.395C652.934 286.388 652.934 290.783 654.422 294.776C654.741 295.388 655.222 295.901 655.813 296.259C656.403 296.617 657.08 296.806 657.77 296.806C658.461 296.806 659.138 296.617 659.728 296.259ZM681.59 288.162H680.929L679.247 275.389H671.23V301.792H676.482V291.99L676.049 281.002H676.709L678.36 293.538H683.901L685.552 281.002H686.212L685.779 291.99V301.792H691.03V275.389H683.271L681.59 288.162ZM705.847 275.398C707.545 275.355 709.23 275.709 710.769 276.43C712.088 277.084 713.196 278.095 713.967 279.35C714.766 280.708 715.166 282.263 715.123 283.838C715.162 285.354 714.76 286.848 713.967 288.141C713.186 289.375 712.064 290.357 710.738 290.968C709.195 291.675 707.513 292.028 705.816 292H701.689V301.802H695.498V275.398H705.847ZM705.847 286.376C706.664 286.43 707.475 286.197 708.138 285.716C708.414 285.482 708.631 285.186 708.773 284.853C708.914 284.52 708.976 284.158 708.953 283.797C708.97 283.439 708.906 283.082 708.765 282.753C708.623 282.424 708.409 282.132 708.138 281.898C707.48 281.405 706.667 281.164 705.847 281.217H701.72V286.376H705.847ZM717.393 275.389V281.301H724.76V301.792H730.961V281.301H738.318V275.389H717.393ZM608.073 313.555H601.604V307.643H620.744V313.555H614.275V328.134H620.744V334.046H601.604V328.134H608.073V313.555ZM638.821 318.311L639.224 329.196H638.563L634.24 307.652H624.665V334.046H629.979V323.387L629.587 312.502H630.247L634.57 334.046H644.135V307.652H638.821V318.311ZM659.664 312.88C659.218 312.702 658.74 312.619 658.26 312.636C657.56 312.617 656.869 312.799 656.269 313.161C655.669 313.523 655.186 314.05 654.876 314.679C654.002 316.62 653.612 318.744 653.741 320.869C653.734 323.868 654.109 326.056 654.866 327.432C655.197 328.089 655.714 328.635 656.352 329.001C656.99 329.368 657.722 329.54 658.457 329.495C659.14 329.518 659.816 329.34 660.401 328.985C660.985 328.629 661.453 328.111 661.748 327.494C662.072 326.822 662.235 326.083 662.223 325.337H657.631V319.92H667.64V333.984H662.223V331.776H660.871C660.599 332.646 660.01 333.383 659.22 333.839C658.304 334.351 657.266 334.605 656.218 334.572C654.929 334.612 653.653 334.303 652.526 333.678C651.398 333.054 650.46 332.136 649.81 331.022C648.317 328.656 647.571 325.251 647.571 320.807C647.571 316.281 648.479 312.842 650.295 310.489C652.111 308.137 654.766 306.961 658.26 306.961C660.026 306.914 661.775 307.312 663.347 308.116C664.771 308.878 665.941 310.04 666.711 311.459C667.574 313.097 668.048 314.912 668.094 316.763H662.285C662.113 315.615 661.615 314.54 660.85 313.667C660.514 313.326 660.11 313.057 659.664 312.88Z" fill="white"/>
<path d="M8.75 325.158V286H0V325.158V334H8.75H25V325.158H8.75Z" fill="white"/>
<path d="M8.75 8.84211V48H0V8.84211V0H8.75H25V8.84211H8.75Z" fill="white"/>
<path d="M720.25 8.84211V48H729V8.84211V0H720.25H704V8.84211H720.25Z" fill="white"/>
<g clip-path="url(#clip1_149_226)">
<path d="M66.32 135.099C68.9999 133.82 71.2485 131.787 72.79 129.249C74.3704 126.518 75.1598 123.402 75.07 120.249C75.1475 117.135 74.3581 114.06 72.79 111.369C71.2526 108.835 69.0021 106.81 66.32 105.549C63.2411 104.118 59.874 103.417 56.48 103.499H48.25V93.6188H73V82.7188H36.74V137.179H56.48C59.8772 137.261 63.2467 136.549 66.32 135.099ZM48.25 113.899H56.55C58.4162 113.779 60.2597 114.361 61.72 115.529C62.3437 116.106 62.832 116.815 63.1501 117.603C63.4682 118.391 63.6082 119.24 63.56 120.089C63.613 120.948 63.4756 121.809 63.1576 122.609C62.8395 123.41 62.3486 124.13 61.72 124.719C60.2612 125.89 58.4175 126.475 56.55 126.359H48.25V113.899Z" fill="white"/>
<path d="M106.94 121.249L110.4 137.179H122L109.72 82.7188H90.53L78.27 137.179H89.1L92.6 121.249H106.94ZM100.4 91.0988L104.58 110.359H95L99.24 91.0988H100.4Z" fill="white"/>
<path d="M162.4 130.999C164.031 128.553 164.875 125.668 164.82 122.729C164.919 119.873 164.227 117.046 162.82 114.559C161.544 112.358 159.516 110.693 157.11 109.869V108.369C159.477 107.64 161.542 106.158 162.99 104.149C164.434 102.104 165.187 99.6515 165.14 97.1488C165.2 94.2337 164.37 91.3696 162.76 88.9388C161.089 86.5397 158.792 84.6444 156.12 83.4587C153.005 82.08 149.626 81.3974 146.22 81.4587C142.433 81.3525 138.672 82.1082 135.22 83.6688C132.269 85.0596 129.803 87.3028 128.14 90.1087C126.369 93.2463 125.41 96.7765 125.35 100.379H136.1C136.476 97.92 137.662 95.6571 139.47 93.9487C141.3 92.4603 143.614 91.6985 145.97 91.8088C147.999 91.713 149.994 92.352 151.59 93.6087C152.279 94.17 152.831 94.882 153.202 95.6899C153.573 96.4978 153.754 97.38 153.73 98.2688C153.777 99.1427 153.626 100.016 153.291 100.824C152.955 101.632 152.442 102.355 151.79 102.939C150.224 104.136 148.277 104.726 146.31 104.599H140.12V114.539H146.12C147.085 114.475 148.054 114.602 148.97 114.912C149.887 115.223 150.733 115.711 151.46 116.349C152.107 117.017 152.608 117.814 152.93 118.687C153.252 119.56 153.388 120.49 153.33 121.419C153.375 122.651 153.053 123.868 152.405 124.917C151.757 125.966 150.812 126.798 149.69 127.309C148.437 127.888 147.07 128.178 145.69 128.159C143.451 128.278 141.246 127.566 139.5 126.159C137.83 124.597 136.726 122.525 136.36 120.269H125.61C125.634 123.731 126.547 127.13 128.26 130.139C129.895 132.854 132.3 135.022 135.17 136.369C138.514 137.875 142.154 138.606 145.82 138.509C149.23 138.571 152.612 137.889 155.73 136.509C158.417 135.319 160.725 133.413 162.4 130.999Z" fill="white"/>
<path d="M183.13 121.249H197.47L200.93 137.179H212.5L200.25 82.7188H181.05L168.8 137.179H179.62L183.13 121.249ZM190.92 91.0988L195.1 110.359H185.52L189.76 91.0988H190.92Z" fill="white"/>
<path d="M248.68 136.329C252.024 137.835 255.664 138.566 259.33 138.469C262.736 138.532 266.115 137.85 269.23 136.469C271.912 135.29 274.219 133.398 275.9 130.999C277.531 128.553 278.375 125.668 278.32 122.729C278.414 119.874 277.722 117.048 276.32 114.559C275.04 112.358 273.009 110.692 270.6 109.869V108.369C272.972 107.643 275.04 106.161 276.49 104.149C277.931 102.103 278.681 99.6505 278.63 97.1488C278.695 94.2331 277.864 91.3677 276.25 88.9388C274.579 86.5397 272.282 84.6444 269.61 83.4587C266.495 82.0778 263.116 81.3952 259.71 81.4587C255.923 81.3525 252.162 82.1082 248.71 83.6688C245.761 85.0622 243.296 87.3047 241.63 90.1087C239.859 93.2463 238.9 96.7765 238.84 100.379H249.6C249.977 97.9052 251.175 95.63 253 93.9188C254.834 92.4305 257.151 91.6688 259.51 91.7788C261.536 91.6845 263.527 92.3235 265.12 93.5788C265.811 94.139 266.365 94.8505 266.737 95.6585C267.11 96.4664 267.292 97.3492 267.27 98.2388C267.317 99.1127 267.166 99.986 266.831 100.794C266.495 101.602 265.982 102.325 265.33 102.909C263.763 104.105 261.817 104.695 259.85 104.569H253.65V114.509H259.65C260.617 114.444 261.587 114.57 262.505 114.881C263.423 115.192 264.271 115.68 265 116.319C265.645 116.989 266.144 117.785 266.466 118.658C266.788 119.53 266.926 120.46 266.87 121.389C266.91 122.62 266.586 123.835 265.938 124.883C265.291 125.931 264.349 126.764 263.23 127.279C261.962 127.865 260.577 128.156 259.18 128.129C256.938 128.248 254.73 127.536 252.98 126.129C251.313 124.566 250.213 122.494 249.85 120.239H239.11C239.138 123.702 240.053 127.101 241.77 130.109C243.399 132.827 245.806 134.993 248.68 136.329Z" fill="white"/>
<path d="M297.79 115.529H313.04V137.179H324.54V82.7188H313.04V104.639H297.79V82.7188H286.29V137.179H297.79V115.529Z" fill="white"/>
<path d="M344.4 121.249H358.74L362.2 137.179H373.77L361.52 82.7188H342.32L330.07 137.179H340.89L344.4 121.249ZM352.19 91.0988L356.37 110.359H346.79L351 91.0988H352.19Z" fill="white"/>
<path d="M390.76 115.529H406.01V137.179H417.51V82.7188H406.01V104.639H390.76V82.7188H379.25V137.179H390.76V115.529Z" fill="white"/>
<path d="M453.93 93.7487H455.16L454.48 112.129V137.179H465.3V82.7188H447.94L437.6 126.149H436.37L437.05 107.769V82.7188H426.23V137.179H443.59L453.93 93.7487Z" fill="white"/>
<path d="M483.9 75.3687C486.013 77.1221 489.157 77.9987 493.33 77.9987C497.503 77.9987 500.647 77.1121 502.76 75.3387C504.873 73.5721 506.11 70.7821 506.47 66.9688H497.21C497.142 68.1428 496.72 69.2688 496 70.1988C495.65 70.5498 495.229 70.821 494.765 70.9936C494.3 71.1662 493.804 71.2362 493.31 71.1988C492.823 71.2297 492.334 71.1566 491.877 70.9841C491.42 70.8117 491.005 70.544 490.66 70.1988C489.933 69.2841 489.51 68.1654 489.45 66.9987H480.19C480.563 70.8121 481.8 73.6021 483.9 75.3687Z" fill="white"/>
<path d="M485.16 126.149H483.94L484.62 107.769V82.7188H473.8V137.179H491.15L501.5 93.7487H502.73L502.04 112.129V137.179H512.87V82.7188H495.51L485.16 126.149Z" fill="white"/>
<path d="M54.44 155.629C47.4067 155.629 42.0734 158.036 38.44 162.849C34.8067 167.662 32.9934 174.766 33 184.159C33 193.552 34.8167 200.652 38.45 205.459C42.0834 210.266 47.4167 212.672 54.45 212.679C61.4767 212.679 66.81 210.272 70.45 205.459C74.09 200.646 75.9034 193.546 75.89 184.159C75.89 174.759 74.0767 167.656 70.45 162.849C66.8234 158.042 61.4867 155.636 54.44 155.629ZM61.93 197.739C61.2451 199.125 60.1732 200.283 58.8439 201.073C57.5146 201.863 55.985 202.25 54.44 202.189C52.9034 202.241 51.3845 201.848 50.065 201.059C48.7455 200.27 47.6814 199.117 47 197.739C45.3734 194.759 44.5567 190.232 44.55 184.159C44.5434 178.086 45.36 173.559 47 170.579C47.6835 169.191 48.7548 168.031 50.0842 167.239C51.4136 166.448 52.944 166.058 54.49 166.119C56.0361 166.058 57.5665 166.448 58.8959 167.239C60.2252 168.031 61.2966 169.191 61.98 170.579C63.6134 173.546 64.43 178.072 64.43 184.159C64.43 190.246 63.5967 194.772 61.93 197.739Z" fill="white"/>
<path d="M123.14 178.85H107.89V156.93H96.38V211.38H107.89V189.74H123.14V211.38H134.64V156.93H123.14V178.85Z" fill="white"/>
<path d="M144.75 211.38H179.67V201.44H156.25V189.06H176.94V179.39H156.25V166.86H180.35V156.93H144.75V211.38Z" fill="white"/>
<path d="M203.08 143.199H193.82C194.193 147.013 195.43 149.806 197.53 151.579C199.63 153.353 202.787 154.236 207 154.229C211.18 154.229 214.323 153.346 216.43 151.579C218.537 149.813 219.773 147.019 220.14 143.199H210.88C210.814 144.361 210.399 145.476 209.69 146.399C208.956 147.057 208.005 147.421 207.02 147.421C206.035 147.421 205.084 147.057 204.35 146.399C203.6 145.493 203.155 144.373 203.08 143.199Z" fill="white"/>
<path d="M198.79 200.35H197.57L198.25 181.98V156.93H187.43V211.38H204.78L215.13 167.95H216.35L215.68 186.33V211.38H226.5V156.93H209.14L198.79 200.35Z" fill="white"/>
<path d="M266.39 158.998C263.334 157.536 259.977 156.813 256.59 156.888H235.83V211.338H247.33V190.548H256.59C259.966 190.634 263.317 189.95 266.39 188.548C269.071 187.307 271.331 185.308 272.89 182.798C274.456 180.153 275.247 177.121 275.17 174.048C275.253 170.88 274.464 167.749 272.89 164.998C271.361 162.402 269.1 160.315 266.39 158.998ZM261.8 178.528C260.347 179.689 258.517 180.273 256.66 180.168H247.33V167.748H256.66C258.516 167.64 260.346 168.221 261.8 169.378C262.436 169.963 262.933 170.682 263.257 171.482C263.58 172.283 263.721 173.146 263.67 174.008C263.717 174.859 263.574 175.711 263.25 176.499C262.927 177.288 262.431 177.995 261.8 178.568V178.528Z" fill="white"/>
<path d="M300.92 155.629C293.887 155.629 288.553 158.036 284.92 162.849C281.287 167.662 279.47 174.766 279.47 184.159C279.47 193.552 281.287 200.652 284.92 205.459C288.553 210.266 293.887 212.672 300.92 212.679C307.96 212.679 313.293 210.272 316.92 205.459C320.547 200.646 322.363 193.546 322.37 184.159C322.37 174.759 320.553 167.656 316.92 162.849C313.287 158.042 307.953 155.636 300.92 155.629ZM308.41 197.739C307.68 199.093 306.598 200.224 305.277 201.012C303.957 201.8 302.448 202.217 300.91 202.217C299.372 202.217 297.863 201.8 296.543 201.012C295.222 200.224 294.14 199.093 293.41 197.739C291.803 194.759 291 190.232 291 184.159C291 178.086 291.817 173.559 293.45 170.579C294.177 169.222 295.259 168.089 296.58 167.298C297.9 166.508 299.411 166.09 300.95 166.09C302.489 166.09 304 166.508 305.32 167.298C306.641 168.089 307.723 169.222 308.45 170.579C310.09 173.546 310.907 178.072 310.9 184.159C310.893 190.246 310.063 194.772 308.41 197.739Z" fill="white"/>
<path d="M349.65 166.118C350.782 166.079 351.909 166.294 352.948 166.747C353.986 167.2 354.909 167.881 355.65 168.738C357.17 170.478 358.27 173.108 358.95 176.598H369.44C369.34 172.647 368.374 168.765 366.61 165.228C365.089 162.243 362.738 159.76 359.84 158.078C356.711 156.379 353.189 155.534 349.63 155.628C342.59 155.628 337.257 158.035 333.63 162.848C330.003 167.661 328.19 174.765 328.19 184.158C328.19 193.551 329.96 200.651 333.5 205.458C337.04 210.265 342.207 212.671 349 212.678C352.453 212.764 355.867 211.94 358.9 210.288C361.727 208.665 364.031 206.268 365.54 203.378C367.271 199.987 368.247 196.262 368.4 192.458H358C357.574 195.124 356.46 197.633 354.77 199.738C354.061 200.539 353.185 201.173 352.203 201.596C351.222 202.02 350.159 202.222 349.09 202.188C347.614 202.221 346.162 201.816 344.916 201.024C343.67 200.232 342.687 199.089 342.09 197.738C340.543 194.758 339.77 190.231 339.77 184.158C339.77 178.085 340.587 173.558 342.22 170.578C342.899 169.2 343.961 168.046 345.279 167.255C346.596 166.464 348.114 166.069 349.65 166.118Z" fill="white"/>
<path d="M377.05 211.38H411.97V201.44H388.56V189.06H409.25V179.39H388.56V166.86H412.65V156.93H377.05V211.38Z" fill="white"/>
<path d="M418.49 167.82H433.94V211.38H445.37V167.82H460.83V156.93H418.49V167.82Z" fill="white"/>
<path d="M474.58 159.069C471.858 160.41 469.596 162.53 468.08 165.159C466.486 168.055 465.696 171.324 465.79 174.629C465.717 177.712 466.511 180.754 468.08 183.409C469.621 185.924 471.887 187.914 474.58 189.119C475.705 189.649 476.881 190.065 478.09 190.359L463.75 211.359H476.62L489.89 191.079H492.89V211.359H504.39V156.929H484.51C481.077 156.843 477.673 157.577 474.58 159.069ZM492.89 167.749V181.499H485.13C483.051 181.625 481 180.968 479.38 179.659C478.047 178.322 477.298 176.511 477.298 174.624C477.298 172.736 478.047 170.925 479.38 169.589C481 168.279 483.051 167.622 485.13 167.749H492.89Z" fill="white"/>
<path d="M553.35 156.93H541.71L533.4 175.03L532.65 179.66H531.43L530.68 175.03L522.51 156.93H510.19L523.19 184.9L511.07 211.38H522.78L530.13 195.39L530.88 190.62H532.11L532.79 195.39L540 211.38H552.46L540.28 184.84L553.35 156.93Z" fill="white"/>
</g>
</g>
<defs>
<clipPath id="clip0_149_226">
<rect width="750" height="365" fill="white"/>
</clipPath>
<clipPath id="clip1_149_226">
<rect width="527.35" height="146.68" fill="white" transform="translate(33 67)"/>
</clipPath>
</defs>
</svg>
