<svg width="750" height="365" viewBox="0 0 750 365" fill="none" xmlns="http://www.w3.org/2000/svg">
<path d="M8.75 325.158V286H0V334H25V325.158H8.75Z" fill="white"/>
<path d="M8.75 8.8421V48H0V0H25V8.8421H8.75Z" fill="white"/>
<path d="M720.25 8.8421V48H729V0H704V8.8421H720.25Z" fill="white"/>
<path d="M66.32 135.099C68.9999 133.82 71.2484 131.787 72.79 129.249C74.3703 126.519 75.1598 123.403 75.07 120.249C75.1474 117.135 74.3581 114.061 72.79 111.369C71.2526 108.835 69.0021 106.811 66.32 105.549C63.2411 104.119 59.8739 103.417 56.48 103.499H48.25V93.6193H73V82.7193H36.74V137.179H56.48C59.8772 137.262 63.2467 136.549 66.32 135.099ZM48.25 113.899H56.55C58.4161 113.78 60.2597 114.361 61.72 115.529C62.3436 116.107 62.832 116.815 63.1501 117.603C63.4681 118.392 63.6081 119.241 63.56 120.089C63.613 120.949 63.4756 121.81 63.1575 122.61C62.8394 123.41 62.3486 124.131 61.72 124.719C60.2611 125.891 58.4174 126.476 56.55 126.359H48.25V113.899Z" fill="white"/>
<path d="M106.94 121.249L110.4 137.179H122L109.72 82.7193H90.53L78.27 137.179H89.1L92.6 121.249H106.94ZM100.4 91.0993L104.58 110.359H95L99.24 91.0993H100.4Z" fill="white"/>
<path d="M162.4 130.999C164.031 128.554 164.875 125.668 164.82 122.729C164.919 119.874 164.226 117.046 162.82 114.559C161.544 112.359 159.516 110.693 157.11 109.869V108.369C159.477 107.641 161.542 106.159 162.99 104.149C164.434 102.105 165.187 99.6521 165.14 97.1493C165.2 94.2342 164.37 91.3701 162.76 88.9393C161.089 86.5403 158.792 84.645 156.12 83.4593C153.005 82.0805 149.626 81.398 146.22 81.4593C142.433 81.353 138.672 82.1087 135.22 83.6693C132.269 85.0602 129.803 87.3033 128.14 90.1093C126.369 93.2469 125.41 96.777 125.35 100.379H136.1C136.476 97.9205 137.662 95.6576 139.47 93.9493C141.3 92.4609 143.614 91.699 145.97 91.8093C147.999 91.7135 149.994 92.3526 151.59 93.6093C152.279 94.1705 152.831 94.8825 153.202 95.6904C153.573 96.4983 153.754 97.3806 153.73 98.2693C153.777 99.1433 153.626 100.017 153.291 100.825C152.955 101.633 152.442 102.356 151.79 102.939C150.224 104.136 148.277 104.726 146.31 104.599H140.12V114.539H146.12C147.085 114.475 148.054 114.602 148.97 114.913C149.886 115.223 150.733 115.711 151.46 116.349C152.107 117.018 152.608 117.814 152.93 118.687C153.252 119.56 153.388 120.491 153.33 121.419C153.375 122.651 153.053 123.869 152.405 124.918C151.757 125.966 150.812 126.799 149.69 127.309C148.437 127.888 147.07 128.179 145.69 128.159C143.451 128.279 141.246 127.567 139.5 126.159C137.83 124.598 136.726 122.526 136.36 120.269H125.61C125.634 123.732 126.547 127.13 128.26 130.139C129.895 132.855 132.3 135.023 135.17 136.369C138.514 137.875 142.154 138.607 145.82 138.509C149.229 138.572 152.612 137.889 155.73 136.509C158.417 135.32 160.725 133.414 162.4 130.999Z" fill="white"/>
<path d="M183.13 121.249H197.47L200.93 137.179H212.5L200.25 82.7193H181.05L168.8 137.179H179.62L183.13 121.249ZM190.92 91.0993L195.1 110.359H185.52L189.76 91.0993H190.92Z" fill="white"/>
<path d="M248.68 136.329C252.024 137.835 255.664 138.567 259.33 138.469C262.736 138.533 266.115 137.85 269.23 136.469C271.912 135.291 274.219 133.399 275.9 130.999C277.531 128.554 278.375 125.668 278.32 122.729C278.414 119.874 277.722 117.048 276.32 114.559C275.04 112.358 273.009 110.693 270.6 109.869V108.369C272.972 107.644 275.04 106.162 276.49 104.149C277.931 102.104 278.681 99.6511 278.63 97.1493C278.695 94.2336 277.864 91.3682 276.25 88.9393C274.579 86.5403 272.282 84.645 269.61 83.4593C266.495 82.0784 263.116 81.3957 259.71 81.4593C255.923 81.353 252.162 82.1087 248.71 83.6693C245.761 85.0627 243.296 87.3053 241.63 90.1093C239.859 93.2469 238.9 96.777 238.84 100.379H249.6C249.977 97.9057 251.175 95.6306 253 93.9193C254.834 92.4311 257.151 91.6694 259.51 91.7793C261.536 91.685 263.527 92.3241 265.12 93.5793C265.811 94.1395 266.365 94.8511 266.737 95.659C267.11 96.467 267.292 97.3498 267.27 98.2393C267.317 99.1133 267.166 99.9865 266.831 100.795C266.495 101.603 265.982 102.326 265.33 102.909C263.763 104.106 261.817 104.695 259.85 104.569H253.65V114.509H259.65C260.617 114.444 261.587 114.571 262.505 114.881C263.423 115.192 264.271 115.681 265 116.319C265.645 116.989 266.144 117.786 266.466 118.658C266.788 119.531 266.926 120.461 266.87 121.389C266.91 122.62 266.586 123.836 265.938 124.883C265.291 125.931 264.349 126.764 263.23 127.279C261.962 127.866 260.577 128.157 259.18 128.129C256.938 128.249 254.73 127.537 252.98 126.129C251.313 124.567 250.213 122.495 249.85 120.239H239.11C239.138 123.703 240.053 127.101 241.77 130.109C243.399 132.827 245.806 134.994 248.68 136.329Z" fill="white"/>
<path d="M297.79 115.529H313.04V137.179H324.54V82.7193H313.04V104.639H297.79V82.7193H286.29V137.179H297.79V115.529Z" fill="white"/>
<path d="M344.4 121.249H358.74L362.2 137.179H373.77L361.52 82.7193H342.32L330.07 137.179H340.89L344.4 121.249ZM352.19 91.0993L356.37 110.359H346.79L351 91.0993H352.19Z" fill="white"/>
<path d="M390.76 115.529H406.01V137.179H417.51V82.7193H406.01V104.639H390.76V82.7193H379.25V137.179H390.76V115.529Z" fill="white"/>
<path d="M453.93 93.7493H455.16L454.48 112.129V137.179H465.3V82.7193H447.94L437.6 126.149H436.37L437.05 107.769V82.7193H426.23V137.179H443.59L453.93 93.7493Z" fill="white"/>
<path d="M483.9 75.3693C486.013 77.1226 489.157 77.9993 493.33 77.9993C497.503 77.9993 500.647 77.1126 502.76 75.3393C504.873 73.5726 506.11 70.7826 506.47 66.9693H497.21C497.142 68.1434 496.72 69.2693 496 70.1993C495.65 70.5504 495.229 70.8215 494.765 70.9942C494.3 71.1668 493.804 71.2368 493.31 71.1993C492.823 71.2303 492.334 71.1571 491.877 70.9847C491.42 70.8123 491.005 70.5445 490.66 70.1993C489.933 69.2846 489.51 68.1659 489.45 66.9993H480.19C480.563 70.8126 481.8 73.6026 483.9 75.3693Z" fill="white"/>
<path d="M485.16 126.149H483.94L484.62 107.769V82.7193H473.8V137.179H491.15L501.5 93.7493H502.73L502.04 112.129V137.179H512.87V82.7193H495.51L485.16 126.149Z" fill="white"/>
<path d="M54.44 155.629C47.4067 155.629 42.0733 158.036 38.44 162.849C34.8066 167.663 32.9933 174.766 33 184.159C33 193.553 34.8166 200.653 38.45 205.459C42.0833 210.266 47.4166 212.673 54.45 212.679C61.4766 212.679 66.81 210.273 70.45 205.459C74.09 200.646 75.9033 193.546 75.89 184.159C75.89 174.759 74.0766 167.656 70.45 162.849C66.8233 158.043 61.4866 155.636 54.44 155.629ZM61.93 197.739C61.2451 199.126 60.1732 200.284 58.8439 201.073C57.5146 201.863 55.9849 202.251 54.44 202.189C52.9034 202.241 51.3844 201.849 50.065 201.06C48.7455 200.27 47.6814 199.118 47 197.739C45.3733 194.759 44.5566 190.233 44.55 184.159C44.5433 178.086 45.36 173.559 47 170.579C47.6834 169.191 48.7548 168.031 50.0841 167.24C51.4135 166.448 52.9439 166.059 54.49 166.119C56.036 166.059 57.5664 166.448 58.8958 167.24C60.2252 168.031 61.2965 169.191 61.98 170.579C63.6133 173.546 64.43 178.073 64.43 184.159C64.43 190.246 63.5966 194.773 61.93 197.739Z" fill="white"/>
<path d="M123.14 178.85H107.89V156.93H96.38V211.38H107.89V189.74H123.14V211.38H134.64V156.93H123.14V178.85Z" fill="white"/>
<path d="M144.75 211.38H179.67V201.44H156.25V189.06H176.94V179.39H156.25V166.86H180.35V156.93H144.75V211.38Z" fill="white"/>
<path d="M203.08 143.2H193.82C194.193 147.013 195.43 149.806 197.53 151.58C199.63 153.353 202.787 154.236 207 154.23C211.18 154.23 214.323 153.346 216.43 151.58C218.537 149.813 219.773 147.02 220.14 143.2H210.88C210.814 144.362 210.399 145.477 209.69 146.4C208.956 147.058 208.005 147.421 207.02 147.421C206.035 147.421 205.084 147.058 204.35 146.4C203.6 145.494 203.155 144.374 203.08 143.2Z" fill="white"/>
<path d="M198.79 200.35H197.57L198.25 181.98V156.93H187.43V211.38H204.78L215.13 167.95H216.35L215.68 186.33V211.38H226.5V156.93H209.14L198.79 200.35Z" fill="white"/>
<path d="M266.39 158.999C263.334 157.536 259.977 156.813 256.59 156.889H235.83V211.339H247.33V190.549H256.59C259.966 190.634 263.317 189.95 266.39 188.549C269.071 187.307 271.331 185.309 272.89 182.799C274.456 180.154 275.247 177.122 275.17 174.049C275.253 170.88 274.464 167.75 272.89 164.999C271.361 162.403 269.1 160.316 266.39 158.999ZM261.8 178.529C260.347 179.69 258.517 180.274 256.66 180.169H247.33V167.749H256.66C258.516 167.641 260.346 168.221 261.8 169.379C262.436 169.963 262.933 170.682 263.257 171.483C263.58 172.284 263.721 173.147 263.67 174.009C263.717 174.86 263.574 175.711 263.25 176.5C262.927 177.289 262.431 177.996 261.8 178.569V178.529Z" fill="white"/>
<path d="M300.92 155.629C293.887 155.629 288.553 158.036 284.92 162.849C281.287 167.663 279.47 174.766 279.47 184.159C279.47 193.553 281.287 200.653 284.92 205.459C288.553 210.266 293.887 212.673 300.92 212.679C307.96 212.679 313.293 210.273 316.92 205.459C320.547 200.646 322.363 193.546 322.37 184.159C322.37 174.759 320.553 167.656 316.92 162.849C313.287 158.043 307.953 155.636 300.92 155.629ZM308.41 197.739C307.68 199.093 306.598 200.224 305.277 201.013C303.957 201.801 302.448 202.217 300.91 202.217C299.372 202.217 297.863 201.801 296.543 201.013C295.222 200.224 294.14 199.093 293.41 197.739C291.803 194.759 291 190.233 291 184.159C291 178.086 291.817 173.559 293.45 170.579C294.177 169.223 295.259 168.089 296.58 167.299C297.9 166.508 299.411 166.091 300.95 166.091C302.489 166.091 304 166.508 305.32 167.299C306.641 168.089 307.723 169.223 308.45 170.579C310.09 173.546 310.907 178.073 310.9 184.159C310.893 190.246 310.063 194.773 308.41 197.739Z" fill="white"/>
<path d="M349.65 166.119C350.782 166.079 351.909 166.294 352.947 166.747C353.986 167.201 354.909 167.881 355.65 168.739C357.17 170.479 358.27 173.109 358.95 176.599H369.44C369.34 172.647 368.374 168.766 366.61 165.229C365.089 162.243 362.738 159.76 359.84 158.079C356.711 156.38 353.189 155.535 349.63 155.629C342.59 155.629 337.257 158.035 333.63 162.849C330.003 167.662 328.19 174.765 328.19 184.159C328.19 193.552 329.96 200.652 333.5 205.459C337.04 210.265 342.207 212.672 349 212.679C352.453 212.765 355.867 211.941 358.9 210.289C361.727 208.666 364.031 206.268 365.54 203.379C367.271 199.988 368.247 196.263 368.4 192.459H358C357.574 195.125 356.46 197.634 354.77 199.739C354.061 200.539 353.185 201.174 352.203 201.597C351.222 202.02 350.159 202.222 349.09 202.189C347.614 202.222 346.161 201.817 344.916 201.025C343.67 200.233 342.687 199.089 342.09 197.739C340.543 194.759 339.77 190.232 339.77 184.159C339.77 178.085 340.587 173.559 342.22 170.579C342.899 169.2 343.961 168.046 345.279 167.256C346.596 166.465 348.114 166.07 349.65 166.119Z" fill="white"/>
<path d="M377.05 211.38H411.97V201.44H388.56V189.06H409.25V179.39H388.56V166.86H412.65V156.93H377.05V211.38Z" fill="white"/>
<path d="M418.49 167.82H433.94V211.38H445.37V167.82H460.83V156.93H418.49V167.82Z" fill="white"/>
<path d="M474.58 159.069C471.858 160.41 469.596 162.53 468.08 165.159C466.486 168.055 465.696 171.325 465.79 174.629C465.717 177.712 466.511 180.754 468.08 183.409C469.621 185.924 471.887 187.915 474.58 189.119C475.705 189.65 476.881 190.065 478.09 190.359L463.75 211.359H476.62L489.89 191.079H492.89V211.359H504.39V156.929H484.51C481.077 156.844 477.673 157.578 474.58 159.069ZM492.89 167.749V181.499H485.13C483.051 181.625 481 180.969 479.38 179.659C478.047 178.322 477.298 176.512 477.298 174.624C477.298 172.736 478.047 170.926 479.38 169.589C481 168.279 483.051 167.623 485.13 167.749H492.89Z" fill="white"/>
<path d="M553.35 156.93H541.71L533.4 175.03L532.65 179.66H531.43L530.68 175.03L522.51 156.93H510.19L523.19 184.9L511.07 211.38H522.78L530.13 195.39L530.88 190.62H532.11L532.79 195.39L540 211.38H552.46L540.28 184.84L553.35 156.93Z" fill="white"/>
<path d="M612.498 264.005C613.088 263.647 613.569 263.134 613.888 262.522C615.363 258.527 615.363 254.136 613.888 250.141C613.569 249.529 613.088 249.016 612.498 248.658C611.908 248.3 611.23 248.111 610.54 248.111C609.85 248.111 609.173 248.3 608.582 248.658C607.992 249.016 607.511 249.529 607.192 250.141C605.717 254.136 605.717 258.527 607.192 262.522C607.511 263.134 607.992 263.647 608.582 264.005C609.173 264.363 609.85 264.552 610.54 264.552C611.23 264.552 611.908 264.363 612.498 264.005Z" fill="white"/>
<path d="M631.099 248.974H635.226C636.046 248.92 636.859 249.162 637.517 249.655C637.774 249.9 637.979 250.196 638.119 250.523C638.259 250.85 638.332 251.202 638.332 251.558C638.332 251.914 638.259 252.267 638.119 252.594C637.979 252.921 637.774 253.216 637.517 253.462C636.854 253.943 636.043 254.176 635.226 254.122H631.099V248.974Z" fill="white"/>
<path d="M611.897 286.377C612.714 286.431 613.524 286.197 614.187 285.716C614.462 285.481 614.678 285.186 614.818 284.852C614.958 284.519 615.017 284.158 614.992 283.797C615.012 283.44 614.949 283.083 614.81 282.754C614.67 282.425 614.457 282.133 614.187 281.898C613.529 281.406 612.717 281.164 611.897 281.217H607.769V286.377H611.897Z" fill="white"/>
<path d="M630.768 281.228H634.989C635.794 281.18 636.589 281.434 637.217 281.94C637.488 282.181 637.701 282.479 637.842 282.813C637.983 283.147 638.048 283.507 638.032 283.869C638.052 284.233 637.988 284.597 637.847 284.933C637.706 285.269 637.491 285.568 637.217 285.809C636.589 286.315 635.794 286.569 634.989 286.521H630.768V281.228Z" fill="white"/>
<path d="M659.228 296.259C659.818 295.901 660.299 295.388 660.618 294.776C662.093 290.781 662.093 286.39 660.618 282.395C660.299 281.783 659.818 281.27 659.228 280.912C658.638 280.554 657.96 280.365 657.27 280.365C656.58 280.365 655.903 280.554 655.312 280.912C654.722 281.27 654.241 281.783 653.922 282.395C652.434 286.388 652.434 290.783 653.922 294.776C654.241 295.388 654.722 295.901 655.312 296.259C655.903 296.617 656.58 296.806 657.27 296.806C657.96 296.806 658.638 296.617 659.228 296.259Z" fill="white"/>
<path d="M705.347 286.376C706.164 286.43 706.975 286.197 707.638 285.716C707.914 285.482 708.131 285.186 708.273 284.853C708.414 284.52 708.476 284.158 708.453 283.797C708.47 283.439 708.406 283.082 708.265 282.753C708.123 282.424 707.909 282.132 707.638 281.898C706.98 281.405 706.167 281.164 705.347 281.217H701.22V286.376H705.347Z" fill="white"/>
<path d="M688.98 329.294C688.798 329.679 688.509 330.002 688.149 330.223C687.789 330.445 687.373 330.555 686.952 330.54C686.531 330.553 686.116 330.443 685.756 330.222C685.396 330.001 685.107 329.678 684.924 329.294C684.41 328.106 684.18 326.811 684.251 325.515C684.177 324.213 684.408 322.911 684.924 321.715C685.105 321.329 685.393 321.005 685.754 320.782C686.114 320.559 686.53 320.446 686.952 320.459C687.373 320.444 687.789 320.554 688.149 320.775C688.509 320.997 688.798 321.319 688.98 321.704C689.503 322.902 689.733 324.209 689.652 325.515C689.729 326.811 689.498 328.107 688.98 329.294Z" fill="white"/>
<path d="M699.203 320.991H701.757C702.242 320.96 702.721 321.112 703.102 321.417C703.269 321.565 703.402 321.749 703.491 321.955C703.58 322.161 703.623 322.384 703.617 322.609C703.624 322.828 703.583 323.045 703.498 323.246C703.413 323.446 703.285 323.625 703.123 323.77C702.743 324.079 702.264 324.234 701.778 324.206H699.203V320.991Z" fill="white"/>
<path fill-rule="evenodd" clip-rule="evenodd" d="M590 344.364V233.445H749.426V365H739.108V354.682H728.79V344.364H590ZM602.6 246.003C604.423 243.651 607.072 242.474 610.545 242.474C612.054 242.383 613.562 242.656 614.943 243.27C616.324 243.884 617.537 244.822 618.48 246.003C620.296 248.356 621.204 251.795 621.204 256.321C621.204 260.847 620.296 264.287 618.48 266.639C617.54 267.824 616.327 268.764 614.946 269.38C613.565 269.997 612.055 270.27 610.545 270.178C607.065 270.158 604.416 268.978 602.6 266.639C600.784 264.3 599.877 260.861 599.877 256.321C599.87 251.795 600.778 248.356 602.6 246.003ZM631.099 259.694H635.226C636.919 259.739 638.601 259.404 640.148 258.714C641.484 258.105 642.616 257.123 643.408 255.887C644.201 254.595 644.603 253.1 644.564 251.584C644.61 250.009 644.209 248.453 643.408 247.096C642.632 245.835 641.511 244.822 640.179 244.176C638.64 243.455 636.955 243.101 635.257 243.144H624.939V269.548H631.13L631.099 259.694ZM655.119 264.256H666.407V269.539H648.918V243.135H666.737V248.418H655.119V253.855H665.086V259.004H655.119V264.256ZM676.209 258.88L675.817 247.984H676.467L680.8 269.539H690.365V243.135H685.051V253.793L685.454 264.679H684.793L680.46 243.135H670.895V269.539H676.209V258.88ZM611.463 275.398C613.162 275.354 614.847 275.708 616.385 276.43C617.702 277.083 618.808 278.095 619.573 279.35C620.372 280.708 620.772 282.263 620.729 283.838C620.768 285.354 620.366 286.849 619.573 288.141C618.795 289.377 617.672 290.36 616.344 290.968C614.801 291.676 613.119 292.028 611.422 292H607.295V301.802H601.104V275.398H611.463ZM639.91 290.638C641.208 290.028 642.311 289.071 643.099 287.873C643.867 286.662 644.261 285.252 644.234 283.818C644.274 282.254 643.885 280.708 643.109 279.35C642.368 278.084 641.275 277.062 639.962 276.409C638.487 275.694 636.864 275.341 635.226 275.378H624.567V301.781H630.758V291.618H632.058L637.888 301.781H644.853L638.455 291.175C638.954 291.034 639.44 290.855 639.91 290.638ZM649.33 278.268C651.146 275.908 653.791 274.729 657.265 274.729C660.739 274.749 663.384 275.929 665.2 278.268C667.016 280.606 667.924 284.046 667.924 288.586C667.924 293.112 667.016 296.551 665.2 298.904C663.384 301.256 660.739 302.432 657.265 302.432C653.791 302.432 651.146 301.256 649.33 298.904C647.514 296.551 646.606 293.112 646.606 288.586C646.606 284.066 647.514 280.627 649.33 278.268ZM681.089 288.162H680.429L678.747 275.389H670.73V301.792H675.982V291.99L675.549 281.002H676.209L677.86 293.538H683.401L685.051 281.002H685.712L685.278 291.99V301.792H690.53V275.389H682.771L681.089 288.162ZM705.347 275.398C707.045 275.355 708.73 275.709 710.269 276.43C711.588 277.084 712.696 278.095 713.467 279.35C714.266 280.708 714.666 282.263 714.623 283.838C714.662 285.354 714.26 286.848 713.467 288.141C712.686 289.375 711.564 290.357 710.238 290.968C708.695 291.675 707.013 292.028 705.316 292H701.189V301.802H694.998V275.398H705.347ZM716.893 275.389V281.301H724.26V301.792H730.461V281.301H737.818V275.389H716.893ZM607.573 313.555H601.104V307.643H620.244V313.555H613.775V328.134H620.244V334.046H601.104V328.134H607.573V313.555ZM638.321 318.311L638.724 329.196H638.063L633.74 307.652H624.165V334.046H629.479V323.387L629.087 312.502H629.747L634.07 334.046H643.635V307.652H638.321V318.311ZM659.164 312.88C658.718 312.702 658.24 312.619 657.761 312.636C657.06 312.617 656.369 312.799 655.769 313.161C655.169 313.523 654.686 314.05 654.376 314.679C653.502 316.62 653.112 318.744 653.242 320.869C653.235 323.868 653.609 326.056 654.366 327.432C654.698 328.089 655.214 328.635 655.852 329.001C656.491 329.368 657.222 329.54 657.957 329.495C658.641 329.518 659.316 329.34 659.901 328.985C660.485 328.629 660.954 328.111 661.248 327.494C661.573 326.822 661.735 326.083 661.723 325.337H657.131V319.92H667.14V333.984H661.723V331.776H660.371C660.1 332.646 659.51 333.383 658.72 333.839C657.805 334.351 656.767 334.605 655.718 334.572C654.429 334.612 653.154 334.303 652.026 333.678C650.898 333.054 649.96 332.136 649.31 331.022C647.818 328.656 647.071 325.251 647.071 320.807C647.071 316.281 647.979 312.842 649.795 310.489C651.611 308.137 654.266 306.961 657.761 306.961C659.526 306.914 661.275 307.312 662.848 308.116C664.272 308.878 665.441 310.04 666.211 311.459C667.075 313.097 667.548 314.912 667.594 316.763H661.785C661.613 315.615 661.115 314.54 660.351 313.667C660.014 313.326 659.61 313.057 659.164 312.88ZM671.5 329H676.5V334H671.5V329ZM717.949 328.251H715.175V324.93H721.269V333.563H717.991V332.211H717.171C716.992 332.75 716.616 333.2 716.12 333.467C715.563 333.773 714.936 333.924 714.303 333.904C713.527 333.933 712.758 333.751 712.076 333.377C711.394 333.002 710.824 332.449 710.425 331.775C709.411 329.855 708.941 327.689 709.07 325.515C708.908 323.26 709.488 321.014 710.72 319.128C711.297 318.408 712.036 317.839 712.875 317.468C713.714 317.098 714.629 316.937 715.543 316.999C716.612 316.969 717.671 317.214 718.621 317.713C719.479 318.186 720.181 318.904 720.639 319.778C721.159 320.781 721.446 321.892 721.479 323.024H718.033C717.93 322.311 717.627 321.643 717.161 321.098C716.957 320.889 716.712 320.726 716.443 320.618C716.173 320.51 715.885 320.459 715.595 320.47C715.163 320.447 714.734 320.553 714.36 320.774C713.987 320.995 713.686 321.322 713.494 321.715C712.963 322.906 712.728 324.211 712.811 325.515C712.729 326.889 712.963 328.262 713.494 329.529C713.694 329.933 714.006 330.27 714.393 330.497C714.779 330.724 715.223 330.831 715.669 330.806C716.091 330.817 716.508 330.703 716.867 330.476C717.207 330.256 717.483 329.947 717.665 329.582C717.861 329.167 717.958 328.711 717.949 328.251ZM686.952 316.999C686.042 316.94 685.131 317.103 684.296 317.473C683.46 317.844 682.725 318.411 682.15 319.128C680.918 321.014 680.338 323.26 680.5 325.515C680.348 327.753 680.928 329.979 682.15 331.849C682.725 332.566 683.46 333.134 684.296 333.504C685.131 333.874 686.042 334.037 686.952 333.978C687.862 334.038 688.773 333.876 689.608 333.505C690.444 333.135 691.18 332.567 691.754 331.849C692.975 329.979 693.555 327.753 693.403 325.515C693.565 323.26 692.985 321.014 691.754 319.128C691.18 318.411 690.444 317.843 689.608 317.472C688.773 317.102 687.862 316.94 686.952 316.999ZM704.73 326.75C705.515 326.385 706.184 325.807 706.664 325.079C707.13 324.335 707.367 323.469 707.347 322.588C707.371 321.628 707.139 320.679 706.674 319.842C706.219 319.075 705.555 318.458 704.762 318.064C703.87 317.622 702.886 317.403 701.893 317.425H695.442V333.595H699.203V327.368H700.002L703.533 333.595H707.736L703.848 327.091C704.151 327.002 704.446 326.888 704.73 326.75Z" fill="white"/>
</svg>
