<svg width="750" height="365" viewBox="0 0 750 365" fill="none" xmlns="http://www.w3.org/2000/svg">
<path d="M750 39H88V345H750V39Z" fill="#00EF00"/>
<path d="M720.25 8.8421V48H729V0H704V8.8421H720.25Z" fill="black"/>
<path d="M8.75 8.8421V48H0V0H25V8.8421H8.75Z" fill="black"/>
<path d="M8.75 327.158V288H0V336H25V327.158H8.75Z" fill="black"/>
<path d="M596.79 39V18.06H605.13C607.01 18.06 608.45 18.6 609.45 19.68C610.47 20.74 610.98 22.2 610.98 24.06C610.98 25.92 610.47 27.39 609.45 28.47C608.45 29.53 607.01 30.06 605.13 30.06H599.31V39H596.79ZM599.31 27.84H605.13C606.13 27.84 606.9 27.58 607.44 27.06C608 26.54 608.28 25.8 608.28 24.84V23.28C608.28 22.32 608 21.58 607.44 21.06C606.9 20.54 606.13 20.28 605.13 20.28H599.31V27.84Z" fill="black"/>
<path d="M620.277 39.36C619.217 39.36 618.257 39.17 617.397 38.79C616.557 38.41 615.827 37.87 615.207 37.17C614.607 36.45 614.137 35.6 613.797 34.62C613.477 33.62 613.317 32.5 613.317 31.26C613.317 30.04 613.477 28.93 613.797 27.93C614.137 26.93 614.607 26.08 615.207 25.38C615.827 24.66 616.557 24.11 617.397 23.73C618.257 23.35 619.217 23.16 620.277 23.16C621.317 23.16 622.247 23.35 623.067 23.73C623.887 24.11 624.587 24.64 625.167 25.32C625.747 25.98 626.187 26.77 626.487 27.69C626.807 28.61 626.967 29.62 626.967 30.72V31.86H615.837V32.58C615.837 33.24 615.937 33.86 616.137 34.44C616.357 35 616.657 35.49 617.037 35.91C617.437 36.33 617.917 36.66 618.477 36.9C619.057 37.14 619.707 37.26 620.427 37.26C621.407 37.26 622.257 37.03 622.977 36.57C623.717 36.11 624.287 35.45 624.687 34.59L626.397 35.82C625.897 36.88 625.117 37.74 624.057 38.4C622.997 39.04 621.737 39.36 620.277 39.36ZM620.277 25.17C619.617 25.17 619.017 25.29 618.477 25.53C617.937 25.75 617.467 26.07 617.067 26.49C616.687 26.91 616.387 27.41 616.167 27.99C615.947 28.55 615.837 29.17 615.837 29.85V30.06H624.387V29.73C624.387 28.35 624.007 27.25 623.247 26.43C622.507 25.59 621.517 25.17 620.277 25.17Z" fill="black"/>
<path d="M643.702 39H631.222V23.52H633.622V36.9H640.912V23.52H643.312V36.9H645.892V43.2H643.702V39Z" fill="black"/>
<path d="M655.331 39.36C654.271 39.36 653.311 39.17 652.451 38.79C651.611 38.41 650.881 37.87 650.261 37.17C649.661 36.45 649.191 35.6 648.851 34.62C648.531 33.62 648.371 32.5 648.371 31.26C648.371 30.04 648.531 28.93 648.851 27.93C649.191 26.93 649.661 26.08 650.261 25.38C650.881 24.66 651.611 24.11 652.451 23.73C653.311 23.35 654.271 23.16 655.331 23.16C656.371 23.16 657.301 23.35 658.121 23.73C658.941 24.11 659.641 24.64 660.221 25.32C660.801 25.98 661.241 26.77 661.541 27.69C661.861 28.61 662.021 29.62 662.021 30.72V31.86H650.891V32.58C650.891 33.24 650.991 33.86 651.191 34.44C651.411 35 651.711 35.49 652.091 35.91C652.491 36.33 652.971 36.66 653.531 36.9C654.111 37.14 654.761 37.26 655.481 37.26C656.461 37.26 657.311 37.03 658.031 36.57C658.771 36.11 659.341 35.45 659.741 34.59L661.451 35.82C660.951 36.88 660.171 37.74 659.111 38.4C658.051 39.04 656.791 39.36 655.331 39.36ZM655.331 25.17C654.671 25.17 654.071 25.29 653.531 25.53C652.991 25.75 652.521 26.07 652.121 26.49C651.741 26.91 651.441 27.41 651.221 27.99C651.001 28.55 650.891 29.17 650.891 29.85V30.06H659.441V29.73C659.441 28.35 659.061 27.25 658.301 26.43C657.561 25.59 656.571 25.17 655.331 25.17Z" fill="black"/>
<path d="M666.275 23.52H678.365V39H675.965V25.62H668.675V39H666.275V23.52Z" fill="black"/>
<path d="M687.103 25.62H681.823V23.52H694.783V25.62H689.503V39H687.103V25.62Z" fill="black"/>
<path d="M594.24 64.9H596.01C596.63 63.9 597.13 62.65 597.51 61.15C597.89 59.65 598.08 57.93 598.08 55.99V51.52H608.55V64.9H611.13V71.2H608.94V67H596.43V71.2H594.24V64.9ZM606.15 64.9V53.62H600.36V56.11C600.36 58.17 600.18 59.93 599.82 61.39C599.48 62.83 599.07 64 598.59 64.9H606.15Z" fill="black"/>
<path d="M614.75 51.52H617.09V60.1L616.85 63.82H616.97L618.89 60.52L625.07 51.52H627.29V67H624.95V58.42L625.19 54.7H625.07L623.15 58L616.97 67H614.75V51.52Z" fill="black"/>
<path d="M637.067 67.36C635.487 67.36 634.227 67.09 633.287 66.55C632.347 66.01 631.577 65.24 630.977 64.24L632.777 62.8C633.177 63.56 633.727 64.16 634.427 64.6C635.147 65.02 636.027 65.23 637.067 65.23C638.327 65.23 639.257 65 639.857 64.54C640.477 64.08 640.787 63.49 640.787 62.77V62.41C640.787 61.63 640.517 61.04 639.977 60.64C639.457 60.22 638.717 60.01 637.757 60.01H634.457V58H637.457C638.417 58 639.157 57.81 639.677 57.43C640.197 57.05 640.457 56.51 640.457 55.81V55.45C640.457 54.79 640.187 54.27 639.647 53.89C639.127 53.49 638.247 53.29 637.007 53.29C635.987 53.29 635.147 53.5 634.487 53.92C633.827 54.32 633.297 54.87 632.897 55.57L631.307 54.22C631.787 53.32 632.487 52.59 633.407 52.03C634.347 51.45 635.587 51.16 637.127 51.16C639.147 51.16 640.637 51.53 641.597 52.27C642.557 53.01 643.037 54.03 643.037 55.33C643.037 56.29 642.777 57.05 642.257 57.61C641.757 58.17 641.027 58.56 640.067 58.78V58.9C641.167 59.06 641.987 59.46 642.527 60.1C643.087 60.72 643.367 61.52 643.367 62.5C643.367 64 642.797 65.19 641.657 66.07C640.537 66.93 639.007 67.36 637.067 67.36Z" fill="black"/>
<path d="M659.12 67C658.22 67 657.57 66.76 657.17 66.28C656.79 65.8 656.55 65.2 656.45 64.48H656.3C655.96 65.44 655.4 66.16 654.62 66.64C653.84 67.12 652.91 67.36 651.83 67.36C650.19 67.36 648.91 66.94 647.99 66.1C647.09 65.26 646.64 64.12 646.64 62.68C646.64 61.22 647.17 60.1 648.23 59.32C649.31 58.54 650.98 58.15 653.24 58.15H656.3V56.62C656.3 55.52 656 54.68 655.4 54.1C654.8 53.52 653.88 53.23 652.64 53.23C651.7 53.23 650.91 53.44 650.27 53.86C649.65 54.28 649.13 54.84 648.71 55.54L647.27 54.19C647.69 53.35 648.36 52.64 649.28 52.06C650.2 51.46 651.36 51.16 652.76 51.16C654.64 51.16 656.1 51.62 657.14 52.54C658.18 53.46 658.7 54.74 658.7 56.38V64.9H660.47V67H659.12ZM652.22 65.32C652.82 65.32 653.37 65.25 653.87 65.11C654.37 64.97 654.8 64.77 655.16 64.51C655.52 64.25 655.8 63.95 656 63.61C656.2 63.27 656.3 62.9 656.3 62.5V59.95H653.12C651.74 59.95 650.73 60.15 650.09 60.55C649.47 60.95 649.16 61.53 649.16 62.29V62.92C649.16 63.68 649.43 64.27 649.97 64.69C650.53 65.11 651.28 65.32 652.22 65.32Z" fill="black"/>
<path d="M664.195 51.52H666.535V60.1L666.295 63.82H666.415L668.335 60.52L674.515 51.52H676.735V67H674.395V58.42L674.635 54.7H674.515L672.595 58L666.415 67H664.195V51.52ZM670.525 49.12C669.445 49.12 668.585 48.91 667.945 48.49C667.305 48.05 666.795 47.48 666.415 46.78L665.815 45.64L667.915 44.71L668.965 47.17C669.205 47.23 669.465 47.28 669.745 47.32C670.025 47.34 670.285 47.35 670.525 47.35C670.765 47.35 671.025 47.34 671.305 47.32C671.585 47.28 671.845 47.23 672.085 47.17L673.135 44.71L675.235 45.64L674.635 46.78C674.255 47.48 673.745 48.05 673.105 48.49C672.465 48.91 671.605 49.12 670.525 49.12Z" fill="black"/>
<path d="M681.652 59.17V56.59H689.482V59.17H681.652Z" fill="black"/>
<path d="M596.55 79.52H598.95V85.97H606.69V79.52H609.09V95H606.69V88.07H598.95V95H596.55V79.52Z" fill="black"/>
<path d="M620.307 95.36C619.247 95.36 618.287 95.17 617.427 94.79C616.587 94.41 615.857 93.87 615.237 93.17C614.637 92.45 614.167 91.6 613.827 90.62C613.507 89.62 613.347 88.5 613.347 87.26C613.347 86.04 613.507 84.93 613.827 83.93C614.167 82.93 614.637 82.08 615.237 81.38C615.857 80.66 616.587 80.11 617.427 79.73C618.287 79.35 619.247 79.16 620.307 79.16C621.347 79.16 622.277 79.35 623.097 79.73C623.917 80.11 624.617 80.64 625.197 81.32C625.777 81.98 626.217 82.77 626.517 83.69C626.837 84.61 626.997 85.62 626.997 86.72V87.86H615.867V88.58C615.867 89.24 615.967 89.86 616.167 90.44C616.387 91 616.687 91.49 617.067 91.91C617.467 92.33 617.947 92.66 618.507 92.9C619.087 93.14 619.737 93.26 620.457 93.26C621.437 93.26 622.287 93.03 623.007 92.57C623.747 92.11 624.317 91.45 624.717 90.59L626.427 91.82C625.927 92.88 625.147 93.74 624.087 94.4C623.027 95.04 621.767 95.36 620.307 95.36ZM620.307 81.17C619.647 81.17 619.047 81.29 618.507 81.53C617.967 81.75 617.497 82.07 617.097 82.49C616.717 82.91 616.417 83.41 616.197 83.99C615.977 84.55 615.867 85.17 615.867 85.85V86.06H624.417V85.73C624.417 84.35 624.037 83.25 623.277 82.43C622.537 81.59 621.547 81.17 620.307 81.17Z" fill="black"/>
<path d="M631.252 79.52H633.652V82.04H633.772C634.172 81.06 634.752 80.34 635.512 79.88C636.292 79.4 637.222 79.16 638.302 79.16C639.262 79.16 640.132 79.35 640.912 79.73C641.692 80.11 642.352 80.65 642.892 81.35C643.452 82.05 643.872 82.9 644.152 83.9C644.452 84.9 644.602 86.02 644.602 87.26C644.602 88.5 644.452 89.62 644.152 90.62C643.872 91.62 643.452 92.47 642.892 93.17C642.352 93.87 641.692 94.41 640.912 94.79C640.132 95.17 639.262 95.36 638.302 95.36C636.202 95.36 634.692 94.4 633.772 92.48H633.652V101H631.252V79.52ZM637.642 93.2C639.002 93.2 640.072 92.78 640.852 91.94C641.632 91.08 642.022 89.96 642.022 88.58V85.94C642.022 84.56 641.632 83.45 640.852 82.61C640.072 81.75 639.002 81.32 637.642 81.32C637.102 81.32 636.582 81.4 636.082 81.56C635.602 81.7 635.182 81.9 634.822 82.16C634.462 82.42 634.172 82.74 633.952 83.12C633.752 83.48 633.652 83.87 633.652 84.29V90.05C633.652 90.55 633.752 91 633.952 91.4C634.172 91.78 634.462 92.11 634.822 92.39C635.182 92.65 635.602 92.85 636.082 92.99C636.582 93.13 637.102 93.2 637.642 93.2Z" fill="black"/>
<path d="M658.347 79.52H660.717L653.787 98.6C653.607 99.06 653.427 99.44 653.247 99.74C653.067 100.06 652.847 100.31 652.587 100.49C652.327 100.67 651.997 100.8 651.597 100.88C651.217 100.96 650.747 101 650.187 101H648.957V98.9H651.387L652.557 95.6L646.767 79.52H649.167L652.887 90.05L653.607 92.57H653.757L654.597 90.05L658.347 79.52Z" fill="black"/>
<path d="M598.488 124.832H604.568V126.016H599.832V136H598.488V124.832Z" fill="black"/>
<path d="M606.632 124.832H614.744V136H613.4V126.016H607.976V136H606.632V124.832Z" fill="black"/>
<path d="M621.646 126.016V136H620.302V126.016H616.75V124.832H625.198V126.016H621.646Z" fill="black"/>
<path d="M639.848 126.592H639.768L638.824 128.464L636.152 133.328L633.48 128.464L632.536 126.592H632.456V136H631.144V124.832H632.936L636.136 130.848H636.216L639.432 124.832H641.16V136H639.848V126.592Z" fill="black"/>
<path d="M647.264 136.192C646.699 136.192 646.187 136.091 645.728 135.888C645.28 135.685 644.891 135.397 644.56 135.024C644.24 134.64 643.989 134.187 643.808 133.664C643.637 133.131 643.552 132.533 643.552 131.872C643.552 131.221 643.637 130.629 643.808 130.096C643.989 129.563 644.24 129.109 644.56 128.736C644.891 128.352 645.28 128.059 645.728 127.856C646.187 127.653 646.699 127.552 647.264 127.552C647.819 127.552 648.315 127.653 648.752 127.856C649.189 128.059 649.563 128.341 649.872 128.704C650.181 129.056 650.416 129.477 650.576 129.968C650.747 130.459 650.832 130.997 650.832 131.584V132.192H644.896V132.576C644.896 132.928 644.949 133.259 645.056 133.568C645.173 133.867 645.333 134.128 645.536 134.352C645.749 134.576 646.005 134.752 646.304 134.88C646.613 135.008 646.96 135.072 647.344 135.072C647.867 135.072 648.32 134.949 648.704 134.704C649.099 134.459 649.403 134.107 649.616 133.648L650.528 134.304C650.261 134.869 649.845 135.328 649.28 135.68C648.715 136.021 648.043 136.192 647.264 136.192ZM647.264 128.624C646.912 128.624 646.592 128.688 646.304 128.816C646.016 128.933 645.765 129.104 645.552 129.328C645.349 129.552 645.189 129.819 645.072 130.128C644.955 130.427 644.896 130.757 644.896 131.12V131.232H649.456V131.056C649.456 130.32 649.253 129.733 648.848 129.296C648.453 128.848 647.925 128.624 647.264 128.624Z" fill="black"/>
<path d="M653.101 127.744H654.349V132.32L654.221 134.304H654.285L655.309 132.544L658.605 127.744H659.789V136H658.541V131.424L658.669 129.44H658.605L657.581 131.2L654.285 136H653.101V127.744ZM656.477 126.464C655.901 126.464 655.443 126.352 655.101 126.128C654.76 125.893 654.488 125.589 654.285 125.216L653.965 124.608L655.085 124.112L655.645 125.424C655.773 125.456 655.912 125.483 656.061 125.504C656.211 125.515 656.349 125.52 656.477 125.52C656.605 125.52 656.744 125.515 656.893 125.504C657.043 125.483 657.181 125.456 657.309 125.424L657.869 124.112L658.989 124.608L658.669 125.216C658.467 125.589 658.195 125.893 657.853 126.128C657.512 126.352 657.053 126.464 656.477 126.464Z" fill="black"/>
<path d="M664.443 128.864H661.628V127.744H668.539V128.864H665.724V136H664.443V128.864Z" fill="black"/>
<path d="M616.819 267.663C617.394 267.308 617.854 266.792 618.14 266.179C618.97 264.293 619.337 262.236 619.21 260.179C619.338 258.122 618.971 256.065 618.14 254.179C617.854 253.566 617.394 253.05 616.819 252.695C616.243 252.34 615.576 252.16 614.9 252.179C614.222 252.16 613.554 252.339 612.976 252.694C612.399 253.049 611.938 253.565 611.65 254.179C610.819 256.065 610.452 258.122 610.58 260.179C610.453 262.236 610.82 264.293 611.65 266.179C611.938 266.793 612.399 267.309 612.976 267.664C613.554 268.02 614.222 268.199 614.9 268.179C615.576 268.198 616.243 268.019 616.819 267.663Z" fill="black"/>
<path d="M638.82 253.049H634.82V258.039H638.82C639.612 258.091 640.397 257.865 641.04 257.399C641.306 257.173 641.515 256.888 641.652 256.567C641.789 256.246 641.85 255.897 641.83 255.549C641.848 255.202 641.786 254.856 641.649 254.537C641.512 254.218 641.304 253.935 641.04 253.709C640.402 253.231 639.615 252.997 638.82 253.049Z" fill="black"/>
<path d="M618.43 288.66C617.787 289.126 617.002 289.352 616.21 289.3H612.21V284.3H616.21C617.005 284.248 617.792 284.482 618.43 284.96C618.692 285.187 618.898 285.47 619.033 285.789C619.169 286.108 619.229 286.454 619.21 286.8C619.234 287.149 619.177 287.499 619.041 287.823C618.906 288.146 618.696 288.432 618.43 288.66Z" fill="black"/>
<path d="M638.59 284.311H634.5V289.401H638.59C639.371 289.447 640.141 289.201 640.75 288.711C641.01 288.482 641.215 288.198 641.352 287.88C641.488 287.561 641.553 287.217 641.54 286.871C641.555 286.52 641.492 286.17 641.355 285.847C641.219 285.523 641.012 285.234 640.75 285.001C640.141 284.511 639.371 284.265 638.59 284.311Z" fill="black"/>
<path d="M663.43 297.43C663.121 298.023 662.654 298.52 662.082 298.867C661.51 299.214 660.854 299.397 660.185 299.397C659.516 299.397 658.86 299.214 658.288 298.867C657.715 298.52 657.249 298.023 656.94 297.43C656.105 295.545 655.734 293.488 655.86 291.43C655.735 289.372 656.105 287.315 656.94 285.43C657.249 284.837 657.715 284.34 658.288 283.993C658.86 283.646 659.516 283.463 660.185 283.463C660.854 283.463 661.51 283.646 662.082 283.993C662.654 284.34 663.121 284.837 663.43 285.43C664.257 287.317 664.624 289.373 664.5 291.43C664.625 293.49 664.259 295.55 663.43 297.44V297.43Z" fill="black"/>
<path d="M709 288.66C708.357 289.126 707.572 289.352 706.78 289.3H702.78V284.3H706.78C707.58 284.259 708.368 284.508 709 285C709.263 285.226 709.471 285.509 709.608 285.828C709.745 286.147 709.807 286.493 709.79 286.84C709.806 287.183 709.743 287.526 709.606 287.841C709.469 288.157 709.262 288.437 709 288.66Z" fill="black"/>
<path fill-rule="evenodd" clip-rule="evenodd" d="M597 345V238H750V365H740V355H730V345H597ZM607.2 250.169C608.967 247.889 611.533 246.749 614.9 246.749C616.362 246.661 617.824 246.925 619.163 247.52C620.501 248.115 621.677 249.024 622.59 250.169C624.35 252.449 625.23 255.782 625.23 260.169C625.23 264.556 624.35 267.889 622.59 270.169C621.679 271.317 620.504 272.229 619.165 272.826C617.826 273.423 616.363 273.688 614.9 273.599C611.527 273.579 608.96 272.436 607.2 270.169C605.44 267.902 604.56 264.569 604.56 260.169C604.553 255.782 605.433 252.449 607.2 250.169ZM638.82 263.439H634.82V272.999H628.82V247.349H638.82C640.466 247.308 642.099 247.65 643.59 248.349C644.882 248.975 645.968 249.957 646.72 251.179C647.496 252.494 647.885 254.002 647.84 255.529C647.878 256.998 647.489 258.447 646.72 259.699C645.96 260.893 644.874 261.844 643.59 262.439C642.095 263.125 640.465 263.467 638.82 263.439ZM669.04 267.861H658.1V262.771H667.76V257.781H658.1V252.511H669.36V247.391H652.09V272.981H669.04V267.861ZM678.16 252.091L678.54 262.651V272.981H673.39V247.391H682.67L686.86 268.271H687.5L687.11 257.721V247.391H692.26V272.981H682.98L678.8 252.091H678.16ZM620.56 279.66C619.07 278.96 617.436 278.617 615.79 278.66H605.79V304.24H611.79V294.71H615.79C617.435 294.737 619.065 294.396 620.56 293.71C621.844 293.128 622.931 292.187 623.69 291C624.459 289.747 624.848 288.299 624.81 286.83C624.852 285.303 624.464 283.796 623.69 282.48C622.936 281.261 621.85 280.283 620.56 279.66ZM646.45 290.771C645.684 291.925 644.615 292.845 643.36 293.431C642.922 293.656 642.467 293.846 642 294.001L648.18 304.241H641.43L635.78 294.391H634.49V304.241H628.49V278.661H638.82C640.408 278.625 641.981 278.968 643.41 279.661C644.682 280.294 645.742 281.284 646.46 282.511C647.212 283.827 647.59 285.325 647.55 286.841C647.577 288.23 647.194 289.597 646.45 290.771ZM660.18 278C656.813 278 654.25 279.143 652.49 281.43C650.73 283.717 649.85 287.05 649.85 291.43C649.85 295.823 650.73 299.157 652.49 301.43C654.25 303.703 656.813 304.843 660.18 304.85C663.553 304.85 666.117 303.71 667.87 301.43C669.623 299.15 670.503 295.817 670.51 291.43C670.51 287.03 669.63 283.697 667.87 281.43C666.11 279.163 663.547 278.02 660.18 278ZM682.63 291.03H683.27L684.9 278.65H692.42V304.24H687.33V294.74L687.75 284.09H687.11L685.51 296.24H680.14L678.54 284.09H677.9L678.31 294.74V304.24H673.23V278.65H681L682.63 291.03ZM711.55 279.66C710.059 278.961 708.426 278.618 706.78 278.66H696.78V304.24H702.78V294.71H706.78C708.425 294.737 710.055 294.395 711.55 293.71C712.832 293.125 713.918 292.185 714.68 291C715.449 289.747 715.838 288.299 715.8 286.83C715.842 285.303 715.454 283.796 714.68 282.48C713.923 281.263 712.838 280.286 711.55 279.66ZM717.97 284.38V278.65H738.25V284.38H731.12V304.24H725.1V284.38H717.97ZM605.75 315.64H612.02V329.78H605.75V335.5H624.3V329.78H618.03V315.64H624.3V309.91H605.75V315.64ZM642.21 330.8L641.82 320.25V309.92H646.97V335.5H637.7L633.51 314.62H632.87L633.25 325.17V335.5H628.1V309.92H637.38L641.57 330.8H642.21ZM660.66 314.75C661.125 314.734 661.588 314.814 662.02 314.986C662.452 315.158 662.844 315.418 663.17 315.75C663.911 316.596 664.394 317.637 664.56 318.75H670.19C670.146 316.956 669.687 315.197 668.85 313.61C668.104 312.234 666.97 311.107 665.59 310.37C664.066 309.59 662.371 309.205 660.66 309.25C657.273 309.25 654.7 310.39 652.94 312.67C651.18 314.95 650.3 318.283 650.3 322.67C650.3 326.983 651.023 330.283 652.47 332.57C653.1 333.649 654.009 334.538 655.102 335.144C656.195 335.749 657.431 336.048 658.68 336.01C659.697 336.042 660.702 335.796 661.59 335.3C662.356 334.858 662.927 334.144 663.19 333.3H664.5V335.5H669.74V321.81H660.05V327.06H664.5C664.5 327.786 664.328 328.502 664 329.15C663.715 329.748 663.261 330.25 662.694 330.595C662.128 330.94 661.473 331.111 660.81 331.09C660.098 331.133 659.389 330.966 658.77 330.611C658.152 330.255 657.651 329.727 657.33 329.09C656.603 327.756 656.24 325.636 656.24 322.73C656.115 320.67 656.493 318.611 657.34 316.73C657.643 316.114 658.118 315.599 658.707 315.248C659.296 314.897 659.975 314.724 660.66 314.75Z" fill="black"/>
<path d="M46.696 93.768C41.0213 93.768 36.6053 91.848 33.448 88.008C30.2907 84.1253 28.712 78.4293 28.712 70.92C28.712 63.4107 30.2907 57.6507 33.448 53.64C36.6053 49.5867 41.0213 47.56 46.696 47.56C50.4507 47.56 53.5867 48.4133 56.104 50.12C58.664 51.8267 60.648 54.2373 62.056 57.352L57.704 59.976C56.808 57.672 55.4427 55.8373 53.608 54.472C51.7733 53.064 49.4693 52.36 46.696 52.36C44.776 52.36 43.048 52.7227 41.512 53.448C40.0187 54.1733 38.7387 55.2187 37.672 56.584C36.648 57.9067 35.8587 59.5067 35.304 61.384C34.7493 63.2187 34.472 65.288 34.472 67.592V74.248C34.472 78.856 35.5387 82.4613 37.672 85.064C39.8053 87.6667 42.8133 88.968 46.696 88.968C49.5547 88.968 51.944 88.2427 53.864 86.792C55.784 85.2987 57.192 83.336 58.088 80.904L62.376 83.592C60.968 86.7493 58.9413 89.2453 56.296 91.08C53.6507 92.872 50.4507 93.768 46.696 93.768Z" fill="black"/>
<path d="M83.31 93.768C81.0913 93.768 79.0647 93.3627 77.23 92.552C75.3953 91.7413 73.8167 90.5893 72.494 89.096C71.214 87.56 70.2113 85.7467 69.486 83.656C68.7607 81.5227 68.398 79.1333 68.398 76.488C68.398 73.8853 68.7607 71.5173 69.486 69.384C70.2113 67.2507 71.214 65.4373 72.494 63.944C73.8167 62.408 75.3953 61.2347 77.23 60.424C79.0647 59.6133 81.0913 59.208 83.31 59.208C85.5287 59.208 87.534 59.6133 89.326 60.424C91.1607 61.2347 92.7393 62.408 94.062 63.944C95.3847 65.4373 96.4087 67.2507 97.134 69.384C97.8593 71.5173 98.222 73.8853 98.222 76.488C98.222 79.1333 97.8593 81.5227 97.134 83.656C96.4087 85.7467 95.3847 87.56 94.062 89.096C92.7393 90.5893 91.1607 91.7413 89.326 92.552C87.534 93.3627 85.5287 93.768 83.31 93.768ZM83.31 89.224C86.0833 89.224 88.3447 88.3707 90.094 86.664C91.8433 84.9573 92.718 82.3547 92.718 78.856V74.12C92.718 70.6213 91.8433 68.0187 90.094 66.312C88.3447 64.6053 86.0833 63.752 83.31 63.752C80.5367 63.752 78.2753 64.6053 76.526 66.312C74.7767 68.0187 73.902 70.6213 73.902 74.12V78.856C73.902 82.3547 74.7767 84.9573 76.526 86.664C78.2753 88.3707 80.5367 89.224 83.31 89.224Z" fill="black"/>
<path d="M116.189 93.768C112.818 93.768 110.13 93.192 108.125 92.04C106.12 90.888 104.477 89.2453 103.197 87.112L107.037 84.04C107.89 85.6613 109.064 86.9413 110.557 87.88C112.093 88.776 113.97 89.224 116.189 89.224C118.877 89.224 120.861 88.7333 122.141 87.752C123.464 86.7707 124.125 85.512 124.125 83.976V83.208C124.125 81.544 123.549 80.2853 122.397 79.432C121.288 78.536 119.709 78.088 117.661 78.088H110.621V73.8H117.021C119.069 73.8 120.648 73.3947 121.757 72.584C122.866 71.7733 123.421 70.6213 123.421 69.128V68.36C123.421 66.952 122.845 65.8427 121.693 65.032C120.584 64.1787 118.706 63.752 116.061 63.752C113.885 63.752 112.093 64.2 110.685 65.096C109.277 65.9493 108.146 67.1227 107.293 68.616L103.901 65.736C104.925 63.816 106.418 62.2587 108.381 61.064C110.386 59.8267 113.032 59.208 116.317 59.208C120.626 59.208 123.805 59.9973 125.853 61.576C127.901 63.1547 128.925 65.3307 128.925 68.104C128.925 70.152 128.37 71.7733 127.261 72.968C126.194 74.1627 124.637 74.9947 122.589 75.464V75.72C124.936 76.0613 126.685 76.9147 127.837 78.28C129.032 79.6027 129.629 81.3093 129.629 83.4C129.629 86.6 128.413 89.1387 125.981 91.016C123.592 92.8507 120.328 93.768 116.189 93.768Z" fill="black"/>
<path d="M134.619 88.52H138.395C139.718 86.3867 140.785 83.72 141.596 80.52C142.406 77.32 142.811 73.6507 142.811 69.512V59.976H165.147V88.52H170.652V101.96H165.979V93H139.292V101.96H134.619V88.52ZM160.027 88.52V64.456H147.676V69.768C147.676 74.1627 147.291 77.9173 146.523 81.032C145.798 84.104 144.924 86.6 143.9 88.52H160.027Z" fill="black"/>
<path d="M202.375 93C200.455 93 199.068 92.488 198.215 91.464C197.404 90.44 196.892 89.16 196.679 87.624H196.359C195.634 89.672 194.439 91.208 192.775 92.232C191.111 93.256 189.127 93.768 186.823 93.768C183.324 93.768 180.594 92.872 178.631 91.08C176.711 89.288 175.751 86.856 175.751 83.784C175.751 80.6693 176.882 78.28 179.143 76.616C181.447 74.952 185.01 74.12 189.831 74.12H196.359V70.856C196.359 68.5093 195.719 66.7173 194.439 65.48C193.159 64.2427 191.196 63.624 188.551 63.624C186.546 63.624 184.86 64.072 183.495 64.968C182.172 65.864 181.063 67.0587 180.167 68.552L177.095 65.672C177.991 63.88 179.42 62.3653 181.383 61.128C183.346 59.848 185.82 59.208 188.807 59.208C192.818 59.208 195.932 60.1893 198.151 62.152C200.37 64.1147 201.479 66.8453 201.479 70.344V88.52H205.255V93H202.375ZM187.655 89.416C188.935 89.416 190.108 89.2667 191.175 88.968C192.242 88.6693 193.159 88.2427 193.927 87.688C194.695 87.1333 195.292 86.4933 195.719 85.768C196.146 85.0427 196.359 84.2533 196.359 83.4V77.96H189.575C186.631 77.96 184.476 78.3867 183.111 79.24C181.788 80.0933 181.127 81.3307 181.127 82.952V84.296C181.127 85.9173 181.703 87.176 182.855 88.072C184.05 88.968 185.65 89.416 187.655 89.416Z" fill="black"/>
<path d="M219.119 64.456H207.855V59.976H235.503V64.456H224.239V93H219.119V64.456Z" fill="black"/>
<path d="M242.842 59.976H247.962V71.944H257.37C260.698 71.944 263.344 72.8827 265.306 74.76C267.269 76.6373 268.25 79.2187 268.25 82.504C268.25 85.832 267.29 88.4133 265.37 90.248C263.45 92.0827 260.805 93 257.435 93H242.842V59.976ZM256.667 88.52C258.587 88.52 260.08 88.1573 261.146 87.432C262.213 86.7067 262.746 85.4907 262.746 83.784V81.096C262.746 79.3893 262.213 78.1947 261.146 77.512C260.08 76.7867 258.587 76.424 256.667 76.424H247.962V88.52H256.667Z" fill="black"/>
<path d="M30.44 119.976H35.56V125.352H35.816C36.6693 123.261 37.9067 121.725 39.528 120.744C41.192 119.72 43.176 119.208 45.48 119.208C47.528 119.208 49.384 119.613 51.048 120.424C52.712 121.235 54.12 122.387 55.272 123.88C56.4667 125.373 57.3627 127.187 57.96 129.32C58.6 131.453 58.92 133.843 58.92 136.488C58.92 139.133 58.6 141.523 57.96 143.656C57.3627 145.789 56.4667 147.603 55.272 149.096C54.12 150.589 52.712 151.741 51.048 152.552C49.384 153.363 47.528 153.768 45.48 153.768C41 153.768 37.7787 151.72 35.816 147.624H35.56V165.8H30.44V119.976ZM44.072 149.16C46.9733 149.16 49.256 148.264 50.92 146.472C52.584 144.637 53.416 142.248 53.416 139.304V133.672C53.416 130.728 52.584 128.36 50.92 126.568C49.256 124.733 46.9733 123.816 44.072 123.816C42.92 123.816 41.8107 123.987 40.744 124.328C39.72 124.627 38.824 125.053 38.056 125.608C37.288 126.163 36.6693 126.845 36.2 127.656C35.7733 128.424 35.56 129.256 35.56 130.152V142.44C35.56 143.507 35.7733 144.467 36.2 145.32C36.6693 146.131 37.288 146.835 38.056 147.432C38.824 147.987 39.72 148.413 40.744 148.712C41.8107 149.011 42.92 149.16 44.072 149.16Z" fill="black"/>
<path d="M68.205 119.976H73.325V131.944H82.093C85.421 131.944 88.0663 132.883 90.029 134.76C91.9917 136.637 92.973 139.219 92.973 142.504C92.973 145.832 92.013 148.413 90.093 150.248C88.173 152.083 85.5277 153 82.157 153H68.205V119.976ZM81.389 148.52C83.309 148.52 84.8023 148.157 85.869 147.432C86.9357 146.707 87.469 145.491 87.469 143.784V141.096C87.469 139.389 86.9357 138.195 85.869 137.512C84.8023 136.787 83.309 136.424 81.389 136.424H73.325V148.52H81.389ZM98.541 119.976H103.661V153H98.541V119.976Z" fill="black"/>
<path d="M127.894 153.768C125.59 153.768 123.52 153.384 121.686 152.616C119.851 151.848 118.293 150.653 117.013 149.032C115.733 147.411 114.731 145.32 114.006 142.76C113.323 140.157 112.981 137.021 112.981 133.352C112.981 128.616 113.28 124.563 113.878 121.192C114.518 117.821 115.52 115.048 116.885 112.872C118.251 110.696 119.979 109.075 122.069 108.008C124.203 106.899 126.784 106.216 129.814 105.96L140.182 105.128V110.312L129.173 111.208C127.296 111.379 125.718 111.741 124.438 112.296C123.157 112.851 122.091 113.725 121.238 114.92C120.427 116.072 119.787 117.608 119.317 119.528C118.891 121.448 118.571 123.837 118.357 126.696H118.614C119.595 124.435 120.853 122.749 122.389 121.64C123.968 120.531 126.038 119.976 128.598 119.976C130.688 119.976 132.608 120.36 134.357 121.128C136.107 121.896 137.6 123.005 138.837 124.456C140.075 125.864 141.035 127.635 141.717 129.768C142.443 131.859 142.805 134.248 142.805 136.936C142.805 139.453 142.443 141.736 141.717 143.784C140.992 145.832 139.968 147.603 138.646 149.096C137.323 150.589 135.744 151.741 133.91 152.552C132.118 153.363 130.112 153.768 127.894 153.768ZM128.15 149.224C129.472 149.224 130.688 149.011 131.798 148.584C132.907 148.157 133.867 147.517 134.678 146.664C135.488 145.811 136.128 144.765 136.598 143.528C137.067 142.291 137.301 140.84 137.301 139.176V135.144C137.301 131.56 136.427 128.893 134.678 127.144C132.928 125.395 130.581 124.52 127.637 124.52C124.565 124.52 122.262 125.288 120.726 126.824C119.232 128.317 118.485 130.28 118.485 132.712V138.6C118.485 142.184 119.36 144.851 121.109 146.6C122.859 148.349 125.206 149.224 128.15 149.224Z" fill="black"/>
<path d="M171.962 119.976H177.018L162.234 160.68C161.85 161.661 161.466 162.472 161.082 163.112C160.698 163.795 160.229 164.328 159.674 164.712C159.119 165.096 158.415 165.373 157.562 165.544C156.751 165.715 155.749 165.8 154.554 165.8H151.93V161.32H157.114L159.61 154.28L147.258 119.976H152.378L160.314 142.44L161.85 147.816H162.17L163.962 142.44L171.962 119.976Z" fill="black"/>
<path d="M207.057 124.456H195.792V119.976H223.44V124.456H212.176V153H207.057V124.456Z" fill="black"/>
<path d="M242.383 153.768C240.122 153.768 238.074 153.363 236.24 152.552C234.448 151.741 232.89 150.589 231.567 149.096C230.287 147.56 229.285 145.747 228.559 143.656C227.877 141.523 227.535 139.133 227.535 136.488C227.535 133.885 227.877 131.517 228.559 129.384C229.285 127.251 230.287 125.437 231.567 123.944C232.89 122.408 234.448 121.235 236.24 120.424C238.074 119.613 240.122 119.208 242.383 119.208C244.602 119.208 246.586 119.613 248.335 120.424C250.085 121.235 251.578 122.365 252.815 123.816C254.053 125.224 254.991 126.909 255.632 128.872C256.314 130.835 256.655 132.989 256.655 135.336V137.768H232.911V139.304C232.911 140.712 233.125 142.035 233.551 143.272C234.021 144.467 234.661 145.512 235.471 146.408C236.325 147.304 237.349 148.008 238.544 148.52C239.781 149.032 241.167 149.288 242.703 149.288C244.794 149.288 246.607 148.797 248.143 147.816C249.722 146.835 250.938 145.427 251.792 143.592L255.439 146.216C254.373 148.477 252.709 150.312 250.447 151.72C248.186 153.085 245.498 153.768 242.383 153.768ZM242.383 123.496C240.975 123.496 239.696 123.752 238.544 124.264C237.392 124.733 236.389 125.416 235.535 126.312C234.725 127.208 234.085 128.275 233.615 129.512C233.146 130.707 232.911 132.029 232.911 133.48V133.928H251.151V133.224C251.151 130.28 250.341 127.933 248.719 126.184C247.141 124.392 245.029 123.496 242.383 123.496Z" fill="black"/>
<path d="M265.732 119.976H270.853V133.8H277.444L283.844 123.688C284.314 122.92 284.762 122.301 285.189 121.832C285.615 121.32 286.042 120.936 286.469 120.68C286.895 120.424 287.343 120.253 287.812 120.168C288.282 120.04 288.815 119.976 289.413 119.976H292.421V124.456H288.452L283.268 132.648C282.927 133.203 282.628 133.651 282.372 133.992C282.116 134.333 281.86 134.632 281.604 134.888C281.348 135.101 281.071 135.293 280.772 135.464C280.474 135.592 280.111 135.72 279.685 135.848V136.104C280.581 136.232 281.348 136.531 281.988 137C282.671 137.427 283.375 138.28 284.1 139.56L289.156 148.52H292.932V153H289.22C288.111 153 287.087 152.723 286.148 152.168C285.252 151.571 284.378 150.504 283.525 148.968L277.444 138.152H270.853V153H265.732V119.976Z" fill="black"/>
<path d="M312.848 153.768C310.544 153.768 308.475 153.363 306.64 152.552C304.805 151.741 303.248 150.589 301.968 149.096C300.731 147.603 299.771 145.789 299.088 143.656C298.448 141.523 298.128 139.133 298.128 136.488C298.128 133.843 298.448 131.453 299.088 129.32C299.771 127.187 300.731 125.373 301.968 123.88C303.248 122.387 304.805 121.235 306.64 120.424C308.475 119.613 310.544 119.208 312.848 119.208C316.133 119.208 318.757 119.933 320.72 121.384C322.725 122.792 324.219 124.648 325.2 126.952L320.912 129.128C320.315 127.421 319.333 126.099 317.968 125.16C316.603 124.221 314.896 123.752 312.848 123.752C311.312 123.752 309.968 124.008 308.816 124.52C307.664 124.989 306.704 125.672 305.936 126.568C305.168 127.421 304.592 128.467 304.208 129.704C303.824 130.899 303.632 132.221 303.632 133.672V139.304C303.632 142.205 304.4 144.595 305.936 146.472C307.515 148.307 309.819 149.224 312.848 149.224C316.987 149.224 319.973 147.304 321.808 143.464L325.52 145.96C324.453 148.349 322.853 150.248 320.72 151.656C318.629 153.064 316.005 153.768 312.848 153.768Z" fill="black"/>
<path d="M340.742 124.456H329.478V119.976H357.126V124.456H345.862V153H340.742V124.456Z" fill="black"/>
<path d="M387.652 153C385.732 153 384.346 152.488 383.492 151.464C382.682 150.44 382.17 149.16 381.956 147.624H381.637C380.911 149.672 379.716 151.208 378.052 152.232C376.388 153.256 374.404 153.768 372.1 153.768C368.602 153.768 365.871 152.872 363.909 151.08C361.989 149.288 361.029 146.856 361.029 143.784C361.029 140.669 362.159 138.28 364.421 136.616C366.725 134.952 370.287 134.12 375.108 134.12H381.637V130.856C381.637 128.509 380.996 126.717 379.716 125.48C378.436 124.243 376.474 123.624 373.828 123.624C371.823 123.624 370.138 124.072 368.772 124.968C367.45 125.864 366.34 127.059 365.444 128.552L362.372 125.672C363.268 123.88 364.698 122.365 366.66 121.128C368.623 119.848 371.098 119.208 374.085 119.208C378.095 119.208 381.21 120.189 383.428 122.152C385.647 124.115 386.757 126.845 386.757 130.344V148.52H390.533V153H387.652ZM372.932 149.416C374.212 149.416 375.386 149.267 376.452 148.968C377.519 148.669 378.436 148.243 379.204 147.688C379.972 147.133 380.57 146.493 380.996 145.768C381.423 145.043 381.637 144.253 381.637 143.4V137.96H374.853C371.909 137.96 369.754 138.387 368.388 139.24C367.066 140.093 366.404 141.331 366.404 142.952V144.296C366.404 145.917 366.981 147.176 368.133 148.072C369.327 148.968 370.927 149.416 372.932 149.416Z" fill="black"/>
<path d="M25.512 208.52H29.288C30.6107 206.387 31.6773 203.72 32.488 200.52C33.2987 197.32 33.704 193.651 33.704 189.512V179.976H56.04V208.52H61.544V221.96H56.872V213H30.184V221.96H25.512V208.52ZM50.92 208.52V184.456H38.568V189.768C38.568 194.163 38.184 197.917 37.416 201.032C36.6907 204.104 35.816 206.6 34.792 208.52H50.92Z" fill="black"/>
<path d="M64.7145 208.52H69.0665C69.6212 207.752 70.1118 206.835 70.5385 205.768C70.9652 204.701 71.3278 203.421 71.6265 201.928C71.9252 200.435 72.1598 198.664 72.3305 196.616C72.5012 194.568 72.5865 192.157 72.5865 189.384V179.976H94.9225V213H89.8025V184.456H77.4505V189.512C77.4505 192.712 77.3225 195.507 77.0665 197.896C76.8532 200.285 76.5332 202.333 76.1065 204.04C75.7225 205.747 75.2532 207.155 74.6985 208.264C74.1438 209.331 73.5465 210.184 72.9065 210.824C72.0958 211.635 71.1998 212.211 70.2185 212.552C69.2372 212.851 68.0638 213 66.6985 213H64.7145V208.52Z" fill="black"/>
<path d="M103.526 208.52H107.174L109.286 203.656C109.755 202.547 110.331 201.715 111.014 201.16C111.697 200.563 112.465 200.2 113.318 200.072V199.816C110.374 199.56 108.155 198.6 106.662 196.936C105.169 195.272 104.422 193.032 104.422 190.216C104.422 187.016 105.382 184.52 107.302 182.728C109.222 180.893 111.867 179.976 115.238 179.976H129.83V213H124.71V200.328H116.134L112.678 208.456C111.91 210.248 111.057 211.464 110.118 212.104C109.222 212.701 108.198 213 107.046 213H103.526V208.52ZM124.71 195.976V184.456H116.006C114.086 184.456 112.593 184.819 111.526 185.544C110.459 186.269 109.926 187.485 109.926 189.192V191.304C109.926 193.011 110.459 194.227 111.526 194.952C112.593 195.635 114.086 195.976 116.006 195.976H124.71Z" fill="black"/>
<path d="M152.197 208.52H155.973C157.296 206.387 158.362 203.72 159.173 200.52C159.984 197.32 160.389 193.651 160.389 189.512V179.976H182.725V208.52H188.229V221.96H183.557V213H156.869V221.96H152.197V208.52ZM177.605 208.52V184.456H165.253V189.768C165.253 194.163 164.869 197.917 164.101 201.032C163.376 204.104 162.501 206.6 161.477 208.52H177.605Z" fill="black"/>
<path d="M195.952 179.976H200.945V198.28L200.432 206.216H200.688L204.785 199.176L217.969 179.976H222.704V213H217.712V194.696L218.225 186.76H217.969L213.872 193.8L200.688 213H195.952V179.976Z" fill="black"/>
<path d="M243.561 213.768C240.191 213.768 237.503 213.192 235.497 212.04C233.492 210.888 231.85 209.245 230.57 207.112L234.41 204.04C235.263 205.661 236.436 206.941 237.93 207.88C239.466 208.776 241.343 209.224 243.561 209.224C246.249 209.224 248.233 208.733 249.513 207.752C250.836 206.771 251.497 205.512 251.497 203.976V203.208C251.497 201.544 250.922 200.285 249.77 199.432C248.66 198.536 247.081 198.088 245.033 198.088H237.993V193.8H244.393C246.441 193.8 248.02 193.395 249.13 192.584C250.239 191.773 250.794 190.621 250.794 189.128V188.36C250.794 186.952 250.217 185.843 249.065 185.032C247.956 184.179 246.079 183.752 243.434 183.752C241.258 183.752 239.465 184.2 238.057 185.096C236.649 185.949 235.519 187.123 234.665 188.616L231.273 185.736C232.297 183.816 233.791 182.259 235.753 181.064C237.759 179.827 240.404 179.208 243.689 179.208C247.999 179.208 251.177 179.997 253.225 181.576C255.273 183.155 256.297 185.331 256.297 188.104C256.297 190.152 255.743 191.773 254.633 192.968C253.567 194.163 252.01 194.995 249.962 195.464V195.72C252.308 196.061 254.058 196.915 255.21 198.28C256.404 199.603 257.001 201.309 257.001 203.4C257.001 206.6 255.786 209.139 253.354 211.016C250.964 212.851 247.7 213.768 243.561 213.768Z" fill="black"/>
<path d="M290.607 213C288.687 213 287.301 212.488 286.448 211.464C285.637 210.44 285.125 209.16 284.911 207.624H284.591C283.866 209.672 282.672 211.208 281.008 212.232C279.344 213.256 277.359 213.768 275.055 213.768C271.557 213.768 268.826 212.872 266.863 211.08C264.943 209.288 263.983 206.856 263.983 203.784C263.983 200.669 265.114 198.28 267.375 196.616C269.679 194.952 273.242 194.12 278.064 194.12H284.591V190.856C284.591 188.509 283.952 186.717 282.672 185.48C281.392 184.243 279.429 183.624 276.784 183.624C274.778 183.624 273.093 184.072 271.728 184.968C270.405 185.864 269.296 187.059 268.4 188.552L265.327 185.672C266.223 183.88 267.653 182.365 269.616 181.128C271.578 179.848 274.053 179.208 277.039 179.208C281.05 179.208 284.165 180.189 286.383 182.152C288.602 184.115 289.711 186.845 289.711 190.344V208.52H293.487V213H290.607ZM275.887 209.416C277.167 209.416 278.341 209.267 279.408 208.968C280.474 208.669 281.391 208.243 282.159 207.688C282.927 207.133 283.525 206.493 283.952 205.768C284.378 205.043 284.591 204.253 284.591 203.4V197.96H277.807C274.863 197.96 272.709 198.387 271.344 199.24C270.021 200.093 269.359 201.331 269.359 202.952V204.296C269.359 205.917 269.935 207.176 271.087 208.072C272.282 208.968 273.882 209.416 275.887 209.416Z" fill="black"/>
<path d="M301.435 179.976H306.427V198.28L305.915 206.216H306.171L310.267 199.176L323.451 179.976H328.187V213H323.195V194.696L323.707 186.76H323.451L319.355 193.8L306.171 213H301.435V179.976ZM314.939 174.856C312.635 174.856 310.8 174.408 309.435 173.512C308.07 172.573 306.982 171.357 306.171 169.864L304.891 167.432L309.371 165.448L311.611 170.696C312.123 170.824 312.678 170.931 313.275 171.016C313.872 171.059 314.427 171.08 314.939 171.08C315.451 171.08 316.006 171.059 316.603 171.016C317.2 170.931 317.755 170.824 318.267 170.696L320.507 165.448L324.987 167.432L323.707 169.864C322.896 171.357 321.808 172.573 320.443 173.512C319.078 174.408 317.243 174.856 314.939 174.856Z" fill="black"/>
<path d="M339.7 179.976H344.82V193.736H361.332V179.976H366.452V213H361.332V198.216H344.82V213H339.7V179.976Z" fill="black"/>
<path d="M390.381 213.768C388.12 213.768 386.072 213.363 384.237 212.552C382.445 211.741 380.888 210.589 379.565 209.096C378.285 207.56 377.282 205.747 376.557 203.656C375.874 201.523 375.533 199.133 375.533 196.488C375.533 193.885 375.874 191.517 376.557 189.384C377.282 187.251 378.285 185.437 379.565 183.944C380.888 182.408 382.445 181.235 384.237 180.424C386.072 179.613 388.12 179.208 390.381 179.208C392.6 179.208 394.584 179.613 396.333 180.424C398.082 181.235 399.576 182.365 400.813 183.816C402.05 185.224 402.989 186.909 403.629 188.872C404.312 190.835 404.653 192.989 404.653 195.336V197.768H380.909V199.304C380.909 200.712 381.122 202.035 381.549 203.272C382.018 204.467 382.658 205.512 383.469 206.408C384.322 207.304 385.346 208.008 386.541 208.52C387.778 209.032 389.165 209.288 390.701 209.288C392.792 209.288 394.605 208.797 396.141 207.816C397.72 206.835 398.936 205.427 399.789 203.592L403.437 206.216C402.37 208.477 400.706 210.312 398.445 211.72C396.184 213.085 393.496 213.768 390.381 213.768ZM390.381 183.496C388.973 183.496 387.693 183.752 386.541 184.264C385.389 184.733 384.386 185.416 383.533 186.312C382.722 187.208 382.082 188.275 381.613 189.512C381.144 190.707 380.909 192.029 380.909 193.48V193.928H399.149V193.224C399.149 190.28 398.338 187.933 396.717 186.184C395.138 184.392 393.026 183.496 390.381 183.496Z" fill="black"/>
<path d="M413.73 179.976H418.85V185.352H419.106C419.959 183.261 421.197 181.725 422.818 180.744C424.482 179.72 426.466 179.208 428.77 179.208C430.818 179.208 432.674 179.613 434.338 180.424C436.002 181.235 437.41 182.387 438.562 183.88C439.757 185.373 440.653 187.187 441.25 189.32C441.89 191.453 442.21 193.843 442.21 196.488C442.21 199.133 441.89 201.523 441.25 203.656C440.653 205.789 439.757 207.603 438.562 209.096C437.41 210.589 436.002 211.741 434.338 212.552C432.674 213.363 430.818 213.768 428.77 213.768C424.29 213.768 421.069 211.72 419.106 207.624H418.85V225.8H413.73V179.976ZM427.362 209.16C430.263 209.16 432.546 208.264 434.21 206.472C435.874 204.637 436.706 202.248 436.706 199.304V193.672C436.706 190.728 435.874 188.36 434.21 186.568C432.546 184.733 430.263 183.816 427.362 183.816C426.21 183.816 425.101 183.987 424.034 184.328C423.01 184.627 422.114 185.053 421.346 185.608C420.578 186.163 419.959 186.845 419.49 187.656C419.063 188.424 418.85 189.256 418.85 190.152V202.44C418.85 203.507 419.063 204.467 419.49 205.32C419.959 206.131 420.578 206.835 421.346 207.432C422.114 207.987 423.01 208.413 424.034 208.712C425.101 209.011 426.21 209.16 427.362 209.16Z" fill="black"/>
<path d="M451.096 196.296V190.792H467.8V196.296H451.096Z" fill="black"/>
<path d="M42.728 273.768C40.424 273.768 38.3547 273.363 36.52 272.552C34.6853 271.741 33.128 270.589 31.848 269.096C30.6107 267.603 29.6507 265.789 28.968 263.656C28.328 261.523 28.008 259.133 28.008 256.488C28.008 253.843 28.328 251.453 28.968 249.32C29.6507 247.187 30.6107 245.373 31.848 243.88C33.128 242.387 34.6853 241.235 36.52 240.424C38.3547 239.613 40.424 239.208 42.728 239.208C46.0133 239.208 48.6373 239.933 50.6 241.384C52.6053 242.792 54.0987 244.648 55.08 246.952L50.792 249.128C50.1947 247.421 49.2133 246.099 47.848 245.16C46.4827 244.221 44.776 243.752 42.728 243.752C41.192 243.752 39.848 244.008 38.696 244.52C37.544 244.989 36.584 245.672 35.816 246.568C35.048 247.421 34.472 248.467 34.088 249.704C33.704 250.899 33.512 252.221 33.512 253.672V259.304C33.512 262.205 34.28 264.595 35.816 266.472C37.3947 268.307 39.6987 269.224 42.728 269.224C46.8667 269.224 49.8533 267.304 51.688 263.464L55.4 265.96C54.3333 268.349 52.7333 270.248 50.6 271.656C48.5093 273.064 45.8853 273.768 42.728 273.768Z" fill="black"/>
<path d="M63.2675 239.976H68.3875V253.8H74.9795L81.3795 243.688C81.8488 242.92 82.2968 242.301 82.7235 241.832C83.1502 241.32 83.5768 240.936 84.0035 240.68C84.4302 240.424 84.8782 240.253 85.3475 240.168C85.8168 240.04 86.3502 239.976 86.9475 239.976H89.9555V244.456H85.9875L80.8035 252.648C80.4622 253.203 80.1635 253.651 79.9075 253.992C79.6515 254.333 79.3955 254.632 79.1395 254.888C78.8835 255.101 78.6062 255.293 78.3075 255.464C78.0088 255.592 77.6462 255.72 77.2195 255.848V256.104C78.1155 256.232 78.8835 256.531 79.5235 257C80.2062 257.427 80.9102 258.28 81.6355 259.56L86.6915 268.52H90.4675V273H86.7555C85.6462 273 84.6222 272.723 83.6835 272.168C82.7875 271.571 81.9128 270.504 81.0595 268.968L74.9795 258.152H68.3875V273H63.2675V239.976Z" fill="black"/>
<path d="M110.575 273.768C108.356 273.768 106.33 273.363 104.495 272.552C102.66 271.741 101.082 270.589 99.759 269.096C98.479 267.56 97.4763 265.747 96.751 263.656C96.0257 261.523 95.663 259.133 95.663 256.488C95.663 253.885 96.0257 251.517 96.751 249.384C97.4763 247.251 98.479 245.437 99.759 243.944C101.082 242.408 102.66 241.235 104.495 240.424C106.33 239.613 108.356 239.208 110.575 239.208C112.794 239.208 114.799 239.613 116.591 240.424C118.426 241.235 120.004 242.408 121.327 243.944C122.65 245.437 123.674 247.251 124.399 249.384C125.124 251.517 125.487 253.885 125.487 256.488C125.487 259.133 125.124 261.523 124.399 263.656C123.674 265.747 122.65 267.56 121.327 269.096C120.004 270.589 118.426 271.741 116.591 272.552C114.799 273.363 112.794 273.768 110.575 273.768ZM110.575 269.224C113.348 269.224 115.61 268.371 117.359 266.664C119.108 264.957 119.983 262.355 119.983 258.856V254.12C119.983 250.621 119.108 248.019 117.359 246.312C115.61 244.605 113.348 243.752 110.575 243.752C107.802 243.752 105.54 244.605 103.791 246.312C102.042 248.019 101.167 250.621 101.167 254.12V258.856C101.167 262.355 102.042 264.957 103.791 266.664C105.54 268.371 107.802 269.224 110.575 269.224Z" fill="black"/>
<path d="M134.548 239.976H155.411V244.456H139.667V273H134.548V239.976Z" fill="black"/>
<path d="M174.292 273.768C172.074 273.768 170.047 273.363 168.212 272.552C166.378 271.741 164.799 270.589 163.477 269.096C162.197 267.56 161.194 265.747 160.468 263.656C159.743 261.523 159.38 259.133 159.38 256.488C159.38 253.885 159.743 251.517 160.468 249.384C161.194 247.251 162.197 245.437 163.477 243.944C164.799 242.408 166.378 241.235 168.212 240.424C170.047 239.613 172.074 239.208 174.292 239.208C176.511 239.208 178.517 239.613 180.309 240.424C182.143 241.235 183.722 242.408 185.044 243.944C186.367 245.437 187.391 247.251 188.117 249.384C188.842 251.517 189.204 253.885 189.204 256.488C189.204 259.133 188.842 261.523 188.117 263.656C187.391 265.747 186.367 267.56 185.044 269.096C183.722 270.589 182.143 271.741 180.309 272.552C178.517 273.363 176.511 273.768 174.292 273.768ZM174.292 269.224C177.066 269.224 179.327 268.371 181.076 266.664C182.826 264.957 183.701 262.355 183.701 258.856V254.12C183.701 250.621 182.826 248.019 181.076 246.312C179.327 244.605 177.066 243.752 174.292 243.752C171.519 243.752 169.258 244.605 167.508 246.312C165.759 248.019 164.884 250.621 164.884 254.12V258.856C164.884 262.355 165.759 264.957 167.508 266.664C169.258 268.371 171.519 269.224 174.292 269.224Z" fill="black"/>
<path d="M214.03 239.976H220.75L230.798 257.128H231.054L241.038 239.976H247.694V273H242.702V246.12H242.382L240.526 249.704L230.862 266.088L221.198 249.704L219.342 246.12H219.022V273H214.03V239.976Z" fill="black"/>
<path d="M283.232 273C281.312 273 279.926 272.488 279.073 271.464C278.262 270.44 277.75 269.16 277.536 267.624H277.216C276.491 269.672 275.297 271.208 273.633 272.232C271.969 273.256 269.984 273.768 267.68 273.768C264.182 273.768 261.451 272.872 259.488 271.08C257.568 269.288 256.608 266.856 256.608 263.784C256.608 260.669 257.739 258.28 260 256.616C262.304 254.952 265.867 254.12 270.689 254.12H277.216V250.856C277.216 248.509 276.577 246.717 275.297 245.48C274.017 244.243 272.054 243.624 269.409 243.624C267.403 243.624 265.718 244.072 264.353 244.968C263.03 245.864 261.921 247.059 261.025 248.552L257.952 245.672C258.848 243.88 260.278 242.365 262.241 241.128C264.203 239.848 266.678 239.208 269.664 239.208C273.675 239.208 276.79 240.189 279.008 242.152C281.227 244.115 282.336 246.845 282.336 250.344V268.52H286.112V273H283.232ZM268.512 269.416C269.792 269.416 270.966 269.267 272.033 268.968C273.099 268.669 274.016 268.243 274.784 267.688C275.552 267.133 276.15 266.493 276.577 265.768C277.003 265.043 277.216 264.253 277.216 263.4V257.96H270.432C267.488 257.96 265.334 258.387 263.969 259.24C262.646 260.093 261.984 261.331 261.984 262.952V264.296C261.984 265.917 262.56 267.176 263.712 268.072C264.907 268.968 266.507 269.416 268.512 269.416Z" fill="black"/>
<path d="M294.06 239.976H299.18V253.8H305.772L312.172 243.688C312.641 242.92 313.089 242.301 313.516 241.832C313.943 241.32 314.369 240.936 314.796 240.68C315.223 240.424 315.671 240.253 316.14 240.168C316.609 240.04 317.143 239.976 317.74 239.976H320.748V244.456H316.78L311.596 252.648C311.255 253.203 310.956 253.651 310.7 253.992C310.444 254.333 310.188 254.632 309.932 254.888C309.676 255.101 309.399 255.293 309.1 255.464C308.801 255.592 308.439 255.72 308.012 255.848V256.104C308.908 256.232 309.676 256.531 310.316 257C310.999 257.427 311.703 258.28 312.428 259.56L317.484 268.52H321.26V273H317.548C316.439 273 315.415 272.723 314.476 272.168C313.58 271.571 312.705 270.504 311.852 268.968L305.772 258.152H299.18V273H294.06V239.976Z" fill="black"/>
<path d="M341.303 273.768C339.042 273.768 336.994 273.363 335.16 272.552C333.368 271.741 331.81 270.589 330.488 269.096C329.208 267.56 328.205 265.747 327.48 263.656C326.797 261.523 326.456 259.133 326.456 256.488C326.456 253.885 326.797 251.517 327.48 249.384C328.205 247.251 329.208 245.437 330.488 243.944C331.81 242.408 333.368 241.235 335.16 240.424C336.994 239.613 339.042 239.208 341.303 239.208C343.522 239.208 345.506 239.613 347.256 240.424C349.005 241.235 350.498 242.365 351.736 243.816C352.973 245.224 353.912 246.909 354.552 248.872C355.234 250.835 355.576 252.989 355.576 255.336V257.768H331.832V259.304C331.832 260.712 332.045 262.035 332.471 263.272C332.941 264.467 333.581 265.512 334.392 266.408C335.245 267.304 336.269 268.008 337.464 268.52C338.701 269.032 340.088 269.288 341.624 269.288C343.714 269.288 345.528 268.797 347.064 267.816C348.642 266.835 349.858 265.427 350.712 263.592L354.359 266.216C353.293 268.477 351.629 270.312 349.368 271.72C347.106 273.085 344.418 273.768 341.303 273.768ZM341.303 243.496C339.895 243.496 338.616 243.752 337.464 244.264C336.312 244.733 335.309 245.416 334.456 246.312C333.645 247.208 333.005 248.275 332.536 249.512C332.066 250.707 331.832 252.029 331.832 253.48V253.928H350.072V253.224C350.072 250.28 349.261 247.933 347.64 246.184C346.061 244.392 343.949 243.496 341.303 243.496Z" fill="black"/>
<path d="M370.944 244.456H359.68V239.976H387.328V244.456H376.064V273H370.944V244.456Z" fill="black"/>
<path d="M417.855 273C415.935 273 414.548 272.488 413.695 271.464C412.884 270.44 412.372 269.16 412.159 267.624H411.839C411.114 269.672 409.919 271.208 408.255 272.232C406.591 273.256 404.607 273.768 402.303 273.768C398.804 273.768 396.074 272.872 394.111 271.08C392.191 269.288 391.231 266.856 391.231 263.784C391.231 260.669 392.362 258.28 394.623 256.616C396.927 254.952 400.49 254.12 405.311 254.12H411.839V250.856C411.839 248.509 411.199 246.717 409.919 245.48C408.639 244.243 406.676 243.624 404.031 243.624C402.026 243.624 400.34 244.072 398.975 244.968C397.652 245.864 396.543 247.059 395.647 248.552L392.575 245.672C393.471 243.88 394.9 242.365 396.863 241.128C398.826 239.848 401.3 239.208 404.287 239.208C408.298 239.208 411.412 240.189 413.631 242.152C415.85 244.115 416.959 246.845 416.959 250.344V268.52H420.735V273H417.855ZM403.135 269.416C404.415 269.416 405.588 269.267 406.655 268.968C407.722 268.669 408.639 268.243 409.407 267.688C410.175 267.133 410.772 266.493 411.199 265.768C411.626 265.043 411.839 264.253 411.839 263.4V257.96H405.055C402.111 257.96 399.956 258.387 398.591 259.24C397.268 260.093 396.607 261.331 396.607 262.952V264.296C396.607 265.917 397.183 267.176 398.335 268.072C399.53 268.968 401.13 269.416 403.135 269.416Z" fill="black"/>
</svg>
