<svg width="750" height="365" viewBox="0 0 750 365" fill="none" xmlns="http://www.w3.org/2000/svg">
<path d="M750 39H88V345H750V39Z" fill="#007D00"/>
<path d="M618.591 268.269C619.158 267.927 619.619 267.435 619.926 266.849C621.341 263.022 621.341 258.817 619.926 254.99C619.619 254.404 619.158 253.913 618.591 253.57C618.025 253.228 617.375 253.046 616.712 253.046C616.05 253.046 615.4 253.228 614.833 253.57C614.267 253.913 613.805 254.404 613.499 254.99C612.084 258.817 612.084 263.022 613.499 266.849C613.805 267.435 614.267 267.927 614.833 268.269C615.4 268.612 616.05 268.793 616.712 268.793C617.375 268.793 618.025 268.612 618.591 268.269Z" fill="white"/>
<path d="M636.442 253.873H640.403C641.191 253.822 641.97 254.053 642.601 254.525C642.849 254.76 643.045 255.043 643.18 255.357C643.314 255.67 643.384 256.007 643.384 256.348C643.384 256.689 643.314 257.027 643.18 257.34C643.045 257.653 642.849 257.936 642.601 258.172C641.965 258.632 641.188 258.856 640.403 258.804H636.442V253.873Z" fill="white"/>
<path d="M618.014 289.696C618.798 289.748 619.576 289.524 620.212 289.064C620.476 288.839 620.683 288.556 620.818 288.236C620.952 287.917 621.009 287.571 620.985 287.226C621.004 286.884 620.944 286.542 620.81 286.227C620.676 285.912 620.472 285.632 620.212 285.407C619.581 284.935 618.801 284.704 618.014 284.755H614.053V289.696H618.014Z" fill="white"/>
<path d="M636.125 284.765H640.175C640.948 284.719 641.711 284.963 642.314 285.447C642.574 285.678 642.778 285.964 642.914 286.283C643.049 286.603 643.111 286.948 643.096 287.295C643.115 287.643 643.054 287.992 642.919 288.313C642.783 288.635 642.577 288.922 642.314 289.153C641.711 289.637 640.948 289.88 640.175 289.835H636.125V284.765Z" fill="white"/>
<path d="M663.438 299.162C664.004 298.819 664.466 298.328 664.772 297.741C666.187 293.915 666.187 289.709 664.772 285.883C664.466 285.296 664.004 284.805 663.438 284.463C662.871 284.12 662.221 283.939 661.559 283.939C660.896 283.939 660.247 284.12 659.68 284.463C659.114 284.805 658.652 285.296 658.346 285.883C656.917 289.707 656.917 293.917 658.346 297.741C658.652 298.328 659.114 298.819 659.68 299.162C660.247 299.504 660.896 299.686 661.559 299.686C662.221 299.686 662.871 299.504 663.438 299.162Z" fill="white"/>
<path d="M707.698 289.696C708.482 289.748 709.26 289.524 709.896 289.064C710.161 288.839 710.37 288.556 710.506 288.237C710.642 287.918 710.701 287.572 710.678 287.225C710.695 286.883 710.634 286.541 710.498 286.226C710.363 285.911 710.157 285.631 709.896 285.407C709.265 284.935 708.485 284.704 707.698 284.755H703.737V289.696H707.698Z" fill="white"/>
<path d="M691.99 330.802C691.816 331.171 691.539 331.48 691.193 331.692C690.848 331.904 690.448 332.009 690.044 331.995C689.64 332.008 689.242 331.902 688.896 331.69C688.551 331.478 688.273 331.17 688.098 330.802C687.605 329.663 687.384 328.423 687.453 327.182C687.381 325.935 687.603 324.688 688.098 323.543C688.272 323.173 688.549 322.862 688.894 322.649C689.24 322.435 689.639 322.328 690.044 322.34C690.448 322.325 690.848 322.431 691.193 322.643C691.539 322.854 691.816 323.164 691.99 323.532C692.492 324.679 692.714 325.931 692.636 327.182C692.709 328.424 692.488 329.665 691.99 330.802Z" fill="white"/>
<path d="M701.802 322.849H704.252C704.718 322.819 705.178 322.965 705.543 323.257C705.704 323.399 705.832 323.575 705.917 323.772C706.002 323.97 706.044 324.184 706.037 324.399C706.044 324.608 706.006 324.816 705.924 325.009C705.842 325.201 705.719 325.372 705.563 325.51C705.199 325.807 704.739 325.956 704.273 325.928H701.802V322.849Z" fill="white"/>
<path fill-rule="evenodd" clip-rule="evenodd" d="M597 345V238H750V365H740V355H730V345H597ZM609.093 251.028C610.842 248.774 613.384 247.648 616.717 247.648C618.165 247.56 619.613 247.821 620.938 248.41C622.263 248.998 623.428 249.896 624.332 251.028C626.075 253.281 626.946 256.575 626.946 260.91C626.946 265.245 626.075 268.539 624.332 270.792C623.43 271.927 622.266 272.828 620.941 273.418C619.615 274.008 618.166 274.27 616.717 274.182C613.377 274.162 610.835 273.032 609.093 270.792C607.35 268.552 606.478 265.258 606.478 260.91C606.472 256.575 607.343 253.281 609.093 251.028ZM636.442 264.141H640.403C642.028 264.183 643.642 263.862 645.127 263.202C646.409 262.618 647.495 261.678 648.256 260.494C649.017 259.256 649.402 257.825 649.365 256.373C649.409 254.864 649.024 253.374 648.256 252.074C647.511 250.866 646.435 249.896 645.156 249.277C643.68 248.587 642.063 248.248 640.433 248.289H630.531V273.578H636.472L636.442 264.141ZM659.494 268.509H670.327V273.569H653.543V248.28H670.644V253.34H659.494V258.548H669.06V263.479H659.494V268.509ZM679.734 263.361L679.358 252.925H679.982L684.141 273.569H693.32V248.28H688.22V258.489L688.606 268.915H687.973L683.814 248.28H674.635V273.569H679.734V263.361ZM617.598 279.181C619.228 279.14 620.846 279.478 622.322 280.17C623.586 280.795 624.647 281.764 625.381 282.966C626.148 284.267 626.532 285.757 626.49 287.265C626.528 288.717 626.142 290.148 625.381 291.386C624.634 292.57 623.557 293.511 622.282 294.094C620.801 294.772 619.187 295.109 617.559 295.082H613.598V304.47H607.656V279.181H617.598ZM644.899 293.778C646.144 293.194 647.203 292.277 647.958 291.129C648.696 289.969 649.074 288.619 649.048 287.246C649.087 285.747 648.713 284.267 647.968 282.966C647.258 281.754 646.208 280.775 644.948 280.15C643.533 279.465 641.975 279.126 640.403 279.162H630.174V304.451H636.115V294.717H637.363L642.958 304.451H649.642L643.502 294.292C643.981 294.157 644.448 293.986 644.899 293.778ZM653.939 281.93C655.682 279.67 658.22 278.54 661.554 278.54C664.888 278.56 667.426 279.69 669.169 281.93C670.911 284.17 671.783 287.464 671.783 291.812C671.783 296.147 670.911 299.441 669.169 301.694C667.426 303.948 664.888 305.074 661.554 305.074C658.22 305.074 655.682 303.948 653.939 301.694C652.196 299.441 651.325 296.147 651.325 291.812C651.325 287.484 652.196 284.189 653.939 281.93ZM684.418 291.407H683.784L682.17 279.172H674.476V304.461H679.516V295.073L679.1 284.548H679.734L681.319 296.555H686.636L688.22 284.548H688.854L688.438 295.073V304.461H693.478V279.172H686.032L684.418 291.407ZM707.698 279.181C709.328 279.14 710.945 279.479 712.421 280.169C713.687 280.796 714.751 281.765 715.491 282.966C716.257 284.267 716.642 285.757 716.6 287.265C716.637 288.717 716.252 290.148 715.491 291.386C714.741 292.568 713.665 293.508 712.392 294.094C710.911 294.771 709.297 295.109 707.668 295.082H703.707V304.47H697.766V279.181H707.698ZM718.779 279.172V284.835H725.849V304.461H731.8V284.835H738.86V279.172H718.779ZM613.865 315.727H607.656V310.064H626.025V315.727H619.816V329.691H626.025V335.353H607.656V329.691H613.865V315.727ZM643.374 320.282L643.76 330.708H643.126L638.977 310.074H629.788V335.353H634.888V325.144L634.511 314.718H635.145L639.294 335.353H648.473V310.074H643.374V320.282ZM663.376 315.08C662.949 314.91 662.49 314.831 662.03 314.847C661.357 314.829 660.694 315.003 660.119 315.35C659.543 315.697 659.079 316.201 658.782 316.803C657.943 318.662 657.569 320.697 657.693 322.733C657.686 325.605 658.046 327.7 658.772 329.018C659.09 329.647 659.586 330.17 660.198 330.521C660.811 330.873 661.513 331.037 662.218 330.994C662.874 331.016 663.522 330.846 664.083 330.505C664.644 330.165 665.094 329.669 665.377 329.077C665.688 328.434 665.844 327.726 665.832 327.012H661.426V321.823H671.031V335.293H665.832V333.178H664.535C664.274 334.012 663.709 334.718 662.951 335.155C662.072 335.645 661.076 335.888 660.069 335.856C658.832 335.895 657.608 335.599 656.526 335.001C655.444 334.402 654.543 333.524 653.92 332.457C652.487 330.191 651.771 326.929 651.771 322.673C651.771 318.338 652.642 315.044 654.385 312.791C656.128 310.538 658.676 309.411 662.03 309.411C663.724 309.367 665.403 309.747 666.911 310.518C668.278 311.247 669.4 312.361 670.139 313.72C670.968 315.288 671.422 317.027 671.466 318.799H665.891C665.727 317.7 665.249 316.671 664.515 315.835C664.192 315.507 663.804 315.25 663.376 315.08ZM675.215 330.52H680.014V335.309H675.215V330.52ZM719.792 329.803H717.13V326.622H722.978V334.89H719.832V333.596H719.046C718.874 334.112 718.513 334.543 718.037 334.799C717.502 335.091 716.9 335.236 716.293 335.217C715.549 335.245 714.811 335.071 714.156 334.712C713.501 334.353 712.954 333.823 712.572 333.177C711.598 331.339 711.147 329.264 711.271 327.183C711.115 325.023 711.672 322.871 712.854 321.065C713.408 320.375 714.117 319.83 714.922 319.475C715.728 319.12 716.606 318.966 717.483 319.026C718.509 318.997 719.526 319.232 720.437 319.709C721.26 320.162 721.934 320.85 722.373 321.687C722.873 322.648 723.148 323.712 723.18 324.797H719.872C719.773 324.114 719.483 323.473 719.035 322.951C718.84 322.752 718.605 322.595 718.346 322.492C718.088 322.388 717.811 322.34 717.533 322.35C717.118 322.328 716.707 322.429 716.348 322.641C715.99 322.853 715.701 323.167 715.516 323.543C715.007 324.684 714.782 325.933 714.861 327.183C714.783 328.498 715.007 329.813 715.516 331.026C715.708 331.414 716.008 331.736 716.379 331.953C716.75 332.171 717.176 332.274 717.604 332.25C718.009 332.261 718.409 332.151 718.753 331.934C719.08 331.723 719.345 331.427 719.519 331.077C719.707 330.68 719.801 330.243 719.792 329.803ZM690.044 319.026C689.171 318.97 688.297 319.125 687.495 319.48C686.694 319.835 685.987 320.378 685.436 321.065C684.254 322.871 683.697 325.023 683.853 327.182C683.707 329.326 684.263 331.457 685.436 333.249C685.987 333.936 686.694 334.479 687.495 334.834C688.297 335.189 689.171 335.344 690.044 335.288C690.918 335.345 691.792 335.19 692.594 334.835C693.396 334.48 694.102 333.936 694.653 333.249C695.825 331.457 696.381 329.326 696.236 327.182C696.391 325.023 695.834 322.871 694.653 321.065C694.102 320.378 693.396 319.834 692.594 319.479C691.792 319.124 690.918 318.969 690.044 319.026ZM707.106 328.365C707.859 328.016 708.502 327.461 708.962 326.765C709.409 326.052 709.637 325.222 709.617 324.379C709.641 323.459 709.418 322.55 708.972 321.748C708.535 321.014 707.897 320.423 707.136 320.046C706.28 319.622 705.336 319.412 704.383 319.434H698.192V334.921H701.802V328.957H702.568L705.957 334.921H709.99L706.259 328.691C706.55 328.606 706.833 328.497 707.106 328.365Z" fill="white"/>
<path d="M720.25 8.8421V48H729V0H704V8.8421H720.25Z" fill="white"/>
<path d="M8.75 8.8421V48H0V0H25V8.8421H8.75Z" fill="white"/>
<path d="M8.75 327.158V288H0V336H25V327.158H8.75Z" fill="white"/>
<path d="M596.79 39V18.06H605.13C607.01 18.06 608.45 18.6 609.45 19.68C610.47 20.74 610.98 22.2 610.98 24.06C610.98 25.92 610.47 27.39 609.45 28.47C608.45 29.53 607.01 30.06 605.13 30.06H599.31V39H596.79ZM599.31 27.84H605.13C606.13 27.84 606.9 27.58 607.44 27.06C608 26.54 608.28 25.8 608.28 24.84V23.28C608.28 22.32 608 21.58 607.44 21.06C606.9 20.54 606.13 20.28 605.13 20.28H599.31V27.84Z" fill="white"/>
<path d="M620.277 39.36C619.217 39.36 618.257 39.17 617.397 38.79C616.557 38.41 615.827 37.87 615.207 37.17C614.607 36.45 614.137 35.6 613.797 34.62C613.477 33.62 613.317 32.5 613.317 31.26C613.317 30.04 613.477 28.93 613.797 27.93C614.137 26.93 614.607 26.08 615.207 25.38C615.827 24.66 616.557 24.11 617.397 23.73C618.257 23.35 619.217 23.16 620.277 23.16C621.317 23.16 622.247 23.35 623.067 23.73C623.887 24.11 624.587 24.64 625.167 25.32C625.747 25.98 626.187 26.77 626.487 27.69C626.807 28.61 626.967 29.62 626.967 30.72V31.86H615.837V32.58C615.837 33.24 615.937 33.86 616.137 34.44C616.357 35 616.657 35.49 617.037 35.91C617.437 36.33 617.917 36.66 618.477 36.9C619.057 37.14 619.707 37.26 620.427 37.26C621.407 37.26 622.257 37.03 622.977 36.57C623.717 36.11 624.287 35.45 624.687 34.59L626.397 35.82C625.897 36.88 625.117 37.74 624.057 38.4C622.997 39.04 621.737 39.36 620.277 39.36ZM620.277 25.17C619.617 25.17 619.017 25.29 618.477 25.53C617.937 25.75 617.467 26.07 617.067 26.49C616.687 26.91 616.387 27.41 616.167 27.99C615.947 28.55 615.837 29.17 615.837 29.85V30.06H624.387V29.73C624.387 28.35 624.007 27.25 623.247 26.43C622.507 25.59 621.517 25.17 620.277 25.17Z" fill="white"/>
<path d="M643.702 39H631.222V23.52H633.622V36.9H640.912V23.52H643.312V36.9H645.892V43.2H643.702V39Z" fill="white"/>
<path d="M655.331 39.36C654.271 39.36 653.311 39.17 652.451 38.79C651.611 38.41 650.881 37.87 650.261 37.17C649.661 36.45 649.191 35.6 648.851 34.62C648.531 33.62 648.371 32.5 648.371 31.26C648.371 30.04 648.531 28.93 648.851 27.93C649.191 26.93 649.661 26.08 650.261 25.38C650.881 24.66 651.611 24.11 652.451 23.73C653.311 23.35 654.271 23.16 655.331 23.16C656.371 23.16 657.301 23.35 658.121 23.73C658.941 24.11 659.641 24.64 660.221 25.32C660.801 25.98 661.241 26.77 661.541 27.69C661.861 28.61 662.021 29.62 662.021 30.72V31.86H650.891V32.58C650.891 33.24 650.991 33.86 651.191 34.44C651.411 35 651.711 35.49 652.091 35.91C652.491 36.33 652.971 36.66 653.531 36.9C654.111 37.14 654.761 37.26 655.481 37.26C656.461 37.26 657.311 37.03 658.031 36.57C658.771 36.11 659.341 35.45 659.741 34.59L661.451 35.82C660.951 36.88 660.171 37.74 659.111 38.4C658.051 39.04 656.791 39.36 655.331 39.36ZM655.331 25.17C654.671 25.17 654.071 25.29 653.531 25.53C652.991 25.75 652.521 26.07 652.121 26.49C651.741 26.91 651.441 27.41 651.221 27.99C651.001 28.55 650.891 29.17 650.891 29.85V30.06H659.441V29.73C659.441 28.35 659.061 27.25 658.301 26.43C657.561 25.59 656.571 25.17 655.331 25.17Z" fill="white"/>
<path d="M666.275 23.52H678.365V39H675.965V25.62H668.675V39H666.275V23.52Z" fill="white"/>
<path d="M687.103 25.62H681.823V23.52H694.783V25.62H689.503V39H687.103V25.62Z" fill="white"/>
<path d="M594.24 64.9H596.01C596.63 63.9 597.13 62.65 597.51 61.15C597.89 59.65 598.08 57.93 598.08 55.99V51.52H608.55V64.9H611.13V71.2H608.94V67H596.43V71.2H594.24V64.9ZM606.15 64.9V53.62H600.36V56.11C600.36 58.17 600.18 59.93 599.82 61.39C599.48 62.83 599.07 64 598.59 64.9H606.15Z" fill="white"/>
<path d="M614.75 51.52H617.09V60.1L616.85 63.82H616.97L618.89 60.52L625.07 51.52H627.29V67H624.95V58.42L625.19 54.7H625.07L623.15 58L616.97 67H614.75V51.52Z" fill="white"/>
<path d="M637.067 67.36C635.487 67.36 634.227 67.09 633.287 66.55C632.347 66.01 631.577 65.24 630.977 64.24L632.777 62.8C633.177 63.56 633.727 64.16 634.427 64.6C635.147 65.02 636.027 65.23 637.067 65.23C638.327 65.23 639.257 65 639.857 64.54C640.477 64.08 640.787 63.49 640.787 62.77V62.41C640.787 61.63 640.517 61.04 639.977 60.64C639.457 60.22 638.717 60.01 637.757 60.01H634.457V58H637.457C638.417 58 639.157 57.81 639.677 57.43C640.197 57.05 640.457 56.51 640.457 55.81V55.45C640.457 54.79 640.187 54.27 639.647 53.89C639.127 53.49 638.247 53.29 637.007 53.29C635.987 53.29 635.147 53.5 634.487 53.92C633.827 54.32 633.297 54.87 632.897 55.57L631.307 54.22C631.787 53.32 632.487 52.59 633.407 52.03C634.347 51.45 635.587 51.16 637.127 51.16C639.147 51.16 640.637 51.53 641.597 52.27C642.557 53.01 643.037 54.03 643.037 55.33C643.037 56.29 642.777 57.05 642.257 57.61C641.757 58.17 641.027 58.56 640.067 58.78V58.9C641.167 59.06 641.987 59.46 642.527 60.1C643.087 60.72 643.367 61.52 643.367 62.5C643.367 64 642.797 65.19 641.657 66.07C640.537 66.93 639.007 67.36 637.067 67.36Z" fill="white"/>
<path d="M659.12 67C658.22 67 657.57 66.76 657.17 66.28C656.79 65.8 656.55 65.2 656.45 64.48H656.3C655.96 65.44 655.4 66.16 654.62 66.64C653.84 67.12 652.91 67.36 651.83 67.36C650.19 67.36 648.91 66.94 647.99 66.1C647.09 65.26 646.64 64.12 646.64 62.68C646.64 61.22 647.17 60.1 648.23 59.32C649.31 58.54 650.98 58.15 653.24 58.15H656.3V56.62C656.3 55.52 656 54.68 655.4 54.1C654.8 53.52 653.88 53.23 652.64 53.23C651.7 53.23 650.91 53.44 650.27 53.86C649.65 54.28 649.13 54.84 648.71 55.54L647.27 54.19C647.69 53.35 648.36 52.64 649.28 52.06C650.2 51.46 651.36 51.16 652.76 51.16C654.64 51.16 656.1 51.62 657.14 52.54C658.18 53.46 658.7 54.74 658.7 56.38V64.9H660.47V67H659.12ZM652.22 65.32C652.82 65.32 653.37 65.25 653.87 65.11C654.37 64.97 654.8 64.77 655.16 64.51C655.52 64.25 655.8 63.95 656 63.61C656.2 63.27 656.3 62.9 656.3 62.5V59.95H653.12C651.74 59.95 650.73 60.15 650.09 60.55C649.47 60.95 649.16 61.53 649.16 62.29V62.92C649.16 63.68 649.43 64.27 649.97 64.69C650.53 65.11 651.28 65.32 652.22 65.32Z" fill="white"/>
<path d="M664.195 51.52H666.535V60.1L666.295 63.82H666.415L668.335 60.52L674.515 51.52H676.735V67H674.395V58.42L674.635 54.7H674.515L672.595 58L666.415 67H664.195V51.52ZM670.525 49.12C669.445 49.12 668.585 48.91 667.945 48.49C667.305 48.05 666.795 47.48 666.415 46.78L665.815 45.64L667.915 44.71L668.965 47.17C669.205 47.23 669.465 47.28 669.745 47.32C670.025 47.34 670.285 47.35 670.525 47.35C670.765 47.35 671.025 47.34 671.305 47.32C671.585 47.28 671.845 47.23 672.085 47.17L673.135 44.71L675.235 45.64L674.635 46.78C674.255 47.48 673.745 48.05 673.105 48.49C672.465 48.91 671.605 49.12 670.525 49.12Z" fill="white"/>
<path d="M681.652 59.17V56.59H689.482V59.17H681.652Z" fill="white"/>
<path d="M596.55 79.52H598.95V85.97H606.69V79.52H609.09V95H606.69V88.07H598.95V95H596.55V79.52Z" fill="white"/>
<path d="M620.307 95.36C619.247 95.36 618.287 95.17 617.427 94.79C616.587 94.41 615.857 93.87 615.237 93.17C614.637 92.45 614.167 91.6 613.827 90.62C613.507 89.62 613.347 88.5 613.347 87.26C613.347 86.04 613.507 84.93 613.827 83.93C614.167 82.93 614.637 82.08 615.237 81.38C615.857 80.66 616.587 80.11 617.427 79.73C618.287 79.35 619.247 79.16 620.307 79.16C621.347 79.16 622.277 79.35 623.097 79.73C623.917 80.11 624.617 80.64 625.197 81.32C625.777 81.98 626.217 82.77 626.517 83.69C626.837 84.61 626.997 85.62 626.997 86.72V87.86H615.867V88.58C615.867 89.24 615.967 89.86 616.167 90.44C616.387 91 616.687 91.49 617.067 91.91C617.467 92.33 617.947 92.66 618.507 92.9C619.087 93.14 619.737 93.26 620.457 93.26C621.437 93.26 622.287 93.03 623.007 92.57C623.747 92.11 624.317 91.45 624.717 90.59L626.427 91.82C625.927 92.88 625.147 93.74 624.087 94.4C623.027 95.04 621.767 95.36 620.307 95.36ZM620.307 81.17C619.647 81.17 619.047 81.29 618.507 81.53C617.967 81.75 617.497 82.07 617.097 82.49C616.717 82.91 616.417 83.41 616.197 83.99C615.977 84.55 615.867 85.17 615.867 85.85V86.06H624.417V85.73C624.417 84.35 624.037 83.25 623.277 82.43C622.537 81.59 621.547 81.17 620.307 81.17Z" fill="white"/>
<path d="M631.252 79.52H633.652V82.04H633.772C634.172 81.06 634.752 80.34 635.512 79.88C636.292 79.4 637.222 79.16 638.302 79.16C639.262 79.16 640.132 79.35 640.912 79.73C641.692 80.11 642.352 80.65 642.892 81.35C643.452 82.05 643.872 82.9 644.152 83.9C644.452 84.9 644.602 86.02 644.602 87.26C644.602 88.5 644.452 89.62 644.152 90.62C643.872 91.62 643.452 92.47 642.892 93.17C642.352 93.87 641.692 94.41 640.912 94.79C640.132 95.17 639.262 95.36 638.302 95.36C636.202 95.36 634.692 94.4 633.772 92.48H633.652V101H631.252V79.52ZM637.642 93.2C639.002 93.2 640.072 92.78 640.852 91.94C641.632 91.08 642.022 89.96 642.022 88.58V85.94C642.022 84.56 641.632 83.45 640.852 82.61C640.072 81.75 639.002 81.32 637.642 81.32C637.102 81.32 636.582 81.4 636.082 81.56C635.602 81.7 635.182 81.9 634.822 82.16C634.462 82.42 634.172 82.74 633.952 83.12C633.752 83.48 633.652 83.87 633.652 84.29V90.05C633.652 90.55 633.752 91 633.952 91.4C634.172 91.78 634.462 92.11 634.822 92.39C635.182 92.65 635.602 92.85 636.082 92.99C636.582 93.13 637.102 93.2 637.642 93.2Z" fill="white"/>
<path d="M658.347 79.52H660.717L653.787 98.6C653.607 99.06 653.427 99.44 653.247 99.74C653.067 100.06 652.847 100.31 652.587 100.49C652.327 100.67 651.997 100.8 651.597 100.88C651.217 100.96 650.747 101 650.187 101H648.957V98.9H651.387L652.557 95.6L646.767 79.52H649.167L652.887 90.05L653.607 92.57H653.757L654.597 90.05L658.347 79.52Z" fill="white"/>
<path d="M598.488 124.832H604.568V126.016H599.832V136H598.488V124.832Z" fill="white"/>
<path d="M606.632 124.832H614.744V136H613.4V126.016H607.976V136H606.632V124.832Z" fill="white"/>
<path d="M621.646 126.016V136H620.302V126.016H616.75V124.832H625.198V126.016H621.646Z" fill="white"/>
<path d="M639.848 126.592H639.768L638.824 128.464L636.152 133.328L633.48 128.464L632.536 126.592H632.456V136H631.144V124.832H632.936L636.136 130.848H636.216L639.432 124.832H641.16V136H639.848V126.592Z" fill="white"/>
<path d="M647.264 136.192C646.699 136.192 646.187 136.091 645.728 135.888C645.28 135.685 644.891 135.397 644.56 135.024C644.24 134.64 643.989 134.187 643.808 133.664C643.637 133.131 643.552 132.533 643.552 131.872C643.552 131.221 643.637 130.629 643.808 130.096C643.989 129.563 644.24 129.109 644.56 128.736C644.891 128.352 645.28 128.059 645.728 127.856C646.187 127.653 646.699 127.552 647.264 127.552C647.819 127.552 648.315 127.653 648.752 127.856C649.189 128.059 649.563 128.341 649.872 128.704C650.181 129.056 650.416 129.477 650.576 129.968C650.747 130.459 650.832 130.997 650.832 131.584V132.192H644.896V132.576C644.896 132.928 644.949 133.259 645.056 133.568C645.173 133.867 645.333 134.128 645.536 134.352C645.749 134.576 646.005 134.752 646.304 134.88C646.613 135.008 646.96 135.072 647.344 135.072C647.867 135.072 648.32 134.949 648.704 134.704C649.099 134.459 649.403 134.107 649.616 133.648L650.528 134.304C650.261 134.869 649.845 135.328 649.28 135.68C648.715 136.021 648.043 136.192 647.264 136.192ZM647.264 128.624C646.912 128.624 646.592 128.688 646.304 128.816C646.016 128.933 645.765 129.104 645.552 129.328C645.349 129.552 645.189 129.819 645.072 130.128C644.955 130.427 644.896 130.757 644.896 131.12V131.232H649.456V131.056C649.456 130.32 649.253 129.733 648.848 129.296C648.453 128.848 647.925 128.624 647.264 128.624Z" fill="white"/>
<path d="M653.101 127.744H654.349V132.32L654.221 134.304H654.285L655.309 132.544L658.605 127.744H659.789V136H658.541V131.424L658.669 129.44H658.605L657.581 131.2L654.285 136H653.101V127.744ZM656.477 126.464C655.901 126.464 655.443 126.352 655.101 126.128C654.76 125.893 654.488 125.589 654.285 125.216L653.965 124.608L655.085 124.112L655.645 125.424C655.773 125.456 655.912 125.483 656.061 125.504C656.211 125.515 656.349 125.52 656.477 125.52C656.605 125.52 656.744 125.515 656.893 125.504C657.043 125.483 657.181 125.456 657.309 125.424L657.869 124.112L658.989 124.608L658.669 125.216C658.467 125.589 658.195 125.893 657.853 126.128C657.512 126.352 657.053 126.464 656.477 126.464Z" fill="white"/>
<path d="M664.443 128.864H661.628V127.744H668.539V128.864H665.724V136H664.443V128.864Z" fill="white"/>
<path d="M46.696 93.768C41.0213 93.768 36.6053 91.848 33.448 88.008C30.2907 84.1253 28.712 78.4293 28.712 70.92C28.712 63.4107 30.2907 57.6507 33.448 53.64C36.6053 49.5867 41.0213 47.56 46.696 47.56C50.4507 47.56 53.5867 48.4133 56.104 50.12C58.664 51.8267 60.648 54.2373 62.056 57.352L57.704 59.976C56.808 57.672 55.4427 55.8373 53.608 54.472C51.7733 53.064 49.4693 52.36 46.696 52.36C44.776 52.36 43.048 52.7227 41.512 53.448C40.0187 54.1733 38.7387 55.2187 37.672 56.584C36.648 57.9067 35.8587 59.5067 35.304 61.384C34.7493 63.2187 34.472 65.288 34.472 67.592V74.248C34.472 78.856 35.5387 82.4613 37.672 85.064C39.8053 87.6667 42.8133 88.968 46.696 88.968C49.5547 88.968 51.944 88.2427 53.864 86.792C55.784 85.2987 57.192 83.336 58.088 80.904L62.376 83.592C60.968 86.7493 58.9413 89.2453 56.296 91.08C53.6507 92.872 50.4507 93.768 46.696 93.768Z" fill="white"/>
<path d="M83.31 93.768C81.0913 93.768 79.0647 93.3627 77.23 92.552C75.3953 91.7413 73.8167 90.5893 72.494 89.096C71.214 87.56 70.2113 85.7467 69.486 83.656C68.7607 81.5227 68.398 79.1333 68.398 76.488C68.398 73.8853 68.7607 71.5173 69.486 69.384C70.2113 67.2507 71.214 65.4373 72.494 63.944C73.8167 62.408 75.3953 61.2347 77.23 60.424C79.0647 59.6133 81.0913 59.208 83.31 59.208C85.5287 59.208 87.534 59.6133 89.326 60.424C91.1607 61.2347 92.7393 62.408 94.062 63.944C95.3847 65.4373 96.4087 67.2507 97.134 69.384C97.8593 71.5173 98.222 73.8853 98.222 76.488C98.222 79.1333 97.8593 81.5227 97.134 83.656C96.4087 85.7467 95.3847 87.56 94.062 89.096C92.7393 90.5893 91.1607 91.7413 89.326 92.552C87.534 93.3627 85.5287 93.768 83.31 93.768ZM83.31 89.224C86.0833 89.224 88.3447 88.3707 90.094 86.664C91.8433 84.9573 92.718 82.3547 92.718 78.856V74.12C92.718 70.6213 91.8433 68.0187 90.094 66.312C88.3447 64.6053 86.0833 63.752 83.31 63.752C80.5367 63.752 78.2753 64.6053 76.526 66.312C74.7767 68.0187 73.902 70.6213 73.902 74.12V78.856C73.902 82.3547 74.7767 84.9573 76.526 86.664C78.2753 88.3707 80.5367 89.224 83.31 89.224Z" fill="white"/>
<path d="M116.189 93.768C112.818 93.768 110.13 93.192 108.125 92.04C106.12 90.888 104.477 89.2453 103.197 87.112L107.037 84.04C107.89 85.6613 109.064 86.9413 110.557 87.88C112.093 88.776 113.97 89.224 116.189 89.224C118.877 89.224 120.861 88.7333 122.141 87.752C123.464 86.7707 124.125 85.512 124.125 83.976V83.208C124.125 81.544 123.549 80.2853 122.397 79.432C121.288 78.536 119.709 78.088 117.661 78.088H110.621V73.8H117.021C119.069 73.8 120.648 73.3947 121.757 72.584C122.866 71.7733 123.421 70.6213 123.421 69.128V68.36C123.421 66.952 122.845 65.8427 121.693 65.032C120.584 64.1787 118.706 63.752 116.061 63.752C113.885 63.752 112.093 64.2 110.685 65.096C109.277 65.9493 108.146 67.1227 107.293 68.616L103.901 65.736C104.925 63.816 106.418 62.2587 108.381 61.064C110.386 59.8267 113.032 59.208 116.317 59.208C120.626 59.208 123.805 59.9973 125.853 61.576C127.901 63.1547 128.925 65.3307 128.925 68.104C128.925 70.152 128.37 71.7733 127.261 72.968C126.194 74.1627 124.637 74.9947 122.589 75.464V75.72C124.936 76.0613 126.685 76.9147 127.837 78.28C129.032 79.6027 129.629 81.3093 129.629 83.4C129.629 86.6 128.413 89.1387 125.981 91.016C123.592 92.8507 120.328 93.768 116.189 93.768Z" fill="white"/>
<path d="M134.619 88.52H138.395C139.718 86.3867 140.785 83.72 141.596 80.52C142.406 77.32 142.811 73.6507 142.811 69.512V59.976H165.147V88.52H170.652V101.96H165.979V93H139.292V101.96H134.619V88.52ZM160.027 88.52V64.456H147.676V69.768C147.676 74.1627 147.291 77.9173 146.523 81.032C145.798 84.104 144.924 86.6 143.9 88.52H160.027Z" fill="white"/>
<path d="M202.375 93C200.455 93 199.068 92.488 198.215 91.464C197.404 90.44 196.892 89.16 196.679 87.624H196.359C195.634 89.672 194.439 91.208 192.775 92.232C191.111 93.256 189.127 93.768 186.823 93.768C183.324 93.768 180.594 92.872 178.631 91.08C176.711 89.288 175.751 86.856 175.751 83.784C175.751 80.6693 176.882 78.28 179.143 76.616C181.447 74.952 185.01 74.12 189.831 74.12H196.359V70.856C196.359 68.5093 195.719 66.7173 194.439 65.48C193.159 64.2427 191.196 63.624 188.551 63.624C186.546 63.624 184.86 64.072 183.495 64.968C182.172 65.864 181.063 67.0587 180.167 68.552L177.095 65.672C177.991 63.88 179.42 62.3653 181.383 61.128C183.346 59.848 185.82 59.208 188.807 59.208C192.818 59.208 195.932 60.1893 198.151 62.152C200.37 64.1147 201.479 66.8453 201.479 70.344V88.52H205.255V93H202.375ZM187.655 89.416C188.935 89.416 190.108 89.2667 191.175 88.968C192.242 88.6693 193.159 88.2427 193.927 87.688C194.695 87.1333 195.292 86.4933 195.719 85.768C196.146 85.0427 196.359 84.2533 196.359 83.4V77.96H189.575C186.631 77.96 184.476 78.3867 183.111 79.24C181.788 80.0933 181.127 81.3307 181.127 82.952V84.296C181.127 85.9173 181.703 87.176 182.855 88.072C184.05 88.968 185.65 89.416 187.655 89.416Z" fill="white"/>
<path d="M219.119 64.456H207.855V59.976H235.503V64.456H224.239V93H219.119V64.456Z" fill="white"/>
<path d="M242.842 59.976H247.962V71.944H257.37C260.698 71.944 263.344 72.8827 265.306 74.76C267.269 76.6373 268.25 79.2187 268.25 82.504C268.25 85.832 267.29 88.4133 265.37 90.248C263.45 92.0827 260.805 93 257.435 93H242.842V59.976ZM256.667 88.52C258.587 88.52 260.08 88.1573 261.146 87.432C262.213 86.7067 262.746 85.4907 262.746 83.784V81.096C262.746 79.3893 262.213 78.1947 261.146 77.512C260.08 76.7867 258.587 76.424 256.667 76.424H247.962V88.52H256.667Z" fill="white"/>
<path d="M39.592 147.88L27.304 137.256V132.392L39.592 121.768L41.128 125.224L32.36 134.824L41.128 144.424L39.592 147.88ZM52.968 147.88L40.68 137.256V132.392L52.968 121.768L54.504 125.224L45.736 134.824L54.504 144.424L52.968 147.88Z" fill="white"/>
<path d="M63.8925 119.976H69.0125V125.352H69.2685C70.1218 123.261 71.3592 121.725 72.9805 120.744C74.6445 119.72 76.6285 119.208 78.9325 119.208C80.9805 119.208 82.8365 119.613 84.5005 120.424C86.1645 121.235 87.5725 122.387 88.7245 123.88C89.9192 125.373 90.8152 127.187 91.4125 129.32C92.0525 131.453 92.3725 133.843 92.3725 136.488C92.3725 139.133 92.0525 141.523 91.4125 143.656C90.8152 145.789 89.9192 147.603 88.7245 149.096C87.5725 150.589 86.1645 151.741 84.5005 152.552C82.8365 153.363 80.9805 153.768 78.9325 153.768C74.4525 153.768 71.2312 151.72 69.2685 147.624H69.0125V165.8H63.8925V119.976ZM77.5245 149.16C80.4258 149.16 82.7085 148.264 84.3725 146.472C86.0365 144.637 86.8685 142.248 86.8685 139.304V133.672C86.8685 130.728 86.0365 128.36 84.3725 126.568C82.7085 124.733 80.4258 123.816 77.5245 123.816C76.3725 123.816 75.2632 123.987 74.1965 124.328C73.1725 124.627 72.2765 125.053 71.5085 125.608C70.7405 126.163 70.1218 126.845 69.6525 127.656C69.2258 128.424 69.0125 129.256 69.0125 130.152V142.44C69.0125 143.507 69.2258 144.467 69.6525 145.32C70.1218 146.131 70.7405 146.835 71.5085 147.432C72.2765 147.987 73.1725 148.413 74.1965 148.712C75.2632 149.011 76.3725 149.16 77.5245 149.16Z" fill="white"/>
<path d="M101.658 119.976H106.777V131.944H115.546C118.874 131.944 121.519 132.883 123.481 134.76C125.444 136.637 126.425 139.219 126.425 142.504C126.425 145.832 125.466 148.413 123.546 150.248C121.626 152.083 118.98 153 115.609 153H101.658V119.976ZM114.841 148.52C116.762 148.52 118.255 148.157 119.322 147.432C120.388 146.707 120.922 145.491 120.922 143.784V141.096C120.922 139.389 120.388 138.195 119.322 137.512C118.255 136.787 116.762 136.424 114.841 136.424H106.777V148.52H114.841ZM131.993 119.976H137.113V153H131.993V119.976Z" fill="white"/>
<path d="M161.346 153.768C159.042 153.768 156.973 153.384 155.138 152.616C153.303 151.848 151.746 150.653 150.466 149.032C149.186 147.411 148.183 145.32 147.458 142.76C146.775 140.157 146.434 137.021 146.434 133.352C146.434 128.616 146.733 124.563 147.33 121.192C147.97 117.821 148.973 115.048 150.338 112.872C151.703 110.696 153.431 109.075 155.522 108.008C157.655 106.899 160.237 106.216 163.266 105.96L173.634 105.128V110.312L162.626 111.208C160.749 111.379 159.17 111.741 157.89 112.296C156.61 112.851 155.543 113.725 154.69 114.92C153.879 116.072 153.239 117.608 152.77 119.528C152.343 121.448 152.023 123.837 151.81 126.696H152.066C153.047 124.435 154.306 122.749 155.842 121.64C157.421 120.531 159.49 119.976 162.05 119.976C164.141 119.976 166.061 120.36 167.81 121.128C169.559 121.896 171.053 123.005 172.29 124.456C173.527 125.864 174.487 127.635 175.17 129.768C175.895 131.859 176.258 134.248 176.258 136.936C176.258 139.453 175.895 141.736 175.17 143.784C174.445 145.832 173.421 147.603 172.098 149.096C170.775 150.589 169.197 151.741 167.362 152.552C165.57 153.363 163.565 153.768 161.346 153.768ZM161.602 149.224C162.925 149.224 164.141 149.011 165.25 148.584C166.359 148.157 167.319 147.517 168.13 146.664C168.941 145.811 169.581 144.765 170.05 143.528C170.519 142.291 170.754 140.84 170.754 139.176V135.144C170.754 131.56 169.879 128.893 168.13 127.144C166.381 125.395 164.034 124.52 161.09 124.52C158.018 124.52 155.714 125.288 154.178 126.824C152.685 128.317 151.938 130.28 151.938 132.712V138.6C151.938 142.184 152.813 144.851 154.562 146.6C156.311 148.349 158.658 149.224 161.602 149.224Z" fill="white"/>
<path d="M185.375 119.976H190.495V133.736H207.007V119.976H212.127V153H207.007V138.216H190.495V153H185.375V119.976Z" fill="white"/>
<path d="M223.64 119.976H228.76V131.944H237.528C240.856 131.944 243.501 132.883 245.464 134.76C247.427 136.637 248.408 139.219 248.408 142.504C248.408 145.832 247.448 148.413 245.528 150.248C243.608 152.083 240.963 153 237.592 153H223.64V119.976ZM236.824 148.52C238.744 148.52 240.237 148.157 241.304 147.432C242.371 146.707 242.904 145.491 242.904 143.784V141.096C242.904 139.389 242.371 138.195 241.304 137.512C240.237 136.787 238.744 136.424 236.824 136.424H228.76V148.52H236.824ZM253.976 119.976H259.096V153H253.976V119.976Z" fill="white"/>
<path d="M270.592 119.976H275.585V138.28L275.073 146.216H275.328L279.424 139.176L292.608 119.976H297.344V153H292.353V134.696L292.865 126.76H292.608L288.513 133.8L275.328 153H270.592V119.976ZM284.096 114.856C281.792 114.856 279.958 114.408 278.592 113.512C277.227 112.573 276.139 111.357 275.328 109.864L274.048 107.432L278.529 105.448L280.768 110.696C281.28 110.824 281.835 110.931 282.432 111.016C283.03 111.059 283.584 111.08 284.096 111.08C284.608 111.08 285.163 111.059 285.76 111.016C286.358 110.931 286.912 110.824 287.424 110.696L289.664 105.448L294.145 107.432L292.865 109.864C292.054 111.357 290.966 112.573 289.6 113.512C288.235 114.408 286.4 114.856 284.096 114.856Z" fill="white"/>
<path d="M331.727 124.456H320.462V119.976H348.111V124.456H336.846V153H331.727V124.456Z" fill="white"/>
<path d="M367.053 153.768C364.792 153.768 362.744 153.363 360.91 152.552C359.118 151.741 357.56 150.589 356.238 149.096C354.958 147.56 353.955 145.747 353.23 143.656C352.547 141.523 352.206 139.133 352.206 136.488C352.206 133.885 352.547 131.517 353.23 129.384C353.955 127.251 354.958 125.437 356.238 123.944C357.56 122.408 359.118 121.235 360.91 120.424C362.744 119.613 364.792 119.208 367.053 119.208C369.272 119.208 371.256 119.613 373.006 120.424C374.755 121.235 376.248 122.365 377.486 123.816C378.723 125.224 379.662 126.909 380.302 128.872C380.984 130.835 381.326 132.989 381.326 135.336V137.768H357.582V139.304C357.582 140.712 357.795 142.035 358.221 143.272C358.691 144.467 359.331 145.512 360.142 146.408C360.995 147.304 362.019 148.008 363.214 148.52C364.451 149.032 365.838 149.288 367.374 149.288C369.464 149.288 371.278 148.797 372.814 147.816C374.392 146.835 375.608 145.427 376.462 143.592L380.109 146.216C379.043 148.477 377.379 150.312 375.118 151.72C372.856 153.085 370.168 153.768 367.053 153.768ZM367.053 123.496C365.645 123.496 364.366 123.752 363.214 124.264C362.062 124.733 361.059 125.416 360.206 126.312C359.395 127.208 358.755 128.275 358.286 129.512C357.816 130.707 357.582 132.029 357.582 133.48V133.928H375.822V133.224C375.822 130.28 375.011 127.933 373.39 126.184C371.811 124.392 369.699 123.496 367.053 123.496Z" fill="white"/>
<path d="M390.402 119.976H395.522V133.8H402.115L408.514 123.688C408.984 122.92 409.432 122.301 409.858 121.832C410.285 121.32 410.712 120.936 411.138 120.68C411.565 120.424 412.013 120.253 412.482 120.168C412.952 120.04 413.485 119.976 414.082 119.976H417.09V124.456H413.122L407.939 132.648C407.597 133.203 407.298 133.651 407.042 133.992C406.786 134.333 406.531 134.632 406.275 134.888C406.019 135.101 405.741 135.293 405.443 135.464C405.144 135.592 404.781 135.72 404.354 135.848V136.104C405.25 136.232 406.019 136.531 406.659 137C407.341 137.427 408.045 138.28 408.771 139.56L413.827 148.52H417.603V153H413.891C412.781 153 411.757 152.723 410.818 152.168C409.922 151.571 409.048 150.504 408.194 148.968L402.115 138.152H395.522V153H390.402V119.976Z" fill="white"/>
<path d="M437.518 153.768C435.214 153.768 433.145 153.363 431.31 152.552C429.475 151.741 427.918 150.589 426.638 149.096C425.401 147.603 424.441 145.789 423.758 143.656C423.118 141.523 422.798 139.133 422.798 136.488C422.798 133.843 423.118 131.453 423.758 129.32C424.441 127.187 425.401 125.373 426.638 123.88C427.918 122.387 429.475 121.235 431.31 120.424C433.145 119.613 435.214 119.208 437.518 119.208C440.803 119.208 443.427 119.933 445.39 121.384C447.395 122.792 448.889 124.648 449.87 126.952L445.582 129.128C444.985 127.421 444.003 126.099 442.638 125.16C441.273 124.221 439.566 123.752 437.518 123.752C435.982 123.752 434.638 124.008 433.486 124.52C432.334 124.989 431.374 125.672 430.606 126.568C429.838 127.421 429.262 128.467 428.878 129.704C428.494 130.899 428.302 132.221 428.302 133.672V139.304C428.302 142.205 429.07 144.595 430.606 146.472C432.185 148.307 434.489 149.224 437.518 149.224C441.657 149.224 444.643 147.304 446.478 143.464L450.19 145.96C449.123 148.349 447.523 150.248 445.39 151.656C443.299 153.064 440.675 153.768 437.518 153.768Z" fill="white"/>
<path d="M465.411 124.456H454.147V119.976H481.796V124.456H470.531V153H465.411V124.456Z" fill="white"/>
<path d="M487.023 144.424L495.791 134.824L487.023 125.224L488.559 121.768L500.847 132.392V137.256L488.559 147.88L487.023 144.424ZM500.399 144.424L509.167 134.824L500.399 125.224L501.935 121.768L514.223 132.392V137.256L501.935 147.88L500.399 144.424Z" fill="white"/>
<path d="M25.512 208.52H29.288C30.6107 206.387 31.6773 203.72 32.488 200.52C33.2987 197.32 33.704 193.651 33.704 189.512V179.976H56.04V208.52H61.544V221.96H56.872V213H30.184V221.96H25.512V208.52ZM50.92 208.52V184.456H38.568V189.768C38.568 194.163 38.184 197.917 37.416 201.032C36.6907 204.104 35.816 206.6 34.792 208.52H50.92Z" fill="white"/>
<path d="M64.7145 208.52H69.0665C69.6212 207.752 70.1118 206.835 70.5385 205.768C70.9652 204.701 71.3278 203.421 71.6265 201.928C71.9252 200.435 72.1598 198.664 72.3305 196.616C72.5012 194.568 72.5865 192.157 72.5865 189.384V179.976H94.9225V213H89.8025V184.456H77.4505V189.512C77.4505 192.712 77.3225 195.507 77.0665 197.896C76.8532 200.285 76.5332 202.333 76.1065 204.04C75.7225 205.747 75.2532 207.155 74.6985 208.264C74.1438 209.331 73.5465 210.184 72.9065 210.824C72.0958 211.635 71.1998 212.211 70.2185 212.552C69.2372 212.851 68.0638 213 66.6985 213H64.7145V208.52Z" fill="white"/>
<path d="M103.526 208.52H107.174L109.286 203.656C109.755 202.547 110.331 201.715 111.014 201.16C111.697 200.563 112.465 200.2 113.318 200.072V199.816C110.374 199.56 108.155 198.6 106.662 196.936C105.169 195.272 104.422 193.032 104.422 190.216C104.422 187.016 105.382 184.52 107.302 182.728C109.222 180.893 111.867 179.976 115.238 179.976H129.83V213H124.71V200.328H116.134L112.678 208.456C111.91 210.248 111.057 211.464 110.118 212.104C109.222 212.701 108.198 213 107.046 213H103.526V208.52ZM124.71 195.976V184.456H116.006C114.086 184.456 112.593 184.819 111.526 185.544C110.459 186.269 109.926 187.485 109.926 189.192V191.304C109.926 193.011 110.459 194.227 111.526 194.952C112.593 195.635 114.086 195.976 116.006 195.976H124.71Z" fill="white"/>
<path d="M152.197 208.52H155.973C157.296 206.387 158.362 203.72 159.173 200.52C159.984 197.32 160.389 193.651 160.389 189.512V179.976H182.725V208.52H188.229V221.96H183.557V213H156.869V221.96H152.197V208.52ZM177.605 208.52V184.456H165.253V189.768C165.253 194.163 164.869 197.917 164.101 201.032C163.376 204.104 162.501 206.6 161.477 208.52H177.605Z" fill="white"/>
<path d="M195.952 179.976H200.945V198.28L200.432 206.216H200.688L204.785 199.176L217.969 179.976H222.704V213H217.712V194.696L218.225 186.76H217.969L213.872 193.8L200.688 213H195.952V179.976Z" fill="white"/>
<path d="M243.561 213.768C240.191 213.768 237.503 213.192 235.497 212.04C233.492 210.888 231.85 209.245 230.57 207.112L234.41 204.04C235.263 205.661 236.436 206.941 237.93 207.88C239.466 208.776 241.343 209.224 243.561 209.224C246.249 209.224 248.233 208.733 249.513 207.752C250.836 206.771 251.497 205.512 251.497 203.976V203.208C251.497 201.544 250.922 200.285 249.77 199.432C248.66 198.536 247.081 198.088 245.033 198.088H237.993V193.8H244.393C246.441 193.8 248.02 193.395 249.13 192.584C250.239 191.773 250.794 190.621 250.794 189.128V188.36C250.794 186.952 250.217 185.843 249.065 185.032C247.956 184.179 246.079 183.752 243.434 183.752C241.258 183.752 239.465 184.2 238.057 185.096C236.649 185.949 235.519 187.123 234.665 188.616L231.273 185.736C232.297 183.816 233.791 182.259 235.753 181.064C237.759 179.827 240.404 179.208 243.689 179.208C247.999 179.208 251.177 179.997 253.225 181.576C255.273 183.155 256.297 185.331 256.297 188.104C256.297 190.152 255.743 191.773 254.633 192.968C253.567 194.163 252.01 194.995 249.962 195.464V195.72C252.308 196.061 254.058 196.915 255.21 198.28C256.404 199.603 257.001 201.309 257.001 203.4C257.001 206.6 255.786 209.139 253.354 211.016C250.964 212.851 247.7 213.768 243.561 213.768Z" fill="white"/>
<path d="M290.607 213C288.687 213 287.301 212.488 286.448 211.464C285.637 210.44 285.125 209.16 284.911 207.624H284.591C283.866 209.672 282.672 211.208 281.008 212.232C279.344 213.256 277.359 213.768 275.055 213.768C271.557 213.768 268.826 212.872 266.863 211.08C264.943 209.288 263.983 206.856 263.983 203.784C263.983 200.669 265.114 198.28 267.375 196.616C269.679 194.952 273.242 194.12 278.064 194.12H284.591V190.856C284.591 188.509 283.952 186.717 282.672 185.48C281.392 184.243 279.429 183.624 276.784 183.624C274.778 183.624 273.093 184.072 271.728 184.968C270.405 185.864 269.296 187.059 268.4 188.552L265.327 185.672C266.223 183.88 267.653 182.365 269.616 181.128C271.578 179.848 274.053 179.208 277.039 179.208C281.05 179.208 284.165 180.189 286.383 182.152C288.602 184.115 289.711 186.845 289.711 190.344V208.52H293.487V213H290.607ZM275.887 209.416C277.167 209.416 278.341 209.267 279.408 208.968C280.474 208.669 281.391 208.243 282.159 207.688C282.927 207.133 283.525 206.493 283.952 205.768C284.378 205.043 284.591 204.253 284.591 203.4V197.96H277.807C274.863 197.96 272.709 198.387 271.344 199.24C270.021 200.093 269.359 201.331 269.359 202.952V204.296C269.359 205.917 269.935 207.176 271.087 208.072C272.282 208.968 273.882 209.416 275.887 209.416Z" fill="white"/>
<path d="M301.435 179.976H306.427V198.28L305.915 206.216H306.171L310.267 199.176L323.451 179.976H328.187V213H323.195V194.696L323.707 186.76H323.451L319.355 193.8L306.171 213H301.435V179.976ZM314.939 174.856C312.635 174.856 310.8 174.408 309.435 173.512C308.07 172.573 306.982 171.357 306.171 169.864L304.891 167.432L309.371 165.448L311.611 170.696C312.123 170.824 312.678 170.931 313.275 171.016C313.872 171.059 314.427 171.08 314.939 171.08C315.451 171.08 316.006 171.059 316.603 171.016C317.2 170.931 317.755 170.824 318.267 170.696L320.507 165.448L324.987 167.432L323.707 169.864C322.896 171.357 321.808 172.573 320.443 173.512C319.078 174.408 317.243 174.856 314.939 174.856Z" fill="white"/>
<path d="M339.7 179.976H344.82V193.736H361.332V179.976H366.452V213H361.332V198.216H344.82V213H339.7V179.976Z" fill="white"/>
<path d="M390.381 213.768C388.12 213.768 386.072 213.363 384.237 212.552C382.445 211.741 380.888 210.589 379.565 209.096C378.285 207.56 377.282 205.747 376.557 203.656C375.874 201.523 375.533 199.133 375.533 196.488C375.533 193.885 375.874 191.517 376.557 189.384C377.282 187.251 378.285 185.437 379.565 183.944C380.888 182.408 382.445 181.235 384.237 180.424C386.072 179.613 388.12 179.208 390.381 179.208C392.6 179.208 394.584 179.613 396.333 180.424C398.082 181.235 399.576 182.365 400.813 183.816C402.05 185.224 402.989 186.909 403.629 188.872C404.312 190.835 404.653 192.989 404.653 195.336V197.768H380.909V199.304C380.909 200.712 381.122 202.035 381.549 203.272C382.018 204.467 382.658 205.512 383.469 206.408C384.322 207.304 385.346 208.008 386.541 208.52C387.778 209.032 389.165 209.288 390.701 209.288C392.792 209.288 394.605 208.797 396.141 207.816C397.72 206.835 398.936 205.427 399.789 203.592L403.437 206.216C402.37 208.477 400.706 210.312 398.445 211.72C396.184 213.085 393.496 213.768 390.381 213.768ZM390.381 183.496C388.973 183.496 387.693 183.752 386.541 184.264C385.389 184.733 384.386 185.416 383.533 186.312C382.722 187.208 382.082 188.275 381.613 189.512C381.144 190.707 380.909 192.029 380.909 193.48V193.928H399.149V193.224C399.149 190.28 398.338 187.933 396.717 186.184C395.138 184.392 393.026 183.496 390.381 183.496Z" fill="white"/>
<path d="M413.73 179.976H418.85V185.352H419.106C419.959 183.261 421.197 181.725 422.818 180.744C424.482 179.72 426.466 179.208 428.77 179.208C430.818 179.208 432.674 179.613 434.338 180.424C436.002 181.235 437.41 182.387 438.562 183.88C439.757 185.373 440.653 187.187 441.25 189.32C441.89 191.453 442.21 193.843 442.21 196.488C442.21 199.133 441.89 201.523 441.25 203.656C440.653 205.789 439.757 207.603 438.562 209.096C437.41 210.589 436.002 211.741 434.338 212.552C432.674 213.363 430.818 213.768 428.77 213.768C424.29 213.768 421.069 211.72 419.106 207.624H418.85V225.8H413.73V179.976ZM427.362 209.16C430.263 209.16 432.546 208.264 434.21 206.472C435.874 204.637 436.706 202.248 436.706 199.304V193.672C436.706 190.728 435.874 188.36 434.21 186.568C432.546 184.733 430.263 183.816 427.362 183.816C426.21 183.816 425.101 183.987 424.034 184.328C423.01 184.627 422.114 185.053 421.346 185.608C420.578 186.163 419.959 186.845 419.49 187.656C419.063 188.424 418.85 189.256 418.85 190.152V202.44C418.85 203.507 419.063 204.467 419.49 205.32C419.959 206.131 420.578 206.835 421.346 207.432C422.114 207.987 423.01 208.413 424.034 208.712C425.101 209.011 426.21 209.16 427.362 209.16Z" fill="white"/>
<path d="M451.096 196.296V190.792H467.8V196.296H451.096Z" fill="white"/>
<path d="M42.728 273.768C40.424 273.768 38.3547 273.363 36.52 272.552C34.6853 271.741 33.128 270.589 31.848 269.096C30.6107 267.603 29.6507 265.789 28.968 263.656C28.328 261.523 28.008 259.133 28.008 256.488C28.008 253.843 28.328 251.453 28.968 249.32C29.6507 247.187 30.6107 245.373 31.848 243.88C33.128 242.387 34.6853 241.235 36.52 240.424C38.3547 239.613 40.424 239.208 42.728 239.208C46.0133 239.208 48.6373 239.933 50.6 241.384C52.6053 242.792 54.0987 244.648 55.08 246.952L50.792 249.128C50.1947 247.421 49.2133 246.099 47.848 245.16C46.4827 244.221 44.776 243.752 42.728 243.752C41.192 243.752 39.848 244.008 38.696 244.52C37.544 244.989 36.584 245.672 35.816 246.568C35.048 247.421 34.472 248.467 34.088 249.704C33.704 250.899 33.512 252.221 33.512 253.672V259.304C33.512 262.205 34.28 264.595 35.816 266.472C37.3947 268.307 39.6987 269.224 42.728 269.224C46.8667 269.224 49.8533 267.304 51.688 263.464L55.4 265.96C54.3333 268.349 52.7333 270.248 50.6 271.656C48.5093 273.064 45.8853 273.768 42.728 273.768Z" fill="white"/>
<path d="M63.2675 239.976H68.3875V253.8H74.9795L81.3795 243.688C81.8488 242.92 82.2968 242.301 82.7235 241.832C83.1502 241.32 83.5768 240.936 84.0035 240.68C84.4302 240.424 84.8782 240.253 85.3475 240.168C85.8168 240.04 86.3502 239.976 86.9475 239.976H89.9555V244.456H85.9875L80.8035 252.648C80.4622 253.203 80.1635 253.651 79.9075 253.992C79.6515 254.333 79.3955 254.632 79.1395 254.888C78.8835 255.101 78.6062 255.293 78.3075 255.464C78.0088 255.592 77.6462 255.72 77.2195 255.848V256.104C78.1155 256.232 78.8835 256.531 79.5235 257C80.2062 257.427 80.9102 258.28 81.6355 259.56L86.6915 268.52H90.4675V273H86.7555C85.6462 273 84.6222 272.723 83.6835 272.168C82.7875 271.571 81.9128 270.504 81.0595 268.968L74.9795 258.152H68.3875V273H63.2675V239.976Z" fill="white"/>
<path d="M110.575 273.768C108.356 273.768 106.33 273.363 104.495 272.552C102.66 271.741 101.082 270.589 99.759 269.096C98.479 267.56 97.4763 265.747 96.751 263.656C96.0257 261.523 95.663 259.133 95.663 256.488C95.663 253.885 96.0257 251.517 96.751 249.384C97.4763 247.251 98.479 245.437 99.759 243.944C101.082 242.408 102.66 241.235 104.495 240.424C106.33 239.613 108.356 239.208 110.575 239.208C112.794 239.208 114.799 239.613 116.591 240.424C118.426 241.235 120.004 242.408 121.327 243.944C122.65 245.437 123.674 247.251 124.399 249.384C125.124 251.517 125.487 253.885 125.487 256.488C125.487 259.133 125.124 261.523 124.399 263.656C123.674 265.747 122.65 267.56 121.327 269.096C120.004 270.589 118.426 271.741 116.591 272.552C114.799 273.363 112.794 273.768 110.575 273.768ZM110.575 269.224C113.348 269.224 115.61 268.371 117.359 266.664C119.108 264.957 119.983 262.355 119.983 258.856V254.12C119.983 250.621 119.108 248.019 117.359 246.312C115.61 244.605 113.348 243.752 110.575 243.752C107.802 243.752 105.54 244.605 103.791 246.312C102.042 248.019 101.167 250.621 101.167 254.12V258.856C101.167 262.355 102.042 264.957 103.791 266.664C105.54 268.371 107.802 269.224 110.575 269.224Z" fill="white"/>
<path d="M134.548 239.976H155.411V244.456H139.667V273H134.548V239.976Z" fill="white"/>
<path d="M174.292 273.768C172.074 273.768 170.047 273.363 168.212 272.552C166.378 271.741 164.799 270.589 163.477 269.096C162.197 267.56 161.194 265.747 160.468 263.656C159.743 261.523 159.38 259.133 159.38 256.488C159.38 253.885 159.743 251.517 160.468 249.384C161.194 247.251 162.197 245.437 163.477 243.944C164.799 242.408 166.378 241.235 168.212 240.424C170.047 239.613 172.074 239.208 174.292 239.208C176.511 239.208 178.517 239.613 180.309 240.424C182.143 241.235 183.722 242.408 185.044 243.944C186.367 245.437 187.391 247.251 188.117 249.384C188.842 251.517 189.204 253.885 189.204 256.488C189.204 259.133 188.842 261.523 188.117 263.656C187.391 265.747 186.367 267.56 185.044 269.096C183.722 270.589 182.143 271.741 180.309 272.552C178.517 273.363 176.511 273.768 174.292 273.768ZM174.292 269.224C177.066 269.224 179.327 268.371 181.076 266.664C182.826 264.957 183.701 262.355 183.701 258.856V254.12C183.701 250.621 182.826 248.019 181.076 246.312C179.327 244.605 177.066 243.752 174.292 243.752C171.519 243.752 169.258 244.605 167.508 246.312C165.759 248.019 164.884 250.621 164.884 254.12V258.856C164.884 262.355 165.759 264.957 167.508 266.664C169.258 268.371 171.519 269.224 174.292 269.224Z" fill="white"/>
<path d="M214.03 239.976H220.75L230.798 257.128H231.054L241.038 239.976H247.694V273H242.702V246.12H242.382L240.526 249.704L230.862 266.088L221.198 249.704L219.342 246.12H219.022V273H214.03V239.976Z" fill="white"/>
<path d="M283.232 273C281.312 273 279.926 272.488 279.073 271.464C278.262 270.44 277.75 269.16 277.536 267.624H277.216C276.491 269.672 275.297 271.208 273.633 272.232C271.969 273.256 269.984 273.768 267.68 273.768C264.182 273.768 261.451 272.872 259.488 271.08C257.568 269.288 256.608 266.856 256.608 263.784C256.608 260.669 257.739 258.28 260 256.616C262.304 254.952 265.867 254.12 270.689 254.12H277.216V250.856C277.216 248.509 276.577 246.717 275.297 245.48C274.017 244.243 272.054 243.624 269.409 243.624C267.403 243.624 265.718 244.072 264.353 244.968C263.03 245.864 261.921 247.059 261.025 248.552L257.952 245.672C258.848 243.88 260.278 242.365 262.241 241.128C264.203 239.848 266.678 239.208 269.664 239.208C273.675 239.208 276.79 240.189 279.008 242.152C281.227 244.115 282.336 246.845 282.336 250.344V268.52H286.112V273H283.232ZM268.512 269.416C269.792 269.416 270.966 269.267 272.033 268.968C273.099 268.669 274.016 268.243 274.784 267.688C275.552 267.133 276.15 266.493 276.577 265.768C277.003 265.043 277.216 264.253 277.216 263.4V257.96H270.432C267.488 257.96 265.334 258.387 263.969 259.24C262.646 260.093 261.984 261.331 261.984 262.952V264.296C261.984 265.917 262.56 267.176 263.712 268.072C264.907 268.968 266.507 269.416 268.512 269.416Z" fill="white"/>
<path d="M294.06 239.976H299.18V253.8H305.772L312.172 243.688C312.641 242.92 313.089 242.301 313.516 241.832C313.943 241.32 314.369 240.936 314.796 240.68C315.223 240.424 315.671 240.253 316.14 240.168C316.609 240.04 317.143 239.976 317.74 239.976H320.748V244.456H316.78L311.596 252.648C311.255 253.203 310.956 253.651 310.7 253.992C310.444 254.333 310.188 254.632 309.932 254.888C309.676 255.101 309.399 255.293 309.1 255.464C308.801 255.592 308.439 255.72 308.012 255.848V256.104C308.908 256.232 309.676 256.531 310.316 257C310.999 257.427 311.703 258.28 312.428 259.56L317.484 268.52H321.26V273H317.548C316.439 273 315.415 272.723 314.476 272.168C313.58 271.571 312.705 270.504 311.852 268.968L305.772 258.152H299.18V273H294.06V239.976Z" fill="white"/>
<path d="M341.303 273.768C339.042 273.768 336.994 273.363 335.16 272.552C333.368 271.741 331.81 270.589 330.488 269.096C329.208 267.56 328.205 265.747 327.48 263.656C326.797 261.523 326.456 259.133 326.456 256.488C326.456 253.885 326.797 251.517 327.48 249.384C328.205 247.251 329.208 245.437 330.488 243.944C331.81 242.408 333.368 241.235 335.16 240.424C336.994 239.613 339.042 239.208 341.303 239.208C343.522 239.208 345.506 239.613 347.256 240.424C349.005 241.235 350.498 242.365 351.736 243.816C352.973 245.224 353.912 246.909 354.552 248.872C355.234 250.835 355.576 252.989 355.576 255.336V257.768H331.832V259.304C331.832 260.712 332.045 262.035 332.471 263.272C332.941 264.467 333.581 265.512 334.392 266.408C335.245 267.304 336.269 268.008 337.464 268.52C338.701 269.032 340.088 269.288 341.624 269.288C343.714 269.288 345.528 268.797 347.064 267.816C348.642 266.835 349.858 265.427 350.712 263.592L354.359 266.216C353.293 268.477 351.629 270.312 349.368 271.72C347.106 273.085 344.418 273.768 341.303 273.768ZM341.303 243.496C339.895 243.496 338.616 243.752 337.464 244.264C336.312 244.733 335.309 245.416 334.456 246.312C333.645 247.208 333.005 248.275 332.536 249.512C332.066 250.707 331.832 252.029 331.832 253.48V253.928H350.072V253.224C350.072 250.28 349.261 247.933 347.64 246.184C346.061 244.392 343.949 243.496 341.303 243.496Z" fill="white"/>
<path d="M370.944 244.456H359.68V239.976H387.328V244.456H376.064V273H370.944V244.456Z" fill="white"/>
<path d="M417.855 273C415.935 273 414.548 272.488 413.695 271.464C412.884 270.44 412.372 269.16 412.159 267.624H411.839C411.114 269.672 409.919 271.208 408.255 272.232C406.591 273.256 404.607 273.768 402.303 273.768C398.804 273.768 396.074 272.872 394.111 271.08C392.191 269.288 391.231 266.856 391.231 263.784C391.231 260.669 392.362 258.28 394.623 256.616C396.927 254.952 400.49 254.12 405.311 254.12H411.839V250.856C411.839 248.509 411.199 246.717 409.919 245.48C408.639 244.243 406.676 243.624 404.031 243.624C402.026 243.624 400.34 244.072 398.975 244.968C397.652 245.864 396.543 247.059 395.647 248.552L392.575 245.672C393.471 243.88 394.9 242.365 396.863 241.128C398.826 239.848 401.3 239.208 404.287 239.208C408.298 239.208 411.412 240.189 413.631 242.152C415.85 244.115 416.959 246.845 416.959 250.344V268.52H420.735V273H417.855ZM403.135 269.416C404.415 269.416 405.588 269.267 406.655 268.968C407.722 268.669 408.639 268.243 409.407 267.688C410.175 267.133 410.772 266.493 411.199 265.768C411.626 265.043 411.839 264.253 411.839 263.4V257.96H405.055C402.111 257.96 399.956 258.387 398.591 259.24C397.268 260.093 396.607 261.331 396.607 262.952V264.296C396.607 265.917 397.183 267.176 398.335 268.072C399.53 268.968 401.13 269.416 403.135 269.416Z" fill="white"/>
</svg>
