<svg width="750" height="365" viewBox="0 0 750 365" fill="none" xmlns="http://www.w3.org/2000/svg">
<g clip-path="url(#clip0_207_71)">
<path d="M750 39H88V345H750V39Z" fill="#FFE600"/>
<path d="M618.591 268.269C619.158 267.927 619.619 267.435 619.926 266.849C621.341 263.022 621.341 258.817 619.926 254.99C619.619 254.404 619.158 253.913 618.591 253.57C618.025 253.228 617.375 253.046 616.712 253.046C616.05 253.046 615.4 253.228 614.833 253.57C614.267 253.913 613.805 254.404 613.499 254.99C612.084 258.817 612.084 263.022 613.499 266.849C613.805 267.435 614.267 267.927 614.833 268.269C615.4 268.612 616.05 268.793 616.712 268.793C617.375 268.793 618.025 268.612 618.591 268.269Z" fill="black"/>
<path d="M636.442 253.873H640.403C641.19 253.822 641.97 254.053 642.601 254.525C642.849 254.76 643.045 255.043 643.18 255.357C643.314 255.67 643.384 256.007 643.384 256.348C643.384 256.689 643.314 257.027 643.18 257.34C643.045 257.653 642.849 257.936 642.601 258.172C641.965 258.632 641.187 258.856 640.403 258.804H636.442V253.873Z" fill="black"/>
<path d="M618.014 289.696C618.798 289.748 619.576 289.524 620.212 289.064C620.476 288.839 620.683 288.556 620.818 288.236C620.952 287.917 621.009 287.571 620.985 287.226C621.004 286.884 620.944 286.542 620.81 286.227C620.676 285.912 620.472 285.631 620.212 285.407C619.581 284.935 618.801 284.704 618.014 284.755H614.053V289.696H618.014Z" fill="black"/>
<path d="M636.125 284.765H640.175C640.948 284.719 641.711 284.963 642.314 285.447C642.574 285.678 642.778 285.964 642.914 286.283C643.049 286.603 643.111 286.948 643.096 287.295C643.115 287.643 643.054 287.992 642.919 288.313C642.783 288.635 642.577 288.922 642.314 289.153C641.711 289.637 640.948 289.88 640.175 289.835H636.125V284.765Z" fill="black"/>
<path d="M663.438 299.162C664.004 298.819 664.466 298.328 664.772 297.741C666.187 293.915 666.187 289.709 664.772 285.883C664.466 285.296 664.004 284.805 663.438 284.463C662.871 284.12 662.221 283.939 661.559 283.939C660.896 283.939 660.247 284.12 659.68 284.463C659.114 284.805 658.652 285.296 658.346 285.883C656.917 289.707 656.917 293.917 658.346 297.741C658.652 298.328 659.114 298.819 659.68 299.162C660.247 299.504 660.896 299.686 661.559 299.686C662.221 299.686 662.871 299.504 663.438 299.162Z" fill="black"/>
<path d="M707.698 289.696C708.482 289.748 709.26 289.524 709.896 289.064C710.161 288.839 710.37 288.556 710.506 288.237C710.642 287.918 710.701 287.572 710.678 287.225C710.695 286.883 710.634 286.541 710.498 286.226C710.362 285.911 710.157 285.631 709.896 285.407C709.265 284.935 708.485 284.704 707.698 284.755H703.737V289.696H707.698Z" fill="black"/>
<path d="M691.99 330.802C691.816 331.171 691.539 331.48 691.193 331.692C690.848 331.904 690.448 332.009 690.044 331.995C689.64 332.008 689.242 331.902 688.896 331.69C688.551 331.478 688.273 331.17 688.098 330.802C687.605 329.663 687.384 328.423 687.453 327.182C687.381 325.935 687.603 324.688 688.098 323.543C688.272 323.173 688.549 322.862 688.894 322.649C689.24 322.435 689.639 322.328 690.044 322.34C690.448 322.325 690.848 322.431 691.193 322.643C691.539 322.854 691.816 323.164 691.99 323.532C692.492 324.679 692.714 325.931 692.636 327.182C692.709 328.424 692.488 329.665 691.99 330.802Z" fill="black"/>
<path d="M701.802 322.849H704.252C704.718 322.819 705.178 322.965 705.543 323.257C705.704 323.399 705.832 323.575 705.917 323.772C706.002 323.97 706.044 324.184 706.037 324.399C706.044 324.608 706.006 324.816 705.924 325.009C705.842 325.201 705.719 325.372 705.563 325.51C705.199 325.807 704.739 325.956 704.273 325.928H701.802V322.849Z" fill="black"/>
<path fill-rule="evenodd" clip-rule="evenodd" d="M597 345V238H750V365H740V355H730V345H597ZM609.093 251.028C610.842 248.774 613.384 247.648 616.717 247.648C618.165 247.56 619.613 247.821 620.938 248.41C622.263 248.998 623.428 249.896 624.332 251.028C626.075 253.281 626.946 256.575 626.946 260.91C626.946 265.245 626.075 268.539 624.332 270.792C623.43 271.927 622.266 272.828 620.941 273.418C619.615 274.008 618.166 274.27 616.717 274.182C613.377 274.162 610.835 273.032 609.093 270.792C607.35 268.552 606.478 265.258 606.478 260.91C606.472 256.575 607.343 253.281 609.093 251.028ZM636.442 264.141H640.403C642.028 264.183 643.642 263.862 645.127 263.202C646.409 262.618 647.495 261.678 648.256 260.494C649.017 259.256 649.402 257.825 649.365 256.373C649.409 254.864 649.024 253.374 648.256 252.074C647.511 250.866 646.435 249.896 645.156 249.277C643.68 248.587 642.063 248.248 640.433 248.289H630.531V273.578H636.472L636.442 264.141ZM659.494 268.509H670.327V273.569H653.543V248.28H670.644V253.34H659.494V258.548H669.06V263.479H659.494V268.509ZM679.734 263.361L679.358 252.925H679.982L684.141 273.569H693.32V248.28H688.22V258.489L688.606 268.915H687.973L683.814 248.28H674.635V273.569H679.734V263.361ZM617.598 279.181C619.228 279.14 620.846 279.478 622.322 280.17C623.586 280.795 624.647 281.764 625.381 282.966C626.148 284.267 626.532 285.757 626.49 287.265C626.528 288.717 626.142 290.148 625.381 291.386C624.634 292.57 623.557 293.511 622.282 294.094C620.801 294.772 619.187 295.109 617.559 295.082H613.598V304.47H607.656V279.181H617.598ZM644.899 293.778C646.144 293.194 647.203 292.277 647.958 291.129C648.696 289.969 649.074 288.619 649.048 287.246C649.087 285.748 648.713 284.267 647.968 282.966C647.258 281.754 646.208 280.775 644.948 280.15C643.533 279.465 641.975 279.126 640.403 279.162H630.174V304.451H636.115V294.717H637.363L642.958 304.451H649.642L643.502 294.292C643.981 294.158 644.448 293.986 644.899 293.778ZM653.939 281.93C655.682 279.67 658.22 278.54 661.554 278.54C664.888 278.56 667.426 279.69 669.169 281.93C670.911 284.17 671.783 287.464 671.783 291.812C671.783 296.147 670.911 299.441 669.169 301.694C667.426 303.948 664.888 305.074 661.554 305.074C658.22 305.074 655.682 303.948 653.939 301.694C652.196 299.441 651.325 296.147 651.325 291.812C651.325 287.484 652.196 284.189 653.939 281.93ZM684.418 291.407H683.784L682.17 279.172H674.476V304.461H679.516V295.073L679.1 284.548H679.734L681.319 296.555H686.636L688.22 284.548H688.854L688.438 295.073V304.461H693.478V279.172H686.032L684.418 291.407ZM707.698 279.181C709.328 279.14 710.945 279.479 712.421 280.169C713.687 280.796 714.751 281.765 715.491 282.966C716.257 284.267 716.642 285.757 716.6 287.265C716.637 288.717 716.252 290.148 715.491 291.386C714.741 292.568 713.665 293.508 712.392 294.094C710.911 294.771 709.297 295.109 707.668 295.082H703.707V304.47H697.766V279.181H707.698ZM718.779 279.172V284.835H725.849V304.461H731.8V284.835H738.86V279.172H718.779ZM613.865 315.727H607.656V310.064H626.025V315.727H619.816V329.691H626.025V335.353H607.656V329.691H613.865V315.727ZM643.374 320.282L643.76 330.708H643.126L638.977 310.074H629.788V335.353H634.888V325.144L634.511 314.718H635.145L639.294 335.353H648.473V310.074H643.374V320.282ZM663.376 315.08C662.949 314.91 662.49 314.831 662.03 314.847C661.357 314.829 660.694 315.003 660.119 315.35C659.543 315.697 659.079 316.201 658.782 316.803C657.943 318.662 657.569 320.697 657.693 322.733C657.686 325.605 658.046 327.7 658.772 329.018C659.09 329.647 659.586 330.17 660.198 330.521C660.811 330.873 661.513 331.037 662.218 330.994C662.874 331.016 663.522 330.846 664.083 330.506C664.644 330.165 665.094 329.669 665.377 329.077C665.688 328.434 665.844 327.726 665.832 327.012H661.426V321.823H671.031V335.293H665.832V333.178H664.535C664.274 334.012 663.709 334.718 662.951 335.155C662.072 335.645 661.076 335.888 660.069 335.856C658.832 335.895 657.608 335.599 656.526 335.001C655.444 334.402 654.543 333.524 653.92 332.457C652.487 330.191 651.771 326.929 651.771 322.673C651.771 318.338 652.642 315.044 654.385 312.791C656.128 310.538 658.676 309.411 662.03 309.411C663.724 309.367 665.403 309.747 666.911 310.518C668.278 311.247 669.4 312.361 670.139 313.72C670.968 315.288 671.422 317.027 671.466 318.799H665.891C665.727 317.7 665.249 316.671 664.515 315.835C664.192 315.507 663.804 315.251 663.376 315.08ZM675.215 330.52H680.014V335.309H675.215V330.52ZM719.792 329.803H717.13V326.622H722.978V334.89H719.832V333.596H719.046C718.874 334.112 718.513 334.543 718.037 334.799C717.502 335.091 716.9 335.236 716.293 335.217C715.549 335.245 714.811 335.071 714.156 334.712C713.501 334.353 712.954 333.823 712.572 333.177C711.598 331.339 711.147 329.264 711.271 327.183C711.115 325.023 711.672 322.871 712.854 321.065C713.408 320.375 714.117 319.83 714.922 319.475C715.728 319.12 716.606 318.966 717.483 319.026C718.509 318.997 719.526 319.232 720.437 319.709C721.26 320.162 721.934 320.85 722.373 321.687C722.873 322.648 723.148 323.712 723.18 324.797H719.872C719.773 324.114 719.483 323.473 719.035 322.951C718.84 322.752 718.605 322.595 718.346 322.492C718.088 322.388 717.811 322.34 717.533 322.35C717.118 322.328 716.706 322.429 716.348 322.641C715.99 322.853 715.701 323.167 715.516 323.543C715.007 324.684 714.782 325.933 714.861 327.183C714.783 328.498 715.007 329.813 715.516 331.026C715.708 331.414 716.008 331.736 716.379 331.953C716.75 332.171 717.176 332.274 717.604 332.25C718.009 332.261 718.409 332.151 718.753 331.934C719.08 331.723 719.345 331.427 719.519 331.077C719.707 330.68 719.801 330.243 719.792 329.803ZM690.044 319.026C689.171 318.97 688.297 319.125 687.495 319.48C686.694 319.835 685.987 320.378 685.436 321.065C684.254 322.871 683.697 325.023 683.853 327.182C683.707 329.326 684.263 331.457 685.436 333.249C685.987 333.936 686.694 334.479 687.495 334.834C688.297 335.189 689.171 335.344 690.044 335.288C690.918 335.345 691.792 335.19 692.594 334.835C693.396 334.48 694.102 333.936 694.653 333.249C695.825 331.457 696.381 329.326 696.236 327.182C696.391 325.023 695.834 322.871 694.653 321.065C694.102 320.378 693.396 319.834 692.594 319.479C691.792 319.124 690.918 318.969 690.044 319.026ZM707.106 328.365C707.859 328.016 708.502 327.461 708.962 326.765C709.409 326.052 709.637 325.222 709.617 324.379C709.641 323.459 709.418 322.55 708.972 321.748C708.535 321.014 707.897 320.423 707.136 320.046C706.28 319.622 705.336 319.412 704.383 319.434H698.192V334.921H701.802V328.957H702.568L705.957 334.921H709.99L706.259 328.691C706.55 328.606 706.833 328.497 707.106 328.365Z" fill="black"/>
<path d="M720.25 8.84211V48H729V8.84211V0H720.25H704V8.84211H720.25Z" fill="black"/>
<path d="M8.75 8.84211V48H0V8.84211V0H8.75H25V8.84211H8.75Z" fill="black"/>
<path d="M8.75 327.158V288H0V327.158V336H8.75H25V327.158H8.75Z" fill="black"/>
<path d="M596.79 39V18.06H605.13C607.01 18.06 608.45 18.6 609.45 19.68C610.47 20.74 610.98 22.2 610.98 24.06C610.98 25.92 610.47 27.39 609.45 28.47C608.45 29.53 607.01 30.06 605.13 30.06H599.31V39H596.79ZM599.31 27.84H605.13C606.13 27.84 606.9 27.58 607.44 27.06C608 26.54 608.28 25.8 608.28 24.84V23.28C608.28 22.32 608 21.58 607.44 21.06C606.9 20.54 606.13 20.28 605.13 20.28H599.31V27.84ZM620.277 39.36C619.217 39.36 618.257 39.17 617.397 38.79C616.557 38.41 615.827 37.87 615.207 37.17C614.607 36.45 614.137 35.6 613.797 34.62C613.477 33.62 613.317 32.5 613.317 31.26C613.317 30.04 613.477 28.93 613.797 27.93C614.137 26.93 614.607 26.08 615.207 25.38C615.827 24.66 616.557 24.11 617.397 23.73C618.257 23.35 619.217 23.16 620.277 23.16C621.317 23.16 622.247 23.35 623.067 23.73C623.887 24.11 624.587 24.64 625.167 25.32C625.747 25.98 626.187 26.77 626.487 27.69C626.807 28.61 626.967 29.62 626.967 30.72V31.86H615.837V32.58C615.837 33.24 615.937 33.86 616.137 34.44C616.357 35 616.657 35.49 617.037 35.91C617.437 36.33 617.917 36.66 618.477 36.9C619.057 37.14 619.707 37.26 620.427 37.26C621.407 37.26 622.257 37.03 622.977 36.57C623.717 36.11 624.287 35.45 624.687 34.59L626.397 35.82C625.897 36.88 625.117 37.74 624.057 38.4C622.997 39.04 621.737 39.36 620.277 39.36ZM620.277 25.17C619.617 25.17 619.017 25.29 618.477 25.53C617.937 25.75 617.467 26.07 617.067 26.49C616.687 26.91 616.387 27.41 616.167 27.99C615.947 28.55 615.837 29.17 615.837 29.85V30.06H624.387V29.73C624.387 28.35 624.007 27.25 623.247 26.43C622.507 25.59 621.517 25.17 620.277 25.17ZM643.702 39H631.222V23.52H633.622V36.9H640.912V23.52H643.312V36.9H645.892V43.2H643.702V39ZM655.331 39.36C654.271 39.36 653.311 39.17 652.451 38.79C651.611 38.41 650.881 37.87 650.261 37.17C649.661 36.45 649.191 35.6 648.851 34.62C648.531 33.62 648.371 32.5 648.371 31.26C648.371 30.04 648.531 28.93 648.851 27.93C649.191 26.93 649.661 26.08 650.261 25.38C650.881 24.66 651.611 24.11 652.451 23.73C653.311 23.35 654.271 23.16 655.331 23.16C656.371 23.16 657.301 23.35 658.121 23.73C658.941 24.11 659.641 24.64 660.221 25.32C660.801 25.98 661.241 26.77 661.541 27.69C661.861 28.61 662.021 29.62 662.021 30.72V31.86H650.891V32.58C650.891 33.24 650.991 33.86 651.191 34.44C651.411 35 651.711 35.49 652.091 35.91C652.491 36.33 652.971 36.66 653.531 36.9C654.111 37.14 654.761 37.26 655.481 37.26C656.461 37.26 657.311 37.03 658.031 36.57C658.771 36.11 659.341 35.45 659.741 34.59L661.451 35.82C660.951 36.88 660.171 37.74 659.111 38.4C658.051 39.04 656.791 39.36 655.331 39.36ZM655.331 25.17C654.671 25.17 654.071 25.29 653.531 25.53C652.991 25.75 652.521 26.07 652.121 26.49C651.741 26.91 651.441 27.41 651.221 27.99C651.001 28.55 650.891 29.17 650.891 29.85V30.06H659.441V29.73C659.441 28.35 659.061 27.25 658.301 26.43C657.561 25.59 656.571 25.17 655.331 25.17ZM666.275 23.52H678.365V39H675.965V25.62H668.675V39H666.275V23.52ZM687.103 25.62H681.823V23.52H694.783V25.62H689.503V39H687.103V25.62ZM596.55 51.52H598.95V54.04H599.07C599.47 53.06 600.05 52.34 600.81 51.88C601.59 51.4 602.52 51.16 603.6 51.16C604.56 51.16 605.43 51.35 606.21 51.73C606.99 52.11 607.65 52.65 608.19 53.35C608.75 54.05 609.17 54.9 609.45 55.9C609.75 56.9 609.9 58.02 609.9 59.26C609.9 60.5 609.75 61.62 609.45 62.62C609.17 63.62 608.75 64.47 608.19 65.17C607.65 65.87 606.99 66.41 606.21 66.79C605.43 67.17 604.56 67.36 603.6 67.36C601.5 67.36 599.99 66.4 599.07 64.48H598.95V73H596.55V51.52ZM602.94 65.2C604.3 65.2 605.37 64.78 606.15 63.94C606.93 63.08 607.32 61.96 607.32 60.58V57.94C607.32 56.56 606.93 55.45 606.15 54.61C605.37 53.75 604.3 53.32 602.94 53.32C602.4 53.32 601.88 53.4 601.38 53.56C600.9 53.7 600.48 53.9 600.12 54.16C599.76 54.42 599.47 54.74 599.25 55.12C599.05 55.48 598.95 55.87 598.95 56.29V62.05C598.95 62.55 599.05 63 599.25 63.4C599.47 63.78 599.76 64.11 600.12 64.39C600.48 64.65 600.9 64.85 601.38 64.99C601.88 65.13 602.4 65.2 602.94 65.2ZM623.646 51.52H626.016L619.086 70.6C618.906 71.06 618.726 71.44 618.546 71.74C618.366 72.06 618.146 72.31 617.886 72.49C617.626 72.67 617.296 72.8 616.896 72.88C616.516 72.96 616.046 73 615.486 73H614.256V70.9H616.686L617.856 67.6L612.066 51.52H614.466L618.186 62.05L618.906 64.57H619.056L619.896 62.05L623.646 51.52ZM629.377 51.52H631.777V58H634.867L637.867 53.26C638.087 52.9 638.297 52.61 638.497 52.39C638.697 52.15 638.897 51.97 639.097 51.85C639.297 51.73 639.507 51.65 639.727 51.61C639.947 51.55 640.197 51.52 640.477 51.52H641.887V53.62H640.027L637.597 57.46C637.437 57.72 637.297 57.93 637.177 58.09C637.057 58.25 636.937 58.39 636.817 58.51C636.697 58.61 636.567 58.7 636.427 58.78C636.287 58.84 636.117 58.9 635.917 58.96V59.08C636.337 59.14 636.697 59.28 636.997 59.5C637.317 59.7 637.647 60.1 637.987 60.7L640.357 64.9H642.127V67H640.387C639.867 67 639.387 66.87 638.947 66.61C638.527 66.33 638.117 65.83 637.717 65.11L634.867 60.04H631.777V67H629.377V51.52ZM651.552 67.36C650.512 67.36 649.562 67.17 648.702 66.79C647.842 66.41 647.102 65.87 646.482 65.17C645.882 64.45 645.412 63.6 645.072 62.62C644.732 61.62 644.562 60.5 644.562 59.26C644.562 58.04 644.732 56.93 645.072 55.93C645.412 54.93 645.882 54.08 646.482 53.38C647.102 52.66 647.842 52.11 648.702 51.73C649.562 51.35 650.512 51.16 651.552 51.16C652.592 51.16 653.532 51.35 654.372 51.73C655.232 52.11 655.972 52.66 656.592 53.38C657.212 54.08 657.692 54.93 658.032 55.93C658.372 56.93 658.542 58.04 658.542 59.26C658.542 60.5 658.372 61.62 658.032 62.62C657.692 63.6 657.212 64.45 656.592 65.17C655.972 65.87 655.232 66.41 654.372 66.79C653.532 67.17 652.592 67.36 651.552 67.36ZM651.552 65.23C652.852 65.23 653.912 64.83 654.732 64.03C655.552 63.23 655.962 62.01 655.962 60.37V58.15C655.962 56.51 655.552 55.29 654.732 54.49C653.912 53.69 652.852 53.29 651.552 53.29C650.252 53.29 649.192 53.69 648.372 54.49C647.552 55.29 647.142 56.51 647.142 58.15V60.37C647.142 62.01 647.552 63.23 648.372 64.03C649.192 64.83 650.252 65.23 651.552 65.23ZM662.789 51.52H670.589C671.849 51.52 672.839 51.88 673.559 52.6C674.279 53.3 674.639 54.25 674.639 55.45C674.639 57.39 673.629 58.48 671.609 58.72V58.84C672.809 58.94 673.699 59.32 674.279 59.98C674.879 60.62 675.179 61.42 675.179 62.38C675.179 63 675.079 63.59 674.879 64.15C674.699 64.71 674.429 65.2 674.069 65.62C673.709 66.04 673.269 66.38 672.749 66.64C672.229 66.88 671.639 67 670.979 67H662.789V51.52ZM670.259 65.02C670.979 65.02 671.549 64.83 671.969 64.45C672.389 64.07 672.599 63.53 672.599 62.83V62.14C672.599 61.44 672.389 60.9 671.969 60.52C671.549 60.14 670.979 59.95 670.259 59.95H665.189V65.02H670.259ZM669.959 58C670.619 58 671.129 57.84 671.489 57.52C671.869 57.18 672.059 56.7 672.059 56.08V55.42C672.059 54.8 671.869 54.33 671.489 54.01C671.129 53.67 670.619 53.5 669.959 53.5H665.189V58H669.959ZM685.668 67.36C684.628 67.36 683.678 67.17 682.818 66.79C681.958 66.41 681.218 65.87 680.598 65.17C679.998 64.45 679.528 63.6 679.188 62.62C678.848 61.62 678.678 60.5 678.678 59.26C678.678 58.04 678.848 56.93 679.188 55.93C679.528 54.93 679.998 54.08 680.598 53.38C681.218 52.66 681.958 52.11 682.818 51.73C683.678 51.35 684.628 51.16 685.668 51.16C686.708 51.16 687.648 51.35 688.488 51.73C689.348 52.11 690.088 52.66 690.708 53.38C691.328 54.08 691.808 54.93 692.148 55.93C692.488 56.93 692.658 58.04 692.658 59.26C692.658 60.5 692.488 61.62 692.148 62.62C691.808 63.6 691.328 64.45 690.708 65.17C690.088 65.87 689.348 66.41 688.488 66.79C687.648 67.17 686.708 67.36 685.668 67.36ZM685.668 65.23C686.968 65.23 688.028 64.83 688.848 64.03C689.668 63.23 690.078 62.01 690.078 60.37V58.15C690.078 56.51 689.668 55.29 688.848 54.49C688.028 53.69 686.968 53.29 685.668 53.29C684.368 53.29 683.308 53.69 682.488 54.49C681.668 55.29 681.258 56.51 681.258 58.15V60.37C681.258 62.01 681.668 63.23 682.488 64.03C683.308 64.83 684.368 65.23 685.668 65.23ZM696.718 59.17V56.59H704.548V59.17H696.718ZM594.24 92.9H596.01C596.63 91.9 597.13 90.65 597.51 89.15C597.89 87.65 598.08 85.93 598.08 83.99V79.52H608.55V92.9H611.13V99.2H608.94V95H596.43V99.2H594.24V92.9ZM606.15 92.9V81.62H600.36V84.11C600.36 86.17 600.18 87.93 599.82 89.39C599.48 90.83 599.07 92 598.59 92.9H606.15ZM614.75 79.52H617.09V88.1L616.85 91.82H616.97L618.89 88.52L625.07 79.52H627.29V95H624.95V86.42L625.19 82.7H625.07L623.15 86L616.97 95H614.75V79.52ZM636.017 81.62H630.737V79.52H643.697V81.62H638.417V95H636.017V81.62ZM652.577 95.36C651.517 95.36 650.557 95.17 649.697 94.79C648.857 94.41 648.127 93.87 647.507 93.17C646.907 92.45 646.437 91.6 646.097 90.62C645.777 89.62 645.617 88.5 645.617 87.26C645.617 86.04 645.777 84.93 646.097 83.93C646.437 82.93 646.907 82.08 647.507 81.38C648.127 80.66 648.857 80.11 649.697 79.73C650.557 79.35 651.517 79.16 652.577 79.16C653.617 79.16 654.547 79.35 655.367 79.73C656.187 80.11 656.887 80.64 657.467 81.32C658.047 81.98 658.487 82.77 658.787 83.69C659.107 84.61 659.267 85.62 659.267 86.72V87.86H648.137V88.58C648.137 89.24 648.237 89.86 648.437 90.44C648.657 91 648.957 91.49 649.337 91.91C649.737 92.33 650.217 92.66 650.777 92.9C651.357 93.14 652.007 93.26 652.727 93.26C653.707 93.26 654.557 93.03 655.277 92.57C656.017 92.11 656.587 91.45 656.987 90.59L658.697 91.82C658.197 92.88 657.417 93.74 656.357 94.4C655.297 95.04 654.037 95.36 652.577 95.36ZM652.577 81.17C651.917 81.17 651.317 81.29 650.777 81.53C650.237 81.75 649.767 82.07 649.367 82.49C648.987 82.91 648.687 83.41 648.467 83.99C648.247 84.55 648.137 85.17 648.137 85.85V86.06H656.687V85.73C656.687 84.35 656.307 83.25 655.547 82.43C654.807 81.59 653.817 81.17 652.577 81.17ZM661.211 92.9H663.251C663.511 92.54 663.741 92.11 663.941 91.61C664.141 91.11 664.311 90.51 664.451 89.81C664.591 89.11 664.701 88.28 664.781 87.32C664.861 86.36 664.901 85.23 664.901 83.93V79.52H675.371V95H672.971V81.62H667.181V83.99C667.181 85.49 667.121 86.8 667.001 87.92C666.901 89.04 666.751 90 666.551 90.8C666.371 91.6 666.151 92.26 665.891 92.78C665.631 93.28 665.351 93.68 665.051 93.98C664.671 94.36 664.251 94.63 663.791 94.79C663.331 94.93 662.781 95 662.141 95H661.211V92.9ZM693.474 95.36C691.514 95.36 689.924 94.72 688.704 93.44C687.504 92.16 686.834 90.36 686.694 88.04H683.184V95H680.784V79.52H683.184V86H686.754C686.954 83.82 687.644 82.14 688.824 80.96C690.024 79.76 691.574 79.16 693.474 79.16C694.494 79.16 695.424 79.35 696.264 79.73C697.104 80.09 697.814 80.62 698.394 81.32C698.994 82 699.454 82.84 699.774 83.84C700.094 84.84 700.254 85.98 700.254 87.26C700.254 88.54 700.094 89.68 699.774 90.68C699.454 91.68 698.994 92.53 698.394 93.23C697.814 93.91 697.104 94.44 696.264 94.82C695.424 95.18 694.494 95.36 693.474 95.36ZM693.474 93.23C694.754 93.23 695.774 92.85 696.534 92.09C697.294 91.33 697.674 90.09 697.674 88.37V86.15C697.674 84.43 697.294 83.19 696.534 82.43C695.774 81.67 694.754 81.29 693.474 81.29C692.194 81.29 691.174 81.67 690.414 82.43C689.654 83.19 689.274 84.43 689.274 86.15V88.37C689.274 90.09 689.654 91.33 690.414 92.09C691.174 92.85 692.194 93.23 693.474 93.23Z" fill="black"/>
<path d="M604.488 131.6H604.408C604.12 131.717 603.763 131.808 603.336 131.872C602.909 131.936 602.445 131.968 601.944 131.968C600.557 131.968 599.539 131.648 598.888 131.008C598.248 130.357 597.928 129.355 597.928 128V124.832H599.272V128C599.272 128.981 599.496 129.691 599.944 130.128C600.403 130.565 601.085 130.784 601.992 130.784C602.525 130.784 603.005 130.752 603.432 130.688C603.859 130.624 604.211 130.533 604.488 130.416V124.832H605.832V136H604.488V131.6ZM614.832 136C614.353 136 614.006 135.872 613.793 135.616C613.59 135.36 613.462 135.04 613.409 134.656H613.329C613.147 135.168 612.848 135.552 612.432 135.808C612.017 136.064 611.521 136.192 610.944 136.192C610.07 136.192 609.387 135.968 608.896 135.52C608.416 135.072 608.176 134.464 608.176 133.696C608.176 132.917 608.459 132.32 609.024 131.904C609.6 131.488 610.491 131.28 611.696 131.28H613.329V130.464C613.329 129.877 613.169 129.429 612.849 129.12C612.529 128.811 612.038 128.656 611.377 128.656C610.875 128.656 610.454 128.768 610.112 128.992C609.782 129.216 609.504 129.515 609.28 129.888L608.512 129.168C608.736 128.72 609.094 128.341 609.584 128.032C610.075 127.712 610.694 127.552 611.441 127.552C612.443 127.552 613.222 127.797 613.777 128.288C614.331 128.779 614.609 129.461 614.609 130.336V134.88H615.552V136H614.832ZM611.152 135.104C611.473 135.104 611.766 135.067 612.033 134.992C612.299 134.917 612.528 134.811 612.72 134.672C612.913 134.533 613.062 134.373 613.168 134.192C613.275 134.011 613.329 133.813 613.329 133.6V132.24H611.633C610.897 132.24 610.358 132.347 610.016 132.56C609.686 132.773 609.52 133.083 609.52 133.488V133.824C609.52 134.229 609.664 134.544 609.952 134.768C610.251 134.992 610.651 135.104 611.152 135.104ZM619.018 128.864H616.202V127.744H623.115V128.864H620.299V136H619.018V128.864ZM625.077 124.832H631.157V126.016H626.421V136H625.077V124.832ZM633.222 124.832H641.334V136H639.99V126.016H634.566V136H633.222V124.832ZM648.235 126.016V136H646.891V126.016H643.339V124.832H651.787V126.016H648.235Z" fill="black"/>
<path d="M46.696 93.768C41.0213 93.768 36.6053 91.848 33.448 88.008C30.2907 84.1253 28.712 78.4293 28.712 70.92C28.712 63.4107 30.2907 57.6507 33.448 53.64C36.6053 49.5867 41.0213 47.56 46.696 47.56C50.4507 47.56 53.5867 48.4133 56.104 50.12C58.664 51.8267 60.648 54.2373 62.056 57.352L57.704 59.976C56.808 57.672 55.4427 55.8373 53.608 54.472C51.7733 53.064 49.4693 52.36 46.696 52.36C44.776 52.36 43.048 52.7227 41.512 53.448C40.0187 54.1733 38.7387 55.2187 37.672 56.584C36.648 57.9067 35.8587 59.5067 35.304 61.384C34.7493 63.2187 34.472 65.288 34.472 67.592V74.248C34.472 78.856 35.5387 82.4613 37.672 85.064C39.8053 87.6667 42.8133 88.968 46.696 88.968C49.5547 88.968 51.944 88.2427 53.864 86.792C55.784 85.2987 57.192 83.336 58.088 80.904L62.376 83.592C60.968 86.7493 58.9413 89.2453 56.296 91.08C53.6507 92.872 50.4507 93.768 46.696 93.768ZM65.902 88.52H69.678C71.0007 86.3867 72.0673 83.72 72.878 80.52C73.6887 77.32 74.094 73.6507 74.094 69.512V59.976H96.43V88.52H101.934V101.96H97.262V93H70.574V101.96H65.902V88.52ZM91.31 88.52V64.456H78.958V69.768C78.958 74.1627 78.574 77.9173 77.806 81.032C77.0807 84.104 76.206 86.6 75.182 88.52H91.31ZM122.073 93.768C119.812 93.768 117.764 93.3627 115.929 92.552C114.137 91.7413 112.58 90.5893 111.257 89.096C109.977 87.56 108.975 85.7467 108.249 83.656C107.567 81.5227 107.225 79.1333 107.225 76.488C107.225 73.8853 107.567 71.5173 108.249 69.384C108.975 67.2507 109.977 65.4373 111.257 63.944C112.58 62.408 114.137 61.2347 115.929 60.424C117.764 59.6133 119.812 59.208 122.073 59.208C124.292 59.208 126.276 59.6133 128.025 60.424C129.775 61.2347 131.268 62.3653 132.506 63.816C133.743 65.224 134.682 66.9093 135.322 68.872C136.004 70.8347 136.346 72.9893 136.346 75.336V77.768H112.601V79.304C112.601 80.712 112.815 82.0347 113.241 83.272C113.711 84.4667 114.351 85.512 115.161 86.408C116.015 87.304 117.039 88.008 118.233 88.52C119.471 89.032 120.857 89.288 122.393 89.288C124.484 89.288 126.297 88.7973 127.833 87.816C129.412 86.8347 130.628 85.4267 131.482 83.592L135.129 86.216C134.063 88.4773 132.399 90.312 130.138 91.72C127.876 93.0853 125.188 93.768 122.073 93.768ZM122.073 63.496C120.665 63.496 119.385 63.752 118.233 64.264C117.081 64.7333 116.079 65.416 115.225 66.312C114.415 67.208 113.775 68.2747 113.305 69.512C112.836 70.7067 112.601 72.0293 112.601 73.48V73.928H130.841V73.224C130.841 70.28 130.031 67.9333 128.41 66.184C126.831 64.392 124.719 63.496 122.073 63.496ZM140.494 88.52H144.846C145.401 87.752 145.892 86.8347 146.318 85.768C146.745 84.7013 147.108 83.4213 147.406 81.928C147.705 80.4347 147.94 78.664 148.11 76.616C148.281 74.568 148.366 72.1573 148.366 69.384V59.976H170.702V93H165.582V64.456H153.23V69.512C153.23 72.712 153.102 75.5067 152.846 77.896C152.633 80.2853 152.313 82.3333 151.886 84.04C151.502 85.7467 151.033 87.1547 150.478 88.264C149.924 89.3307 149.326 90.184 148.686 90.824C147.876 91.6347 146.98 92.2107 145.998 92.552C145.017 92.8507 143.844 93 142.478 93H140.494V88.52ZM206.25 93C204.33 93 202.943 92.488 202.09 91.464C201.279 90.44 200.767 89.16 200.554 87.624H200.234C199.509 89.672 198.314 91.208 196.65 92.232C194.986 93.256 193.002 93.768 190.698 93.768C187.199 93.768 184.469 92.872 182.506 91.08C180.586 89.288 179.626 86.856 179.626 83.784C179.626 80.6693 180.757 78.28 183.018 76.616C185.322 74.952 188.885 74.12 193.706 74.12H200.234V70.856C200.234 68.5093 199.594 66.7173 198.314 65.48C197.034 64.2427 195.071 63.624 192.426 63.624C190.421 63.624 188.735 64.072 187.37 64.968C186.047 65.864 184.938 67.0587 184.042 68.552L180.97 65.672C181.866 63.88 183.295 62.3653 185.258 61.128C187.221 59.848 189.695 59.208 192.682 59.208C196.693 59.208 199.807 60.1893 202.026 62.152C204.245 64.1147 205.354 66.8453 205.354 70.344V88.52H209.13V93H206.25ZM191.53 89.416C192.81 89.416 193.983 89.2667 195.05 88.968C196.117 88.6693 197.034 88.2427 197.802 87.688C198.57 87.1333 199.167 86.4933 199.594 85.768C200.021 85.0427 200.234 84.2533 200.234 83.4V77.96H193.45C190.506 77.96 188.351 78.3867 186.986 79.24C185.663 80.0933 185.002 81.3307 185.002 82.952V84.296C185.002 85.9173 185.578 87.176 186.73 88.072C187.925 88.968 189.525 89.416 191.53 89.416ZM222.994 64.456H211.73V59.976H239.378V64.456H228.114V93H222.994V64.456ZM246.717 59.976H251.837V71.944H261.245C264.573 71.944 267.219 72.8827 269.181 74.76C271.144 76.6373 272.125 79.2187 272.125 82.504C272.125 85.832 271.165 88.4133 269.245 90.248C267.325 92.0827 264.68 93 261.309 93H246.717V59.976ZM260.541 88.52C262.461 88.52 263.955 88.1573 265.021 87.432C266.088 86.7067 266.621 85.4907 266.621 83.784V81.096C266.621 79.3893 266.088 78.1947 265.021 77.512C263.955 76.7867 262.461 76.424 260.541 76.424H251.837V88.52H260.541ZM48.872 137.832H48.552C47.528 138.984 46.2693 139.944 44.776 140.712C43.2827 141.437 41.32 141.8 38.888 141.8C35.5173 141.8 32.8933 140.968 31.016 139.304C29.1387 137.597 28.2 135.037 28.2 131.624V119.976H33.32V131.176C33.32 135.187 35.688 137.192 40.424 137.192C42.856 137.192 44.8613 136.872 46.44 136.232C48.0613 135.549 48.872 134.525 48.872 133.16V119.976H53.992V153H48.872V137.832ZM77.9335 153.768C75.6722 153.768 73.6242 153.363 71.7895 152.552C69.9975 151.741 68.4402 150.589 67.1175 149.096C65.8375 147.56 64.8348 145.747 64.1095 143.656C63.4268 141.523 63.0855 139.133 63.0855 136.488C63.0855 133.885 63.4268 131.517 64.1095 129.384C64.8348 127.251 65.8375 125.437 67.1175 123.944C68.4402 122.408 69.9975 121.235 71.7895 120.424C73.6242 119.613 75.6722 119.208 77.9335 119.208C80.1522 119.208 82.1362 119.613 83.8855 120.424C85.6348 121.235 87.1282 122.365 88.3655 123.816C89.6028 125.224 90.5415 126.909 91.1815 128.872C91.8642 130.835 92.2055 132.989 92.2055 135.336V137.768H68.4615V139.304C68.4615 140.712 68.6748 142.035 69.1015 143.272C69.5708 144.467 70.2108 145.512 71.0215 146.408C71.8748 147.304 72.8988 148.008 74.0935 148.52C75.3308 149.032 76.7175 149.288 78.2535 149.288C80.3442 149.288 82.1575 148.797 83.6935 147.816C85.2722 146.835 86.4882 145.427 87.3415 143.592L90.9895 146.216C89.9228 148.477 88.2588 150.312 85.9975 151.72C83.7362 153.085 81.0482 153.768 77.9335 153.768ZM77.9335 123.496C76.5255 123.496 75.2455 123.752 74.0935 124.264C72.9415 124.733 71.9388 125.416 71.0855 126.312C70.2748 127.208 69.6348 128.275 69.1655 129.512C68.6962 130.707 68.4615 132.029 68.4615 133.48V133.928H86.7015V133.224C86.7015 130.28 85.8908 127.933 84.2695 126.184C82.6908 124.392 80.5788 123.496 77.9335 123.496ZM101.282 119.976H106.402V125.352H106.658C107.512 123.261 108.749 121.725 110.37 120.744C112.034 119.72 114.018 119.208 116.323 119.208C118.371 119.208 120.227 119.613 121.89 120.424C123.554 121.235 124.962 122.387 126.115 123.88C127.309 125.373 128.205 127.187 128.803 129.32C129.443 131.453 129.763 133.843 129.763 136.488C129.763 139.133 129.443 141.523 128.803 143.656C128.205 145.789 127.309 147.603 126.115 149.096C124.962 150.589 123.554 151.741 121.89 152.552C120.227 153.363 118.371 153.768 116.323 153.768C111.842 153.768 108.621 151.72 106.658 147.624H106.402V165.8H101.282V119.976ZM114.914 149.16C117.816 149.16 120.099 148.264 121.763 146.472C123.427 144.637 124.259 142.248 124.259 139.304V133.672C124.259 130.728 123.427 128.36 121.763 126.568C120.099 124.733 117.816 123.816 114.914 123.816C113.763 123.816 112.653 123.987 111.586 124.328C110.562 124.627 109.666 125.053 108.898 125.608C108.13 126.163 107.512 126.845 107.042 127.656C106.616 128.424 106.402 129.256 106.402 130.152V142.44C106.402 143.507 106.616 144.467 107.042 145.32C107.512 146.131 108.13 146.835 108.898 147.432C109.666 147.987 110.562 148.413 111.586 148.712C112.653 149.011 113.763 149.16 114.914 149.16ZM139.047 119.976H144.167V133.736H160.679V119.976H165.799V153H160.679V138.216H144.167V153H139.047V119.976ZM189.792 153.768C187.574 153.768 185.547 153.363 183.712 152.552C181.878 151.741 180.299 150.589 178.976 149.096C177.696 147.56 176.694 145.747 175.968 143.656C175.243 141.523 174.88 139.133 174.88 136.488C174.88 133.885 175.243 131.517 175.968 129.384C176.694 127.251 177.696 125.437 178.976 123.944C180.299 122.408 181.878 121.235 183.712 120.424C185.547 119.613 187.574 119.208 189.792 119.208C192.011 119.208 194.016 119.613 195.808 120.424C197.643 121.235 199.222 122.408 200.544 123.944C201.867 125.437 202.891 127.251 203.616 129.384C204.342 131.517 204.704 133.885 204.704 136.488C204.704 139.133 204.342 141.523 203.616 143.656C202.891 145.747 201.867 147.56 200.544 149.096C199.222 150.589 197.643 151.741 195.808 152.552C194.016 153.363 192.011 153.768 189.792 153.768ZM189.792 149.224C192.566 149.224 194.827 148.371 196.576 146.664C198.326 144.957 199.2 142.355 199.2 138.856V134.12C199.2 130.621 198.326 128.019 196.576 126.312C194.827 124.605 192.566 123.752 189.792 123.752C187.019 123.752 184.758 124.605 183.008 126.312C181.259 128.019 180.384 130.621 180.384 134.12V138.856C180.384 142.355 181.259 144.957 183.008 146.664C184.758 148.371 187.019 149.224 189.792 149.224ZM213.765 119.976H230.405C233.093 119.976 235.205 120.744 236.741 122.28C238.277 123.773 239.045 125.8 239.045 128.36C239.045 132.499 236.89 134.824 232.581 135.336V135.592C235.141 135.805 237.04 136.616 238.277 138.024C239.557 139.389 240.197 141.096 240.197 143.144C240.197 144.467 239.984 145.725 239.557 146.92C239.173 148.115 238.597 149.16 237.829 150.056C237.061 150.952 236.122 151.677 235.013 152.232C233.904 152.744 232.645 153 231.237 153H213.765V119.976ZM229.701 148.776C231.237 148.776 232.453 148.371 233.349 147.56C234.245 146.749 234.693 145.597 234.693 144.104V142.632C234.693 141.139 234.245 139.987 233.349 139.176C232.453 138.365 231.237 137.96 229.701 137.96H218.885V148.776H229.701ZM229.061 133.8C230.469 133.8 231.557 133.459 232.325 132.776C233.136 132.051 233.541 131.027 233.541 129.704V128.296C233.541 126.973 233.136 125.971 232.325 125.288C231.557 124.563 230.469 124.2 229.061 124.2H218.885V133.8H229.061ZM250.092 119.976H255.084V138.28L254.572 146.216H254.828L258.924 139.176L272.108 119.976H276.844V153H271.852V134.696L272.364 126.76H272.108L268.012 133.8L254.828 153H250.092V119.976ZM288.358 119.976H293.478V133.8H300.07L306.47 123.688C306.939 122.92 307.387 122.301 307.814 121.832C308.24 121.32 308.667 120.936 309.094 120.68C309.52 120.424 309.968 120.253 310.438 120.168C310.907 120.04 311.44 119.976 312.038 119.976H315.046V124.456H311.078L305.894 132.648C305.552 133.203 305.254 133.651 304.998 133.992C304.742 134.333 304.486 134.632 304.23 134.888C303.974 135.101 303.696 135.293 303.398 135.464C303.099 135.592 302.736 135.72 302.31 135.848V136.104C303.206 136.232 303.974 136.531 304.614 137C305.296 137.427 306 138.28 306.726 139.56L311.782 148.52H315.558V153H311.846C310.736 153 309.712 152.723 308.774 152.168C307.878 151.571 307.003 150.504 306.15 148.968L300.07 138.152H293.478V153H288.358V119.976ZM335.022 148.52H338.798C340.121 146.387 341.187 143.72 341.998 140.52C342.809 137.32 343.214 133.651 343.214 129.512V119.976H365.55V148.52H371.054V161.96H366.382V153H339.694V161.96H335.022V148.52ZM360.43 148.52V124.456H348.078V129.768C348.078 134.163 347.694 137.917 346.926 141.032C346.201 144.104 345.326 146.6 344.302 148.52H360.43ZM391.193 153.768C388.932 153.768 386.884 153.363 385.049 152.552C383.257 151.741 381.7 150.589 380.377 149.096C379.097 147.56 378.095 145.747 377.369 143.656C376.687 141.523 376.345 139.133 376.345 136.488C376.345 133.885 376.687 131.517 377.369 129.384C378.095 127.251 379.097 125.437 380.377 123.944C381.7 122.408 383.257 121.235 385.049 120.424C386.884 119.613 388.932 119.208 391.193 119.208C393.412 119.208 395.396 119.613 397.145 120.424C398.895 121.235 400.388 122.365 401.625 123.816C402.863 125.224 403.801 126.909 404.441 128.872C405.124 130.835 405.465 132.989 405.465 135.336V137.768H381.721V139.304C381.721 140.712 381.935 142.035 382.361 143.272C382.831 144.467 383.471 145.512 384.281 146.408C385.135 147.304 386.159 148.008 387.353 148.52C388.591 149.032 389.977 149.288 391.513 149.288C393.604 149.288 395.417 148.797 396.953 147.816C398.532 146.835 399.748 145.427 400.601 143.592L404.249 146.216C403.183 148.477 401.519 150.312 399.257 151.72C396.996 153.085 394.308 153.768 391.193 153.768ZM391.193 123.496C389.785 123.496 388.505 123.752 387.353 124.264C386.201 124.733 385.199 125.416 384.345 126.312C383.535 127.208 382.895 128.275 382.425 129.512C381.956 130.707 381.721 132.029 381.721 133.48V133.928H399.961V133.224C399.961 130.28 399.151 127.933 397.529 126.184C395.951 124.392 393.839 123.496 391.193 123.496ZM414.543 119.976H419.663V133.8H426.255L432.655 123.688C433.124 122.92 433.572 122.301 433.999 121.832C434.425 121.32 434.852 120.936 435.279 120.68C435.705 120.424 436.153 120.253 436.623 120.168C437.092 120.04 437.625 119.976 438.223 119.976H441.231V124.456H437.263L432.079 132.648C431.737 133.203 431.439 133.651 431.183 133.992C430.927 134.333 430.671 134.632 430.415 134.888C430.159 135.101 429.881 135.293 429.583 135.464C429.284 135.592 428.921 135.72 428.495 135.848V136.104C429.391 136.232 430.159 136.531 430.799 137C431.481 137.427 432.185 138.28 432.911 139.56L437.967 148.52H441.743V153H438.031C436.921 153 435.897 152.723 434.959 152.168C434.063 151.571 433.188 150.504 432.335 148.968L426.255 138.152H419.663V153H414.543V119.976ZM461.85 153.768C459.631 153.768 457.605 153.363 455.77 152.552C453.935 151.741 452.357 150.589 451.034 149.096C449.754 147.56 448.751 145.747 448.026 143.656C447.301 141.523 446.938 139.133 446.938 136.488C446.938 133.885 447.301 131.517 448.026 129.384C448.751 127.251 449.754 125.437 451.034 123.944C452.357 122.408 453.935 121.235 455.77 120.424C457.605 119.613 459.631 119.208 461.85 119.208C464.069 119.208 466.074 119.613 467.866 120.424C469.701 121.235 471.279 122.408 472.602 123.944C473.925 125.437 474.949 127.251 475.674 129.384C476.399 131.517 476.762 133.885 476.762 136.488C476.762 139.133 476.399 141.523 475.674 143.656C474.949 145.747 473.925 147.56 472.602 149.096C471.279 150.589 469.701 151.741 467.866 152.552C466.074 153.363 464.069 153.768 461.85 153.768ZM461.85 149.224C464.623 149.224 466.885 148.371 468.634 146.664C470.383 144.957 471.258 142.355 471.258 138.856V134.12C471.258 130.621 470.383 128.019 468.634 126.312C466.885 124.605 464.623 123.752 461.85 123.752C459.077 123.752 456.815 124.605 455.066 126.312C453.317 128.019 452.442 130.621 452.442 134.12V138.856C452.442 142.355 453.317 144.957 455.066 146.664C456.815 148.371 459.077 149.224 461.85 149.224ZM485.823 119.976H492.543L502.591 137.128H502.847L512.831 119.976H519.487V153H514.495V126.12H514.175L512.319 129.704L502.655 146.088L492.991 129.704L491.135 126.12H490.815V153H485.823V119.976ZM530.001 136.296V130.792H546.705V136.296H530.001ZM30.44 179.976H56.232V213H51.112V184.456H35.56V213H30.44V179.976ZM80.2475 213.768C78.0288 213.768 76.0022 213.363 74.1675 212.552C72.3328 211.741 70.7542 210.589 69.4315 209.096C68.1515 207.56 67.1488 205.747 66.4235 203.656C65.6982 201.523 65.3355 199.133 65.3355 196.488C65.3355 193.885 65.6982 191.517 66.4235 189.384C67.1488 187.251 68.1515 185.437 69.4315 183.944C70.7542 182.408 72.3328 181.235 74.1675 180.424C76.0022 179.613 78.0288 179.208 80.2475 179.208C82.4662 179.208 84.4715 179.613 86.2635 180.424C88.0982 181.235 89.6768 182.408 90.9995 183.944C92.3222 185.437 93.3462 187.251 94.0715 189.384C94.7968 191.517 95.1595 193.885 95.1595 196.488C95.1595 199.133 94.7968 201.523 94.0715 203.656C93.3462 205.747 92.3222 207.56 90.9995 209.096C89.6768 210.589 88.0982 211.741 86.2635 212.552C84.4715 213.363 82.4662 213.768 80.2475 213.768ZM80.2475 209.224C83.0208 209.224 85.2822 208.371 87.0315 206.664C88.7808 204.957 89.6555 202.355 89.6555 198.856V194.12C89.6555 190.621 88.7808 188.019 87.0315 186.312C85.2822 184.605 83.0208 183.752 80.2475 183.752C77.4742 183.752 75.2128 184.605 73.4635 186.312C71.7142 188.019 70.8395 190.621 70.8395 194.12V198.856C70.8395 202.355 71.7142 204.957 73.4635 206.664C75.2128 208.371 77.4742 209.224 80.2475 209.224ZM113.126 213.768C109.756 213.768 107.068 213.192 105.062 212.04C103.057 210.888 101.414 209.245 100.134 207.112L103.974 204.04C104.828 205.661 106.001 206.941 107.494 207.88C109.03 208.776 110.908 209.224 113.126 209.224C115.814 209.224 117.798 208.733 119.078 207.752C120.401 206.771 121.062 205.512 121.062 203.976V203.208C121.062 201.544 120.486 200.285 119.334 199.432C118.225 198.536 116.646 198.088 114.598 198.088H107.558V193.8H113.958C116.007 193.8 117.585 193.395 118.694 192.584C119.804 191.773 120.358 190.621 120.358 189.128V188.36C120.358 186.952 119.782 185.843 118.63 185.032C117.521 184.179 115.644 183.752 112.998 183.752C110.822 183.752 109.03 184.2 107.622 185.096C106.214 185.949 105.084 187.123 104.23 188.616L100.838 185.736C101.862 183.816 103.356 182.259 105.318 181.064C107.324 179.827 109.969 179.208 113.254 179.208C117.564 179.208 120.743 179.997 122.791 181.576C124.838 183.155 125.862 185.331 125.862 188.104C125.862 190.152 125.308 191.773 124.198 192.968C123.132 194.163 121.574 194.995 119.527 195.464V195.72C121.873 196.061 123.622 196.915 124.774 198.28C125.969 199.603 126.566 201.309 126.566 203.4C126.566 206.6 125.35 209.139 122.918 211.016C120.529 212.851 117.265 213.768 113.126 213.768ZM136.485 179.976H141.477V198.28L140.965 206.216H141.221L145.317 199.176L158.501 179.976H163.237V213H158.245V194.696L158.757 186.76H158.501L154.405 193.8L141.221 213H136.485V179.976ZM201.374 213H174.75V179.976H179.87V208.52H195.422V179.976H200.542V208.52H206.046V221.96H201.374V213ZM213.765 179.976H218.757V198.28L218.245 206.216H218.501L222.597 199.176L235.781 179.976H240.517V213H235.525V194.696L236.037 186.76H235.781L231.685 193.8L218.501 213H213.765V179.976ZM252.03 179.976H257.022V198.28L256.51 206.216H256.766L260.862 199.176L274.046 179.976H278.782V213H273.79V194.696L274.302 186.76H274.046L269.95 193.8L256.766 213H252.03V179.976ZM315.404 213.768C312.033 213.768 309.345 213.192 307.34 212.04C305.335 210.888 303.692 209.245 302.412 207.112L306.252 204.04C307.105 205.661 308.279 206.941 309.772 207.88C311.308 208.776 313.185 209.224 315.404 209.224C318.092 209.224 320.076 208.733 321.356 207.752C322.679 206.771 323.34 205.512 323.34 203.976V203.208C323.34 201.544 322.764 200.285 321.612 199.432C320.503 198.536 318.924 198.088 316.876 198.088H309.836V193.8H316.236C318.284 193.8 319.863 193.395 320.972 192.584C322.081 191.773 322.636 190.621 322.636 189.128V188.36C322.636 186.952 322.06 185.843 320.908 185.032C319.799 184.179 317.921 183.752 315.276 183.752C313.1 183.752 311.308 184.2 309.9 185.096C308.492 185.949 307.361 187.123 306.508 188.616L303.116 185.736C304.14 183.816 305.633 182.259 307.596 181.064C309.601 179.827 312.247 179.208 315.532 179.208C319.841 179.208 323.02 179.997 325.068 181.576C327.116 183.155 328.14 185.331 328.14 188.104C328.14 190.152 327.585 191.773 326.476 192.968C325.409 194.163 323.852 194.995 321.804 195.464V195.72C324.151 196.061 325.9 196.915 327.052 198.28C328.247 199.603 328.844 201.309 328.844 203.4C328.844 206.6 327.628 209.139 325.196 211.016C322.807 212.851 319.543 213.768 315.404 213.768ZM362.45 213C360.53 213 359.143 212.488 358.29 211.464C357.479 210.44 356.967 209.16 356.754 207.624H356.434C355.709 209.672 354.514 211.208 352.85 212.232C351.186 213.256 349.202 213.768 346.898 213.768C343.399 213.768 340.669 212.872 338.706 211.08C336.786 209.288 335.826 206.856 335.826 203.784C335.826 200.669 336.957 198.28 339.218 196.616C341.522 194.952 345.085 194.12 349.906 194.12H356.434V190.856C356.434 188.509 355.794 186.717 354.514 185.48C353.234 184.243 351.271 183.624 348.626 183.624C346.621 183.624 344.935 184.072 343.57 184.968C342.247 185.864 341.138 187.059 340.242 188.552L337.17 185.672C338.066 183.88 339.495 182.365 341.458 181.128C343.421 179.848 345.895 179.208 348.882 179.208C352.893 179.208 356.007 180.189 358.226 182.152C360.445 184.115 361.554 186.845 361.554 190.344V208.52H365.33V213H362.45ZM347.73 209.416C349.01 209.416 350.183 209.267 351.25 208.968C352.317 208.669 353.234 208.243 354.002 207.688C354.77 207.133 355.367 206.493 355.794 205.768C356.221 205.043 356.434 204.253 356.434 203.4V197.96H349.65C346.706 197.96 344.551 198.387 343.186 199.24C341.863 200.093 341.202 201.331 341.202 202.952V204.296C341.202 205.917 341.778 207.176 342.93 208.072C344.125 208.968 345.725 209.416 347.73 209.416ZM369.849 208.52H373.625C374.948 206.387 376.015 203.72 376.825 200.52C377.636 197.32 378.041 193.651 378.041 189.512V179.976H400.377V208.52H405.881V221.96H401.209V213H374.521V221.96H369.849V208.52ZM395.257 208.52V184.456H382.905V189.768C382.905 194.163 382.521 197.917 381.753 201.032C381.028 204.104 380.153 206.6 379.129 208.52H395.257ZM437.605 213C435.685 213 434.298 212.488 433.445 211.464C432.634 210.44 432.122 209.16 431.909 207.624H431.589C430.864 209.672 429.669 211.208 428.005 212.232C426.341 213.256 424.357 213.768 422.053 213.768C418.554 213.768 415.824 212.872 413.861 211.08C411.941 209.288 410.981 206.856 410.981 203.784C410.981 200.669 412.112 198.28 414.373 196.616C416.677 194.952 420.24 194.12 425.061 194.12H431.589V190.856C431.589 188.509 430.949 186.717 429.669 185.48C428.389 184.243 426.426 183.624 423.781 183.624C421.776 183.624 420.09 184.072 418.725 184.968C417.402 185.864 416.293 187.059 415.397 188.552L412.325 185.672C413.221 183.88 414.65 182.365 416.613 181.128C418.576 179.848 421.05 179.208 424.037 179.208C428.048 179.208 431.162 180.189 433.381 182.152C435.6 184.115 436.709 186.845 436.709 190.344V208.52H440.485V213H437.605ZM422.885 209.416C424.165 209.416 425.338 209.267 426.405 208.968C427.472 208.669 428.389 208.243 429.157 207.688C429.925 207.133 430.522 206.493 430.949 205.768C431.376 205.043 431.589 204.253 431.589 203.4V197.96H424.805C421.861 197.96 419.706 198.387 418.341 199.24C417.018 200.093 416.357 201.331 416.357 202.952V204.296C416.357 205.917 416.933 207.176 418.085 208.072C419.28 208.968 420.88 209.416 422.885 209.416ZM466.177 197.832H465.857C464.833 198.984 463.574 199.944 462.081 200.712C460.588 201.437 458.625 201.8 456.193 201.8C452.822 201.8 450.198 200.968 448.321 199.304C446.444 197.597 445.505 195.037 445.505 191.624V179.976H450.625V191.176C450.625 195.187 452.993 197.192 457.729 197.192C460.161 197.192 462.166 196.872 463.745 196.232C465.366 195.549 466.177 194.525 466.177 193.16V179.976H471.297V213H466.177V197.832ZM482.823 179.976H487.815V198.28L487.303 206.216H487.559L491.655 199.176L504.839 179.976H509.575V213H504.583V194.696L505.095 186.76H504.839L500.743 193.8L487.559 213H482.823V179.976ZM30.44 239.976H56.232V273H51.112V244.456H35.56V273H30.44V239.976ZM80.2475 273.768C78.0288 273.768 76.0022 273.363 74.1675 272.552C72.3328 271.741 70.7542 270.589 69.4315 269.096C68.1515 267.56 67.1488 265.747 66.4235 263.656C65.6982 261.523 65.3355 259.133 65.3355 256.488C65.3355 253.885 65.6982 251.517 66.4235 249.384C67.1488 247.251 68.1515 245.437 69.4315 243.944C70.7542 242.408 72.3328 241.235 74.1675 240.424C76.0022 239.613 78.0288 239.208 80.2475 239.208C82.4662 239.208 84.4715 239.613 86.2635 240.424C88.0982 241.235 89.6768 242.408 90.9995 243.944C92.3222 245.437 93.3462 247.251 94.0715 249.384C94.7968 251.517 95.1595 253.885 95.1595 256.488C95.1595 259.133 94.7968 261.523 94.0715 263.656C93.3462 265.747 92.3222 267.56 90.9995 269.096C89.6768 270.589 88.0982 271.741 86.2635 272.552C84.4715 273.363 82.4662 273.768 80.2475 273.768ZM80.2475 269.224C83.0208 269.224 85.2822 268.371 87.0315 266.664C88.7808 264.957 89.6555 262.355 89.6555 258.856V254.12C89.6555 250.621 88.7808 248.019 87.0315 246.312C85.2822 244.605 83.0208 243.752 80.2475 243.752C77.4742 243.752 75.2128 244.605 73.4635 246.312C71.7142 248.019 70.8395 250.621 70.8395 254.12V258.856C70.8395 262.355 71.7142 264.957 73.4635 266.664C75.2128 268.371 77.4742 269.224 80.2475 269.224ZM119.985 239.976H145.777V273H140.657V244.456H125.105V273H119.985V239.976ZM157.312 239.976H162.432V245.352H162.688C163.542 243.261 164.779 241.725 166.4 240.744C168.064 239.72 170.048 239.208 172.352 239.208C174.4 239.208 176.256 239.613 177.92 240.424C179.584 241.235 180.992 242.387 182.144 243.88C183.339 245.373 184.235 247.187 184.833 249.32C185.472 251.453 185.792 253.843 185.792 256.488C185.792 259.133 185.472 261.523 184.833 263.656C184.235 265.789 183.339 267.603 182.144 269.096C180.992 270.589 179.584 271.741 177.92 272.552C176.256 273.363 174.4 273.768 172.352 273.768C167.872 273.768 164.651 271.72 162.688 267.624H162.432V285.8H157.312V239.976ZM170.944 269.16C173.846 269.16 176.128 268.264 177.792 266.472C179.456 264.637 180.288 262.248 180.288 259.304V253.672C180.288 250.728 179.456 248.36 177.792 246.568C176.128 244.733 173.846 243.816 170.944 243.816C169.792 243.816 168.683 243.987 167.616 244.328C166.592 244.627 165.696 245.053 164.928 245.608C164.16 246.163 163.542 246.845 163.072 247.656C162.646 248.424 162.432 249.256 162.432 250.152V262.44C162.432 263.507 162.646 264.467 163.072 265.32C163.542 266.131 164.16 266.835 164.928 267.432C165.696 267.987 166.592 268.413 167.616 268.712C168.683 269.011 169.792 269.16 170.944 269.16ZM207.557 273.768C205.339 273.768 203.312 273.363 201.477 272.552C199.643 271.741 198.064 270.589 196.741 269.096C195.461 267.56 194.459 265.747 193.733 263.656C193.008 261.523 192.645 259.133 192.645 256.488C192.645 253.885 193.008 251.517 193.733 249.384C194.459 247.251 195.461 245.437 196.741 243.944C198.064 242.408 199.643 241.235 201.477 240.424C203.312 239.613 205.339 239.208 207.557 239.208C209.776 239.208 211.781 239.613 213.573 240.424C215.408 241.235 216.987 242.408 218.309 243.944C219.632 245.437 220.656 247.251 221.381 249.384C222.107 251.517 222.469 253.885 222.469 256.488C222.469 259.133 222.107 261.523 221.381 263.656C220.656 265.747 219.632 267.56 218.309 269.096C216.987 270.589 215.408 271.741 213.573 272.552C211.781 273.363 209.776 273.768 207.557 273.768ZM207.557 269.224C210.331 269.224 212.592 268.371 214.341 266.664C216.091 264.957 216.965 262.355 216.965 258.856V254.12C216.965 250.621 216.091 248.019 214.341 246.312C212.592 244.605 210.331 243.752 207.557 243.752C204.784 243.752 202.523 244.605 200.773 246.312C199.024 248.019 198.149 250.621 198.149 254.12V258.856C198.149 262.355 199.024 264.957 200.773 266.664C202.523 268.371 204.784 269.224 207.557 269.224ZM243.946 273.768C241.685 273.768 239.637 273.363 237.802 272.552C236.01 271.741 234.453 270.589 233.13 269.096C231.85 267.56 230.847 265.747 230.122 263.656C229.439 261.523 229.098 259.133 229.098 256.488C229.098 253.885 229.439 251.517 230.122 249.384C230.847 247.251 231.85 245.437 233.13 243.944C234.453 242.408 236.01 241.235 237.802 240.424C239.637 239.613 241.685 239.208 243.946 239.208C246.165 239.208 248.149 239.613 249.898 240.424C251.647 241.235 253.141 242.365 254.378 243.816C255.615 245.224 256.554 246.909 257.194 248.872C257.877 250.835 258.218 252.989 258.218 255.336V257.768H234.474V259.304C234.474 260.712 234.687 262.035 235.114 263.272C235.583 264.467 236.223 265.512 237.034 266.408C237.887 267.304 238.911 268.008 240.106 268.52C241.343 269.032 242.73 269.288 244.266 269.288C246.357 269.288 248.17 268.797 249.706 267.816C251.285 266.835 252.501 265.427 253.354 263.592L257.002 266.216C255.935 268.477 254.271 270.312 252.01 271.72C249.749 273.085 247.061 273.768 243.946 273.768ZM243.946 243.496C242.538 243.496 241.258 243.752 240.106 244.264C238.954 244.733 237.951 245.416 237.098 246.312C236.287 247.208 235.647 248.275 235.178 249.512C234.709 250.707 234.474 252.029 234.474 253.48V253.928H252.714V253.224C252.714 250.28 251.903 247.933 250.282 246.184C248.703 244.392 246.591 243.496 243.946 243.496ZM267.295 239.976H272.415V253.8H279.007L285.407 243.688C285.876 242.92 286.324 242.301 286.751 241.832C287.178 241.32 287.604 240.936 288.031 240.68C288.458 240.424 288.906 240.253 289.375 240.168C289.844 240.04 290.378 239.976 290.975 239.976H293.983V244.456H290.015L284.831 252.648C284.49 253.203 284.191 253.651 283.935 253.992C283.679 254.333 283.423 254.632 283.167 254.888C282.911 255.101 282.634 255.293 282.335 255.464C282.036 255.592 281.674 255.72 281.247 255.848V256.104C282.143 256.232 282.911 256.531 283.551 257C284.234 257.427 284.938 258.28 285.663 259.56L290.719 268.52H294.495V273H290.783C289.674 273 288.65 272.723 287.711 272.168C286.815 271.571 285.94 270.504 285.087 268.968L279.007 258.152H272.415V273H267.295V239.976ZM310.226 244.456H298.962V239.976H326.61V244.456H315.346V273H310.226V244.456ZM354.865 239.976H359.921L345.137 280.68C344.753 281.661 344.369 282.472 343.985 283.112C343.601 283.795 343.131 284.328 342.577 284.712C342.022 285.096 341.318 285.373 340.465 285.544C339.654 285.715 338.651 285.8 337.457 285.8H334.833V281.32H340.017L342.513 274.28L330.161 239.976H335.281L343.217 262.44L344.753 267.816H345.073L346.865 262.44L354.865 239.976Z" fill="black"/>
</g>
<defs>
<clipPath id="clip0_207_71">
<rect width="750" height="365" fill="white"/>
</clipPath>
</defs>
</svg>
