<svg width="750" height="365" viewBox="0 0 750 365" fill="none" xmlns="http://www.w3.org/2000/svg">
<path d="M750 39H88V345H750V39Z" fill="#DEA000"/>
<path d="M618.591 268.269C619.158 267.927 619.619 267.435 619.926 266.849C621.341 263.022 621.341 258.817 619.926 254.99C619.619 254.404 619.158 253.913 618.591 253.57C618.025 253.228 617.375 253.046 616.712 253.046C616.05 253.046 615.4 253.228 614.833 253.57C614.267 253.913 613.805 254.404 613.499 254.99C612.084 258.817 612.084 263.022 613.499 266.849C613.805 267.435 614.267 267.927 614.833 268.269C615.4 268.612 616.05 268.793 616.712 268.793C617.375 268.793 618.025 268.612 618.591 268.269Z" fill="white"/>
<path d="M636.442 253.873H640.403C641.191 253.822 641.97 254.053 642.601 254.525C642.849 254.76 643.045 255.043 643.18 255.357C643.314 255.67 643.384 256.007 643.384 256.348C643.384 256.689 643.314 257.027 643.18 257.34C643.045 257.653 642.849 257.936 642.601 258.172C641.965 258.632 641.188 258.856 640.403 258.804H636.442V253.873Z" fill="white"/>
<path d="M618.014 289.696C618.798 289.748 619.576 289.524 620.212 289.064C620.476 288.839 620.683 288.556 620.818 288.236C620.952 287.917 621.009 287.571 620.985 287.226C621.004 286.884 620.944 286.542 620.81 286.227C620.676 285.912 620.472 285.632 620.212 285.407C619.581 284.935 618.801 284.704 618.014 284.755H614.053V289.696H618.014Z" fill="white"/>
<path d="M636.125 284.765H640.175C640.948 284.719 641.711 284.963 642.314 285.447C642.574 285.678 642.778 285.964 642.914 286.283C643.049 286.603 643.111 286.948 643.096 287.295C643.115 287.643 643.054 287.992 642.919 288.313C642.783 288.635 642.577 288.922 642.314 289.153C641.711 289.637 640.948 289.88 640.175 289.835H636.125V284.765Z" fill="white"/>
<path d="M663.438 299.162C664.004 298.819 664.466 298.328 664.772 297.741C666.187 293.915 666.187 289.709 664.772 285.883C664.466 285.296 664.004 284.805 663.438 284.463C662.871 284.12 662.221 283.939 661.559 283.939C660.896 283.939 660.247 284.12 659.68 284.463C659.114 284.805 658.652 285.296 658.346 285.883C656.917 289.707 656.917 293.917 658.346 297.741C658.652 298.328 659.114 298.819 659.68 299.162C660.247 299.504 660.896 299.686 661.559 299.686C662.221 299.686 662.871 299.504 663.438 299.162Z" fill="white"/>
<path d="M707.698 289.696C708.482 289.748 709.26 289.524 709.896 289.064C710.161 288.839 710.37 288.556 710.506 288.237C710.642 287.918 710.701 287.572 710.678 287.225C710.695 286.883 710.634 286.541 710.498 286.226C710.363 285.911 710.157 285.631 709.896 285.407C709.265 284.935 708.485 284.704 707.698 284.755H703.737V289.696H707.698Z" fill="white"/>
<path d="M691.99 330.802C691.816 331.171 691.539 331.48 691.193 331.692C690.848 331.904 690.448 332.009 690.044 331.995C689.64 332.008 689.242 331.902 688.896 331.69C688.551 331.478 688.273 331.17 688.098 330.802C687.605 329.663 687.384 328.423 687.453 327.182C687.381 325.935 687.603 324.688 688.098 323.543C688.272 323.173 688.549 322.862 688.894 322.649C689.24 322.435 689.639 322.328 690.044 322.34C690.448 322.325 690.848 322.431 691.193 322.643C691.539 322.854 691.816 323.164 691.99 323.532C692.492 324.679 692.714 325.931 692.636 327.182C692.709 328.424 692.488 329.665 691.99 330.802Z" fill="white"/>
<path d="M701.802 322.849H704.252C704.718 322.819 705.178 322.965 705.543 323.257C705.704 323.399 705.832 323.575 705.917 323.772C706.002 323.97 706.044 324.184 706.037 324.399C706.044 324.608 706.006 324.816 705.924 325.009C705.842 325.201 705.719 325.372 705.563 325.51C705.199 325.807 704.739 325.956 704.273 325.928H701.802V322.849Z" fill="white"/>
<path fill-rule="evenodd" clip-rule="evenodd" d="M597 345V238H750V365H740V355H730V345H597ZM609.093 251.028C610.842 248.774 613.384 247.648 616.717 247.648C618.165 247.56 619.613 247.821 620.938 248.41C622.263 248.998 623.428 249.896 624.332 251.028C626.075 253.281 626.946 256.575 626.946 260.91C626.946 265.245 626.075 268.539 624.332 270.792C623.43 271.927 622.266 272.828 620.941 273.418C619.615 274.008 618.166 274.27 616.717 274.182C613.377 274.162 610.835 273.032 609.093 270.792C607.35 268.552 606.478 265.258 606.478 260.91C606.472 256.575 607.343 253.281 609.093 251.028ZM636.442 264.141H640.403C642.028 264.183 643.642 263.862 645.127 263.202C646.409 262.618 647.495 261.678 648.256 260.494C649.017 259.256 649.402 257.825 649.365 256.373C649.409 254.864 649.024 253.374 648.256 252.074C647.511 250.866 646.435 249.896 645.156 249.277C643.68 248.587 642.063 248.248 640.433 248.289H630.531V273.578H636.472L636.442 264.141ZM659.494 268.509H670.327V273.569H653.543V248.28H670.644V253.34H659.494V258.548H669.06V263.479H659.494V268.509ZM679.734 263.361L679.358 252.925H679.982L684.141 273.569H693.32V248.28H688.22V258.489L688.606 268.915H687.973L683.814 248.28H674.635V273.569H679.734V263.361ZM617.598 279.181C619.228 279.14 620.846 279.478 622.322 280.17C623.586 280.795 624.647 281.764 625.381 282.966C626.148 284.267 626.532 285.757 626.49 287.265C626.528 288.717 626.142 290.148 625.381 291.386C624.634 292.57 623.557 293.511 622.282 294.094C620.801 294.772 619.187 295.109 617.559 295.082H613.598V304.47H607.656V279.181H617.598ZM644.899 293.778C646.144 293.194 647.203 292.277 647.958 291.129C648.696 289.969 649.074 288.619 649.048 287.246C649.087 285.747 648.713 284.267 647.968 282.966C647.258 281.754 646.208 280.775 644.948 280.15C643.533 279.465 641.975 279.126 640.403 279.162H630.174V304.451H636.115V294.717H637.363L642.958 304.451H649.642L643.502 294.292C643.981 294.157 644.448 293.986 644.899 293.778ZM653.939 281.93C655.682 279.67 658.22 278.54 661.554 278.54C664.888 278.56 667.426 279.69 669.169 281.93C670.911 284.17 671.783 287.464 671.783 291.812C671.783 296.147 670.911 299.441 669.169 301.694C667.426 303.948 664.888 305.074 661.554 305.074C658.22 305.074 655.682 303.948 653.939 301.694C652.196 299.441 651.325 296.147 651.325 291.812C651.325 287.484 652.196 284.189 653.939 281.93ZM684.418 291.407H683.784L682.17 279.172H674.476V304.461H679.516V295.073L679.1 284.548H679.734L681.319 296.555H686.636L688.22 284.548H688.854L688.438 295.073V304.461H693.478V279.172H686.032L684.418 291.407ZM707.698 279.181C709.328 279.14 710.945 279.479 712.421 280.169C713.687 280.796 714.751 281.765 715.491 282.966C716.257 284.267 716.642 285.757 716.6 287.265C716.637 288.717 716.252 290.148 715.491 291.386C714.741 292.568 713.665 293.508 712.392 294.094C710.911 294.771 709.297 295.109 707.668 295.082H703.707V304.47H697.766V279.181H707.698ZM718.779 279.172V284.835H725.849V304.461H731.8V284.835H738.86V279.172H718.779ZM613.865 315.727H607.656V310.064H626.025V315.727H619.816V329.691H626.025V335.353H607.656V329.691H613.865V315.727ZM643.374 320.282L643.76 330.708H643.126L638.977 310.074H629.788V335.353H634.888V325.144L634.511 314.718H635.145L639.294 335.353H648.473V310.074H643.374V320.282ZM663.376 315.08C662.949 314.91 662.49 314.831 662.03 314.847C661.357 314.829 660.694 315.003 660.119 315.35C659.543 315.697 659.079 316.201 658.782 316.803C657.943 318.662 657.569 320.697 657.693 322.733C657.686 325.605 658.046 327.7 658.772 329.018C659.09 329.647 659.586 330.17 660.198 330.521C660.811 330.873 661.513 331.037 662.218 330.994C662.874 331.016 663.522 330.846 664.083 330.505C664.644 330.165 665.094 329.669 665.377 329.077C665.688 328.434 665.844 327.726 665.832 327.012H661.426V321.823H671.031V335.293H665.832V333.178H664.535C664.274 334.012 663.709 334.718 662.951 335.155C662.072 335.645 661.076 335.888 660.069 335.856C658.832 335.895 657.608 335.599 656.526 335.001C655.444 334.402 654.543 333.524 653.92 332.457C652.487 330.191 651.771 326.929 651.771 322.673C651.771 318.338 652.642 315.044 654.385 312.791C656.128 310.538 658.676 309.411 662.03 309.411C663.724 309.367 665.403 309.747 666.911 310.518C668.278 311.247 669.4 312.361 670.139 313.72C670.968 315.288 671.422 317.027 671.466 318.799H665.891C665.727 317.7 665.249 316.671 664.515 315.835C664.192 315.507 663.804 315.25 663.376 315.08ZM675.215 330.52H680.014V335.309H675.215V330.52ZM719.792 329.803H717.13V326.622H722.978V334.89H719.832V333.596H719.046C718.874 334.112 718.513 334.543 718.037 334.799C717.502 335.091 716.9 335.236 716.293 335.217C715.549 335.245 714.811 335.071 714.156 334.712C713.501 334.353 712.954 333.823 712.572 333.177C711.598 331.339 711.147 329.264 711.271 327.183C711.115 325.023 711.672 322.871 712.854 321.065C713.408 320.375 714.117 319.83 714.922 319.475C715.728 319.12 716.606 318.966 717.483 319.026C718.509 318.997 719.526 319.232 720.437 319.709C721.26 320.162 721.934 320.85 722.373 321.687C722.873 322.648 723.148 323.712 723.18 324.797H719.872C719.773 324.114 719.483 323.473 719.035 322.951C718.84 322.752 718.605 322.595 718.346 322.492C718.088 322.388 717.811 322.34 717.533 322.35C717.118 322.328 716.707 322.429 716.348 322.641C715.99 322.853 715.701 323.167 715.516 323.543C715.007 324.684 714.782 325.933 714.861 327.183C714.783 328.498 715.007 329.813 715.516 331.026C715.708 331.414 716.008 331.736 716.379 331.953C716.75 332.171 717.176 332.274 717.604 332.25C718.009 332.261 718.409 332.151 718.753 331.934C719.08 331.723 719.345 331.427 719.519 331.077C719.707 330.68 719.801 330.243 719.792 329.803ZM690.044 319.026C689.171 318.97 688.297 319.125 687.495 319.48C686.694 319.835 685.987 320.378 685.436 321.065C684.254 322.871 683.697 325.023 683.853 327.182C683.707 329.326 684.263 331.457 685.436 333.249C685.987 333.936 686.694 334.479 687.495 334.834C688.297 335.189 689.171 335.344 690.044 335.288C690.918 335.345 691.792 335.19 692.594 334.835C693.396 334.48 694.102 333.936 694.653 333.249C695.825 331.457 696.381 329.326 696.236 327.182C696.391 325.023 695.834 322.871 694.653 321.065C694.102 320.378 693.396 319.834 692.594 319.479C691.792 319.124 690.918 318.969 690.044 319.026ZM707.106 328.365C707.859 328.016 708.502 327.461 708.962 326.765C709.409 326.052 709.637 325.222 709.617 324.379C709.641 323.459 709.418 322.55 708.972 321.748C708.535 321.014 707.897 320.423 707.136 320.046C706.28 319.622 705.336 319.412 704.383 319.434H698.192V334.921H701.802V328.957H702.568L705.957 334.921H709.99L706.259 328.691C706.55 328.606 706.833 328.497 707.106 328.365Z" fill="white"/>
<path d="M720.25 8.8421V48H729V0H704V8.8421H720.25Z" fill="white"/>
<path d="M8.75 8.8421V48H0V0H25V8.8421H8.75Z" fill="white"/>
<path d="M8.75 327.158V288H0V336H25V327.158H8.75Z" fill="white"/>
<path d="M596.79 39V18.06H605.13C607.01 18.06 608.45 18.6 609.45 19.68C610.47 20.74 610.98 22.2 610.98 24.06C610.98 25.92 610.47 27.39 609.45 28.47C608.45 29.53 607.01 30.06 605.13 30.06H599.31V39H596.79ZM599.31 27.84H605.13C606.13 27.84 606.9 27.58 607.44 27.06C608 26.54 608.28 25.8 608.28 24.84V23.28C608.28 22.32 608 21.58 607.44 21.06C606.9 20.54 606.13 20.28 605.13 20.28H599.31V27.84Z" fill="white"/>
<path d="M620.277 39.36C619.217 39.36 618.257 39.17 617.397 38.79C616.557 38.41 615.827 37.87 615.207 37.17C614.607 36.45 614.137 35.6 613.797 34.62C613.477 33.62 613.317 32.5 613.317 31.26C613.317 30.04 613.477 28.93 613.797 27.93C614.137 26.93 614.607 26.08 615.207 25.38C615.827 24.66 616.557 24.11 617.397 23.73C618.257 23.35 619.217 23.16 620.277 23.16C621.317 23.16 622.247 23.35 623.067 23.73C623.887 24.11 624.587 24.64 625.167 25.32C625.747 25.98 626.187 26.77 626.487 27.69C626.807 28.61 626.967 29.62 626.967 30.72V31.86H615.837V32.58C615.837 33.24 615.937 33.86 616.137 34.44C616.357 35 616.657 35.49 617.037 35.91C617.437 36.33 617.917 36.66 618.477 36.9C619.057 37.14 619.707 37.26 620.427 37.26C621.407 37.26 622.257 37.03 622.977 36.57C623.717 36.11 624.287 35.45 624.687 34.59L626.397 35.82C625.897 36.88 625.117 37.74 624.057 38.4C622.997 39.04 621.737 39.36 620.277 39.36ZM620.277 25.17C619.617 25.17 619.017 25.29 618.477 25.53C617.937 25.75 617.467 26.07 617.067 26.49C616.687 26.91 616.387 27.41 616.167 27.99C615.947 28.55 615.837 29.17 615.837 29.85V30.06H624.387V29.73C624.387 28.35 624.007 27.25 623.247 26.43C622.507 25.59 621.517 25.17 620.277 25.17Z" fill="white"/>
<path d="M643.702 39H631.222V23.52H633.622V36.9H640.912V23.52H643.312V36.9H645.892V43.2H643.702V39Z" fill="white"/>
<path d="M655.331 39.36C654.271 39.36 653.311 39.17 652.451 38.79C651.611 38.41 650.881 37.87 650.261 37.17C649.661 36.45 649.191 35.6 648.851 34.62C648.531 33.62 648.371 32.5 648.371 31.26C648.371 30.04 648.531 28.93 648.851 27.93C649.191 26.93 649.661 26.08 650.261 25.38C650.881 24.66 651.611 24.11 652.451 23.73C653.311 23.35 654.271 23.16 655.331 23.16C656.371 23.16 657.301 23.35 658.121 23.73C658.941 24.11 659.641 24.64 660.221 25.32C660.801 25.98 661.241 26.77 661.541 27.69C661.861 28.61 662.021 29.62 662.021 30.72V31.86H650.891V32.58C650.891 33.24 650.991 33.86 651.191 34.44C651.411 35 651.711 35.49 652.091 35.91C652.491 36.33 652.971 36.66 653.531 36.9C654.111 37.14 654.761 37.26 655.481 37.26C656.461 37.26 657.311 37.03 658.031 36.57C658.771 36.11 659.341 35.45 659.741 34.59L661.451 35.82C660.951 36.88 660.171 37.74 659.111 38.4C658.051 39.04 656.791 39.36 655.331 39.36ZM655.331 25.17C654.671 25.17 654.071 25.29 653.531 25.53C652.991 25.75 652.521 26.07 652.121 26.49C651.741 26.91 651.441 27.41 651.221 27.99C651.001 28.55 650.891 29.17 650.891 29.85V30.06H659.441V29.73C659.441 28.35 659.061 27.25 658.301 26.43C657.561 25.59 656.571 25.17 655.331 25.17Z" fill="white"/>
<path d="M666.275 23.52H678.365V39H675.965V25.62H668.675V39H666.275V23.52Z" fill="white"/>
<path d="M687.103 25.62H681.823V23.52H694.783V25.62H689.503V39H687.103V25.62Z" fill="white"/>
<path d="M596.55 51.52H598.95V54.04H599.07C599.47 53.06 600.05 52.34 600.81 51.88C601.59 51.4 602.52 51.16 603.6 51.16C604.56 51.16 605.43 51.35 606.21 51.73C606.99 52.11 607.65 52.65 608.19 53.35C608.75 54.05 609.17 54.9 609.45 55.9C609.75 56.9 609.9 58.02 609.9 59.26C609.9 60.5 609.75 61.62 609.45 62.62C609.17 63.62 608.75 64.47 608.19 65.17C607.65 65.87 606.99 66.41 606.21 66.79C605.43 67.17 604.56 67.36 603.6 67.36C601.5 67.36 599.99 66.4 599.07 64.48H598.95V73H596.55V51.52ZM602.94 65.2C604.3 65.2 605.37 64.78 606.15 63.94C606.93 63.08 607.32 61.96 607.32 60.58V57.94C607.32 56.56 606.93 55.45 606.15 54.61C605.37 53.75 604.3 53.32 602.94 53.32C602.4 53.32 601.88 53.4 601.38 53.56C600.9 53.7 600.48 53.9 600.12 54.16C599.76 54.42 599.47 54.74 599.25 55.12C599.05 55.48 598.95 55.87 598.95 56.29V62.05C598.95 62.55 599.05 63 599.25 63.4C599.47 63.78 599.76 64.11 600.12 64.39C600.48 64.65 600.9 64.85 601.38 64.99C601.88 65.13 602.4 65.2 602.94 65.2Z" fill="white"/>
<path d="M623.646 51.52H626.016L619.086 70.6C618.906 71.06 618.726 71.44 618.546 71.74C618.366 72.06 618.146 72.31 617.886 72.49C617.626 72.67 617.296 72.8 616.896 72.88C616.516 72.96 616.046 73 615.486 73H614.256V70.9H616.686L617.856 67.6L612.066 51.52H614.466L618.186 62.05L618.906 64.57H619.056L619.896 62.05L623.646 51.52Z" fill="white"/>
<path d="M629.377 51.52H631.777V58H634.867L637.867 53.26C638.087 52.9 638.297 52.61 638.497 52.39C638.697 52.15 638.897 51.97 639.097 51.85C639.297 51.73 639.507 51.65 639.727 51.61C639.947 51.55 640.197 51.52 640.477 51.52H641.887V53.62H640.027L637.597 57.46C637.437 57.72 637.297 57.93 637.177 58.09C637.057 58.25 636.937 58.39 636.817 58.51C636.697 58.61 636.567 58.7 636.427 58.78C636.287 58.84 636.117 58.9 635.917 58.96V59.08C636.337 59.14 636.697 59.28 636.997 59.5C637.317 59.7 637.647 60.1 637.987 60.7L640.357 64.9H642.127V67H640.387C639.867 67 639.387 66.87 638.947 66.61C638.527 66.33 638.117 65.83 637.717 65.11L634.867 60.04H631.777V67H629.377V51.52Z" fill="white"/>
<path d="M651.552 67.36C650.512 67.36 649.562 67.17 648.702 66.79C647.842 66.41 647.102 65.87 646.482 65.17C645.882 64.45 645.412 63.6 645.072 62.62C644.732 61.62 644.562 60.5 644.562 59.26C644.562 58.04 644.732 56.93 645.072 55.93C645.412 54.93 645.882 54.08 646.482 53.38C647.102 52.66 647.842 52.11 648.702 51.73C649.562 51.35 650.512 51.16 651.552 51.16C652.592 51.16 653.532 51.35 654.372 51.73C655.232 52.11 655.972 52.66 656.592 53.38C657.212 54.08 657.692 54.93 658.032 55.93C658.372 56.93 658.542 58.04 658.542 59.26C658.542 60.5 658.372 61.62 658.032 62.62C657.692 63.6 657.212 64.45 656.592 65.17C655.972 65.87 655.232 66.41 654.372 66.79C653.532 67.17 652.592 67.36 651.552 67.36ZM651.552 65.23C652.852 65.23 653.912 64.83 654.732 64.03C655.552 63.23 655.962 62.01 655.962 60.37V58.15C655.962 56.51 655.552 55.29 654.732 54.49C653.912 53.69 652.852 53.29 651.552 53.29C650.252 53.29 649.192 53.69 648.372 54.49C647.552 55.29 647.142 56.51 647.142 58.15V60.37C647.142 62.01 647.552 63.23 648.372 64.03C649.192 64.83 650.252 65.23 651.552 65.23Z" fill="white"/>
<path d="M662.789 51.52H670.589C671.849 51.52 672.839 51.88 673.559 52.6C674.279 53.3 674.639 54.25 674.639 55.45C674.639 57.39 673.629 58.48 671.609 58.72V58.84C672.809 58.94 673.699 59.32 674.279 59.98C674.879 60.62 675.179 61.42 675.179 62.38C675.179 63 675.079 63.59 674.879 64.15C674.699 64.71 674.429 65.2 674.069 65.62C673.709 66.04 673.269 66.38 672.749 66.64C672.229 66.88 671.639 67 670.979 67H662.789V51.52ZM670.259 65.02C670.979 65.02 671.549 64.83 671.969 64.45C672.389 64.07 672.599 63.53 672.599 62.83V62.14C672.599 61.44 672.389 60.9 671.969 60.52C671.549 60.14 670.979 59.95 670.259 59.95H665.189V65.02H670.259ZM669.959 58C670.619 58 671.129 57.84 671.489 57.52C671.869 57.18 672.059 56.7 672.059 56.08V55.42C672.059 54.8 671.869 54.33 671.489 54.01C671.129 53.67 670.619 53.5 669.959 53.5H665.189V58H669.959Z" fill="white"/>
<path d="M685.668 67.36C684.628 67.36 683.678 67.17 682.818 66.79C681.958 66.41 681.218 65.87 680.598 65.17C679.998 64.45 679.528 63.6 679.188 62.62C678.848 61.62 678.678 60.5 678.678 59.26C678.678 58.04 678.848 56.93 679.188 55.93C679.528 54.93 679.998 54.08 680.598 53.38C681.218 52.66 681.958 52.11 682.818 51.73C683.678 51.35 684.628 51.16 685.668 51.16C686.708 51.16 687.648 51.35 688.488 51.73C689.348 52.11 690.088 52.66 690.708 53.38C691.328 54.08 691.808 54.93 692.148 55.93C692.488 56.93 692.658 58.04 692.658 59.26C692.658 60.5 692.488 61.62 692.148 62.62C691.808 63.6 691.328 64.45 690.708 65.17C690.088 65.87 689.348 66.41 688.488 66.79C687.648 67.17 686.708 67.36 685.668 67.36ZM685.668 65.23C686.968 65.23 688.028 64.83 688.848 64.03C689.668 63.23 690.078 62.01 690.078 60.37V58.15C690.078 56.51 689.668 55.29 688.848 54.49C688.028 53.69 686.968 53.29 685.668 53.29C684.368 53.29 683.308 53.69 682.488 54.49C681.668 55.29 681.258 56.51 681.258 58.15V60.37C681.258 62.01 681.668 63.23 682.488 64.03C683.308 64.83 684.368 65.23 685.668 65.23Z" fill="white"/>
<path d="M696.718 59.17V56.59H704.548V59.17H696.718Z" fill="white"/>
<path d="M594.24 92.9H596.01C596.63 91.9 597.13 90.65 597.51 89.15C597.89 87.65 598.08 85.93 598.08 83.99V79.52H608.55V92.9H611.13V99.2H608.94V95H596.43V99.2H594.24V92.9ZM606.15 92.9V81.62H600.36V84.11C600.36 86.17 600.18 87.93 599.82 89.39C599.48 90.83 599.07 92 598.59 92.9H606.15Z" fill="white"/>
<path d="M614.75 79.52H617.09V88.1L616.85 91.82H616.97L618.89 88.52L625.07 79.52H627.29V95H624.95V86.42L625.19 82.7H625.07L623.15 86L616.97 95H614.75V79.52Z" fill="white"/>
<path d="M636.017 81.62H630.737V79.52H643.697V81.62H638.417V95H636.017V81.62Z" fill="white"/>
<path d="M652.577 95.36C651.517 95.36 650.557 95.17 649.697 94.79C648.857 94.41 648.127 93.87 647.507 93.17C646.907 92.45 646.437 91.6 646.097 90.62C645.777 89.62 645.617 88.5 645.617 87.26C645.617 86.04 645.777 84.93 646.097 83.93C646.437 82.93 646.907 82.08 647.507 81.38C648.127 80.66 648.857 80.11 649.697 79.73C650.557 79.35 651.517 79.16 652.577 79.16C653.617 79.16 654.547 79.35 655.367 79.73C656.187 80.11 656.887 80.64 657.467 81.32C658.047 81.98 658.487 82.77 658.787 83.69C659.107 84.61 659.267 85.62 659.267 86.72V87.86H648.137V88.58C648.137 89.24 648.237 89.86 648.437 90.44C648.657 91 648.957 91.49 649.337 91.91C649.737 92.33 650.217 92.66 650.777 92.9C651.357 93.14 652.007 93.26 652.727 93.26C653.707 93.26 654.557 93.03 655.277 92.57C656.017 92.11 656.587 91.45 656.987 90.59L658.697 91.82C658.197 92.88 657.417 93.74 656.357 94.4C655.297 95.04 654.037 95.36 652.577 95.36ZM652.577 81.17C651.917 81.17 651.317 81.29 650.777 81.53C650.237 81.75 649.767 82.07 649.367 82.49C648.987 82.91 648.687 83.41 648.467 83.99C648.247 84.55 648.137 85.17 648.137 85.85V86.06H656.687V85.73C656.687 84.35 656.307 83.25 655.547 82.43C654.807 81.59 653.817 81.17 652.577 81.17Z" fill="white"/>
<path d="M661.211 92.9H663.251C663.511 92.54 663.741 92.11 663.941 91.61C664.141 91.11 664.311 90.51 664.451 89.81C664.591 89.11 664.701 88.28 664.781 87.32C664.861 86.36 664.901 85.23 664.901 83.93V79.52H675.371V95H672.971V81.62H667.181V83.99C667.181 85.49 667.121 86.8 667.001 87.92C666.901 89.04 666.751 90 666.551 90.8C666.371 91.6 666.151 92.26 665.891 92.78C665.631 93.28 665.351 93.68 665.051 93.98C664.671 94.36 664.252 94.63 663.792 94.79C663.332 94.93 662.781 95 662.141 95H661.211V92.9Z" fill="white"/>
<path d="M693.474 95.36C691.514 95.36 689.924 94.72 688.704 93.44C687.504 92.16 686.834 90.36 686.694 88.04H683.184V95H680.784V79.52H683.184V86H686.754C686.954 83.82 687.644 82.14 688.824 80.96C690.024 79.76 691.574 79.16 693.474 79.16C694.494 79.16 695.424 79.35 696.264 79.73C697.104 80.09 697.814 80.62 698.394 81.32C698.994 82 699.454 82.84 699.774 83.84C700.094 84.84 700.254 85.98 700.254 87.26C700.254 88.54 700.094 89.68 699.774 90.68C699.454 91.68 698.994 92.53 698.394 93.23C697.814 93.91 697.104 94.44 696.264 94.82C695.424 95.18 694.494 95.36 693.474 95.36ZM693.474 93.23C694.754 93.23 695.774 92.85 696.534 92.09C697.294 91.33 697.674 90.09 697.674 88.37V86.15C697.674 84.43 697.294 83.19 696.534 82.43C695.774 81.67 694.754 81.29 693.474 81.29C692.194 81.29 691.174 81.67 690.414 82.43C689.654 83.19 689.274 84.43 689.274 86.15V88.37C689.274 90.09 689.654 91.33 690.414 92.09C691.174 92.85 692.194 93.23 693.474 93.23Z" fill="white"/>
<path d="M604.488 131.6H604.408C604.12 131.717 603.763 131.808 603.336 131.872C602.909 131.936 602.445 131.968 601.944 131.968C600.557 131.968 599.539 131.648 598.888 131.008C598.248 130.357 597.928 129.355 597.928 128V124.832H599.272V128C599.272 128.981 599.496 129.691 599.944 130.128C600.403 130.565 601.085 130.784 601.992 130.784C602.525 130.784 603.005 130.752 603.432 130.688C603.859 130.624 604.211 130.533 604.488 130.416V124.832H605.832V136H604.488V131.6Z" fill="white"/>
<path d="M614.833 136C614.353 136 614.006 135.872 613.792 135.616C613.59 135.36 613.462 135.04 613.409 134.656H613.328C613.147 135.168 612.848 135.552 612.432 135.808C612.016 136.064 611.521 136.192 610.945 136.192C610.07 136.192 609.387 135.968 608.896 135.52C608.416 135.072 608.177 134.464 608.177 133.696C608.177 132.917 608.459 132.32 609.024 131.904C609.6 131.488 610.491 131.28 611.696 131.28H613.328V130.464C613.328 129.877 613.169 129.429 612.849 129.12C612.529 128.811 612.038 128.656 611.377 128.656C610.875 128.656 610.454 128.768 610.112 128.992C609.782 129.216 609.505 129.515 609.281 129.888L608.513 129.168C608.737 128.72 609.094 128.341 609.584 128.032C610.075 127.712 610.694 127.552 611.44 127.552C612.443 127.552 613.222 127.797 613.776 128.288C614.331 128.779 614.609 129.461 614.609 130.336V134.88H615.552V136H614.833ZM611.153 135.104C611.473 135.104 611.766 135.067 612.032 134.992C612.299 134.917 612.529 134.811 612.721 134.672C612.913 134.533 613.062 134.373 613.169 134.192C613.275 134.011 613.328 133.813 613.328 133.6V132.24H611.633C610.897 132.24 610.358 132.347 610.016 132.56C609.686 132.773 609.521 133.083 609.521 133.488V133.824C609.521 134.229 609.665 134.544 609.953 134.768C610.251 134.992 610.651 135.104 611.153 135.104Z" fill="white"/>
<path d="M619.018 128.864H616.203V127.744H623.115V128.864H620.299V136H619.018V128.864Z" fill="white"/>
<path d="M625.077 124.832H631.157V126.016H626.421V136H625.077V124.832Z" fill="white"/>
<path d="M633.222 124.832H641.334V136H639.99V126.016H634.566V136H633.222V124.832Z" fill="white"/>
<path d="M648.235 126.016V136H646.891V126.016H643.339V124.832H651.787V126.016H648.235Z" fill="white"/>
<path d="M58.92 72.776H36.328V93H30.952V48.328H36.328V68.04H58.92V48.328H64.296V93H58.92V72.776Z" fill="white"/>
<path d="M100.33 93C98.41 93 97.0233 92.488 96.17 91.464C95.3593 90.44 94.8473 89.16 94.634 87.624H94.314C93.5887 89.672 92.394 91.208 90.73 92.232C89.066 93.256 87.082 93.768 84.778 93.768C81.2793 93.768 78.5487 92.872 76.586 91.08C74.666 89.288 73.706 86.856 73.706 83.784C73.706 80.6693 74.8367 78.28 77.098 76.616C79.402 74.952 82.9647 74.12 87.786 74.12H94.314V70.856C94.314 68.5093 93.674 66.7173 92.394 65.48C91.114 64.2427 89.1513 63.624 86.506 63.624C84.5007 63.624 82.8153 64.072 81.45 64.968C80.1273 65.864 79.018 67.0587 78.122 68.552L75.05 65.672C75.946 63.88 77.3753 62.3653 79.338 61.128C81.3007 59.848 83.7753 59.208 86.762 59.208C90.7727 59.208 93.8873 60.1893 96.106 62.152C98.3247 64.1147 99.434 66.8453 99.434 70.344V88.52H103.21V93H100.33ZM85.61 89.416C86.89 89.416 88.0633 89.2667 89.13 88.968C90.1967 88.6693 91.114 88.2427 91.882 87.688C92.65 87.1333 93.2473 86.4933 93.674 85.768C94.1007 85.0427 94.314 84.2533 94.314 83.4V77.96H87.53C84.586 77.96 82.4313 78.3867 81.066 79.24C79.7433 80.0933 79.082 81.3307 79.082 82.952V84.296C79.082 85.9173 79.658 87.176 80.81 88.072C82.0047 88.968 83.6047 89.416 85.61 89.416Z" fill="white"/>
<path d="M111.158 59.976H136.949V93H131.829V64.456H116.277V93H111.158V59.976Z" fill="white"/>
<path d="M148.485 59.976H153.477V78.28L152.965 86.216H153.221L157.317 79.176L170.501 59.976H175.237V93H170.245V74.696L170.757 66.76H170.501L166.405 73.8L153.221 93H148.485V59.976Z" fill="white"/>
<path d="M199.038 93.768C196.734 93.768 194.665 93.3627 192.83 92.552C190.995 91.7413 189.438 90.5893 188.158 89.096C186.921 87.6027 185.961 85.7893 185.278 83.656C184.638 81.5227 184.318 79.1333 184.318 76.488C184.318 73.8427 184.638 71.4533 185.278 69.32C185.961 67.1867 186.921 65.3733 188.158 63.88C189.438 62.3867 190.995 61.2347 192.83 60.424C194.665 59.6133 196.734 59.208 199.038 59.208C202.323 59.208 204.947 59.9333 206.91 61.384C208.915 62.792 210.409 64.648 211.39 66.952L207.102 69.128C206.505 67.4213 205.523 66.0987 204.158 65.16C202.793 64.2213 201.086 63.752 199.038 63.752C197.502 63.752 196.158 64.008 195.006 64.52C193.854 64.9893 192.894 65.672 192.126 66.568C191.358 67.4213 190.782 68.4667 190.398 69.704C190.014 70.8987 189.822 72.2213 189.822 73.672V79.304C189.822 82.2053 190.59 84.5947 192.126 86.472C193.705 88.3067 196.009 89.224 199.038 89.224C203.177 89.224 206.163 87.304 207.998 83.464L211.71 85.96C210.643 88.3493 209.043 90.248 206.91 91.656C204.819 93.064 202.195 93.768 199.038 93.768Z" fill="white"/>
<path d="M243.577 93C241.657 93 240.271 92.488 239.417 91.464C238.607 90.44 238.095 89.16 237.882 87.624H237.561C236.836 89.672 235.641 91.208 233.977 92.232C232.313 93.256 230.329 93.768 228.025 93.768C224.527 93.768 221.796 92.872 219.833 91.08C217.913 89.288 216.953 86.856 216.953 83.784C216.953 80.6693 218.084 78.28 220.345 76.616C222.649 74.952 226.212 74.12 231.033 74.12H237.561V70.856C237.561 68.5093 236.921 66.7173 235.641 65.48C234.361 64.2427 232.399 63.624 229.753 63.624C227.748 63.624 226.063 64.072 224.697 64.968C223.375 65.864 222.265 67.0587 221.369 68.552L218.298 65.672C219.194 63.88 220.623 62.3653 222.585 61.128C224.548 59.848 227.023 59.208 230.009 59.208C234.02 59.208 237.135 60.1893 239.354 62.152C241.572 64.1147 242.682 66.8453 242.682 70.344V88.52H246.457V93H243.577ZM228.857 89.416C230.137 89.416 231.311 89.2667 232.378 88.968C233.444 88.6693 234.362 88.2427 235.13 87.688C235.898 87.1333 236.495 86.4933 236.921 85.768C237.348 85.0427 237.561 84.2533 237.561 83.4V77.96H230.777C227.833 77.96 225.679 78.3867 224.313 79.24C222.991 80.0933 222.329 81.3307 222.329 82.952V84.296C222.329 85.9173 222.905 87.176 224.057 88.072C225.252 88.968 226.852 89.416 228.857 89.416Z" fill="white"/>
<path d="M260.322 64.456H249.057V59.976H276.706V64.456H265.441V93H260.322V64.456Z" fill="white"/>
<path d="M284.045 59.976H289.165V71.944H298.573C301.901 71.944 304.546 72.8827 306.509 74.76C308.472 76.6373 309.453 79.2187 309.453 82.504C309.453 85.832 308.493 88.4133 306.573 90.248C304.653 92.0827 302.008 93 298.637 93H284.045V59.976ZM297.869 88.52C299.789 88.52 301.282 88.1573 302.349 87.432C303.416 86.7067 303.949 85.4907 303.949 83.784V81.096C303.949 79.3893 303.416 78.1947 302.349 77.512C301.282 76.7867 299.789 76.424 297.869 76.424H289.165V88.52H297.869Z" fill="white"/>
<path d="M48.872 137.832H48.552C47.528 138.984 46.2693 139.944 44.776 140.712C43.2827 141.437 41.32 141.8 38.888 141.8C35.5173 141.8 32.8933 140.968 31.016 139.304C29.1387 137.597 28.2 135.037 28.2 131.624V119.976H33.32V131.176C33.32 135.187 35.688 137.192 40.424 137.192C42.856 137.192 44.8613 136.872 46.44 136.232C48.0613 135.549 48.872 134.525 48.872 133.16V119.976H53.992V153H48.872V137.832Z" fill="white"/>
<path d="M77.9335 153.768C75.6722 153.768 73.6242 153.363 71.7895 152.552C69.9975 151.741 68.4402 150.589 67.1175 149.096C65.8375 147.56 64.8348 145.747 64.1095 143.656C63.4268 141.523 63.0855 139.133 63.0855 136.488C63.0855 133.885 63.4268 131.517 64.1095 129.384C64.8348 127.251 65.8375 125.437 67.1175 123.944C68.4402 122.408 69.9975 121.235 71.7895 120.424C73.6242 119.613 75.6722 119.208 77.9335 119.208C80.1522 119.208 82.1362 119.613 83.8855 120.424C85.6348 121.235 87.1282 122.365 88.3655 123.816C89.6028 125.224 90.5415 126.909 91.1815 128.872C91.8642 130.835 92.2055 132.989 92.2055 135.336V137.768H68.4615V139.304C68.4615 140.712 68.6748 142.035 69.1015 143.272C69.5708 144.467 70.2108 145.512 71.0215 146.408C71.8748 147.304 72.8988 148.008 74.0935 148.52C75.3308 149.032 76.7175 149.288 78.2535 149.288C80.3442 149.288 82.1575 148.797 83.6935 147.816C85.2722 146.835 86.4882 145.427 87.3415 143.592L90.9895 146.216C89.9228 148.477 88.2588 150.312 85.9975 151.72C83.7362 153.085 81.0482 153.768 77.9335 153.768ZM77.9335 123.496C76.5255 123.496 75.2455 123.752 74.0935 124.264C72.9415 124.733 71.9388 125.416 71.0855 126.312C70.2748 127.208 69.6348 128.275 69.1655 129.512C68.6962 130.707 68.4615 132.029 68.4615 133.48V133.928H86.7015V133.224C86.7015 130.28 85.8908 127.933 84.2695 126.184C82.6908 124.392 80.5788 123.496 77.9335 123.496Z" fill="white"/>
<path d="M101.283 119.976H106.402V125.352H106.659C107.512 123.261 108.749 121.725 110.37 120.744C112.034 119.72 114.019 119.208 116.323 119.208C118.371 119.208 120.227 119.613 121.891 120.424C123.555 121.235 124.963 122.387 126.115 123.88C127.309 125.373 128.205 127.187 128.803 129.32C129.443 131.453 129.762 133.843 129.762 136.488C129.762 139.133 129.443 141.523 128.803 143.656C128.205 145.789 127.309 147.603 126.115 149.096C124.963 150.589 123.555 151.741 121.891 152.552C120.227 153.363 118.371 153.768 116.323 153.768C111.843 153.768 108.621 151.72 106.659 147.624H106.402V165.8H101.283V119.976ZM114.914 149.16C117.816 149.16 120.098 148.264 121.762 146.472C123.426 144.637 124.258 142.248 124.258 139.304V133.672C124.258 130.728 123.426 128.36 121.762 126.568C120.098 124.733 117.816 123.816 114.914 123.816C113.762 123.816 112.653 123.987 111.587 124.328C110.563 124.627 109.666 125.053 108.898 125.608C108.13 126.163 107.512 126.845 107.042 127.656C106.616 128.424 106.402 129.256 106.402 130.152V142.44C106.402 143.507 106.616 144.467 107.042 145.32C107.512 146.131 108.13 146.835 108.898 147.432C109.666 147.987 110.563 148.413 111.587 148.712C112.653 149.011 113.762 149.16 114.914 149.16Z" fill="white"/>
<path d="M139.048 119.976H144.167V133.736H160.68V119.976H165.799V153H160.68V138.216H144.167V153H139.048V119.976Z" fill="white"/>
<path d="M189.792 153.768C187.574 153.768 185.547 153.363 183.712 152.552C181.878 151.741 180.299 150.589 178.977 149.096C177.697 147.56 176.694 145.747 175.968 143.656C175.243 141.523 174.88 139.133 174.88 136.488C174.88 133.885 175.243 131.517 175.968 129.384C176.694 127.251 177.697 125.437 178.977 123.944C180.299 122.408 181.878 121.235 183.712 120.424C185.547 119.613 187.574 119.208 189.792 119.208C192.011 119.208 194.017 119.613 195.809 120.424C197.643 121.235 199.222 122.408 200.544 123.944C201.867 125.437 202.891 127.251 203.617 129.384C204.342 131.517 204.704 133.885 204.704 136.488C204.704 139.133 204.342 141.523 203.617 143.656C202.891 145.747 201.867 147.56 200.544 149.096C199.222 150.589 197.643 151.741 195.809 152.552C194.017 153.363 192.011 153.768 189.792 153.768ZM189.792 149.224C192.566 149.224 194.827 148.371 196.576 146.664C198.326 144.957 199.201 142.355 199.201 138.856V134.12C199.201 130.621 198.326 128.019 196.576 126.312C194.827 124.605 192.566 123.752 189.792 123.752C187.019 123.752 184.758 124.605 183.008 126.312C181.259 128.019 180.384 130.621 180.384 134.12V138.856C180.384 142.355 181.259 144.957 183.008 146.664C184.758 148.371 187.019 149.224 189.792 149.224Z" fill="white"/>
<path d="M213.765 119.976H230.405C233.093 119.976 235.205 120.744 236.741 122.28C238.277 123.773 239.045 125.8 239.045 128.36C239.045 132.499 236.89 134.824 232.581 135.336V135.592C235.141 135.805 237.04 136.616 238.277 138.024C239.557 139.389 240.197 141.096 240.197 143.144C240.197 144.467 239.984 145.725 239.557 146.92C239.173 148.115 238.597 149.16 237.829 150.056C237.061 150.952 236.122 151.677 235.013 152.232C233.904 152.744 232.645 153 231.237 153H213.765V119.976ZM229.701 148.776C231.237 148.776 232.453 148.371 233.349 147.56C234.245 146.749 234.693 145.597 234.693 144.104V142.632C234.693 141.139 234.245 139.987 233.349 139.176C232.453 138.365 231.237 137.96 229.701 137.96H218.885V148.776H229.701ZM229.061 133.8C230.469 133.8 231.557 133.459 232.325 132.776C233.136 132.051 233.541 131.027 233.541 129.704V128.296C233.541 126.973 233.136 125.971 232.325 125.288C231.557 124.563 230.469 124.2 229.061 124.2H218.885V133.8H229.061Z" fill="white"/>
<path d="M250.092 119.976H255.085V138.28L254.572 146.216H254.828L258.924 139.176L272.108 119.976H276.844V153H271.853V134.696L272.365 126.76H272.108L268.013 133.8L254.828 153H250.092V119.976Z" fill="white"/>
<path d="M288.358 119.976H293.478V133.8H300.07L306.47 123.688C306.939 122.92 307.387 122.301 307.814 121.832C308.24 121.32 308.667 120.936 309.094 120.68C309.52 120.424 309.968 120.253 310.438 120.168C310.907 120.04 311.44 119.976 312.038 119.976H315.046V124.456H311.078L305.894 132.648C305.552 133.203 305.253 133.651 304.997 133.992C304.741 134.333 304.486 134.632 304.23 134.888C303.974 135.101 303.696 135.293 303.398 135.464C303.099 135.592 302.736 135.72 302.31 135.848V136.104C303.206 136.232 303.974 136.531 304.614 137C305.296 137.427 306 138.28 306.726 139.56L311.782 148.52H315.558V153H311.846C310.736 153 309.712 152.723 308.773 152.168C307.877 151.571 307.003 150.504 306.15 148.968L300.07 138.152H293.478V153H288.358V119.976Z" fill="white"/>
<path d="M30.44 179.976H35.56V193.8H42.152L48.552 183.688C49.0213 182.92 49.4693 182.301 49.896 181.832C50.3227 181.32 50.7493 180.936 51.176 180.68C51.6027 180.424 52.0507 180.253 52.52 180.168C52.9893 180.04 53.5227 179.976 54.12 179.976H57.128V184.456H53.16L47.976 192.648C47.6347 193.203 47.336 193.651 47.08 193.992C46.824 194.333 46.568 194.632 46.312 194.888C46.056 195.101 45.7787 195.293 45.48 195.464C45.1813 195.592 44.8187 195.72 44.392 195.848V196.104C45.288 196.232 46.056 196.531 46.696 197C47.3787 197.427 48.0827 198.28 48.808 199.56L53.864 208.52H57.64V213H53.928C52.8187 213 51.7947 212.723 50.856 212.168C49.96 211.571 49.0853 210.504 48.232 208.968L42.152 198.152H35.56V213H30.44V179.976Z" fill="white"/>
<path d="M77.7475 213.768C75.5288 213.768 73.5022 213.363 71.6675 212.552C69.8328 211.741 68.2542 210.589 66.9315 209.096C65.6515 207.56 64.6488 205.747 63.9235 203.656C63.1982 201.523 62.8355 199.133 62.8355 196.488C62.8355 193.885 63.1982 191.517 63.9235 189.384C64.6488 187.251 65.6515 185.437 66.9315 183.944C68.2542 182.408 69.8328 181.235 71.6675 180.424C73.5022 179.613 75.5288 179.208 77.7475 179.208C79.9662 179.208 81.9715 179.613 83.7635 180.424C85.5982 181.235 87.1768 182.408 88.4995 183.944C89.8222 185.437 90.8462 187.251 91.5715 189.384C92.2968 191.517 92.6595 193.885 92.6595 196.488C92.6595 199.133 92.2968 201.523 91.5715 203.656C90.8462 205.747 89.8222 207.56 88.4995 209.096C87.1768 210.589 85.5982 211.741 83.7635 212.552C81.9715 213.363 79.9662 213.768 77.7475 213.768ZM77.7475 209.224C80.5208 209.224 82.7822 208.371 84.5315 206.664C86.2808 204.957 87.1555 202.355 87.1555 198.856V194.12C87.1555 190.621 86.2808 188.019 84.5315 186.312C82.7822 184.605 80.5208 183.752 77.7475 183.752C74.9742 183.752 72.7128 184.605 70.9635 186.312C69.2142 188.019 68.3395 190.621 68.3395 194.12V198.856C68.3395 202.355 69.2142 204.957 70.9635 206.664C72.7128 208.371 74.9742 209.224 77.7475 209.224Z" fill="white"/>
<path d="M101.72 179.976H106.84V193.736H123.352V179.976H128.472V213H123.352V198.216H106.84V213H101.72V179.976Z" fill="white"/>
<path d="M147.089 184.456H135.825V179.976H163.473V184.456H152.209V213H147.089V184.456Z" fill="white"/>
<path d="M182.416 213.768C180.155 213.768 178.107 213.363 176.272 212.552C174.48 211.741 172.923 210.589 171.6 209.096C170.32 207.56 169.317 205.747 168.592 203.656C167.909 201.523 167.568 199.133 167.568 196.488C167.568 193.885 167.909 191.517 168.592 189.384C169.317 187.251 170.32 185.437 171.6 183.944C172.923 182.408 174.48 181.235 176.272 180.424C178.107 179.613 180.155 179.208 182.416 179.208C184.635 179.208 186.619 179.613 188.368 180.424C190.117 181.235 191.611 182.365 192.848 183.816C194.085 185.224 195.024 186.909 195.664 188.872C196.347 190.835 196.688 192.989 196.688 195.336V197.768H172.944V199.304C172.944 200.712 173.157 202.035 173.584 203.272C174.053 204.467 174.693 205.512 175.504 206.408C176.357 207.304 177.381 208.008 178.576 208.52C179.813 209.032 181.2 209.288 182.736 209.288C184.827 209.288 186.64 208.797 188.176 207.816C189.755 206.835 190.971 205.427 191.824 203.592L195.472 206.216C194.405 208.477 192.741 210.312 190.48 211.72C188.219 213.085 185.531 213.768 182.416 213.768ZM182.416 183.496C181.008 183.496 179.728 183.752 178.576 184.264C177.424 184.733 176.421 185.416 175.568 186.312C174.757 187.208 174.117 188.275 173.648 189.512C173.179 190.707 172.944 192.029 172.944 193.48V193.928H191.184V193.224C191.184 190.28 190.373 187.933 188.752 186.184C187.173 184.392 185.061 183.496 182.416 183.496Z" fill="white"/>
<path d="M205.765 179.976H210.885V193.736H227.397V179.976H232.517V213H227.397V198.216H210.885V213H205.765V179.976Z" fill="white"/>
<path d="M251.134 184.456H239.87V179.976H267.518V184.456H256.254V213H251.134V184.456Z" fill="white"/>
<path d="M271.521 196.296V190.792H288.225V196.296H271.521Z" fill="white"/>
<path d="M298.747 179.976H324.539V213H319.419V184.456H303.867V213H298.747V179.976Z" fill="white"/>
<path d="M331.147 208.52H335.499C336.054 207.752 336.544 206.835 336.971 205.768C337.398 204.701 337.76 203.421 338.059 201.928C338.358 200.435 338.592 198.664 338.763 196.616C338.934 194.568 339.019 192.157 339.019 189.384V179.976H361.355V213H356.235V184.456H343.883V189.512C343.883 192.712 343.755 195.507 343.499 197.896C343.286 200.285 342.966 202.333 342.539 204.04C342.155 205.747 341.686 207.155 341.131 208.264C340.576 209.331 339.979 210.184 339.339 210.824C338.528 211.635 337.632 212.211 336.651 212.552C335.67 212.851 334.496 213 333.131 213H331.147V208.52Z" fill="white"/>
<path d="M396.902 213C394.982 213 393.596 212.488 392.742 211.464C391.932 210.44 391.42 209.16 391.206 207.624H390.887C390.161 209.672 388.966 211.208 387.302 212.232C385.638 213.256 383.654 213.768 381.35 213.768C377.852 213.768 375.121 212.872 373.159 211.08C371.239 209.288 370.279 206.856 370.279 203.784C370.279 200.669 371.409 198.28 373.671 196.616C375.975 194.952 379.537 194.12 384.358 194.12H390.887V190.856C390.887 188.509 390.246 186.717 388.966 185.48C387.686 184.243 385.724 183.624 383.078 183.624C381.073 183.624 379.388 184.072 378.022 184.968C376.7 185.864 375.59 187.059 374.694 188.552L371.622 185.672C372.518 183.88 373.948 182.365 375.91 181.128C377.873 179.848 380.348 179.208 383.335 179.208C387.345 179.208 390.46 180.189 392.678 182.152C394.897 184.115 396.007 186.845 396.007 190.344V208.52H399.783V213H396.902ZM382.182 209.416C383.462 209.416 384.636 209.267 385.702 208.968C386.769 208.669 387.686 208.243 388.454 207.688C389.222 207.133 389.82 206.493 390.246 205.768C390.673 205.043 390.887 204.253 390.887 203.4V197.96H384.103C381.159 197.96 379.004 198.387 377.638 199.24C376.316 200.093 375.654 201.331 375.654 202.952V204.296C375.654 205.917 376.231 207.176 377.383 208.072C378.577 208.968 380.177 209.416 382.182 209.416Z" fill="white"/>
<path d="M407.73 179.976H412.85V193.736H429.362V179.976H434.482V213H429.362V198.216H412.85V213H407.73V179.976Z" fill="white"/>
<path d="M469.995 213C468.075 213 466.688 212.488 465.835 211.464C465.024 210.44 464.512 209.16 464.299 207.624H463.979C463.254 209.672 462.059 211.208 460.395 212.232C458.731 213.256 456.747 213.768 454.443 213.768C450.944 213.768 448.214 212.872 446.251 211.08C444.331 209.288 443.371 206.856 443.371 203.784C443.371 200.669 444.502 198.28 446.763 196.616C449.067 194.952 452.63 194.12 457.451 194.12H463.979V190.856C463.979 188.509 463.339 186.717 462.059 185.48C460.779 184.243 458.816 183.624 456.171 183.624C454.166 183.624 452.48 184.072 451.115 184.968C449.792 185.864 448.683 187.059 447.787 188.552L444.715 185.672C445.611 183.88 447.04 182.365 449.003 181.128C450.966 179.848 453.44 179.208 456.427 179.208C460.438 179.208 463.552 180.189 465.771 182.152C467.99 184.115 469.099 186.845 469.099 190.344V208.52H472.875V213H469.995ZM455.275 209.416C456.555 209.416 457.728 209.267 458.795 208.968C459.862 208.669 460.779 208.243 461.547 207.688C462.315 207.133 462.912 206.493 463.339 205.768C463.766 205.043 463.979 204.253 463.979 203.4V197.96H457.195C454.251 197.96 452.096 198.387 450.731 199.24C449.408 200.093 448.747 201.331 448.747 202.952V204.296C448.747 205.917 449.323 207.176 450.475 208.072C451.67 208.968 453.27 209.416 455.275 209.416Z" fill="white"/>
</svg>
