<svg width="750" height="365" viewBox="0 0 750 365" fill="none" xmlns="http://www.w3.org/2000/svg">
<g clip-path="url(#clip0_205_24)">
<path d="M750 39H88V345H750V39Z" fill="#FF55EF"/>
<path d="M618.591 268.269C619.158 267.927 619.619 267.435 619.926 266.849C621.341 263.022 621.341 258.817 619.926 254.99C619.619 254.404 619.158 253.913 618.591 253.57C618.025 253.228 617.375 253.046 616.712 253.046C616.05 253.046 615.4 253.228 614.833 253.57C614.267 253.913 613.805 254.404 613.499 254.99C612.084 258.817 612.084 263.022 613.499 266.849C613.805 267.435 614.267 267.927 614.833 268.269C615.4 268.612 616.05 268.793 616.712 268.793C617.375 268.793 618.025 268.612 618.591 268.269Z" fill="black"/>
<path d="M636.442 253.873H640.403C641.19 253.822 641.97 254.053 642.601 254.525C642.849 254.76 643.045 255.043 643.18 255.357C643.314 255.67 643.384 256.007 643.384 256.348C643.384 256.689 643.314 257.027 643.18 257.34C643.045 257.653 642.849 257.936 642.601 258.172C641.965 258.632 641.187 258.856 640.403 258.804H636.442V253.873Z" fill="black"/>
<path d="M618.014 289.696C618.798 289.748 619.576 289.524 620.212 289.064C620.476 288.839 620.683 288.556 620.818 288.236C620.952 287.917 621.009 287.571 620.985 287.226C621.004 286.884 620.944 286.542 620.81 286.227C620.676 285.912 620.472 285.631 620.212 285.407C619.581 284.935 618.801 284.704 618.014 284.755H614.053V289.696H618.014Z" fill="black"/>
<path d="M636.125 284.765H640.175C640.948 284.719 641.711 284.963 642.314 285.447C642.574 285.678 642.778 285.964 642.914 286.283C643.049 286.603 643.111 286.948 643.096 287.295C643.115 287.643 643.054 287.992 642.919 288.313C642.783 288.635 642.577 288.922 642.314 289.153C641.711 289.637 640.948 289.88 640.175 289.835H636.125V284.765Z" fill="black"/>
<path d="M663.438 299.162C664.004 298.819 664.466 298.328 664.772 297.741C666.187 293.915 666.187 289.709 664.772 285.883C664.466 285.296 664.004 284.805 663.438 284.463C662.871 284.12 662.221 283.939 661.559 283.939C660.896 283.939 660.247 284.12 659.68 284.463C659.114 284.805 658.652 285.296 658.346 285.883C656.917 289.707 656.917 293.917 658.346 297.741C658.652 298.328 659.114 298.819 659.68 299.162C660.247 299.504 660.896 299.686 661.559 299.686C662.221 299.686 662.871 299.504 663.438 299.162Z" fill="black"/>
<path d="M707.698 289.696C708.482 289.748 709.26 289.524 709.896 289.064C710.161 288.839 710.37 288.556 710.506 288.237C710.642 287.918 710.701 287.572 710.678 287.225C710.695 286.883 710.634 286.541 710.498 286.226C710.362 285.911 710.157 285.631 709.896 285.407C709.265 284.935 708.485 284.704 707.698 284.755H703.737V289.696H707.698Z" fill="black"/>
<path d="M691.99 330.802C691.816 331.171 691.539 331.48 691.193 331.692C690.848 331.904 690.448 332.009 690.044 331.995C689.64 332.008 689.242 331.902 688.896 331.69C688.551 331.478 688.273 331.17 688.098 330.802C687.605 329.663 687.384 328.423 687.453 327.182C687.381 325.935 687.603 324.688 688.098 323.543C688.272 323.173 688.549 322.862 688.894 322.649C689.24 322.435 689.639 322.328 690.044 322.34C690.448 322.325 690.848 322.431 691.193 322.643C691.539 322.854 691.816 323.164 691.99 323.532C692.492 324.679 692.714 325.931 692.636 327.182C692.709 328.424 692.488 329.665 691.99 330.802Z" fill="black"/>
<path d="M701.802 322.849H704.252C704.718 322.819 705.178 322.965 705.543 323.257C705.704 323.399 705.832 323.575 705.917 323.772C706.002 323.97 706.044 324.184 706.037 324.399C706.044 324.608 706.006 324.816 705.924 325.009C705.842 325.201 705.719 325.372 705.563 325.51C705.199 325.807 704.739 325.956 704.273 325.928H701.802V322.849Z" fill="black"/>
<path fill-rule="evenodd" clip-rule="evenodd" d="M597 345V238H750V365H740V355H730V345H597ZM609.093 251.028C610.842 248.774 613.384 247.648 616.717 247.648C618.165 247.56 619.613 247.821 620.938 248.41C622.263 248.998 623.428 249.896 624.332 251.028C626.075 253.281 626.946 256.575 626.946 260.91C626.946 265.245 626.075 268.539 624.332 270.792C623.43 271.927 622.266 272.828 620.941 273.418C619.615 274.008 618.166 274.27 616.717 274.182C613.377 274.162 610.835 273.032 609.093 270.792C607.35 268.552 606.478 265.258 606.478 260.91C606.472 256.575 607.343 253.281 609.093 251.028ZM636.442 264.141H640.403C642.028 264.183 643.642 263.862 645.127 263.202C646.409 262.618 647.495 261.678 648.256 260.494C649.017 259.256 649.402 257.825 649.365 256.373C649.409 254.864 649.024 253.374 648.256 252.074C647.511 250.866 646.435 249.896 645.156 249.277C643.68 248.587 642.063 248.248 640.433 248.289H630.531V273.578H636.472L636.442 264.141ZM659.494 268.509H670.327V273.569H653.543V248.28H670.644V253.34H659.494V258.548H669.06V263.479H659.494V268.509ZM679.734 263.361L679.358 252.925H679.982L684.141 273.569H693.32V248.28H688.22V258.489L688.606 268.915H687.973L683.814 248.28H674.635V273.569H679.734V263.361ZM617.598 279.181C619.228 279.14 620.846 279.478 622.322 280.17C623.586 280.795 624.647 281.764 625.381 282.966C626.148 284.267 626.532 285.757 626.49 287.265C626.528 288.717 626.142 290.148 625.381 291.386C624.634 292.57 623.557 293.511 622.282 294.094C620.801 294.772 619.187 295.109 617.559 295.082H613.598V304.47H607.656V279.181H617.598ZM644.899 293.778C646.144 293.194 647.203 292.277 647.958 291.129C648.696 289.969 649.074 288.619 649.048 287.246C649.087 285.748 648.713 284.267 647.968 282.966C647.258 281.754 646.208 280.775 644.948 280.15C643.533 279.465 641.975 279.126 640.403 279.162H630.174V304.451H636.115V294.717H637.363L642.958 304.451H649.642L643.502 294.292C643.981 294.158 644.448 293.986 644.899 293.778ZM653.939 281.93C655.682 279.67 658.22 278.54 661.554 278.54C664.888 278.56 667.426 279.69 669.169 281.93C670.911 284.17 671.783 287.464 671.783 291.812C671.783 296.147 670.911 299.441 669.169 301.694C667.426 303.948 664.888 305.074 661.554 305.074C658.22 305.074 655.682 303.948 653.939 301.694C652.196 299.441 651.325 296.147 651.325 291.812C651.325 287.484 652.196 284.189 653.939 281.93ZM684.418 291.407H683.784L682.17 279.172H674.476V304.461H679.516V295.073L679.1 284.548H679.734L681.319 296.555H686.636L688.22 284.548H688.854L688.438 295.073V304.461H693.478V279.172H686.032L684.418 291.407ZM707.698 279.181C709.328 279.14 710.945 279.479 712.421 280.169C713.687 280.796 714.751 281.765 715.491 282.966C716.257 284.267 716.642 285.757 716.6 287.265C716.637 288.717 716.252 290.148 715.491 291.386C714.741 292.568 713.665 293.508 712.392 294.094C710.911 294.771 709.297 295.109 707.668 295.082H703.707V304.47H697.766V279.181H707.698ZM718.779 279.172V284.835H725.849V304.461H731.8V284.835H738.86V279.172H718.779ZM613.865 315.727H607.656V310.064H626.025V315.727H619.816V329.691H626.025V335.353H607.656V329.691H613.865V315.727ZM643.374 320.282L643.76 330.708H643.126L638.977 310.074H629.788V335.353H634.888V325.144L634.511 314.718H635.145L639.294 335.353H648.473V310.074H643.374V320.282ZM663.376 315.08C662.949 314.91 662.49 314.831 662.03 314.847C661.357 314.829 660.694 315.003 660.119 315.35C659.543 315.697 659.079 316.201 658.782 316.803C657.943 318.662 657.569 320.697 657.693 322.733C657.686 325.605 658.046 327.7 658.772 329.018C659.09 329.647 659.586 330.17 660.198 330.521C660.811 330.873 661.513 331.037 662.218 330.994C662.874 331.016 663.522 330.846 664.083 330.506C664.644 330.165 665.094 329.669 665.377 329.077C665.688 328.434 665.844 327.726 665.832 327.012H661.426V321.823H671.031V335.293H665.832V333.178H664.535C664.274 334.012 663.709 334.718 662.951 335.155C662.072 335.645 661.076 335.888 660.069 335.856C658.832 335.895 657.608 335.599 656.526 335.001C655.444 334.402 654.543 333.524 653.92 332.457C652.487 330.191 651.771 326.929 651.771 322.673C651.771 318.338 652.642 315.044 654.385 312.791C656.128 310.538 658.676 309.411 662.03 309.411C663.724 309.367 665.403 309.747 666.911 310.518C668.278 311.247 669.4 312.361 670.139 313.72C670.968 315.288 671.422 317.027 671.466 318.799H665.891C665.727 317.7 665.249 316.671 664.515 315.835C664.192 315.507 663.804 315.251 663.376 315.08ZM675.215 330.52H680.014V335.309H675.215V330.52ZM719.792 329.803H717.13V326.622H722.978V334.89H719.832V333.596H719.046C718.874 334.112 718.513 334.543 718.037 334.799C717.502 335.091 716.9 335.236 716.293 335.217C715.549 335.245 714.811 335.071 714.156 334.712C713.501 334.353 712.954 333.823 712.572 333.177C711.598 331.339 711.147 329.264 711.271 327.183C711.115 325.023 711.672 322.871 712.854 321.065C713.408 320.375 714.117 319.83 714.922 319.475C715.728 319.12 716.606 318.966 717.483 319.026C718.509 318.997 719.526 319.232 720.437 319.709C721.26 320.162 721.934 320.85 722.373 321.687C722.873 322.648 723.148 323.712 723.18 324.797H719.872C719.773 324.114 719.483 323.473 719.035 322.951C718.84 322.752 718.605 322.595 718.346 322.492C718.088 322.388 717.811 322.34 717.533 322.35C717.118 322.328 716.706 322.429 716.348 322.641C715.99 322.853 715.701 323.167 715.516 323.543C715.007 324.684 714.782 325.933 714.861 327.183C714.783 328.498 715.007 329.813 715.516 331.026C715.708 331.414 716.008 331.736 716.379 331.953C716.75 332.171 717.176 332.274 717.604 332.25C718.009 332.261 718.409 332.151 718.753 331.934C719.08 331.723 719.345 331.427 719.519 331.077C719.707 330.68 719.801 330.243 719.792 329.803ZM690.044 319.026C689.171 318.97 688.297 319.125 687.495 319.48C686.694 319.835 685.987 320.378 685.436 321.065C684.254 322.871 683.697 325.023 683.853 327.182C683.707 329.326 684.263 331.457 685.436 333.249C685.987 333.936 686.694 334.479 687.495 334.834C688.297 335.189 689.171 335.344 690.044 335.288C690.918 335.345 691.792 335.19 692.594 334.835C693.396 334.48 694.102 333.936 694.653 333.249C695.825 331.457 696.381 329.326 696.236 327.182C696.391 325.023 695.834 322.871 694.653 321.065C694.102 320.378 693.396 319.834 692.594 319.479C691.792 319.124 690.918 318.969 690.044 319.026ZM707.106 328.365C707.859 328.016 708.502 327.461 708.962 326.765C709.409 326.052 709.637 325.222 709.617 324.379C709.641 323.459 709.418 322.55 708.972 321.748C708.535 321.014 707.897 320.423 707.136 320.046C706.28 319.622 705.336 319.412 704.383 319.434H698.192V334.921H701.802V328.957H702.568L705.957 334.921H709.99L706.259 328.691C706.55 328.606 706.833 328.497 707.106 328.365Z" fill="black"/>
<path d="M720.25 8.84211V48H729V8.84211V0H720.25H704V8.84211H720.25Z" fill="black"/>
<path d="M8.75 8.84211V48H0V8.84211V0H8.75H25V8.84211H8.75Z" fill="black"/>
<path d="M8.75 327.158V288H0V327.158V336H8.75H25V327.158H8.75Z" fill="black"/>
<path d="M596.79 39V18.06H605.13C607.01 18.06 608.45 18.6 609.45 19.68C610.47 20.74 610.98 22.2 610.98 24.06C610.98 25.92 610.47 27.39 609.45 28.47C608.45 29.53 607.01 30.06 605.13 30.06H599.31V39H596.79ZM599.31 27.84H605.13C606.13 27.84 606.9 27.58 607.44 27.06C608 26.54 608.28 25.8 608.28 24.84V23.28C608.28 22.32 608 21.58 607.44 21.06C606.9 20.54 606.13 20.28 605.13 20.28H599.31V27.84ZM620.277 39.36C619.217 39.36 618.257 39.17 617.397 38.79C616.557 38.41 615.827 37.87 615.207 37.17C614.607 36.45 614.137 35.6 613.797 34.62C613.477 33.62 613.317 32.5 613.317 31.26C613.317 30.04 613.477 28.93 613.797 27.93C614.137 26.93 614.607 26.08 615.207 25.38C615.827 24.66 616.557 24.11 617.397 23.73C618.257 23.35 619.217 23.16 620.277 23.16C621.317 23.16 622.247 23.35 623.067 23.73C623.887 24.11 624.587 24.64 625.167 25.32C625.747 25.98 626.187 26.77 626.487 27.69C626.807 28.61 626.967 29.62 626.967 30.72V31.86H615.837V32.58C615.837 33.24 615.937 33.86 616.137 34.44C616.357 35 616.657 35.49 617.037 35.91C617.437 36.33 617.917 36.66 618.477 36.9C619.057 37.14 619.707 37.26 620.427 37.26C621.407 37.26 622.257 37.03 622.977 36.57C623.717 36.11 624.287 35.45 624.687 34.59L626.397 35.82C625.897 36.88 625.117 37.74 624.057 38.4C622.997 39.04 621.737 39.36 620.277 39.36ZM620.277 25.17C619.617 25.17 619.017 25.29 618.477 25.53C617.937 25.75 617.467 26.07 617.067 26.49C616.687 26.91 616.387 27.41 616.167 27.99C615.947 28.55 615.837 29.17 615.837 29.85V30.06H624.387V29.73C624.387 28.35 624.007 27.25 623.247 26.43C622.507 25.59 621.517 25.17 620.277 25.17ZM643.702 39H631.222V23.52H633.622V36.9H640.912V23.52H643.312V36.9H645.892V43.2H643.702V39ZM655.331 39.36C654.271 39.36 653.311 39.17 652.451 38.79C651.611 38.41 650.881 37.87 650.261 37.17C649.661 36.45 649.191 35.6 648.851 34.62C648.531 33.62 648.371 32.5 648.371 31.26C648.371 30.04 648.531 28.93 648.851 27.93C649.191 26.93 649.661 26.08 650.261 25.38C650.881 24.66 651.611 24.11 652.451 23.73C653.311 23.35 654.271 23.16 655.331 23.16C656.371 23.16 657.301 23.35 658.121 23.73C658.941 24.11 659.641 24.64 660.221 25.32C660.801 25.98 661.241 26.77 661.541 27.69C661.861 28.61 662.021 29.62 662.021 30.72V31.86H650.891V32.58C650.891 33.24 650.991 33.86 651.191 34.44C651.411 35 651.711 35.49 652.091 35.91C652.491 36.33 652.971 36.66 653.531 36.9C654.111 37.14 654.761 37.26 655.481 37.26C656.461 37.26 657.311 37.03 658.031 36.57C658.771 36.11 659.341 35.45 659.741 34.59L661.451 35.82C660.951 36.88 660.171 37.74 659.111 38.4C658.051 39.04 656.791 39.36 655.331 39.36ZM655.331 25.17C654.671 25.17 654.071 25.29 653.531 25.53C652.991 25.75 652.521 26.07 652.121 26.49C651.741 26.91 651.441 27.41 651.221 27.99C651.001 28.55 650.891 29.17 650.891 29.85V30.06H659.441V29.73C659.441 28.35 659.061 27.25 658.301 26.43C657.561 25.59 656.571 25.17 655.331 25.17ZM666.275 23.52H678.365V39H675.965V25.62H668.675V39H666.275V23.52ZM687.103 25.62H681.823V23.52H694.783V25.62H689.503V39H687.103V25.62ZM596.55 51.52H598.95V54.04H599.07C599.47 53.06 600.05 52.34 600.81 51.88C601.59 51.4 602.52 51.16 603.6 51.16C604.56 51.16 605.43 51.35 606.21 51.73C606.99 52.11 607.65 52.65 608.19 53.35C608.75 54.05 609.17 54.9 609.45 55.9C609.75 56.9 609.9 58.02 609.9 59.26C609.9 60.5 609.75 61.62 609.45 62.62C609.17 63.62 608.75 64.47 608.19 65.17C607.65 65.87 606.99 66.41 606.21 66.79C605.43 67.17 604.56 67.36 603.6 67.36C601.5 67.36 599.99 66.4 599.07 64.48H598.95V73H596.55V51.52ZM602.94 65.2C604.3 65.2 605.37 64.78 606.15 63.94C606.93 63.08 607.32 61.96 607.32 60.58V57.94C607.32 56.56 606.93 55.45 606.15 54.61C605.37 53.75 604.3 53.32 602.94 53.32C602.4 53.32 601.88 53.4 601.38 53.56C600.9 53.7 600.48 53.9 600.12 54.16C599.76 54.42 599.47 54.74 599.25 55.12C599.05 55.48 598.95 55.87 598.95 56.29V62.05C598.95 62.55 599.05 63 599.25 63.4C599.47 63.78 599.76 64.11 600.12 64.39C600.48 64.65 600.9 64.85 601.38 64.99C601.88 65.13 602.4 65.2 602.94 65.2ZM620.072 67.36C619.012 67.36 618.052 67.17 617.192 66.79C616.352 66.41 615.622 65.87 615.002 65.17C614.402 64.45 613.932 63.6 613.592 62.62C613.272 61.62 613.112 60.5 613.112 59.26C613.112 58.04 613.272 56.93 613.592 55.93C613.932 54.93 614.402 54.08 615.002 53.38C615.622 52.66 616.352 52.11 617.192 51.73C618.052 51.35 619.012 51.16 620.072 51.16C621.112 51.16 622.042 51.35 622.862 51.73C623.682 52.11 624.382 52.64 624.962 53.32C625.542 53.98 625.982 54.77 626.282 55.69C626.602 56.61 626.762 57.62 626.762 58.72V59.86H615.632V60.58C615.632 61.24 615.732 61.86 615.932 62.44C616.152 63 616.452 63.49 616.832 63.91C617.232 64.33 617.712 64.66 618.272 64.9C618.852 65.14 619.502 65.26 620.222 65.26C621.202 65.26 622.052 65.03 622.772 64.57C623.512 64.11 624.082 63.45 624.482 62.59L626.192 63.82C625.692 64.88 624.912 65.74 623.852 66.4C622.792 67.04 621.532 67.36 620.072 67.36ZM620.072 53.17C619.412 53.17 618.812 53.29 618.272 53.53C617.732 53.75 617.262 54.07 616.862 54.49C616.482 54.91 616.182 55.41 615.962 55.99C615.742 56.55 615.632 57.17 615.632 57.85V58.06H624.182V57.73C624.182 56.35 623.802 55.25 623.042 54.43C622.302 53.59 621.312 53.17 620.072 53.17ZM628.707 64.9H630.477C631.097 63.9 631.597 62.65 631.977 61.15C632.357 59.65 632.547 57.93 632.547 55.99V51.52H643.017V64.9H645.597V71.2H643.407V67H630.897V71.2H628.707V64.9ZM640.617 64.9V53.62H634.827V56.11C634.827 58.17 634.647 59.93 634.287 61.39C633.947 62.83 633.537 64 633.057 64.9H640.617ZM660.468 67C659.568 67 658.918 66.76 658.518 66.28C658.138 65.8 657.898 65.2 657.798 64.48H657.648C657.308 65.44 656.748 66.16 655.968 66.64C655.188 67.12 654.258 67.36 653.178 67.36C651.538 67.36 650.258 66.94 649.338 66.1C648.438 65.26 647.988 64.12 647.988 62.68C647.988 61.22 648.518 60.1 649.578 59.32C650.658 58.54 652.328 58.15 654.588 58.15H657.648V56.62C657.648 55.52 657.348 54.68 656.748 54.1C656.148 53.52 655.228 53.23 653.988 53.23C653.048 53.23 652.258 53.44 651.618 53.86C650.998 54.28 650.478 54.84 650.058 55.54L648.618 54.19C649.038 53.35 649.708 52.64 650.628 52.06C651.548 51.46 652.708 51.16 654.108 51.16C655.988 51.16 657.448 51.62 658.488 52.54C659.528 53.46 660.048 54.74 660.048 56.38V64.9H661.818V67H660.468ZM653.568 65.32C654.168 65.32 654.718 65.25 655.218 65.11C655.718 64.97 656.148 64.77 656.508 64.51C656.868 64.25 657.148 63.95 657.348 63.61C657.548 63.27 657.648 62.9 657.648 62.5V59.95H654.468C653.088 59.95 652.078 60.15 651.438 60.55C650.818 60.95 650.508 61.53 650.508 62.29V62.92C650.508 63.68 650.778 64.27 651.318 64.69C651.878 65.11 652.628 65.32 653.568 65.32ZM665.543 51.52H667.943V58H671.033L674.033 53.26C674.253 52.9 674.463 52.61 674.663 52.39C674.863 52.15 675.063 51.97 675.263 51.85C675.463 51.73 675.673 51.65 675.893 51.61C676.113 51.55 676.363 51.52 676.643 51.52H678.053V53.62H676.193L673.763 57.46C673.603 57.72 673.463 57.93 673.343 58.09C673.223 58.25 673.103 58.39 672.983 58.51C672.863 58.61 672.733 58.7 672.593 58.78C672.453 58.84 672.283 58.9 672.083 58.96V59.08C672.503 59.14 672.863 59.28 673.163 59.5C673.483 59.7 673.813 60.1 674.153 60.7L676.523 64.9H678.293V67H676.553C676.033 67 675.553 66.87 675.113 66.61C674.693 66.33 674.283 65.83 673.883 65.11L671.033 60.04H667.943V67H665.543V51.52ZM680.568 59.17V56.59H688.398V59.17H680.568ZM599.88 81.62H594.6V79.52H607.56V81.62H602.28V95H599.88V81.62ZM616.47 95.36C615.43 95.36 614.48 95.17 613.62 94.79C612.76 94.41 612.02 93.87 611.4 93.17C610.8 92.45 610.33 91.6 609.99 90.62C609.65 89.62 609.48 88.5 609.48 87.26C609.48 86.04 609.65 84.93 609.99 83.93C610.33 82.93 610.8 82.08 611.4 81.38C612.02 80.66 612.76 80.11 613.62 79.73C614.48 79.35 615.43 79.16 616.47 79.16C617.51 79.16 618.45 79.35 619.29 79.73C620.15 80.11 620.89 80.66 621.51 81.38C622.13 82.08 622.61 82.93 622.95 83.93C623.29 84.93 623.46 86.04 623.46 87.26C623.46 88.5 623.29 89.62 622.95 90.62C622.61 91.6 622.13 92.45 621.51 93.17C620.89 93.87 620.15 94.41 619.29 94.79C618.45 95.17 617.51 95.36 616.47 95.36ZM616.47 93.23C617.77 93.23 618.83 92.83 619.65 92.03C620.47 91.23 620.88 90.01 620.88 88.37V86.15C620.88 84.51 620.47 83.29 619.65 82.49C618.83 81.69 617.77 81.29 616.47 81.29C615.17 81.29 614.11 81.69 613.29 82.49C612.47 83.29 612.06 84.51 612.06 86.15V88.37C612.06 90.01 612.47 91.23 613.29 92.03C614.11 92.83 615.17 93.23 616.47 93.23ZM627.707 79.52H630.107V82.04H630.227C630.627 81.06 631.207 80.34 631.967 79.88C632.747 79.4 633.677 79.16 634.757 79.16C635.717 79.16 636.587 79.35 637.367 79.73C638.147 80.11 638.807 80.65 639.347 81.35C639.907 82.05 640.327 82.9 640.607 83.9C640.907 84.9 641.057 86.02 641.057 87.26C641.057 88.5 640.907 89.62 640.607 90.62C640.327 91.62 639.907 92.47 639.347 93.17C638.807 93.87 638.147 94.41 637.367 94.79C636.587 95.17 635.717 95.36 634.757 95.36C632.657 95.36 631.147 94.4 630.227 92.48H630.107V101H627.707V79.52ZM634.097 93.2C635.457 93.2 636.527 92.78 637.307 91.94C638.087 91.08 638.477 89.96 638.477 88.58V85.94C638.477 84.56 638.087 83.45 637.307 82.61C636.527 81.75 635.457 81.32 634.097 81.32C633.557 81.32 633.037 81.4 632.537 81.56C632.057 81.7 631.637 81.9 631.277 82.16C630.917 82.42 630.627 82.74 630.407 83.12C630.207 83.48 630.107 83.87 630.107 84.29V90.05C630.107 90.55 630.207 91 630.407 91.4C630.627 91.78 630.917 92.11 631.277 92.39C631.637 92.65 632.057 92.85 632.537 92.99C633.037 93.13 633.557 93.2 634.097 93.2ZM654.803 79.52H657.173L650.243 98.6C650.063 99.06 649.883 99.44 649.703 99.74C649.523 100.06 649.303 100.31 649.043 100.49C648.783 100.67 648.453 100.8 648.053 100.88C647.673 100.96 647.203 101 646.643 101H645.413V98.9H647.843L649.013 95.6L643.223 79.52H645.623L649.343 90.05L650.063 92.57H650.213L651.053 90.05L654.803 79.52Z" fill="black"/>
<path d="M604.488 131.6H604.408C604.12 131.717 603.763 131.808 603.336 131.872C602.909 131.936 602.445 131.968 601.944 131.968C600.557 131.968 599.539 131.648 598.888 131.008C598.248 130.357 597.928 129.355 597.928 128V124.832H599.272V128C599.272 128.981 599.496 129.691 599.944 130.128C600.403 130.565 601.085 130.784 601.992 130.784C602.525 130.784 603.005 130.752 603.432 130.688C603.859 130.624 604.211 130.533 604.488 130.416V124.832H605.832V136H604.488V131.6ZM614.832 136C614.353 136 614.006 135.872 613.793 135.616C613.59 135.36 613.462 135.04 613.409 134.656H613.329C613.147 135.168 612.848 135.552 612.432 135.808C612.017 136.064 611.521 136.192 610.944 136.192C610.07 136.192 609.387 135.968 608.896 135.52C608.416 135.072 608.176 134.464 608.176 133.696C608.176 132.917 608.459 132.32 609.024 131.904C609.6 131.488 610.491 131.28 611.696 131.28H613.329V130.464C613.329 129.877 613.169 129.429 612.849 129.12C612.529 128.811 612.038 128.656 611.377 128.656C610.875 128.656 610.454 128.768 610.112 128.992C609.782 129.216 609.504 129.515 609.28 129.888L608.512 129.168C608.736 128.72 609.094 128.341 609.584 128.032C610.075 127.712 610.694 127.552 611.441 127.552C612.443 127.552 613.222 127.797 613.777 128.288C614.331 128.779 614.609 129.461 614.609 130.336V134.88H615.552V136H614.832ZM611.152 135.104C611.473 135.104 611.766 135.067 612.033 134.992C612.299 134.917 612.528 134.811 612.72 134.672C612.913 134.533 613.062 134.373 613.168 134.192C613.275 134.011 613.329 133.813 613.329 133.6V132.24H611.633C610.897 132.24 610.358 132.347 610.016 132.56C609.686 132.773 609.52 133.083 609.52 133.488V133.824C609.52 134.229 609.664 134.544 609.952 134.768C610.251 134.992 610.651 135.104 611.152 135.104ZM619.018 128.864H616.202V127.744H623.115V128.864H620.299V136H619.018V128.864ZM625.077 124.832H631.157V126.016H626.421V136H625.077V124.832ZM633.222 124.832H641.334V136H639.99V126.016H634.566V136H633.222V124.832ZM648.235 126.016V136H646.891V126.016H643.339V124.832H651.787V126.016H648.235Z" fill="black"/>
<path d="M46.696 93.768C41.0213 93.768 36.6053 91.848 33.448 88.008C30.2907 84.1253 28.712 78.4293 28.712 70.92C28.712 63.4107 30.2907 57.6507 33.448 53.64C36.6053 49.5867 41.0213 47.56 46.696 47.56C50.4507 47.56 53.5867 48.4133 56.104 50.12C58.664 51.8267 60.648 54.2373 62.056 57.352L57.704 59.976C56.808 57.672 55.4427 55.8373 53.608 54.472C51.7733 53.064 49.4693 52.36 46.696 52.36C44.776 52.36 43.048 52.7227 41.512 53.448C40.0187 54.1733 38.7387 55.2187 37.672 56.584C36.648 57.9067 35.8587 59.5067 35.304 61.384C34.7493 63.2187 34.472 65.288 34.472 67.592V74.248C34.472 78.856 35.5387 82.4613 37.672 85.064C39.8053 87.6667 42.8133 88.968 46.696 88.968C49.5547 88.968 51.944 88.2427 53.864 86.792C55.784 85.2987 57.192 83.336 58.088 80.904L62.376 83.592C60.968 86.7493 58.9413 89.2453 56.296 91.08C53.6507 92.872 50.4507 93.768 46.696 93.768ZM83.31 93.768C81.0913 93.768 79.0647 93.3627 77.23 92.552C75.3953 91.7413 73.8167 90.5893 72.494 89.096C71.214 87.56 70.2113 85.7467 69.486 83.656C68.7607 81.5227 68.398 79.1333 68.398 76.488C68.398 73.8853 68.7607 71.5173 69.486 69.384C70.2113 67.2507 71.214 65.4373 72.494 63.944C73.8167 62.408 75.3953 61.2347 77.23 60.424C79.0647 59.6133 81.0913 59.208 83.31 59.208C85.5287 59.208 87.534 59.6133 89.326 60.424C91.1607 61.2347 92.7393 62.408 94.062 63.944C95.3847 65.4373 96.4087 67.2507 97.134 69.384C97.8593 71.5173 98.222 73.8853 98.222 76.488C98.222 79.1333 97.8593 81.5227 97.134 83.656C96.4087 85.7467 95.3847 87.56 94.062 89.096C92.7393 90.5893 91.1607 91.7413 89.326 92.552C87.534 93.3627 85.5287 93.768 83.31 93.768ZM83.31 89.224C86.0833 89.224 88.3447 88.3707 90.094 86.664C91.8433 84.9573 92.718 82.3547 92.718 78.856V74.12C92.718 70.6213 91.8433 68.0187 90.094 66.312C88.3447 64.6053 86.0833 63.752 83.31 63.752C80.5367 63.752 78.2753 64.6053 76.526 66.312C74.7767 68.0187 73.902 70.6213 73.902 74.12V78.856C73.902 82.3547 74.7767 84.9573 76.526 86.664C78.2753 88.3707 80.5367 89.224 83.31 89.224ZM119.57 93.768C117.266 93.768 115.197 93.3627 113.362 92.552C111.528 91.7413 109.97 90.5893 108.69 89.096C107.453 87.6027 106.493 85.7893 105.81 83.656C105.17 81.5227 104.85 79.1333 104.85 76.488C104.85 73.8427 105.17 71.4533 105.81 69.32C106.493 67.1867 107.453 65.3733 108.69 63.88C109.97 62.3867 111.528 61.2347 113.362 60.424C115.197 59.6133 117.266 59.208 119.57 59.208C122.856 59.208 125.48 59.9333 127.442 61.384C129.448 62.792 130.941 64.648 131.923 66.952L127.635 69.128C127.037 67.4213 126.056 66.0987 124.691 65.16C123.325 64.2213 121.618 63.752 119.57 63.752C118.034 63.752 116.69 64.008 115.538 64.52C114.386 64.9893 113.426 65.672 112.658 66.568C111.89 67.4213 111.314 68.4667 110.93 69.704C110.546 70.8987 110.354 72.2213 110.354 73.672V79.304C110.354 82.2053 111.122 84.5947 112.658 86.472C114.237 88.3067 116.541 89.224 119.57 89.224C123.709 89.224 126.696 87.304 128.531 83.464L132.243 85.96C131.176 88.3493 129.576 90.248 127.442 91.656C125.352 93.064 122.728 93.768 119.57 93.768ZM147.464 64.456H136.2V59.976H163.848V64.456H152.584V93H147.464V64.456ZM194.375 93C192.455 93 191.068 92.488 190.215 91.464C189.404 90.44 188.892 89.16 188.679 87.624H188.359C187.634 89.672 186.439 91.208 184.775 92.232C183.111 93.256 181.127 93.768 178.823 93.768C175.324 93.768 172.594 92.872 170.631 91.08C168.711 89.288 167.751 86.856 167.751 83.784C167.751 80.6693 168.882 78.28 171.143 76.616C173.447 74.952 177.01 74.12 181.831 74.12H188.359V70.856C188.359 68.5093 187.719 66.7173 186.439 65.48C185.159 64.2427 183.196 63.624 180.551 63.624C178.546 63.624 176.86 64.072 175.495 64.968C174.172 65.864 173.063 67.0587 172.167 68.552L169.095 65.672C169.991 63.88 171.42 62.3653 173.383 61.128C175.346 59.848 177.82 59.208 180.807 59.208C184.818 59.208 187.932 60.1893 190.151 62.152C192.37 64.1147 193.479 66.8453 193.479 70.344V88.52H197.255V93H194.375ZM179.655 89.416C180.935 89.416 182.108 89.2667 183.175 88.968C184.242 88.6693 185.159 88.2427 185.927 87.688C186.695 87.1333 187.292 86.4933 187.719 85.768C188.146 85.0427 188.359 84.2533 188.359 83.4V77.96H181.575C178.631 77.96 176.476 78.3867 175.111 79.24C173.788 80.0933 173.127 81.3307 173.127 82.952V84.296C173.127 85.9173 173.703 87.176 174.855 88.072C176.05 88.968 177.65 89.416 179.655 89.416ZM205.202 59.976H221.842C224.53 59.976 226.642 60.744 228.178 62.28C229.714 63.7733 230.482 65.8 230.482 68.36C230.482 72.4987 228.328 74.824 224.018 75.336V75.592C226.578 75.8053 228.477 76.616 229.714 78.024C230.994 79.3893 231.634 81.096 231.634 83.144C231.634 84.4667 231.421 85.7253 230.994 86.92C230.61 88.1147 230.034 89.16 229.266 90.056C228.498 90.952 227.56 91.6773 226.45 92.232C225.341 92.744 224.082 93 222.674 93H205.202V59.976ZM221.138 88.776C222.674 88.776 223.89 88.3707 224.786 87.56C225.682 86.7493 226.13 85.5973 226.13 84.104V82.632C226.13 81.1387 225.682 79.9867 224.786 79.176C223.89 78.3653 222.674 77.96 221.138 77.96H210.322V88.776H221.138ZM220.498 73.8C221.906 73.8 222.994 73.4587 223.762 72.776C224.573 72.0507 224.978 71.0267 224.978 69.704V68.296C224.978 66.9733 224.573 65.9707 223.762 65.288C222.994 64.5627 221.906 64.2 220.498 64.2H210.322V73.8H220.498ZM241.53 59.976H246.522V78.28L246.01 86.216H246.266L250.362 79.176L263.546 59.976H268.282V93H263.29V74.696L263.802 66.76H263.546L259.45 73.8L246.266 93H241.53V59.976ZM286.899 64.456H275.635V59.976H303.283V64.456H292.019V93H286.899V64.456ZM310.622 59.976H315.742V71.944H325.15C328.478 71.944 331.124 72.8827 333.086 74.76C335.049 76.6373 336.03 79.2187 336.03 82.504C336.03 85.832 335.07 88.4133 333.15 90.248C331.23 92.0827 328.585 93 325.214 93H310.622V59.976ZM324.446 88.52C326.366 88.52 327.86 88.1573 328.926 87.432C329.993 86.7067 330.526 85.4907 330.526 83.784V81.096C330.526 79.3893 329.993 78.1947 328.926 77.512C327.86 76.7867 326.366 76.424 324.446 76.424H315.742V88.52H324.446ZM54.44 153C52.52 153 51.1333 152.488 50.28 151.464C49.4693 150.44 48.9573 149.16 48.744 147.624H48.424C47.6987 149.672 46.504 151.208 44.84 152.232C43.176 153.256 41.192 153.768 38.888 153.768C35.3893 153.768 32.6587 152.872 30.696 151.08C28.776 149.288 27.816 146.856 27.816 143.784C27.816 140.669 28.9467 138.28 31.208 136.616C33.512 134.952 37.0747 134.12 41.896 134.12H48.424V130.856C48.424 128.509 47.784 126.717 46.504 125.48C45.224 124.243 43.2613 123.624 40.616 123.624C38.6107 123.624 36.9253 124.072 35.56 124.968C34.2373 125.864 33.128 127.059 32.232 128.552L29.16 125.672C30.056 123.88 31.4853 122.365 33.448 121.128C35.4107 119.848 37.8853 119.208 40.872 119.208C44.8827 119.208 47.9973 120.189 50.216 122.152C52.4347 124.115 53.544 126.845 53.544 130.344V148.52H57.32V153H54.44ZM39.72 149.416C41 149.416 42.1733 149.267 43.24 148.968C44.3067 148.669 45.224 148.243 45.992 147.688C46.76 147.133 47.3573 146.493 47.784 145.768C48.2107 145.043 48.424 144.253 48.424 143.4V137.96H41.64C38.696 137.96 36.5413 138.387 35.176 139.24C33.8533 140.093 33.192 141.331 33.192 142.952V144.296C33.192 145.917 33.768 147.176 34.92 148.072C36.1147 148.968 37.7147 149.416 39.72 149.416ZM65.2675 119.976H70.3875V133.736H86.8995V119.976H92.0195V153H86.8995V138.216H70.3875V153H65.2675V119.976ZM103.532 119.976H108.652V133.736H125.164V119.976H130.285V153H125.164V138.216H108.652V153H103.532V119.976ZM154.277 153.768C152.059 153.768 150.032 153.363 148.197 152.552C146.363 151.741 144.784 150.589 143.461 149.096C142.181 147.56 141.179 145.747 140.453 143.656C139.728 141.523 139.365 139.133 139.365 136.488C139.365 133.885 139.728 131.517 140.453 129.384C141.179 127.251 142.181 125.437 143.461 123.944C144.784 122.408 146.363 121.235 148.197 120.424C150.032 119.613 152.059 119.208 154.277 119.208C156.496 119.208 158.501 119.613 160.293 120.424C162.128 121.235 163.707 122.408 165.029 123.944C166.352 125.437 167.376 127.251 168.101 129.384C168.827 131.517 169.189 133.885 169.189 136.488C169.189 139.133 168.827 141.523 168.101 143.656C167.376 145.747 166.352 147.56 165.029 149.096C163.707 150.589 162.128 151.741 160.293 152.552C158.501 153.363 156.496 153.768 154.277 153.768ZM154.277 149.224C157.051 149.224 159.312 148.371 161.061 146.664C162.811 144.957 163.685 142.355 163.685 138.856V134.12C163.685 130.621 162.811 128.019 161.061 126.312C159.312 124.605 157.051 123.752 154.277 123.752C151.504 123.752 149.243 124.605 147.493 126.312C145.744 128.019 144.869 130.621 144.869 134.12V138.856C144.869 142.355 145.744 144.957 147.493 146.664C149.243 148.371 151.504 149.224 154.277 149.224ZM184.541 124.456H173.277V119.976H200.925V124.456H189.661V153H184.541V124.456ZM231.452 153C229.532 153 228.146 152.488 227.292 151.464C226.482 150.44 225.97 149.16 225.756 147.624H225.436C224.711 149.672 223.516 151.208 221.852 152.232C220.188 153.256 218.204 153.768 215.9 153.768C212.402 153.768 209.671 152.872 207.708 151.08C205.788 149.288 204.828 146.856 204.828 143.784C204.828 140.669 205.959 138.28 208.22 136.616C210.524 134.952 214.087 134.12 218.908 134.12H225.436V130.856C225.436 128.509 224.796 126.717 223.516 125.48C222.236 124.243 220.274 123.624 217.628 123.624C215.623 123.624 213.938 124.072 212.572 124.968C211.25 125.864 210.14 127.059 209.244 128.552L206.172 125.672C207.068 123.88 208.498 122.365 210.46 121.128C212.423 119.848 214.898 119.208 217.884 119.208C221.895 119.208 225.01 120.189 227.228 122.152C229.447 124.115 230.556 126.845 230.556 130.344V148.52H234.332V153H231.452ZM216.732 149.416C218.012 149.416 219.186 149.267 220.252 148.968C221.319 148.669 222.236 148.243 223.004 147.688C223.772 147.133 224.37 146.493 224.796 145.768C225.223 145.043 225.436 144.253 225.436 143.4V137.96H218.652C215.708 137.96 213.554 138.387 212.188 139.24C210.866 140.093 210.204 141.331 210.204 142.952V144.296C210.204 145.917 210.78 147.176 211.932 148.072C213.127 148.968 214.727 149.416 216.732 149.416ZM268.904 153H242.28V119.976H247.4V148.52H262.952V119.976H268.072V148.52H273.576V161.96H268.904V153ZM281.295 119.976H286.287V138.28L285.775 146.216H286.031L290.127 139.176L303.311 119.976H308.047V153H303.055V134.696L303.567 126.76H303.311L299.215 133.8L286.031 153H281.295V119.976ZM346.632 153.768C342.451 153.768 339.059 152.403 336.456 149.672C333.896 146.941 332.467 143.101 332.168 138.152H324.68V153H319.56V119.976H324.68V133.8H332.296C332.723 129.149 334.195 125.565 336.712 123.048C339.272 120.488 342.579 119.208 346.632 119.208C348.808 119.208 350.792 119.613 352.584 120.424C354.376 121.192 355.891 122.323 357.128 123.816C358.408 125.267 359.389 127.059 360.072 129.192C360.755 131.325 361.096 133.757 361.096 136.488C361.096 139.219 360.755 141.651 360.072 143.784C359.389 145.917 358.408 147.731 357.128 149.224C355.891 150.675 354.376 151.805 352.584 152.616C350.792 153.384 348.808 153.768 346.632 153.768ZM346.632 149.224C349.363 149.224 351.539 148.413 353.16 146.792C354.781 145.171 355.592 142.525 355.592 138.856V134.12C355.592 130.451 354.781 127.805 353.16 126.184C351.539 124.563 349.363 123.752 346.632 123.752C343.901 123.752 341.725 124.563 340.104 126.184C338.483 127.805 337.672 130.451 337.672 134.12V138.856C337.672 142.525 338.483 145.171 340.104 146.792C341.725 148.413 343.901 149.224 346.632 149.224ZM30.44 179.976H35.56V193.8H42.152L48.552 183.688C49.0213 182.92 49.4693 182.301 49.896 181.832C50.3227 181.32 50.7493 180.936 51.176 180.68C51.6027 180.424 52.0507 180.253 52.52 180.168C52.9893 180.04 53.5227 179.976 54.12 179.976H57.128V184.456H53.16L47.976 192.648C47.6347 193.203 47.336 193.651 47.08 193.992C46.824 194.333 46.568 194.632 46.312 194.888C46.056 195.101 45.7787 195.293 45.48 195.464C45.1813 195.592 44.8187 195.72 44.392 195.848V196.104C45.288 196.232 46.056 196.531 46.696 197C47.3787 197.427 48.0827 198.28 48.808 199.56L53.864 208.52H57.64V213H53.928C52.8187 213 51.7947 212.723 50.856 212.168C49.96 211.571 49.0853 210.504 48.232 208.968L42.152 198.152H35.56V213H30.44V179.976ZM77.1045 208.52H80.8805C82.2032 206.387 83.2698 203.72 84.0805 200.52C84.8912 197.32 85.2965 193.651 85.2965 189.512V179.976H107.632V208.52H113.137V221.96H108.465V213H81.7765V221.96H77.1045V208.52ZM102.513 208.52V184.456H90.1605V189.768C90.1605 194.163 89.7765 197.917 89.0085 201.032C88.2832 204.104 87.4085 206.6 86.3845 208.52H102.513ZM116.307 208.52H120.659C121.214 207.752 121.704 206.835 122.131 205.768C122.558 204.701 122.92 203.421 123.219 201.928C123.518 200.435 123.752 198.664 123.923 196.616C124.094 194.568 124.179 192.157 124.179 189.384V179.976H146.515V213H141.395V184.456H129.043V189.512C129.043 192.712 128.915 195.507 128.659 197.896C128.446 200.285 128.126 202.333 127.699 204.04C127.315 205.747 126.846 207.155 126.291 208.264C125.736 209.331 125.139 210.184 124.499 210.824C123.688 211.635 122.792 212.211 121.811 212.552C120.83 212.851 119.656 213 118.291 213H116.307V208.52ZM158.062 179.976H163.054V198.28L162.542 206.216H162.798L166.894 199.176L180.078 179.976H184.814V213H179.822V194.696L180.334 186.76H180.078L175.982 193.8L162.798 213H158.062V179.976ZM196.327 179.976H201.447V193.736H217.959V179.976H223.079V213H217.959V198.216H201.447V213H196.327V179.976ZM234.592 179.976H239.712V193.736H256.224V179.976H261.344V213H256.224V198.216H239.712V213H234.592V179.976ZM285.337 213.768C283.119 213.768 281.092 213.363 279.257 212.552C277.423 211.741 275.844 210.589 274.521 209.096C273.241 207.56 272.239 205.747 271.513 203.656C270.788 201.523 270.425 199.133 270.425 196.488C270.425 193.885 270.788 191.517 271.513 189.384C272.239 187.251 273.241 185.437 274.521 183.944C275.844 182.408 277.423 181.235 279.257 180.424C281.092 179.613 283.119 179.208 285.337 179.208C287.556 179.208 289.561 179.613 291.353 180.424C293.188 181.235 294.767 182.408 296.089 183.944C297.412 185.437 298.436 187.251 299.161 189.384C299.887 191.517 300.249 193.885 300.249 196.488C300.249 199.133 299.887 201.523 299.161 203.656C298.436 205.747 297.412 207.56 296.089 209.096C294.767 210.589 293.188 211.741 291.353 212.552C289.561 213.363 287.556 213.768 285.337 213.768ZM285.337 209.224C288.111 209.224 290.372 208.371 292.121 206.664C293.871 204.957 294.745 202.355 294.745 198.856V194.12C294.745 190.621 293.871 188.019 292.121 186.312C290.372 184.605 288.111 183.752 285.337 183.752C282.564 183.752 280.303 184.605 278.553 186.312C276.804 188.019 275.929 190.621 275.929 194.12V198.856C275.929 202.355 276.804 204.957 278.553 206.664C280.303 208.371 282.564 209.224 285.337 209.224ZM309.31 179.976H314.302V198.28L313.79 206.216H314.046L318.142 199.176L331.326 179.976H336.062V213H331.07V194.696L331.582 186.76H331.326L327.23 193.8L314.046 213H309.31V179.976ZM322.814 174.856C320.51 174.856 318.675 174.408 317.31 173.512C315.945 172.573 314.857 171.357 314.046 169.864L312.766 167.432L317.246 165.448L319.486 170.696C319.998 170.824 320.553 170.931 321.15 171.016C321.747 171.059 322.302 171.08 322.814 171.08C323.326 171.08 323.881 171.059 324.478 171.016C325.075 170.931 325.63 170.824 326.142 170.696L328.382 165.448L332.862 167.432L331.582 169.864C330.771 171.357 329.683 172.573 328.318 173.512C326.953 174.408 325.118 174.856 322.814 174.856ZM375.628 213.768C373.324 213.768 371.255 213.363 369.42 212.552C367.585 211.741 366.028 210.589 364.748 209.096C363.511 207.603 362.551 205.789 361.868 203.656C361.228 201.523 360.908 199.133 360.908 196.488C360.908 193.843 361.228 191.453 361.868 189.32C362.551 187.187 363.511 185.373 364.748 183.88C366.028 182.387 367.585 181.235 369.42 180.424C371.255 179.613 373.324 179.208 375.628 179.208C378.913 179.208 381.537 179.933 383.5 181.384C385.505 182.792 386.999 184.648 387.98 186.952L383.692 189.128C383.095 187.421 382.113 186.099 380.748 185.16C379.383 184.221 377.676 183.752 375.628 183.752C374.092 183.752 372.748 184.008 371.596 184.52C370.444 184.989 369.484 185.672 368.716 186.568C367.948 187.421 367.372 188.467 366.988 189.704C366.604 190.899 366.412 192.221 366.412 193.672V199.304C366.412 202.205 367.18 204.595 368.716 206.472C370.295 208.307 372.599 209.224 375.628 209.224C379.767 209.224 382.753 207.304 384.588 203.464L388.3 205.96C387.233 208.349 385.633 210.248 383.5 211.656C381.409 213.064 378.785 213.768 375.628 213.768ZM403.522 184.456H392.258V179.976H419.906V184.456H408.642V213H403.522V184.456ZM450.432 213C448.512 213 447.126 212.488 446.272 211.464C445.462 210.44 444.95 209.16 444.736 207.624H444.416C443.691 209.672 442.496 211.208 440.832 212.232C439.168 213.256 437.184 213.768 434.88 213.768C431.382 213.768 428.651 212.872 426.688 211.08C424.768 209.288 423.808 206.856 423.808 203.784C423.808 200.669 424.939 198.28 427.2 196.616C429.504 194.952 433.067 194.12 437.888 194.12H444.416V190.856C444.416 188.509 443.776 186.717 442.496 185.48C441.216 184.243 439.254 183.624 436.608 183.624C434.603 183.624 432.918 184.072 431.552 184.968C430.23 185.864 429.12 187.059 428.224 188.552L425.152 185.672C426.048 183.88 427.478 182.365 429.44 181.128C431.403 179.848 433.878 179.208 436.864 179.208C440.875 179.208 443.99 180.189 446.208 182.152C448.427 184.115 449.536 186.845 449.536 190.344V208.52H453.312V213H450.432ZM435.712 209.416C436.992 209.416 438.166 209.267 439.232 208.968C440.299 208.669 441.216 208.243 441.984 207.688C442.752 207.133 443.35 206.493 443.776 205.768C444.203 205.043 444.416 204.253 444.416 203.4V197.96H437.632C434.688 197.96 432.534 198.387 431.168 199.24C429.846 200.093 429.184 201.331 429.184 202.952V204.296C429.184 205.917 429.76 207.176 430.912 208.072C432.107 208.968 433.707 209.416 435.712 209.416ZM467.177 184.456H455.913V179.976H483.561V184.456H472.297V213H467.177V184.456ZM490.9 179.976H496.02V191.944H505.428C508.756 191.944 511.401 192.883 513.364 194.76C515.327 196.637 516.308 199.219 516.308 202.504C516.308 205.832 515.348 208.413 513.428 210.248C511.508 212.083 508.863 213 505.492 213H490.9V179.976ZM504.724 208.52C506.644 208.52 508.137 208.157 509.204 207.432C510.271 206.707 510.804 205.491 510.804 203.784V201.096C510.804 199.389 510.271 198.195 509.204 197.512C508.137 196.787 506.644 196.424 504.724 196.424H496.02V208.52H504.724ZM537.206 213.768C534.945 213.768 532.897 213.363 531.062 212.552C529.27 211.741 527.713 210.589 526.39 209.096C525.11 207.56 524.107 205.747 523.382 203.656C522.699 201.523 522.358 199.133 522.358 196.488C522.358 193.885 522.699 191.517 523.382 189.384C524.107 187.251 525.11 185.437 526.39 183.944C527.713 182.408 529.27 181.235 531.062 180.424C532.897 179.613 534.945 179.208 537.206 179.208C539.425 179.208 541.409 179.613 543.158 180.424C544.907 181.235 546.401 182.365 547.638 183.816C548.875 185.224 549.814 186.909 550.454 188.872C551.137 190.835 551.478 192.989 551.478 195.336V197.768H527.734V199.304C527.734 200.712 527.947 202.035 528.374 203.272C528.843 204.467 529.483 205.512 530.294 206.408C531.147 207.304 532.171 208.008 533.366 208.52C534.603 209.032 535.99 209.288 537.526 209.288C539.617 209.288 541.43 208.797 542.966 207.816C544.545 206.835 545.761 205.427 546.614 203.592L550.262 206.216C549.195 208.477 547.531 210.312 545.27 211.72C543.009 213.085 540.321 213.768 537.206 213.768ZM537.206 183.496C535.798 183.496 534.518 183.752 533.366 184.264C532.214 184.733 531.211 185.416 530.358 186.312C529.547 187.208 528.907 188.275 528.438 189.512C527.969 190.707 527.734 192.029 527.734 193.48V193.928H545.974V193.224C545.974 190.28 545.163 187.933 543.542 186.184C541.963 184.392 539.851 183.496 537.206 183.496Z" fill="black"/>
</g>
<defs>
<clipPath id="clip0_205_24">
<rect width="750" height="365" fill="white"/>
</clipPath>
</defs>
</svg>
