<svg xmlns="http://www.w3.org/2000/svg" viewBox="0 0 729.03 351"><defs><style>.cls-1{fill:#2863ce;}.cls-2{fill:#fff;}</style></defs><title>04white</title><g id="Слой_2" data-name="Слой 2"><g id="Слой_1_копия_5" data-name="Слой 1 копия 5"><rect class="cls-1" x="89" y="36" width="640" height="297"/><path class="cls-2" d="M575.64,35.52V11.79h9.45A6.47,6.47,0,0,1,590,13.61a7,7,0,0,1,1.71,5,7,7,0,0,1-1.71,5,6.47,6.47,0,0,1-4.92,1.82H578.5V35.52Zm2.86-12.65h6.59a3.69,3.69,0,0,0,2.64-.88,3.31,3.31,0,0,0,.93-2.52V17.7a3.3,3.3,0,0,0-.93-2.51,3.69,3.69,0,0,0-2.64-.88H578.5Z"/><path class="cls-2" d="M602,35.93a7.89,7.89,0,0,1-3.25-.65,7.05,7.05,0,0,1-2.48-1.85,8.44,8.44,0,0,1-1.6-2.89,12.08,12.08,0,0,1-.56-3.79,12.08,12.08,0,0,1,.56-3.77,8.35,8.35,0,0,1,1.6-2.91,6.93,6.93,0,0,1,2.48-1.85,7.73,7.73,0,0,1,3.25-.65,7.43,7.43,0,0,1,3.16.64A7.12,7.12,0,0,1,607.56,20a7.91,7.91,0,0,1,1.51,2.7,10.58,10.58,0,0,1,.53,3.42V27.4H597v.81a6.15,6.15,0,0,0,.35,2.09,4.92,4.92,0,0,0,1,1.68A4.63,4.63,0,0,0,600,33.11a5.68,5.68,0,0,0,2.2.41,5.37,5.37,0,0,0,2.91-.79A5.23,5.23,0,0,0,607,30.49l1.93,1.4a6.73,6.73,0,0,1-2.65,2.93A8,8,0,0,1,602,35.93Zm0-16.08a5.15,5.15,0,0,0-2,.39,4.61,4.61,0,0,0-1.58,1.09,5.23,5.23,0,0,0-1,1.68,5.74,5.74,0,0,0-.37,2.11v.24h9.69V25a5.33,5.33,0,0,0-1.28-3.73A4.33,4.33,0,0,0,602,19.85Z"/><path class="cls-2" d="M627.84,35.52H613.7V18h2.72V33.11h8.26V18h2.72V33.11h2.93v7.17h-2.49Z"/><path class="cls-2" d="M640.32,35.93a7.92,7.92,0,0,1-3.25-.65,7.05,7.05,0,0,1-2.48-1.85,8.61,8.61,0,0,1-1.6-2.89,12.08,12.08,0,0,1-.56-3.79A12.08,12.08,0,0,1,633,23a8.51,8.51,0,0,1,1.6-2.91,6.93,6.93,0,0,1,2.48-1.85,7.77,7.77,0,0,1,3.25-.65,7.43,7.43,0,0,1,3.16.64A7.12,7.12,0,0,1,645.86,20a7.91,7.91,0,0,1,1.51,2.7,10.58,10.58,0,0,1,.53,3.42V27.4H635.29v.81a6.15,6.15,0,0,0,.35,2.09,4.92,4.92,0,0,0,1,1.68,4.72,4.72,0,0,0,1.63,1.13,5.68,5.68,0,0,0,2.2.41,5.37,5.37,0,0,0,2.91-.79,5.23,5.23,0,0,0,1.92-2.24l1.93,1.4a6.73,6.73,0,0,1-2.65,2.93A8,8,0,0,1,640.32,35.93Zm0-16.08a5.15,5.15,0,0,0-2,.39,4.61,4.61,0,0,0-1.58,1.09,5.23,5.23,0,0,0-1,1.68,5.74,5.74,0,0,0-.37,2.11v.24H645V25a5.33,5.33,0,0,0-1.28-3.73A4.33,4.33,0,0,0,640.32,19.85Z"/><path class="cls-2" d="M652,18h13.7V35.52H663V20.39h-8.26V35.52H652Z"/><path class="cls-2" d="M675.08,20.39h-6V18h14.69v2.41h-6V35.52h-2.72Z"/><path class="cls-2" d="M572.75,61.11h2a15.17,15.17,0,0,0,1.7-4.24A23.89,23.89,0,0,0,577.1,51V46H589V61.11h2.92v7.17h-2.48V63.52H575.23v4.76h-2.48Zm13.5,0V48.39h-6.56V51.2a25.25,25.25,0,0,1-.6,5.93,17,17,0,0,1-1.41,4Z"/><path class="cls-2" d="M595.38,46H598V55.7l-.27,4.22h.14l2.17-3.74,7-10.2h2.51V63.52h-2.65V53.8l.27-4.22h-.13l-2.18,3.74-7,10.2h-2.52Z"/><path class="cls-2" d="M620,63.93a8.58,8.58,0,0,1-4.28-.92,7.15,7.15,0,0,1-2.62-2.62l2-1.63a5,5,0,0,0,1.89,2,5.59,5.59,0,0,0,3,.74,5.28,5.28,0,0,0,3.18-.79,2.41,2.41,0,0,0,1-2v-.41a2.4,2.4,0,0,0-.9-2,4,4,0,0,0-2.54-.7h-3.73V53.32h3.4a4.21,4.21,0,0,0,2.51-.64,2.16,2.16,0,0,0,.89-1.84v-.41a2.11,2.11,0,0,0-.9-1.78,5.17,5.17,0,0,0-3-.67,5.38,5.38,0,0,0-2.86.7,5.19,5.19,0,0,0-1.8,1.89L613.49,49a6.43,6.43,0,0,1,2.39-2.5,8,8,0,0,1,4.2-1,8.29,8.29,0,0,1,5.07,1.26,4.13,4.13,0,0,1,1.63,3.47,3.7,3.7,0,0,1-.87,2.58,4.66,4.66,0,0,1-2.5,1.32v.14a4.42,4.42,0,0,1,2.81,1.34,4,4,0,0,1,.93,2.74,4.82,4.82,0,0,1-1.92,4A8.32,8.32,0,0,1,620,63.93Z"/><path class="cls-2" d="M644.65,63.52a2.64,2.64,0,0,1-2.19-.82,4,4,0,0,1-.83-2h-.17a4.53,4.53,0,0,1-1.91,2.45,5.83,5.83,0,0,1-3.16.82,6.15,6.15,0,0,1-4.33-1.43,5,5,0,0,1-1.55-3.88,4.42,4.42,0,0,1,1.82-3.8q1.81-1.34,5.66-1.33h3.47V51.76a3.8,3.8,0,0,0-1-2.86,4.35,4.35,0,0,0-3.13-1,4.66,4.66,0,0,0-2.67.72,5.91,5.91,0,0,0-1.78,1.9L631.22,49a6.27,6.27,0,0,1,2.28-2.43,7.17,7.17,0,0,1,4-1,7.25,7.25,0,0,1,5,1.56,5.49,5.49,0,0,1,1.77,4.34v9.64h2v2.41Zm-7.82-1.9a6.83,6.83,0,0,0,1.87-.24,4.75,4.75,0,0,0,1.47-.68,3.65,3.65,0,0,0,1-1,2.53,2.53,0,0,0,.34-1.26V55.53h-3.61a6.58,6.58,0,0,0-3.41.68,2.18,2.18,0,0,0-1.07,2v.72a2.37,2.37,0,0,0,.93,2A4,4,0,0,0,636.83,61.62Z"/><path class="cls-2" d="M649.7,46h2.65V55.7l-.27,4.22h.14l2.17-3.74,7-10.2h2.51V63.52h-2.65V53.8l.27-4.22h-.13l-2.18,3.74-7,10.2H649.7Zm7.18-2.72a5.25,5.25,0,0,1-2.93-.73,5.43,5.43,0,0,1-1.73-1.92l-.68-1.3,2.38-1.05,1.19,2.79a7,7,0,0,0,.88.15c.32,0,.61,0,.89,0s.56,0,.88,0a7,7,0,0,0,.88-.15l1.19-2.79,2.38,1.05-.68,1.3a5.33,5.33,0,0,1-1.73,1.92A5.24,5.24,0,0,1,656.88,43.26Z"/><path class="cls-2" d="M668.56,54.65V51.72h8.88v2.93Z"/><path class="cls-2" d="M575.37,74h2.72v7.27h8.77V74h2.72V91.52h-2.72V83.67h-8.77v7.85h-2.72Z"/><path class="cls-2" d="M601.68,91.93a7.84,7.84,0,0,1-3.24-.65A7,7,0,0,1,596,89.43a8.42,8.42,0,0,1-1.59-2.89,12.82,12.82,0,0,1,0-7.56A8.33,8.33,0,0,1,596,76.07a6.88,6.88,0,0,1,2.49-1.85,7.69,7.69,0,0,1,3.24-.65,7.43,7.43,0,0,1,3.16.64A7,7,0,0,1,607.22,76a8.1,8.1,0,0,1,1.52,2.7,10.58,10.58,0,0,1,.52,3.42V83.4H596.65v.81A5.92,5.92,0,0,0,597,86.3,4.63,4.63,0,0,0,598,88a4.54,4.54,0,0,0,1.63,1.13,5.62,5.62,0,0,0,2.19.41,5.37,5.37,0,0,0,2.91-.79,5.1,5.1,0,0,0,1.92-2.24l1.94,1.4A6.76,6.76,0,0,1,606,90.82,8,8,0,0,1,601.68,91.93Zm0-16.08a5.15,5.15,0,0,0-2,.39,4.61,4.61,0,0,0-1.58,1.09A5.23,5.23,0,0,0,597,79a5.74,5.74,0,0,0-.37,2.11v.24h9.69V81a5.33,5.33,0,0,0-1.28-3.73A4.32,4.32,0,0,0,601.68,75.85Z"/><path class="cls-2" d="M613.36,74h2.72V76.8h.14a4.94,4.94,0,0,1,2-2.44,5.93,5.93,0,0,1,3.14-.79,6.53,6.53,0,0,1,3,.65,6.35,6.35,0,0,1,2.26,1.83A8.32,8.32,0,0,1,628,78.94a15.06,15.06,0,0,1,0,7.62,8.41,8.41,0,0,1-1.43,2.89,6.35,6.35,0,0,1-2.26,1.83,6.67,6.67,0,0,1-3,.65,5.31,5.31,0,0,1-5.13-3.23h-.14v9.62h-2.72Zm7.25,15.54a4.66,4.66,0,0,0,3.63-1.46,5.39,5.39,0,0,0,1.33-3.81v-3a5.38,5.38,0,0,0-1.33-3.81A4.66,4.66,0,0,0,620.61,76a5.88,5.88,0,0,0-1.75.26,4.77,4.77,0,0,0-1.45.7,3.44,3.44,0,0,0-1,1.08,2.68,2.68,0,0,0-.36,1.35v6.56a3.16,3.16,0,0,0,.36,1.52,3.5,3.5,0,0,0,1,1.13,4.55,4.55,0,0,0,1.45.7A6.22,6.22,0,0,0,620.61,89.52Z"/><path class="cls-2" d="M643.34,74H646L638.18,95.6a9.58,9.58,0,0,1-.62,1.31,2.5,2.5,0,0,1-.74.83,3.11,3.11,0,0,1-1.11.45,9.1,9.1,0,0,1-1.61.13h-1.4V95.91h2.76l1.32-3.74L630.22,74h2.72l4.22,11.91.81,2.85h.17l1-2.85Z"/><path class="cls-2" d="M48.7,81.77q-8.52,0-13.25-5.79T30.71,58.92q0-11.27,4.74-17.31t13.25-6a16.68,16.68,0,0,1,9.44,2.53,16.59,16.59,0,0,1,5.92,7.2L59.7,47.91a12.34,12.34,0,0,0-4.09-5.53A11.13,11.13,0,0,0,48.7,40.3a11.77,11.77,0,0,0-5.16,1.09A10.7,10.7,0,0,0,39.7,44.5a14.82,14.82,0,0,0-2.4,4.82,22.06,22.06,0,0,0-.83,6.26v6.68q0,6.93,3.2,10.85t9,3.92a11.38,11.38,0,0,0,7.16-2.21A12.76,12.76,0,0,0,60.09,69l4.29,2.69a17.25,17.25,0,0,1-6.08,7.42A16.75,16.75,0,0,1,48.7,81.77Z"/><path class="cls-2" d="M84.16,81.77a14.94,14.94,0,0,1-6.08-1.22,13.06,13.06,0,0,1-4.7-3.49,16.24,16.24,0,0,1-3-5.44,23.8,23.8,0,0,1,0-14.24,16.39,16.39,0,0,1,3-5.47,13.18,13.18,0,0,1,4.7-3.49,14.94,14.94,0,0,1,6.08-1.21,14.66,14.66,0,0,1,6,1.21,13.57,13.57,0,0,1,4.71,3.49A16.27,16.27,0,0,1,98,57.38a23.8,23.8,0,0,1,0,14.24,16.12,16.12,0,0,1-3.07,5.44,13.45,13.45,0,0,1-4.71,3.49A14.66,14.66,0,0,1,84.16,81.77Zm0-4.55A9.3,9.3,0,0,0,91,74.66q2.63-2.55,2.62-7.8V62.12q0-5.25-2.62-7.81a10.27,10.27,0,0,0-13.57,0q-2.62,2.56-2.62,7.81v4.74q0,5.25,2.62,7.8A9.29,9.29,0,0,0,84.16,77.22Z"/><path class="cls-2" d="M116,81.77A16.22,16.22,0,0,1,107.88,80,13.62,13.62,0,0,1,103,75.11L106.79,72a9.62,9.62,0,0,0,3.56,3.81,10.59,10.59,0,0,0,5.6,1.37c2.68,0,4.68-.49,6-1.47A4.53,4.53,0,0,0,123.88,72v-.77a4.51,4.51,0,0,0-1.69-3.81,7.69,7.69,0,0,0-4.77-1.31h-7V61.8h6.4a7.84,7.84,0,0,0,4.73-1.22,4,4,0,0,0,1.67-3.45v-.77a4,4,0,0,0-1.7-3.36q-1.7-1.24-5.66-1.25a10.09,10.09,0,0,0-5.38,1.31,9.82,9.82,0,0,0-3.39,3.56l-3.39-2.88A12.25,12.25,0,0,1,108.17,49a15,15,0,0,1,7.9-1.82q6.47,0,9.54,2.37a7.76,7.76,0,0,1,3.07,6.52A7,7,0,0,1,127.05,61a8.88,8.88,0,0,1-4.7,2.49v.26a8.31,8.31,0,0,1,5.28,2.53,7.55,7.55,0,0,1,1.76,5.15A9,9,0,0,1,125.77,79Q122.16,81.77,116,81.77Z"/><path class="cls-2" d="M133.83,76.46h3.78a28.37,28.37,0,0,0,3.2-8,44.79,44.79,0,0,0,1.22-11V48h22.33V76.46h5.51V90h-4.68V81H138.51v9h-4.68Zm25.41,0V52.52H146.89V57.8A47.9,47.9,0,0,1,145.77,69a32,32,0,0,1-2.66,7.48Z"/><path class="cls-2" d="M201.13,81A5,5,0,0,1,197,79.46a7.66,7.66,0,0,1-1.57-3.84h-.32a8.51,8.51,0,0,1-3.58,4.61,11.07,11.07,0,0,1-5.95,1.54q-5.25,0-8.16-2.69a9.41,9.41,0,0,1-2.92-7.3,8.33,8.33,0,0,1,3.43-7.16q3.42-2.51,10.65-2.5h6.53V58.86a7.14,7.14,0,0,0-1.92-5.38q-1.92-1.86-5.89-1.86a8.85,8.85,0,0,0-5,1.35,11.12,11.12,0,0,0-3.36,3.58l-3.07-2.88a11.65,11.65,0,0,1,4.29-4.57,13.47,13.47,0,0,1,7.42-1.89q6,0,9.34,2.94a10.31,10.31,0,0,1,3.33,8.17V76.46H204V81Zm-14.72-3.58a13,13,0,0,0,3.52-.45,8.73,8.73,0,0,0,2.75-1.28,6.35,6.35,0,0,0,1.79-1.92,4.58,4.58,0,0,0,.64-2.37V66h-6.78q-4.43,0-6.43,1.28a4.12,4.12,0,0,0-2,3.71V72.3a4.47,4.47,0,0,0,1.76,3.77A7.64,7.64,0,0,0,186.41,77.42Z"/><path class="cls-2" d="M217,52.52H205.7V48h27.65v4.54H222.09V81H217Z"/><path class="cls-2" d="M239.26,48h5.12v11.9h9.41a11,11,0,0,1,7.93,2.82,10.26,10.26,0,0,1,2.95,7.77q0,5-2.88,7.77T253.85,81H239.26Zm13.82,28.48a7.85,7.85,0,0,0,4.48-1.09,4,4,0,0,0,1.6-3.63V69.07a3.94,3.94,0,0,0-1.6-3.59,8,8,0,0,0-4.48-1.06h-8.7v12Z"/><path class="cls-2" d="M287.64,48h5.12v5.31H293a9.25,9.25,0,0,1,3.74-4.59,11.17,11.17,0,0,1,5.92-1.49,12.54,12.54,0,0,1,5.57,1.21,12.24,12.24,0,0,1,4.26,3.46,15.91,15.91,0,0,1,2.68,5.44,28.1,28.1,0,0,1,0,14.34,16,16,0,0,1-2.68,5.44,12.22,12.22,0,0,1-4.26,3.45,12.55,12.55,0,0,1-5.57,1.22A10,10,0,0,1,293,75.69h-.26V93.8h-5.12Zm13.63,29.24a8.82,8.82,0,0,0,6.85-2.73,10.19,10.19,0,0,0,2.5-7.17V61.66a10.19,10.19,0,0,0-2.5-7.17,8.79,8.79,0,0,0-6.85-2.74,11.14,11.14,0,0,0-3.29.48,9.56,9.56,0,0,0-2.72,1.32,6.43,6.43,0,0,0-1.83,2,5.16,5.16,0,0,0-.67,2.54V70.47a6,6,0,0,0,.67,2.86,6.32,6.32,0,0,0,1.83,2.12A8.21,8.21,0,0,0,298,76.77,11.83,11.83,0,0,0,301.27,77.22Z"/><path class="cls-2" d="M323.65,48h5.12v11.9h8.77a11,11,0,0,1,7.94,2.82,10.29,10.29,0,0,1,2.94,7.77q0,5-2.88,7.77T337.61,81h-14Zm13.19,28.48a7.87,7.87,0,0,0,4.48-1.09,4.07,4.07,0,0,0,1.6-3.63V69.07a4,4,0,0,0-1.6-3.59,8,8,0,0,0-4.48-1.06h-8.07v12ZM354,48h5.12V81H354Z"/><path class="cls-2" d="M381.94,81.77a16,16,0,0,1-6.2-1.15A11.61,11.61,0,0,1,371.06,77a17.58,17.58,0,0,1-3-6.3A35.81,35.81,0,0,1,367,61.35,68.37,68.37,0,0,1,368,49.19a23.59,23.59,0,0,1,3-8.32A13.25,13.25,0,0,1,376.15,36a20.55,20.55,0,0,1,7.72-2l10.36-.83v5.18l-11,.9a15.33,15.33,0,0,0-4.73,1.09,7.37,7.37,0,0,0-3.17,2.59,13.21,13.21,0,0,0-1.92,4.64,47.33,47.33,0,0,0-1,7.17h.25a11.82,11.82,0,0,1,3.81-5.06A10.44,10.44,0,0,1,382.65,48a14.14,14.14,0,0,1,5.76,1.15,12.51,12.51,0,0,1,4.48,3.29,15.35,15.35,0,0,1,2.91,5.32,22.81,22.81,0,0,1,1.06,7.2,20.49,20.49,0,0,1-1.09,6.84,16.14,16.14,0,0,1-3.07,5.32A13.71,13.71,0,0,1,388,80.55,14.66,14.66,0,0,1,381.94,81.77Zm.26-4.55a10,10,0,0,0,3.65-.64,7.6,7.6,0,0,0,2.88-1.92,9.19,9.19,0,0,0,1.92-3.13,12.25,12.25,0,0,0,.7-4.35v-4q0-5.37-2.62-8a9.56,9.56,0,0,0-7-2.62c-3.07,0-5.37.76-6.88,2.27a8,8,0,0,0-2.27,5.92V66.6q0,5.37,2.62,8A9.52,9.52,0,0,0,382.2,77.22Z"/><path class="cls-2" d="M424,48h5.06l-14.78,40.7a18,18,0,0,1-1.16,2.46,4.66,4.66,0,0,1-1.4,1.57,5.53,5.53,0,0,1-2.08.83,15.55,15.55,0,0,1-3.05.26H404V89.26h5.19l2.49-7L399.34,48h5.12L412.4,70.4l1.53,5.36h.32L416,70.4Z"/><path class="cls-2" d="M27.51,130.46h3.78a28.37,28.37,0,0,0,3.2-8,44.82,44.82,0,0,0,1.21-11V102H58v28.48h5.5V144H58.87v-9H32.18v9H27.51Zm25.41,0V106.52H40.57v5.28A48.44,48.44,0,0,1,39.45,123a32,32,0,0,1-2.66,7.48Z"/><path class="cls-2" d="M67.38,130.46h4.35a13.38,13.38,0,0,0,1.47-2.75,21.71,21.71,0,0,0,1.09-3.83,47.2,47.2,0,0,0,.7-5.3q.26-3.06.26-7.22V102H97.58v33H92.46V106.52H80.11v5q0,4.8-.35,8.37a45.12,45.12,0,0,1-1,6.13,19.39,19.39,0,0,1-1.44,4.18,10,10,0,0,1-1.79,2.59,6.75,6.75,0,0,1-2.69,1.69,11.39,11.39,0,0,1-3.52.48h-2Z"/><path class="cls-2" d="M104.58,130.46h3.65l2.11-4.83a6.48,6.48,0,0,1,1.73-2.51,4.61,4.61,0,0,1,2.3-1.05v-.25a8.78,8.78,0,0,1-8.9-9.6,9.85,9.85,0,0,1,2.89-7.52c1.92-1.82,4.56-2.72,7.93-2.72h14.59v33h-5.12V122.33h-8.57l-3.46,8.13a8.13,8.13,0,0,1-2.53,3.61,5.39,5.39,0,0,1-3.1.93h-3.52ZM125.76,118V106.52h-8.7a7.93,7.93,0,0,0-4.48,1.08,4,4,0,0,0-1.6,3.63v2.1a4,4,0,0,0,1.6,3.6,8.11,8.11,0,0,0,4.48,1Z"/><path class="cls-2" d="M151.94,130.46h3.77a28.07,28.07,0,0,0,3.2-8,44.79,44.79,0,0,0,1.22-11V102h22.34v28.48H188V144H183.3v-9H156.61v9h-4.67Zm25.41,0V106.52H165v5.28A47.9,47.9,0,0,1,163.87,123a32.07,32.07,0,0,1-2.65,7.48Z"/><path class="cls-2" d="M194.05,102h5v18.3l-.51,7.94h.26l4.09-7L216.06,102h4.74v33h-5V116.7l.51-7.94h-.26l-4.09,7L198.79,135h-4.74Z"/><path class="cls-2" d="M239.93,135.77a16.15,16.15,0,0,1-8.06-1.73,13.55,13.55,0,0,1-4.93-4.93l3.84-3.07a9.59,9.59,0,0,0,3.55,3.81,10.59,10.59,0,0,0,5.6,1.37q4,0,6-1.47a4.54,4.54,0,0,0,2-3.77v-.77a4.52,4.52,0,0,0-1.7-3.81,7.67,7.67,0,0,0-4.77-1.31h-7V115.8h6.4a7.87,7.87,0,0,0,4.74-1.22,4,4,0,0,0,1.66-3.45v-.77a4,4,0,0,0-1.69-3.36q-1.69-1.25-5.67-1.25a10.05,10.05,0,0,0-5.37,1.31,9.82,9.82,0,0,0-3.39,3.56l-3.4-2.88a12.33,12.33,0,0,1,4.51-4.71,15.09,15.09,0,0,1,7.91-1.82q6.47,0,9.53,2.37a7.77,7.77,0,0,1,3.08,6.52A7,7,0,0,1,251,115a8.88,8.88,0,0,1-4.71,2.49v.26a8.26,8.26,0,0,1,5.28,2.53,7.55,7.55,0,0,1,1.76,5.15,9,9,0,0,1-3.62,7.58Q246.14,135.77,239.93,135.77Z"/><path class="cls-2" d="M285.84,135a5,5,0,0,1-4.13-1.54,7.57,7.57,0,0,1-1.57-3.84h-.32a8.51,8.51,0,0,1-3.58,4.61,11.1,11.1,0,0,1-5.95,1.54q-5.25,0-8.16-2.69a9.41,9.41,0,0,1-2.92-7.3,8.3,8.3,0,0,1,3.43-7.16q3.42-2.5,10.65-2.5h6.53v-3.26a7.14,7.14,0,0,0-1.92-5.38q-1.92-1.86-5.89-1.86a8.82,8.82,0,0,0-5,1.35,11,11,0,0,0-3.36,3.58l-3.07-2.88a11.58,11.58,0,0,1,4.29-4.57,13.47,13.47,0,0,1,7.42-1.89q6,0,9.34,2.94a10.31,10.31,0,0,1,3.33,8.17v18.14h3.78V135Zm-14.72-3.58a13,13,0,0,0,3.52-.45,8.84,8.84,0,0,0,2.75-1.28,6.48,6.48,0,0,0,1.79-1.92,4.58,4.58,0,0,0,.64-2.37V120H273q-4.43,0-6.43,1.28a4.12,4.12,0,0,0-2,3.71v1.35a4.44,4.44,0,0,0,1.76,3.77A7.64,7.64,0,0,0,271.12,131.42Z"/><path class="cls-2" d="M294.85,102h5v18.3l-.52,7.94h.26l4.1-7L316.87,102h4.74v33h-5V116.7l.51-7.94h-.26l-4.1,7L299.59,135h-4.74Zm13.51-5.12a9.73,9.73,0,0,1-5.51-1.38,10.08,10.08,0,0,1-3.26-3.62l-1.28-2.43,4.48-2L305,92.7a13,13,0,0,0,1.66.28,14.45,14.45,0,0,0,1.67.1A14.29,14.29,0,0,0,310,93a13.2,13.2,0,0,0,1.67-.28l2.24-5.25,4.48,2-1.28,2.43a10,10,0,0,1-3.27,3.62A9.69,9.69,0,0,1,308.36,96.86Z"/><path class="cls-2" d="M331,102h5.12v13.69h16.51V102h5.12v33h-5.12V120.22H336.07V135H331Z"/><path class="cls-2" d="M380,135.77a14.81,14.81,0,0,1-6.11-1.22,13.13,13.13,0,0,1-4.67-3.49,16,16,0,0,1-3-5.44,24.44,24.44,0,0,1,0-14.24,16.16,16.16,0,0,1,3-5.47,13.24,13.24,0,0,1,4.67-3.49,14.81,14.81,0,0,1,6.11-1.21,14,14,0,0,1,6,1.21,13.39,13.39,0,0,1,4.48,3.35,14.92,14.92,0,0,1,2.84,5.07,20,20,0,0,1,1,6.44v2.42H370.52v1.54a11.52,11.52,0,0,0,.67,3.94,9.37,9.37,0,0,0,1.92,3.16,8.91,8.91,0,0,0,3.08,2.12,10.54,10.54,0,0,0,4.12.76,10.09,10.09,0,0,0,5.48-1.47,9.68,9.68,0,0,0,3.61-4.22l3.65,2.64a12.76,12.76,0,0,1-5,5.5A15,15,0,0,1,380,135.77Zm0-30.27a9.74,9.74,0,0,0-3.84.73,8.62,8.62,0,0,0-3,2.06,9.86,9.86,0,0,0-2,3.15,11.13,11.13,0,0,0-.7,4v.44h18.24v-.7a10,10,0,0,0-2.4-7A8.19,8.19,0,0,0,380,105.5Z"/><path class="cls-2" d="M401.49,102h5.12v5.31h.26a9.25,9.25,0,0,1,3.74-4.59,11.17,11.17,0,0,1,5.92-1.49,12.57,12.57,0,0,1,5.57,1.21,12.12,12.12,0,0,1,4.25,3.46,15.75,15.75,0,0,1,2.69,5.44,28.1,28.1,0,0,1,0,14.34,15.84,15.84,0,0,1-2.69,5.44,12.09,12.09,0,0,1-4.25,3.45,12.58,12.58,0,0,1-5.57,1.22,10,10,0,0,1-9.66-6.08h-.26V147.8h-5.12Zm13.63,29.24a8.82,8.82,0,0,0,6.85-2.73,10.23,10.23,0,0,0,2.5-7.17v-5.66a10.23,10.23,0,0,0-2.5-7.17,8.79,8.79,0,0,0-6.85-2.74,11.14,11.14,0,0,0-3.29.48,9.56,9.56,0,0,0-2.72,1.32,6.43,6.43,0,0,0-1.83,2,5.05,5.05,0,0,0-.67,2.54v12.35a5.92,5.92,0,0,0,.67,2.86,6.32,6.32,0,0,0,1.83,2.12,8.21,8.21,0,0,0,2.72,1.32A11.83,11.83,0,0,0,415.12,131.22Z"/><path class="cls-2" d="M436.78,118.3v-5.51h16.7v5.51Z"/><path class="cls-2" d="M44.73,189.77a15.19,15.19,0,0,1-6.21-1.22,12.75,12.75,0,0,1-4.64-3.45A15.45,15.45,0,0,1,31,179.66a26.46,26.46,0,0,1,0-14.34,15.36,15.36,0,0,1,2.88-5.44,12.77,12.77,0,0,1,4.64-3.46,15.19,15.19,0,0,1,6.21-1.21,13.22,13.22,0,0,1,7.9,2.14,13.05,13.05,0,0,1,4.45,5.6l-4.29,2.18a7.81,7.81,0,0,0-2.94-4,8.83,8.83,0,0,0-5.12-1.41,10.21,10.21,0,0,0-4,.74,7.68,7.68,0,0,0-2.88,2,8.52,8.52,0,0,0-1.73,3.13,13.06,13.06,0,0,0-.58,4v5.63a10.71,10.71,0,0,0,2.34,7.14c1.55,1.86,3.85,2.78,6.88,2.78a9.29,9.29,0,0,0,9-5.76L57.4,182a13.18,13.18,0,0,1-4.77,5.7A14,14,0,0,1,44.73,189.77Z"/><path class="cls-2" d="M63.54,156h5.12V169.8h6.59l6.4-10.11A14.69,14.69,0,0,1,83,157.8a5.79,5.79,0,0,1,1.28-1.12,4.34,4.34,0,0,1,1.35-.54,7,7,0,0,1,1.6-.16h3v4.54h-4l-5.19,8.15c-.34.55-.64,1-.89,1.33a6.05,6.05,0,0,1-.77.86,3.55,3.55,0,0,1-.83.58,8.16,8.16,0,0,1-1.09.41v.25a5.71,5.71,0,0,1,2.34.86,7.86,7.86,0,0,1,2.08,2.58l5,8.92h3.78V189H87a5.63,5.63,0,0,1-3-.86A8.59,8.59,0,0,1,81.33,185l-6.08-10.82H68.66V189H63.54Z"/><path class="cls-2" d="M109.53,189.77a14.91,14.91,0,0,1-6.08-1.22,13.06,13.06,0,0,1-4.7-3.49,16.24,16.24,0,0,1-3-5.44,23.8,23.8,0,0,1,0-14.24,16.39,16.39,0,0,1,3-5.47,13.18,13.18,0,0,1,4.7-3.49,14.9,14.9,0,0,1,6.08-1.21,14.66,14.66,0,0,1,6,1.21,13.66,13.66,0,0,1,4.71,3.49,16.27,16.27,0,0,1,3.07,5.47,23.8,23.8,0,0,1,0,14.24,16.12,16.12,0,0,1-3.07,5.44,13.54,13.54,0,0,1-4.71,3.49A14.66,14.66,0,0,1,109.53,189.77Zm0-4.55a9.3,9.3,0,0,0,6.79-2.56q2.63-2.55,2.62-7.8v-4.74q0-5.25-2.62-7.81a10.27,10.27,0,0,0-13.57,0q-2.62,2.56-2.62,7.81v4.74q0,5.25,2.62,7.8A9.29,9.29,0,0,0,109.53,185.22Z"/><path class="cls-2" d="M131.75,156h20.87v4.54H136.87V189h-5.12Z"/><path class="cls-2" d="M170.81,189.77a14.87,14.87,0,0,1-6.08-1.22,13,13,0,0,1-4.71-3.49,16.41,16.41,0,0,1-3-5.44,23.8,23.8,0,0,1,0-14.24,16.56,16.56,0,0,1,3-5.47,13.12,13.12,0,0,1,4.71-3.49,14.87,14.87,0,0,1,6.08-1.21,14.64,14.64,0,0,1,6,1.21,13.48,13.48,0,0,1,4.71,3.49,16.27,16.27,0,0,1,3.07,5.47,23.8,23.8,0,0,1,0,14.24,16.12,16.12,0,0,1-3.07,5.44,13.36,13.36,0,0,1-4.71,3.49A14.65,14.65,0,0,1,170.81,189.77Zm0-4.55a9.29,9.29,0,0,0,6.78-2.56q2.63-2.55,2.62-7.8v-4.74q0-5.25-2.62-7.81a10.27,10.27,0,0,0-13.57,0q-2.62,2.56-2.62,7.81v4.74q0,5.25,2.62,7.8A9.3,9.3,0,0,0,170.81,185.22Z"/><path class="cls-2" d="M209.27,156H216l10,17.15h.25l10-17.15h6.65v33h-5V162.12h-.32l-1.85,3.58-9.67,16.39-9.66-16.39-1.86-3.58h-.32V189h-5Z"/><path class="cls-2" d="M276.66,189a5,5,0,0,1-4.13-1.54,7.57,7.57,0,0,1-1.56-3.84h-.32a8.53,8.53,0,0,1-3.59,4.61,11.07,11.07,0,0,1-5.95,1.54q-5.25,0-8.16-2.69a9.44,9.44,0,0,1-2.91-7.3,8.32,8.32,0,0,1,3.42-7.16q3.42-2.51,10.66-2.5h6.53v-3.26a7.14,7.14,0,0,0-1.92-5.38c-1.28-1.24-3.25-1.86-5.89-1.86a8.86,8.86,0,0,0-5,1.35,11.12,11.12,0,0,0-3.36,3.58l-3.07-2.88a11.73,11.73,0,0,1,4.29-4.57,13.49,13.49,0,0,1,7.42-1.89q6,0,9.35,2.94a10.31,10.31,0,0,1,3.33,8.17v18.14h3.77V189Zm-14.72-3.58a13,13,0,0,0,3.52-.45,8.63,8.63,0,0,0,2.75-1.28,6.52,6.52,0,0,0,1.8-1.92,4.68,4.68,0,0,0,.64-2.37V174h-6.79c-2.94,0-5.09.43-6.43,1.28a4.14,4.14,0,0,0-2,3.71v1.35a4.47,4.47,0,0,0,1.76,3.77A7.68,7.68,0,0,0,261.94,185.42Z"/><path class="cls-2" d="M285.68,156h5.12V169.8h6.59l6.4-10.11a14.69,14.69,0,0,1,1.34-1.89,5.79,5.79,0,0,1,1.28-1.12,4.34,4.34,0,0,1,1.35-.54,7,7,0,0,1,1.6-.16h3v4.54h-4l-5.19,8.15c-.34.55-.64,1-.89,1.33a6.05,6.05,0,0,1-.77.86,3.55,3.55,0,0,1-.83.58,8.16,8.16,0,0,1-1.09.41v.25A5.66,5.66,0,0,1,302,173a7.86,7.86,0,0,1,2.08,2.58l5.05,8.92h3.78V189h-3.71a5.63,5.63,0,0,1-3-.86,8.59,8.59,0,0,1-2.66-3.17l-6.08-10.82H290.8V189h-5.12Z"/><path class="cls-2" d="M331.65,189.77a14.81,14.81,0,0,1-6.11-1.22,13,13,0,0,1-4.67-3.49,15.68,15.68,0,0,1-3-5.44,24.44,24.44,0,0,1,0-14.24,15.83,15.83,0,0,1,3-5.47,13.16,13.16,0,0,1,4.67-3.49,14.81,14.81,0,0,1,6.11-1.21,14,14,0,0,1,6,1.21,13.29,13.29,0,0,1,4.48,3.35,14.78,14.78,0,0,1,2.85,5.07,20,20,0,0,1,1,6.44v2.42H322.18v1.54a11.28,11.28,0,0,0,.67,3.94,9.37,9.37,0,0,0,1.92,3.16,8.87,8.87,0,0,0,3.07,2.12,10.59,10.59,0,0,0,4.13.76,10.06,10.06,0,0,0,5.47-1.47,9.7,9.7,0,0,0,3.62-4.22l3.65,2.64a12.78,12.78,0,0,1-5,5.5A15,15,0,0,1,331.65,189.77Zm0-30.27a9.7,9.7,0,0,0-3.84.73,8.75,8.75,0,0,0-3,2.06,9.84,9.84,0,0,0-1.95,3.15,10.91,10.91,0,0,0-.7,4v.44h18.24v-.7a10,10,0,0,0-2.4-7A8.2,8.2,0,0,0,331.65,159.5Z"/><path class="cls-2" d="M360.55,160.52H349.29V156h27.65v4.54H365.67V189h-5.12Z"/><path class="cls-2" d="M407.5,189a5,5,0,0,1-4.13-1.54,7.66,7.66,0,0,1-1.57-3.84h-.32a8.51,8.51,0,0,1-3.58,4.61,11.07,11.07,0,0,1-5.95,1.54q-5.25,0-8.16-2.69a9.44,9.44,0,0,1-2.91-7.3,8.32,8.32,0,0,1,3.42-7.16q3.42-2.51,10.66-2.5h6.52v-3.26a7.11,7.11,0,0,0-1.92-5.38c-1.27-1.24-3.24-1.86-5.88-1.86a8.86,8.86,0,0,0-5,1.35,11.12,11.12,0,0,0-3.36,3.58l-3.07-2.88a11.73,11.73,0,0,1,4.29-4.57,13.49,13.49,0,0,1,7.42-1.89q6,0,9.35,2.94a10.31,10.31,0,0,1,3.33,8.17v18.14h3.77V189Zm-14.72-3.58a13,13,0,0,0,3.52-.45,8.63,8.63,0,0,0,2.75-1.28,6.52,6.52,0,0,0,1.8-1.92,4.67,4.67,0,0,0,.63-2.37V174H394.7c-2.94,0-5.09.43-6.43,1.28a4.12,4.12,0,0,0-2,3.71v1.35a4.47,4.47,0,0,0,1.76,3.77A7.68,7.68,0,0,0,392.78,185.42Z"/><polygon class="cls-2" points="729 333 576 332.96 576 225 729.03 225 729 333"/><path class="cls-1" d="M593.94,260.3q-5.06,0-7.69-3.42t-2.64-10q0-6.6,2.64-10t7.69-3.43c3.37,0,5.94,1.14,7.69,3.43s2.64,5.61,2.64,10-.88,7.73-2.64,10S597.31,260.3,593.94,260.3Zm0-5.47a3.48,3.48,0,0,0,3.25-2,17.33,17.33,0,0,0,0-12,3.66,3.66,0,0,0-6.49,0,17.33,17.33,0,0,0,0,12A3.47,3.47,0,0,0,593.94,254.83Z"/><path class="cls-1" d="M607.86,259.66V234.07h10a10.54,10.54,0,0,1,4.76,1,7.5,7.5,0,0,1,3.14,2.83,8.23,8.23,0,0,1,1.12,4.35,7.69,7.69,0,0,1-1.12,4.17,7.31,7.31,0,0,1-3.14,2.74,11,11,0,0,1-4.76,1h-4v9.53Zm6-14.94h4a3.4,3.4,0,0,0,2.22-.64,2.24,2.24,0,0,0,.78-1.85,2.27,2.27,0,0,0-.78-1.84,3.34,3.34,0,0,0-2.22-.66h-4Z"/><path class="cls-1" d="M631.14,259.66V234.07h17.27v5.12H637.15v5.28h9.66v5h-9.66v5.08h10.94v5.12Z"/><path class="cls-1" d="M652.44,259.66V234.07h9.27L665.9,255h.64l-.38-10.56V234.07h5.15v25.59H662l-4.19-20.89h-.64l.39,10.56v10.33Z"/><path class="cls-1" d="M585.21,290.92V265.34h10a10.55,10.55,0,0,1,4.77,1,7.61,7.61,0,0,1,3.13,2.83,8.14,8.14,0,0,1,1.12,4.35,7.66,7.66,0,0,1-1.12,4.18,7.32,7.32,0,0,1-3.13,2.73,11,11,0,0,1-4.77,1h-4v9.53Zm6-14.93h4a3.48,3.48,0,0,0,2.23-.64,2.58,2.58,0,0,0,0-3.7,3.43,3.43,0,0,0-2.23-.65h-4Z"/><path class="cls-1" d="M607.54,290.92V265.34h10.33a10,10,0,0,1,4.59,1,7.37,7.37,0,0,1,3,2.85,8.41,8.41,0,0,1,1.09,4.33,7,7,0,0,1-1.11,3.94,7.41,7.41,0,0,1-3.08,2.65,10.3,10.3,0,0,1-4.54,1h-4.32v9.85Zm6-14.84h4.09a3.15,3.15,0,0,0,2.16-.69,2.31,2.31,0,0,0,.78-1.83,2.39,2.39,0,0,0-.78-1.88,3.2,3.2,0,0,0-2.16-.68h-4.09Zm6.94,14.84-6.21-10.81h6.4l6.56,10.81Z"/><path class="cls-1" d="M639.23,291.56q-5.06,0-7.69-3.42t-2.64-10q0-6.58,2.64-10t7.69-3.42q5.06,0,7.69,3.42t2.64,10q0,6.58-2.64,10T639.23,291.56Zm0-5.47a3.48,3.48,0,0,0,3.25-2,17.36,17.36,0,0,0,0-12,3.67,3.67,0,0,0-6.5,0,17.36,17.36,0,0,0,0,12A3.48,3.48,0,0,0,639.23,286.09Z"/><path class="cls-1" d="M652.28,290.92V265.34h7.77l1.63,12.37h.64L664,265.34h7.52v25.58h-5.09v-9.5l.42-10.65h-.64l-1.6,12.16h-5.37l-1.6-12.16H657l.41,10.65v9.5Z"/><path class="cls-1" d="M675.79,290.92V265.34h10a10.54,10.54,0,0,1,4.76,1,7.64,7.64,0,0,1,3.14,2.83,8.23,8.23,0,0,1,1.12,4.35,7.75,7.75,0,0,1-1.12,4.18,7.35,7.35,0,0,1-3.14,2.73,11,11,0,0,1-4.76,1h-4v9.53Zm6-14.93h4a3.45,3.45,0,0,0,2.22-.64,2.58,2.58,0,0,0,0-3.7,3.4,3.4,0,0,0-2.22-.65h-4Z"/><path class="cls-1" d="M704.15,290.92V271.06H697v-5.72H717.3v5.72h-7.13v19.86Z"/><path class="cls-1" d="M584.67,322.19v-5.73h6.27V302.32h-6.27V296.6h18.55v5.72H597v14.14h6.27v5.73Z"/><path class="cls-1" d="M607.15,322.19V296.6h9.28l4.19,20.88h.64l-.39-10.55V296.6H626v25.59h-9.27l-4.19-20.89h-.64l.38,10.56v10.33Z"/><path class="cls-1" d="M637.73,322.73a6.94,6.94,0,0,1-6.21-3.44q-2.17-3.44-2.17-9.9t2.64-10q2.64-3.42,7.72-3.42a10.16,10.16,0,0,1,4.92,1.12,8.09,8.09,0,0,1,3.27,3.24,11.77,11.77,0,0,1,1.34,5.14h-5.63a6,6,0,0,0-1.39-3,3.38,3.38,0,0,0-2.51-1,3.54,3.54,0,0,0-3.28,2,12.71,12.71,0,0,0-1.1,6q0,4.35,1.09,6.37a3.66,3.66,0,0,0,3.48,2,3.42,3.42,0,0,0,3.18-1.93,4.57,4.57,0,0,0,.47-2.1H639.1V308.5h9.69v13.69h-5.24V320h-1.31a3.45,3.45,0,0,1-1.6,2A5.6,5.6,0,0,1,637.73,322.73Z"/><polygon class="cls-2" points="720.31 332.96 711 333 711 342 720 342 720 351 729 351 729.03 341.68 729 333 720.31 332.96"/><rect class="cls-2" y="0.09" width="9.06" height="47.8"/><rect class="cls-2" width="25.21" height="9.06"/><rect class="cls-2" y="276.11" width="9.06" height="47.8"/><rect class="cls-2" y="314.94" width="25.21" height="9.06"/><rect class="cls-2" x="701.94" y="0.09" width="9.06" height="47.8" transform="translate(1412.94 47.98) rotate(180)"/><rect class="cls-2" x="685.79" width="25.21" height="9.06" transform="translate(1396.79 9.06) rotate(180)"/><path class="cls-2" d="M595.83,155.14a8.86,8.86,0,0,1-6.52-2.71.64.64,0,0,0-.65-.2,9.15,9.15,0,0,1-10.49-11.08,1.31,1.31,0,0,0-.28-1.31,9,9,0,0,1,2.63-13.32,17.44,17.44,0,0,1,2.48-1,.61.61,0,0,0,.43-.39,9.28,9.28,0,0,1,15-3.44,1.29,1.29,0,0,0,1.2.39A9.18,9.18,0,0,1,610,129.6a8.81,8.81,0,0,1-.22,3.92.65.65,0,0,0,.15.69,8.61,8.61,0,0,1,1.93,7.36,8.79,8.79,0,0,1-6.6,7.15,1,1,0,0,0-.73.64,9,9,0,0,1-7.56,5.76,3.62,3.62,0,0,1-.57,0Zm-13-27a3.19,3.19,0,0,0-.34.09,6.64,6.64,0,0,0-.79,11.91c2.39,1.4,4.81,2.75,7.22,4.11a.57.57,0,0,0,.48,0c.85-.46,1.68-.95,2.52-1.43a2.89,2.89,0,0,0,.28-.21l-.68-.4-7.87-4.48a1.38,1.38,0,0,1-.8-1.36c0-2.58,0-5.16,0-7.74C582.9,128.46,582.89,128.32,582.88,128.12Zm5.45,10.28c0-.21,0-.36,0-.5,0-3.15,0-6.29,0-9.43a1.29,1.29,0,0,1,.71-1.2l6.65-3.78.71-.41c-.38-.25-.67-.47-1-.64A6.8,6.8,0,0,0,585.29,128c-.09,2.8,0,5.61,0,8.41a.6.6,0,0,0,.24.41c.76.46,1.53.89,2.3,1.32Zm3.26,12.84c.13.12.2.19.28.25a6.82,6.82,0,0,0,10.72-4.24,23.11,23.11,0,0,0,.13-3.53c0-1.9,0-3.79,0-5.68,0-.2,0-.38-.22-.51-.88-.48-1.74-1-2.61-1.48a1.15,1.15,0,0,0-.26-.08c0,.19,0,.33,0,.48,0,3.1,0,6.19,0,9.29a1.45,1.45,0,0,1-.82,1.39l-5.63,3.2Zm6.32-9.87-.47.26c-2.73,1.55-5.46,3.09-8.18,4.66a1.41,1.41,0,0,1-1.54,0c-2.17-1.25-4.36-2.49-6.54-3.73l-.74-.4a4.31,4.31,0,0,0-.08.48,6.46,6.46,0,0,0,.72,3.69,6.86,6.86,0,0,0,9.53,2.73l7-4a.5.5,0,0,0,.3-.5c0-.93,0-1.87,0-2.8A3.15,3.15,0,0,0,597.91,141.37ZM590.08,133l.38-.19,8.33-4.74a1.38,1.38,0,0,1,1.5,0c2.31,1.34,4.64,2.67,7,4,.08.05.18.09.37.18,0-.61.06-1.13,0-1.65a6.79,6.79,0,0,0-9.79-5.51c-2.57,1.33-5.06,2.84-7.57,4.28a.56.56,0,0,0-.21.42c0,.94,0,1.87,0,2.81C590.06,132.67,590.07,132.77,590.08,133Zm15.07,13.27h.19l.39-.16a6.53,6.53,0,0,0,3.83-5.71,6.33,6.33,0,0,0-3.18-6c-2.39-1.47-4.87-2.8-7.3-4.2a.51.51,0,0,0-.59,0L596,131.52a2.79,2.79,0,0,0-.28.19,2.48,2.48,0,0,0,.25.18l8.38,4.81a1.35,1.35,0,0,1,.77,1.27c0,2.61,0,5.21,0,7.82Zm-7.21-9.06c0-.64,0-1.27,0-1.9a.53.53,0,0,0-.31-.53c-1.11-.61-2.22-1.24-3.33-1.88a.53.53,0,0,0-.61,0c-1.12.65-2.25,1.29-3.39,1.93a.44.44,0,0,0-.25.45c0,1.29,0,2.59,0,3.89a.56.56,0,0,0,.23.41c1.14.67,2.29,1.32,3.44,2a.5.5,0,0,0,.55,0c1.14-.66,2.28-1.3,3.41-2a.56.56,0,0,0,.23-.41C598,138.46,597.94,137.81,597.94,137.16Z"/><path class="cls-2" d="M626.25,142.73a6,6,0,0,1-5.23-5.54,5.73,5.73,0,0,1,1.38-4.14,6.2,6.2,0,0,1,3.8-2.13c-.27-.06-.55-.11-.81-.18a5.89,5.89,0,0,1,1.35-11.59c4,0,8,0,12,0a5.9,5.9,0,0,1,1.9,11.46c-.41.13-.83.22-1.34.35a5.94,5.94,0,0,1,4.23,2.53,5.75,5.75,0,0,1,.87,4.78,5.92,5.92,0,0,1-5.62,4.48,6,6,0,0,1-6-5.09v11a5.9,5.9,0,1,1-9-5,7.45,7.45,0,0,1,1.14-.54C625.37,142.94,625.79,142.86,626.25,142.73Zm6.57-6.63a6,6,0,0,1,5.07-5.13h-5.07Z"/></g></g></svg>