<svg xmlns="http://www.w3.org/2000/svg" viewBox="0 0 729.03 351"><defs><style>.cls-1{fill:#f2b800;}.cls-2{fill:#fff;}</style></defs><title>01white</title><g id="Слой_2" data-name="Слой 2"><g id="Слой_1_копия_7" data-name="Слой 1 копия 7"><rect class="cls-1" x="89" y="36" width="640" height="297"/><path class="cls-2" d="M575.64,35.52V11.79h9.45A6.47,6.47,0,0,1,590,13.61a7,7,0,0,1,1.71,5,7,7,0,0,1-1.71,5,6.47,6.47,0,0,1-4.92,1.82H578.5V35.52Zm2.86-12.65h6.59a3.69,3.69,0,0,0,2.64-.88,3.31,3.31,0,0,0,.93-2.52V17.7a3.3,3.3,0,0,0-.93-2.51,3.69,3.69,0,0,0-2.64-.88H578.5Z"/><path class="cls-2" d="M602,35.93a7.89,7.89,0,0,1-3.25-.65,7.05,7.05,0,0,1-2.48-1.85,8.44,8.44,0,0,1-1.6-2.89,12.08,12.08,0,0,1-.56-3.79,12.08,12.08,0,0,1,.56-3.77,8.35,8.35,0,0,1,1.6-2.91,6.93,6.93,0,0,1,2.48-1.85,7.73,7.73,0,0,1,3.25-.65,7.43,7.43,0,0,1,3.16.64A7.12,7.12,0,0,1,607.56,20a7.91,7.91,0,0,1,1.51,2.7,10.58,10.58,0,0,1,.53,3.42V27.4H597v.81a6.15,6.15,0,0,0,.35,2.09,4.92,4.92,0,0,0,1,1.68A4.63,4.63,0,0,0,600,33.11a5.68,5.68,0,0,0,2.2.41,5.37,5.37,0,0,0,2.91-.79A5.23,5.23,0,0,0,607,30.49l1.93,1.4a6.73,6.73,0,0,1-2.65,2.93A8,8,0,0,1,602,35.93Zm0-16.08a5.15,5.15,0,0,0-2,.39,4.61,4.61,0,0,0-1.58,1.09,5.23,5.23,0,0,0-1,1.68,5.74,5.74,0,0,0-.37,2.11v.23h9.69V25a5.33,5.33,0,0,0-1.28-3.73A4.33,4.33,0,0,0,602,19.85Z"/><path class="cls-2" d="M627.84,35.52H613.7V18h2.72V33.11h8.26V18h2.72V33.11h2.93v7.17h-2.49Z"/><path class="cls-2" d="M640.32,35.93a7.92,7.92,0,0,1-3.25-.65,7.05,7.05,0,0,1-2.48-1.85,8.61,8.61,0,0,1-1.6-2.89,12.08,12.08,0,0,1-.56-3.79A12.08,12.08,0,0,1,633,23a8.51,8.51,0,0,1,1.6-2.91,6.93,6.93,0,0,1,2.48-1.85,7.77,7.77,0,0,1,3.25-.65,7.43,7.43,0,0,1,3.16.64A7.12,7.12,0,0,1,645.86,20a7.91,7.91,0,0,1,1.51,2.7,10.58,10.58,0,0,1,.53,3.42V27.4H635.29v.81a6.15,6.15,0,0,0,.35,2.09,4.92,4.92,0,0,0,1,1.68,4.72,4.72,0,0,0,1.63,1.13,5.68,5.68,0,0,0,2.2.41,5.37,5.37,0,0,0,2.91-.79,5.23,5.23,0,0,0,1.92-2.24l1.93,1.4a6.73,6.73,0,0,1-2.65,2.93A8,8,0,0,1,640.32,35.93Zm0-16.08a5.15,5.15,0,0,0-2,.39,4.61,4.61,0,0,0-1.58,1.09,5.23,5.23,0,0,0-1,1.68,5.74,5.74,0,0,0-.37,2.11v.23H645V25a5.33,5.33,0,0,0-1.28-3.73A4.33,4.33,0,0,0,640.32,19.85Z"/><path class="cls-2" d="M652,18h13.7V35.52H663V20.39h-8.26V35.52H652Z"/><path class="cls-2" d="M675.08,20.39h-6V18h14.69v2.41h-6V35.52h-2.72Z"/><path class="cls-2" d="M575.37,46h2.72V48.8h.13a5,5,0,0,1,2-2.44,6,6,0,0,1,3.15-.79,6.56,6.56,0,0,1,3,.65,6.44,6.44,0,0,1,2.26,1.83A8.5,8.5,0,0,1,590,50.94a15.06,15.06,0,0,1,0,7.62,8.59,8.59,0,0,1-1.43,2.89,6.44,6.44,0,0,1-2.26,1.83,6.7,6.7,0,0,1-3,.65,5.33,5.33,0,0,1-5.14-3.23h-.13v9.62h-2.72Zm7.24,15.54a4.68,4.68,0,0,0,3.64-1.46,5.43,5.43,0,0,0,1.32-3.81v-3a5.42,5.42,0,0,0-1.32-3.81A4.68,4.68,0,0,0,582.61,48a6,6,0,0,0-1.75.26,4.77,4.77,0,0,0-1.45.7,3.4,3.4,0,0,0-1,1.08,2.68,2.68,0,0,0-.36,1.35v6.56a3.16,3.16,0,0,0,.36,1.52,3.47,3.47,0,0,0,1,1.13,4.55,4.55,0,0,0,1.45.7A6.32,6.32,0,0,0,582.61,61.52Z"/><path class="cls-2" d="M605.35,46H608L600.18,67.6a9.65,9.65,0,0,1-.61,1.31,2.42,2.42,0,0,1-.75.83,3,3,0,0,1-1.1.45,9.14,9.14,0,0,1-1.62.13h-1.39V67.91h2.75l1.33-3.74L592.23,46H595l4.21,11.91.82,2.85h.17l1-2.85Z"/><path class="cls-2" d="M611.37,46h2.72v7.34h3.51L621,48a6.35,6.35,0,0,1,.71-1,3.05,3.05,0,0,1,.68-.6,2.72,2.72,0,0,1,.71-.29A4.39,4.39,0,0,1,624,46h1.6v2.41h-2.11l-2.75,4.33a8.52,8.52,0,0,1-.48.71,3.77,3.77,0,0,1-.4.46,2.21,2.21,0,0,1-.45.3,3.59,3.59,0,0,1-.57.22v.13A2.93,2.93,0,0,1,620,55a4,4,0,0,1,1.1,1.37l2.69,4.74h2v2.41h-2a2.91,2.91,0,0,1-1.61-.46,4.47,4.47,0,0,1-1.41-1.68l-3.23-5.75h-3.51v7.89h-2.72Z"/><path class="cls-2" d="M636.08,63.93a7.93,7.93,0,0,1-3.23-.65,7,7,0,0,1-2.5-1.85,8.63,8.63,0,0,1-1.61-2.89,12.61,12.61,0,0,1,0-7.56,8.53,8.53,0,0,1,1.61-2.91,6.92,6.92,0,0,1,2.5-1.85,7.77,7.77,0,0,1,3.23-.65,7.61,7.61,0,0,1,3.21.65,7,7,0,0,1,2.5,1.85A8.42,8.42,0,0,1,643.43,51a12.82,12.82,0,0,1,0,7.56,8.51,8.51,0,0,1-1.64,2.89,7.13,7.13,0,0,1-2.5,1.85A7.77,7.77,0,0,1,636.08,63.93Zm0-2.41a5,5,0,0,0,3.61-1.37A5.52,5.52,0,0,0,641.08,56V53.49a5.56,5.56,0,0,0-1.39-4.15,5.46,5.46,0,0,0-7.21,0,5.57,5.57,0,0,0-1.4,4.15V56a5.53,5.53,0,0,0,1.4,4.14A4.93,4.93,0,0,0,636.08,61.52Z"/><path class="cls-2" d="M648.14,46H657a4.6,4.6,0,0,1,3.37,1.2,4.35,4.35,0,0,1,1.22,3.25c0,2.2-1.14,3.43-3.43,3.71v.13a4.45,4.45,0,0,1,3,1.28,3.91,3.91,0,0,1,1,2.73,6.05,6.05,0,0,1-.33,2,4.87,4.87,0,0,1-.93,1.67,4.74,4.74,0,0,1-1.5,1.14,4.62,4.62,0,0,1-2,.42h-9.29Zm8.13,7.34a2.55,2.55,0,0,0,1.75-.56,2,2,0,0,0,.63-1.61V50.4a2.06,2.06,0,0,0-.63-1.62,2.55,2.55,0,0,0-1.75-.56h-5.4v5.1Zm.34,8a2.79,2.79,0,0,0,1.94-.65,2.36,2.36,0,0,0,.71-1.83V58a2.36,2.36,0,0,0-.71-1.83,2.79,2.79,0,0,0-1.94-.65h-5.74v5.75Z"/><path class="cls-2" d="M673.42,63.93a7.93,7.93,0,0,1-3.23-.65,7,7,0,0,1-2.49-1.85,8.47,8.47,0,0,1-1.62-2.89,12.61,12.61,0,0,1,0-7.56,8.38,8.38,0,0,1,1.62-2.91,6.88,6.88,0,0,1,2.49-1.85,7.77,7.77,0,0,1,3.23-.65,7.69,7.69,0,0,1,3.22.65,7.18,7.18,0,0,1,2.5,1.85A8.57,8.57,0,0,1,680.77,51a12.61,12.61,0,0,1,0,7.56,8.66,8.66,0,0,1-1.63,2.89,7.31,7.31,0,0,1-2.5,1.85A7.85,7.85,0,0,1,673.42,63.93Zm0-2.41A4.94,4.94,0,0,0,677,60.15,5.52,5.52,0,0,0,678.42,56V53.49A5.56,5.56,0,0,0,677,49.34a5.46,5.46,0,0,0-7.21,0,5.56,5.56,0,0,0-1.39,4.15V56a5.52,5.52,0,0,0,1.39,4.14A4.93,4.93,0,0,0,673.42,61.52Z"/><path class="cls-2" d="M685.21,54.65V51.72h8.87v2.93Z"/><path class="cls-2" d="M572.75,89.11h2a15.17,15.17,0,0,0,1.7-4.24A23.89,23.89,0,0,0,577.1,79V74H589V89.11h2.92v7.17h-2.48V91.52H575.23v4.76h-2.48Zm13.5,0V76.39h-6.56V79.2a25.25,25.25,0,0,1-.6,5.93,17,17,0,0,1-1.41,4Z"/><path class="cls-2" d="M595.38,74H598V83.7l-.27,4.22h.14l2.17-3.74,7-10.2h2.51V91.52h-2.65V81.8l.27-4.22h-.13l-2.18,3.74-7,10.2h-2.52Z"/><path class="cls-2" d="M619,76.39h-6V74h14.69v2.41h-6V91.52H619Z"/><path class="cls-2" d="M637.53,91.93a7.84,7.84,0,0,1-3.24-.65,7.09,7.09,0,0,1-2.49-1.85,8.42,8.42,0,0,1-1.59-2.89,12.82,12.82,0,0,1,0-7.56,8.33,8.33,0,0,1,1.59-2.91,7,7,0,0,1,2.49-1.85,7.69,7.69,0,0,1,3.24-.65,7.48,7.48,0,0,1,3.17.64A7.12,7.12,0,0,1,643.08,76a8.08,8.08,0,0,1,1.51,2.7,10.58,10.58,0,0,1,.53,3.42V83.4H632.5v.81a5.92,5.92,0,0,0,.36,2.09,4.92,4.92,0,0,0,1,1.68,4.63,4.63,0,0,0,1.63,1.13,5.66,5.66,0,0,0,2.19.41,5.37,5.37,0,0,0,2.91-.79,5.1,5.1,0,0,0,1.92-2.24l1.94,1.4a6.79,6.79,0,0,1-2.65,2.93A8,8,0,0,1,637.53,91.93Zm0-16.08a5.22,5.22,0,0,0-2,.39,4.61,4.61,0,0,0-1.58,1.09,5.21,5.21,0,0,0-1,1.68,5.74,5.74,0,0,0-.38,2.11v.23h9.69V81a5.32,5.32,0,0,0-1.27-3.73A4.34,4.34,0,0,0,637.53,75.85Z"/><path class="cls-2" d="M647.19,89.11h2.31a6.92,6.92,0,0,0,.79-1.46,12.68,12.68,0,0,0,.58-2,27.37,27.37,0,0,0,.37-2.81c.09-1.09.14-2.37.14-3.84V74h11.86V91.52h-2.72V76.39H654v2.68a44.41,44.41,0,0,1-.19,4.45,23.22,23.22,0,0,1-.51,3.25A10.35,10.35,0,0,1,652.5,89a5.54,5.54,0,0,1-1,1.38,3.57,3.57,0,0,1-1.42.9,6.14,6.14,0,0,1-1.87.25h-1.06Z"/><path class="cls-2" d="M682.86,91.93a7.1,7.1,0,0,1-5.4-2.18,9.44,9.44,0,0,1-2.29-6.12h-4v7.89h-2.72V74h2.72v7.34h4a8.93,8.93,0,0,1,2.36-5.73,7.11,7.11,0,0,1,5.26-2,7.79,7.79,0,0,1,3.16.63,6.77,6.77,0,0,1,2.43,1.8A8.13,8.13,0,0,1,690,78.87a13.93,13.93,0,0,1,0,7.75,8.09,8.09,0,0,1-1.54,2.88A6.77,6.77,0,0,1,686,91.3,7.79,7.79,0,0,1,682.86,91.93Zm0-2.41a4.69,4.69,0,0,0,3.46-1.3,5.78,5.78,0,0,0,1.3-4.21V81.49a5.82,5.82,0,0,0-1.3-4.22,5.3,5.3,0,0,0-6.93,0,5.82,5.82,0,0,0-1.3,4.22V84a5.78,5.78,0,0,0,1.3,4.21A4.68,4.68,0,0,0,682.86,89.52Z"/><path class="cls-2" d="M48.7,81.77q-8.52,0-13.25-5.79T30.71,58.92q0-11.27,4.74-17.31t13.25-6a16.68,16.68,0,0,1,9.44,2.53,16.59,16.59,0,0,1,5.92,7.2L59.7,47.91a12.34,12.34,0,0,0-4.09-5.53A11.13,11.13,0,0,0,48.7,40.3a11.77,11.77,0,0,0-5.16,1.09A10.7,10.7,0,0,0,39.7,44.5a14.82,14.82,0,0,0-2.4,4.82,22.06,22.06,0,0,0-.83,6.26v6.68q0,6.93,3.2,10.86t9,3.91a11.38,11.38,0,0,0,7.16-2.21A12.76,12.76,0,0,0,60.09,69l4.29,2.69a17.25,17.25,0,0,1-6.08,7.42A16.75,16.75,0,0,1,48.7,81.77Z"/><path class="cls-2" d="M84.16,81.77a14.94,14.94,0,0,1-6.08-1.22,13.06,13.06,0,0,1-4.7-3.49,16.24,16.24,0,0,1-3-5.44,23.8,23.8,0,0,1,0-14.24,16.39,16.39,0,0,1,3-5.47,13.18,13.18,0,0,1,4.7-3.49,14.94,14.94,0,0,1,6.08-1.21,14.66,14.66,0,0,1,6,1.21,13.57,13.57,0,0,1,4.71,3.49A16.27,16.27,0,0,1,98,57.38a23.8,23.8,0,0,1,0,14.24,16.12,16.12,0,0,1-3.07,5.44,13.45,13.45,0,0,1-4.71,3.49A14.66,14.66,0,0,1,84.16,81.77Zm0-4.55A9.3,9.3,0,0,0,91,74.66c1.75-1.7,2.62-4.31,2.62-7.8V62.12q0-5.25-2.62-7.81a10.27,10.27,0,0,0-13.57,0q-2.62,2.56-2.62,7.81v4.74c0,3.49.87,6.1,2.62,7.8A9.29,9.29,0,0,0,84.16,77.22Z"/><path class="cls-2" d="M119.66,81.77a16.06,16.06,0,0,1-6.21-1.15A11.65,11.65,0,0,1,108.78,77a17.58,17.58,0,0,1-3-6.3,36.27,36.27,0,0,1-1-9.38,69.42,69.42,0,0,1,.92-12.16,23.59,23.59,0,0,1,3-8.32A13.28,13.28,0,0,1,113.87,36a20.55,20.55,0,0,1,7.71-2L132,33.13v5.18l-11,.9a15.33,15.33,0,0,0-4.74,1.09A7.43,7.43,0,0,0,113,42.89a13.21,13.21,0,0,0-1.92,4.64,50,50,0,0,0-1,7.17h.26a11.74,11.74,0,0,1,3.81-5.06A10.39,10.39,0,0,1,120.36,48a14.14,14.14,0,0,1,5.76,1.15,12.63,12.63,0,0,1,4.48,3.29,15.35,15.35,0,0,1,2.91,5.32,22.53,22.53,0,0,1,1.06,7.2,20.24,20.24,0,0,1-1.09,6.84,16,16,0,0,1-3.07,5.32,13.68,13.68,0,0,1-4.7,3.45A14.7,14.7,0,0,1,119.66,81.77Zm.25-4.55a10,10,0,0,0,3.65-.64,7.6,7.6,0,0,0,2.88-1.92,9.19,9.19,0,0,0,1.92-3.13,12.24,12.24,0,0,0,.71-4.35v-4q0-5.37-2.63-8a9.54,9.54,0,0,0-7-2.62q-4.61,0-6.88,2.27a8,8,0,0,0-2.27,5.92V66.6q0,5.37,2.63,8A9.48,9.48,0,0,0,119.91,77.22Z"/><path class="cls-2" d="M141.88,48H147v5.31h.25A9.32,9.32,0,0,1,151,48.7a11.24,11.24,0,0,1,5.92-1.49,12.57,12.57,0,0,1,5.57,1.21,12.12,12.12,0,0,1,4.25,3.46,15.75,15.75,0,0,1,2.69,5.44,28.1,28.1,0,0,1,0,14.34,15.84,15.84,0,0,1-2.69,5.44,12.09,12.09,0,0,1-4.25,3.45,12.58,12.58,0,0,1-5.57,1.22,10,10,0,0,1-9.67-6.08H147V93.8h-5.12Zm13.63,29.24a8.83,8.83,0,0,0,6.85-2.73,10.23,10.23,0,0,0,2.49-7.17V61.66a10.23,10.23,0,0,0-2.49-7.17,8.8,8.8,0,0,0-6.85-2.74,11.26,11.26,0,0,0-3.3.48,9.69,9.69,0,0,0-2.72,1.32,6.52,6.52,0,0,0-1.82,2,5.05,5.05,0,0,0-.67,2.54V70.47a5.92,5.92,0,0,0,.67,2.86,6.54,6.54,0,0,0,1.82,2.13,8.49,8.49,0,0,0,2.72,1.31A12,12,0,0,0,155.51,77.22Z"/><path class="cls-2" d="M202.36,81a5,5,0,0,1-4.13-1.54,7.66,7.66,0,0,1-1.57-3.84h-.32a8.51,8.51,0,0,1-3.58,4.61,11.1,11.1,0,0,1-5.95,1.54q-5.25,0-8.16-2.69a9.41,9.41,0,0,1-2.92-7.3,8.33,8.33,0,0,1,3.43-7.16q3.42-2.51,10.65-2.5h6.53V58.86a7.14,7.14,0,0,0-1.92-5.38q-1.92-1.86-5.89-1.86a8.82,8.82,0,0,0-5,1.35,11.12,11.12,0,0,0-3.36,3.58l-3.07-2.88a11.52,11.52,0,0,1,4.29-4.57,13.47,13.47,0,0,1,7.42-1.89q6,0,9.34,2.94a10.31,10.31,0,0,1,3.33,8.17V76.46h3.78V81Zm-14.72-3.58a13,13,0,0,0,3.52-.45,8.84,8.84,0,0,0,2.75-1.28,6.35,6.35,0,0,0,1.79-1.92,4.58,4.58,0,0,0,.64-2.37V66h-6.78q-4.42,0-6.43,1.28a4.12,4.12,0,0,0-2,3.71V72.3a4.47,4.47,0,0,0,1.76,3.77A7.64,7.64,0,0,0,187.64,77.42Z"/><path class="cls-2" d="M218.2,52.52H206.93V48h27.65v4.54H223.32V81H218.2Z"/><path class="cls-2" d="M240.49,48h5.12v11.9H255A11,11,0,0,1,263,62.71a10.26,10.26,0,0,1,2.95,7.76q0,5-2.88,7.77T255.08,81H240.49Zm13.82,28.48a7.87,7.87,0,0,0,4.48-1.09,4,4,0,0,0,1.6-3.62V69.07a3.94,3.94,0,0,0-1.6-3.59,8,8,0,0,0-4.48-1.06h-8.7v12Z"/><path class="cls-2" d="M283.94,76.46h3.78a28.37,28.37,0,0,0,3.2-8,44.82,44.82,0,0,0,1.21-11V48h22.34V76.46H320V90H315.3V81H288.62v9h-4.68Zm25.41,0V52.52H297V57.8A47.9,47.9,0,0,1,295.88,69a32,32,0,0,1-2.66,7.48Z"/><path class="cls-2" d="M351.24,81a5,5,0,0,1-4.13-1.54,7.57,7.57,0,0,1-1.57-3.84h-.32a8.51,8.51,0,0,1-3.58,4.61,11.1,11.1,0,0,1-5.95,1.54q-5.25,0-8.16-2.69a9.41,9.41,0,0,1-2.92-7.3A8.3,8.3,0,0,1,328,64.62q3.42-2.51,10.65-2.5h6.53V58.86a7.14,7.14,0,0,0-1.92-5.38q-1.92-1.86-5.89-1.86a8.82,8.82,0,0,0-5,1.35A11.12,11.12,0,0,0,329,56.55L326,53.67a11.52,11.52,0,0,1,4.29-4.57,13.47,13.47,0,0,1,7.42-1.89q6,0,9.34,2.94a10.31,10.31,0,0,1,3.33,8.17V76.46h3.78V81Zm-14.72-3.58A13,13,0,0,0,340,77a8.84,8.84,0,0,0,2.75-1.28,6.48,6.48,0,0,0,1.79-1.92,4.58,4.58,0,0,0,.64-2.37V66h-6.78Q334,66,332,67.24A4.12,4.12,0,0,0,330,71V72.3a4.47,4.47,0,0,0,1.76,3.77A7.64,7.64,0,0,0,336.52,77.42Z"/><path class="cls-2" d="M360.25,48h5.13V61.67h16.51V48H387V81h-5.12V66.22H365.38V81h-5.13Z"/><path class="cls-2" d="M396.35,48h5.12V61.67H418V48h5.12V81H418V66.22H401.47V81h-5.12Z"/><path class="cls-2" d="M432.45,48h5.12v11.9h8.76a11,11,0,0,1,7.94,2.83,10.25,10.25,0,0,1,2.94,7.76q0,5-2.88,7.77c-1.91,1.84-4.56,2.76-7.93,2.76H432.45Zm13.18,28.48a7.87,7.87,0,0,0,4.48-1.09,4,4,0,0,0,1.6-3.62V69.07a3.94,3.94,0,0,0-1.6-3.59,8,8,0,0,0-4.48-1.06h-8.06v12ZM462.78,48h5.12V81h-5.12Z"/><path class="cls-2" d="M490.19,81.77a14.81,14.81,0,0,1-6.11-1.22,13.13,13.13,0,0,1-4.67-3.49,16,16,0,0,1-3-5.44,24.67,24.67,0,0,1,0-14.24,16.16,16.16,0,0,1,3-5.47,13.24,13.24,0,0,1,4.67-3.49,14.81,14.81,0,0,1,6.11-1.21,14,14,0,0,1,6,1.21,13.39,13.39,0,0,1,4.48,3.35,14.92,14.92,0,0,1,2.84,5.07,20,20,0,0,1,1,6.44V65.7H480.72v1.54a11.52,11.52,0,0,0,.67,3.94,9.37,9.37,0,0,0,1.92,3.16,8.91,8.91,0,0,0,3.08,2.12,10.54,10.54,0,0,0,4.12.76A10.09,10.09,0,0,0,496,75.75a9.68,9.68,0,0,0,3.61-4.22l3.65,2.64a12.76,12.76,0,0,1-5,5.5A15,15,0,0,1,490.19,81.77Zm0-30.27a9.77,9.77,0,0,0-3.84.73,8.62,8.62,0,0,0-3,2.06,9.66,9.66,0,0,0-1.95,3.15,10.92,10.92,0,0,0-.71,4v.44H499v-.7a10,10,0,0,0-2.4-7A8.19,8.19,0,0,0,490.19,51.5Z"/><path class="cls-2" d="M32.44,102h5v18.3l-.51,7.94h.26l4.09-7L54.46,102h4.73v33h-5V116.7l.51-7.94h-.25l-4.1,7L37.18,135H32.44Z"/><path class="cls-2" d="M85.18,102h16.64a8.6,8.6,0,0,1,6.33,2.27,8.17,8.17,0,0,1,2.31,6.11q0,6.21-6.47,7v.25a8.41,8.41,0,0,1,5.73,2.4,7.39,7.39,0,0,1,1.89,5.15,11.79,11.79,0,0,1-.61,3.78,9.46,9.46,0,0,1-1.76,3.14,8.47,8.47,0,0,1-6.59,2.94H85.18Zm15.29,13.82a4.76,4.76,0,0,0,3.3-1.06,3.84,3.84,0,0,0,1.18-3v-1.4a3.84,3.84,0,0,0-1.18-3,4.76,4.76,0,0,0-3.3-1.06H90.29v9.6Zm.64,15a5.24,5.24,0,0,0,3.65-1.22,4.4,4.4,0,0,0,1.34-3.46v-1.47a4.4,4.4,0,0,0-1.34-3.45,5.24,5.24,0,0,0-3.65-1.22H90.29v10.82Z"/><path class="cls-2" d="M119.43,102h5.12v11.9h8.77a11,11,0,0,1,7.94,2.83,10.25,10.25,0,0,1,2.94,7.76q0,5-2.88,7.77T133.39,135h-14Zm13.19,28.48a7.87,7.87,0,0,0,4.48-1.09,4.06,4.06,0,0,0,1.6-3.62v-2.68a4,4,0,0,0-1.6-3.59,8,8,0,0,0-4.48-1.06h-8.07v12ZM149.77,102h5.12v33h-5.12Z"/><path class="cls-2" d="M164.23,102h16.65a8.61,8.61,0,0,1,6.33,2.27,8.17,8.17,0,0,1,2.3,6.11q0,6.21-6.46,7v.25a8.41,8.41,0,0,1,5.73,2.4,7.39,7.39,0,0,1,1.89,5.15,11.79,11.79,0,0,1-.61,3.78,9.46,9.46,0,0,1-1.76,3.14,8.47,8.47,0,0,1-6.59,2.94H164.23Zm15.3,13.82a4.76,4.76,0,0,0,3.3-1.06,3.84,3.84,0,0,0,1.18-3v-1.4a3.84,3.84,0,0,0-1.18-3,4.76,4.76,0,0,0-3.3-1.06H169.35v9.6Zm.64,15a5.24,5.24,0,0,0,3.65-1.22,4.44,4.44,0,0,0,1.34-3.46v-1.47a4.43,4.43,0,0,0-1.34-3.45,5.24,5.24,0,0,0-3.65-1.22H169.35v10.82Z"/><path class="cls-2" d="M211.27,135.77a14.81,14.81,0,0,1-6.11-1.22,13.16,13.16,0,0,1-4.68-3.49,15.83,15.83,0,0,1-3-5.44,24.44,24.44,0,0,1,0-14.24,16,16,0,0,1,3-5.47,13.28,13.28,0,0,1,4.68-3.49,14.81,14.81,0,0,1,6.11-1.21,14,14,0,0,1,5.95,1.21,13.29,13.29,0,0,1,4.48,3.35,14.78,14.78,0,0,1,2.85,5.07,20,20,0,0,1,1,6.44v2.42H201.8v1.54a11.28,11.28,0,0,0,.67,3.94,9.37,9.37,0,0,0,1.92,3.16,8.78,8.78,0,0,0,3.07,2.12,10.59,10.59,0,0,0,4.13.76,10.06,10.06,0,0,0,5.47-1.47,9.7,9.7,0,0,0,3.62-4.22l3.64,2.64a12.7,12.7,0,0,1-5,5.5A15,15,0,0,1,211.27,135.77Zm0-30.27a9.7,9.7,0,0,0-3.84.73,8.66,8.66,0,0,0-3,2.06,9.84,9.84,0,0,0-1.95,3.15,10.91,10.91,0,0,0-.7,4v.44H220v-.7a10,10,0,0,0-2.4-7A8.2,8.2,0,0,0,211.27,105.5Z"/><path class="cls-2" d="M245.85,135.77a15.19,15.19,0,0,1-6.21-1.22A12.66,12.66,0,0,1,235,131.1a15.45,15.45,0,0,1-2.88-5.44,26.46,26.46,0,0,1,0-14.34,15.36,15.36,0,0,1,2.88-5.44,12.69,12.69,0,0,1,4.64-3.46,15.19,15.19,0,0,1,6.21-1.21A12.29,12.29,0,0,1,258.2,109l-4.29,2.18a7.81,7.81,0,0,0-2.94-4,8.85,8.85,0,0,0-5.12-1.41,10.29,10.29,0,0,0-4,.74,7.84,7.84,0,0,0-2.88,2.05,8.65,8.65,0,0,0-1.72,3.13,13.06,13.06,0,0,0-.58,4v5.63a10.71,10.71,0,0,0,2.34,7.14c1.55,1.86,3.85,2.78,6.88,2.78a9.3,9.3,0,0,0,9-5.76l3.71,2.5a13.18,13.18,0,0,1-4.77,5.7A14,14,0,0,1,245.85,135.77Z"/><path class="cls-2" d="M273.44,106.52H262.17V102h27.65v4.54H278.56V135h-5.12Z"/><path class="cls-2" d="M295.73,102h5v18.3l-.51,7.94h.25l4.1-7L317.74,102h4.74v33h-5V116.7l.51-7.94h-.26l-4.09,7L300.46,135h-4.73Z"/><path class="cls-2" d="M348.46,102h5v18.3l-.52,7.94h.26l4.09-7L370.48,102h4.73v33h-5V116.7l.51-7.94h-.25l-4.1,7L353.2,135h-4.74Z"/><path class="cls-2" d="M381.15,135l12.22-16.64L381.66,102h6l8.39,12.28h.19L405,102h5.69L399,118l11.91,17h-6l-8.58-12.93h-.19L386.84,135Z"/><path class="cls-2" d="M32.44,156H49.08a8.62,8.62,0,0,1,6.34,2.27,8.2,8.2,0,0,1,2.3,6.11q0,6.21-6.46,7v.25A8.39,8.39,0,0,1,57,174a7.39,7.39,0,0,1,1.89,5.15,11.52,11.52,0,0,1-.61,3.78,9.29,9.29,0,0,1-1.76,3.14,8.43,8.43,0,0,1-2.81,2.14,8.67,8.67,0,0,1-3.78.8H32.44Zm15.3,13.82A4.75,4.75,0,0,0,51,168.74a3.85,3.85,0,0,0,1.19-3v-1.4a3.85,3.85,0,0,0-1.19-3,4.75,4.75,0,0,0-3.29-1.06H37.56v9.6Zm.64,15A5.22,5.22,0,0,0,52,183.56a4.41,4.41,0,0,0,1.35-3.46v-1.47A4.4,4.4,0,0,0,52,175.18,5.22,5.22,0,0,0,48.38,174H37.56v10.82Z"/><path class="cls-2" d="M90.36,160.52H79.1V156h27.64v4.54H95.48V189H90.36Z"/><path class="cls-2" d="M137.31,189a5,5,0,0,1-4.13-1.54,7.66,7.66,0,0,1-1.57-3.84h-.32a8.51,8.51,0,0,1-3.58,4.61,11.1,11.1,0,0,1-5.95,1.54q-5.25,0-8.16-2.69a9.41,9.41,0,0,1-2.92-7.3,8.33,8.33,0,0,1,3.43-7.16q3.42-2.51,10.65-2.5h6.53v-3.26a7.14,7.14,0,0,0-1.92-5.38q-1.92-1.86-5.89-1.86a8.82,8.82,0,0,0-5,1.35,11.12,11.12,0,0,0-3.36,3.58L112,161.67a11.52,11.52,0,0,1,4.29-4.57,13.47,13.47,0,0,1,7.42-1.89q6,0,9.34,2.94a10.31,10.31,0,0,1,3.33,8.17v18.14h3.78V189Zm-14.72-3.58a13,13,0,0,0,3.52-.45,8.84,8.84,0,0,0,2.75-1.28,6.35,6.35,0,0,0,1.79-1.92,4.58,4.58,0,0,0,.64-2.37V174h-6.78q-4.42,0-6.43,1.28a4.12,4.12,0,0,0-2,3.71v1.35a4.47,4.47,0,0,0,1.76,3.77A7.64,7.64,0,0,0,122.59,185.42Z"/><path class="cls-2" d="M159,189.77a16.13,16.13,0,0,1-6.21-1.15,11.65,11.65,0,0,1-4.67-3.59,17.41,17.41,0,0,1-3-6.3,35.81,35.81,0,0,1-1.06-9.38,68.37,68.37,0,0,1,.93-12.16,23.59,23.59,0,0,1,3-8.32,13.25,13.25,0,0,1,5.21-4.89,20.55,20.55,0,0,1,7.71-2l10.37-.83v5.18l-11,.9a15.33,15.33,0,0,0-4.73,1.09,7.37,7.37,0,0,0-3.17,2.59,13.21,13.21,0,0,0-1.92,4.64,47.33,47.33,0,0,0-1,7.17h.25a11.74,11.74,0,0,1,3.81-5.06,10.44,10.44,0,0,1,6.18-1.66,14.14,14.14,0,0,1,5.76,1.15,12.63,12.63,0,0,1,4.48,3.29,15.52,15.52,0,0,1,2.91,5.32,22.81,22.81,0,0,1,1.06,7.2,20.49,20.49,0,0,1-1.09,6.84,16,16,0,0,1-3.08,5.32,13.68,13.68,0,0,1-4.7,3.45A14.66,14.66,0,0,1,159,189.77Zm.26-4.55a10,10,0,0,0,3.65-.64,7.6,7.6,0,0,0,2.88-1.92,9.19,9.19,0,0,0,1.92-3.13,12.25,12.25,0,0,0,.7-4.35v-4q0-5.37-2.62-8a9.56,9.56,0,0,0-7-2.62q-4.62,0-6.88,2.27a8,8,0,0,0-2.28,5.92v5.89q0,5.37,2.63,8A9.52,9.52,0,0,0,159.3,185.22Z"/><path class="cls-2" d="M176.87,184.46h4.35a13.38,13.38,0,0,0,1.47-2.75,21.71,21.71,0,0,0,1.09-3.83,47.2,47.2,0,0,0,.7-5.3q.26-3.06.26-7.22V156h22.34v33H202V160.52H189.6v5q0,4.8-.35,8.37a45.12,45.12,0,0,1-1,6.13,19.39,19.39,0,0,1-1.44,4.18,10,10,0,0,1-1.79,2.59,6.75,6.75,0,0,1-2.69,1.69,11.39,11.39,0,0,1-3.52.48h-2Z"/><path class="cls-2" d="M216.42,156h5v18.3l-.51,7.94h.25l4.1-7L238.43,156h4.74v33h-5V170.7l.51-7.94h-.26l-4.09,7L221.15,189h-4.73Z"/><path class="cls-2" d="M279.14,189H252.51V156h5.12v28.48h15.56V156h5.12v28.48h5.5V198h-4.67Z"/><path class="cls-2" d="M310,156h5.06l-14.79,40.7a18,18,0,0,1-1.15,2.46,4.59,4.59,0,0,1-1.41,1.57,5.46,5.46,0,0,1-2.08.83,15.37,15.37,0,0,1-3,.26H290v-4.54h5.18l2.5-7L285.33,156h5.12l7.93,22.42,1.54,5.36h.32L302,178.4Z"/><polygon class="cls-2" points="729 333 576 332.96 576 225 729.03 225 729 333"/><path class="cls-1" d="M593.94,260.3q-5.06,0-7.69-3.42t-2.64-10q0-6.6,2.64-10t7.69-3.43c3.37,0,5.94,1.14,7.69,3.43s2.64,5.61,2.64,10-.88,7.73-2.64,10S597.31,260.3,593.94,260.3Zm0-5.47a3.48,3.48,0,0,0,3.25-2,17.33,17.33,0,0,0,0-12,3.66,3.66,0,0,0-6.49,0,17.33,17.33,0,0,0,0,12A3.47,3.47,0,0,0,593.94,254.83Z"/><path class="cls-1" d="M607.86,259.66V234.07h10a10.54,10.54,0,0,1,4.76,1,7.57,7.57,0,0,1,3.14,2.83,8.23,8.23,0,0,1,1.12,4.35,7.69,7.69,0,0,1-1.12,4.17,7.31,7.31,0,0,1-3.14,2.74,11,11,0,0,1-4.76,1h-4v9.53Zm6-14.94h4a3.4,3.4,0,0,0,2.22-.64,2.24,2.24,0,0,0,.78-1.85,2.27,2.27,0,0,0-.78-1.84,3.34,3.34,0,0,0-2.22-.66h-4Z"/><path class="cls-1" d="M631.14,259.66V234.07h17.27v5.12H637.15v5.28h9.66v5h-9.66v5.08h10.94v5.12Z"/><path class="cls-1" d="M652.44,259.66V234.07h9.27L665.9,255h.64l-.38-10.56V234.07h5.15v25.59H662l-4.19-20.89h-.64l.39,10.56v10.33Z"/><path class="cls-1" d="M585.21,290.92V265.34h10a10.55,10.55,0,0,1,4.77,1,7.61,7.61,0,0,1,3.13,2.83,8.14,8.14,0,0,1,1.12,4.35,7.66,7.66,0,0,1-1.12,4.18,7.32,7.32,0,0,1-3.13,2.73,11,11,0,0,1-4.77,1h-4v9.53Zm6-14.93h4a3.48,3.48,0,0,0,2.23-.64,2.58,2.58,0,0,0,0-3.7,3.43,3.43,0,0,0-2.23-.65h-4Z"/><path class="cls-1" d="M607.54,290.92V265.34h10.33a10,10,0,0,1,4.59,1,7.37,7.37,0,0,1,3,2.85,8.41,8.41,0,0,1,1.09,4.33,7,7,0,0,1-1.11,3.94,7.41,7.41,0,0,1-3.08,2.65,10.3,10.3,0,0,1-4.54,1h-4.32v9.85Zm6-14.84h4.09a3.15,3.15,0,0,0,2.16-.69,2.31,2.31,0,0,0,.78-1.83,2.39,2.39,0,0,0-.78-1.88,3.2,3.2,0,0,0-2.16-.68h-4.09Zm6.94,14.84-6.21-10.81h6.4l6.56,10.81Z"/><path class="cls-1" d="M639.23,291.56q-5.06,0-7.69-3.42t-2.64-10q0-6.58,2.64-10t7.69-3.42q5.06,0,7.69,3.42t2.64,10q0,6.58-2.64,10T639.23,291.56Zm0-5.47a3.48,3.48,0,0,0,3.25-2,17.36,17.36,0,0,0,0-12,3.67,3.67,0,0,0-6.5,0,17.36,17.36,0,0,0,0,12A3.48,3.48,0,0,0,639.23,286.09Z"/><path class="cls-1" d="M652.28,290.92V265.34h7.77l1.63,12.37h.64L664,265.34h7.52v25.58h-5.09v-9.5l.42-10.65h-.64l-1.6,12.16h-5.37l-1.6-12.16H657l.41,10.65v9.5Z"/><path class="cls-1" d="M675.79,290.92V265.34h10a10.54,10.54,0,0,1,4.76,1,7.64,7.64,0,0,1,3.14,2.83,8.23,8.23,0,0,1,1.12,4.35,7.75,7.75,0,0,1-1.12,4.18,7.35,7.35,0,0,1-3.14,2.73,11,11,0,0,1-4.76,1h-4v9.53Zm6-14.93h4a3.45,3.45,0,0,0,2.22-.64,2.58,2.58,0,0,0,0-3.7,3.4,3.4,0,0,0-2.22-.65h-4Z"/><path class="cls-1" d="M704.15,290.92V271.06H697v-5.72H717.3v5.72h-7.13v19.86Z"/><path class="cls-1" d="M584.67,322.19v-5.73h6.27V302.32h-6.27V296.6h18.55v5.72H597v14.14h6.27v5.73Z"/><path class="cls-1" d="M607.15,322.19V296.6h9.28l4.19,20.88h.64l-.39-10.55V296.6H626v25.59h-9.27l-4.19-20.89h-.64l.38,10.55v10.34Z"/><path class="cls-1" d="M637.73,322.73a6.94,6.94,0,0,1-6.21-3.44q-2.17-3.44-2.17-9.9t2.64-10q2.64-3.42,7.72-3.42a10.16,10.16,0,0,1,4.92,1.12,8.06,8.06,0,0,1,3.27,3.25,11.69,11.69,0,0,1,1.34,5.13h-5.63a6,6,0,0,0-1.39-3,3.38,3.38,0,0,0-2.51-1,3.54,3.54,0,0,0-3.28,2,12.71,12.71,0,0,0-1.1,6q0,4.35,1.09,6.37a3.66,3.66,0,0,0,3.48,2,3.42,3.42,0,0,0,3.18-1.93,4.57,4.57,0,0,0,.47-2.1H639.1V308.5h9.69v13.69h-5.24V320h-1.31a3.51,3.51,0,0,1-1.6,2A5.7,5.7,0,0,1,637.73,322.73Z"/><polygon class="cls-2" points="720.31 332.96 711 333 711 342 720 342 720 351 729 351 729.03 341.68 729 333 720.31 332.96"/><rect class="cls-2" y="0.09" width="9.06" height="47.8"/><rect class="cls-2" width="25.21" height="9.06"/><rect class="cls-2" y="276.11" width="9.06" height="47.8"/><rect class="cls-2" y="314.94" width="25.21" height="9.06"/><rect class="cls-2" x="701.94" y="0.09" width="9.06" height="47.8" transform="translate(1412.94 47.98) rotate(180)"/><rect class="cls-2" x="685.79" width="25.21" height="9.06" transform="translate(1396.79 9.06) rotate(180)"/><path class="cls-2" d="M595.83,152.61a8.86,8.86,0,0,1-6.52-2.71.67.67,0,0,0-.65-.21,9.14,9.14,0,0,1-10.49-11.07,1.31,1.31,0,0,0-.28-1.31A9,9,0,0,1,580.52,124a16.35,16.35,0,0,1,2.48-1,.6.6,0,0,0,.43-.4,9.29,9.29,0,0,1,15-3.43,1.29,1.29,0,0,0,1.2.39A9.18,9.18,0,0,1,610,127.06a8.79,8.79,0,0,1-.22,3.92.67.67,0,0,0,.15.7,8.58,8.58,0,0,1,1.93,7.35,8.8,8.8,0,0,1-6.6,7.16,1,1,0,0,0-.73.64,9,9,0,0,1-7.56,5.76,5.43,5.43,0,0,1-.57,0Zm-13-27a3.19,3.19,0,0,0-.34.09,6.64,6.64,0,0,0-.79,11.9c2.39,1.41,4.81,2.76,7.22,4.12a.57.57,0,0,0,.48,0c.85-.46,1.68-.95,2.52-1.43a2.89,2.89,0,0,0,.28-.21l-.68-.4-7.87-4.48a1.38,1.38,0,0,1-.8-1.36c0-2.58,0-5.16,0-7.74C582.9,125.93,582.89,125.78,582.88,125.59Zm5.45,10.27c0-.21,0-.35,0-.5,0-3.14,0-6.28,0-9.42a1.29,1.29,0,0,1,.71-1.2l6.65-3.78.71-.41c-.38-.25-.67-.47-1-.65a6.8,6.8,0,0,0-10.18,5.55c-.09,2.8,0,5.61,0,8.41a.6.6,0,0,0,.24.41c.76.46,1.53.88,2.3,1.32Zm3.26,12.85c.13.12.2.19.28.25a6.82,6.82,0,0,0,10.72-4.25,23,23,0,0,0,.13-3.53c0-1.89,0-3.78,0-5.67,0-.2,0-.38-.22-.51-.88-.49-1.74-1-2.61-1.49a2.3,2.3,0,0,0-.26-.07c0,.18,0,.33,0,.48,0,3.1,0,6.19,0,9.29a1.45,1.45,0,0,1-.82,1.39l-5.63,3.19Zm6.32-9.87c-.19.1-.34.17-.47.25-2.73,1.56-5.46,3.1-8.18,4.66a1.41,1.41,0,0,1-1.54,0c-2.17-1.25-4.36-2.49-6.54-3.73l-.74-.4a4,4,0,0,0-.08.48,6.46,6.46,0,0,0,.72,3.69,6.85,6.85,0,0,0,9.53,2.72l7-4a.5.5,0,0,0,.3-.5c0-.94,0-1.87,0-2.8A3.15,3.15,0,0,0,597.91,138.84Zm-7.83-8.42.38-.19,8.33-4.74a1.36,1.36,0,0,1,1.5,0c2.31,1.34,4.64,2.67,7,4,.08.05.18.08.37.17,0-.6.06-1.12,0-1.64a6.78,6.78,0,0,0-9.79-5.51c-2.57,1.33-5.06,2.84-7.57,4.28a.56.56,0,0,0-.21.42c0,.94,0,1.87,0,2.8C590.06,130.14,590.07,130.24,590.08,130.42Zm15.07,13.27h.19a3.29,3.29,0,0,0,.39-.17,6.51,6.51,0,0,0,3.83-5.7,6.32,6.32,0,0,0-3.18-6c-2.39-1.47-4.87-2.81-7.3-4.21a.53.53,0,0,0-.59,0c-.81.48-1.63,1-2.45,1.42l-.28.18a1.65,1.65,0,0,0,.25.19l8.38,4.81a1.34,1.34,0,0,1,.77,1.27c0,2.61,0,5.21,0,7.82Zm-7.21-9.07c0-.63,0-1.26,0-1.89a.53.53,0,0,0-.31-.53l-3.33-1.88a.53.53,0,0,0-.61,0c-1.12.65-2.25,1.29-3.39,1.93a.42.42,0,0,0-.25.45c0,1.29,0,2.59,0,3.89a.56.56,0,0,0,.23.41c1.14.67,2.29,1.31,3.44,2a.48.48,0,0,0,.55,0c1.14-.66,2.28-1.3,3.41-2a.57.57,0,0,0,.23-.41C598,135.93,597.94,135.28,597.94,134.62Z"/><path class="cls-2" d="M654.57,153H632.41l-.08,0a3,3,0,0,1-2.35-3c0-5.2,0-10.4,0-15.6,0-4.8,0-9.59,0-14.39a2.84,2.84,0,0,1,1.81-2.72,5.13,5.13,0,0,1,.87-.26h16.25a3.36,3.36,0,0,1,.43.31c.43.42.84.85,1.26,1.27l6.16,6.14a.66.66,0,0,1,.22.53q0,3,0,6.08,0,9.38,0,18.73a2.92,2.92,0,0,1-1.21,2.39A3.59,3.59,0,0,1,654.57,153ZM648,118.49H633.07a1.53,1.53,0,0,0-1.61,1.58q0,14.91,0,29.84a1.51,1.51,0,0,0,1.66,1.64H653.9a1.51,1.51,0,0,0,1.62-1.63V126.24c0-.2,0-.25-.25-.25H651a2.94,2.94,0,0,1-3-2.59c-.08-.72,0-1.45,0-2.17Zm6.39,6-4.88-4.88c0,.05,0,.12,0,.18,0,1,0,2.1,0,3.15a1.49,1.49,0,0,0,1.56,1.56c1,0,2.08,0,3.11,0Z"/><path class="cls-2" d="M643.47,145.53h-6.62a.76.76,0,0,1-.86-.86V131.35a.74.74,0,0,1,.82-.82h13.36a.72.72,0,0,1,.79.53,1.09,1.09,0,0,1,0,.26v13.37a.76.76,0,0,1-.84.84ZM646.13,135h3.13c.19,0,.26,0,.26-.24,0-.84,0-1.67,0-2.51,0-.22-.06-.29-.29-.29H643c-.2,0-.24.07-.24.25,0,.84,0,1.68,0,2.53,0,.2,0,.27.26.26Zm-3.38,4.47h6.76c0-.92,0-1.83,0-2.73,0-.21-.06-.27-.27-.27-2.1,0-4.2,0-6.29,0l-.21,0Zm6.75,1.54h-6.75v3h6.75Zm-12-9c0,.08,0,.14,0,.2,0,.86,0,1.72,0,2.57,0,.21.06.26.25.25H641l.2,0v-3Zm3.75,4.51-.13,0c-1.15,0-2.3,0-3.45,0-.15,0-.18.06-.18.2v2.64a.88.88,0,0,0,0,.16h3.74Zm0,7.52v-3l-.07,0h-3.54c-.12,0-.15.06-.15.17v2.68c0,.14,0,.18.18.18s.57,0,.85,0Z"/></g></g></svg>