<svg xmlns="http://www.w3.org/2000/svg" viewBox="0 0 729.03 351"><defs><style>.cls-1{fill:#ffd524;}</style></defs><title>02black</title><g id="Слой_2" data-name="Слой 2"><g id="Слой_1_копия8_" data-name="Слой 1 (копия8)"><rect class="cls-1" x="89" y="36" width="640" height="297"/><path d="M575.64,35.52V11.79h9.45A6.47,6.47,0,0,1,590,13.61a7,7,0,0,1,1.71,5,7,7,0,0,1-1.71,5,6.47,6.47,0,0,1-4.92,1.82H578.5V35.52Zm2.86-12.65h6.59a3.69,3.69,0,0,0,2.64-.88,3.31,3.31,0,0,0,.93-2.52V17.7a3.3,3.3,0,0,0-.93-2.51,3.69,3.69,0,0,0-2.64-.88H578.5Z"/><path d="M602,35.93a7.89,7.89,0,0,1-3.25-.65,7.05,7.05,0,0,1-2.48-1.85,8.44,8.44,0,0,1-1.6-2.89,12.08,12.08,0,0,1-.56-3.79,12.08,12.08,0,0,1,.56-3.77,8.35,8.35,0,0,1,1.6-2.91,6.93,6.93,0,0,1,2.48-1.85,7.73,7.73,0,0,1,3.25-.65,7.43,7.43,0,0,1,3.16.64A7.12,7.12,0,0,1,607.56,20a7.91,7.91,0,0,1,1.51,2.7,10.58,10.58,0,0,1,.53,3.42V27.4H597v.81a6.15,6.15,0,0,0,.35,2.09,4.92,4.92,0,0,0,1,1.68A4.63,4.63,0,0,0,600,33.11a5.68,5.68,0,0,0,2.2.41,5.37,5.37,0,0,0,2.91-.79A5.23,5.23,0,0,0,607,30.49l1.93,1.4a6.73,6.73,0,0,1-2.65,2.93A8,8,0,0,1,602,35.93Zm0-16.08a5.15,5.15,0,0,0-2,.39,4.61,4.61,0,0,0-1.58,1.09,5.23,5.23,0,0,0-1,1.68,5.74,5.74,0,0,0-.37,2.11v.23h9.69V25a5.33,5.33,0,0,0-1.28-3.73A4.33,4.33,0,0,0,602,19.85Z"/><path d="M627.84,35.52H613.7V18h2.72V33.11h8.26V18h2.72V33.11h2.93v7.17h-2.49Z"/><path d="M640.32,35.93a7.92,7.92,0,0,1-3.25-.65,7.05,7.05,0,0,1-2.48-1.85,8.61,8.61,0,0,1-1.6-2.89,12.08,12.08,0,0,1-.56-3.79A12.08,12.08,0,0,1,633,23a8.51,8.51,0,0,1,1.6-2.91,6.93,6.93,0,0,1,2.48-1.85,7.77,7.77,0,0,1,3.25-.65,7.43,7.43,0,0,1,3.16.64A7.12,7.12,0,0,1,645.86,20a7.91,7.91,0,0,1,1.51,2.7,10.58,10.58,0,0,1,.53,3.42V27.4H635.29v.81a6.15,6.15,0,0,0,.35,2.09,4.92,4.92,0,0,0,1,1.68,4.72,4.72,0,0,0,1.63,1.13,5.68,5.68,0,0,0,2.2.41,5.37,5.37,0,0,0,2.91-.79,5.23,5.23,0,0,0,1.92-2.24l1.93,1.4a6.73,6.73,0,0,1-2.65,2.93A8,8,0,0,1,640.32,35.93Zm0-16.08a5.15,5.15,0,0,0-2,.39,4.61,4.61,0,0,0-1.58,1.09,5.23,5.23,0,0,0-1,1.68,5.74,5.74,0,0,0-.37,2.11v.23H645V25a5.33,5.33,0,0,0-1.28-3.73A4.33,4.33,0,0,0,640.32,19.85Z"/><path d="M652,18h13.7V35.52H663V20.39h-8.26V35.52H652Z"/><path d="M675.08,20.39h-6V18h14.69v2.41h-6V35.52h-2.72Z"/><path d="M575.37,46h2.72V48.8h.13a5,5,0,0,1,2-2.44,6,6,0,0,1,3.15-.79,6.56,6.56,0,0,1,3,.65,6.44,6.44,0,0,1,2.26,1.83A8.5,8.5,0,0,1,590,50.94a15.06,15.06,0,0,1,0,7.62,8.59,8.59,0,0,1-1.43,2.89,6.44,6.44,0,0,1-2.26,1.83,6.7,6.7,0,0,1-3,.65,5.33,5.33,0,0,1-5.14-3.23h-.13v9.62h-2.72Zm7.24,15.54a4.68,4.68,0,0,0,3.64-1.46,5.43,5.43,0,0,0,1.32-3.81v-3a5.42,5.42,0,0,0-1.32-3.81A4.68,4.68,0,0,0,582.61,48a6,6,0,0,0-1.75.26,4.77,4.77,0,0,0-1.45.7,3.4,3.4,0,0,0-1,1.08,2.68,2.68,0,0,0-.36,1.35v6.56a3.16,3.16,0,0,0,.36,1.52,3.47,3.47,0,0,0,1,1.13,4.55,4.55,0,0,0,1.45.7A6.32,6.32,0,0,0,582.61,61.52Z"/><path d="M601.64,63.93a7.84,7.84,0,0,1-3.24-.65,7.09,7.09,0,0,1-2.49-1.85,8.42,8.42,0,0,1-1.59-2.89,13,13,0,0,1,0-7.56,8.33,8.33,0,0,1,1.59-2.91,7,7,0,0,1,2.49-1.85,7.69,7.69,0,0,1,3.24-.65,7.48,7.48,0,0,1,3.17.64A7.22,7.22,0,0,1,607.19,48a8.08,8.08,0,0,1,1.51,2.7,10.58,10.58,0,0,1,.53,3.42V55.4H596.61v.81A5.92,5.92,0,0,0,597,58.3,4.92,4.92,0,0,0,598,60a4.54,4.54,0,0,0,1.63,1.13,5.66,5.66,0,0,0,2.19.41,5.37,5.37,0,0,0,2.91-.79,5.1,5.1,0,0,0,1.92-2.24l1.94,1.4a6.79,6.79,0,0,1-2.65,2.93A8,8,0,0,1,601.64,63.93Zm0-16.08a5.19,5.19,0,0,0-2,.39A4.61,4.61,0,0,0,598,49.33,5,5,0,0,0,597,51a5.74,5.74,0,0,0-.38,2.11v.23h9.69V53A5.32,5.32,0,0,0,605,49.25,4.34,4.34,0,0,0,601.64,47.85Z"/><path d="M611.3,61.11h2a15.17,15.17,0,0,0,1.7-4.24,23.89,23.89,0,0,0,.64-5.84V46h11.87V61.11h2.93v7.17H628V63.52H613.79v4.76H611.3Zm13.5,0V48.39h-6.56V51.2a25.25,25.25,0,0,1-.6,5.93,16.53,16.53,0,0,1-1.41,4Z"/><path d="M647.28,63.52a2.64,2.64,0,0,1-2.19-.82,4,4,0,0,1-.83-2h-.17a4.57,4.57,0,0,1-1.91,2.45,5.86,5.86,0,0,1-3.16.82,6.17,6.17,0,0,1-4.34-1.43,5,5,0,0,1-1.54-3.88,4.4,4.4,0,0,1,1.82-3.8c1.21-.89,3.09-1.33,5.66-1.33h3.47V51.76a3.8,3.8,0,0,0-1-2.86,4.33,4.33,0,0,0-3.12-1,4.66,4.66,0,0,0-2.67.72,5.83,5.83,0,0,0-1.79,1.9L633.85,49a6.27,6.27,0,0,1,2.28-2.43,7.16,7.16,0,0,1,3.94-1,7.27,7.27,0,0,1,5,1.56,5.51,5.51,0,0,1,1.76,4.34v9.64h2v2.41Zm-7.82-1.9a6.88,6.88,0,0,0,1.87-.24,4.69,4.69,0,0,0,1.46-.68,3.38,3.38,0,0,0,1-1,2.44,2.44,0,0,0,.35-1.26V55.53h-3.61a6.65,6.65,0,0,0-3.42.68,2.2,2.2,0,0,0-1.07,2v.72a2.35,2.35,0,0,0,.94,2A4,4,0,0,0,639.46,61.62Z"/><path d="M652.33,46h2.72v7.34h3.5L662,48a7.05,7.05,0,0,1,.72-1,2.85,2.85,0,0,1,.68-.6,2.59,2.59,0,0,1,.71-.29,4.31,4.31,0,0,1,.85-.08h1.6v2.41H664.4l-2.75,4.33c-.19.29-.34.53-.48.71a3.8,3.8,0,0,1-.41.46,1.9,1.9,0,0,1-.44.3,3.74,3.74,0,0,1-.58.22v.13A2.88,2.88,0,0,1,661,55a4.16,4.16,0,0,1,1.11,1.37l2.68,4.74h2v2.41h-2a3,3,0,0,1-1.62-.46,4.56,4.56,0,0,1-1.41-1.68l-3.23-5.75h-3.5v7.89h-2.72Z"/><path d="M668,54.65V51.72h8.87v2.93Z"/><path d="M579.14,76.39h-6V74h14.69v2.41h-6V91.52h-2.72Z"/><path d="M597.73,91.93a7.9,7.9,0,0,1-3.23-.65,7,7,0,0,1-2.5-1.85,8.82,8.82,0,0,1-1.62-2.89,12.61,12.61,0,0,1,0-7.56A8.72,8.72,0,0,1,592,76.07a6.84,6.84,0,0,1,2.5-1.85,7.74,7.74,0,0,1,3.23-.65,7.64,7.64,0,0,1,3.21.65,7.09,7.09,0,0,1,2.5,1.85A8.4,8.4,0,0,1,605.07,79a12.61,12.61,0,0,1,0,7.56,8.49,8.49,0,0,1-1.63,2.89,7.22,7.22,0,0,1-2.5,1.85A7.8,7.8,0,0,1,597.73,91.93Zm0-2.41a4.93,4.93,0,0,0,3.6-1.37A5.52,5.52,0,0,0,602.72,84V81.49a5.56,5.56,0,0,0-1.39-4.15,5.46,5.46,0,0,0-7.21,0,5.56,5.56,0,0,0-1.39,4.15V84a5.52,5.52,0,0,0,1.39,4.14A4.94,4.94,0,0,0,597.73,89.52Z"/><path d="M609.79,74h2.72V76.8h.14a4.92,4.92,0,0,1,2-2.44,6,6,0,0,1,3.15-.79,6.56,6.56,0,0,1,3,.65A6.44,6.44,0,0,1,623,76.05a8.5,8.5,0,0,1,1.43,2.89,15.06,15.06,0,0,1,0,7.62A8.59,8.59,0,0,1,623,89.45a6.44,6.44,0,0,1-2.26,1.83,6.7,6.7,0,0,1-3,.65,5.31,5.31,0,0,1-5.13-3.23h-.14v9.62h-2.72ZM617,89.52a4.68,4.68,0,0,0,3.64-1.46A5.44,5.44,0,0,0,622,84.25v-3a5.42,5.42,0,0,0-1.33-3.81A4.68,4.68,0,0,0,617,76a6,6,0,0,0-1.75.26,4.6,4.6,0,0,0-1.44.7,3.44,3.44,0,0,0-1,1.08,2.68,2.68,0,0,0-.36,1.35v6.56a3.16,3.16,0,0,0,.36,1.52,3.5,3.5,0,0,0,1,1.13,4.39,4.39,0,0,0,1.44.7A6.32,6.32,0,0,0,617,89.52Z"/><path d="M639.77,74h2.69L634.6,95.6a8.58,8.58,0,0,1-.61,1.31,2.42,2.42,0,0,1-.75.83,3,3,0,0,1-1.1.45,9.14,9.14,0,0,1-1.62.13h-1.39V95.91h2.75l1.33-3.74L626.65,74h2.72l4.21,11.91.82,2.85h.17l.95-2.85Z"/><path d="M60.92,60.78H38.33V81H33V36.33h5.38V56H60.92V36.33H66.3V81H60.92Z"/><path d="M100.14,81A5,5,0,0,1,96,79.46a7.66,7.66,0,0,1-1.57-3.84h-.32a8.51,8.51,0,0,1-3.58,4.61,11.1,11.1,0,0,1-6,1.54q-5.25,0-8.16-2.69a9.41,9.41,0,0,1-2.92-7.3,8.33,8.33,0,0,1,3.43-7.16q3.42-2.51,10.65-2.5h6.53V58.86a7.14,7.14,0,0,0-1.92-5.38q-1.92-1.86-5.89-1.86a8.82,8.82,0,0,0-5,1.35,11.12,11.12,0,0,0-3.36,3.58l-3.07-2.88a11.52,11.52,0,0,1,4.29-4.57,13.47,13.47,0,0,1,7.42-1.89q6,0,9.34,2.94a10.31,10.31,0,0,1,3.33,8.17V76.46H103V81ZM85.42,77.42A13,13,0,0,0,88.94,77a8.84,8.84,0,0,0,2.75-1.28,6.48,6.48,0,0,0,1.79-1.92,4.58,4.58,0,0,0,.64-2.37V66H87.34q-4.43,0-6.43,1.28a4.12,4.12,0,0,0-2,3.71V72.3a4.47,4.47,0,0,0,1.76,3.77A7.64,7.64,0,0,0,85.42,77.42Z"/><path d="M109.16,48H135V81h-5.12V52.52H114.28V81h-5.12Z"/><path d="M144.29,48h5v18.3l-.51,7.94H149l4.09-7L166.31,48H171V81h-5V62.7l.51-7.94h-.25l-4.1,7L149,81h-4.74Z"/><path d="M193.21,81.77A15.19,15.19,0,0,1,187,80.55a12.66,12.66,0,0,1-4.64-3.45,15.45,15.45,0,0,1-2.88-5.44,26.46,26.46,0,0,1,0-14.34,15.36,15.36,0,0,1,2.88-5.44A12.69,12.69,0,0,1,187,48.42a15.19,15.19,0,0,1,6.21-1.21A12.29,12.29,0,0,1,205.56,55l-4.29,2.18a7.81,7.81,0,0,0-2.94-4,8.85,8.85,0,0,0-5.12-1.41,10.29,10.29,0,0,0-4,.74,7.84,7.84,0,0,0-2.88,2,8.65,8.65,0,0,0-1.72,3.13,13.06,13.06,0,0,0-.58,4V67.3a10.71,10.71,0,0,0,2.34,7.14c1.55,1.86,3.85,2.78,6.88,2.78a9.3,9.3,0,0,0,9-5.76l3.71,2.5a13.18,13.18,0,0,1-4.77,5.7A14,14,0,0,1,193.21,81.77Z"/><path d="M237.41,81a5,5,0,0,1-4.13-1.54,7.66,7.66,0,0,1-1.57-3.84h-.32a8.51,8.51,0,0,1-3.58,4.61,11.07,11.07,0,0,1-5.95,1.54q-5.25,0-8.16-2.69a9.44,9.44,0,0,1-2.91-7.3,8.32,8.32,0,0,1,3.42-7.16q3.42-2.51,10.66-2.5h6.52V58.86a7.14,7.14,0,0,0-1.92-5.38c-1.27-1.24-3.24-1.86-5.88-1.86a8.86,8.86,0,0,0-5,1.35,11.12,11.12,0,0,0-3.36,3.58l-3.07-2.88a11.66,11.66,0,0,1,4.29-4.57,13.49,13.49,0,0,1,7.42-1.89q6,0,9.35,2.94a10.34,10.34,0,0,1,3.32,8.17V76.46h3.78V81Zm-14.72-3.58a13,13,0,0,0,3.52-.45A8.63,8.63,0,0,0,229,75.69a6.35,6.35,0,0,0,1.79-1.92,4.58,4.58,0,0,0,.64-2.37V66h-6.78c-2.94,0-5.09.43-6.43,1.28a4.12,4.12,0,0,0-2,3.71V72.3a4.47,4.47,0,0,0,1.76,3.77A7.66,7.66,0,0,0,222.69,77.42Z"/><path d="M253.25,52.52H242V48h27.64v4.54H258.37V81h-5.12Z"/><path d="M275.54,48h5.12v11.9h9.41A10.93,10.93,0,0,1,298,62.71,10.22,10.22,0,0,1,301,70.47q0,5-2.88,7.77T290.13,81H275.54Zm13.83,28.48a7.81,7.81,0,0,0,4.47-1.09,4,4,0,0,0,1.61-3.62V69.07a4,4,0,0,0-1.61-3.59,8,8,0,0,0-4.47-1.06h-8.71v12Z"/><path d="M50.87,119.82h-.32a12.2,12.2,0,0,1-3.77,2.81,13.36,13.36,0,0,1-5.89,1.11c-3.37,0-6-.84-7.87-2.52S30.2,117,30.2,113.59V102h5.12v11.2q0,6,7.1,6a15.94,15.94,0,0,0,6-1c1.6-.66,2.4-1.67,2.4-3V102H56v33H50.87Z"/><path d="M78.25,135.77a14.81,14.81,0,0,1-6.11-1.22,13.13,13.13,0,0,1-4.67-3.49,15.85,15.85,0,0,1-3-5.44,24.44,24.44,0,0,1,0-14.24,16,16,0,0,1,3-5.47,13.24,13.24,0,0,1,4.67-3.49,14.81,14.81,0,0,1,6.11-1.21,14,14,0,0,1,6,1.21,13.19,13.19,0,0,1,4.48,3.35,14.78,14.78,0,0,1,2.85,5.07,20,20,0,0,1,1,6.44v2.42H68.78v1.54a11.28,11.28,0,0,0,.67,3.94,9.37,9.37,0,0,0,1.92,3.16,8.87,8.87,0,0,0,3.07,2.12,10.63,10.63,0,0,0,4.13.76A10.06,10.06,0,0,0,84,129.75a9.7,9.7,0,0,0,3.62-4.22l3.65,2.64a12.72,12.72,0,0,1-5,5.5A15,15,0,0,1,78.25,135.77Zm0-30.27a9.7,9.7,0,0,0-3.84.73,8.62,8.62,0,0,0-3,2.06,9.69,9.69,0,0,0-2,3.15,10.91,10.91,0,0,0-.7,4v.44H87v-.7a10,10,0,0,0-2.4-7A8.19,8.19,0,0,0,78.25,105.5Z"/><path d="M99.75,102h5.12v5.31h.25a9.27,9.27,0,0,1,3.75-4.59,11.24,11.24,0,0,1,5.92-1.49,12.57,12.57,0,0,1,5.57,1.21,12.12,12.12,0,0,1,4.25,3.46,15.75,15.75,0,0,1,2.69,5.44,28.1,28.1,0,0,1,0,14.34,15.84,15.84,0,0,1-2.69,5.44,12.09,12.09,0,0,1-4.25,3.45,12.58,12.58,0,0,1-5.57,1.22,10,10,0,0,1-9.67-6.08h-.25V147.8H99.75Zm13.63,29.24a8.83,8.83,0,0,0,6.85-2.73,10.23,10.23,0,0,0,2.49-7.17v-5.66a10.23,10.23,0,0,0-2.49-7.17,8.8,8.8,0,0,0-6.85-2.74,11.26,11.26,0,0,0-3.3.48,9.69,9.69,0,0,0-2.72,1.32,6.52,6.52,0,0,0-1.82,2,5.05,5.05,0,0,0-.67,2.54v12.35a5.92,5.92,0,0,0,.67,2.86,6.54,6.54,0,0,0,1.82,2.13,8.49,8.49,0,0,0,2.72,1.31A12,12,0,0,0,113.38,131.22Z"/><path d="M135.76,102h5.12v13.69h16.51V102h5.12v33h-5.12V120.22H140.88V135h-5.12Z"/><path d="M184.76,135.77a14.94,14.94,0,0,1-6.08-1.22,13.06,13.06,0,0,1-4.7-3.49,16.41,16.41,0,0,1-3-5.44,23.8,23.8,0,0,1,0-14.24,16.56,16.56,0,0,1,3-5.47,13.18,13.18,0,0,1,4.7-3.49,14.94,14.94,0,0,1,6.08-1.21,14.66,14.66,0,0,1,6.05,1.21,13.57,13.57,0,0,1,4.71,3.49,16.27,16.27,0,0,1,3.07,5.47,23.8,23.8,0,0,1,0,14.24,16.12,16.12,0,0,1-3.07,5.44,13.45,13.45,0,0,1-4.71,3.49A14.66,14.66,0,0,1,184.76,135.77Zm0-4.55a9.3,9.3,0,0,0,6.79-2.56c1.75-1.7,2.62-4.31,2.62-7.8v-4.74q0-5.25-2.62-7.81a10.27,10.27,0,0,0-13.57,0q-2.62,2.56-2.62,7.81v4.74c0,3.49.87,6.1,2.62,7.8A9.29,9.29,0,0,0,184.76,131.22Z"/><path d="M207,102h16.64a8.6,8.6,0,0,1,6.33,2.27,8.17,8.17,0,0,1,2.31,6.11q0,6.21-6.47,7v.25a8.41,8.41,0,0,1,5.73,2.4,7.39,7.39,0,0,1,1.89,5.15,11.79,11.79,0,0,1-.61,3.78,9.46,9.46,0,0,1-1.76,3.14,8.47,8.47,0,0,1-6.59,2.94H207Zm15.29,13.82a4.76,4.76,0,0,0,3.3-1.06,3.84,3.84,0,0,0,1.18-3v-1.4a3.84,3.84,0,0,0-1.18-3,4.76,4.76,0,0,0-3.3-1.06H212.11v9.6Zm.64,15a5.24,5.24,0,0,0,3.65-1.22,4.44,4.44,0,0,0,1.34-3.46v-1.47a4.43,4.43,0,0,0-1.34-3.45,5.24,5.24,0,0,0-3.65-1.22H212.11v10.82Z"/><path d="M241.24,102h5v18.3l-.52,7.94H246l4.1-7L263.26,102H268v33h-5V116.7l.52-7.94h-.26l-4.1,7L246,135h-4.74Z"/><path d="M277.34,102h5.12V115.8h6.59l6.4-10.11a13.75,13.75,0,0,1,1.35-1.89,5.38,5.38,0,0,1,1.28-1.12,4.19,4.19,0,0,1,1.34-.54A7,7,0,0,1,301,102h3v4.54h-4l-5.18,8.15c-.35.55-.64,1-.9,1.33a6.05,6.05,0,0,1-.77.86,3.36,3.36,0,0,1-.83.58,8.16,8.16,0,0,1-1.09.41v.25a5.61,5.61,0,0,1,2.34.86,7.86,7.86,0,0,1,2.08,2.58l5.05,8.92h3.78V135h-3.71a5.66,5.66,0,0,1-3-.86,8.68,8.68,0,0,1-2.66-3.17l-6.08-10.82h-6.59V135h-5.12Z"/><path d="M32.44,156h5.12V169.8h6.59l6.4-10.11a13.75,13.75,0,0,1,1.35-1.89,5.38,5.38,0,0,1,1.28-1.12,4.19,4.19,0,0,1,1.34-.54,7,7,0,0,1,1.6-.16h3v4.54h-4L50,168.67c-.35.55-.64,1-.9,1.33a6.05,6.05,0,0,1-.77.86,3.36,3.36,0,0,1-.83.58,8.16,8.16,0,0,1-1.09.41v.25a5.61,5.61,0,0,1,2.34.86,7.86,7.86,0,0,1,2.08,2.58l5,8.92h3.78V189H55.93a5.63,5.63,0,0,1-3-.86A8.59,8.59,0,0,1,50.23,185l-6.08-10.82H37.56V189H32.44Z"/><path d="M78.44,189.77a14.87,14.87,0,0,1-6.08-1.22,13,13,0,0,1-4.71-3.49,16.41,16.41,0,0,1-3-5.44,23.8,23.8,0,0,1,0-14.24,16.56,16.56,0,0,1,3-5.47,13.12,13.12,0,0,1,4.71-3.49,14.87,14.87,0,0,1,6.08-1.21,14.64,14.64,0,0,1,6,1.21,13.48,13.48,0,0,1,4.71,3.49,16.27,16.27,0,0,1,3.07,5.47,23.8,23.8,0,0,1,0,14.24,16.12,16.12,0,0,1-3.07,5.44,13.36,13.36,0,0,1-4.71,3.49A14.65,14.65,0,0,1,78.44,189.77Zm0-4.55a9.29,9.29,0,0,0,6.78-2.56c1.75-1.7,2.62-4.31,2.62-7.8v-4.74q0-5.25-2.62-7.81a10.27,10.27,0,0,0-13.57,0Q69,164.88,69,170.12v4.74c0,3.49.87,6.1,2.62,7.8A9.3,9.3,0,0,0,78.44,185.22Z"/><path d="M100.66,156h5.12v13.69h16.51V156h5.12v33h-5.12V174.22H105.78V189h-5.12Z"/><path d="M144.58,160.52H133.32V156H161v4.54H149.7V189h-5.12Z"/><path d="M179,189.77a14.81,14.81,0,0,1-6.11-1.22,13.13,13.13,0,0,1-4.67-3.49,16,16,0,0,1-3-5.44,24.44,24.44,0,0,1,0-14.24,16.16,16.16,0,0,1,3-5.47,13.24,13.24,0,0,1,4.67-3.49,14.81,14.81,0,0,1,6.11-1.21,14,14,0,0,1,6,1.21,13.19,13.19,0,0,1,4.48,3.35,14.78,14.78,0,0,1,2.85,5.07,20,20,0,0,1,1,6.44v2.42H169.57v1.54a11.28,11.28,0,0,0,.67,3.94,9.37,9.37,0,0,0,1.92,3.16,8.87,8.87,0,0,0,3.07,2.12,10.63,10.63,0,0,0,4.13.76,10,10,0,0,0,5.47-1.47,9.63,9.63,0,0,0,3.62-4.22l3.65,2.64a12.76,12.76,0,0,1-5,5.5A15,15,0,0,1,179,189.77Zm0-30.27a9.7,9.7,0,0,0-3.84.73,8.62,8.62,0,0,0-3,2.06,9.69,9.69,0,0,0-2,3.15,10.91,10.91,0,0,0-.7,4v.44h18.24v-.7a10,10,0,0,0-2.4-7A8.19,8.19,0,0,0,179,159.5Z"/><path d="M200.54,156h5.12v13.69h16.51V156h5.12v33h-5.12V174.22H205.66V189h-5.12Z"/><path d="M244.46,160.52H233.2V156h27.65v4.54H249.58V189h-5.12Z"/><path d="M260.74,172.3v-5.51h16.7v5.51Z"/><path d="M285.66,156h25.79v33h-5.12V160.52H290.78V189h-5.12Z"/><path d="M317,184.46h4.35a13.38,13.38,0,0,0,1.47-2.75,21.71,21.71,0,0,0,1.09-3.83,49.64,49.64,0,0,0,.7-5.3q.25-3.06.26-7.22V156h22.33v33h-5.12V160.52H329.74v5q0,4.8-.35,8.37a48.49,48.49,0,0,1-1,6.13,19.39,19.39,0,0,1-1.44,4.18,10.27,10.27,0,0,1-1.79,2.59,6.75,6.75,0,0,1-2.69,1.69A11.43,11.43,0,0,1,319,189h-2Z"/><path d="M381,189a5,5,0,0,1-4.13-1.54,7.66,7.66,0,0,1-1.57-3.84H375a8.51,8.51,0,0,1-3.58,4.61,11.1,11.1,0,0,1-5.95,1.54q-5.25,0-8.16-2.69a9.41,9.41,0,0,1-2.92-7.3,8.33,8.33,0,0,1,3.43-7.16q3.42-2.51,10.65-2.5H375v-3.26a7.14,7.14,0,0,0-1.92-5.38q-1.92-1.86-5.89-1.86a8.82,8.82,0,0,0-5,1.35,11.12,11.12,0,0,0-3.36,3.58l-3.07-2.88A11.52,11.52,0,0,1,360,157.1a13.47,13.47,0,0,1,7.42-1.89q6,0,9.34,2.94a10.31,10.31,0,0,1,3.33,8.17v18.14h3.78V189Zm-14.72-3.58a13,13,0,0,0,3.52-.45,8.84,8.84,0,0,0,2.75-1.28,6.35,6.35,0,0,0,1.79-1.92,4.58,4.58,0,0,0,.64-2.37V174h-6.78q-4.43,0-6.43,1.28a4.12,4.12,0,0,0-2,3.71v1.35a4.47,4.47,0,0,0,1.76,3.77A7.64,7.64,0,0,0,366.26,185.42Z"/><path d="M390,156h5.12v13.69h16.51V156h5.12v33h-5.12V174.22H395.12V189H390Z"/><path d="M450.51,189a5,5,0,0,1-4.12-1.54,7.49,7.49,0,0,1-1.57-3.84h-.32a8.53,8.53,0,0,1-3.59,4.61,11.05,11.05,0,0,1-6,1.54q-5.25,0-8.16-2.69a9.44,9.44,0,0,1-2.91-7.3,8.32,8.32,0,0,1,3.42-7.16q3.44-2.51,10.66-2.5h6.53v-3.26a7.14,7.14,0,0,0-1.92-5.38q-1.92-1.86-5.89-1.86a8.8,8.8,0,0,0-5,1.35,10.91,10.91,0,0,0-3.36,3.58l-3.08-2.88a11.66,11.66,0,0,1,4.29-4.57,13.5,13.5,0,0,1,7.43-1.89q6,0,9.34,2.94a10.31,10.31,0,0,1,3.33,8.17v18.14h3.77V189Zm-14.72-3.58a12.94,12.94,0,0,0,3.52-.45,8.79,8.79,0,0,0,2.76-1.28,6.61,6.61,0,0,0,1.79-1.92,4.68,4.68,0,0,0,.64-2.37V174h-6.79q-4.41,0-6.43,1.28a4.13,4.13,0,0,0-2,3.71v1.35a4.44,4.44,0,0,0,1.76,3.77A7.63,7.63,0,0,0,435.79,185.42Z"/><polygon points="729 333 576 332.96 576 225 729.03 225 729 333"/><path class="cls-1" d="M593.94,260.3q-5.06,0-7.69-3.42t-2.64-10q0-6.6,2.64-10t7.69-3.43c3.37,0,5.94,1.14,7.69,3.43s2.64,5.61,2.64,10-.88,7.73-2.64,10S597.31,260.3,593.94,260.3Zm0-5.47a3.48,3.48,0,0,0,3.25-2,17.33,17.33,0,0,0,0-12,3.66,3.66,0,0,0-6.49,0,17.33,17.33,0,0,0,0,12A3.47,3.47,0,0,0,593.94,254.83Z"/><path class="cls-1" d="M607.86,259.66V234.07h10a10.54,10.54,0,0,1,4.76,1,7.57,7.57,0,0,1,3.14,2.83,8.23,8.23,0,0,1,1.12,4.35,7.69,7.69,0,0,1-1.12,4.17,7.31,7.31,0,0,1-3.14,2.74,11,11,0,0,1-4.76,1h-4v9.53Zm6-14.94h4a3.4,3.4,0,0,0,2.22-.64,2.24,2.24,0,0,0,.78-1.85,2.27,2.27,0,0,0-.78-1.84,3.34,3.34,0,0,0-2.22-.66h-4Z"/><path class="cls-1" d="M631.14,259.66V234.07h17.27v5.12H637.15v5.28h9.66v5h-9.66v5.08h10.94v5.12Z"/><path class="cls-1" d="M652.44,259.66V234.07h9.27L665.9,255h.64l-.38-10.56V234.07h5.15v25.59H662l-4.19-20.89h-.64l.39,10.56v10.33Z"/><path class="cls-1" d="M585.21,290.92V265.34h10a10.55,10.55,0,0,1,4.77,1,7.61,7.61,0,0,1,3.13,2.83,8.14,8.14,0,0,1,1.12,4.35,7.66,7.66,0,0,1-1.12,4.18,7.32,7.32,0,0,1-3.13,2.73,11,11,0,0,1-4.77,1h-4v9.53Zm6-14.93h4a3.48,3.48,0,0,0,2.23-.64,2.58,2.58,0,0,0,0-3.7,3.43,3.43,0,0,0-2.23-.65h-4Z"/><path class="cls-1" d="M607.54,290.92V265.34h10.33a10,10,0,0,1,4.59,1,7.37,7.37,0,0,1,3,2.85,8.41,8.41,0,0,1,1.09,4.33,7,7,0,0,1-1.11,3.94,7.41,7.41,0,0,1-3.08,2.65,10.3,10.3,0,0,1-4.54,1h-4.32v9.85Zm6-14.84h4.09a3.15,3.15,0,0,0,2.16-.69,2.31,2.31,0,0,0,.78-1.83,2.39,2.39,0,0,0-.78-1.88,3.2,3.2,0,0,0-2.16-.68h-4.09Zm6.94,14.84-6.21-10.81h6.4l6.56,10.81Z"/><path class="cls-1" d="M639.23,291.56q-5.06,0-7.69-3.42t-2.64-10q0-6.58,2.64-10t7.69-3.42q5.06,0,7.69,3.42t2.64,10q0,6.58-2.64,10T639.23,291.56Zm0-5.47a3.48,3.48,0,0,0,3.25-2,17.36,17.36,0,0,0,0-12,3.67,3.67,0,0,0-6.5,0,17.36,17.36,0,0,0,0,12A3.48,3.48,0,0,0,639.23,286.09Z"/><path class="cls-1" d="M652.28,290.92V265.34h7.77l1.63,12.37h.64L664,265.34h7.52v25.58h-5.09v-9.5l.42-10.65h-.64l-1.6,12.16h-5.37l-1.6-12.16H657l.41,10.65v9.5Z"/><path class="cls-1" d="M675.79,290.92V265.34h10a10.54,10.54,0,0,1,4.76,1,7.64,7.64,0,0,1,3.14,2.83,8.23,8.23,0,0,1,1.12,4.35,7.75,7.75,0,0,1-1.12,4.18,7.35,7.35,0,0,1-3.14,2.73,11,11,0,0,1-4.76,1h-4v9.53Zm6-14.93h4a3.45,3.45,0,0,0,2.22-.64,2.58,2.58,0,0,0,0-3.7,3.4,3.4,0,0,0-2.22-.65h-4Z"/><path class="cls-1" d="M704.15,290.92V271.06H697v-5.72H717.3v5.72h-7.13v19.86Z"/><path class="cls-1" d="M584.67,322.19v-5.73h6.27V302.32h-6.27V296.6h18.55v5.72H597v14.14h6.27v5.73Z"/><path class="cls-1" d="M607.15,322.19V296.6h9.28l4.19,20.88h.64l-.39-10.55V296.6H626v25.59h-9.27l-4.19-20.89h-.64l.38,10.55v10.34Z"/><path class="cls-1" d="M637.73,322.73a6.94,6.94,0,0,1-6.21-3.44q-2.17-3.44-2.17-9.9t2.64-10q2.64-3.42,7.72-3.42a10.16,10.16,0,0,1,4.92,1.12,8.06,8.06,0,0,1,3.27,3.25,11.69,11.69,0,0,1,1.34,5.13h-5.63a6,6,0,0,0-1.39-3,3.38,3.38,0,0,0-2.51-1,3.54,3.54,0,0,0-3.28,2,12.71,12.71,0,0,0-1.1,6q0,4.35,1.09,6.37a3.66,3.66,0,0,0,3.48,2,3.42,3.42,0,0,0,3.18-1.93,4.57,4.57,0,0,0,.47-2.1H639.1V308.5h9.69v13.69h-5.24V320h-1.31a3.51,3.51,0,0,1-1.6,2A5.7,5.7,0,0,1,637.73,322.73Z"/><polygon points="720.31 332.96 711 333 711 342 720 342 720 351 729 351 729.03 341.68 729 333 720.31 332.96"/><rect y="0.09" width="9.06" height="47.8"/><rect width="25.21" height="9.06"/><rect y="276.11" width="9.06" height="47.8"/><rect y="314.94" width="25.21" height="9.06"/><rect x="701.94" y="0.09" width="9.06" height="47.8" transform="translate(1412.94 47.98) rotate(180)"/><rect x="685.79" width="25.21" height="9.06" transform="translate(1396.79 9.06) rotate(180)"/><path d="M595.83,152.61a8.86,8.86,0,0,1-6.52-2.71.67.67,0,0,0-.65-.21,9.14,9.14,0,0,1-10.49-11.07,1.31,1.31,0,0,0-.28-1.31A9,9,0,0,1,580.52,124a16.35,16.35,0,0,1,2.48-1,.6.6,0,0,0,.43-.4,9.29,9.29,0,0,1,15-3.43,1.29,1.29,0,0,0,1.2.39A9.18,9.18,0,0,1,610,127.06a8.79,8.79,0,0,1-.22,3.92.67.67,0,0,0,.15.7,8.58,8.58,0,0,1,1.93,7.35,8.8,8.8,0,0,1-6.6,7.16,1,1,0,0,0-.73.64,9,9,0,0,1-7.56,5.76,5.43,5.43,0,0,1-.57,0Zm-13-27a3.19,3.19,0,0,0-.34.09,6.64,6.64,0,0,0-.79,11.9c2.39,1.41,4.81,2.76,7.22,4.12a.57.57,0,0,0,.48,0c.85-.46,1.68-.95,2.52-1.43a2.89,2.89,0,0,0,.28-.21l-.68-.4-7.87-4.48a1.38,1.38,0,0,1-.8-1.36c0-2.58,0-5.16,0-7.74C582.9,125.93,582.89,125.78,582.88,125.59Zm5.45,10.27c0-.21,0-.35,0-.5,0-3.14,0-6.28,0-9.42a1.29,1.29,0,0,1,.71-1.2l6.65-3.78.71-.41c-.38-.25-.67-.47-1-.65a6.8,6.8,0,0,0-10.18,5.55c-.09,2.8,0,5.61,0,8.41a.6.6,0,0,0,.24.41c.76.46,1.53.88,2.3,1.32Zm3.26,12.85c.13.12.2.19.28.25a6.82,6.82,0,0,0,10.72-4.25,23,23,0,0,0,.13-3.53c0-1.89,0-3.78,0-5.67,0-.2,0-.38-.22-.51-.88-.49-1.74-1-2.61-1.49a2.3,2.3,0,0,0-.26-.07c0,.18,0,.33,0,.48,0,3.1,0,6.19,0,9.29a1.45,1.45,0,0,1-.82,1.39l-5.63,3.19Zm6.32-9.87c-.19.1-.34.17-.47.25-2.73,1.56-5.46,3.1-8.18,4.66a1.41,1.41,0,0,1-1.54,0c-2.17-1.25-4.36-2.49-6.54-3.73l-.74-.4a4,4,0,0,0-.08.48,6.46,6.46,0,0,0,.72,3.69,6.85,6.85,0,0,0,9.53,2.72l7-4a.5.5,0,0,0,.3-.5c0-.94,0-1.87,0-2.8A3.15,3.15,0,0,0,597.91,138.84Zm-7.83-8.42.38-.19,8.33-4.74a1.36,1.36,0,0,1,1.5,0c2.31,1.34,4.64,2.67,7,4,.08.05.18.08.37.17,0-.6.06-1.12,0-1.64a6.78,6.78,0,0,0-9.79-5.51c-2.57,1.33-5.06,2.84-7.57,4.28a.56.56,0,0,0-.21.42c0,.94,0,1.87,0,2.8C590.06,130.14,590.07,130.24,590.08,130.42Zm15.07,13.27h.19a3.29,3.29,0,0,0,.39-.17,6.51,6.51,0,0,0,3.83-5.7,6.32,6.32,0,0,0-3.18-6c-2.39-1.47-4.87-2.81-7.3-4.21a.53.53,0,0,0-.59,0c-.81.48-1.63,1-2.45,1.42l-.28.18a1.65,1.65,0,0,0,.25.19l8.38,4.81a1.34,1.34,0,0,1,.77,1.27c0,2.61,0,5.21,0,7.82Zm-7.21-9.07c0-.63,0-1.26,0-1.89a.53.53,0,0,0-.31-.53l-3.33-1.88a.53.53,0,0,0-.61,0c-1.12.65-2.25,1.29-3.39,1.93a.42.42,0,0,0-.25.45c0,1.29,0,2.59,0,3.89a.56.56,0,0,0,.23.41c1.14.67,2.29,1.31,3.44,2a.48.48,0,0,0,.55,0c1.14-.66,2.28-1.3,3.41-2a.57.57,0,0,0,.23-.41C598,135.93,597.94,135.28,597.94,134.62Z"/></g></g></svg>