<svg xmlns="http://www.w3.org/2000/svg" viewBox="0 0 728.75 353.75"><defs><style>.cls-1{fill:#ff55ef;}</style></defs><title>cover-metaphor-light</title><g id="Слой_2" data-name="Слой 2"><g id="Слой_4_копия2_" data-name="Слой 4 (копия2)"><rect class="cls-1" x="88.75" y="37.5" width="640" height="296.25"/><path d="M579.41,37.5V13.77h9.45a6.47,6.47,0,0,1,4.92,1.82,7,7,0,0,1,1.71,5,7,7,0,0,1-1.71,5,6.47,6.47,0,0,1-4.92,1.82h-6.59V37.5Zm2.86-12.65h6.59A3.68,3.68,0,0,0,591.5,24a3.31,3.31,0,0,0,.93-2.52V19.68a3.3,3.3,0,0,0-.93-2.51,3.68,3.68,0,0,0-2.64-.89h-6.59Z"/><path d="M605.79,37.91a7.92,7.92,0,0,1-3.25-.65,7.05,7.05,0,0,1-2.48-1.85,8.71,8.71,0,0,1-1.6-2.89,13.07,13.07,0,0,1,0-7.57,8.56,8.56,0,0,1,1.6-2.9,7.08,7.08,0,0,1,2.48-1.86,7.92,7.92,0,0,1,3.25-.64,7.43,7.43,0,0,1,3.16.64A7.12,7.12,0,0,1,611.33,22a8,8,0,0,1,1.51,2.69,10.41,10.41,0,0,1,.53,3.43v1.28H600.76v.82a6.19,6.19,0,0,0,.35,2.09,4.92,4.92,0,0,0,1,1.68,4.8,4.8,0,0,0,1.64,1.13,5.59,5.59,0,0,0,2.19.4,5.37,5.37,0,0,0,2.91-.78,5.23,5.23,0,0,0,1.92-2.24l1.93,1.4a6.79,6.79,0,0,1-2.65,2.93A8,8,0,0,1,605.79,37.91Zm0-16.08a5.15,5.15,0,0,0-2,.39,4.48,4.48,0,0,0-1.58,1.09,5.23,5.23,0,0,0-1,1.68,5.74,5.74,0,0,0-.37,2.11v.23h9.69V27a5.33,5.33,0,0,0-1.28-3.73A4.33,4.33,0,0,0,605.79,21.83Z"/><path d="M631.62,37.5H617.47V20h2.72V35.09h8.26V20h2.72V35.09h2.93v7.17h-2.48Z"/><path d="M644.09,37.91a7.92,7.92,0,0,1-3.25-.65,7.05,7.05,0,0,1-2.48-1.85,8.71,8.71,0,0,1-1.6-2.89,13.07,13.07,0,0,1,0-7.57,8.56,8.56,0,0,1,1.6-2.9,7.08,7.08,0,0,1,2.48-1.86,7.92,7.92,0,0,1,3.25-.64,7.43,7.43,0,0,1,3.16.64A7.12,7.12,0,0,1,649.63,22a8,8,0,0,1,1.51,2.69,10.41,10.41,0,0,1,.53,3.43v1.28H639.06v.82a6.19,6.19,0,0,0,.35,2.09,4.92,4.92,0,0,0,1,1.68,4.8,4.8,0,0,0,1.64,1.13,5.59,5.59,0,0,0,2.19.4,5.37,5.37,0,0,0,2.91-.78,5.23,5.23,0,0,0,1.92-2.24l1.94,1.4a6.87,6.87,0,0,1-2.66,2.93A8,8,0,0,1,644.09,37.91Zm0-16.08a5.15,5.15,0,0,0-2,.39,4.48,4.48,0,0,0-1.58,1.09,5.23,5.23,0,0,0-1,1.68,5.74,5.74,0,0,0-.37,2.11v.23h9.69V27a5.33,5.33,0,0,0-1.28-3.73A4.32,4.32,0,0,0,644.09,21.83Z"/><path d="M655.77,20h13.7V37.5h-2.72V22.37h-8.26V37.5h-2.72Z"/><path d="M678.85,22.37h-6V20h14.69v2.41h-6V37.5h-2.72Z"/><path d="M579.14,48h2.72v2.82H582a4.89,4.89,0,0,1,2-2.44,5.93,5.93,0,0,1,3.14-.79,6.69,6.69,0,0,1,3,.64A6.58,6.58,0,0,1,592.35,50a8.5,8.5,0,0,1,1.43,2.89,15.06,15.06,0,0,1,0,7.62,8.59,8.59,0,0,1-1.43,2.89,6.44,6.44,0,0,1-2.26,1.83,6.7,6.7,0,0,1-3,.65A5.31,5.31,0,0,1,582,62.68h-.14V72.3h-2.72Zm7.24,15.53A4.67,4.67,0,0,0,590,62a5.46,5.46,0,0,0,1.33-3.81v-3A5.46,5.46,0,0,0,590,51.41,4.71,4.71,0,0,0,586.38,50a6,6,0,0,0-1.75.26,4.71,4.71,0,0,0-1.44.7,3.33,3.33,0,0,0-1,1.08,2.67,2.67,0,0,0-.36,1.34v6.57a3.16,3.16,0,0,0,.36,1.52,3.37,3.37,0,0,0,1,1.12,4.31,4.31,0,0,0,1.44.71A6.72,6.72,0,0,0,586.38,63.49Z"/><path d="M609.12,48h2.69L604,69.58a8.58,8.58,0,0,1-.61,1.31,2.42,2.42,0,0,1-.75.83,2.82,2.82,0,0,1-1.1.44,8.2,8.2,0,0,1-1.62.14h-1.39V69.89h2.75l1.33-3.74L596,48h2.72l4.21,11.91.82,2.85h.17l1-2.85Z"/><path d="M615.14,48h2.73V55.3h3.5l3.4-5.37a7.07,7.07,0,0,1,.71-1,3.05,3.05,0,0,1,.68-.6,2.47,2.47,0,0,1,.72-.29,3.58,3.58,0,0,1,.84-.08h1.6v2.41h-2.1l-2.76,4.33c-.18.29-.34.53-.47.71a3.73,3.73,0,0,1-.41.45,1.9,1.9,0,0,1-.45.31,3.59,3.59,0,0,1-.57.22v.13a2.93,2.93,0,0,1,1.24.46,4,4,0,0,1,1.1,1.37l2.69,4.74h2V65.5h-2A2.93,2.93,0,0,1,626,65a4.47,4.47,0,0,1-1.41-1.68l-3.23-5.75h-3.5V65.5h-2.73Z"/><path d="M639.85,65.91a7.93,7.93,0,0,1-3.23-.65,7.13,7.13,0,0,1-2.5-1.85,8.72,8.72,0,0,1-1.61-2.89,12.64,12.64,0,0,1,0-7.57,8.58,8.58,0,0,1,1.61-2.9,7.15,7.15,0,0,1,2.5-1.86,7.93,7.93,0,0,1,3.23-.64,7.85,7.85,0,0,1,3.22.64,7.34,7.34,0,0,1,2.5,1.86A8.61,8.61,0,0,1,647.2,53a12.64,12.64,0,0,1,0,7.57,8.76,8.76,0,0,1-1.63,2.89,7.31,7.31,0,0,1-2.5,1.85A7.85,7.85,0,0,1,639.85,65.91Zm0-2.42a4.93,4.93,0,0,0,3.61-1.36A5.54,5.54,0,0,0,644.85,58V55.47a5.56,5.56,0,0,0-1.39-4.15,5.46,5.46,0,0,0-7.21,0,5.56,5.56,0,0,0-1.39,4.15V58a5.54,5.54,0,0,0,1.39,4.14A4.93,4.93,0,0,0,639.85,63.49Z"/><path d="M651.92,48h8.84a4.59,4.59,0,0,1,3.36,1.2,4.36,4.36,0,0,1,1.23,3.25c0,2.2-1.15,3.43-3.44,3.71v.13a4.43,4.43,0,0,1,3,1.28,3.91,3.91,0,0,1,1,2.73,6.05,6.05,0,0,1-.33,2,4.87,4.87,0,0,1-.93,1.67,4.74,4.74,0,0,1-1.5,1.14,4.59,4.59,0,0,1-2,.42h-9.28ZM660,55.3a2.55,2.55,0,0,0,1.75-.56,2,2,0,0,0,.63-1.62v-.74a2,2,0,0,0-.63-1.62A2.55,2.55,0,0,0,660,50.2h-5.4v5.1Zm.34,8a2.79,2.79,0,0,0,1.94-.65,2.33,2.33,0,0,0,.71-1.84V60a2.32,2.32,0,0,0-.71-1.83,2.79,2.79,0,0,0-1.94-.65h-5.74v5.75Z"/><path d="M677.19,65.91a7.88,7.88,0,0,1-3.22-.65,7,7,0,0,1-2.5-1.85,8.74,8.74,0,0,1-1.62-2.89,12.64,12.64,0,0,1,0-7.57,8.6,8.6,0,0,1,1.62-2.9,7,7,0,0,1,2.5-1.86,8.42,8.42,0,0,1,6.44,0,7.34,7.34,0,0,1,2.5,1.86,8.61,8.61,0,0,1,1.63,2.9,12.64,12.64,0,0,1,0,7.57,8.76,8.76,0,0,1-1.63,2.89,7.31,7.31,0,0,1-2.5,1.85A7.85,7.85,0,0,1,677.19,65.91Zm0-2.42a4.93,4.93,0,0,0,3.61-1.36A5.54,5.54,0,0,0,682.19,58V55.47a5.56,5.56,0,0,0-1.39-4.15,5.46,5.46,0,0,0-7.21,0,5.56,5.56,0,0,0-1.39,4.15V58a5.54,5.54,0,0,0,1.39,4.14A4.93,4.93,0,0,0,677.19,63.49Z"/><path d="M689,56.63V53.7h8.87v2.93Z"/><path d="M576.52,91.09h2a15.17,15.17,0,0,0,1.7-4.24,23.89,23.89,0,0,0,.64-5.84V76h11.87V91.09h2.92v7.17h-2.48V93.5H579v4.76h-2.48Zm13.5,0V78.37h-6.56v2.81a25.25,25.25,0,0,1-.6,5.93,16.53,16.53,0,0,1-1.41,4Z"/><path d="M599.15,76h2.65v9.72l-.27,4.22h.14l2.17-3.74,7-10.2h2.51V93.5h-2.65V83.78l.27-4.22h-.13l-2.18,3.74-7,10.2h-2.52Z"/><path d="M622.74,78.37h-6V76h14.69v2.41h-6V93.5h-2.72Z"/><path d="M641.3,93.91a7.84,7.84,0,0,1-3.24-.65,7,7,0,0,1-2.48-1.85,8.37,8.37,0,0,1-1.6-2.89A13.07,13.07,0,0,1,634,81a8.23,8.23,0,0,1,1.6-2.9,7,7,0,0,1,2.48-1.86,7.84,7.84,0,0,1,3.24-.64,7.48,7.48,0,0,1,3.17.64A7.12,7.12,0,0,1,646.85,78a8.13,8.13,0,0,1,1.51,2.69,10.68,10.68,0,0,1,.53,3.43v1.28H636.27v.82a6,6,0,0,0,.36,2.09,4.92,4.92,0,0,0,1,1.68,4.76,4.76,0,0,0,1.63,1.13,5.66,5.66,0,0,0,2.19.4,5.34,5.34,0,0,0,2.91-.78,5.1,5.1,0,0,0,1.92-2.24l1.94,1.4a6.85,6.85,0,0,1-2.65,2.93A8,8,0,0,1,641.3,93.91Zm0-16.08a5.22,5.22,0,0,0-2,.39,4.57,4.57,0,0,0-1.58,1.09,5.21,5.21,0,0,0-1,1.68,5.74,5.74,0,0,0-.38,2.11v.23H646V83a5.32,5.32,0,0,0-1.27-3.73A4.34,4.34,0,0,0,641.3,77.83Z"/><path d="M651,91.09h2.32a7.4,7.4,0,0,0,.78-1.46,12.68,12.68,0,0,0,.58-2,27.37,27.37,0,0,0,.37-2.81c.09-1.09.14-2.37.14-3.84V76H667V93.5h-2.72V78.37h-6.56v2.68a44.06,44.06,0,0,1-.19,4.44,23.15,23.15,0,0,1-.51,3.26,9.82,9.82,0,0,1-.76,2.22,5.53,5.53,0,0,1-.95,1.38,3.67,3.67,0,0,1-1.43.9,6.09,6.09,0,0,1-1.87.25H651Z"/><path d="M686.63,93.91a7.07,7.07,0,0,1-5.39-2.18,9.44,9.44,0,0,1-2.3-6.12h-4V93.5h-2.72V76H675V83.3h4a9,9,0,0,1,2.36-5.73,7.11,7.11,0,0,1,5.26-2,7.75,7.75,0,0,1,3.16.63,6.77,6.77,0,0,1,2.43,1.8,8.31,8.31,0,0,1,1.55,2.87,14.17,14.17,0,0,1,0,7.75,8.27,8.27,0,0,1-1.55,2.88,6.77,6.77,0,0,1-2.43,1.8A7.75,7.75,0,0,1,686.63,93.91Zm0-2.42a4.67,4.67,0,0,0,3.46-1.29,5.74,5.74,0,0,0,1.3-4.21V83.47a5.78,5.78,0,0,0-1.3-4.22,5.3,5.3,0,0,0-6.93,0,5.82,5.82,0,0,0-1.29,4.22V86a5.78,5.78,0,0,0,1.29,4.21A4.69,4.69,0,0,0,686.63,91.49Z"/><path d="M583.74,135.6h-.08a4.5,4.5,0,0,1-1.07.27,8.7,8.7,0,0,1-1.4.1,3.47,3.47,0,0,1-4-4v-3.17h1.34V132a2.88,2.88,0,0,0,.68,2.13,2.84,2.84,0,0,0,2,.65,10.28,10.28,0,0,0,1.44-.09,5.23,5.23,0,0,0,1.06-.27v-5.59h1.34V140h-1.34Z"/><path d="M593.78,140a1.27,1.27,0,0,1-1-.38,1.88,1.88,0,0,1-.39-1h-.08a2.14,2.14,0,0,1-.9,1.15,2.82,2.82,0,0,1-1.49.38,2.9,2.9,0,0,1-2-.67,2.38,2.38,0,0,1-.72-1.82,2.1,2.1,0,0,1,.85-1.8,4.61,4.61,0,0,1,2.67-.62h1.63v-.82a1.79,1.79,0,0,0-.48-1.34,2,2,0,0,0-1.47-.46,2.27,2.27,0,0,0-1.26.33,2.8,2.8,0,0,0-.84.9l-.77-.72a3,3,0,0,1,1.08-1.15,3.39,3.39,0,0,1,1.85-.47,3.44,3.44,0,0,1,2.34.74,2.59,2.59,0,0,1,.83,2v4.53h.94V140Zm-3.68-.9A3,3,0,0,0,591,139a2,2,0,0,0,.69-.32,1.7,1.7,0,0,0,.45-.48,1.11,1.11,0,0,0,.16-.59v-1.36h-1.7a3.16,3.16,0,0,0-1.61.32,1,1,0,0,0-.5.93v.33a1.14,1.14,0,0,0,.44,1A1.93,1.93,0,0,0,590.1,139.1Z"/><path d="M598,132.88h-2.81v-1.14h6.91v1.14h-2.81V140H598Z"/><path d="M607.56,128.83h6.08V130H608.9v10h-1.34Z"/><path d="M615.45,128.83h8.11V140h-1.35V130h-5.42v10h-1.34Z"/><path d="M630.22,130v10h-1.34V130h-3.55v-1.19h8.44V130Z"/><path d="M31,37.58H63.4V82.25H58V42.31H36.33V82.25H31Z"/><path d="M85.85,83a14.87,14.87,0,0,1-6.08-1.22,13.06,13.06,0,0,1-4.7-3.49,16.07,16.07,0,0,1-3-5.44,23.8,23.8,0,0,1,0-14.24,16.21,16.21,0,0,1,3-5.47,13.29,13.29,0,0,1,4.7-3.49,14.87,14.87,0,0,1,6.08-1.21,14.69,14.69,0,0,1,6.05,1.21,13.66,13.66,0,0,1,4.7,3.49,16.12,16.12,0,0,1,3.08,5.47,24,24,0,0,1,0,14.24,16,16,0,0,1-3.08,5.44,13.41,13.41,0,0,1-4.7,3.49A14.7,14.7,0,0,1,85.85,83Zm0-4.55a9.29,9.29,0,0,0,6.78-2.56q2.63-2.55,2.63-7.8V63.37q0-5.25-2.63-7.81a10.26,10.26,0,0,0-13.56,0q-2.62,2.56-2.63,7.81v4.74q0,5.25,2.63,7.8A9.29,9.29,0,0,0,85.85,78.47Z"/><path d="M103.68,77.71h3.77a28.37,28.37,0,0,0,3.2-8,44.79,44.79,0,0,0,1.22-11V49.23H134.2V77.71h5.51v13.5H135v-9H108.35v9h-4.67Zm25.4,0V53.77H116.73v5.28a47.9,47.9,0,0,1-1.12,11.18A32,32,0,0,1,113,77.71Z"/><path d="M158.09,83A14.91,14.91,0,0,1,152,81.8a13.06,13.06,0,0,1-4.7-3.49,16.24,16.24,0,0,1-3-5.44,23.8,23.8,0,0,1,0-14.24,16.39,16.39,0,0,1,3-5.47,13.29,13.29,0,0,1,4.7-3.49,14.9,14.9,0,0,1,6.08-1.21,14.66,14.66,0,0,1,6,1.21,13.66,13.66,0,0,1,4.7,3.49,16.12,16.12,0,0,1,3.08,5.47,23.8,23.8,0,0,1,0,14.24,16,16,0,0,1-3.08,5.44,13.41,13.41,0,0,1-4.7,3.49A14.66,14.66,0,0,1,158.09,83Zm0-4.55a9.3,9.3,0,0,0,6.79-2.56q2.63-2.55,2.62-7.8V63.37q0-5.25-2.62-7.81a10.27,10.27,0,0,0-13.57,0q-2.62,2.56-2.63,7.81v4.74q0,5.25,2.63,7.8A9.29,9.29,0,0,0,158.09,78.47Z"/><path d="M193.59,83a16.06,16.06,0,0,1-6.21-1.15,11.58,11.58,0,0,1-4.67-3.59,17.42,17.42,0,0,1-3-6.3,36.27,36.27,0,0,1-1-9.38,68.46,68.46,0,0,1,.92-12.16,23.59,23.59,0,0,1,3-8.32,13.21,13.21,0,0,1,5.22-4.89,20.55,20.55,0,0,1,7.71-2l10.37-.83v5.18l-11,.9a15.33,15.33,0,0,0-4.74,1.09A7.51,7.51,0,0,0,187,44.14,13.21,13.21,0,0,0,185,48.78a47.33,47.33,0,0,0-1,7.17h.26a11.74,11.74,0,0,1,3.81-5.06,10.39,10.39,0,0,1,6.17-1.66,14.14,14.14,0,0,1,5.76,1.15,12.63,12.63,0,0,1,4.48,3.29A15.35,15.35,0,0,1,207.44,59a22.53,22.53,0,0,1,1.06,7.2A20.24,20.24,0,0,1,207.41,73a16.14,16.14,0,0,1-3.07,5.32,13.62,13.62,0,0,1-4.71,3.45A14.65,14.65,0,0,1,193.59,83Zm.25-4.55a10,10,0,0,0,3.65-.64,7.6,7.6,0,0,0,2.88-1.92,9.19,9.19,0,0,0,1.92-3.13,12.24,12.24,0,0,0,.71-4.35v-4q0-5.37-2.63-8a9.56,9.56,0,0,0-7-2.62q-4.61,0-6.88,2.27A8,8,0,0,0,184.18,62v5.89q0,5.37,2.62,8A9.52,9.52,0,0,0,193.84,78.47Z"/><path d="M215.81,49.23h5.12v5.31h.25A9.27,9.27,0,0,1,224.93,50a11.24,11.24,0,0,1,5.92-1.49,12.57,12.57,0,0,1,5.57,1.21,12.23,12.23,0,0,1,4.25,3.46,15.93,15.93,0,0,1,2.69,5.44,28.1,28.1,0,0,1,0,14.34,16,16,0,0,1-2.69,5.44,12.09,12.09,0,0,1-4.25,3.45A12.58,12.58,0,0,1,230.85,83a10,10,0,0,1-9.67-6.08h-.25V95.05h-5.12Zm13.63,29.24a8.83,8.83,0,0,0,6.85-2.73,10.23,10.23,0,0,0,2.49-7.17V62.91a10.23,10.23,0,0,0-2.49-7.17A8.8,8.8,0,0,0,229.44,53a10.94,10.94,0,0,0-3.3.49,9.42,9.42,0,0,0-2.72,1.31,6.52,6.52,0,0,0-1.82,2,5.05,5.05,0,0,0-.67,2.54V71.72a5.92,5.92,0,0,0,.67,2.86,6.54,6.54,0,0,0,1.82,2.13A8.49,8.49,0,0,0,226.14,78,12,12,0,0,0,229.44,78.47Z"/><path d="M276.29,82.25a5,5,0,0,1-4.13-1.54,7.57,7.57,0,0,1-1.57-3.84h-.32a8.51,8.51,0,0,1-3.58,4.61,11.11,11.11,0,0,1-6,1.54q-5.24,0-8.16-2.69a9.44,9.44,0,0,1-2.91-7.3,8.3,8.3,0,0,1,3.43-7.16q3.42-2.51,10.65-2.5h6.53V60.11a7.14,7.14,0,0,0-1.92-5.38q-1.92-1.86-5.89-1.86a8.82,8.82,0,0,0-5,1.35,10.91,10.91,0,0,0-3.36,3.58L251,54.92a11.58,11.58,0,0,1,4.29-4.57,13.47,13.47,0,0,1,7.42-1.89q6,0,9.34,2.94a10.31,10.31,0,0,1,3.33,8.17V77.71h3.78v4.54Zm-14.72-3.58a13,13,0,0,0,3.52-.45,8.84,8.84,0,0,0,2.75-1.28A6.48,6.48,0,0,0,269.63,75a4.58,4.58,0,0,0,.64-2.37V67.21h-6.78c-2.95,0-5.09.43-6.44,1.28a4.13,4.13,0,0,0-2,3.71v1.35a4.44,4.44,0,0,0,1.76,3.77A7.64,7.64,0,0,0,261.57,78.67Z"/><path d="M292.13,53.77H280.86V49.23h27.65v4.54H297.25V82.25h-5.12Z"/><path d="M314.42,49.23h5.12v11.9h9.4A11,11,0,0,1,336.88,64a10.25,10.25,0,0,1,2.94,7.76q0,5-2.88,7.77T329,82.25H314.42Zm13.82,28.48a7.87,7.87,0,0,0,4.48-1.09,4,4,0,0,0,1.6-3.62V70.32a4,4,0,0,0-1.6-3.59,8.13,8.13,0,0,0-4.48-1.06h-8.7v12Z"/><path d="M30.44,103.23h6.72l10.05,17.15h.25l10-17.15H64.1v33h-5V109.37h-.32L56.94,113l-9.67,16.39L37.61,113l-1.86-3.58h-.32v26.88h-5Z"/><path d="M86.36,137a14.81,14.81,0,0,1-6.11-1.22,13.13,13.13,0,0,1-4.67-3.49,16,16,0,0,1-3-5.44,24.44,24.44,0,0,1,0-14.24,16.16,16.16,0,0,1,3-5.47,13.37,13.37,0,0,1,4.67-3.49,14.81,14.81,0,0,1,6.11-1.21,14,14,0,0,1,6,1.21A13.39,13.39,0,0,1,96.8,107a14.92,14.92,0,0,1,2.84,5.07,20,20,0,0,1,1,6.44V121H76.89v1.54a11.52,11.52,0,0,0,.67,3.94,9.37,9.37,0,0,0,1.92,3.16,9,9,0,0,0,3.07,2.12,10.63,10.63,0,0,0,4.13.76A10.09,10.09,0,0,0,92.16,131a9.68,9.68,0,0,0,3.61-4.22l3.65,2.64a12.78,12.78,0,0,1-5,5.51A15.1,15.1,0,0,1,86.36,137Zm0-30.27a9.77,9.77,0,0,0-3.84.73,8.64,8.64,0,0,0-3,2.07,9.81,9.81,0,0,0-2,3.14,11.13,11.13,0,0,0-.7,4v.44H95.13v-.7a10,10,0,0,0-2.4-7A8.19,8.19,0,0,0,86.36,106.75Z"/><path d="M115.26,107.77H104v-4.54h27.65v4.54H120.38v28.48h-5.12Z"/><path d="M162.22,136.25a5,5,0,0,1-4.13-1.54,7.57,7.57,0,0,1-1.57-3.84h-.32a8.53,8.53,0,0,1-3.59,4.61,11.05,11.05,0,0,1-6,1.54q-5.25,0-8.16-2.69a9.44,9.44,0,0,1-2.91-7.3,8.32,8.32,0,0,1,3.42-7.16q3.44-2.5,10.66-2.5h6.53v-3.26a7.14,7.14,0,0,0-1.92-5.38q-1.92-1.86-5.89-1.86a8.8,8.8,0,0,0-5,1.35A10.91,10.91,0,0,0,140,111.8l-3.08-2.88a11.73,11.73,0,0,1,4.29-4.57,13.5,13.5,0,0,1,7.43-1.89q6,0,9.34,2.94a10.31,10.31,0,0,1,3.33,8.17v18.14h3.77v4.54Zm-14.72-3.58a12.92,12.92,0,0,0,3.51-.45,8.79,8.79,0,0,0,2.76-1.28,6.61,6.61,0,0,0,1.79-1.92,4.68,4.68,0,0,0,.64-2.37v-5.44h-6.78c-2.95,0-5.09.43-6.44,1.28a4.13,4.13,0,0,0-2,3.71v1.35a4.44,4.44,0,0,0,1.76,3.77A7.64,7.64,0,0,0,147.5,132.67Z"/><path d="M187.61,132.79h-.19a11.46,11.46,0,0,1-2.95,3.08,7.06,7.06,0,0,1-4.09,1.15q-5.56,0-8.26-4.19t-2.69-13.09q0-8.89,2.69-13.09t8.26-4.19a7,7,0,0,1,4.09,1.15,11.41,11.41,0,0,1,2.95,3.07h.19V90.81h5.12v15.87h.19a11.26,11.26,0,0,1,3-3.07,7,7,0,0,1,4.09-1.15q5.56,0,8.26,4.19t2.69,13.09q0,8.89-2.69,13.09T200,137a7,7,0,0,1-4.09-1.15,11.31,11.31,0,0,1-3-3.08h-.19v16.26h-5.12Zm-5.89-.32q6,0,5.95-4.48V111.48c0-3-2-4.48-5.95-4.48q-3.58,0-5.18,2.27t-1.6,7.65v5.63q0,5.39,1.6,7.65C177.6,131.72,179.33,132.47,181.72,132.47Zm16.9,0a5.9,5.9,0,0,0,5.15-2.27q1.64-2.26,1.63-7.65v-5.63q0-5.37-1.63-7.65a5.93,5.93,0,0,0-5.15-2.27c-4,0-6,1.5-6,4.48V128Q192.67,132.48,198.62,132.47Z"/><path d="M231.51,137a14.94,14.94,0,0,1-6.08-1.22,13.06,13.06,0,0,1-4.7-3.49,16.24,16.24,0,0,1-3-5.44,23.8,23.8,0,0,1,0-14.24,16.39,16.39,0,0,1,3-5.47,13.29,13.29,0,0,1,4.7-3.49,14.94,14.94,0,0,1,6.08-1.21,14.66,14.66,0,0,1,6.05,1.21,13.79,13.79,0,0,1,4.71,3.49,16.27,16.27,0,0,1,3.07,5.47,23.8,23.8,0,0,1,0,14.24,16.12,16.12,0,0,1-3.07,5.44,13.54,13.54,0,0,1-4.71,3.49A14.66,14.66,0,0,1,231.51,137Zm0-4.55a9.3,9.3,0,0,0,6.79-2.56q2.63-2.55,2.62-7.8v-4.74q0-5.25-2.62-7.81a10.27,10.27,0,0,0-13.57,0q-2.62,2.56-2.62,7.81v4.74q0,5.25,2.62,7.8A9.29,9.29,0,0,0,231.51,132.47Z"/><path d="M253.73,103.23h5.12v5.31h.26a9.25,9.25,0,0,1,3.74-4.59,11.29,11.29,0,0,1,5.92-1.49,12.54,12.54,0,0,1,5.57,1.21,12.27,12.27,0,0,1,4.26,3.46,15.93,15.93,0,0,1,2.69,5.44,28.4,28.4,0,0,1,0,14.34,16,16,0,0,1-2.69,5.44,12.13,12.13,0,0,1-4.26,3.45,12.55,12.55,0,0,1-5.57,1.22,10,10,0,0,1-9.66-6.08h-.26v18.11h-5.12Zm13.64,29.24a8.79,8.79,0,0,0,6.84-2.73,10.19,10.19,0,0,0,2.5-7.17v-5.66a10.19,10.19,0,0,0-2.5-7.17,8.77,8.77,0,0,0-6.84-2.74,10.89,10.89,0,0,0-3.3.49,9.29,9.29,0,0,0-2.72,1.31,6.28,6.28,0,0,0-1.82,2,5.06,5.06,0,0,0-.68,2.54v12.35a5.93,5.93,0,0,0,.68,2.86,6.31,6.31,0,0,0,1.82,2.13,8.39,8.39,0,0,0,2.72,1.31A11.9,11.9,0,0,0,267.37,132.47Z"/><path d="M309.66,103.23h5l-14.78,40.7a18,18,0,0,1-1.15,2.46,4.8,4.8,0,0,1-1.41,1.57,5.53,5.53,0,0,1-2.08.83,15.44,15.44,0,0,1-3,.26h-2.63v-4.54h5.19l2.49-7L285,103.23h5.12L298,125.65l1.54,5.36h.31l1.8-5.36Z"/><path d="M25.51,185.71h3.78a28.37,28.37,0,0,0,3.2-8,44.82,44.82,0,0,0,1.21-11v-9.51H56v28.48h5.5v13.5H56.87v-9H30.18v9H25.51Zm25.41,0V161.77H38.57v5.28a48.44,48.44,0,0,1-1.12,11.18,32,32,0,0,1-2.66,7.48Z"/><path d="M65.38,185.71h4.35A13.12,13.12,0,0,0,71.2,183a21.71,21.71,0,0,0,1.09-3.83,47.2,47.2,0,0,0,.7-5.3q.26-3.06.26-7.22v-9.38H95.59v33H90.47V161.77H78.11v5q0,4.78-.35,8.36a45.12,45.12,0,0,1-1,6.13,19.39,19.39,0,0,1-1.44,4.18,10,10,0,0,1-1.79,2.59,6.75,6.75,0,0,1-2.69,1.69,11.39,11.39,0,0,1-3.52.48h-2Z"/><path d="M102.58,185.71h3.65l2.11-4.83a6.48,6.48,0,0,1,1.73-2.51,4.61,4.61,0,0,1,2.3-1.05v-.25a8.8,8.8,0,0,1-8.9-9.6,9.84,9.84,0,0,1,2.88-7.52c1.92-1.82,4.57-2.72,7.94-2.72h14.59v33h-5.12V177.58h-8.57l-3.46,8.13a8.13,8.13,0,0,1-2.53,3.61,5.39,5.39,0,0,1-3.1.93h-3.52Zm21.18-12.48V161.77h-8.7a7.93,7.93,0,0,0-4.48,1.08,4,4,0,0,0-1.6,3.63v2.1a4,4,0,0,0,1.6,3.6,8.11,8.11,0,0,0,4.48,1Z"/><path d="M167.15,191a15.18,15.18,0,0,1-6.2-1.22,12.58,12.58,0,0,1-4.64-3.45,15.45,15.45,0,0,1-2.88-5.44,26.2,26.2,0,0,1,0-14.34,15.36,15.36,0,0,1,2.88-5.44,12.72,12.72,0,0,1,4.64-3.46,15.18,15.18,0,0,1,6.2-1.21,12.29,12.29,0,0,1,12.36,7.74l-4.29,2.18a7.77,7.77,0,0,0-2.95-4,8.8,8.8,0,0,0-5.12-1.41,10.24,10.24,0,0,0-4,.74,7.84,7.84,0,0,0-2.88,2,8.67,8.67,0,0,0-1.73,3.13,13.38,13.38,0,0,0-.57,4v5.63a10.76,10.76,0,0,0,2.33,7.14c1.56,1.86,3.85,2.78,6.88,2.78a9.28,9.28,0,0,0,9-5.76l3.72,2.5a13.18,13.18,0,0,1-4.77,5.7A14,14,0,0,1,167.15,191Z"/><path d="M183.33,185.71h4.35a12.69,12.69,0,0,0,1.48-2.75,21.76,21.76,0,0,0,1.08-3.83,47,47,0,0,0,.71-5.3q.26-3.06.25-7.22v-9.38h22.34v33h-5.12V161.77H196.07v5q0,4.78-.35,8.36a48.49,48.49,0,0,1-1,6.13,19.39,19.39,0,0,1-1.44,4.18,10.28,10.28,0,0,1-1.8,2.59,6.71,6.71,0,0,1-2.68,1.69,11.48,11.48,0,0,1-3.52.48h-2Z"/><path d="M235.79,191a14.91,14.91,0,0,1-6.08-1.22,13.06,13.06,0,0,1-4.7-3.49,16.24,16.24,0,0,1-3-5.44,23.8,23.8,0,0,1,0-14.24,16.39,16.39,0,0,1,3-5.47,13.29,13.29,0,0,1,4.7-3.49,14.9,14.9,0,0,1,6.08-1.21,14.66,14.66,0,0,1,6.05,1.21,13.66,13.66,0,0,1,4.7,3.49,16.12,16.12,0,0,1,3.08,5.47,24,24,0,0,1,0,14.24,16,16,0,0,1-3.08,5.44,13.41,13.41,0,0,1-4.7,3.49A14.66,14.66,0,0,1,235.79,191Zm0-4.55a9.3,9.3,0,0,0,6.79-2.56q2.63-2.55,2.62-7.8v-4.74q0-5.25-2.62-7.81a10.27,10.27,0,0,0-13.57,0q-2.62,2.56-2.63,7.81v4.74q0,5.25,2.63,7.8A9.29,9.29,0,0,0,235.79,186.47Z"/><path d="M254.55,185.71h3.84l3.71-8.85a6.28,6.28,0,0,1,1.73-2.49,4.74,4.74,0,0,1,2.3-1v-.25a5.73,5.73,0,0,1-2.24-1.27,7.72,7.72,0,0,1-1.66-2.49l-3.39-7.57H255v-4.54h3a5.92,5.92,0,0,1,3.36,1,7.06,7.06,0,0,1,2.4,3.07l4.41,9.79h5.89V157.23h5.12v13.82h5.89l4.41-9.79a7.06,7.06,0,0,1,2.4-3.07,5.93,5.93,0,0,1,3.37-1h3v4.54h-3.84L291,169.34a7.56,7.56,0,0,1-1.66,2.49,5.73,5.73,0,0,1-2.24,1.27v.25a4.74,4.74,0,0,1,2.3,1,6.28,6.28,0,0,1,1.73,2.49l3.71,8.85h3.84v4.54h-3.65a5.53,5.53,0,0,1-3.13-.93,7.66,7.66,0,0,1-2.5-3.55l-4.35-10.37h-5.89v14.85h-5.12V175.4h-5.89l-4.35,10.37a7.72,7.72,0,0,1-2.49,3.55,5.59,5.59,0,0,1-3.14.93h-3.65Z"/><path d="M305.17,157.23h5.12v13.69H326.8V157.23h5.12v33H326.8V175.47H310.29v14.78h-5.12Z"/><path d="M354.17,191a14.91,14.91,0,0,1-6.08-1.22,13.06,13.06,0,0,1-4.7-3.49,16.24,16.24,0,0,1-3-5.44,23.8,23.8,0,0,1,0-14.24,16.39,16.39,0,0,1,3-5.47,13.29,13.29,0,0,1,4.7-3.49,14.9,14.9,0,0,1,6.08-1.21,14.66,14.66,0,0,1,6.05,1.21,13.66,13.66,0,0,1,4.7,3.49,16.12,16.12,0,0,1,3.08,5.47,24,24,0,0,1,0,14.24,16,16,0,0,1-3.08,5.44,13.41,13.41,0,0,1-4.7,3.49A14.66,14.66,0,0,1,354.17,191Zm0-4.55a9.31,9.31,0,0,0,6.79-2.56q2.63-2.55,2.62-7.8v-4.74q0-5.25-2.62-7.81a10.27,10.27,0,0,0-13.57,0q-2.62,2.56-2.63,7.81v4.74q0,5.25,2.63,7.8A9.29,9.29,0,0,0,354.17,186.47Z"/><path d="M376.39,157.23h20.87v4.54H381.51v28.48h-5.12Z"/><path d="M415.45,191a14.87,14.87,0,0,1-6.08-1.22,13,13,0,0,1-4.71-3.49,16.41,16.41,0,0,1-3-5.44,23.8,23.8,0,0,1,0-14.24,16.56,16.56,0,0,1,3-5.47,13.24,13.24,0,0,1,4.71-3.49,14.87,14.87,0,0,1,6.08-1.21,14.64,14.64,0,0,1,6,1.21,13.7,13.7,0,0,1,4.71,3.49,16.27,16.27,0,0,1,3.07,5.47,23.8,23.8,0,0,1,0,14.24,16.12,16.12,0,0,1-3.07,5.44,13.45,13.45,0,0,1-4.71,3.49A14.65,14.65,0,0,1,415.45,191Zm0-4.55a9.29,9.29,0,0,0,6.78-2.56q2.63-2.55,2.62-7.8v-4.74q0-5.25-2.62-7.81a10.27,10.27,0,0,0-13.57,0q-2.62,2.56-2.62,7.81v4.74q0,5.25,2.62,7.8A9.3,9.3,0,0,0,415.45,186.47Z"/><path d="M37.54,215.77H26.28v-4.54H53.93v4.54H42.66v28.48H37.54Z"/><path d="M72,245a14.89,14.89,0,0,1-6.12-1.22,13.13,13.13,0,0,1-4.67-3.49,15.83,15.83,0,0,1-3-5.44,24.44,24.44,0,0,1,0-14.24,16,16,0,0,1,3-5.47,13.37,13.37,0,0,1,4.67-3.49A14.89,14.89,0,0,1,72,210.46,14,14,0,0,1,78,211.67,13.29,13.29,0,0,1,82.44,215a14.78,14.78,0,0,1,2.85,5.07,20,20,0,0,1,1,6.44V229H62.53v1.54a11.28,11.28,0,0,0,.68,3.94,9.22,9.22,0,0,0,1.92,3.16,8.78,8.78,0,0,0,3.07,2.12,10.59,10.59,0,0,0,4.13.76A10.06,10.06,0,0,0,77.8,239a9.7,9.7,0,0,0,3.62-4.22l3.64,2.64a12.72,12.72,0,0,1-5,5.51A15.09,15.09,0,0,1,72,245Zm0-30.27a9.7,9.7,0,0,0-3.84.73,8.59,8.59,0,0,0-3,2.07,9.79,9.79,0,0,0-1.95,3.14,10.92,10.92,0,0,0-.71,4v.44H80.77v-.7a10.08,10.08,0,0,0-2.39-7A8.22,8.22,0,0,0,72,214.75Z"/><path d="M93.5,211.23h5.12v5.31h.26a9.25,9.25,0,0,1,3.74-4.59,11.29,11.29,0,0,1,5.92-1.49,12.54,12.54,0,0,1,5.57,1.21,12.27,12.27,0,0,1,4.26,3.46,15.93,15.93,0,0,1,2.69,5.44,28.4,28.4,0,0,1,0,14.34,16,16,0,0,1-2.69,5.44,12.13,12.13,0,0,1-4.26,3.45,12.55,12.55,0,0,1-5.57,1.22,10,10,0,0,1-9.66-6.08h-.26v18.11H93.5Zm13.64,29.24a8.79,8.79,0,0,0,6.84-2.73,10.19,10.19,0,0,0,2.5-7.17v-5.66a10.19,10.19,0,0,0-2.5-7.17,8.77,8.77,0,0,0-6.84-2.74,10.85,10.85,0,0,0-3.3.49,9.29,9.29,0,0,0-2.72,1.31,6.28,6.28,0,0,0-1.82,2,5.06,5.06,0,0,0-.68,2.54v12.35a5.93,5.93,0,0,0,.68,2.86,6.31,6.31,0,0,0,1.82,2.13,8.39,8.39,0,0,0,2.72,1.31A11.85,11.85,0,0,0,107.14,240.47Z"/><path d="M129.52,211.23h6.72l10,17.15h.26l10-17.15h6.66v33h-5V217.37h-.32L156,221l-9.66,16.39L136.68,221l-1.85-3.58h-.32v26.88h-5Z"/><path d="M172.49,211.23h5v18.3l-.51,7.94h.25l4.1-7,13.18-19.2h4.74v33h-5V226l.51-7.94h-.26l-4.09,7-13.19,19.2h-4.73Z"/><path d="M208.58,211.23h5.12v13.69h16.51V211.23h5.12v33h-5.12V229.47H213.7v14.78h-5.12Z"/><path d="M269.1,244.25a5,5,0,0,1-4.13-1.54,7.66,7.66,0,0,1-1.57-3.84h-.32a8.51,8.51,0,0,1-3.58,4.61,11.07,11.07,0,0,1-5.95,1.54q-5.25,0-8.16-2.69a9.44,9.44,0,0,1-2.91-7.3,8.32,8.32,0,0,1,3.42-7.16q3.42-2.51,10.66-2.5h6.52v-3.26a7.14,7.14,0,0,0-1.92-5.38q-1.92-1.86-5.88-1.86a8.86,8.86,0,0,0-5,1.35,11.12,11.12,0,0,0-3.36,3.58l-3.07-2.88a11.65,11.65,0,0,1,4.29-4.57,13.49,13.49,0,0,1,7.42-1.89q6,0,9.35,2.94a10.34,10.34,0,0,1,3.32,8.17v18.14H272v4.54Zm-14.72-3.58a13,13,0,0,0,3.52-.45,8.73,8.73,0,0,0,2.75-1.28,6.35,6.35,0,0,0,1.79-1.92,4.58,4.58,0,0,0,.64-2.37v-5.44H256.3c-2.94,0-5.09.43-6.43,1.28a4.12,4.12,0,0,0-2,3.71v1.35a4.47,4.47,0,0,0,1.76,3.77A7.66,7.66,0,0,0,254.38,240.67Z"/><polygon points="576.25 226.25 576.25 333.75 708.75 333.75 708.75 343.75 718.75 343.75 718.75 353.75 728.75 353.75 728.75 343.75 728.75 333.75 728.75 226.25 576.25 226.25"/><path class="cls-1" d="M594.15,235q-5.05,0-7.7,3.42t-2.64,10q0,6.6,2.64,10t7.7,3.43a9.11,9.11,0,0,0,7.69-3.43q2.64-3.42,2.64-10t-2.64-10A9.13,9.13,0,0,0,594.15,235Zm3.24,19.43a3.66,3.66,0,0,1-6.49,0,17.33,17.33,0,0,1,0-12,3.66,3.66,0,0,1,6.49,0,17.33,17.33,0,0,1,0,12Z"/><path class="cls-1" d="M614.07,251.69h4a11,11,0,0,0,4.77-.95A7.4,7.4,0,0,0,626,248a7.6,7.6,0,0,0,1.12-4.17,8.09,8.09,0,0,0-1.12-4.35,7.53,7.53,0,0,0-3.13-2.83,10.61,10.61,0,0,0-4.77-1h-10v25.59h6Zm0-10.39h4a3.34,3.34,0,0,1,2.22.66,2.55,2.55,0,0,1,0,3.69,3.4,3.4,0,0,1-2.22.64h-4Z"/><polygon class="cls-1" points="648.29 256.11 637.35 256.11 637.35 251.02 647.01 251.02 647.01 246.03 637.35 246.03 637.35 240.76 648.61 240.76 648.61 235.64 631.34 235.64 631.34 261.23 648.29 261.23 648.29 256.11"/><polygon class="cls-1" points="657.79 250.9 657.41 240.34 658.04 240.34 662.24 261.23 671.51 261.23 671.51 235.64 666.36 235.64 666.36 245.97 666.75 256.52 666.11 256.52 661.91 235.64 652.64 235.64 652.64 261.23 657.79 261.23 657.79 250.9"/><path class="cls-1" d="M599.81,267.91a10.58,10.58,0,0,0-4.77-1H585v25.59h6V283h4a11,11,0,0,0,4.77-1,7.28,7.28,0,0,0,3.13-2.74,7.6,7.6,0,0,0,1.12-4.17,8.14,8.14,0,0,0-1.12-4.35A7.54,7.54,0,0,0,599.81,267.91Zm-2.13,9a3.4,3.4,0,0,1-2.22.64h-4v-5h4a3.34,3.34,0,0,1,2.22.66,2.27,2.27,0,0,1,.78,1.84A2.24,2.24,0,0,1,597.68,276.91Z"/><path class="cls-1" d="M622.61,281.68A7.53,7.53,0,0,0,625.7,279a7.08,7.08,0,0,0,1.1-3.93,8.29,8.29,0,0,0-1.09-4.33,7.3,7.3,0,0,0-3.05-2.85,10,10,0,0,0-4.59-1H607.74v25.59h6v-9.85H615l5.65,9.85h6.75L621.2,282.2A9.48,9.48,0,0,0,622.61,281.68Zm-8.86-9.12h4.09a3.15,3.15,0,0,1,2.16.69,2.37,2.37,0,0,1,.79,1.87A2.34,2.34,0,0,1,620,277a3.15,3.15,0,0,1-2.16.69h-4.09Z"/><path class="cls-1" d="M639.43,266.26q-5.05,0-7.69,3.43t-2.64,10q0,6.58,2.64,10t7.69,3.42q5.05,0,7.69-3.42t2.64-10q0-6.6-2.64-10T639.43,266.26Zm3.25,19.43a3.66,3.66,0,0,1-6.49,0,17.18,17.18,0,0,1,0-12,3.66,3.66,0,0,1,6.49,0,17.33,17.33,0,0,1,0,12Z"/><polygon class="cls-1" points="662.52 279.28 661.88 279.28 660.25 266.9 652.48 266.9 652.48 292.49 657.57 292.49 657.57 282.99 657.15 272.34 657.79 272.34 659.39 284.49 664.76 284.49 666.36 272.34 667 272.34 666.58 282.99 666.58 292.49 671.67 292.49 671.67 266.9 664.15 266.9 662.52 279.28"/><path class="cls-1" d="M690.8,267.91a10.61,10.61,0,0,0-4.77-1H676v25.59h6V283h4a11,11,0,0,0,4.77-1,7.34,7.34,0,0,0,3.13-2.74,7.6,7.6,0,0,0,1.12-4.17,8.14,8.14,0,0,0-1.12-4.35A7.6,7.6,0,0,0,690.8,267.91Zm-2.55,9a3.4,3.4,0,0,1-2.22.64h-4v-5h4a3.34,3.34,0,0,1,2.22.66,2.28,2.28,0,0,1,.79,1.84A2.25,2.25,0,0,1,688.25,276.91Z"/><polygon class="cls-1" points="697.22 266.9 697.22 272.63 704.36 272.63 704.36 292.49 710.37 292.49 710.37 272.63 717.5 272.63 717.5 266.9 697.22 266.9"/><polygon class="cls-1" points="585 303.89 591.27 303.89 591.27 318.02 585 318.02 585 323.75 603.55 323.75 603.55 318.02 597.28 318.02 597.28 303.89 603.55 303.89 603.55 298.16 585 298.16 585 303.89"/><polygon class="cls-1" points="621.07 308.5 621.46 319.05 620.82 319.05 616.63 298.17 607.35 298.17 607.35 323.75 612.5 323.75 612.5 313.42 612.12 302.87 612.76 302.87 616.95 323.75 626.22 323.75 626.22 298.17 621.07 298.17 621.07 308.5"/><path class="cls-1" d="M639.91,303a3.36,3.36,0,0,1,2.51,1,5.87,5.87,0,0,1,1.39,3h5.63a11.64,11.64,0,0,0-1.34-5.14,8,8,0,0,0-3.26-3.24,10.23,10.23,0,0,0-4.93-1.12q-5.08,0-7.72,3.42t-2.64,10q0,6.46,2.17,9.9a6.94,6.94,0,0,0,6.21,3.44,5.6,5.6,0,0,0,2.91-.71,3.52,3.52,0,0,0,1.6-2h1.31v2.14H649V310.06H639.3v5.25h4.45a4.63,4.63,0,0,1-.46,2.09,3.41,3.41,0,0,1-3.19,1.94,3.65,3.65,0,0,1-3.48-2q-1.1-2-1.09-6.36a12.73,12.73,0,0,1,1.1-6A3.55,3.55,0,0,1,639.91,303Z"/><polygon points="8.75 315 8.75 276.25 0 276.25 0 315 0 323.75 8.75 323.75 25 323.75 25 315 8.75 315"/><polygon points="8.75 8.75 8.75 47.5 0 47.5 0 8.75 0 0 8.75 0 25 0 25 8.75 8.75 8.75"/><polygon points="700 8.75 700 47.5 708.75 47.5 708.75 8.75 708.75 0 700 0 683.75 0 683.75 8.75 700 8.75"/></g></g></svg>