<svg xmlns="http://www.w3.org/2000/svg" viewBox="0 0 729.05 349.99"><defs><style>.cls-1{fill:#f7aa00;}</style></defs><title>svglight_1</title><g id="Слой_2" data-name="Слой 2"><g id="шаблон_копия2_" data-name="шаблон (копия2)"><rect class="cls-1" x="89.05" y="29.99" width="640" height="302.56"/><path d="M577.39,47h1v1h0a1.69,1.69,0,0,1,.7-.86,2.08,2.08,0,0,1,1.11-.28,2.41,2.41,0,0,1,1,.22,2.36,2.36,0,0,1,.79.65,3.05,3.05,0,0,1,.51,1,5.41,5.41,0,0,1,0,2.69,3.05,3.05,0,0,1-.51,1,2.24,2.24,0,0,1-.79.65,2.41,2.41,0,0,1-1,.23,1.87,1.87,0,0,1-1.81-1.14h0v3.39h-1ZM580,52.44a1.65,1.65,0,0,0,1.28-.51,1.92,1.92,0,0,0,.47-1.34V49.53a1.93,1.93,0,0,0-.47-1.35,1.65,1.65,0,0,0-1.28-.51,2.11,2.11,0,0,0-.62.09,1.52,1.52,0,0,0-.51.25,1.12,1.12,0,0,0-.34.38.88.88,0,0,0-.13.47v2.32a1.08,1.08,0,0,0,.13.54,1.26,1.26,0,0,0,.34.39,1.52,1.52,0,0,0,.51.25A2.11,2.11,0,0,0,580,52.44Z"/><path d="M586.79,53.3a2.8,2.8,0,0,1-1.14-.23,2.46,2.46,0,0,1-.88-.66,3,3,0,0,1-.56-1,4.22,4.22,0,0,1-.2-1.33,4.33,4.33,0,0,1,.2-1.34,3,3,0,0,1,.56-1,2.58,2.58,0,0,1,.88-.66,2.79,2.79,0,0,1,1.14-.22,2.67,2.67,0,0,1,1.12.22,2.51,2.51,0,0,1,.84.63,3.05,3.05,0,0,1,.54.95,3.89,3.89,0,0,1,.18,1.21v.45H585v.29a2.21,2.21,0,0,0,.12.74,1.83,1.83,0,0,0,.36.59,1.72,1.72,0,0,0,.58.4,1.94,1.94,0,0,0,.78.14,1.77,1.77,0,0,0,1.7-1.06l.68.49a2.37,2.37,0,0,1-.93,1A2.78,2.78,0,0,1,586.79,53.3Zm0-5.68a1.89,1.89,0,0,0-.72.14,1.53,1.53,0,0,0-.55.39,1.69,1.69,0,0,0-.37.59,2,2,0,0,0-.13.74v.08h3.42v-.13a1.88,1.88,0,0,0-.45-1.31A1.55,1.55,0,0,0,586.79,47.62Z"/><path d="M590.33,52.3H591a5.21,5.21,0,0,0,.6-1.5,8.42,8.42,0,0,0,.23-2.06V47h4.18V52.3h1v2.53h-.88V53.15h-5v1.68h-.88Zm4.76,0V47.81h-2.31v1a9.07,9.07,0,0,1-.21,2.1,6.23,6.23,0,0,1-.5,1.4Z"/><path d="M603.15,53.15a.92.92,0,0,1-.77-.29,1.47,1.47,0,0,1-.3-.72H602a1.58,1.58,0,0,1-.68.87,2.08,2.08,0,0,1-1.11.29,2.14,2.14,0,0,1-1.53-.51,1.74,1.74,0,0,1-.55-1.36,1.58,1.58,0,0,1,.64-1.35,3.45,3.45,0,0,1,2-.47H602V49a1.38,1.38,0,0,0-.36-1,1.57,1.57,0,0,0-1.11-.35,1.63,1.63,0,0,0-.94.26,2,2,0,0,0-.63.67l-.58-.54a2.21,2.21,0,0,1,.81-.86,2.47,2.47,0,0,1,1.39-.35,2.53,2.53,0,0,1,1.75.55A1.91,1.91,0,0,1,603,48.9v3.4h.71v.85Zm-2.76-.67a2.71,2.71,0,0,0,.66-.08,1.92,1.92,0,0,0,.52-.24,1.39,1.39,0,0,0,.33-.36.9.9,0,0,0,.13-.45v-1h-1.28a2.3,2.3,0,0,0-1.2.24.77.77,0,0,0-.38.7v.25a.85.85,0,0,0,.33.71A1.42,1.42,0,0,0,600.39,52.48Z"/><path d="M605.07,47h1v2.59h1.23l1.2-1.89a2.42,2.42,0,0,1,.26-.36,1.13,1.13,0,0,1,.24-.21.77.77,0,0,1,.25-.1,1.39,1.39,0,0,1,.3,0h.56v.85h-.74l-1,1.53c-.07.1-.12.19-.17.25a1.17,1.17,0,0,1-.15.16.53.53,0,0,1-.15.11l-.21.08v0a1,1,0,0,1,.44.17,1.25,1.25,0,0,1,.39.48l1,1.67h.71v.85h-.7a1,1,0,0,1-.57-.16,1.69,1.69,0,0,1-.5-.59l-1.14-2H606v2.78h-1Z"/><path d="M613.29,47.81h-2.11V47h5.18v.85h-2.11v5.34h-1Z"/><path d="M620,53.3a2.8,2.8,0,0,1-1.14-.23,2.38,2.38,0,0,1-.88-.66,2.82,2.82,0,0,1-.57-1,4,4,0,0,1-.21-1.33,4.05,4.05,0,0,1,.21-1.34,2.82,2.82,0,0,1,.57-1,2.49,2.49,0,0,1,.88-.66,2.79,2.79,0,0,1,1.14-.22,2.75,2.75,0,0,1,1.13.22,2.62,2.62,0,0,1,.89.66,3,3,0,0,1,.57,1,4.05,4.05,0,0,1,.21,1.34,4,4,0,0,1-.21,1.33,3,3,0,0,1-.57,1,2.5,2.5,0,0,1-.89.66A2.75,2.75,0,0,1,620,53.3Zm0-.86a1.74,1.74,0,0,0,1.27-.48,1.94,1.94,0,0,0,.49-1.46v-.89a2,2,0,0,0-.49-1.46,1.92,1.92,0,0,0-2.54,0,2,2,0,0,0-.49,1.46v.89a1.94,1.94,0,0,0,.49,1.46A1.74,1.74,0,0,0,620,52.44Z"/><path d="M624.37,47h1v1h0a1.69,1.69,0,0,1,.7-.86,2.08,2.08,0,0,1,1.11-.28,2.36,2.36,0,0,1,1,.22,2.3,2.3,0,0,1,.8.65,3.05,3.05,0,0,1,.51,1,5.41,5.41,0,0,1,0,2.69,3.05,3.05,0,0,1-.51,1,2.19,2.19,0,0,1-.8.65,2.37,2.37,0,0,1-1,.23,1.87,1.87,0,0,1-1.81-1.14h0v3.39h-1Zm2.56,5.48a1.65,1.65,0,0,0,1.28-.51,1.92,1.92,0,0,0,.47-1.34V49.53a1.93,1.93,0,0,0-.47-1.35,1.65,1.65,0,0,0-1.28-.51,2.06,2.06,0,0,0-.62.09,1.52,1.52,0,0,0-.51.25,1,1,0,0,0-.34.38.88.88,0,0,0-.13.47v2.32a1.08,1.08,0,0,0,.13.54,1.14,1.14,0,0,0,.34.39,1.52,1.52,0,0,0,.51.25A2.07,2.07,0,0,0,626.93,52.44Z"/><path d="M635.09,47H636l-2.78,7.63a3.59,3.59,0,0,1-.21.47.92.92,0,0,1-.26.29,1.11,1.11,0,0,1-.4.15,2.32,2.32,0,0,1-.57,0h-.49V54.7h1l.47-1.32L630.46,47h1l1.48,4.2.29,1h.06l.34-1Z"/><path d="M577.08,36.29V11.09h10A6.84,6.84,0,0,1,592.34,13a7.42,7.42,0,0,1,1.82,5.29,7.42,7.42,0,0,1-1.82,5.29,6.84,6.84,0,0,1-5.22,1.93h-7V36.29Zm3-13.43h7a4,4,0,0,0,2.8-.94,3.52,3.52,0,0,0,1-2.67V17.37a3.49,3.49,0,0,0-1-2.67,3.9,3.9,0,0,0-2.8-.94h-7Z"/><path d="M605.17,36.72a8.53,8.53,0,0,1-3.45-.68,7.5,7.5,0,0,1-2.63-2,9.06,9.06,0,0,1-1.7-3.07,12.6,12.6,0,0,1-.6-4,12.63,12.63,0,0,1,.6-4,8.87,8.87,0,0,1,1.7-3.09,7.38,7.38,0,0,1,2.63-2,8.37,8.37,0,0,1,3.45-.69,7.88,7.88,0,0,1,3.36.69,7.28,7.28,0,0,1,2.53,1.89,8.23,8.23,0,0,1,1.6,2.86,11.06,11.06,0,0,1,.56,3.63v1.37H599.83v.87a6.24,6.24,0,0,0,.38,2.22,5.19,5.19,0,0,0,1.08,1.78,5,5,0,0,0,1.73,1.2,6.16,6.16,0,0,0,2.33.43,5.71,5.71,0,0,0,3.09-.83,5.43,5.43,0,0,0,2-2.38l2.06,1.49a7.13,7.13,0,0,1-2.82,3.1A8.45,8.45,0,0,1,605.17,36.72Zm0-17.08a5.37,5.37,0,0,0-2.16.42,4.73,4.73,0,0,0-1.68,1.16A5.58,5.58,0,0,0,600.22,23a6.24,6.24,0,0,0-.39,2.24v.25h10.29V25.1a5.7,5.7,0,0,0-1.35-4A4.66,4.66,0,0,0,605.17,19.64Z"/><path d="M632.68,36.29h-15V17.66h2.89V33.73h8.78V17.66h2.89V33.73h3.1v7.62h-2.63Z"/><path d="M646,36.72a8.46,8.46,0,0,1-3.45-.68,7.62,7.62,0,0,1-2.64-2A9,9,0,0,1,638.23,31a12.6,12.6,0,0,1-.6-4,12.63,12.63,0,0,1,.6-4,8.86,8.86,0,0,1,1.69-3.09,7.5,7.5,0,0,1,2.64-2,8.3,8.3,0,0,1,3.45-.69,7.88,7.88,0,0,1,3.36.69,7.25,7.25,0,0,1,2.52,1.89,8.24,8.24,0,0,1,1.61,2.86,11.33,11.33,0,0,1,.56,3.63v1.37h-13.4v.87a6.47,6.47,0,0,0,.38,2.22,5.21,5.21,0,0,0,1.09,1.78,4.88,4.88,0,0,0,1.73,1.2,6.09,6.09,0,0,0,2.33.43,5.71,5.71,0,0,0,3.09-.83,5.56,5.56,0,0,0,2-2.38l2.06,1.49a7.25,7.25,0,0,1-2.82,3.1A8.47,8.47,0,0,1,646,36.72Zm0-17.08a5.42,5.42,0,0,0-2.17.42,4.82,4.82,0,0,0-1.68,1.16,5.56,5.56,0,0,0-1.1,1.78,6,6,0,0,0-.4,2.24v.25H651V25.1a5.71,5.71,0,0,0-1.36-4A4.63,4.63,0,0,0,646,19.64Z"/><path d="M658.49,17.66H673V36.29h-2.89V20.22h-8.77V36.29h-2.89Z"/><path d="M683.08,20.22h-6.36V17.66h15.6v2.56H686V36.29h-2.89Z"/><path d="M56.38,42.55H33.74V62.82H28.35V18h5.39V37.8H56.38V18h5.39V62.82H56.38Z"/><path d="M95.69,62.82a5,5,0,0,1-4.14-1.54A7.7,7.7,0,0,1,90,57.43h-.32a8.52,8.52,0,0,1-3.59,4.62,11.15,11.15,0,0,1-6,1.54c-3.51,0-6.23-.89-8.18-2.69A9.47,9.47,0,0,1,69,53.58a8.35,8.35,0,0,1,3.44-7.18q3.42-2.51,10.68-2.5h6.54V40.62a7.14,7.14,0,0,0-1.92-5.38c-1.29-1.24-3.25-1.86-5.91-1.86a8.83,8.83,0,0,0-5,1.34,11.11,11.11,0,0,0-3.37,3.6l-3.08-2.89a11.66,11.66,0,0,1,4.3-4.59A13.56,13.56,0,0,1,82.09,29q6,0,9.37,2.94a10.39,10.39,0,0,1,3.33,8.2V58.27h3.79v4.55ZM80.94,59.23a13,13,0,0,0,3.52-.45,8.79,8.79,0,0,0,2.76-1.28A6.43,6.43,0,0,0,89,55.57a4.53,4.53,0,0,0,.64-2.37V47.75h-6.8c-3,0-5.1.42-6.45,1.28a4.17,4.17,0,0,0-2,3.72V54.1a4.47,4.47,0,0,0,1.77,3.78A7.67,7.67,0,0,0,80.94,59.23Z"/><path d="M104.72,29.72h25.86v33.1h-5.13V34.27H109.86V62.82h-5.14Z"/><path d="M140,29.72h5V48.07l-.51,8h.25L148.8,49,162,29.72h4.74v33.1h-5V44.47l.51-7.95H162l-4.11,7.06L144.69,62.82H140Z"/><path d="M189,63.59a15.11,15.11,0,0,1-6.22-1.22,12.61,12.61,0,0,1-4.65-3.46,15.26,15.26,0,0,1-2.89-5.45,24,24,0,0,1-1-7.19,23.92,23.92,0,0,1,1-7.18,15.31,15.31,0,0,1,2.89-5.46,12.72,12.72,0,0,1,4.65-3.46A15.27,15.27,0,0,1,189,29a13.27,13.27,0,0,1,7.92,2.15,13,13,0,0,1,4.46,5.61l-4.3,2.18a7.83,7.83,0,0,0-2.95-4A8.86,8.86,0,0,0,189,33.5a10.26,10.26,0,0,0-4,.74,7.91,7.91,0,0,0-2.89,2,8.75,8.75,0,0,0-1.73,3.15,13.39,13.39,0,0,0-.58,4v5.64a10.77,10.77,0,0,0,2.34,7.16Q184.42,59,189,59a9.31,9.31,0,0,0,9-5.78l3.72,2.51a13.21,13.21,0,0,1-4.78,5.71A14,14,0,0,1,189,63.59Z"/><path d="M233.29,62.82a5,5,0,0,1-4.14-1.54,7.7,7.7,0,0,1-1.57-3.85h-.32a8.52,8.52,0,0,1-3.59,4.62,11.15,11.15,0,0,1-6,1.54c-3.5,0-6.23-.89-8.18-2.69a9.51,9.51,0,0,1-2.92-7.32A8.35,8.35,0,0,1,210,46.4q3.42-2.51,10.68-2.5h6.54V40.62a7.14,7.14,0,0,0-1.92-5.38c-1.29-1.24-3.25-1.86-5.9-1.86a8.87,8.87,0,0,0-5,1.34,11.11,11.11,0,0,0-3.37,3.6L208,35.43a11.66,11.66,0,0,1,4.3-4.59A13.56,13.56,0,0,1,219.69,29q6,0,9.37,2.94a10.39,10.39,0,0,1,3.33,8.2V58.27h3.79v4.55Zm-14.75-3.59a12.94,12.94,0,0,0,3.52-.45,8.79,8.79,0,0,0,2.76-1.28,6.43,6.43,0,0,0,1.8-1.93,4.53,4.53,0,0,0,.64-2.37V47.75h-6.8c-3,0-5.1.42-6.45,1.28a4.17,4.17,0,0,0-2,3.72V54.1a4.47,4.47,0,0,0,1.77,3.78A7.67,7.67,0,0,0,218.54,59.23Z"/><path d="M249.17,34.27H237.88V29.72H265.6v4.55H254.3V62.82h-5.13Z"/><path d="M271.52,29.72h5.13V41.65h9.43A11,11,0,0,1,294,44.48a10.29,10.29,0,0,1,3,7.79c0,3.35-1,5.94-2.88,7.79s-4.58,2.76-8,2.76H271.52Zm13.85,28.55a7.88,7.88,0,0,0,4.49-1.09,4.05,4.05,0,0,0,1.61-3.63V50.87a4,4,0,0,0-1.61-3.61,8.15,8.15,0,0,0-4.49-1h-8.72V58.27Z"/><path d="M46.31,108.61H46a12.36,12.36,0,0,1-3.78,2.81,13.42,13.42,0,0,1-5.91,1.11q-5.07,0-7.89-2.52t-2.82-7.65V90.72h5.13V102q0,6,7.12,6a15.88,15.88,0,0,0,6.07-1c1.6-.66,2.4-1.68,2.4-3V90.72h5.13v33.1H46.31Z"/><path d="M73.76,124.59a14.75,14.75,0,0,1-6.13-1.22A13.07,13.07,0,0,1,63,119.88a16.05,16.05,0,0,1-3-5.46,24.54,24.54,0,0,1,0-14.27,16,16,0,0,1,3-5.49,13.19,13.19,0,0,1,4.68-3.49A14.91,14.91,0,0,1,73.76,90a14,14,0,0,1,6,1.21,13.13,13.13,0,0,1,4.49,3.36,14.77,14.77,0,0,1,2.86,5.08,20.17,20.17,0,0,1,1,6.46v2.43H64.26V110a11.34,11.34,0,0,0,.68,4,9.36,9.36,0,0,0,1.92,3.17,8.91,8.91,0,0,0,3.08,2.12,10.65,10.65,0,0,0,4.14.77,10,10,0,0,0,5.48-1.48,9.62,9.62,0,0,0,3.63-4.23L86.85,117a12.71,12.71,0,0,1-5,5.51A15.08,15.08,0,0,1,73.76,124.59Zm0-30.34a9.75,9.75,0,0,0-3.85.73,8.59,8.59,0,0,0-3,2.07,9.73,9.73,0,0,0-2,3.16,10.92,10.92,0,0,0-.71,4v.45H82.55v-.7a10.12,10.12,0,0,0-2.41-7A8.21,8.21,0,0,0,73.76,94.25Z"/><path d="M95.31,90.72h5.13v5.33h.26a9.27,9.27,0,0,1,3.75-4.61A11.3,11.3,0,0,1,110.38,90,12.56,12.56,0,0,1,116,91.17a12.19,12.19,0,0,1,4.27,3.46,15.86,15.86,0,0,1,2.7,5.46,28.22,28.22,0,0,1,0,14.37,15.81,15.81,0,0,1-2.7,5.45,12.08,12.08,0,0,1-4.27,3.46,12.42,12.42,0,0,1-5.58,1.22,10,10,0,0,1-9.68-6.1h-.26v18.16H95.31ZM109,120a8.87,8.87,0,0,0,6.87-2.74,10.24,10.24,0,0,0,2.5-7.19v-5.68a10.25,10.25,0,0,0-2.5-7.19A8.87,8.87,0,0,0,109,94.5a10.94,10.94,0,0,0-3.3.49,9.12,9.12,0,0,0-2.73,1.32,6.32,6.32,0,0,0-1.83,2,5.12,5.12,0,0,0-.67,2.55v12.38a6,6,0,0,0,.67,2.87,6.32,6.32,0,0,0,1.83,2.12,8.27,8.27,0,0,0,2.73,1.33A12,12,0,0,0,109,120Z"/><path d="M131.41,90.72h5.13v13.73h16.55V90.72h5.13v33.1h-5.13V109H136.54v14.82h-5.13Z"/><path d="M180.53,124.59a14.76,14.76,0,0,1-6.09-1.22,13.13,13.13,0,0,1-4.72-3.49,16.63,16.63,0,0,1-3.05-5.46,23.9,23.9,0,0,1,0-14.27,16.58,16.58,0,0,1,3.05-5.49,13.25,13.25,0,0,1,4.72-3.49A14.92,14.92,0,0,1,180.53,90a14.71,14.71,0,0,1,6.06,1.22,13.61,13.61,0,0,1,4.72,3.49,16.29,16.29,0,0,1,3.08,5.49,23.9,23.9,0,0,1,0,14.27,16.34,16.34,0,0,1-3.08,5.46,13.48,13.48,0,0,1-4.72,3.49A14.55,14.55,0,0,1,180.53,124.59Zm0-4.55a9.33,9.33,0,0,0,6.8-2.57q2.63-2.56,2.63-7.83V104.9q0-5.27-2.63-7.83a10.28,10.28,0,0,0-13.6,0q-2.62,2.57-2.63,7.83v4.74q0,5.27,2.63,7.83A9.33,9.33,0,0,0,180.53,120Z"/><path d="M202.8,90.72h16.69A8.65,8.65,0,0,1,225.84,93a8.19,8.19,0,0,1,2.31,6.12q0,6.22-6.48,7v.25a8.4,8.4,0,0,1,5.74,2.41,7.4,7.4,0,0,1,1.89,5.16,11.62,11.62,0,0,1-.61,3.79,9.29,9.29,0,0,1-1.76,3.14,8.47,8.47,0,0,1-2.82,2.15,8.6,8.6,0,0,1-3.79.8H202.8Zm15.34,13.86a4.81,4.81,0,0,0,3.3-1.06,3.88,3.88,0,0,0,1.19-3V99.06a3.88,3.88,0,0,0-1.19-3,4.81,4.81,0,0,0-3.3-1.06h-10.2v9.63Zm.64,15a5.27,5.27,0,0,0,3.66-1.22,4.42,4.42,0,0,0,1.35-3.46v-1.48a4.41,4.41,0,0,0-1.35-3.46,5.22,5.22,0,0,0-3.66-1.22H207.94v10.84Z"/><path d="M237.14,90.72h5v18.35l-.52,8h.26l4.11-7,13.21-19.25H264v33.1h-5V105.47l.51-8h-.26l-4.1,7.06-13.22,19.24h-4.75Z"/><path d="M273.33,90.72h5.13v13.86h6.61l6.41-10.14a13.75,13.75,0,0,1,1.35-1.89,5.64,5.64,0,0,1,1.28-1.13,4.89,4.89,0,0,1,1.35-.54,7,7,0,0,1,1.6-.16h3v4.55h-4l-5.2,8.17c-.34.55-.64,1-.89,1.34a6.73,6.73,0,0,1-.77.86,3.61,3.61,0,0,1-.84.58,8.16,8.16,0,0,1-1.09.41v.25a5.48,5.48,0,0,1,2.34.87,7.63,7.63,0,0,1,2.09,2.58l5.07,8.94h3.78v4.55h-3.72a5.69,5.69,0,0,1-3.05-.86,8.65,8.65,0,0,1-2.66-3.18l-6.09-10.84h-6.61v14.88h-5.13Z"/><path d="M27.83,151.72H33v13.86h6.6L46,155.44a13.75,13.75,0,0,1,1.35-1.89,5.64,5.64,0,0,1,1.28-1.13,4.89,4.89,0,0,1,1.35-.54,7,7,0,0,1,1.6-.16h3v4.55h-4l-5.2,8.17c-.34.55-.64,1-.89,1.34a6.73,6.73,0,0,1-.77.86,3.61,3.61,0,0,1-.84.58,8.16,8.16,0,0,1-1.09.41v.25a5.48,5.48,0,0,1,2.34.87,7.75,7.75,0,0,1,2.09,2.58l5.07,8.94H55.1v4.55H51.38a5.69,5.69,0,0,1-3.05-.86,8.65,8.65,0,0,1-2.66-3.18l-6.1-10.84H33v14.88H27.83Z"/><path d="M73.94,185.59a14.79,14.79,0,0,1-6.09-1.22,13.13,13.13,0,0,1-4.72-3.49,16.44,16.44,0,0,1-3-5.46,23.69,23.69,0,0,1,0-14.27,16.39,16.39,0,0,1,3-5.49,13.25,13.25,0,0,1,4.72-3.49A15,15,0,0,1,73.94,151,14.76,14.76,0,0,1,80,152.17a13.66,13.66,0,0,1,4.71,3.49,16.12,16.12,0,0,1,3.08,5.49,23.9,23.9,0,0,1,0,14.27,16.17,16.17,0,0,1-3.08,5.46A13.54,13.54,0,0,1,80,184.37,14.6,14.6,0,0,1,73.94,185.59Zm0-4.55a9.33,9.33,0,0,0,6.8-2.57c1.76-1.71,2.63-4.32,2.63-7.83V165.9c0-3.51-.87-6.12-2.63-7.83a10.28,10.28,0,0,0-13.6,0q-2.62,2.56-2.63,7.83v4.74q0,5.27,2.63,7.83A9.33,9.33,0,0,0,73.94,181Z"/><path d="M96.22,151.72h5.13v13.73H117.9V151.72H123v33.1H117.9V170H101.35v14.82H96.22Z"/><path d="M140.25,156.27H129v-4.55h27.71v4.55H145.38v28.55h-5.13Z"/><path d="M174.79,185.59a14.75,14.75,0,0,1-6.13-1.22,13.07,13.07,0,0,1-4.68-3.49,16.05,16.05,0,0,1-3-5.46,24.54,24.54,0,0,1,0-14.27,16,16,0,0,1,3-5.49,13.19,13.19,0,0,1,4.68-3.49,14.91,14.91,0,0,1,6.13-1.22,14.12,14.12,0,0,1,6,1.21,13.22,13.22,0,0,1,4.49,3.36,14.92,14.92,0,0,1,2.85,5.08,20.17,20.17,0,0,1,1,6.46v2.43H165.29V171A11.34,11.34,0,0,0,166,175a9.52,9.52,0,0,0,1.92,3.17,8.91,8.91,0,0,0,3.08,2.12,10.65,10.65,0,0,0,4.14.77,10,10,0,0,0,5.49-1.48,9.67,9.67,0,0,0,3.62-4.23l3.66,2.65a12.71,12.71,0,0,1-5,5.51A15.05,15.05,0,0,1,174.79,185.59Zm0-30.34a9.75,9.75,0,0,0-3.85.73,8.68,8.68,0,0,0-3,2.07,9.73,9.73,0,0,0-2,3.16,10.92,10.92,0,0,0-.71,4v.45h18.29v-.7a10.07,10.07,0,0,0-2.41-7.05A8.21,8.21,0,0,0,174.79,155.25Z"/><path d="M196.34,151.72h5.13v13.73H218V151.72h5.14v33.1H218V170H201.47v14.82h-5.13Z"/><path d="M240.37,156.27H229.08v-4.55h27.71v4.55H245.5v28.55h-5.13Z"/><path d="M256.68,168.08v-5.52h16.75v5.52Z"/><path d="M281.66,151.72h25.86v33.1h-5.13V156.27H286.8v28.55h-5.14Z"/><path d="M313.09,180.27h4.36a12.92,12.92,0,0,0,1.48-2.75,22.87,22.87,0,0,0,1.09-3.85,49.51,49.51,0,0,0,.7-5.31q.25-3.08.26-7.23v-9.41h22.39v33.1h-5.13V156.27H325.85v5.06c0,3.2-.11,6-.35,8.39a45,45,0,0,1-1,6.14,19.3,19.3,0,0,1-1.44,4.19,10.35,10.35,0,0,1-1.8,2.6,6.71,6.71,0,0,1-2.7,1.69,11.43,11.43,0,0,1-3.52.48h-2Z"/><path d="M377.21,184.82a5,5,0,0,1-4.14-1.54,7.61,7.61,0,0,1-1.57-3.85h-.32a8.52,8.52,0,0,1-3.59,4.62,11.15,11.15,0,0,1-6,1.54c-3.51,0-6.23-.89-8.18-2.69a9.47,9.47,0,0,1-2.92-7.32A8.36,8.36,0,0,1,354,168.4q3.44-2.51,10.69-2.5h6.54v-3.28a7.14,7.14,0,0,0-1.92-5.38q-1.93-1.86-5.91-1.86a8.83,8.83,0,0,0-5,1.34,11.11,11.11,0,0,0-3.37,3.6l-3.08-2.89a11.66,11.66,0,0,1,4.3-4.59,13.54,13.54,0,0,1,7.44-1.89q6,0,9.37,2.94a10.39,10.39,0,0,1,3.33,8.2v18.18h3.79v4.55Zm-14.75-3.59a13,13,0,0,0,3.52-.45,8.79,8.79,0,0,0,2.76-1.28,6.43,6.43,0,0,0,1.8-1.93,4.63,4.63,0,0,0,.64-2.37v-5.45h-6.8c-2.95,0-5.1.42-6.45,1.28a4.15,4.15,0,0,0-2,3.72v1.35a4.47,4.47,0,0,0,1.77,3.78A7.65,7.65,0,0,0,362.46,181.23Z"/><path d="M386.24,151.72h5.14v13.73h16.55V151.72h5.13v33.1h-5.13V170H391.38v14.82h-5.14Z"/><path d="M446.9,184.82a5,5,0,0,1-4.13-1.54,7.62,7.62,0,0,1-1.58-3.85h-.32a8.52,8.52,0,0,1-3.59,4.62,11.15,11.15,0,0,1-6,1.54c-3.51,0-6.23-.89-8.18-2.69a9.51,9.51,0,0,1-2.92-7.32,8.35,8.35,0,0,1,3.44-7.18q3.42-2.51,10.68-2.5h6.54v-3.28a7.14,7.14,0,0,0-1.92-5.38c-1.29-1.24-3.25-1.86-5.91-1.86a8.88,8.88,0,0,0-5,1.34,11.11,11.11,0,0,0-3.37,3.6l-3.08-2.89a11.66,11.66,0,0,1,4.3-4.59A13.56,13.56,0,0,1,433.3,151q6,0,9.37,2.94a10.39,10.39,0,0,1,3.33,8.2v18.18h3.79v4.55Zm-14.75-3.59a13.07,13.07,0,0,0,3.53-.45,8.84,8.84,0,0,0,2.75-1.28,6.31,6.31,0,0,0,1.8-1.93,4.53,4.53,0,0,0,.64-2.37v-5.45h-6.8c-2.95,0-5.1.42-6.45,1.28a4.17,4.17,0,0,0-2,3.72v1.35a4.47,4.47,0,0,0,1.77,3.78A7.67,7.67,0,0,0,432.15,181.23Z"/><rect x="575.05" y="224.59" width="154" height="107.96"/><path class="cls-1" d="M594.4,259.43a8.79,8.79,0,0,1-7.41-3.29q-2.55-3.3-2.55-9.65t2.55-9.65a10,10,0,0,1,14.82,0q2.55,3.3,2.54,9.65t-2.54,9.65A8.79,8.79,0,0,1,594.4,259.43Zm0-5.27a3.35,3.35,0,0,0,3.13-1.89,16.73,16.73,0,0,0,0-11.56,3.53,3.53,0,0,0-6.26,0,16.73,16.73,0,0,0,0,11.56A3.35,3.35,0,0,0,594.4,254.16Z"/><path class="cls-1" d="M607.81,258.82V234.16h9.68a10.15,10.15,0,0,1,4.59,1,7.34,7.34,0,0,1,3,2.73,7.85,7.85,0,0,1,1.08,4.19,7.37,7.37,0,0,1-1.08,4,7.14,7.14,0,0,1-3,2.64,10.71,10.71,0,0,1-4.59.92H613.6v9.19Zm5.79-14.4h3.89a3.32,3.32,0,0,0,2.14-.61,2.49,2.49,0,0,0,0-3.56,3.27,3.27,0,0,0-2.14-.63H613.6Z"/><path class="cls-1" d="M630.25,258.82V234.16h16.64v4.93H636v5.09h9.31V249H636v4.9h10.54v4.93Z"/><path class="cls-1" d="M650.77,258.82V234.16h8.94l4,20.13h.62L664,244.12v-10h5v24.66H660l-4-20.13h-.61l.37,10.17v10Z"/><path class="cls-1" d="M586,289V264.29h9.68a10.16,10.16,0,0,1,4.6,1,7.34,7.34,0,0,1,3,2.73,7.84,7.84,0,0,1,1.07,4.19,7.36,7.36,0,0,1-1.07,4,7.14,7.14,0,0,1-3,2.64,10.72,10.72,0,0,1-4.6.92h-3.88V289Zm5.8-14.4h3.88a3.29,3.29,0,0,0,2.14-.61,2.46,2.46,0,0,0,0-3.56,3.23,3.23,0,0,0-2.14-.64h-3.88Z"/><path class="cls-1" d="M607.5,289V264.29h10a9.58,9.58,0,0,1,4.43,1,7.14,7.14,0,0,1,2.94,2.74,8.08,8.08,0,0,1,1,4.18,6.86,6.86,0,0,1-1.06,3.79,7.2,7.2,0,0,1-3,2.56,9.86,9.86,0,0,1-4.38.92h-4.16V289Zm5.79-14.3h4a3.06,3.06,0,0,0,2.08-.67,2.24,2.24,0,0,0,.75-1.77,2.27,2.27,0,0,0-.75-1.8,3.06,3.06,0,0,0-2.08-.67h-4ZM620,289l-6-10.42h6.17L626.49,289Z"/><path class="cls-1" d="M638,289.56a8.82,8.82,0,0,1-7.41-3.29q-2.53-3.3-2.54-9.65t2.54-9.65a10,10,0,0,1,14.83,0q2.53,3.3,2.54,9.65t-2.54,9.65A8.82,8.82,0,0,1,638,289.56Zm0-5.27a3.35,3.35,0,0,0,3.13-1.89,16.58,16.58,0,0,0,0-11.56,3.52,3.52,0,0,0-6.25,0,16.58,16.58,0,0,0,0,11.56A3.34,3.34,0,0,0,638,284.29Z"/><path class="cls-1" d="M650.62,289V264.29h7.49l1.57,11.93h.62l1.57-11.93h7.24V289h-4.9v-9.16l.4-10.26H664l-1.54,11.71h-5.18l-1.54-11.71h-.62l.4,10.26V289Z"/><path class="cls-1" d="M673.27,289V264.29H683a10.09,10.09,0,0,1,4.59,1,7.3,7.3,0,0,1,3,2.73,7.93,7.93,0,0,1,1.07,4.19,7.45,7.45,0,0,1-1.07,4,7.11,7.11,0,0,1-3,2.64,10.65,10.65,0,0,1-4.59.92h-3.88V289Zm5.8-14.4H683a3.29,3.29,0,0,0,2.14-.61,2.46,2.46,0,0,0,0-3.56,3.23,3.23,0,0,0-2.14-.64h-3.88Z"/><path class="cls-1" d="M700.61,289V269.81h-6.87v-5.52h19.54v5.52h-6.87V289Z"/><path class="cls-1" d="M585.46,319.08v-5.52h6V299.94h-6v-5.52h17.88v5.52h-6v13.62h6v5.52Z"/><path class="cls-1" d="M607.13,319.08V294.42h8.94l4,20.12h.61l-.37-10.17v-9.95h5v24.66h-8.93l-4-20.13h-.62l.37,10.17v10Z"/><path class="cls-1" d="M636.59,319.6a6.66,6.66,0,0,1-6-3.31q-2.1-3.32-2.1-9.54t2.54-9.65a8.84,8.84,0,0,1,7.45-3.3,9.84,9.84,0,0,1,4.74,1.08A7.72,7.72,0,0,1,646.4,298a11.26,11.26,0,0,1,1.29,4.95h-5.42a5.76,5.76,0,0,0-1.34-2.93,3.25,3.25,0,0,0-2.42-1,3.41,3.41,0,0,0-3.16,1.9,12.16,12.16,0,0,0-1.07,5.78,13.49,13.49,0,0,0,1.05,6.13,3.54,3.54,0,0,0,3.36,1.94,3.4,3.4,0,0,0,1.84-.49,3.48,3.48,0,0,0,1.23-1.37,4.39,4.39,0,0,0,.45-2h-4.29v-5.06h9.34v13.2h-5V317h-1.27a3.38,3.38,0,0,1-1.54,1.91A5.41,5.41,0,0,1,636.59,319.6Z"/><polygon points="720.33 332.56 711.61 332.56 711.61 341.28 720.33 341.28 720.33 349.99 729.05 349.99 729.05 341.28 729.05 332.56 720.33 332.56"/><rect y="0.09" width="9.06" height="47.8"/><rect width="25.21" height="9.06"/><rect x="4.53" y="273.47" width="9.06" height="47.8"/><rect x="4.53" y="312.3" width="25.21" height="9.06"/><rect x="702.55" y="0.14" width="9.06" height="47.8" transform="translate(1414.16 48.07) rotate(180)"/><rect x="686.4" y="0.05" width="25.21" height="9.06" transform="translate(1398.01 9.15) rotate(180)"/><path d="M593.7,110.65a8.78,8.78,0,0,1-6.56-2.77.67.67,0,0,0-.67-.2,9.28,9.28,0,0,1-10.56-11.31,1.36,1.36,0,0,0-.28-1.34,9.26,9.26,0,0,1,2.65-13.6,16.24,16.24,0,0,1,2.5-1,.62.62,0,0,0,.43-.4,9.29,9.29,0,0,1,15.12-3.51,1.28,1.28,0,0,0,1.21.4,9.28,9.28,0,0,1,10.17,11.7.69.69,0,0,0,.15.71,8.84,8.84,0,0,1,1.95,7.5,9,9,0,0,1-6.65,7.31,1,1,0,0,0-.73.65,9.16,9.16,0,0,1-7.62,5.88,3.62,3.62,0,0,1-.57,0Zm-13-27.58a3.46,3.46,0,0,0-.35.09,6.61,6.61,0,0,0-3.52,3.4,6.8,6.8,0,0,0,2.72,8.75c2.41,1.44,4.85,2.82,7.28,4.21a.58.58,0,0,0,.48,0c.86-.47,1.7-1,2.54-1.46a2.89,2.89,0,0,0,.28-.21l-.68-.41-7.93-4.57a1.45,1.45,0,0,1-.81-1.39c0-2.63,0-5.27,0-7.91C580.68,83.41,580.67,83.26,580.66,83.07Zm5.49,10.49c0-.22,0-.37,0-.51q0-4.81,0-9.63a1.29,1.29,0,0,1,.72-1.22l6.69-3.86.71-.42c-.38-.26-.67-.48-1-.66a6.85,6.85,0,0,0-10.26,5.67c-.09,2.86,0,5.72,0,8.58a.56.56,0,0,0,.24.42c.76.46,1.54.9,2.31,1.35Zm3.28,13.11c.13.12.2.2.28.26a6.85,6.85,0,0,0,10.8-4.34,23.94,23.94,0,0,0,.13-3.6c0-1.93,0-3.87,0-5.8,0-.2,0-.39-.22-.52-.88-.49-1.76-1-2.63-1.51a1.1,1.1,0,0,0-.27-.08c0,.19,0,.34,0,.49,0,3.16,0,6.32,0,9.48a1.49,1.49,0,0,1-.83,1.43c-1.89,1.07-3.78,2.17-5.67,3.26C590.5,106,590,106.34,589.43,106.67Zm6.36-10.07-.47.25-8.24,4.76a1.41,1.41,0,0,1-1.55,0c-2.19-1.28-4.39-2.54-6.59-3.81-.23-.14-.47-.26-.75-.41,0,.21-.06.35-.07.49a6.65,6.65,0,0,0,.72,3.77,6.85,6.85,0,0,0,9.6,2.78l7.1-4.09a.52.52,0,0,0,.3-.51c0-1,0-1.91,0-2.86A3.66,3.66,0,0,0,595.79,96.6ZM587.91,88l.38-.18L596.68,83a1.38,1.38,0,0,1,1.51,0q3.49,2.05,7,4.09l.38.18c0-.62,0-1.15,0-1.68a6.83,6.83,0,0,0-9.86-5.63c-2.6,1.36-5.1,2.9-7.63,4.37a.58.58,0,0,0-.21.43c0,1,0,1.91,0,2.87C587.89,87.71,587.9,87.82,587.91,88Zm15.18,13.56c.12,0,.16,0,.19,0s.27-.1.39-.16a6.65,6.65,0,0,0,3.86-5.82,6.51,6.51,0,0,0-3.2-6.17c-2.41-1.5-4.9-2.86-7.36-4.29a.53.53,0,0,0-.59,0c-.82.49-1.65,1-2.47,1.44l-.28.2a2.77,2.77,0,0,0,.25.19l8.45,4.9a1.37,1.37,0,0,1,.76,1.3c0,2.66,0,5.32,0,8Zm-7.26-9.26c0-.64,0-1.29,0-1.93a.52.52,0,0,0-.31-.54c-1.12-.63-2.24-1.28-3.35-1.93a.53.53,0,0,0-.62,0c-1.13.66-2.27,1.31-3.41,2a.47.47,0,0,0-.26.46c0,1.33,0,2.65,0,4a.6.6,0,0,0,.23.43c1.15.68,2.31,1.34,3.46,2a.5.5,0,0,0,.56,0c1.14-.68,2.29-1.33,3.43-2a.6.6,0,0,0,.24-.42C595.84,93.63,595.83,93,595.83,92.29Z"/><path d="M642.52,110.45H620.17s0,0-.08,0a3.08,3.08,0,0,1-2.37-3c0-5.25,0-10.49,0-15.74,0-4.83,0-9.67,0-14.51a2.87,2.87,0,0,1,1.82-2.74,6.82,6.82,0,0,1,.88-.26h16.39a4.25,4.25,0,0,1,.43.31c.43.42.85.86,1.27,1.28l6.21,6.19a.68.68,0,0,1,.22.54c0,2,0,4.09,0,6.13q0,9.45,0,18.89a2.92,2.92,0,0,1-1.21,2.4A3.75,3.75,0,0,1,642.52,110.45Zm-6.63-34.8H620.83a1.53,1.53,0,0,0-1.61,1.59v30.09A1.54,1.54,0,0,0,620.9,109h20.94a1.53,1.53,0,0,0,1.63-1.65v-1.08q0-11.4,0-22.79c0-.21-.06-.25-.26-.25h-4.31a3,3,0,0,1-3-2.61,20,20,0,0,1-.05-2.19C635.88,77.51,635.89,76.61,635.89,75.65Zm6.44,6.07-4.92-4.92s0,.12,0,.18c0,1.06,0,2.12,0,3.18A1.5,1.5,0,0,0,639,81.73h3.35Z"/><path d="M631.32,102.91h-6.68a.77.77,0,0,1-.86-.86V88.62a.75.75,0,0,1,.82-.83h13.48a.73.73,0,0,1,.79.54.74.74,0,0,1,0,.26q0,6.73,0,13.48a.77.77,0,0,1-.86.84ZM634,92.34h3.16c.19,0,.26,0,.26-.24,0-.85,0-1.69,0-2.53,0-.23-.06-.29-.29-.29q-3.15,0-6.32,0c-.19,0-.23.06-.23.24,0,.85,0,1.7,0,2.56,0,.2,0,.27.26.26C631.89,92.33,632.94,92.34,634,92.34Zm-3.41,4.51h6.83c0-.94,0-1.84,0-2.75,0-.22-.06-.28-.28-.28h-6.55Zm6.81,1.54h-6.8v3h6.8ZM625.28,89.3c0,.08,0,.14,0,.2,0,.86,0,1.73,0,2.59,0,.21.06.25.26.25,1.11,0,2.22,0,3.33,0l.2,0v-3Zm3.78,4.54h-3.6c-.16,0-.19.06-.19.2v2.66c0,.06,0,.12,0,.17h3.77Zm0,7.58v-3l-.07,0h-3.57c-.12,0-.15.06-.15.17v2.7c0,.14.05.19.18.18h3.61Z"/><path d="M657.57,97.74a6,6,0,0,1-5.23-5.54,5.82,5.82,0,0,1,1.38-4.14,6.26,6.26,0,0,1,3.8-2.13l-.81-.18a5.9,5.9,0,0,1,1.35-11.59c4,0,8,0,12,0A5.9,5.9,0,0,1,672,85.62c-.41.13-.84.22-1.34.35a5.9,5.9,0,0,1,4.22,2.53,5.69,5.69,0,0,1,.87,4.78,5.91,5.91,0,0,1-5.61,4.48,6,6,0,0,1-6-5.09V95c0,2.87,0,5.74,0,8.61a5.9,5.9,0,1,1-9-5,7.92,7.92,0,0,1,1.14-.54C656.7,98,657.11,97.87,657.57,97.74Zm6.58-6.63A6,6,0,0,1,669.22,86h-5.07Z"/></g></g></svg>