<svg width="750" height="365" viewBox="0 0 750 365" fill="none" xmlns="http://www.w3.org/2000/svg">
<path d="M750 39H88V344H750V39Z" fill="#FFE600"/>
<path d="M612.998 264.005C613.588 263.647 614.069 263.134 614.388 262.522C615.863 258.527 615.863 254.136 614.388 250.141C614.069 249.529 613.588 249.016 612.998 248.658C612.407 248.3 611.73 248.111 611.04 248.111C610.35 248.111 609.673 248.3 609.082 248.658C608.492 249.016 608.011 249.529 607.692 250.141C606.217 254.136 606.217 258.527 607.692 262.522C608.011 263.134 608.492 263.647 609.082 264.005C609.673 264.363 610.35 264.552 611.04 264.552C611.73 264.552 612.407 264.363 612.998 264.005Z" fill="black"/>
<path d="M631.599 248.974H635.726C636.546 248.92 637.359 249.162 638.017 249.655C638.274 249.9 638.479 250.196 638.619 250.523C638.759 250.85 638.831 251.202 638.831 251.558C638.831 251.914 638.759 252.267 638.619 252.594C638.479 252.921 638.274 253.216 638.017 253.462C637.354 253.943 636.543 254.176 635.726 254.122H631.599V248.974Z" fill="black"/>
<path d="M612.397 286.377C613.214 286.431 614.024 286.197 614.687 285.716C614.962 285.481 615.178 285.186 615.318 284.852C615.458 284.519 615.517 284.158 615.492 283.797C615.512 283.44 615.449 283.083 615.31 282.754C615.17 282.425 614.957 282.133 614.687 281.898C614.029 281.406 613.217 281.164 612.397 281.217H608.27V286.377H612.397Z" fill="black"/>
<path d="M631.268 281.228H635.489C636.294 281.18 637.089 281.434 637.717 281.94C637.988 282.181 638.201 282.479 638.342 282.813C638.483 283.147 638.548 283.507 638.532 283.869C638.552 284.233 638.488 284.597 638.347 284.933C638.206 285.269 637.991 285.568 637.717 285.809C637.089 286.315 636.294 286.569 635.489 286.521H631.268V281.228Z" fill="black"/>
<path d="M659.728 296.259C660.318 295.901 660.799 295.388 661.119 294.776C662.593 290.781 662.593 286.39 661.119 282.395C660.799 281.783 660.318 281.27 659.728 280.912C659.138 280.554 658.461 280.365 657.77 280.365C657.08 280.365 656.403 280.554 655.813 280.912C655.222 281.27 654.741 281.783 654.422 282.395C652.934 286.388 652.934 290.783 654.422 294.776C654.741 295.388 655.222 295.901 655.813 296.259C656.403 296.617 657.08 296.806 657.77 296.806C658.461 296.806 659.138 296.617 659.728 296.259Z" fill="black"/>
<path d="M705.847 286.376C706.664 286.43 707.475 286.197 708.138 285.716C708.414 285.482 708.631 285.186 708.773 284.853C708.914 284.52 708.976 284.158 708.953 283.797C708.97 283.439 708.906 283.082 708.765 282.753C708.624 282.424 708.409 282.132 708.138 281.898C707.48 281.405 706.667 281.164 705.847 281.217H701.72V286.376H705.847Z" fill="black"/>
<path fill-rule="evenodd" clip-rule="evenodd" d="M590.5 344.364V233.445H749.926V365H739.608V354.682H729.29V344.364H590.5ZM603.1 246.003C604.923 243.651 607.571 242.474 611.045 242.474C612.554 242.383 614.062 242.656 615.443 243.27C616.824 243.884 618.037 244.822 618.98 246.003C620.796 248.356 621.704 251.795 621.704 256.321C621.704 260.847 620.796 264.287 618.98 266.639C618.039 267.824 616.827 268.764 615.446 269.38C614.064 269.996 612.555 270.27 611.045 270.178C607.565 270.158 604.916 268.978 603.1 266.639C601.284 264.3 600.376 260.861 600.376 256.321C600.369 251.795 601.277 248.356 603.1 246.003ZM631.599 259.694H635.726C637.419 259.739 639.101 259.404 640.648 258.714C641.984 258.105 643.116 257.123 643.908 255.887C644.701 254.595 645.103 253.1 645.064 251.584C645.11 250.009 644.709 248.453 643.908 247.096C643.132 245.835 642.011 244.822 640.679 244.176C639.14 243.455 637.455 243.101 635.757 243.144H625.439V269.548H631.63L631.599 259.694ZM655.619 264.256H666.907V269.539H649.418V243.135H667.237V248.418H655.619V253.855H665.586V259.004H655.619V264.256ZM676.709 258.88L676.317 247.984H676.967L681.3 269.539H690.865V243.135H685.552V253.793L685.954 264.679H685.294L680.96 243.135H671.395V269.539H676.709V258.88ZM611.963 275.398C613.662 275.354 615.347 275.708 616.885 276.43C618.202 277.083 619.308 278.095 620.073 279.35C620.872 280.708 621.272 282.263 621.229 283.838C621.268 285.354 620.866 286.849 620.073 288.141C619.295 289.377 618.172 290.36 616.844 290.968C615.301 291.676 613.619 292.028 611.922 292H607.795V301.802H601.604V275.398H611.963ZM640.41 290.638C641.708 290.028 642.811 289.071 643.599 287.873C644.367 286.662 644.761 285.252 644.734 283.818C644.774 282.254 644.385 280.708 643.609 279.35C642.868 278.084 641.775 277.062 640.462 276.409C638.988 275.694 637.364 275.341 635.726 275.378H625.067V301.781H631.258V291.618H632.558L638.388 301.781H645.353L638.955 291.175C639.454 291.034 639.94 290.855 640.41 290.638ZM649.831 278.268C651.647 275.908 654.291 274.729 657.765 274.729C661.239 274.749 663.884 275.929 665.7 278.268C667.516 280.606 668.424 284.046 668.424 288.586C668.424 293.112 667.516 296.551 665.7 298.904C663.884 301.256 661.239 302.432 657.765 302.432C654.291 302.432 651.647 301.256 649.831 298.904C648.015 296.551 647.107 293.112 647.107 288.586C647.107 284.066 648.015 280.627 649.831 278.268ZM681.589 288.162H680.929L679.247 275.389H671.23V301.792H676.482V291.99L676.049 281.002H676.709L678.36 293.538H683.901L685.552 281.002H686.212L685.779 291.99V301.792H691.03V275.389H683.271L681.589 288.162ZM705.847 275.398C707.545 275.355 709.23 275.709 710.769 276.43C712.088 277.084 713.196 278.095 713.967 279.35C714.766 280.708 715.166 282.263 715.123 283.838C715.162 285.354 714.76 286.848 713.967 288.141C713.186 289.375 712.064 290.357 710.738 290.968C709.195 291.675 707.513 292.028 705.816 292H701.689V301.802H695.498V275.398H705.847ZM717.393 275.389V281.301H724.76V301.792H730.961V281.301H738.318V275.389H717.393ZM608.073 313.555H601.604V307.643H620.744V313.555H614.275V328.134H620.744V334.046H601.604V328.134H608.073V313.555ZM638.821 318.311L639.224 329.196H638.563L634.24 307.652H624.665V334.046H629.979V323.387L629.587 312.502H630.247L634.57 334.046H644.135V307.652H638.821V318.311ZM659.664 312.88C659.218 312.702 658.74 312.619 658.26 312.636C657.56 312.617 656.869 312.799 656.269 313.161C655.669 313.523 655.186 314.05 654.876 314.679C654.002 316.62 653.612 318.744 653.741 320.869C653.734 323.868 654.109 326.056 654.866 327.432C655.197 328.089 655.714 328.635 656.352 329.001C656.99 329.368 657.722 329.54 658.457 329.495C659.14 329.518 659.816 329.34 660.401 328.985C660.985 328.629 661.453 328.111 661.748 327.494C662.072 326.822 662.235 326.083 662.223 325.337H657.631V319.92H667.64V333.984H662.223V331.776H660.871C660.599 332.646 660.01 333.383 659.22 333.839C658.304 334.351 657.266 334.605 656.218 334.572C654.929 334.612 653.653 334.303 652.526 333.678C651.398 333.054 650.46 332.136 649.81 331.022C648.317 328.656 647.571 325.251 647.571 320.807C647.571 316.281 648.479 312.842 650.295 310.489C652.111 308.137 654.766 306.961 658.26 306.961C660.026 306.914 661.775 307.312 663.347 308.116C664.771 308.878 665.941 310.04 666.711 311.459C667.574 313.097 668.048 314.912 668.094 316.763H662.285C662.113 315.615 661.615 314.54 660.85 313.667C660.514 313.326 660.11 313.057 659.664 312.88Z" fill="black"/>
<path d="M8.75 325.158V286H0V334H25V325.158H8.75Z" fill="black"/>
<path d="M8.75 8.8421V48H0V0H25V8.8421H8.75Z" fill="black"/>
<path d="M720.25 8.8421V48H729V0H704V8.8421H720.25Z" fill="black"/>
<path d="M46.696 80.768C41.0213 80.768 36.6053 78.848 33.448 75.008C30.2907 71.1253 28.712 65.4293 28.712 57.92C28.712 50.4107 30.2907 44.6507 33.448 40.64C36.6053 36.5867 41.0213 34.56 46.696 34.56C50.4507 34.56 53.5867 35.4133 56.104 37.12C58.664 38.8267 60.648 41.2373 62.056 44.352L57.704 46.976C56.808 44.672 55.4427 42.8373 53.608 41.472C51.7733 40.064 49.4693 39.36 46.696 39.36C44.776 39.36 43.048 39.7227 41.512 40.448C40.0187 41.1733 38.7387 42.2187 37.672 43.584C36.648 44.9067 35.8587 46.5067 35.304 48.384C34.7493 50.2187 34.472 52.288 34.472 54.592V61.248C34.472 65.856 35.5387 69.4613 37.672 72.064C39.8053 74.6667 42.8133 75.968 46.696 75.968C49.5547 75.968 51.944 75.2427 53.864 73.792C55.784 72.2987 57.192 70.336 58.088 67.904L62.376 70.592C60.968 73.7493 58.9413 76.2453 56.296 78.08C53.6507 79.872 50.4507 80.768 46.696 80.768Z" fill="black"/>
<path d="M83.31 80.768C81.0913 80.768 79.0647 80.3627 77.23 79.552C75.3953 78.7413 73.8167 77.5893 72.494 76.096C71.214 74.56 70.2113 72.7467 69.486 70.656C68.7607 68.5227 68.398 66.1333 68.398 63.488C68.398 60.8853 68.7607 58.5173 69.486 56.384C70.2113 54.2507 71.214 52.4373 72.494 50.944C73.8167 49.408 75.3953 48.2347 77.23 47.424C79.0647 46.6133 81.0913 46.208 83.31 46.208C85.5287 46.208 87.534 46.6133 89.326 47.424C91.1607 48.2347 92.7393 49.408 94.062 50.944C95.3847 52.4373 96.4087 54.2507 97.134 56.384C97.8593 58.5173 98.222 60.8853 98.222 63.488C98.222 66.1333 97.8593 68.5227 97.134 70.656C96.4087 72.7467 95.3847 74.56 94.062 76.096C92.7393 77.5893 91.1607 78.7413 89.326 79.552C87.534 80.3627 85.5287 80.768 83.31 80.768ZM83.31 76.224C86.0833 76.224 88.3447 75.3707 90.094 73.664C91.8433 71.9573 92.718 69.3547 92.718 65.856V61.12C92.718 57.6213 91.8433 55.0187 90.094 53.312C88.3447 51.6053 86.0833 50.752 83.31 50.752C80.5367 50.752 78.2753 51.6053 76.526 53.312C74.7767 55.0187 73.902 57.6213 73.902 61.12V65.856C73.902 69.3547 74.7767 71.9573 76.526 73.664C78.2753 75.3707 80.5367 76.224 83.31 76.224Z" fill="black"/>
<path d="M120.331 80.768C118.027 80.768 115.958 80.384 114.123 79.616C112.288 78.848 110.731 77.6533 109.451 76.032C108.171 74.4107 107.168 72.32 106.443 69.76C105.76 67.1573 105.419 64.0213 105.419 60.352C105.419 55.616 105.718 51.5627 106.315 48.192C106.955 44.8213 107.958 42.048 109.323 39.872C110.688 37.696 112.416 36.0747 114.507 35.008C116.64 33.8987 119.222 33.216 122.251 32.96L132.619 32.128V37.312L121.611 38.208C119.734 38.3787 118.155 38.7413 116.875 39.296C115.595 39.8507 114.528 40.7253 113.675 41.92C112.864 43.072 112.224 44.608 111.755 46.528C111.328 48.448 111.008 50.8373 110.795 53.696H111.051C112.032 51.4347 113.291 49.7493 114.827 48.64C116.406 47.5307 118.475 46.976 121.035 46.976C123.126 46.976 125.046 47.36 126.795 48.128C128.544 48.896 130.038 50.0053 131.275 51.456C132.512 52.864 133.472 54.6347 134.155 56.768C134.88 58.8587 135.243 61.248 135.243 63.936C135.243 66.4533 134.88 68.736 134.155 70.784C133.43 72.832 132.406 74.6027 131.083 76.096C129.76 77.5893 128.182 78.7413 126.347 79.552C124.555 80.3627 122.55 80.768 120.331 80.768ZM120.587 76.224C121.91 76.224 123.126 76.0107 124.235 75.584C125.344 75.1573 126.304 74.5173 127.115 73.664C127.926 72.8107 128.566 71.7653 129.035 70.528C129.504 69.2907 129.739 67.84 129.739 66.176V62.144C129.739 58.56 128.864 55.8933 127.115 54.144C125.366 52.3947 123.019 51.52 120.075 51.52C117.003 51.52 114.699 52.288 113.163 53.824C111.67 55.3173 110.923 57.28 110.923 59.712V65.6C110.923 69.184 111.798 71.8507 113.547 73.6C115.296 75.3493 117.643 76.224 120.587 76.224Z" fill="black"/>
<path d="M144.36 46.976H149.48V52.352H149.736C150.589 50.2613 151.827 48.7253 153.448 47.744C155.112 46.72 157.096 46.208 159.4 46.208C161.448 46.208 163.304 46.6133 164.968 47.424C166.632 48.2347 168.04 49.3867 169.192 50.88C170.387 52.3733 171.283 54.1867 171.88 56.32C172.52 58.4533 172.84 60.8427 172.84 63.488C172.84 66.1333 172.52 68.5227 171.88 70.656C171.283 72.7893 170.387 74.6027 169.192 76.096C168.04 77.5893 166.632 78.7413 164.968 79.552C163.304 80.3627 161.448 80.768 159.4 80.768C154.92 80.768 151.699 78.72 149.736 74.624H149.48V92.8H144.36V46.976ZM157.992 76.16C160.893 76.16 163.176 75.264 164.84 73.472C166.504 71.6373 167.336 69.248 167.336 66.304V60.672C167.336 57.728 166.504 55.36 164.84 53.568C163.176 51.7333 160.893 50.816 157.992 50.816C156.84 50.816 155.731 50.9867 154.664 51.328C153.64 51.6267 152.744 52.0533 151.976 52.608C151.208 53.1627 150.589 53.8453 150.12 54.656C149.693 55.424 149.48 56.256 149.48 57.152V69.44C149.48 70.5067 149.693 71.4667 150.12 72.32C150.589 73.1307 151.208 73.8347 151.976 74.432C152.744 74.9867 153.64 75.4133 154.664 75.712C155.731 76.0107 156.84 76.16 157.992 76.16Z" fill="black"/>
<path d="M206.125 80C204.205 80 202.818 79.488 201.965 78.464C201.154 77.44 200.642 76.16 200.429 74.624H200.109C199.384 76.672 198.189 78.208 196.525 79.232C194.861 80.256 192.877 80.768 190.573 80.768C187.074 80.768 184.344 79.872 182.381 78.08C180.461 76.288 179.501 73.856 179.501 70.784C179.501 67.6693 180.632 65.28 182.893 63.616C185.197 61.952 188.76 61.12 193.581 61.12H200.109V57.856C200.109 55.5093 199.469 53.7173 198.189 52.48C196.909 51.2427 194.946 50.624 192.301 50.624C190.296 50.624 188.61 51.072 187.245 51.968C185.922 52.864 184.813 54.0587 183.917 55.552L180.845 52.672C181.741 50.88 183.17 49.3653 185.133 48.128C187.096 46.848 189.57 46.208 192.557 46.208C196.568 46.208 199.682 47.1893 201.901 49.152C204.12 51.1147 205.229 53.8453 205.229 57.344V75.52H209.005V80H206.125ZM191.405 76.416C192.685 76.416 193.858 76.2667 194.925 75.968C195.992 75.6693 196.909 75.2427 197.677 74.688C198.445 74.1333 199.042 73.4933 199.469 72.768C199.896 72.0427 200.109 71.2533 200.109 70.4V64.96H193.325C190.381 64.96 188.226 65.3867 186.861 66.24C185.538 67.0933 184.877 68.3307 184.877 69.952V71.296C184.877 72.9173 185.453 74.176 186.605 75.072C187.8 75.968 189.4 76.416 191.405 76.416Z" fill="black"/>
<path d="M222.869 51.456H211.605V46.976H239.253V51.456H227.989V80H222.869V51.456Z" fill="black"/>
<path d="M246.592 46.976H251.713V58.944H261.12C264.448 58.944 267.094 59.8827 269.056 61.76C271.019 63.6373 272 66.2187 272 69.504C272 72.832 271.04 75.4133 269.12 77.248C267.2 79.0827 264.555 80 261.185 80H246.592V46.976ZM260.417 75.52C262.337 75.52 263.83 75.1573 264.896 74.432C265.963 73.7067 266.496 72.4907 266.496 70.784V68.096C266.496 66.3893 265.963 65.1947 264.896 64.512C263.83 63.7867 262.337 63.424 260.417 63.424H251.713V75.52H260.417Z" fill="black"/>
<path d="M291.319 75.52H295.095C296.418 73.3867 297.485 70.72 298.296 67.52C299.106 64.32 299.512 60.6507 299.512 56.512V46.976H321.848V75.52H327.352V88.96H322.68V80H295.991V88.96H291.319V75.52ZM316.728 75.52V51.456H304.375V56.768C304.375 61.1627 303.992 64.9173 303.224 68.032C302.498 71.104 301.623 73.6 300.599 75.52H316.728Z" fill="black"/>
<path d="M359.075 80C357.155 80 355.768 79.488 354.915 78.464C354.104 77.44 353.592 76.16 353.379 74.624H353.059C352.334 76.672 351.139 78.208 349.475 79.232C347.811 80.256 345.827 80.768 343.523 80.768C340.024 80.768 337.294 79.872 335.331 78.08C333.411 76.288 332.451 73.856 332.451 70.784C332.451 67.6693 333.582 65.28 335.843 63.616C338.147 61.952 341.71 61.12 346.531 61.12H353.059V57.856C353.059 55.5093 352.419 53.7173 351.139 52.48C349.859 51.2427 347.896 50.624 345.251 50.624C343.246 50.624 341.56 51.072 340.195 51.968C338.872 52.864 337.763 54.0587 336.867 55.552L333.795 52.672C334.691 50.88 336.12 49.3653 338.083 48.128C340.046 46.848 342.52 46.208 345.507 46.208C349.518 46.208 352.632 47.1893 354.851 49.152C357.07 51.1147 358.179 53.8453 358.179 57.344V75.52H361.955V80H359.075ZM344.355 76.416C345.635 76.416 346.808 76.2667 347.875 75.968C348.942 75.6693 349.859 75.2427 350.627 74.688C351.395 74.1333 351.992 73.4933 352.419 72.768C352.846 72.0427 353.059 71.2533 353.059 70.4V64.96H346.275C343.331 64.96 341.176 65.3867 339.811 66.24C338.488 67.0933 337.827 68.3307 337.827 69.952V71.296C337.827 72.9173 338.403 74.176 339.555 75.072C340.75 75.968 342.35 76.416 344.355 76.416Z" fill="black"/>
<path d="M369.902 46.976H375.022V60.736H391.534V46.976H396.655V80H391.534V65.216H375.022V80H369.902V46.976Z" fill="black"/>
<path d="M408.168 46.976H413.288V60.736H429.799V46.976H434.92V80H429.799V65.216H413.288V80H408.168V46.976Z" fill="black"/>
<path d="M446.432 46.976H451.552V58.944H460.32C463.648 58.944 466.294 59.8827 468.257 61.76C470.219 63.6373 471.201 66.2187 471.201 69.504C471.201 72.832 470.24 75.4133 468.32 77.248C466.4 79.0827 463.755 80 460.384 80H446.432V46.976ZM459.616 75.52C461.536 75.52 463.03 75.1573 464.096 74.432C465.163 73.7067 465.697 72.4907 465.697 70.784V68.096C465.697 66.3893 465.163 65.1947 464.096 64.512C463.03 63.7867 461.536 63.424 459.616 63.424H451.552V75.52H459.616ZM476.768 46.976H481.888V80H476.768V46.976Z" fill="black"/>
<path d="M505.801 80.768C503.54 80.768 501.492 80.3627 499.657 79.552C497.865 78.7413 496.308 77.5893 494.985 76.096C493.705 74.56 492.702 72.7467 491.977 70.656C491.294 68.5227 490.953 66.1333 490.953 63.488C490.953 60.8853 491.294 58.5173 491.977 56.384C492.702 54.2507 493.705 52.4373 494.985 50.944C496.308 49.408 497.865 48.2347 499.657 47.424C501.492 46.6133 503.54 46.208 505.801 46.208C508.02 46.208 510.004 46.6133 511.753 47.424C513.502 48.2347 514.996 49.3653 516.233 50.816C517.47 52.224 518.409 53.9093 519.049 55.872C519.732 57.8347 520.073 59.9893 520.073 62.336V64.768H496.329V66.304C496.329 67.712 496.542 69.0347 496.969 70.272C497.438 71.4667 498.078 72.512 498.889 73.408C499.742 74.304 500.766 75.008 501.961 75.52C503.198 76.032 504.585 76.288 506.121 76.288C508.212 76.288 510.025 75.7973 511.561 74.816C513.14 73.8347 514.356 72.4267 515.209 70.592L518.857 73.216C517.79 75.4773 516.126 77.312 513.865 78.72C511.604 80.0853 508.916 80.768 505.801 80.768ZM505.801 50.496C504.393 50.496 503.113 50.752 501.961 51.264C500.809 51.7333 499.806 52.416 498.953 53.312C498.142 54.208 497.502 55.2747 497.033 56.512C496.564 57.7067 496.329 59.0293 496.329 60.48V60.928H514.569V60.224C514.569 57.28 513.758 54.9333 512.137 53.184C510.558 51.392 508.446 50.496 505.801 50.496Z" fill="black"/>
<path d="M30.44 106.976H35.432V125.28L34.92 133.216H35.176L39.272 126.176L52.456 106.976H57.192V140H52.2V121.696L52.712 113.76H52.456L48.36 120.8L35.176 140H30.44V106.976Z" fill="black"/>
<path d="M84.47 106.976H101.11C103.798 106.976 105.91 107.744 107.446 109.28C108.982 110.773 109.75 112.8 109.75 115.36C109.75 119.499 107.595 121.824 103.286 122.336V122.592C105.846 122.805 107.745 123.616 108.982 125.024C110.262 126.389 110.902 128.096 110.902 130.144C110.902 131.467 110.689 132.725 110.262 133.92C109.878 135.115 109.302 136.16 108.534 137.056C107.766 137.952 106.827 138.677 105.718 139.232C104.609 139.744 103.35 140 101.942 140H84.47V106.976ZM100.406 135.776C101.942 135.776 103.158 135.371 104.054 134.56C104.95 133.749 105.398 132.597 105.398 131.104V129.632C105.398 128.139 104.95 126.987 104.054 126.176C103.158 125.365 101.942 124.96 100.406 124.96H89.59V135.776H100.406ZM99.766 120.8C101.174 120.8 102.262 120.459 103.03 119.776C103.841 119.051 104.246 118.027 104.246 116.704V115.296C104.246 113.973 103.841 112.971 103.03 112.288C102.262 111.563 101.174 111.2 99.766 111.2H89.59V120.8H99.766Z" fill="black"/>
<path d="M120.797 106.976H125.917V118.944H134.686C138.014 118.944 140.659 119.883 142.622 121.76C144.584 123.637 145.566 126.219 145.566 129.504C145.566 132.832 144.606 135.413 142.686 137.248C140.766 139.083 138.12 140 134.749 140H120.797V106.976ZM133.982 135.52C135.902 135.52 137.395 135.157 138.462 134.432C139.528 133.707 140.061 132.491 140.061 130.784V128.096C140.061 126.389 139.528 125.195 138.462 124.512C137.395 123.787 135.902 123.424 133.982 123.424H125.917V135.52H133.982ZM151.133 106.976H156.254V140H151.133V106.976Z" fill="black"/>
<path d="M167.75 106.976H184.39C187.078 106.976 189.19 107.744 190.726 109.28C192.262 110.773 193.03 112.8 193.03 115.36C193.03 119.499 190.875 121.824 186.566 122.336V122.592C189.126 122.805 191.025 123.616 192.262 125.024C193.542 126.389 194.182 128.096 194.182 130.144C194.182 131.467 193.969 132.725 193.542 133.92C193.158 135.115 192.582 136.16 191.814 137.056C191.046 137.952 190.107 138.677 188.998 139.232C187.889 139.744 186.63 140 185.222 140H167.75V106.976ZM183.686 135.776C185.222 135.776 186.438 135.371 187.334 134.56C188.23 133.749 188.678 132.597 188.678 131.104V129.632C188.678 128.139 188.23 126.987 187.334 126.176C186.438 125.365 185.222 124.96 183.686 124.96H172.87V135.776H183.686ZM183.046 120.8C184.454 120.8 185.542 120.459 186.31 119.776C187.121 119.051 187.526 118.027 187.526 116.704V115.296C187.526 113.973 187.121 112.971 186.31 112.288C185.542 111.563 184.454 111.2 183.046 111.2H172.87V120.8H183.046Z" fill="black"/>
<path d="M216.493 140.768C214.232 140.768 212.184 140.363 210.35 139.552C208.558 138.741 207 137.589 205.678 136.096C204.398 134.56 203.395 132.747 202.67 130.656C201.987 128.523 201.646 126.133 201.646 123.488C201.646 120.885 201.987 118.517 202.67 116.384C203.395 114.251 204.398 112.437 205.678 110.944C207 109.408 208.558 108.235 210.35 107.424C212.184 106.613 214.232 106.208 216.493 106.208C218.712 106.208 220.696 106.613 222.445 107.424C224.195 108.235 225.688 109.365 226.926 110.816C228.163 112.224 229.102 113.909 229.742 115.872C230.424 117.835 230.766 119.989 230.766 122.336V124.768H207.021V126.304C207.021 127.712 207.235 129.035 207.661 130.272C208.131 131.467 208.771 132.512 209.581 133.408C210.435 134.304 211.459 135.008 212.654 135.52C213.891 136.032 215.278 136.288 216.814 136.288C218.904 136.288 220.718 135.797 222.254 134.816C223.832 133.835 225.048 132.427 225.902 130.592L229.549 133.216C228.483 135.477 226.819 137.312 224.558 138.72C222.296 140.085 219.608 140.768 216.493 140.768ZM216.493 110.496C215.085 110.496 213.806 110.752 212.654 111.264C211.502 111.733 210.499 112.416 209.646 113.312C208.835 114.208 208.195 115.275 207.726 116.512C207.256 117.707 207.021 119.029 207.021 120.48V120.928H225.262V120.224C225.262 117.28 224.451 114.933 222.829 113.184C221.251 111.392 219.139 110.496 216.493 110.496Z" fill="black"/>
<path d="M252.131 140.768C249.827 140.768 247.757 140.363 245.923 139.552C244.088 138.741 242.531 137.589 241.251 136.096C240.013 134.603 239.053 132.789 238.37 130.656C237.73 128.523 237.411 126.133 237.411 123.488C237.411 120.843 237.73 118.453 238.37 116.32C239.053 114.187 240.013 112.373 241.251 110.88C242.531 109.387 244.088 108.235 245.923 107.424C247.757 106.613 249.827 106.208 252.131 106.208C255.416 106.208 258.04 106.933 260.003 108.384C262.008 109.792 263.501 111.648 264.482 113.952L260.194 116.128C259.597 114.421 258.616 113.099 257.25 112.16C255.885 111.221 254.179 110.752 252.131 110.752C250.595 110.752 249.25 111.008 248.098 111.52C246.946 111.989 245.987 112.672 245.219 113.568C244.451 114.421 243.875 115.467 243.491 116.704C243.107 117.899 242.915 119.221 242.915 120.672V126.304C242.915 129.205 243.683 131.595 245.219 133.472C246.797 135.307 249.101 136.224 252.131 136.224C256.269 136.224 259.256 134.304 261.09 130.464L264.802 132.96C263.736 135.349 262.136 137.248 260.003 138.656C257.912 140.064 255.288 140.768 252.131 140.768Z" fill="black"/>
<path d="M280.024 111.456H268.76V106.976H296.408V111.456H285.144V140H280.024V111.456Z" fill="black"/>
<path d="M303.747 106.976H308.74V125.28L308.228 133.216H308.483L312.579 126.176L325.763 106.976H330.5V140H325.508V121.696L326.02 113.76H325.763L321.668 120.8L308.483 140H303.747V106.976Z" fill="black"/>
<path d="M357.777 106.976H362.77V125.28L362.258 133.216H362.513L366.609 126.176L379.793 106.976H384.53V140H379.538V121.696L380.049 113.76H379.793L375.698 120.8L362.513 140H357.777V106.976Z" fill="black"/>
<path d="M391.947 140L404.171 123.36L392.459 106.976H398.475L406.859 119.264H407.051L415.755 106.976H421.451L409.803 122.976L421.707 140H415.691L407.115 127.072H406.923L397.643 140H391.947Z" fill="black"/>
<path d="M30.44 166.976H47.08C49.768 166.976 51.88 167.744 53.416 169.28C54.952 170.773 55.72 172.8 55.72 175.36C55.72 179.499 53.5653 181.824 49.256 182.336V182.592C51.816 182.805 53.7147 183.616 54.952 185.024C56.232 186.389 56.872 188.096 56.872 190.144C56.872 191.467 56.6587 192.725 56.232 193.92C55.848 195.115 55.272 196.16 54.504 197.056C53.736 197.952 52.7973 198.677 51.688 199.232C50.5787 199.744 49.32 200 47.912 200H30.44V166.976ZM46.376 195.776C47.912 195.776 49.128 195.371 50.024 194.56C50.92 193.749 51.368 192.597 51.368 191.104V189.632C51.368 188.139 50.92 186.987 50.024 186.176C49.128 185.365 47.912 184.96 46.376 184.96H35.56V195.776H46.376ZM45.736 180.8C47.144 180.8 48.232 180.459 49 179.776C49.8107 179.051 50.216 178.027 50.216 176.704V175.296C50.216 173.973 49.8107 172.971 49 172.288C48.232 171.563 47.144 171.2 45.736 171.2H35.56V180.8H45.736Z" fill="black"/>
<path d="M89.6365 171.456H78.3725V166.976H106.021V171.456H94.7565V200H89.6365V171.456Z" fill="black"/>
<path d="M136.548 200C134.628 200 133.241 199.488 132.387 198.464C131.577 197.44 131.065 196.16 130.852 194.624H130.531C129.806 196.672 128.611 198.208 126.947 199.232C125.283 200.256 123.299 200.768 120.995 200.768C117.497 200.768 114.766 199.872 112.803 198.08C110.883 196.288 109.924 193.856 109.924 190.784C109.924 187.669 111.054 185.28 113.315 183.616C115.619 181.952 119.182 181.12 124.003 181.12H130.531V177.856C130.531 175.509 129.891 173.717 128.611 172.48C127.331 171.243 125.369 170.624 122.723 170.624C120.718 170.624 119.033 171.072 117.667 171.968C116.345 172.864 115.235 174.059 114.339 175.552L111.267 172.672C112.163 170.88 113.593 169.365 115.555 168.128C117.518 166.848 119.993 166.208 122.979 166.208C126.99 166.208 130.105 167.189 132.324 169.152C134.542 171.115 135.652 173.845 135.652 177.344V195.52H139.428V200H136.548ZM121.827 196.416C123.108 196.416 124.281 196.267 125.347 195.968C126.414 195.669 127.332 195.243 128.1 194.688C128.868 194.133 129.465 193.493 129.891 192.768C130.318 192.043 130.531 191.253 130.531 190.4V184.96H123.747C120.803 184.96 118.649 185.387 117.283 186.24C115.961 187.093 115.299 188.331 115.299 189.952V191.296C115.299 192.917 115.875 194.176 117.027 195.072C118.222 195.968 119.822 196.416 121.827 196.416Z" fill="black"/>
<path d="M160.424 200.768C158.12 200.768 156.05 200.384 154.215 199.616C152.381 198.848 150.824 197.653 149.544 196.032C148.264 194.411 147.261 192.32 146.535 189.76C145.853 187.157 145.512 184.021 145.512 180.352C145.512 175.616 145.81 171.563 146.408 168.192C147.048 164.821 148.05 162.048 149.415 159.872C150.781 157.696 152.509 156.075 154.6 155.008C156.733 153.899 159.314 153.216 162.344 152.96L172.712 152.128V157.312L161.704 158.208C159.826 158.379 158.247 158.741 156.967 159.296C155.687 159.851 154.621 160.725 153.768 161.92C152.957 163.072 152.317 164.608 151.848 166.528C151.421 168.448 151.101 170.837 150.887 173.696H151.143C152.125 171.435 153.383 169.749 154.919 168.64C156.498 167.531 158.568 166.976 161.128 166.976C163.218 166.976 165.138 167.36 166.887 168.128C168.637 168.896 170.13 170.005 171.368 171.456C172.605 172.864 173.565 174.635 174.247 176.768C174.973 178.859 175.336 181.248 175.336 183.936C175.336 186.453 174.973 188.736 174.247 190.784C173.522 192.832 172.498 194.603 171.176 196.096C169.853 197.589 168.274 198.741 166.439 199.552C164.647 200.363 162.642 200.768 160.424 200.768ZM160.68 196.224C162.002 196.224 163.218 196.011 164.327 195.584C165.437 195.157 166.397 194.517 167.208 193.664C168.018 192.811 168.658 191.765 169.128 190.528C169.597 189.291 169.831 187.84 169.831 186.176V182.144C169.831 178.56 168.957 175.893 167.208 174.144C165.458 172.395 163.111 171.52 160.167 171.52C157.095 171.52 154.791 172.288 153.255 173.824C151.762 175.317 151.016 177.28 151.016 179.712V185.6C151.016 189.184 151.89 191.851 153.639 193.6C155.389 195.349 157.736 196.224 160.68 196.224Z" fill="black"/>
<path d="M179.275 195.52H183.626C184.181 194.752 184.672 193.835 185.098 192.768C185.525 191.701 185.888 190.421 186.187 188.928C186.485 187.435 186.72 185.664 186.891 183.616C187.061 181.568 187.146 179.157 187.146 176.384V166.976H209.482V200H204.363V171.456H192.01V176.512C192.01 179.712 191.882 182.507 191.626 184.896C191.413 187.285 191.093 189.333 190.667 191.04C190.283 192.747 189.813 194.155 189.258 195.264C188.704 196.331 188.107 197.184 187.467 197.824C186.656 198.635 185.76 199.211 184.779 199.552C183.797 199.851 182.624 200 181.258 200H179.275V195.52Z" fill="black"/>
<path d="M221.03 166.976H226.022V185.28L225.51 193.216H225.766L229.862 186.176L243.046 166.976H247.782V200H242.79V181.696L243.302 173.76H243.046L238.95 180.8L225.766 200H221.03V166.976Z" fill="black"/>
<path d="M285.919 200H259.295V166.976H264.415V195.52H279.967V166.976H285.087V195.52H290.591V208.96H285.919V200Z" fill="black"/>
<path d="M318.349 166.976H323.405L308.621 207.68C308.237 208.661 307.854 209.472 307.47 210.112C307.086 210.795 306.616 211.328 306.061 211.712C305.507 212.096 304.803 212.373 303.949 212.544C303.139 212.715 302.136 212.8 300.941 212.8H298.318V208.32H303.501L305.997 201.28L293.646 166.976H298.766L306.702 189.44L308.237 194.816H308.557L310.349 189.44L318.349 166.976Z" fill="black"/>
<path d="M590.162 39V15.268H599.614C601.745 15.268 603.377 15.88 604.51 17.104C605.666 18.3053 606.244 19.96 606.244 22.068C606.244 24.176 605.666 25.842 604.51 27.066C603.377 28.2673 601.745 28.868 599.614 28.868H593.018V39H590.162ZM593.018 26.352H599.614C600.747 26.352 601.62 26.0573 602.232 25.468C602.867 24.8787 603.184 24.04 603.184 22.952V21.184C603.184 20.096 602.867 19.2573 602.232 18.668C601.62 18.0787 600.747 17.784 599.614 17.784H593.018V26.352Z" fill="black"/>
<path d="M616.781 39.408C615.58 39.408 614.492 39.1927 613.517 38.762C612.565 38.3313 611.738 37.7193 611.035 36.926C610.355 36.11 609.822 35.1467 609.437 34.036C609.074 32.9027 608.893 31.6333 608.893 30.228C608.893 28.8453 609.074 27.5873 609.437 26.454C609.822 25.3207 610.355 24.3573 611.035 23.564C611.738 22.748 612.565 22.1247 613.517 21.694C614.492 21.2633 615.58 21.048 616.781 21.048C617.96 21.048 619.014 21.2633 619.943 21.694C620.872 22.1247 621.666 22.7253 622.323 23.496C622.98 24.244 623.479 25.1393 623.819 26.182C624.182 27.2247 624.363 28.3693 624.363 29.616V30.908H611.749V31.724C611.749 32.472 611.862 33.1747 612.089 33.832C612.338 34.4667 612.678 35.022 613.109 35.498C613.562 35.974 614.106 36.348 614.741 36.62C615.398 36.892 616.135 37.028 616.951 37.028C618.062 37.028 619.025 36.7673 619.841 36.246C620.68 35.7247 621.326 34.9767 621.779 34.002L623.717 35.396C623.15 36.5973 622.266 37.572 621.065 38.32C619.864 39.0453 618.436 39.408 616.781 39.408ZM616.781 23.326C616.033 23.326 615.353 23.462 614.741 23.734C614.129 23.9833 613.596 24.346 613.143 24.822C612.712 25.298 612.372 25.8647 612.123 26.522C611.874 27.1567 611.749 27.8593 611.749 28.63V28.868H621.439V28.494C621.439 26.93 621.008 25.6833 620.147 24.754C619.308 23.802 618.186 23.326 616.781 23.326Z" fill="black"/>
<path d="M643.329 39H629.185V21.456H631.905V36.62H640.167V21.456H642.887V36.62H645.811V43.76H643.329V39Z" fill="black"/>
<path d="M656.508 39.408C655.307 39.408 654.219 39.1927 653.244 38.762C652.292 38.3313 651.465 37.7193 650.762 36.926C650.082 36.11 649.549 35.1467 649.164 34.036C648.801 32.9027 648.62 31.6333 648.62 30.228C648.62 28.8453 648.801 27.5873 649.164 26.454C649.549 25.3207 650.082 24.3573 650.762 23.564C651.465 22.748 652.292 22.1247 653.244 21.694C654.219 21.2633 655.307 21.048 656.508 21.048C657.687 21.048 658.741 21.2633 659.67 21.694C660.599 22.1247 661.393 22.7253 662.05 23.496C662.707 24.244 663.206 25.1393 663.546 26.182C663.909 27.2247 664.09 28.3693 664.09 29.616V30.908H651.476V31.724C651.476 32.472 651.589 33.1747 651.816 33.832C652.065 34.4667 652.405 35.022 652.836 35.498C653.289 35.974 653.833 36.348 654.468 36.62C655.125 36.892 655.862 37.028 656.678 37.028C657.789 37.028 658.752 36.7673 659.568 36.246C660.407 35.7247 661.053 34.9767 661.506 34.002L663.444 35.396C662.877 36.5973 661.993 37.572 660.792 38.32C659.591 39.0453 658.163 39.408 656.508 39.408ZM656.508 23.326C655.76 23.326 655.08 23.462 654.468 23.734C653.856 23.9833 653.323 24.346 652.87 24.822C652.439 25.298 652.099 25.8647 651.85 26.522C651.601 27.1567 651.476 27.8593 651.476 28.63V28.868H661.166V28.494C661.166 26.93 660.735 25.6833 659.874 24.754C659.035 23.802 657.913 23.326 656.508 23.326Z" fill="black"/>
<path d="M668.912 21.456H682.614V39H679.894V23.836H671.632V39H668.912V21.456Z" fill="black"/>
<path d="M692.516 23.836H686.532V21.456H701.22V23.836H695.236V39H692.516V23.836Z" fill="black"/>
<path d="M589.89 51.456H592.61V54.312H592.746C593.199 53.2013 593.857 52.3853 594.718 51.864C595.602 51.32 596.656 51.048 597.88 51.048C598.968 51.048 599.954 51.2633 600.838 51.694C601.722 52.1247 602.47 52.7367 603.082 53.53C603.717 54.3233 604.193 55.2867 604.51 56.42C604.85 57.5533 605.02 58.8227 605.02 60.228C605.02 61.6333 604.85 62.9027 604.51 64.036C604.193 65.1693 603.717 66.1327 603.082 66.926C602.47 67.7193 601.722 68.3313 600.838 68.762C599.954 69.1927 598.968 69.408 597.88 69.408C595.5 69.408 593.789 68.32 592.746 66.144H592.61V75.8H589.89V51.456ZM597.132 66.96C598.673 66.96 599.886 66.484 600.77 65.532C601.654 64.5573 602.096 63.288 602.096 61.724V58.732C602.096 57.168 601.654 55.91 600.77 54.958C599.886 53.9833 598.673 53.496 597.132 53.496C596.52 53.496 595.931 53.5867 595.364 53.768C594.82 53.9267 594.344 54.1533 593.936 54.448C593.528 54.7427 593.199 55.1053 592.95 55.536C592.723 55.944 592.61 56.386 592.61 56.862V63.39C592.61 63.9567 592.723 64.4667 592.95 64.92C593.199 65.3507 593.528 65.7247 593.936 66.042C594.344 66.3367 594.82 66.5633 595.364 66.722C595.931 66.8807 596.52 66.96 597.132 66.96Z" fill="black"/>
<path d="M620.599 51.456H623.285L615.431 73.08C615.227 73.6013 615.023 74.032 614.819 74.372C614.615 74.7347 614.365 75.018 614.071 75.222C613.776 75.426 613.402 75.5733 612.949 75.664C612.518 75.7547 611.985 75.8 611.351 75.8H609.957V73.42H612.711L614.037 69.68L607.475 51.456H610.195L614.411 63.39L615.227 66.246H615.397L616.349 63.39L620.599 51.456Z" fill="black"/>
<path d="M627.093 51.456H629.813V58.8H633.315L636.715 53.428C636.965 53.02 637.203 52.6913 637.429 52.442C637.656 52.17 637.883 51.966 638.109 51.83C638.336 51.694 638.574 51.6033 638.823 51.558C639.073 51.49 639.356 51.456 639.673 51.456H641.271V53.836H639.163L636.409 58.188C636.228 58.4827 636.069 58.7207 635.933 58.902C635.797 59.0833 635.661 59.242 635.525 59.378C635.389 59.4913 635.242 59.5933 635.083 59.684C634.925 59.752 634.732 59.82 634.505 59.888V60.024C634.981 60.092 635.389 60.2507 635.729 60.5C636.092 60.7267 636.466 61.18 636.851 61.86L639.537 66.62H641.543V69H639.571C638.982 69 638.438 68.8527 637.939 68.558C637.463 68.2407 636.999 67.674 636.545 66.858L633.315 61.112H629.813V69H627.093V51.456Z" fill="black"/>
<path d="M652.226 69.408C651.047 69.408 649.97 69.1927 648.996 68.762C648.021 68.3313 647.182 67.7193 646.48 66.926C645.8 66.11 645.267 65.1467 644.882 64.036C644.496 62.9027 644.304 61.6333 644.304 60.228C644.304 58.8453 644.496 57.5873 644.882 56.454C645.267 55.3207 645.8 54.3573 646.48 53.564C647.182 52.748 648.021 52.1247 648.996 51.694C649.97 51.2633 651.047 51.048 652.226 51.048C653.404 51.048 654.47 51.2633 655.422 51.694C656.396 52.1247 657.235 52.748 657.938 53.564C658.64 54.3573 659.184 55.3207 659.57 56.454C659.955 57.5873 660.148 58.8453 660.148 60.228C660.148 61.6333 659.955 62.9027 659.57 64.036C659.184 65.1467 658.64 66.11 657.938 66.926C657.235 67.7193 656.396 68.3313 655.422 68.762C654.47 69.1927 653.404 69.408 652.226 69.408ZM652.226 66.994C653.699 66.994 654.9 66.5407 655.83 65.634C656.759 64.7273 657.224 63.3447 657.224 61.486V58.97C657.224 57.1113 656.759 55.7287 655.83 54.822C654.9 53.9153 653.699 53.462 652.226 53.462C650.752 53.462 649.551 53.9153 648.622 54.822C647.692 55.7287 647.228 57.1113 647.228 58.97V61.486C647.228 63.3447 647.692 64.7273 648.622 65.634C649.551 66.5407 650.752 66.994 652.226 66.994Z" fill="black"/>
<path d="M664.961 51.456H673.801C675.229 51.456 676.351 51.864 677.167 52.68C677.983 53.4733 678.391 54.55 678.391 55.91C678.391 58.1087 677.246 59.344 674.957 59.616V59.752C676.317 59.8653 677.326 60.296 677.983 61.044C678.663 61.7693 679.003 62.676 679.003 63.764C679.003 64.4667 678.89 65.1353 678.663 65.77C678.459 66.4047 678.153 66.96 677.745 67.436C677.337 67.912 676.838 68.2973 676.249 68.592C675.66 68.864 674.991 69 674.243 69H664.961V51.456ZM673.427 66.756C674.243 66.756 674.889 66.5407 675.365 66.11C675.841 65.6793 676.079 65.0673 676.079 64.274V63.492C676.079 62.6987 675.841 62.0867 675.365 61.656C674.889 61.2253 674.243 61.01 673.427 61.01H667.681V66.756H673.427ZM673.087 58.8C673.835 58.8 674.413 58.6187 674.821 58.256C675.252 57.8707 675.467 57.3267 675.467 56.624V55.876C675.467 55.1733 675.252 54.6407 674.821 54.278C674.413 53.8927 673.835 53.7 673.087 53.7H667.681V58.8H673.087Z" fill="black"/>
<path d="M690.89 69.408C689.711 69.408 688.635 69.1927 687.66 68.762C686.685 68.3313 685.847 67.7193 685.144 66.926C684.464 66.11 683.931 65.1467 683.546 64.036C683.161 62.9027 682.968 61.6333 682.968 60.228C682.968 58.8453 683.161 57.5873 683.546 56.454C683.931 55.3207 684.464 54.3573 685.144 53.564C685.847 52.748 686.685 52.1247 687.66 51.694C688.635 51.2633 689.711 51.048 690.89 51.048C692.069 51.048 693.134 51.2633 694.086 51.694C695.061 52.1247 695.899 52.748 696.602 53.564C697.305 54.3573 697.849 55.3207 698.234 56.454C698.619 57.5873 698.812 58.8453 698.812 60.228C698.812 61.6333 698.619 62.9027 698.234 64.036C697.849 65.1467 697.305 66.11 696.602 66.926C695.899 67.7193 695.061 68.3313 694.086 68.762C693.134 69.1927 692.069 69.408 690.89 69.408ZM690.89 66.994C692.363 66.994 693.565 66.5407 694.494 65.634C695.423 64.7273 695.888 63.3447 695.888 61.486V58.97C695.888 57.1113 695.423 55.7287 694.494 54.822C693.565 53.9153 692.363 53.462 690.89 53.462C689.417 53.462 688.215 53.9153 687.286 54.822C686.357 55.7287 685.892 57.1113 685.892 58.97V61.486C685.892 63.3447 686.357 64.7273 687.286 65.634C688.215 66.5407 689.417 66.994 690.89 66.994Z" fill="black"/>
<path d="M703.413 60.126V57.202H712.287V60.126H703.413Z" fill="black"/>
<path d="M587.272 96.62H589.278C589.981 95.4867 590.547 94.07 590.978 92.37C591.409 90.67 591.624 88.7207 591.624 86.522V81.456H603.49V96.62H606.414V103.76H603.932V99H589.754V103.76H587.272V96.62ZM600.77 96.62V83.836H594.208V86.658C594.208 88.9927 594.004 90.9873 593.596 92.642C593.211 94.274 592.746 95.6 592.202 96.62H600.77Z" fill="black"/>
<path d="M610.517 81.456H613.169V91.18L612.897 95.396H613.033L615.209 91.656L622.213 81.456H624.729V99H622.077V89.276L622.349 85.06H622.213L620.037 88.8L613.033 99H610.517V81.456Z" fill="black"/>
<path d="M634.619 83.836H628.635V81.456H643.323V83.836H637.339V99H634.619V83.836Z" fill="black"/>
<path d="M653.387 99.408C652.186 99.408 651.098 99.1927 650.123 98.762C649.171 98.3313 648.344 97.7193 647.641 96.926C646.961 96.11 646.428 95.1467 646.043 94.036C645.68 92.9027 645.499 91.6333 645.499 90.228C645.499 88.8453 645.68 87.5873 646.043 86.454C646.428 85.3207 646.961 84.3573 647.641 83.564C648.344 82.748 649.171 82.1247 650.123 81.694C651.098 81.2633 652.186 81.048 653.387 81.048C654.566 81.048 655.62 81.2633 656.549 81.694C657.478 82.1247 658.271 82.7253 658.929 83.496C659.586 84.244 660.085 85.1393 660.425 86.182C660.788 87.2247 660.969 88.3693 660.969 89.616V90.908H648.355V91.724C648.355 92.472 648.468 93.1747 648.695 93.832C648.944 94.4667 649.284 95.022 649.715 95.498C650.168 95.974 650.712 96.348 651.347 96.62C652.004 96.892 652.741 97.028 653.557 97.028C654.668 97.028 655.631 96.7673 656.447 96.246C657.286 95.7247 657.932 94.9767 658.385 94.002L660.323 95.396C659.756 96.5973 658.872 97.572 657.671 98.32C656.47 99.0453 655.042 99.408 653.387 99.408ZM653.387 83.326C652.639 83.326 651.959 83.462 651.347 83.734C650.735 83.9833 650.202 84.346 649.749 84.822C649.318 85.298 648.978 85.8647 648.729 86.522C648.48 87.1567 648.355 87.8593 648.355 88.63V88.868H658.045V88.494C658.045 86.93 657.614 85.6833 656.753 84.754C655.914 83.802 654.792 83.326 653.387 83.326Z" fill="black"/>
<path d="M663.173 96.62H665.485C665.78 96.212 666.04 95.7247 666.267 95.158C666.494 94.5913 666.686 93.9113 666.845 93.118C667.004 92.3247 667.128 91.384 667.219 90.296C667.31 89.208 667.355 87.9273 667.355 86.454V81.456H679.221V99H676.501V83.836H669.939V86.522C669.939 88.222 669.871 89.7067 669.735 90.976C669.622 92.2453 669.452 93.3333 669.225 94.24C669.021 95.1467 668.772 95.8947 668.477 96.484C668.182 97.0507 667.865 97.504 667.525 97.844C667.094 98.2747 666.618 98.5807 666.097 98.762C665.576 98.9207 664.952 99 664.227 99H663.173V96.62Z" fill="black"/>
<path d="M699.738 99.408C697.516 99.408 695.714 98.6827 694.332 97.232C692.972 95.7813 692.212 93.7413 692.054 91.112H688.076V99H685.356V81.456H688.076V88.8H692.122C692.348 86.3293 693.13 84.4253 694.468 83.088C695.828 81.728 697.584 81.048 699.738 81.048C700.894 81.048 701.948 81.2633 702.9 81.694C703.852 82.102 704.656 82.7027 705.314 83.496C705.994 84.2667 706.515 85.2187 706.878 86.352C707.24 87.4853 707.422 88.7773 707.422 90.228C707.422 91.6787 707.24 92.9707 706.878 94.104C706.515 95.2373 705.994 96.2007 705.314 96.994C704.656 97.7647 703.852 98.3653 702.9 98.796C701.948 99.204 700.894 99.408 699.738 99.408ZM699.738 96.994C701.188 96.994 702.344 96.5633 703.206 95.702C704.067 94.8407 704.498 93.4353 704.498 91.486V88.97C704.498 87.0207 704.067 85.6153 703.206 84.754C702.344 83.8927 701.188 83.462 699.738 83.462C698.287 83.462 697.131 83.8927 696.27 84.754C695.408 85.6153 694.978 87.0207 694.978 88.97V91.486C694.978 93.4353 695.408 94.8407 696.27 95.702C697.131 96.5633 698.287 96.994 699.738 96.994Z" fill="black"/>
<path d="M594.488 133.6H594.408C594.12 133.717 593.763 133.808 593.336 133.872C592.909 133.936 592.445 133.968 591.944 133.968C590.557 133.968 589.539 133.648 588.888 133.008C588.248 132.357 587.928 131.355 587.928 130V126.832H589.272V130C589.272 130.981 589.496 131.691 589.944 132.128C590.403 132.565 591.085 132.784 591.992 132.784C592.525 132.784 593.005 132.752 593.432 132.688C593.859 132.624 594.211 132.533 594.488 132.416V126.832H595.832V138H594.488V133.6Z" fill="black"/>
<path d="M604.833 138C604.353 138 604.006 137.872 603.792 137.616C603.59 137.36 603.462 137.04 603.409 136.656H603.328C603.147 137.168 602.848 137.552 602.432 137.808C602.016 138.064 601.521 138.192 600.945 138.192C600.07 138.192 599.387 137.968 598.896 137.52C598.416 137.072 598.177 136.464 598.177 135.696C598.177 134.917 598.459 134.32 599.024 133.904C599.6 133.488 600.491 133.28 601.696 133.28H603.328V132.464C603.328 131.877 603.169 131.429 602.849 131.12C602.529 130.811 602.038 130.656 601.377 130.656C600.875 130.656 600.454 130.768 600.112 130.992C599.782 131.216 599.505 131.515 599.281 131.888L598.513 131.168C598.737 130.72 599.094 130.341 599.584 130.032C600.075 129.712 600.694 129.552 601.44 129.552C602.443 129.552 603.222 129.797 603.776 130.288C604.331 130.779 604.609 131.461 604.609 132.336V136.88H605.552V138H604.833ZM601.153 137.104C601.473 137.104 601.766 137.067 602.032 136.992C602.299 136.917 602.529 136.811 602.721 136.672C602.913 136.533 603.062 136.373 603.169 136.192C603.275 136.011 603.328 135.813 603.328 135.6V134.24H601.633C600.897 134.24 600.358 134.347 600.016 134.56C599.686 134.773 599.521 135.083 599.521 135.488V135.824C599.521 136.229 599.665 136.544 599.953 136.768C600.251 136.992 600.651 137.104 601.153 137.104Z" fill="black"/>
<path d="M609.018 130.864H606.203V129.744H613.115V130.864H610.299V138H609.018V130.864Z" fill="black"/>
<path d="M619.019 126.832H625.099V128.016H620.363V138H619.019V126.832Z" fill="black"/>
<path d="M627.163 126.832H635.275V138H633.931V128.016H628.507V138H627.163V126.832Z" fill="black"/>
<path d="M642.177 128.016V138H640.833V128.016H637.281V126.832H645.729V128.016H642.177Z" fill="black"/>
<path d="M588.488 142.832H594.568V144.016H589.832V154H588.488V142.832Z" fill="black"/>
<path d="M600.952 145.744H602.216L598.52 155.92C598.424 156.165 598.328 156.368 598.232 156.528C598.136 156.699 598.018 156.832 597.88 156.928C597.741 157.024 597.565 157.093 597.352 157.136C597.149 157.179 596.898 157.2 596.6 157.2H595.944V156.08H597.24L597.864 154.32L594.776 145.744H596.056L598.04 151.36L598.424 152.704H598.504L598.952 151.36L600.952 145.744Z" fill="black"/>
<path d="M604.008 145.744H609.224V146.864H605.288V154H604.008V145.744Z" fill="black"/>
<path d="M609.405 152.88H610.493C610.632 152.688 610.754 152.459 610.861 152.192C610.968 151.925 611.058 151.605 611.133 151.232C611.208 150.859 611.266 150.416 611.309 149.904C611.352 149.392 611.373 148.789 611.373 148.096V145.744H616.957V154H615.677V146.864H612.589V148.128C612.589 148.928 612.557 149.627 612.493 150.224C612.44 150.821 612.36 151.333 612.253 151.76C612.157 152.187 612.04 152.539 611.901 152.816C611.762 153.083 611.613 153.296 611.453 153.456C611.25 153.659 611.026 153.803 610.781 153.888C610.536 153.963 610.242 154 609.901 154H609.405V152.88Z" fill="black"/>
<path d="M619.844 145.744H621.124V148.736H623.476C624.308 148.736 624.969 148.971 625.46 149.44C625.95 149.909 626.196 150.555 626.196 151.376C626.196 152.208 625.956 152.853 625.476 153.312C624.996 153.771 624.334 154 623.492 154H619.844V145.744ZM623.3 152.88C623.78 152.88 624.153 152.789 624.42 152.608C624.686 152.427 624.82 152.123 624.82 151.696V151.024C624.82 150.597 624.686 150.299 624.42 150.128C624.153 149.947 623.78 149.856 623.3 149.856H621.124V152.88H623.3Z" fill="black"/>
<path d="M628.138 149.824V148.448H632.314V149.824H628.138Z" fill="black"/>
<path d="M636.143 146.864H633.327V145.744H640.239V146.864H637.423V154H636.143V146.864Z" fill="black"/>
<path d="M647.871 154C647.391 154 647.044 153.872 646.831 153.616C646.628 153.36 646.5 153.04 646.447 152.656H646.367C646.185 153.168 645.887 153.552 645.471 153.808C645.055 154.064 644.559 154.192 643.983 154.192C643.108 154.192 642.425 153.968 641.935 153.52C641.455 153.072 641.215 152.464 641.215 151.696C641.215 150.917 641.497 150.32 642.063 149.904C642.639 149.488 643.529 149.28 644.735 149.28H646.367V148.464C646.367 147.877 646.207 147.429 645.887 147.12C645.567 146.811 645.076 146.656 644.415 146.656C643.913 146.656 643.492 146.768 643.151 146.992C642.82 147.216 642.543 147.515 642.319 147.888L641.551 147.168C641.775 146.72 642.132 146.341 642.623 146.032C643.113 145.712 643.732 145.552 644.479 145.552C645.481 145.552 646.26 145.797 646.815 146.288C647.369 146.779 647.647 147.461 647.647 148.336V152.88H648.591V154H647.871ZM644.191 153.104C644.511 153.104 644.804 153.067 645.071 152.992C645.337 152.917 645.567 152.811 645.759 152.672C645.951 152.533 646.1 152.373 646.207 152.192C646.313 152.011 646.367 151.813 646.367 151.6V150.24H644.671C643.935 150.24 643.396 150.347 643.055 150.56C642.724 150.773 642.559 151.083 642.559 151.488V151.824C642.559 152.229 642.703 152.544 642.991 152.768C643.289 152.992 643.689 153.104 644.191 153.104Z" fill="black"/>
<path d="M653.84 154.192C653.264 154.192 652.746 154.096 652.288 153.904C651.829 153.712 651.44 153.413 651.12 153.008C650.8 152.603 650.549 152.08 650.368 151.44C650.197 150.789 650.112 150.005 650.112 149.088C650.112 147.904 650.186 146.891 650.336 146.048C650.496 145.205 650.746 144.512 651.088 143.968C651.429 143.424 651.861 143.019 652.384 142.752C652.917 142.475 653.562 142.304 654.32 142.24L656.912 142.032V143.328L654.16 143.552C653.69 143.595 653.296 143.685 652.976 143.824C652.656 143.963 652.389 144.181 652.176 144.48C651.973 144.768 651.813 145.152 651.696 145.632C651.589 146.112 651.509 146.709 651.456 147.424H651.52C651.765 146.859 652.08 146.437 652.464 146.16C652.858 145.883 653.376 145.744 654.016 145.744C654.538 145.744 655.018 145.84 655.456 146.032C655.893 146.224 656.266 146.501 656.576 146.864C656.885 147.216 657.125 147.659 657.296 148.192C657.477 148.715 657.568 149.312 657.568 149.984C657.568 150.613 657.477 151.184 657.296 151.696C657.114 152.208 656.858 152.651 656.528 153.024C656.197 153.397 655.802 153.685 655.344 153.888C654.896 154.091 654.394 154.192 653.84 154.192ZM653.904 153.056C654.234 153.056 654.538 153.003 654.816 152.896C655.093 152.789 655.333 152.629 655.536 152.416C655.738 152.203 655.898 151.941 656.016 151.632C656.133 151.323 656.192 150.96 656.192 150.544V149.536C656.192 148.64 655.973 147.973 655.536 147.536C655.098 147.099 654.512 146.88 653.776 146.88C653.008 146.88 652.432 147.072 652.048 147.456C651.674 147.829 651.488 148.32 651.488 148.928V150.4C651.488 151.296 651.706 151.963 652.144 152.4C652.581 152.837 653.168 153.056 653.904 153.056Z" fill="black"/>
<path d="M658.552 152.88H659.64C659.779 152.688 659.902 152.459 660.008 152.192C660.115 151.925 660.206 151.605 660.28 151.232C660.355 150.859 660.414 150.416 660.456 149.904C660.499 149.392 660.52 148.789 660.52 148.096V145.744H666.104V154H664.824V146.864H661.736V148.128C661.736 148.928 661.704 149.627 661.64 150.224C661.587 150.821 661.507 151.333 661.4 151.76C661.304 152.187 661.187 152.539 661.048 152.816C660.91 153.083 660.76 153.296 660.6 153.456C660.398 153.659 660.174 153.803 659.928 153.888C659.683 153.963 659.39 154 659.048 154H658.552V152.88Z" fill="black"/>
<path d="M668.991 145.744H670.239V150.32L670.111 152.304H670.175L671.199 150.544L674.495 145.744H675.679V154H674.431V149.424L674.559 147.44H674.495L673.471 149.2L670.175 154H668.991V145.744Z" fill="black"/>
<path d="M685.214 154H678.557V145.744H679.838V152.88H683.726V145.744H685.005V152.88H686.382V156.24H685.214V154Z" fill="black"/>
<path d="M688.311 145.744H689.591V148.736H691.783C692.615 148.736 693.277 148.971 693.767 149.44C694.258 149.909 694.503 150.555 694.503 151.376C694.503 152.208 694.263 152.853 693.783 153.312C693.303 153.771 692.642 154 691.799 154H688.311V145.744ZM691.607 152.88C692.087 152.88 692.461 152.789 692.727 152.608C692.994 152.427 693.127 152.123 693.127 151.696V151.024C693.127 150.597 692.994 150.299 692.727 150.128C692.461 149.947 692.087 149.856 691.607 149.856H689.591V152.88H691.607ZM695.895 145.744H697.175V154H695.895V145.744Z" fill="black"/>
</svg>
