<svg width="750" height="365" viewBox="0 0 750 365" fill="none" xmlns="http://www.w3.org/2000/svg">
<path d="M750 39H88V345H750V39Z" fill="#FFE600"/>
<path d="M720.25 8.8421V48H729V0H704V8.8421H720.25Z" fill="black"/>
<path d="M8.75 8.8421V48H0V0H25V8.8421H8.75Z" fill="black"/>
<path d="M8.75 327.158V288H0V336H25V327.158H8.75Z" fill="black"/>
<path d="M596.79 39V18.06H605.13C607.01 18.06 608.45 18.6 609.45 19.68C610.47 20.74 610.98 22.2 610.98 24.06C610.98 25.92 610.47 27.39 609.45 28.47C608.45 29.53 607.01 30.06 605.13 30.06H599.31V39H596.79ZM599.31 27.84H605.13C606.13 27.84 606.9 27.58 607.44 27.06C608 26.54 608.28 25.8 608.28 24.84V23.28C608.28 22.32 608 21.58 607.44 21.06C606.9 20.54 606.13 20.28 605.13 20.28H599.31V27.84Z" fill="black"/>
<path d="M620.277 39.36C619.217 39.36 618.257 39.17 617.397 38.79C616.557 38.41 615.827 37.87 615.207 37.17C614.607 36.45 614.137 35.6 613.797 34.62C613.477 33.62 613.317 32.5 613.317 31.26C613.317 30.04 613.477 28.93 613.797 27.93C614.137 26.93 614.607 26.08 615.207 25.38C615.827 24.66 616.557 24.11 617.397 23.73C618.257 23.35 619.217 23.16 620.277 23.16C621.317 23.16 622.247 23.35 623.067 23.73C623.887 24.11 624.587 24.64 625.167 25.32C625.747 25.98 626.187 26.77 626.487 27.69C626.807 28.61 626.967 29.62 626.967 30.72V31.86H615.837V32.58C615.837 33.24 615.937 33.86 616.137 34.44C616.357 35 616.657 35.49 617.037 35.91C617.437 36.33 617.917 36.66 618.477 36.9C619.057 37.14 619.707 37.26 620.427 37.26C621.407 37.26 622.257 37.03 622.977 36.57C623.717 36.11 624.287 35.45 624.687 34.59L626.397 35.82C625.897 36.88 625.117 37.74 624.057 38.4C622.997 39.04 621.737 39.36 620.277 39.36ZM620.277 25.17C619.617 25.17 619.017 25.29 618.477 25.53C617.937 25.75 617.467 26.07 617.067 26.49C616.687 26.91 616.387 27.41 616.167 27.99C615.947 28.55 615.837 29.17 615.837 29.85V30.06H624.387V29.73C624.387 28.35 624.007 27.25 623.247 26.43C622.507 25.59 621.517 25.17 620.277 25.17Z" fill="black"/>
<path d="M643.702 39H631.222V23.52H633.622V36.9H640.912V23.52H643.312V36.9H645.892V43.2H643.702V39Z" fill="black"/>
<path d="M655.331 39.36C654.271 39.36 653.311 39.17 652.451 38.79C651.611 38.41 650.881 37.87 650.261 37.17C649.661 36.45 649.191 35.6 648.851 34.62C648.531 33.62 648.371 32.5 648.371 31.26C648.371 30.04 648.531 28.93 648.851 27.93C649.191 26.93 649.661 26.08 650.261 25.38C650.881 24.66 651.611 24.11 652.451 23.73C653.311 23.35 654.271 23.16 655.331 23.16C656.371 23.16 657.301 23.35 658.121 23.73C658.941 24.11 659.641 24.64 660.221 25.32C660.801 25.98 661.241 26.77 661.541 27.69C661.861 28.61 662.021 29.62 662.021 30.72V31.86H650.891V32.58C650.891 33.24 650.991 33.86 651.191 34.44C651.411 35 651.711 35.49 652.091 35.91C652.491 36.33 652.971 36.66 653.531 36.9C654.111 37.14 654.761 37.26 655.481 37.26C656.461 37.26 657.311 37.03 658.031 36.57C658.771 36.11 659.341 35.45 659.741 34.59L661.451 35.82C660.951 36.88 660.171 37.74 659.111 38.4C658.051 39.04 656.791 39.36 655.331 39.36ZM655.331 25.17C654.671 25.17 654.071 25.29 653.531 25.53C652.991 25.75 652.521 26.07 652.121 26.49C651.741 26.91 651.441 27.41 651.221 27.99C651.001 28.55 650.891 29.17 650.891 29.85V30.06H659.441V29.73C659.441 28.35 659.061 27.25 658.301 26.43C657.561 25.59 656.571 25.17 655.331 25.17Z" fill="black"/>
<path d="M666.275 23.52H678.365V39H675.965V25.62H668.675V39H666.275V23.52Z" fill="black"/>
<path d="M687.103 25.62H681.823V23.52H694.783V25.62H689.503V39H687.103V25.62Z" fill="black"/>
<path d="M596.55 51.52H598.95V54.04H599.07C599.47 53.06 600.05 52.34 600.81 51.88C601.59 51.4 602.52 51.16 603.6 51.16C604.56 51.16 605.43 51.35 606.21 51.73C606.99 52.11 607.65 52.65 608.19 53.35C608.75 54.05 609.17 54.9 609.45 55.9C609.75 56.9 609.9 58.02 609.9 59.26C609.9 60.5 609.75 61.62 609.45 62.62C609.17 63.62 608.75 64.47 608.19 65.17C607.65 65.87 606.99 66.41 606.21 66.79C605.43 67.17 604.56 67.36 603.6 67.36C601.5 67.36 599.99 66.4 599.07 64.48H598.95V73H596.55V51.52ZM602.94 65.2C604.3 65.2 605.37 64.78 606.15 63.94C606.93 63.08 607.32 61.96 607.32 60.58V57.94C607.32 56.56 606.93 55.45 606.15 54.61C605.37 53.75 604.3 53.32 602.94 53.32C602.4 53.32 601.88 53.4 601.38 53.56C600.9 53.7 600.48 53.9 600.12 54.16C599.76 54.42 599.47 54.74 599.25 55.12C599.05 55.48 598.95 55.87 598.95 56.29V62.05C598.95 62.55 599.05 63 599.25 63.4C599.47 63.78 599.76 64.11 600.12 64.39C600.48 64.65 600.9 64.85 601.38 64.99C601.88 65.13 602.4 65.2 602.94 65.2Z" fill="black"/>
<path d="M623.646 51.52H626.016L619.086 70.6C618.906 71.06 618.726 71.44 618.546 71.74C618.366 72.06 618.146 72.31 617.886 72.49C617.626 72.67 617.296 72.8 616.896 72.88C616.516 72.96 616.046 73 615.486 73H614.256V70.9H616.686L617.856 67.6L612.066 51.52H614.466L618.186 62.05L618.906 64.57H619.056L619.896 62.05L623.646 51.52Z" fill="black"/>
<path d="M629.377 51.52H631.777V58H634.867L637.867 53.26C638.087 52.9 638.297 52.61 638.497 52.39C638.697 52.15 638.897 51.97 639.097 51.85C639.297 51.73 639.507 51.65 639.727 51.61C639.947 51.55 640.197 51.52 640.477 51.52H641.887V53.62H640.027L637.597 57.46C637.437 57.72 637.297 57.93 637.177 58.09C637.057 58.25 636.937 58.39 636.817 58.51C636.697 58.61 636.567 58.7 636.427 58.78C636.287 58.84 636.117 58.9 635.917 58.96V59.08C636.337 59.14 636.697 59.28 636.997 59.5C637.317 59.7 637.647 60.1 637.987 60.7L640.357 64.9H642.127V67H640.387C639.867 67 639.387 66.87 638.947 66.61C638.527 66.33 638.117 65.83 637.717 65.11L634.867 60.04H631.777V67H629.377V51.52Z" fill="black"/>
<path d="M651.552 67.36C650.512 67.36 649.562 67.17 648.702 66.79C647.842 66.41 647.102 65.87 646.482 65.17C645.882 64.45 645.412 63.6 645.072 62.62C644.732 61.62 644.562 60.5 644.562 59.26C644.562 58.04 644.732 56.93 645.072 55.93C645.412 54.93 645.882 54.08 646.482 53.38C647.102 52.66 647.842 52.11 648.702 51.73C649.562 51.35 650.512 51.16 651.552 51.16C652.592 51.16 653.532 51.35 654.372 51.73C655.232 52.11 655.972 52.66 656.592 53.38C657.212 54.08 657.692 54.93 658.032 55.93C658.372 56.93 658.542 58.04 658.542 59.26C658.542 60.5 658.372 61.62 658.032 62.62C657.692 63.6 657.212 64.45 656.592 65.17C655.972 65.87 655.232 66.41 654.372 66.79C653.532 67.17 652.592 67.36 651.552 67.36ZM651.552 65.23C652.852 65.23 653.912 64.83 654.732 64.03C655.552 63.23 655.962 62.01 655.962 60.37V58.15C655.962 56.51 655.552 55.29 654.732 54.49C653.912 53.69 652.852 53.29 651.552 53.29C650.252 53.29 649.192 53.69 648.372 54.49C647.552 55.29 647.142 56.51 647.142 58.15V60.37C647.142 62.01 647.552 63.23 648.372 64.03C649.192 64.83 650.252 65.23 651.552 65.23Z" fill="black"/>
<path d="M662.789 51.52H670.589C671.849 51.52 672.839 51.88 673.559 52.6C674.279 53.3 674.639 54.25 674.639 55.45C674.639 57.39 673.629 58.48 671.609 58.72V58.84C672.809 58.94 673.699 59.32 674.279 59.98C674.879 60.62 675.179 61.42 675.179 62.38C675.179 63 675.079 63.59 674.879 64.15C674.699 64.71 674.429 65.2 674.069 65.62C673.709 66.04 673.269 66.38 672.749 66.64C672.229 66.88 671.639 67 670.979 67H662.789V51.52ZM670.259 65.02C670.979 65.02 671.549 64.83 671.969 64.45C672.389 64.07 672.599 63.53 672.599 62.83V62.14C672.599 61.44 672.389 60.9 671.969 60.52C671.549 60.14 670.979 59.95 670.259 59.95H665.189V65.02H670.259ZM669.959 58C670.619 58 671.129 57.84 671.489 57.52C671.869 57.18 672.059 56.7 672.059 56.08V55.42C672.059 54.8 671.869 54.33 671.489 54.01C671.129 53.67 670.619 53.5 669.959 53.5H665.189V58H669.959Z" fill="black"/>
<path d="M685.668 67.36C684.628 67.36 683.678 67.17 682.818 66.79C681.958 66.41 681.218 65.87 680.598 65.17C679.998 64.45 679.528 63.6 679.188 62.62C678.848 61.62 678.678 60.5 678.678 59.26C678.678 58.04 678.848 56.93 679.188 55.93C679.528 54.93 679.998 54.08 680.598 53.38C681.218 52.66 681.958 52.11 682.818 51.73C683.678 51.35 684.628 51.16 685.668 51.16C686.708 51.16 687.648 51.35 688.488 51.73C689.348 52.11 690.088 52.66 690.708 53.38C691.328 54.08 691.808 54.93 692.148 55.93C692.488 56.93 692.658 58.04 692.658 59.26C692.658 60.5 692.488 61.62 692.148 62.62C691.808 63.6 691.328 64.45 690.708 65.17C690.088 65.87 689.348 66.41 688.488 66.79C687.648 67.17 686.708 67.36 685.668 67.36ZM685.668 65.23C686.968 65.23 688.028 64.83 688.848 64.03C689.668 63.23 690.078 62.01 690.078 60.37V58.15C690.078 56.51 689.668 55.29 688.848 54.49C688.028 53.69 686.968 53.29 685.668 53.29C684.368 53.29 683.308 53.69 682.488 54.49C681.668 55.29 681.258 56.51 681.258 58.15V60.37C681.258 62.01 681.668 63.23 682.488 64.03C683.308 64.83 684.368 65.23 685.668 65.23Z" fill="black"/>
<path d="M696.718 59.17V56.59H704.548V59.17H696.718Z" fill="black"/>
<path d="M594.24 92.9H596.01C596.63 91.9 597.13 90.65 597.51 89.15C597.89 87.65 598.08 85.93 598.08 83.99V79.52H608.55V92.9H611.13V99.2H608.94V95H596.43V99.2H594.24V92.9ZM606.15 92.9V81.62H600.36V84.11C600.36 86.17 600.18 87.93 599.82 89.39C599.48 90.83 599.07 92 598.59 92.9H606.15Z" fill="black"/>
<path d="M614.75 79.52H617.09V88.1L616.85 91.82H616.97L618.89 88.52L625.07 79.52H627.29V95H624.95V86.42L625.19 82.7H625.07L623.15 86L616.97 95H614.75V79.52Z" fill="black"/>
<path d="M636.017 81.62H630.737V79.52H643.697V81.62H638.417V95H636.017V81.62Z" fill="black"/>
<path d="M652.577 95.36C651.517 95.36 650.557 95.17 649.697 94.79C648.857 94.41 648.127 93.87 647.507 93.17C646.907 92.45 646.437 91.6 646.097 90.62C645.777 89.62 645.617 88.5 645.617 87.26C645.617 86.04 645.777 84.93 646.097 83.93C646.437 82.93 646.907 82.08 647.507 81.38C648.127 80.66 648.857 80.11 649.697 79.73C650.557 79.35 651.517 79.16 652.577 79.16C653.617 79.16 654.547 79.35 655.367 79.73C656.187 80.11 656.887 80.64 657.467 81.32C658.047 81.98 658.487 82.77 658.787 83.69C659.107 84.61 659.267 85.62 659.267 86.72V87.86H648.137V88.58C648.137 89.24 648.237 89.86 648.437 90.44C648.657 91 648.957 91.49 649.337 91.91C649.737 92.33 650.217 92.66 650.777 92.9C651.357 93.14 652.007 93.26 652.727 93.26C653.707 93.26 654.557 93.03 655.277 92.57C656.017 92.11 656.587 91.45 656.987 90.59L658.697 91.82C658.197 92.88 657.417 93.74 656.357 94.4C655.297 95.04 654.037 95.36 652.577 95.36ZM652.577 81.17C651.917 81.17 651.317 81.29 650.777 81.53C650.237 81.75 649.767 82.07 649.367 82.49C648.987 82.91 648.687 83.41 648.467 83.99C648.247 84.55 648.137 85.17 648.137 85.85V86.06H656.687V85.73C656.687 84.35 656.307 83.25 655.547 82.43C654.807 81.59 653.817 81.17 652.577 81.17Z" fill="black"/>
<path d="M661.211 92.9H663.251C663.511 92.54 663.741 92.11 663.941 91.61C664.141 91.11 664.311 90.51 664.451 89.81C664.591 89.11 664.701 88.28 664.781 87.32C664.861 86.36 664.901 85.23 664.901 83.93V79.52H675.371V95H672.971V81.62H667.181V83.99C667.181 85.49 667.121 86.8 667.001 87.92C666.901 89.04 666.751 90 666.551 90.8C666.371 91.6 666.151 92.26 665.891 92.78C665.631 93.28 665.351 93.68 665.051 93.98C664.671 94.36 664.252 94.63 663.792 94.79C663.332 94.93 662.781 95 662.141 95H661.211V92.9Z" fill="black"/>
<path d="M693.474 95.36C691.514 95.36 689.924 94.72 688.704 93.44C687.504 92.16 686.834 90.36 686.694 88.04H683.184V95H680.784V79.52H683.184V86H686.754C686.954 83.82 687.644 82.14 688.824 80.96C690.024 79.76 691.574 79.16 693.474 79.16C694.494 79.16 695.424 79.35 696.264 79.73C697.104 80.09 697.814 80.62 698.394 81.32C698.994 82 699.454 82.84 699.774 83.84C700.094 84.84 700.254 85.98 700.254 87.26C700.254 88.54 700.094 89.68 699.774 90.68C699.454 91.68 698.994 92.53 698.394 93.23C697.814 93.91 697.104 94.44 696.264 94.82C695.424 95.18 694.494 95.36 693.474 95.36ZM693.474 93.23C694.754 93.23 695.774 92.85 696.534 92.09C697.294 91.33 697.674 90.09 697.674 88.37V86.15C697.674 84.43 697.294 83.19 696.534 82.43C695.774 81.67 694.754 81.29 693.474 81.29C692.194 81.29 691.174 81.67 690.414 82.43C689.654 83.19 689.274 84.43 689.274 86.15V88.37C689.274 90.09 689.654 91.33 690.414 92.09C691.174 92.85 692.194 93.23 693.474 93.23Z" fill="black"/>
<path d="M604.488 131.6H604.408C604.12 131.717 603.763 131.808 603.336 131.872C602.909 131.936 602.445 131.968 601.944 131.968C600.557 131.968 599.539 131.648 598.888 131.008C598.248 130.357 597.928 129.355 597.928 128V124.832H599.272V128C599.272 128.981 599.496 129.691 599.944 130.128C600.403 130.565 601.085 130.784 601.992 130.784C602.525 130.784 603.005 130.752 603.432 130.688C603.859 130.624 604.211 130.533 604.488 130.416V124.832H605.832V136H604.488V131.6Z" fill="black"/>
<path d="M614.833 136C614.353 136 614.006 135.872 613.792 135.616C613.59 135.36 613.462 135.04 613.409 134.656H613.328C613.147 135.168 612.848 135.552 612.432 135.808C612.016 136.064 611.521 136.192 610.945 136.192C610.07 136.192 609.387 135.968 608.896 135.52C608.416 135.072 608.177 134.464 608.177 133.696C608.177 132.917 608.459 132.32 609.024 131.904C609.6 131.488 610.491 131.28 611.696 131.28H613.328V130.464C613.328 129.877 613.169 129.429 612.849 129.12C612.529 128.811 612.038 128.656 611.377 128.656C610.875 128.656 610.454 128.768 610.112 128.992C609.782 129.216 609.505 129.515 609.281 129.888L608.513 129.168C608.737 128.72 609.094 128.341 609.584 128.032C610.075 127.712 610.694 127.552 611.44 127.552C612.443 127.552 613.222 127.797 613.776 128.288C614.331 128.779 614.609 129.461 614.609 130.336V134.88H615.552V136H614.833ZM611.153 135.104C611.473 135.104 611.766 135.067 612.032 134.992C612.299 134.917 612.529 134.811 612.721 134.672C612.913 134.533 613.062 134.373 613.169 134.192C613.275 134.011 613.328 133.813 613.328 133.6V132.24H611.633C610.897 132.24 610.358 132.347 610.016 132.56C609.686 132.773 609.521 133.083 609.521 133.488V133.824C609.521 134.229 609.665 134.544 609.953 134.768C610.251 134.992 610.651 135.104 611.153 135.104Z" fill="black"/>
<path d="M619.018 128.864H616.203V127.744H623.115V128.864H620.299V136H619.018V128.864Z" fill="black"/>
<path d="M629.019 124.832H635.099V126.016H630.363V136H629.019V124.832Z" fill="black"/>
<path d="M637.163 124.832H645.275V136H643.931V126.016H638.507V136H637.163V124.832Z" fill="black"/>
<path d="M652.177 126.016V136H650.833V126.016H647.281V124.832H655.729V126.016H652.177Z" fill="black"/>
<path d="M598.488 140.832H604.568V142.016H599.832V152H598.488V140.832Z" fill="black"/>
<path d="M610.952 143.744H612.216L608.52 153.92C608.424 154.165 608.328 154.368 608.232 154.528C608.136 154.699 608.018 154.832 607.88 154.928C607.741 155.024 607.565 155.093 607.352 155.136C607.149 155.179 606.898 155.2 606.6 155.2H605.944V154.08H607.24L607.864 152.32L604.776 143.744H606.056L608.04 149.36L608.424 150.704H608.504L608.952 149.36L610.952 143.744Z" fill="black"/>
<path d="M614.008 143.744H619.224V144.864H615.288V152H614.008V143.744Z" fill="black"/>
<path d="M619.405 150.88H620.493C620.632 150.688 620.754 150.459 620.861 150.192C620.968 149.925 621.058 149.605 621.133 149.232C621.208 148.859 621.266 148.416 621.309 147.904C621.352 147.392 621.373 146.789 621.373 146.096V143.744H626.957V152H625.677V144.864H622.589V146.128C622.589 146.928 622.557 147.627 622.493 148.224C622.44 148.821 622.36 149.333 622.253 149.76C622.157 150.187 622.04 150.539 621.901 150.816C621.762 151.083 621.613 151.296 621.453 151.456C621.25 151.659 621.026 151.803 620.781 151.888C620.536 151.963 620.242 152 619.901 152H619.405V150.88Z" fill="black"/>
<path d="M629.844 143.744H631.124V146.736H633.476C634.308 146.736 634.969 146.971 635.46 147.44C635.95 147.909 636.196 148.555 636.196 149.376C636.196 150.208 635.956 150.853 635.476 151.312C634.996 151.771 634.334 152 633.492 152H629.844V143.744ZM633.3 150.88C633.78 150.88 634.153 150.789 634.42 150.608C634.686 150.427 634.82 150.123 634.82 149.696V149.024C634.82 148.597 634.686 148.299 634.42 148.128C634.153 147.947 633.78 147.856 633.3 147.856H631.124V150.88H633.3Z" fill="black"/>
<path d="M638.138 147.824V146.448H642.314V147.824H638.138Z" fill="black"/>
<path d="M646.143 144.864H643.327V143.744H650.239V144.864H647.423V152H646.143V144.864Z" fill="black"/>
<path d="M657.871 152C657.391 152 657.044 151.872 656.831 151.616C656.628 151.36 656.5 151.04 656.447 150.656H656.367C656.185 151.168 655.887 151.552 655.471 151.808C655.055 152.064 654.559 152.192 653.983 152.192C653.108 152.192 652.425 151.968 651.935 151.52C651.455 151.072 651.215 150.464 651.215 149.696C651.215 148.917 651.497 148.32 652.063 147.904C652.639 147.488 653.529 147.28 654.735 147.28H656.367V146.464C656.367 145.877 656.207 145.429 655.887 145.12C655.567 144.811 655.076 144.656 654.415 144.656C653.913 144.656 653.492 144.768 653.151 144.992C652.82 145.216 652.543 145.515 652.319 145.888L651.551 145.168C651.775 144.72 652.132 144.341 652.623 144.032C653.113 143.712 653.732 143.552 654.479 143.552C655.481 143.552 656.26 143.797 656.815 144.288C657.369 144.779 657.647 145.461 657.647 146.336V150.88H658.591V152H657.871ZM654.191 151.104C654.511 151.104 654.804 151.067 655.071 150.992C655.337 150.917 655.567 150.811 655.759 150.672C655.951 150.533 656.1 150.373 656.207 150.192C656.313 150.011 656.367 149.813 656.367 149.6V148.24H654.671C653.935 148.24 653.396 148.347 653.055 148.56C652.724 148.773 652.559 149.083 652.559 149.488V149.824C652.559 150.229 652.703 150.544 652.991 150.768C653.289 150.992 653.689 151.104 654.191 151.104Z" fill="black"/>
<path d="M663.84 152.192C663.264 152.192 662.746 152.096 662.288 151.904C661.829 151.712 661.44 151.413 661.12 151.008C660.8 150.603 660.549 150.08 660.368 149.44C660.197 148.789 660.112 148.005 660.112 147.088C660.112 145.904 660.186 144.891 660.336 144.048C660.496 143.205 660.746 142.512 661.088 141.968C661.429 141.424 661.861 141.019 662.384 140.752C662.917 140.475 663.562 140.304 664.32 140.24L666.912 140.032V141.328L664.16 141.552C663.69 141.595 663.296 141.685 662.976 141.824C662.656 141.963 662.389 142.181 662.176 142.48C661.973 142.768 661.813 143.152 661.696 143.632C661.589 144.112 661.509 144.709 661.456 145.424H661.52C661.765 144.859 662.08 144.437 662.464 144.16C662.858 143.883 663.376 143.744 664.016 143.744C664.538 143.744 665.018 143.84 665.456 144.032C665.893 144.224 666.266 144.501 666.576 144.864C666.885 145.216 667.125 145.659 667.296 146.192C667.477 146.715 667.568 147.312 667.568 147.984C667.568 148.613 667.477 149.184 667.296 149.696C667.114 150.208 666.858 150.651 666.528 151.024C666.197 151.397 665.802 151.685 665.344 151.888C664.896 152.091 664.394 152.192 663.84 152.192ZM663.904 151.056C664.234 151.056 664.538 151.003 664.816 150.896C665.093 150.789 665.333 150.629 665.536 150.416C665.738 150.203 665.898 149.941 666.016 149.632C666.133 149.323 666.192 148.96 666.192 148.544V147.536C666.192 146.64 665.973 145.973 665.536 145.536C665.098 145.099 664.512 144.88 663.776 144.88C663.008 144.88 662.432 145.072 662.048 145.456C661.674 145.829 661.488 146.32 661.488 146.928V148.4C661.488 149.296 661.706 149.963 662.144 150.4C662.581 150.837 663.168 151.056 663.904 151.056Z" fill="black"/>
<path d="M668.552 150.88H669.64C669.779 150.688 669.902 150.459 670.008 150.192C670.115 149.925 670.206 149.605 670.28 149.232C670.355 148.859 670.414 148.416 670.456 147.904C670.499 147.392 670.52 146.789 670.52 146.096V143.744H676.104V152H674.824V144.864H671.736V146.128C671.736 146.928 671.704 147.627 671.64 148.224C671.587 148.821 671.507 149.333 671.4 149.76C671.304 150.187 671.187 150.539 671.048 150.816C670.91 151.083 670.76 151.296 670.6 151.456C670.398 151.659 670.174 151.803 669.928 151.888C669.683 151.963 669.39 152 669.048 152H668.552V150.88Z" fill="black"/>
<path d="M678.991 143.744H680.239V148.32L680.111 150.304H680.175L681.199 148.544L684.495 143.744H685.679V152H684.431V147.424L684.559 145.44H684.495L683.471 147.2L680.175 152H678.991V143.744Z" fill="black"/>
<path d="M695.214 152H688.557V143.744H689.838V150.88H693.726V143.744H695.005V150.88H696.382V154.24H695.214V152Z" fill="black"/>
<path d="M698.311 143.744H699.591V146.736H701.783C702.615 146.736 703.277 146.971 703.767 147.44C704.258 147.909 704.503 148.555 704.503 149.376C704.503 150.208 704.263 150.853 703.783 151.312C703.303 151.771 702.642 152 701.799 152H698.311V143.744ZM701.607 150.88C702.087 150.88 702.461 150.789 702.727 150.608C702.994 150.427 703.127 150.123 703.127 149.696V149.024C703.127 148.597 702.994 148.299 702.727 148.128C702.461 147.947 702.087 147.856 701.607 147.856H699.591V150.88H701.607ZM705.895 143.744H707.175V152H705.895V143.744Z" fill="black"/>
<path d="M616.819 267.663C617.394 267.308 617.854 266.792 618.14 266.179C618.97 264.293 619.337 262.236 619.21 260.179C619.338 258.122 618.971 256.065 618.14 254.179C617.854 253.566 617.394 253.05 616.819 252.695C616.243 252.34 615.576 252.16 614.9 252.179C614.222 252.16 613.554 252.339 612.976 252.694C612.399 253.049 611.938 253.565 611.65 254.179C610.819 256.065 610.452 258.122 610.58 260.179C610.453 262.236 610.82 264.293 611.65 266.179C611.938 266.793 612.399 267.309 612.976 267.664C613.554 268.02 614.222 268.199 614.9 268.179C615.576 268.198 616.243 268.019 616.819 267.663Z" fill="black"/>
<path d="M638.82 253.049H634.82V258.039H638.82C639.612 258.091 640.397 257.865 641.04 257.399C641.306 257.173 641.515 256.888 641.652 256.567C641.789 256.246 641.85 255.897 641.83 255.549C641.848 255.202 641.786 254.856 641.649 254.537C641.512 254.218 641.304 253.935 641.04 253.709C640.402 253.231 639.615 252.997 638.82 253.049Z" fill="black"/>
<path d="M618.43 288.66C617.787 289.126 617.002 289.352 616.21 289.3H612.21V284.3H616.21C617.005 284.248 617.792 284.482 618.43 284.96C618.692 285.187 618.898 285.47 619.033 285.789C619.169 286.108 619.229 286.454 619.21 286.8C619.234 287.149 619.177 287.499 619.041 287.823C618.906 288.146 618.696 288.432 618.43 288.66Z" fill="black"/>
<path d="M638.59 284.311H634.5V289.401H638.59C639.371 289.447 640.141 289.201 640.75 288.711C641.01 288.482 641.215 288.198 641.352 287.88C641.488 287.561 641.553 287.217 641.54 286.871C641.555 286.52 641.492 286.17 641.355 285.847C641.219 285.523 641.012 285.234 640.75 285.001C640.141 284.511 639.371 284.265 638.59 284.311Z" fill="black"/>
<path d="M663.43 297.43C663.121 298.023 662.654 298.52 662.082 298.867C661.51 299.214 660.854 299.397 660.185 299.397C659.516 299.397 658.86 299.214 658.288 298.867C657.715 298.52 657.249 298.023 656.94 297.43C656.105 295.545 655.734 293.488 655.86 291.43C655.735 289.372 656.105 287.315 656.94 285.43C657.249 284.837 657.715 284.34 658.288 283.993C658.86 283.646 659.516 283.463 660.185 283.463C660.854 283.463 661.51 283.646 662.082 283.993C662.654 284.34 663.121 284.837 663.43 285.43C664.257 287.317 664.624 289.373 664.5 291.43C664.625 293.49 664.259 295.55 663.43 297.44V297.43Z" fill="black"/>
<path d="M709 288.66C708.357 289.126 707.572 289.352 706.78 289.3H702.78V284.3H706.78C707.58 284.259 708.368 284.508 709 285C709.263 285.226 709.471 285.509 709.608 285.828C709.745 286.147 709.807 286.493 709.79 286.84C709.806 287.183 709.743 287.526 709.606 287.841C709.469 288.157 709.262 288.437 709 288.66Z" fill="black"/>
<path fill-rule="evenodd" clip-rule="evenodd" d="M597 345V238H750V365H740V355H730V345H597ZM607.2 250.169C608.967 247.889 611.533 246.749 614.9 246.749C616.362 246.661 617.824 246.925 619.163 247.52C620.501 248.115 621.677 249.024 622.59 250.169C624.35 252.449 625.23 255.782 625.23 260.169C625.23 264.556 624.35 267.889 622.59 270.169C621.679 271.317 620.504 272.229 619.165 272.826C617.826 273.423 616.363 273.688 614.9 273.599C611.527 273.579 608.96 272.436 607.2 270.169C605.44 267.902 604.56 264.569 604.56 260.169C604.553 255.782 605.433 252.449 607.2 250.169ZM638.82 263.439H634.82V272.999H628.82V247.349H638.82C640.466 247.308 642.099 247.65 643.59 248.349C644.882 248.975 645.968 249.957 646.72 251.179C647.496 252.494 647.885 254.002 647.84 255.529C647.878 256.998 647.489 258.447 646.72 259.699C645.96 260.893 644.874 261.844 643.59 262.439C642.095 263.125 640.465 263.467 638.82 263.439ZM669.04 267.861H658.1V262.771H667.76V257.781H658.1V252.511H669.36V247.391H652.09V272.981H669.04V267.861ZM678.16 252.091L678.54 262.651V272.981H673.39V247.391H682.67L686.86 268.271H687.5L687.11 257.721V247.391H692.26V272.981H682.98L678.8 252.091H678.16ZM620.56 279.66C619.07 278.96 617.436 278.617 615.79 278.66H605.79V304.24H611.79V294.71H615.79C617.435 294.737 619.065 294.396 620.56 293.71C621.844 293.128 622.931 292.187 623.69 291C624.459 289.747 624.848 288.299 624.81 286.83C624.852 285.303 624.464 283.796 623.69 282.48C622.936 281.261 621.85 280.283 620.56 279.66ZM646.45 290.771C645.684 291.925 644.615 292.845 643.36 293.431C642.922 293.656 642.467 293.846 642 294.001L648.18 304.241H641.43L635.78 294.391H634.49V304.241H628.49V278.661H638.82C640.408 278.625 641.981 278.968 643.41 279.661C644.682 280.294 645.742 281.284 646.46 282.511C647.212 283.827 647.59 285.325 647.55 286.841C647.577 288.23 647.194 289.597 646.45 290.771ZM660.18 278C656.813 278 654.25 279.143 652.49 281.43C650.73 283.717 649.85 287.05 649.85 291.43C649.85 295.823 650.73 299.157 652.49 301.43C654.25 303.703 656.813 304.843 660.18 304.85C663.553 304.85 666.117 303.71 667.87 301.43C669.623 299.15 670.503 295.817 670.51 291.43C670.51 287.03 669.63 283.697 667.87 281.43C666.11 279.163 663.547 278.02 660.18 278ZM682.63 291.03H683.27L684.9 278.65H692.42V304.24H687.33V294.74L687.75 284.09H687.11L685.51 296.24H680.14L678.54 284.09H677.9L678.31 294.74V304.24H673.23V278.65H681L682.63 291.03ZM711.55 279.66C710.059 278.961 708.426 278.618 706.78 278.66H696.78V304.24H702.78V294.71H706.78C708.425 294.737 710.055 294.395 711.55 293.71C712.832 293.125 713.918 292.185 714.68 291C715.449 289.747 715.838 288.299 715.8 286.83C715.842 285.303 715.454 283.796 714.68 282.48C713.923 281.263 712.838 280.286 711.55 279.66ZM717.97 284.38V278.65H738.25V284.38H731.12V304.24H725.1V284.38H717.97ZM605.75 315.64H612.02V329.78H605.75V335.5H624.3V329.78H618.03V315.64H624.3V309.91H605.75V315.64ZM642.21 330.8L641.82 320.25V309.92H646.97V335.5H637.7L633.51 314.62H632.87L633.25 325.17V335.5H628.1V309.92H637.38L641.57 330.8H642.21ZM660.66 314.75C661.125 314.734 661.588 314.814 662.02 314.986C662.452 315.158 662.844 315.418 663.17 315.75C663.911 316.596 664.394 317.637 664.56 318.75H670.19C670.146 316.956 669.687 315.197 668.85 313.61C668.104 312.234 666.97 311.107 665.59 310.37C664.066 309.59 662.371 309.205 660.66 309.25C657.273 309.25 654.7 310.39 652.94 312.67C651.18 314.95 650.3 318.283 650.3 322.67C650.3 326.983 651.023 330.283 652.47 332.57C653.1 333.649 654.009 334.538 655.102 335.144C656.195 335.749 657.431 336.048 658.68 336.01C659.697 336.042 660.702 335.796 661.59 335.3C662.356 334.858 662.927 334.144 663.19 333.3H664.5V335.5H669.74V321.81H660.05V327.06H664.5C664.5 327.786 664.328 328.502 664 329.15C663.715 329.748 663.261 330.25 662.694 330.595C662.128 330.94 661.473 331.111 660.81 331.09C660.098 331.133 659.389 330.966 658.77 330.611C658.152 330.255 657.651 329.727 657.33 329.09C656.603 327.756 656.24 325.636 656.24 322.73C656.115 320.67 656.493 318.611 657.34 316.73C657.643 316.114 658.118 315.599 658.707 315.248C659.296 314.897 659.975 314.724 660.66 314.75Z" fill="black"/>
<path d="M46.696 93.768C41.0213 93.768 36.6053 91.848 33.448 88.008C30.2907 84.1253 28.712 78.4293 28.712 70.92C28.712 63.4107 30.2907 57.6507 33.448 53.64C36.6053 49.5867 41.0213 47.56 46.696 47.56C50.4507 47.56 53.5867 48.4133 56.104 50.12C58.664 51.8267 60.648 54.2373 62.056 57.352L57.704 59.976C56.808 57.672 55.4427 55.8373 53.608 54.472C51.7733 53.064 49.4693 52.36 46.696 52.36C44.776 52.36 43.048 52.7227 41.512 53.448C40.0187 54.1733 38.7387 55.2187 37.672 56.584C36.648 57.9067 35.8587 59.5067 35.304 61.384C34.7493 63.2187 34.472 65.288 34.472 67.592V74.248C34.472 78.856 35.5387 82.4613 37.672 85.064C39.8053 87.6667 42.8133 88.968 46.696 88.968C49.5547 88.968 51.944 88.2427 53.864 86.792C55.784 85.2987 57.192 83.336 58.088 80.904L62.376 83.592C60.968 86.7493 58.9413 89.2453 56.296 91.08C53.6507 92.872 50.4507 93.768 46.696 93.768Z" fill="black"/>
<path d="M83.31 93.768C81.0913 93.768 79.0647 93.3627 77.23 92.552C75.3953 91.7413 73.8167 90.5893 72.494 89.096C71.214 87.56 70.2113 85.7467 69.486 83.656C68.7607 81.5227 68.398 79.1333 68.398 76.488C68.398 73.8853 68.7607 71.5173 69.486 69.384C70.2113 67.2507 71.214 65.4373 72.494 63.944C73.8167 62.408 75.3953 61.2347 77.23 60.424C79.0647 59.6133 81.0913 59.208 83.31 59.208C85.5287 59.208 87.534 59.6133 89.326 60.424C91.1607 61.2347 92.7393 62.408 94.062 63.944C95.3847 65.4373 96.4087 67.2507 97.134 69.384C97.8593 71.5173 98.222 73.8853 98.222 76.488C98.222 79.1333 97.8593 81.5227 97.134 83.656C96.4087 85.7467 95.3847 87.56 94.062 89.096C92.7393 90.5893 91.1607 91.7413 89.326 92.552C87.534 93.3627 85.5287 93.768 83.31 93.768ZM83.31 89.224C86.0833 89.224 88.3447 88.3707 90.094 86.664C91.8433 84.9573 92.718 82.3547 92.718 78.856V74.12C92.718 70.6213 91.8433 68.0187 90.094 66.312C88.3447 64.6053 86.0833 63.752 83.31 63.752C80.5367 63.752 78.2753 64.6053 76.526 66.312C74.7767 68.0187 73.902 70.6213 73.902 74.12V78.856C73.902 82.3547 74.7767 84.9573 76.526 86.664C78.2753 88.3707 80.5367 89.224 83.31 89.224Z" fill="black"/>
<path d="M120.331 93.768C118.027 93.768 115.958 93.384 114.123 92.616C112.288 91.848 110.731 90.6533 109.451 89.032C108.171 87.4107 107.168 85.32 106.443 82.76C105.76 80.1573 105.419 77.0213 105.419 73.352C105.419 68.616 105.718 64.5627 106.315 61.192C106.955 57.8213 107.958 55.048 109.323 52.872C110.688 50.696 112.416 49.0747 114.507 48.008C116.64 46.8987 119.222 46.216 122.251 45.96L132.619 45.128V50.312L121.611 51.208C119.734 51.3787 118.155 51.7413 116.875 52.296C115.595 52.8507 114.528 53.7253 113.675 54.92C112.864 56.072 112.224 57.608 111.755 59.528C111.328 61.448 111.008 63.8373 110.795 66.696H111.051C112.032 64.4347 113.291 62.7493 114.827 61.64C116.406 60.5307 118.475 59.976 121.035 59.976C123.126 59.976 125.046 60.36 126.795 61.128C128.544 61.896 130.038 63.0053 131.275 64.456C132.512 65.864 133.472 67.6347 134.155 69.768C134.88 71.8587 135.243 74.248 135.243 76.936C135.243 79.4533 134.88 81.736 134.155 83.784C133.43 85.832 132.406 87.6027 131.083 89.096C129.76 90.5893 128.182 91.7413 126.347 92.552C124.555 93.3627 122.55 93.768 120.331 93.768ZM120.587 89.224C121.91 89.224 123.126 89.0107 124.235 88.584C125.344 88.1573 126.304 87.5173 127.115 86.664C127.926 85.8107 128.566 84.7653 129.035 83.528C129.504 82.2907 129.739 80.84 129.739 79.176V75.144C129.739 71.56 128.864 68.8933 127.115 67.144C125.366 65.3947 123.019 64.52 120.075 64.52C117.003 64.52 114.699 65.288 113.163 66.824C111.67 68.3173 110.923 70.28 110.923 72.712V78.6C110.923 82.184 111.798 84.8507 113.547 86.6C115.296 88.3493 117.643 89.224 120.587 89.224Z" fill="black"/>
<path d="M144.36 59.976H149.48V65.352H149.736C150.589 63.2613 151.827 61.7253 153.448 60.744C155.112 59.72 157.096 59.208 159.4 59.208C161.448 59.208 163.304 59.6133 164.968 60.424C166.632 61.2347 168.04 62.3867 169.192 63.88C170.387 65.3733 171.283 67.1867 171.88 69.32C172.52 71.4533 172.84 73.8427 172.84 76.488C172.84 79.1333 172.52 81.5227 171.88 83.656C171.283 85.7893 170.387 87.6027 169.192 89.096C168.04 90.5893 166.632 91.7413 164.968 92.552C163.304 93.3627 161.448 93.768 159.4 93.768C154.92 93.768 151.699 91.72 149.736 87.624H149.48V105.8H144.36V59.976ZM157.992 89.16C160.893 89.16 163.176 88.264 164.84 86.472C166.504 84.6373 167.336 82.248 167.336 79.304V73.672C167.336 70.728 166.504 68.36 164.84 66.568C163.176 64.7333 160.893 63.816 157.992 63.816C156.84 63.816 155.731 63.9867 154.664 64.328C153.64 64.6267 152.744 65.0533 151.976 65.608C151.208 66.1627 150.589 66.8453 150.12 67.656C149.693 68.424 149.48 69.256 149.48 70.152V82.44C149.48 83.5067 149.693 84.4667 150.12 85.32C150.589 86.1307 151.208 86.8347 151.976 87.432C152.744 87.9867 153.64 88.4133 154.664 88.712C155.731 89.0107 156.84 89.16 157.992 89.16Z" fill="black"/>
<path d="M206.125 93C204.205 93 202.818 92.488 201.965 91.464C201.154 90.44 200.642 89.16 200.429 87.624H200.109C199.384 89.672 198.189 91.208 196.525 92.232C194.861 93.256 192.877 93.768 190.573 93.768C187.074 93.768 184.344 92.872 182.381 91.08C180.461 89.288 179.501 86.856 179.501 83.784C179.501 80.6693 180.632 78.28 182.893 76.616C185.197 74.952 188.76 74.12 193.581 74.12H200.109V70.856C200.109 68.5093 199.469 66.7173 198.189 65.48C196.909 64.2427 194.946 63.624 192.301 63.624C190.296 63.624 188.61 64.072 187.245 64.968C185.922 65.864 184.813 67.0587 183.917 68.552L180.845 65.672C181.741 63.88 183.17 62.3653 185.133 61.128C187.096 59.848 189.57 59.208 192.557 59.208C196.568 59.208 199.682 60.1893 201.901 62.152C204.12 64.1147 205.229 66.8453 205.229 70.344V88.52H209.005V93H206.125ZM191.405 89.416C192.685 89.416 193.858 89.2667 194.925 88.968C195.992 88.6693 196.909 88.2427 197.677 87.688C198.445 87.1333 199.042 86.4933 199.469 85.768C199.896 85.0427 200.109 84.2533 200.109 83.4V77.96H193.325C190.381 77.96 188.226 78.3867 186.861 79.24C185.538 80.0933 184.877 81.3307 184.877 82.952V84.296C184.877 85.9173 185.453 87.176 186.605 88.072C187.8 88.968 189.4 89.416 191.405 89.416Z" fill="black"/>
<path d="M222.869 64.456H211.605V59.976H239.253V64.456H227.989V93H222.869V64.456Z" fill="black"/>
<path d="M246.592 59.976H251.712V71.944H261.12C264.448 71.944 267.094 72.8827 269.056 74.76C271.019 76.6373 272 79.2187 272 82.504C272 85.832 271.04 88.4133 269.12 90.248C267.2 92.0827 264.555 93 261.185 93H246.592V59.976ZM260.417 88.52C262.337 88.52 263.83 88.1573 264.896 87.432C265.963 86.7067 266.496 85.4907 266.496 83.784V81.096C266.496 79.3893 265.963 78.1947 264.896 77.512C263.83 76.7867 262.337 76.424 260.417 76.424H251.712V88.52H260.417Z" fill="black"/>
<path d="M291.319 88.52H295.095C296.418 86.3867 297.485 83.72 298.296 80.52C299.106 77.32 299.512 73.6507 299.512 69.512V59.976H321.848V88.52H327.352V101.96H322.68V93H295.991V101.96H291.319V88.52ZM316.728 88.52V64.456H304.375V69.768C304.375 74.1627 303.992 77.9173 303.224 81.032C302.498 84.104 301.623 86.6 300.599 88.52H316.728Z" fill="black"/>
<path d="M359.075 93C357.155 93 355.768 92.488 354.915 91.464C354.104 90.44 353.592 89.16 353.379 87.624H353.059C352.334 89.672 351.139 91.208 349.475 92.232C347.811 93.256 345.827 93.768 343.523 93.768C340.024 93.768 337.294 92.872 335.331 91.08C333.411 89.288 332.451 86.856 332.451 83.784C332.451 80.6693 333.582 78.28 335.843 76.616C338.147 74.952 341.71 74.12 346.531 74.12H353.059V70.856C353.059 68.5093 352.419 66.7173 351.139 65.48C349.859 64.2427 347.896 63.624 345.251 63.624C343.246 63.624 341.56 64.072 340.195 64.968C338.872 65.864 337.763 67.0587 336.867 68.552L333.795 65.672C334.691 63.88 336.12 62.3653 338.083 61.128C340.046 59.848 342.52 59.208 345.507 59.208C349.518 59.208 352.632 60.1893 354.851 62.152C357.07 64.1147 358.179 66.8453 358.179 70.344V88.52H361.955V93H359.075ZM344.355 89.416C345.635 89.416 346.808 89.2667 347.875 88.968C348.942 88.6693 349.859 88.2427 350.627 87.688C351.395 87.1333 351.992 86.4933 352.419 85.768C352.846 85.0427 353.059 84.2533 353.059 83.4V77.96H346.275C343.331 77.96 341.176 78.3867 339.811 79.24C338.488 80.0933 337.827 81.3307 337.827 82.952V84.296C337.827 85.9173 338.403 87.176 339.555 88.072C340.75 88.968 342.35 89.416 344.355 89.416Z" fill="black"/>
<path d="M369.902 59.976H375.022V73.736H391.534V59.976H396.654V93H391.534V78.216H375.022V93H369.902V59.976Z" fill="black"/>
<path d="M408.168 59.976H413.288V73.736H429.799V59.976H434.919V93H429.799V78.216H413.288V93H408.168V59.976Z" fill="black"/>
<path d="M446.432 59.976H451.552V71.944H460.32C463.648 71.944 466.294 72.8827 468.257 74.76C470.219 76.6373 471.201 79.2187 471.201 82.504C471.201 85.832 470.24 88.4133 468.32 90.248C466.4 92.0827 463.755 93 460.384 93H446.432V59.976ZM459.616 88.52C461.536 88.52 463.03 88.1573 464.096 87.432C465.163 86.7067 465.697 85.4907 465.697 83.784V81.096C465.697 79.3893 465.163 78.1947 464.096 77.512C463.03 76.7867 461.536 76.424 459.616 76.424H451.552V88.52H459.616ZM476.768 59.976H481.888V93H476.768V59.976Z" fill="black"/>
<path d="M505.801 93.768C503.54 93.768 501.492 93.3627 499.657 92.552C497.865 91.7413 496.308 90.5893 494.985 89.096C493.705 87.56 492.702 85.7467 491.977 83.656C491.294 81.5227 490.953 79.1333 490.953 76.488C490.953 73.8853 491.294 71.5173 491.977 69.384C492.702 67.2507 493.705 65.4373 494.985 63.944C496.308 62.408 497.865 61.2347 499.657 60.424C501.492 59.6133 503.54 59.208 505.801 59.208C508.02 59.208 510.004 59.6133 511.753 60.424C513.502 61.2347 514.996 62.3653 516.233 63.816C517.47 65.224 518.409 66.9093 519.049 68.872C519.732 70.8347 520.073 72.9893 520.073 75.336V77.768H496.329V79.304C496.329 80.712 496.542 82.0347 496.969 83.272C497.438 84.4667 498.078 85.512 498.889 86.408C499.742 87.304 500.766 88.008 501.961 88.52C503.198 89.032 504.585 89.288 506.121 89.288C508.212 89.288 510.025 88.7973 511.561 87.816C513.14 86.8347 514.356 85.4267 515.209 83.592L518.857 86.216C517.79 88.4773 516.126 90.312 513.865 91.72C511.604 93.0853 508.916 93.768 505.801 93.768ZM505.801 63.496C504.393 63.496 503.113 63.752 501.961 64.264C500.809 64.7333 499.806 65.416 498.953 66.312C498.142 67.208 497.502 68.2747 497.033 69.512C496.564 70.7067 496.329 72.0293 496.329 73.48V73.928H514.569V73.224C514.569 70.28 513.758 67.9333 512.137 66.184C510.558 64.392 508.446 63.496 505.801 63.496Z" fill="black"/>
<path d="M30.44 119.976H35.432V138.28L34.92 146.216H35.176L39.272 139.176L52.456 119.976H57.192V153H52.2V134.696L52.712 126.76H52.456L48.36 133.8L35.176 153H30.44V119.976Z" fill="black"/>
<path d="M84.47 119.976H101.11C103.798 119.976 105.91 120.744 107.446 122.28C108.982 123.773 109.75 125.8 109.75 128.36C109.75 132.499 107.595 134.824 103.286 135.336V135.592C105.846 135.805 107.745 136.616 108.982 138.024C110.262 139.389 110.902 141.096 110.902 143.144C110.902 144.467 110.689 145.725 110.262 146.92C109.878 148.115 109.302 149.16 108.534 150.056C107.766 150.952 106.827 151.677 105.718 152.232C104.609 152.744 103.35 153 101.942 153H84.47V119.976ZM100.406 148.776C101.942 148.776 103.158 148.371 104.054 147.56C104.95 146.749 105.398 145.597 105.398 144.104V142.632C105.398 141.139 104.95 139.987 104.054 139.176C103.158 138.365 101.942 137.96 100.406 137.96H89.59V148.776H100.406ZM99.766 133.8C101.174 133.8 102.262 133.459 103.03 132.776C103.841 132.051 104.246 131.027 104.246 129.704V128.296C104.246 126.973 103.841 125.971 103.03 125.288C102.262 124.563 101.174 124.2 99.766 124.2H89.59V133.8H99.766Z" fill="black"/>
<path d="M120.798 119.976H125.917V131.944H134.686C138.014 131.944 140.659 132.883 142.622 134.76C144.584 136.637 145.566 139.219 145.566 142.504C145.566 145.832 144.606 148.413 142.686 150.248C140.766 152.083 138.12 153 134.749 153H120.798V119.976ZM133.982 148.52C135.902 148.52 137.395 148.157 138.462 147.432C139.528 146.707 140.061 145.491 140.061 143.784V141.096C140.061 139.389 139.528 138.195 138.462 137.512C137.395 136.787 135.902 136.424 133.982 136.424H125.917V148.52H133.982ZM151.133 119.976H156.254V153H151.133V119.976Z" fill="black"/>
<path d="M167.75 119.976H184.39C187.078 119.976 189.19 120.744 190.726 122.28C192.262 123.773 193.03 125.8 193.03 128.36C193.03 132.499 190.875 134.824 186.566 135.336V135.592C189.126 135.805 191.025 136.616 192.262 138.024C193.542 139.389 194.182 141.096 194.182 143.144C194.182 144.467 193.969 145.725 193.542 146.92C193.158 148.115 192.582 149.16 191.814 150.056C191.046 150.952 190.107 151.677 188.998 152.232C187.889 152.744 186.63 153 185.222 153H167.75V119.976ZM183.686 148.776C185.222 148.776 186.438 148.371 187.334 147.56C188.23 146.749 188.678 145.597 188.678 144.104V142.632C188.678 141.139 188.23 139.987 187.334 139.176C186.438 138.365 185.222 137.96 183.686 137.96H172.87V148.776H183.686ZM183.046 133.8C184.454 133.8 185.542 133.459 186.31 132.776C187.121 132.051 187.526 131.027 187.526 129.704V128.296C187.526 126.973 187.121 125.971 186.31 125.288C185.542 124.563 184.454 124.2 183.046 124.2H172.87V133.8H183.046Z" fill="black"/>
<path d="M216.493 153.768C214.232 153.768 212.184 153.363 210.35 152.552C208.558 151.741 207 150.589 205.677 149.096C204.397 147.56 203.395 145.747 202.669 143.656C201.987 141.523 201.645 139.133 201.645 136.488C201.645 133.885 201.987 131.517 202.669 129.384C203.395 127.251 204.397 125.437 205.677 123.944C207 122.408 208.558 121.235 210.35 120.424C212.184 119.613 214.232 119.208 216.493 119.208C218.712 119.208 220.696 119.613 222.445 120.424C224.195 121.235 225.688 122.365 226.926 123.816C228.163 125.224 229.102 126.909 229.742 128.872C230.424 130.835 230.766 132.989 230.766 135.336V137.768H207.021V139.304C207.021 140.712 207.235 142.035 207.661 143.272C208.131 144.467 208.771 145.512 209.581 146.408C210.435 147.304 211.459 148.008 212.654 148.52C213.891 149.032 215.277 149.288 216.813 149.288C218.904 149.288 220.717 148.797 222.253 147.816C223.832 146.835 225.048 145.427 225.902 143.592L229.549 146.216C228.483 148.477 226.819 150.312 224.557 151.72C222.296 153.085 219.608 153.768 216.493 153.768ZM216.493 123.496C215.085 123.496 213.806 123.752 212.654 124.264C211.502 124.733 210.499 125.416 209.645 126.312C208.835 127.208 208.195 128.275 207.725 129.512C207.256 130.707 207.021 132.029 207.021 133.48V133.928H225.262V133.224C225.262 130.28 224.451 127.933 222.829 126.184C221.251 124.392 219.139 123.496 216.493 123.496Z" fill="black"/>
<path d="M252.13 153.768C249.826 153.768 247.757 153.363 245.923 152.552C244.088 151.741 242.531 150.589 241.251 149.096C240.013 147.603 239.053 145.789 238.37 143.656C237.73 141.523 237.41 139.133 237.41 136.488C237.41 133.843 237.73 131.453 238.37 129.32C239.053 127.187 240.013 125.373 241.251 123.88C242.531 122.387 244.088 121.235 245.923 120.424C247.757 119.613 249.826 119.208 252.13 119.208C255.416 119.208 258.04 119.933 260.003 121.384C262.008 122.792 263.501 124.648 264.482 126.952L260.194 129.128C259.597 127.421 258.616 126.099 257.25 125.16C255.885 124.221 254.178 123.752 252.13 123.752C250.594 123.752 249.25 124.008 248.098 124.52C246.946 124.989 245.986 125.672 245.218 126.568C244.45 127.421 243.874 128.467 243.49 129.704C243.106 130.899 242.914 132.221 242.914 133.672V139.304C242.914 142.205 243.682 144.595 245.218 146.472C246.797 148.307 249.101 149.224 252.13 149.224C256.269 149.224 259.256 147.304 261.09 143.464L264.802 145.96C263.736 148.349 262.136 150.248 260.003 151.656C257.912 153.064 255.288 153.768 252.13 153.768Z" fill="black"/>
<path d="M280.024 124.456H268.76V119.976H296.408V124.456H285.144V153H280.024V124.456Z" fill="black"/>
<path d="M303.747 119.976H308.74V138.28L308.228 146.216H308.483L312.579 139.176L325.763 119.976H330.5V153H325.508V134.696L326.02 126.76H325.763L321.667 133.8L308.483 153H303.747V119.976Z" fill="black"/>
<path d="M357.777 119.976H362.77V138.28L362.258 146.216H362.513L366.609 139.176L379.793 119.976H384.529V153H379.538V134.696L380.049 126.76H379.793L375.698 133.8L362.513 153H357.777V119.976Z" fill="black"/>
<path d="M391.947 153L404.171 136.36L392.458 119.976H398.475L406.859 132.264H407.051L415.755 119.976H421.451L409.803 135.976L421.707 153H415.691L407.115 140.072H406.923L397.643 153H391.947Z" fill="black"/>
<path d="M30.44 179.976H47.08C49.768 179.976 51.88 180.744 53.416 182.28C54.952 183.773 55.72 185.8 55.72 188.36C55.72 192.499 53.5653 194.824 49.256 195.336V195.592C51.816 195.805 53.7147 196.616 54.952 198.024C56.232 199.389 56.872 201.096 56.872 203.144C56.872 204.467 56.6587 205.725 56.232 206.92C55.848 208.115 55.272 209.16 54.504 210.056C53.736 210.952 52.7973 211.677 51.688 212.232C50.5787 212.744 49.32 213 47.912 213H30.44V179.976ZM46.376 208.776C47.912 208.776 49.128 208.371 50.024 207.56C50.92 206.749 51.368 205.597 51.368 204.104V202.632C51.368 201.139 50.92 199.987 50.024 199.176C49.128 198.365 47.912 197.96 46.376 197.96H35.56V208.776H46.376ZM45.736 193.8C47.144 193.8 48.232 193.459 49 192.776C49.8107 192.051 50.216 191.027 50.216 189.704V188.296C50.216 186.973 49.8107 185.971 49 185.288C48.232 184.563 47.144 184.2 45.736 184.2H35.56V193.8H45.736Z" fill="black"/>
<path d="M89.6365 184.456H78.3725V179.976H106.021V184.456H94.7565V213H89.6365V184.456Z" fill="black"/>
<path d="M136.548 213C134.628 213 133.241 212.488 132.387 211.464C131.577 210.44 131.065 209.16 130.852 207.624H130.531C129.806 209.672 128.611 211.208 126.947 212.232C125.283 213.256 123.299 213.768 120.995 213.768C117.497 213.768 114.766 212.872 112.803 211.08C110.883 209.288 109.924 206.856 109.924 203.784C109.924 200.669 111.054 198.28 113.315 196.616C115.619 194.952 119.182 194.12 124.003 194.12H130.531V190.856C130.531 188.509 129.891 186.717 128.611 185.48C127.331 184.243 125.369 183.624 122.723 183.624C120.718 183.624 119.033 184.072 117.667 184.968C116.345 185.864 115.236 187.059 114.34 188.552L111.268 185.672C112.164 183.88 113.593 182.365 115.555 181.128C117.518 179.848 119.993 179.208 122.979 179.208C126.99 179.208 130.105 180.189 132.324 182.152C134.542 184.115 135.652 186.845 135.652 190.344V208.52H139.427V213H136.548ZM121.827 209.416C123.108 209.416 124.281 209.267 125.348 208.968C126.414 208.669 127.332 208.243 128.1 207.688C128.868 207.133 129.465 206.493 129.891 205.768C130.318 205.043 130.531 204.253 130.531 203.4V197.96H123.747C120.803 197.96 118.649 198.387 117.284 199.24C115.961 200.093 115.299 201.331 115.299 202.952V204.296C115.299 205.917 115.875 207.176 117.027 208.072C118.222 208.968 119.822 209.416 121.827 209.416Z" fill="black"/>
<path d="M160.423 213.768C158.119 213.768 156.05 213.384 154.215 212.616C152.381 211.848 150.824 210.653 149.544 209.032C148.264 207.411 147.261 205.32 146.535 202.76C145.853 200.157 145.512 197.021 145.512 193.352C145.512 188.616 145.81 184.563 146.408 181.192C147.048 177.821 148.05 175.048 149.415 172.872C150.781 170.696 152.509 169.075 154.6 168.008C156.733 166.899 159.314 166.216 162.344 165.96L172.712 165.128V170.312L161.703 171.208C159.826 171.379 158.247 171.741 156.967 172.296C155.687 172.851 154.621 173.725 153.768 174.92C152.957 176.072 152.317 177.608 151.848 179.528C151.421 181.448 151.101 183.837 150.887 186.696H151.143C152.125 184.435 153.383 182.749 154.919 181.64C156.498 180.531 158.568 179.976 161.128 179.976C163.218 179.976 165.138 180.36 166.887 181.128C168.637 181.896 170.13 183.005 171.367 184.456C172.605 185.864 173.565 187.635 174.247 189.768C174.973 191.859 175.335 194.248 175.335 196.936C175.335 199.453 174.973 201.736 174.247 203.784C173.522 205.832 172.498 207.603 171.176 209.096C169.853 210.589 168.274 211.741 166.439 212.552C164.647 213.363 162.642 213.768 160.423 213.768ZM160.68 209.224C162.002 209.224 163.218 209.011 164.327 208.584C165.437 208.157 166.397 207.517 167.208 206.664C168.018 205.811 168.658 204.765 169.128 203.528C169.597 202.291 169.831 200.84 169.831 199.176V195.144C169.831 191.56 168.957 188.893 167.208 187.144C165.458 185.395 163.111 184.52 160.167 184.52C157.095 184.52 154.791 185.288 153.255 186.824C151.762 188.317 151.016 190.28 151.016 192.712V198.6C151.016 202.184 151.89 204.851 153.639 206.6C155.389 208.349 157.736 209.224 160.68 209.224Z" fill="black"/>
<path d="M179.274 208.52H183.626C184.181 207.752 184.672 206.835 185.098 205.768C185.525 204.701 185.888 203.421 186.186 201.928C186.485 200.435 186.72 198.664 186.891 196.616C187.061 194.568 187.146 192.157 187.146 189.384V179.976H209.482V213H204.363V184.456H192.01V189.512C192.01 192.712 191.882 195.507 191.626 197.896C191.413 200.285 191.093 202.333 190.667 204.04C190.283 205.747 189.813 207.155 189.258 208.264C188.704 209.331 188.106 210.184 187.466 210.824C186.656 211.635 185.76 212.211 184.779 212.552C183.797 212.851 182.624 213 181.258 213H179.274V208.52Z" fill="black"/>
<path d="M221.03 179.976H226.022V198.28L225.51 206.216H225.766L229.862 199.176L243.046 179.976H247.782V213H242.79V194.696L243.302 186.76H243.046L238.95 193.8L225.766 213H221.03V179.976Z" fill="black"/>
<path d="M285.919 213H259.295V179.976H264.415V208.52H279.967V179.976H285.087V208.52H290.591V221.96H285.919V213Z" fill="black"/>
<path d="M318.349 179.976H323.405L308.621 220.68C308.237 221.661 307.853 222.472 307.469 223.112C307.085 223.795 306.616 224.328 306.061 224.712C305.507 225.096 304.803 225.373 303.949 225.544C303.139 225.715 302.136 225.8 300.941 225.8H298.318V221.32H303.501L305.997 214.28L293.646 179.976H298.766L306.702 202.44L308.237 207.816H308.557L310.349 202.44L318.349 179.976Z" fill="black"/>
</svg>
