<svg width="750" height="365" viewBox="0 0 750 365" fill="none" xmlns="http://www.w3.org/2000/svg">
<path d="M750 39H88V345H750V39Z" fill="#FF55EF"/>
<path d="M720.25 8.8421V48H729V0H704V8.8421H720.25Z" fill="black"/>
<path d="M8.75 8.8421V48H0V0H25V8.8421H8.75Z" fill="black"/>
<path d="M8.75 327.158V288H0V336H25V327.158H8.75Z" fill="black"/>
<path d="M596.79 39V18.06H605.13C607.01 18.06 608.45 18.6 609.45 19.68C610.47 20.74 610.98 22.2 610.98 24.06C610.98 25.92 610.47 27.39 609.45 28.47C608.45 29.53 607.01 30.06 605.13 30.06H599.31V39H596.79ZM599.31 27.84H605.13C606.13 27.84 606.9 27.58 607.44 27.06C608 26.54 608.28 25.8 608.28 24.84V23.28C608.28 22.32 608 21.58 607.44 21.06C606.9 20.54 606.13 20.28 605.13 20.28H599.31V27.84Z" fill="black"/>
<path d="M620.277 39.36C619.217 39.36 618.257 39.17 617.397 38.79C616.557 38.41 615.827 37.87 615.207 37.17C614.607 36.45 614.137 35.6 613.797 34.62C613.477 33.62 613.317 32.5 613.317 31.26C613.317 30.04 613.477 28.93 613.797 27.93C614.137 26.93 614.607 26.08 615.207 25.38C615.827 24.66 616.557 24.11 617.397 23.73C618.257 23.35 619.217 23.16 620.277 23.16C621.317 23.16 622.247 23.35 623.067 23.73C623.887 24.11 624.587 24.64 625.167 25.32C625.747 25.98 626.187 26.77 626.487 27.69C626.807 28.61 626.967 29.62 626.967 30.72V31.86H615.837V32.58C615.837 33.24 615.937 33.86 616.137 34.44C616.357 35 616.657 35.49 617.037 35.91C617.437 36.33 617.917 36.66 618.477 36.9C619.057 37.14 619.707 37.26 620.427 37.26C621.407 37.26 622.257 37.03 622.977 36.57C623.717 36.11 624.287 35.45 624.687 34.59L626.397 35.82C625.897 36.88 625.117 37.74 624.057 38.4C622.997 39.04 621.737 39.36 620.277 39.36ZM620.277 25.17C619.617 25.17 619.017 25.29 618.477 25.53C617.937 25.75 617.467 26.07 617.067 26.49C616.687 26.91 616.387 27.41 616.167 27.99C615.947 28.55 615.837 29.17 615.837 29.85V30.06H624.387V29.73C624.387 28.35 624.007 27.25 623.247 26.43C622.507 25.59 621.517 25.17 620.277 25.17Z" fill="black"/>
<path d="M643.702 39H631.222V23.52H633.622V36.9H640.912V23.52H643.312V36.9H645.892V43.2H643.702V39Z" fill="black"/>
<path d="M655.331 39.36C654.271 39.36 653.311 39.17 652.451 38.79C651.611 38.41 650.881 37.87 650.261 37.17C649.661 36.45 649.191 35.6 648.851 34.62C648.531 33.62 648.371 32.5 648.371 31.26C648.371 30.04 648.531 28.93 648.851 27.93C649.191 26.93 649.661 26.08 650.261 25.38C650.881 24.66 651.611 24.11 652.451 23.73C653.311 23.35 654.271 23.16 655.331 23.16C656.371 23.16 657.301 23.35 658.121 23.73C658.941 24.11 659.641 24.64 660.221 25.32C660.801 25.98 661.241 26.77 661.541 27.69C661.861 28.61 662.021 29.62 662.021 30.72V31.86H650.891V32.58C650.891 33.24 650.991 33.86 651.191 34.44C651.411 35 651.711 35.49 652.091 35.91C652.491 36.33 652.971 36.66 653.531 36.9C654.111 37.14 654.761 37.26 655.481 37.26C656.461 37.26 657.311 37.03 658.031 36.57C658.771 36.11 659.341 35.45 659.741 34.59L661.451 35.82C660.951 36.88 660.171 37.74 659.111 38.4C658.051 39.04 656.791 39.36 655.331 39.36ZM655.331 25.17C654.671 25.17 654.071 25.29 653.531 25.53C652.991 25.75 652.521 26.07 652.121 26.49C651.741 26.91 651.441 27.41 651.221 27.99C651.001 28.55 650.891 29.17 650.891 29.85V30.06H659.441V29.73C659.441 28.35 659.061 27.25 658.301 26.43C657.561 25.59 656.571 25.17 655.331 25.17Z" fill="black"/>
<path d="M666.275 23.52H678.365V39H675.965V25.62H668.675V39H666.275V23.52Z" fill="black"/>
<path d="M687.103 25.62H681.823V23.52H694.783V25.62H689.503V39H687.103V25.62Z" fill="black"/>
<path d="M596.55 51.52H598.95V54.04H599.07C599.47 53.06 600.05 52.34 600.81 51.88C601.59 51.4 602.52 51.16 603.6 51.16C604.56 51.16 605.43 51.35 606.21 51.73C606.99 52.11 607.65 52.65 608.19 53.35C608.75 54.05 609.17 54.9 609.45 55.9C609.75 56.9 609.9 58.02 609.9 59.26C609.9 60.5 609.75 61.62 609.45 62.62C609.17 63.62 608.75 64.47 608.19 65.17C607.65 65.87 606.99 66.41 606.21 66.79C605.43 67.17 604.56 67.36 603.6 67.36C601.5 67.36 599.99 66.4 599.07 64.48H598.95V73H596.55V51.52ZM602.94 65.2C604.3 65.2 605.37 64.78 606.15 63.94C606.93 63.08 607.32 61.96 607.32 60.58V57.94C607.32 56.56 606.93 55.45 606.15 54.61C605.37 53.75 604.3 53.32 602.94 53.32C602.4 53.32 601.88 53.4 601.38 53.56C600.9 53.7 600.48 53.9 600.12 54.16C599.76 54.42 599.47 54.74 599.25 55.12C599.05 55.48 598.95 55.87 598.95 56.29V62.05C598.95 62.55 599.05 63 599.25 63.4C599.47 63.78 599.76 64.11 600.12 64.39C600.48 64.65 600.9 64.85 601.38 64.99C601.88 65.13 602.4 65.2 602.94 65.2Z" fill="black"/>
<path d="M620.072 67.36C619.012 67.36 618.052 67.17 617.192 66.79C616.352 66.41 615.622 65.87 615.002 65.17C614.402 64.45 613.932 63.6 613.592 62.62C613.272 61.62 613.112 60.5 613.112 59.26C613.112 58.04 613.272 56.93 613.592 55.93C613.932 54.93 614.402 54.08 615.002 53.38C615.622 52.66 616.352 52.11 617.192 51.73C618.052 51.35 619.012 51.16 620.072 51.16C621.112 51.16 622.042 51.35 622.862 51.73C623.682 52.11 624.382 52.64 624.962 53.32C625.542 53.98 625.982 54.77 626.282 55.69C626.602 56.61 626.762 57.62 626.762 58.72V59.86H615.632V60.58C615.632 61.24 615.732 61.86 615.932 62.44C616.152 63 616.452 63.49 616.832 63.91C617.232 64.33 617.712 64.66 618.272 64.9C618.852 65.14 619.502 65.26 620.222 65.26C621.202 65.26 622.052 65.03 622.772 64.57C623.512 64.11 624.082 63.45 624.482 62.59L626.192 63.82C625.692 64.88 624.912 65.74 623.852 66.4C622.792 67.04 621.532 67.36 620.072 67.36ZM620.072 53.17C619.412 53.17 618.812 53.29 618.272 53.53C617.732 53.75 617.262 54.07 616.862 54.49C616.482 54.91 616.182 55.41 615.962 55.99C615.742 56.55 615.632 57.17 615.632 57.85V58.06H624.182V57.73C624.182 56.35 623.802 55.25 623.042 54.43C622.302 53.59 621.312 53.17 620.072 53.17Z" fill="black"/>
<path d="M628.707 64.9H630.477C631.097 63.9 631.597 62.65 631.977 61.15C632.357 59.65 632.547 57.93 632.547 55.99V51.52H643.017V64.9H645.597V71.2H643.407V67H630.897V71.2H628.707V64.9ZM640.617 64.9V53.62H634.827V56.11C634.827 58.17 634.647 59.93 634.287 61.39C633.947 62.83 633.537 64 633.057 64.9H640.617Z" fill="black"/>
<path d="M660.468 67C659.568 67 658.918 66.76 658.518 66.28C658.138 65.8 657.898 65.2 657.798 64.48H657.648C657.308 65.44 656.748 66.16 655.968 66.64C655.188 67.12 654.258 67.36 653.178 67.36C651.538 67.36 650.258 66.94 649.338 66.1C648.438 65.26 647.988 64.12 647.988 62.68C647.988 61.22 648.518 60.1 649.578 59.32C650.658 58.54 652.328 58.15 654.588 58.15H657.648V56.62C657.648 55.52 657.348 54.68 656.748 54.1C656.148 53.52 655.228 53.23 653.988 53.23C653.048 53.23 652.258 53.44 651.618 53.86C650.998 54.28 650.478 54.84 650.058 55.54L648.618 54.19C649.038 53.35 649.708 52.64 650.628 52.06C651.548 51.46 652.708 51.16 654.108 51.16C655.988 51.16 657.448 51.62 658.488 52.54C659.528 53.46 660.048 54.74 660.048 56.38V64.9H661.818V67H660.468ZM653.568 65.32C654.168 65.32 654.718 65.25 655.218 65.11C655.718 64.97 656.148 64.77 656.508 64.51C656.868 64.25 657.148 63.95 657.348 63.61C657.548 63.27 657.648 62.9 657.648 62.5V59.95H654.468C653.088 59.95 652.078 60.15 651.438 60.55C650.818 60.95 650.508 61.53 650.508 62.29V62.92C650.508 63.68 650.778 64.27 651.318 64.69C651.878 65.11 652.628 65.32 653.568 65.32Z" fill="black"/>
<path d="M665.543 51.52H667.943V58H671.033L674.033 53.26C674.253 52.9 674.463 52.61 674.663 52.39C674.863 52.15 675.063 51.97 675.263 51.85C675.463 51.73 675.673 51.65 675.893 51.61C676.113 51.55 676.363 51.52 676.643 51.52H678.053V53.62H676.193L673.763 57.46C673.603 57.72 673.463 57.93 673.343 58.09C673.223 58.25 673.103 58.39 672.983 58.51C672.863 58.61 672.733 58.7 672.593 58.78C672.453 58.84 672.283 58.9 672.083 58.96V59.08C672.503 59.14 672.863 59.28 673.163 59.5C673.483 59.7 673.813 60.1 674.153 60.7L676.523 64.9H678.293V67H676.553C676.033 67 675.553 66.87 675.113 66.61C674.693 66.33 674.283 65.83 673.883 65.11L671.033 60.04H667.943V67H665.543V51.52Z" fill="black"/>
<path d="M680.568 59.17V56.59H688.398V59.17H680.568Z" fill="black"/>
<path d="M599.88 81.62H594.6V79.52H607.56V81.62H602.28V95H599.88V81.62Z" fill="black"/>
<path d="M616.47 95.36C615.43 95.36 614.48 95.17 613.62 94.79C612.76 94.41 612.02 93.87 611.4 93.17C610.8 92.45 610.33 91.6 609.99 90.62C609.65 89.62 609.48 88.5 609.48 87.26C609.48 86.04 609.65 84.93 609.99 83.93C610.33 82.93 610.8 82.08 611.4 81.38C612.02 80.66 612.76 80.11 613.62 79.73C614.48 79.35 615.43 79.16 616.47 79.16C617.51 79.16 618.45 79.35 619.29 79.73C620.15 80.11 620.89 80.66 621.51 81.38C622.13 82.08 622.61 82.93 622.95 83.93C623.29 84.93 623.46 86.04 623.46 87.26C623.46 88.5 623.29 89.62 622.95 90.62C622.61 91.6 622.13 92.45 621.51 93.17C620.89 93.87 620.15 94.41 619.29 94.79C618.45 95.17 617.51 95.36 616.47 95.36ZM616.47 93.23C617.77 93.23 618.83 92.83 619.65 92.03C620.47 91.23 620.88 90.01 620.88 88.37V86.15C620.88 84.51 620.47 83.29 619.65 82.49C618.83 81.69 617.77 81.29 616.47 81.29C615.17 81.29 614.11 81.69 613.29 82.49C612.47 83.29 612.06 84.51 612.06 86.15V88.37C612.06 90.01 612.47 91.23 613.29 92.03C614.11 92.83 615.17 93.23 616.47 93.23Z" fill="black"/>
<path d="M627.707 79.52H630.107V82.04H630.227C630.627 81.06 631.207 80.34 631.967 79.88C632.747 79.4 633.677 79.16 634.757 79.16C635.717 79.16 636.587 79.35 637.367 79.73C638.147 80.11 638.807 80.65 639.347 81.35C639.907 82.05 640.327 82.9 640.607 83.9C640.907 84.9 641.057 86.02 641.057 87.26C641.057 88.5 640.907 89.62 640.607 90.62C640.327 91.62 639.907 92.47 639.347 93.17C638.807 93.87 638.147 94.41 637.367 94.79C636.587 95.17 635.717 95.36 634.757 95.36C632.657 95.36 631.147 94.4 630.227 92.48H630.107V101H627.707V79.52ZM634.097 93.2C635.457 93.2 636.527 92.78 637.307 91.94C638.087 91.08 638.477 89.96 638.477 88.58V85.94C638.477 84.56 638.087 83.45 637.307 82.61C636.527 81.75 635.457 81.32 634.097 81.32C633.557 81.32 633.037 81.4 632.537 81.56C632.057 81.7 631.637 81.9 631.277 82.16C630.917 82.42 630.627 82.74 630.407 83.12C630.207 83.48 630.107 83.87 630.107 84.29V90.05C630.107 90.55 630.207 91 630.407 91.4C630.627 91.78 630.917 92.11 631.277 92.39C631.637 92.65 632.057 92.85 632.537 92.99C633.037 93.13 633.557 93.2 634.097 93.2Z" fill="black"/>
<path d="M654.802 79.52H657.172L650.242 98.6C650.062 99.06 649.883 99.44 649.703 99.74C649.523 100.06 649.302 100.31 649.042 100.49C648.782 100.67 648.452 100.8 648.052 100.88C647.672 100.96 647.203 101 646.643 101H645.412V98.9H647.843L649.013 95.6L643.222 79.52H645.622L649.343 90.05L650.062 92.57H650.213L651.052 90.05L654.802 79.52Z" fill="black"/>
<path d="M604.488 131.6H604.408C604.12 131.717 603.763 131.808 603.336 131.872C602.909 131.936 602.445 131.968 601.944 131.968C600.557 131.968 599.539 131.648 598.888 131.008C598.248 130.357 597.928 129.355 597.928 128V124.832H599.272V128C599.272 128.981 599.496 129.691 599.944 130.128C600.403 130.565 601.085 130.784 601.992 130.784C602.525 130.784 603.005 130.752 603.432 130.688C603.859 130.624 604.211 130.533 604.488 130.416V124.832H605.832V136H604.488V131.6Z" fill="black"/>
<path d="M614.833 136C614.353 136 614.006 135.872 613.792 135.616C613.59 135.36 613.462 135.04 613.409 134.656H613.328C613.147 135.168 612.848 135.552 612.432 135.808C612.016 136.064 611.521 136.192 610.945 136.192C610.07 136.192 609.387 135.968 608.896 135.52C608.416 135.072 608.177 134.464 608.177 133.696C608.177 132.917 608.459 132.32 609.024 131.904C609.6 131.488 610.491 131.28 611.696 131.28H613.328V130.464C613.328 129.877 613.169 129.429 612.849 129.12C612.529 128.811 612.038 128.656 611.377 128.656C610.875 128.656 610.454 128.768 610.112 128.992C609.782 129.216 609.505 129.515 609.281 129.888L608.513 129.168C608.737 128.72 609.094 128.341 609.584 128.032C610.075 127.712 610.694 127.552 611.44 127.552C612.443 127.552 613.222 127.797 613.776 128.288C614.331 128.779 614.609 129.461 614.609 130.336V134.88H615.552V136H614.833ZM611.153 135.104C611.473 135.104 611.766 135.067 612.032 134.992C612.299 134.917 612.529 134.811 612.721 134.672C612.913 134.533 613.062 134.373 613.169 134.192C613.275 134.011 613.328 133.813 613.328 133.6V132.24H611.633C610.897 132.24 610.358 132.347 610.016 132.56C609.686 132.773 609.521 133.083 609.521 133.488V133.824C609.521 134.229 609.665 134.544 609.953 134.768C610.251 134.992 610.651 135.104 611.153 135.104Z" fill="black"/>
<path d="M619.018 128.864H616.203V127.744H623.115V128.864H620.299V136H619.018V128.864Z" fill="black"/>
<path d="M629.019 124.832H635.099V126.016H630.363V136H629.019V124.832Z" fill="black"/>
<path d="M637.163 124.832H645.275V136H643.931V126.016H638.507V136H637.163V124.832Z" fill="black"/>
<path d="M652.177 126.016V136H650.833V126.016H647.281V124.832H655.729V126.016H652.177Z" fill="black"/>
<path d="M616.819 267.663C617.394 267.308 617.854 266.792 618.14 266.179C618.97 264.293 619.337 262.236 619.21 260.179C619.338 258.122 618.971 256.065 618.14 254.179C617.854 253.566 617.394 253.05 616.819 252.695C616.243 252.34 615.576 252.16 614.9 252.179C614.222 252.16 613.554 252.339 612.976 252.694C612.399 253.049 611.938 253.565 611.65 254.179C610.819 256.065 610.452 258.122 610.58 260.179C610.453 262.236 610.82 264.293 611.65 266.179C611.938 266.793 612.399 267.309 612.976 267.664C613.554 268.02 614.222 268.199 614.9 268.179C615.576 268.198 616.243 268.019 616.819 267.663Z" fill="black"/>
<path d="M638.82 253.049H634.82V258.039H638.82C639.612 258.091 640.397 257.865 641.04 257.399C641.306 257.173 641.515 256.888 641.652 256.567C641.789 256.246 641.85 255.897 641.83 255.549C641.848 255.202 641.786 254.856 641.649 254.537C641.512 254.218 641.304 253.935 641.04 253.709C640.402 253.231 639.615 252.997 638.82 253.049Z" fill="black"/>
<path d="M618.43 288.66C617.787 289.126 617.002 289.352 616.21 289.3H612.21V284.3H616.21C617.005 284.248 617.792 284.482 618.43 284.96C618.692 285.187 618.898 285.47 619.033 285.789C619.169 286.108 619.229 286.454 619.21 286.8C619.234 287.149 619.177 287.499 619.041 287.823C618.906 288.146 618.696 288.432 618.43 288.66Z" fill="black"/>
<path d="M638.59 284.311H634.5V289.401H638.59C639.371 289.447 640.141 289.201 640.75 288.711C641.01 288.482 641.215 288.198 641.352 287.88C641.488 287.561 641.553 287.217 641.54 286.871C641.555 286.52 641.492 286.17 641.355 285.847C641.219 285.523 641.012 285.234 640.75 285.001C640.141 284.511 639.371 284.265 638.59 284.311Z" fill="black"/>
<path d="M663.43 297.43C663.121 298.023 662.654 298.52 662.082 298.867C661.51 299.214 660.854 299.397 660.185 299.397C659.516 299.397 658.86 299.214 658.288 298.867C657.715 298.52 657.249 298.023 656.94 297.43C656.105 295.545 655.734 293.488 655.86 291.43C655.735 289.372 656.105 287.315 656.94 285.43C657.249 284.837 657.715 284.34 658.288 283.993C658.86 283.646 659.516 283.463 660.185 283.463C660.854 283.463 661.51 283.646 662.082 283.993C662.654 284.34 663.121 284.837 663.43 285.43C664.257 287.317 664.624 289.373 664.5 291.43C664.625 293.49 664.259 295.55 663.43 297.44V297.43Z" fill="black"/>
<path d="M709 288.66C708.357 289.126 707.572 289.352 706.78 289.3H702.78V284.3H706.78C707.58 284.259 708.368 284.508 709 285C709.263 285.226 709.471 285.509 709.608 285.828C709.745 286.147 709.807 286.493 709.79 286.84C709.806 287.183 709.743 287.526 709.606 287.841C709.469 288.157 709.262 288.437 709 288.66Z" fill="black"/>
<path fill-rule="evenodd" clip-rule="evenodd" d="M597 345V238H750V365H740V355H730V345H597ZM607.2 250.169C608.967 247.889 611.533 246.749 614.9 246.749C616.362 246.661 617.824 246.925 619.163 247.52C620.501 248.115 621.677 249.024 622.59 250.169C624.35 252.449 625.23 255.782 625.23 260.169C625.23 264.556 624.35 267.889 622.59 270.169C621.679 271.317 620.504 272.229 619.165 272.826C617.826 273.423 616.363 273.688 614.9 273.599C611.527 273.579 608.96 272.436 607.2 270.169C605.44 267.902 604.56 264.569 604.56 260.169C604.553 255.782 605.433 252.449 607.2 250.169ZM638.82 263.439H634.82V272.999H628.82V247.349H638.82C640.466 247.308 642.099 247.65 643.59 248.349C644.882 248.975 645.968 249.957 646.72 251.179C647.496 252.494 647.885 254.002 647.84 255.529C647.878 256.998 647.489 258.447 646.72 259.699C645.96 260.893 644.874 261.844 643.59 262.439C642.095 263.125 640.465 263.467 638.82 263.439ZM669.04 267.861H658.1V262.771H667.76V257.781H658.1V252.511H669.36V247.391H652.09V272.981H669.04V267.861ZM678.16 252.091L678.54 262.651V272.981H673.39V247.391H682.67L686.86 268.271H687.5L687.11 257.721V247.391H692.26V272.981H682.98L678.8 252.091H678.16ZM620.56 279.66C619.07 278.96 617.436 278.617 615.79 278.66H605.79V304.24H611.79V294.71H615.79C617.435 294.737 619.065 294.396 620.56 293.71C621.844 293.128 622.931 292.187 623.69 291C624.459 289.747 624.848 288.299 624.81 286.83C624.852 285.303 624.464 283.796 623.69 282.48C622.936 281.261 621.85 280.283 620.56 279.66ZM646.45 290.771C645.684 291.925 644.615 292.845 643.36 293.431C642.922 293.656 642.467 293.846 642 294.001L648.18 304.241H641.43L635.78 294.391H634.49V304.241H628.49V278.661H638.82C640.408 278.625 641.981 278.968 643.41 279.661C644.682 280.294 645.742 281.284 646.46 282.511C647.212 283.827 647.59 285.325 647.55 286.841C647.577 288.23 647.194 289.597 646.45 290.771ZM660.18 278C656.813 278 654.25 279.143 652.49 281.43C650.73 283.717 649.85 287.05 649.85 291.43C649.85 295.823 650.73 299.157 652.49 301.43C654.25 303.703 656.813 304.843 660.18 304.85C663.553 304.85 666.117 303.71 667.87 301.43C669.623 299.15 670.503 295.817 670.51 291.43C670.51 287.03 669.63 283.697 667.87 281.43C666.11 279.163 663.547 278.02 660.18 278ZM682.63 291.03H683.27L684.9 278.65H692.42V304.24H687.33V294.74L687.75 284.09H687.11L685.51 296.24H680.14L678.54 284.09H677.9L678.31 294.74V304.24H673.23V278.65H681L682.63 291.03ZM711.55 279.66C710.059 278.961 708.426 278.618 706.78 278.66H696.78V304.24H702.78V294.71H706.78C708.425 294.737 710.055 294.395 711.55 293.71C712.832 293.125 713.918 292.185 714.68 291C715.449 289.747 715.838 288.299 715.8 286.83C715.842 285.303 715.454 283.796 714.68 282.48C713.923 281.263 712.838 280.286 711.55 279.66ZM717.97 284.38V278.65H738.25V284.38H731.12V304.24H725.1V284.38H717.97ZM605.75 315.64H612.02V329.78H605.75V335.5H624.3V329.78H618.03V315.64H624.3V309.91H605.75V315.64ZM642.21 330.8L641.82 320.25V309.92H646.97V335.5H637.7L633.51 314.62H632.87L633.25 325.17V335.5H628.1V309.92H637.38L641.57 330.8H642.21ZM660.66 314.75C661.125 314.734 661.588 314.814 662.02 314.986C662.452 315.158 662.844 315.418 663.17 315.75C663.911 316.596 664.394 317.637 664.56 318.75H670.19C670.146 316.956 669.687 315.197 668.85 313.61C668.104 312.234 666.97 311.107 665.59 310.37C664.066 309.59 662.371 309.205 660.66 309.25C657.273 309.25 654.7 310.39 652.94 312.67C651.18 314.95 650.3 318.283 650.3 322.67C650.3 326.983 651.023 330.283 652.47 332.57C653.1 333.649 654.009 334.538 655.102 335.144C656.195 335.749 657.431 336.048 658.68 336.01C659.697 336.042 660.702 335.796 661.59 335.3C662.356 334.858 662.927 334.144 663.19 333.3H664.5V335.5H669.74V321.81H660.05V327.06H664.5C664.5 327.786 664.328 328.502 664 329.15C663.715 329.748 663.261 330.25 662.694 330.595C662.128 330.94 661.473 331.111 660.81 331.09C660.098 331.133 659.389 330.966 658.77 330.611C658.152 330.255 657.651 329.727 657.33 329.09C656.603 327.756 656.24 325.636 656.24 322.73C656.115 320.67 656.493 318.611 657.34 316.73C657.643 316.114 658.118 315.599 658.707 315.248C659.296 314.897 659.975 314.724 660.66 314.75Z" fill="black"/>
<path d="M30.952 48.328H63.4V93H58.024V53.064H36.328V93H30.952V48.328Z" fill="black"/>
<path d="M87.935 93.768C85.7163 93.768 83.6897 93.3627 81.855 92.552C80.0203 91.7413 78.4417 90.5893 77.119 89.096C75.839 87.56 74.8363 85.7467 74.111 83.656C73.3857 81.5227 73.023 79.1333 73.023 76.488C73.023 73.8853 73.3857 71.5173 74.111 69.384C74.8363 67.2507 75.839 65.4373 77.119 63.944C78.4417 62.408 80.0203 61.2347 81.855 60.424C83.6897 59.6133 85.7163 59.208 87.935 59.208C90.1537 59.208 92.159 59.6133 93.951 60.424C95.7857 61.2347 97.3643 62.408 98.687 63.944C100.01 65.4373 101.034 67.2507 101.759 69.384C102.484 71.5173 102.847 73.8853 102.847 76.488C102.847 79.1333 102.484 81.5227 101.759 83.656C101.034 85.7467 100.01 87.56 98.687 89.096C97.3643 90.5893 95.7857 91.7413 93.951 92.552C92.159 93.3627 90.1537 93.768 87.935 93.768ZM87.935 89.224C90.7083 89.224 92.9697 88.3707 94.719 86.664C96.4683 84.9573 97.343 82.3547 97.343 78.856V74.12C97.343 70.6213 96.4683 68.0187 94.719 66.312C92.9697 64.6053 90.7083 63.752 87.935 63.752C85.1617 63.752 82.9003 64.6053 81.151 66.312C79.4017 68.0187 78.527 70.6213 78.527 74.12V78.856C78.527 82.3547 79.4017 84.9573 81.151 86.664C82.9003 88.3707 85.1617 89.224 87.935 89.224Z" fill="black"/>
<path d="M106.854 88.52H110.631C111.953 86.3867 113.02 83.72 113.83 80.52C114.641 77.32 115.047 73.6507 115.047 69.512V59.976H137.383V88.52H142.887V101.96H138.215V93H111.526V101.96H106.854V88.52ZM132.262 88.52V64.456H119.91V69.768C119.91 74.1627 119.526 77.9173 118.758 81.032C118.033 84.104 117.158 86.6 116.134 88.52H132.262Z" fill="black"/>
<path d="M163.09 93.768C160.871 93.768 158.845 93.3627 157.01 92.552C155.175 91.7413 153.597 90.5893 152.274 89.096C150.994 87.56 149.991 85.7467 149.266 83.656C148.541 81.5227 148.178 79.1333 148.178 76.488C148.178 73.8853 148.541 71.5173 149.266 69.384C149.991 67.2507 150.994 65.4373 152.274 63.944C153.597 62.408 155.175 61.2347 157.01 60.424C158.845 59.6133 160.871 59.208 163.09 59.208C165.309 59.208 167.314 59.6133 169.106 60.424C170.941 61.2347 172.519 62.408 173.842 63.944C175.165 65.4373 176.189 67.2507 176.914 69.384C177.639 71.5173 178.002 73.8853 178.002 76.488C178.002 79.1333 177.639 81.5227 176.914 83.656C176.189 85.7467 175.165 87.56 173.842 89.096C172.519 90.5893 170.941 91.7413 169.106 92.552C167.314 93.3627 165.309 93.768 163.09 93.768ZM163.09 89.224C165.863 89.224 168.125 88.3707 169.874 86.664C171.623 84.9573 172.498 82.3547 172.498 78.856V74.12C172.498 70.6213 171.623 68.0187 169.874 66.312C168.125 64.6053 165.863 63.752 163.09 63.752C160.317 63.752 158.055 64.6053 156.306 66.312C154.557 68.0187 153.682 70.6213 153.682 74.12V78.856C153.682 82.3547 154.557 84.9573 156.306 86.664C158.055 88.3707 160.317 89.224 163.09 89.224Z" fill="black"/>
<path d="M200.111 93.768C197.807 93.768 195.738 93.384 193.903 92.616C192.068 91.848 190.511 90.6533 189.231 89.032C187.951 87.4107 186.948 85.32 186.223 82.76C185.54 80.1573 185.199 77.0213 185.199 73.352C185.199 68.616 185.498 64.5627 186.095 61.192C186.735 57.8213 187.738 55.048 189.103 52.872C190.468 50.696 192.196 49.0747 194.287 48.008C196.42 46.8987 199.002 46.216 202.031 45.96L212.399 45.128V50.312L201.391 51.208C199.514 51.3787 197.935 51.7413 196.655 52.296C195.375 52.8507 194.308 53.7253 193.455 54.92C192.644 56.072 192.004 57.608 191.535 59.528C191.108 61.448 190.788 63.8373 190.575 66.696H190.831C191.812 64.4347 193.071 62.7493 194.607 61.64C196.186 60.5307 198.255 59.976 200.815 59.976C202.906 59.976 204.826 60.36 206.575 61.128C208.324 61.896 209.818 63.0053 211.055 64.456C212.292 65.864 213.252 67.6347 213.935 69.768C214.66 71.8587 215.023 74.248 215.023 76.936C215.023 79.4533 214.66 81.736 213.935 83.784C213.21 85.832 212.186 87.6027 210.863 89.096C209.54 90.5893 207.962 91.7413 206.127 92.552C204.335 93.3627 202.33 93.768 200.111 93.768ZM200.367 89.224C201.69 89.224 202.906 89.0107 204.015 88.584C205.124 88.1573 206.084 87.5173 206.895 86.664C207.706 85.8107 208.346 84.7653 208.815 83.528C209.284 82.2907 209.519 80.84 209.519 79.176V75.144C209.519 71.56 208.644 68.8933 206.895 67.144C205.146 65.3947 202.799 64.52 199.855 64.52C196.783 64.52 194.479 65.288 192.943 66.824C191.45 68.3173 190.703 70.28 190.703 72.712V78.6C190.703 82.184 191.578 84.8507 193.327 86.6C195.076 88.3493 197.423 89.224 200.367 89.224Z" fill="black"/>
<path d="M224.14 59.976H229.26V65.352H229.516C230.369 63.2613 231.607 61.7253 233.228 60.744C234.892 59.72 236.876 59.208 239.18 59.208C241.228 59.208 243.084 59.6133 244.748 60.424C246.412 61.2347 247.82 62.3867 248.972 63.88C250.167 65.3733 251.063 67.1867 251.66 69.32C252.3 71.4533 252.62 73.8427 252.62 76.488C252.62 79.1333 252.3 81.5227 251.66 83.656C251.063 85.7893 250.167 87.6027 248.972 89.096C247.82 90.5893 246.412 91.7413 244.748 92.552C243.084 93.3627 241.228 93.768 239.18 93.768C234.7 93.768 231.479 91.72 229.516 87.624H229.26V105.8H224.14V59.976ZM237.772 89.16C240.673 89.16 242.956 88.264 244.62 86.472C246.284 84.6373 247.116 82.248 247.116 79.304V73.672C247.116 70.728 246.284 68.36 244.62 66.568C242.956 64.7333 240.673 63.816 237.772 63.816C236.62 63.816 235.511 63.9867 234.444 64.328C233.42 64.6267 232.524 65.0533 231.756 65.608C230.988 66.1627 230.369 66.8453 229.9 67.656C229.473 68.424 229.26 69.256 229.26 70.152V82.44C229.26 83.5067 229.473 84.4667 229.9 85.32C230.369 86.1307 230.988 86.8347 231.756 87.432C232.524 87.9867 233.42 88.4133 234.444 88.712C235.511 89.0107 236.62 89.16 237.772 89.16Z" fill="black"/>
<path d="M285.905 93C283.985 93 282.598 92.488 281.745 91.464C280.934 90.44 280.422 89.16 280.209 87.624H279.889C279.164 89.672 277.969 91.208 276.305 92.232C274.641 93.256 272.657 93.768 270.353 93.768C266.854 93.768 264.124 92.872 262.161 91.08C260.241 89.288 259.281 86.856 259.281 83.784C259.281 80.6693 260.412 78.28 262.673 76.616C264.977 74.952 268.54 74.12 273.361 74.12H279.889V70.856C279.889 68.5093 279.249 66.7173 277.969 65.48C276.689 64.2427 274.726 63.624 272.081 63.624C270.076 63.624 268.39 64.072 267.025 64.968C265.702 65.864 264.593 67.0587 263.697 68.552L260.625 65.672C261.521 63.88 262.95 62.3653 264.913 61.128C266.876 59.848 269.35 59.208 272.337 59.208C276.348 59.208 279.462 60.1893 281.681 62.152C283.9 64.1147 285.009 66.8453 285.009 70.344V88.52H288.785V93H285.905ZM271.185 89.416C272.465 89.416 273.638 89.2667 274.705 88.968C275.772 88.6693 276.689 88.2427 277.457 87.688C278.225 87.1333 278.822 86.4933 279.249 85.768C279.676 85.0427 279.889 84.2533 279.889 83.4V77.96H273.105C270.161 77.96 268.006 78.3867 266.641 79.24C265.318 80.0933 264.657 81.3307 264.657 82.952V84.296C264.657 85.9173 265.233 87.176 266.385 88.072C267.58 88.968 269.18 89.416 271.185 89.416Z" fill="black"/>
<path d="M302.649 64.456H291.385V59.976H319.033V64.456H307.769V93H302.649V64.456Z" fill="black"/>
<path d="M326.372 59.976H331.492V71.944H340.9C344.228 71.944 346.874 72.8827 348.836 74.76C350.799 76.6373 351.78 79.2187 351.78 82.504C351.78 85.832 350.82 88.4133 348.9 90.248C346.98 92.0827 344.335 93 340.965 93H326.372V59.976ZM340.197 88.52C342.117 88.52 343.61 88.1573 344.676 87.432C345.743 86.7067 346.276 85.4907 346.276 83.784V81.096C346.276 79.3893 345.743 78.1947 344.676 77.512C343.61 76.7867 342.117 76.424 340.197 76.424H331.492V88.52H340.197Z" fill="black"/>
<path d="M30.44 119.976H37.16L47.208 137.128H47.464L57.448 119.976H64.104V153H59.112V126.12H58.792L56.936 129.704L47.272 146.088L37.608 129.704L35.752 126.12H35.432V153H30.44V119.976Z" fill="black"/>
<path d="M88.0585 153.768C85.7972 153.768 83.7492 153.363 81.9145 152.552C80.1225 151.741 78.5652 150.589 77.2425 149.096C75.9625 147.56 74.9598 145.747 74.2345 143.656C73.5518 141.523 73.2105 139.133 73.2105 136.488C73.2105 133.885 73.5518 131.517 74.2345 129.384C74.9598 127.251 75.9625 125.437 77.2425 123.944C78.5652 122.408 80.1225 121.235 81.9145 120.424C83.7492 119.613 85.7972 119.208 88.0585 119.208C90.2772 119.208 92.2612 119.613 94.0105 120.424C95.7598 121.235 97.2532 122.365 98.4905 123.816C99.7278 125.224 100.667 126.909 101.307 128.872C101.989 130.835 102.331 132.989 102.331 135.336V137.768H78.5865V139.304C78.5865 140.712 78.7998 142.035 79.2265 143.272C79.6958 144.467 80.3358 145.512 81.1465 146.408C81.9998 147.304 83.0238 148.008 84.2185 148.52C85.4558 149.032 86.8425 149.288 88.3785 149.288C90.4692 149.288 92.2825 148.797 93.8185 147.816C95.3972 146.835 96.6132 145.427 97.4665 143.592L101.115 146.216C100.048 148.477 98.3838 150.312 96.1225 151.72C93.8612 153.085 91.1732 153.768 88.0585 153.768ZM88.0585 123.496C86.6505 123.496 85.3705 123.752 84.2185 124.264C83.0665 124.733 82.0638 125.416 81.2105 126.312C80.3998 127.208 79.7598 128.275 79.2905 129.512C78.8212 130.707 78.5865 132.029 78.5865 133.48V133.928H96.8265V133.224C96.8265 130.28 96.0158 127.933 94.3945 126.184C92.8158 124.392 90.7038 123.496 88.0585 123.496Z" fill="black"/>
<path d="M117.699 124.456H106.435V119.976H134.083V124.456H122.819V153H117.699V124.456Z" fill="black"/>
<path d="M164.61 153C162.69 153 161.303 152.488 160.45 151.464C159.639 150.44 159.127 149.16 158.914 147.624H158.594C157.869 149.672 156.674 151.208 155.01 152.232C153.346 153.256 151.362 153.768 149.058 153.768C145.559 153.768 142.829 152.872 140.866 151.08C138.946 149.288 137.986 146.856 137.986 143.784C137.986 140.669 139.117 138.28 141.378 136.616C143.682 134.952 147.245 134.12 152.066 134.12H158.594V130.856C158.594 128.509 157.954 126.717 156.674 125.48C155.394 124.243 153.431 123.624 150.786 123.624C148.781 123.624 147.095 124.072 145.73 124.968C144.407 125.864 143.298 127.059 142.402 128.552L139.33 125.672C140.226 123.88 141.655 122.365 143.618 121.128C145.581 119.848 148.055 119.208 151.042 119.208C155.053 119.208 158.167 120.189 160.386 122.152C162.605 124.115 163.714 126.845 163.714 130.344V148.52H167.49V153H164.61ZM149.89 149.416C151.17 149.416 152.343 149.267 153.41 148.968C154.477 148.669 155.394 148.243 156.162 147.688C156.93 147.133 157.527 146.493 157.954 145.768C158.381 145.043 158.594 144.253 158.594 143.4V137.96H151.81C148.866 137.96 146.711 138.387 145.346 139.24C144.023 140.093 143.362 141.331 143.362 142.952V144.296C143.362 145.917 143.938 147.176 145.09 148.072C146.285 148.968 147.885 149.416 149.89 149.416Z" fill="black"/>
<path d="M191.438 149.544H191.245C190.392 150.824 189.411 151.848 188.301 152.616C187.192 153.384 185.827 153.768 184.206 153.768C180.494 153.768 177.741 152.381 175.949 149.608C174.157 146.792 173.262 142.419 173.262 136.488C173.262 130.557 174.157 126.205 175.949 123.432C177.741 120.616 180.494 119.208 184.206 119.208C185.827 119.208 187.192 119.592 188.301 120.36C189.411 121.128 190.392 122.152 191.245 123.432H191.438V107.56H196.557V123.432H196.749C197.603 122.152 198.584 121.128 199.693 120.36C200.803 119.592 202.168 119.208 203.789 119.208C207.501 119.208 210.254 120.616 212.046 123.432C213.838 126.205 214.734 130.557 214.734 136.488C214.734 142.419 213.838 146.792 212.046 149.608C210.254 152.381 207.501 153.768 203.789 153.768C202.168 153.768 200.803 153.384 199.693 152.616C198.584 151.848 197.603 150.824 196.749 149.544H196.557V165.8H191.438V149.544ZM185.549 149.224C189.517 149.224 191.501 147.731 191.501 144.744V128.232C191.501 125.245 189.517 123.752 185.549 123.752C183.16 123.752 181.432 124.52 180.365 126.056C179.299 127.549 178.766 130.088 178.766 133.672V139.304C178.766 142.888 179.299 145.448 180.365 146.984C181.432 148.477 183.16 149.224 185.549 149.224ZM202.445 149.224C204.792 149.224 206.499 148.477 207.565 146.984C208.675 145.448 209.229 142.888 209.229 139.304V133.672C209.229 130.088 208.675 127.549 207.565 126.056C206.499 124.52 204.792 123.752 202.445 123.752C198.477 123.752 196.493 125.245 196.493 128.232V144.744C196.493 147.731 198.477 149.224 202.445 149.224Z" fill="black"/>
<path d="M236.682 153.768C234.464 153.768 232.437 153.363 230.602 152.552C228.768 151.741 227.189 150.589 225.867 149.096C224.587 147.56 223.584 145.747 222.858 143.656C222.133 141.523 221.77 139.133 221.77 136.488C221.77 133.885 222.133 131.517 222.858 129.384C223.584 127.251 224.587 125.437 225.867 123.944C227.189 122.408 228.768 121.235 230.602 120.424C232.437 119.613 234.464 119.208 236.682 119.208C238.901 119.208 240.907 119.613 242.699 120.424C244.533 121.235 246.112 122.408 247.434 123.944C248.757 125.437 249.781 127.251 250.507 129.384C251.232 131.517 251.594 133.885 251.594 136.488C251.594 139.133 251.232 141.523 250.507 143.656C249.781 145.747 248.757 147.56 247.434 149.096C246.112 150.589 244.533 151.741 242.699 152.552C240.907 153.363 238.901 153.768 236.682 153.768ZM236.682 149.224C239.456 149.224 241.717 148.371 243.466 146.664C245.216 144.957 246.09 142.355 246.09 138.856V134.12C246.09 130.621 245.216 128.019 243.466 126.312C241.717 124.605 239.456 123.752 236.682 123.752C233.909 123.752 231.648 124.605 229.898 126.312C228.149 128.019 227.274 130.621 227.274 134.12V138.856C227.274 142.355 228.149 144.957 229.898 146.664C231.648 148.371 233.909 149.224 236.682 149.224Z" fill="black"/>
<path d="M260.655 119.976H265.775V125.352H266.031C266.884 123.261 268.122 121.725 269.743 120.744C271.407 119.72 273.391 119.208 275.695 119.208C277.743 119.208 279.599 119.613 281.263 120.424C282.927 121.235 284.335 122.387 285.487 123.88C286.682 125.373 287.578 127.187 288.175 129.32C288.815 131.453 289.135 133.843 289.135 136.488C289.135 139.133 288.815 141.523 288.175 143.656C287.578 145.789 286.682 147.603 285.487 149.096C284.335 150.589 282.927 151.741 281.263 152.552C279.599 153.363 277.743 153.768 275.695 153.768C271.215 153.768 267.994 151.72 266.031 147.624H265.775V165.8H260.655V119.976ZM274.287 149.16C277.188 149.16 279.471 148.264 281.135 146.472C282.799 144.637 283.631 142.248 283.631 139.304V133.672C283.631 130.728 282.799 128.36 281.135 126.568C279.471 124.733 277.188 123.816 274.287 123.816C273.135 123.816 272.026 123.987 270.959 124.328C269.935 124.627 269.039 125.053 268.271 125.608C267.503 126.163 266.884 126.845 266.415 127.656C265.988 128.424 265.775 129.256 265.775 130.152V142.44C265.775 143.507 265.988 144.467 266.415 145.32C266.884 146.131 267.503 146.835 268.271 147.432C269.039 147.987 269.935 148.413 270.959 148.712C272.026 149.011 273.135 149.16 274.287 149.16Z" fill="black"/>
<path d="M318.46 119.976H323.516L308.732 160.68C308.348 161.661 307.963 162.472 307.579 163.112C307.195 163.795 306.726 164.328 306.172 164.712C305.617 165.096 304.913 165.373 304.06 165.544C303.249 165.715 302.246 165.8 301.052 165.8H298.428V161.32H303.612L306.108 154.28L293.756 119.976H298.876L306.812 142.44L308.348 147.816H308.668L310.46 142.44L318.46 119.976Z" fill="black"/>
<path d="M25.512 208.52H29.288C30.6107 206.387 31.6773 203.72 32.488 200.52C33.2987 197.32 33.704 193.651 33.704 189.512V179.976H56.04V208.52H61.544V221.96H56.872V213H30.184V221.96H25.512V208.52ZM50.92 208.52V184.456H38.568V189.768C38.568 194.163 38.184 197.917 37.416 201.032C36.6907 204.104 35.816 206.6 34.792 208.52H50.92Z" fill="black"/>
<path d="M64.7145 208.52H69.0665C69.6212 207.752 70.1118 206.835 70.5385 205.768C70.9652 204.701 71.3278 203.421 71.6265 201.928C71.9252 200.435 72.1598 198.664 72.3305 196.616C72.5012 194.568 72.5865 192.157 72.5865 189.384V179.976H94.9225V213H89.8025V184.456H77.4505V189.512C77.4505 192.712 77.3225 195.507 77.0665 197.896C76.8532 200.285 76.5332 202.333 76.1065 204.04C75.7225 205.747 75.2532 207.155 74.6985 208.264C74.1438 209.331 73.5465 210.184 72.9065 210.824C72.0958 211.635 71.1998 212.211 70.2185 212.552C69.2372 212.851 68.0638 213 66.6985 213H64.7145V208.52Z" fill="black"/>
<path d="M103.526 208.52H107.174L109.286 203.656C109.755 202.547 110.331 201.715 111.014 201.16C111.697 200.563 112.465 200.2 113.318 200.072V199.816C110.374 199.56 108.155 198.6 106.662 196.936C105.169 195.272 104.422 193.032 104.422 190.216C104.422 187.016 105.382 184.52 107.302 182.728C109.222 180.893 111.867 179.976 115.238 179.976H129.83V213H124.71V200.328H116.134L112.678 208.456C111.91 210.248 111.057 211.464 110.118 212.104C109.222 212.701 108.198 213 107.046 213H103.526V208.52ZM124.71 195.976V184.456H116.006C114.086 184.456 112.593 184.819 111.526 185.544C110.459 186.269 109.926 187.485 109.926 189.192V191.304C109.926 193.011 110.459 194.227 111.526 194.952C112.593 195.635 114.086 195.976 116.006 195.976H124.71Z" fill="black"/>
<path d="M169.413 213.768C167.109 213.768 165.04 213.363 163.205 212.552C161.37 211.741 159.813 210.589 158.533 209.096C157.296 207.603 156.336 205.789 155.653 203.656C155.013 201.523 154.693 199.133 154.693 196.488C154.693 193.843 155.013 191.453 155.653 189.32C156.336 187.187 157.296 185.373 158.533 183.88C159.813 182.387 161.37 181.235 163.205 180.424C165.04 179.613 167.109 179.208 169.413 179.208C172.698 179.208 175.322 179.933 177.285 181.384C179.29 182.792 180.784 184.648 181.765 186.952L177.477 189.128C176.88 187.421 175.898 186.099 174.533 185.16C173.168 184.221 171.461 183.752 169.413 183.752C167.877 183.752 166.533 184.008 165.381 184.52C164.229 184.989 163.269 185.672 162.501 186.568C161.733 187.421 161.157 188.467 160.773 189.704C160.389 190.899 160.197 192.221 160.197 193.672V199.304C160.197 202.205 160.965 204.595 162.501 206.472C164.08 208.307 166.384 209.224 169.413 209.224C173.552 209.224 176.538 207.304 178.373 203.464L182.085 205.96C181.018 208.349 179.418 210.248 177.285 211.656C175.194 213.064 172.57 213.768 169.413 213.768Z" fill="black"/>
<path d="M185.024 208.52H189.376C189.931 207.752 190.422 206.835 190.848 205.768C191.275 204.701 191.638 203.421 191.936 201.928C192.235 200.435 192.47 198.664 192.641 196.616C192.811 194.568 192.896 192.157 192.896 189.384V179.976H215.232V213H210.113V184.456H197.76V189.512C197.76 192.712 197.632 195.507 197.376 197.896C197.163 200.285 196.843 202.333 196.417 204.04C196.033 205.747 195.563 207.155 195.008 208.264C194.454 209.331 193.856 210.184 193.216 210.824C192.406 211.635 191.51 212.211 190.529 212.552C189.547 212.851 188.374 213 187.008 213H185.024V208.52Z" fill="black"/>
<path d="M239.26 213.768C237.041 213.768 235.015 213.363 233.18 212.552C231.345 211.741 229.767 210.589 228.444 209.096C227.164 207.56 226.161 205.747 225.436 203.656C224.711 201.523 224.348 199.133 224.348 196.488C224.348 193.885 224.711 191.517 225.436 189.384C226.161 187.251 227.164 185.437 228.444 183.944C229.767 182.408 231.345 181.235 233.18 180.424C235.015 179.613 237.041 179.208 239.26 179.208C241.479 179.208 243.484 179.613 245.276 180.424C247.111 181.235 248.689 182.408 250.012 183.944C251.335 185.437 252.359 187.251 253.084 189.384C253.809 191.517 254.172 193.885 254.172 196.488C254.172 199.133 253.809 201.523 253.084 203.656C252.359 205.747 251.335 207.56 250.012 209.096C248.689 210.589 247.111 211.741 245.276 212.552C243.484 213.363 241.479 213.768 239.26 213.768ZM239.26 209.224C242.033 209.224 244.295 208.371 246.044 206.664C247.793 204.957 248.668 202.355 248.668 198.856V194.12C248.668 190.621 247.793 188.019 246.044 186.312C244.295 184.605 242.033 183.752 239.26 183.752C236.487 183.752 234.225 184.605 232.476 186.312C230.727 188.019 229.852 190.621 229.852 194.12V198.856C229.852 202.355 230.727 204.957 232.476 206.664C234.225 208.371 236.487 209.224 239.26 209.224Z" fill="black"/>
<path d="M259.353 208.52H263.193L266.905 199.624C267.374 198.515 267.95 197.683 268.633 197.128C269.315 196.573 270.083 196.232 270.936 196.104V195.848C270.083 195.592 269.337 195.165 268.697 194.568C268.057 193.971 267.502 193.139 267.033 192.072L263.641 184.456H259.801V179.976H262.809C264.089 179.976 265.198 180.296 266.137 180.936C267.118 181.576 267.928 182.6 268.568 184.008L272.984 193.8H278.872V179.976H283.992V193.8H289.88L294.297 184.008C294.937 182.6 295.726 181.576 296.664 180.936C297.646 180.296 298.776 179.976 300.056 179.976H303.065V184.456H299.224L295.832 192.072C295.363 193.139 294.808 193.971 294.168 194.568C293.528 195.165 292.782 195.592 291.928 195.848V196.104C292.782 196.232 293.55 196.573 294.232 197.128C294.915 197.683 295.491 198.515 295.961 199.624L299.672 208.52H303.513V213H299.865C298.713 213 297.667 212.701 296.728 212.104C295.79 211.464 294.958 210.269 294.232 208.52L289.88 198.152H283.992V213H278.872V198.152H272.984L268.633 208.52C267.907 210.269 267.075 211.464 266.137 212.104C265.198 212.701 264.152 213 263 213H259.353V208.52Z" fill="black"/>
<path d="M312.122 179.976H317.242V193.736H333.754V179.976H338.875V213H333.754V198.216H317.242V213H312.122V179.976Z" fill="black"/>
<path d="M362.868 213.768C360.649 213.768 358.622 213.363 356.788 212.552C354.953 211.741 353.374 210.589 352.052 209.096C350.772 207.56 349.769 205.747 349.044 203.656C348.318 201.523 347.956 199.133 347.956 196.488C347.956 193.885 348.318 191.517 349.044 189.384C349.769 187.251 350.772 185.437 352.052 183.944C353.374 182.408 354.953 181.235 356.788 180.424C358.622 179.613 360.649 179.208 362.868 179.208C365.086 179.208 367.092 179.613 368.884 180.424C370.718 181.235 372.297 182.408 373.62 183.944C374.942 185.437 375.966 187.251 376.691 189.384C377.417 191.517 377.78 193.885 377.78 196.488C377.78 199.133 377.417 201.523 376.691 203.656C375.966 205.747 374.942 207.56 373.62 209.096C372.297 210.589 370.718 211.741 368.884 212.552C367.092 213.363 365.086 213.768 362.868 213.768ZM362.868 209.224C365.641 209.224 367.902 208.371 369.652 206.664C371.401 204.957 372.276 202.355 372.276 198.856V194.12C372.276 190.621 371.401 188.019 369.652 186.312C367.902 184.605 365.641 183.752 362.868 183.752C360.094 183.752 357.833 184.605 356.083 186.312C354.334 188.019 353.46 190.621 353.46 194.12V198.856C353.46 202.355 354.334 204.957 356.083 206.664C357.833 208.371 360.094 209.224 362.868 209.224Z" fill="black"/>
<path d="M386.84 179.976H407.704V184.456H391.96V213H386.84V179.976Z" fill="black"/>
<path d="M426.585 213.768C424.366 213.768 422.34 213.363 420.505 212.552C418.67 211.741 417.092 210.589 415.769 209.096C414.489 207.56 413.486 205.747 412.761 203.656C412.036 201.523 411.673 199.133 411.673 196.488C411.673 193.885 412.036 191.517 412.761 189.384C413.486 187.251 414.489 185.437 415.769 183.944C417.092 182.408 418.67 181.235 420.505 180.424C422.34 179.613 424.366 179.208 426.585 179.208C428.804 179.208 430.809 179.613 432.601 180.424C434.436 181.235 436.014 182.408 437.337 183.944C438.66 185.437 439.684 187.251 440.409 189.384C441.134 191.517 441.497 193.885 441.497 196.488C441.497 199.133 441.134 201.523 440.409 203.656C439.684 205.747 438.66 207.56 437.337 209.096C436.014 210.589 434.436 211.741 432.601 212.552C430.809 213.363 428.804 213.768 426.585 213.768ZM426.585 209.224C429.358 209.224 431.62 208.371 433.369 206.664C435.118 204.957 435.993 202.355 435.993 198.856V194.12C435.993 190.621 435.118 188.019 433.369 186.312C431.62 184.605 429.358 183.752 426.585 183.752C423.812 183.752 421.55 184.605 419.801 186.312C418.052 188.019 417.177 190.621 417.177 194.12V198.856C417.177 202.355 418.052 204.957 419.801 206.664C421.55 208.371 423.812 209.224 426.585 209.224Z" fill="black"/>
<path d="M37.544 244.456H26.28V239.976H53.928V244.456H42.664V273H37.544V244.456Z" fill="black"/>
<path d="M72.871 273.768C70.6097 273.768 68.5617 273.363 66.727 272.552C64.935 271.741 63.3777 270.589 62.055 269.096C60.775 267.56 59.7723 265.747 59.047 263.656C58.3643 261.523 58.023 259.133 58.023 256.488C58.023 253.885 58.3643 251.517 59.047 249.384C59.7723 247.251 60.775 245.437 62.055 243.944C63.3777 242.408 64.935 241.235 66.727 240.424C68.5617 239.613 70.6097 239.208 72.871 239.208C75.0897 239.208 77.0737 239.613 78.823 240.424C80.5723 241.235 82.0657 242.365 83.303 243.816C84.5403 245.224 85.479 246.909 86.119 248.872C86.8017 250.835 87.143 252.989 87.143 255.336V257.768H63.399V259.304C63.399 260.712 63.6123 262.035 64.039 263.272C64.5083 264.467 65.1483 265.512 65.959 266.408C66.8123 267.304 67.8363 268.008 69.031 268.52C70.2683 269.032 71.655 269.288 73.191 269.288C75.2817 269.288 77.095 268.797 78.631 267.816C80.2097 266.835 81.4257 265.427 82.279 263.592L85.927 266.216C84.8603 268.477 83.1963 270.312 80.935 271.72C78.6737 273.085 75.9857 273.768 72.871 273.768ZM72.871 243.496C71.463 243.496 70.183 243.752 69.031 244.264C67.879 244.733 66.8763 245.416 66.023 246.312C65.2123 247.208 64.5723 248.275 64.103 249.512C63.6337 250.707 63.399 252.029 63.399 253.48V253.928H81.639V253.224C81.639 250.28 80.8283 247.933 79.207 246.184C77.6283 244.392 75.5163 243.496 72.871 243.496Z" fill="black"/>
<path d="M96.22 239.976H101.34V245.352H101.596C102.449 243.261 103.687 241.725 105.308 240.744C106.972 239.72 108.956 239.208 111.26 239.208C113.308 239.208 115.164 239.613 116.828 240.424C118.492 241.235 119.9 242.387 121.052 243.88C122.247 245.373 123.143 247.187 123.74 249.32C124.38 251.453 124.7 253.843 124.7 256.488C124.7 259.133 124.38 261.523 123.74 263.656C123.143 265.789 122.247 267.603 121.052 269.096C119.9 270.589 118.492 271.741 116.828 272.552C115.164 273.363 113.308 273.768 111.26 273.768C106.78 273.768 103.559 271.72 101.596 267.624H101.34V285.8H96.22V239.976ZM109.852 269.16C112.753 269.16 115.036 268.264 116.7 266.472C118.364 264.637 119.196 262.248 119.196 259.304V253.672C119.196 250.728 118.364 248.36 116.7 246.568C115.036 244.733 112.753 243.816 109.852 243.816C108.7 243.816 107.591 243.987 106.524 244.328C105.5 244.627 104.604 245.053 103.836 245.608C103.068 246.163 102.449 246.845 101.98 247.656C101.553 248.424 101.34 249.256 101.34 250.152V262.44C101.34 263.507 101.553 264.467 101.98 265.32C102.449 266.131 103.068 266.835 103.836 267.432C104.604 267.987 105.5 268.413 106.524 268.712C107.591 269.011 108.7 269.16 109.852 269.16Z" fill="black"/>
<path d="M133.985 239.976H140.705L150.753 257.128H151.009L160.993 239.976H167.649V273H162.657V246.12H162.337L160.481 249.704L150.817 266.088L141.153 249.704L139.297 246.12H138.977V273H133.985V239.976Z" fill="black"/>
<path d="M179.188 239.976H184.18V258.28L183.667 266.216H183.923L188.02 259.176L201.203 239.976H205.939V273H200.947V254.696L201.46 246.76H201.203L197.107 253.8L183.923 273H179.188V239.976Z" fill="black"/>
<path d="M217.452 239.976H222.572V253.736H239.085V239.976H244.204V273H239.085V258.216H222.572V273H217.452V239.976Z" fill="black"/>
<path d="M279.717 273C277.797 273 276.411 272.488 275.557 271.464C274.747 270.44 274.235 269.16 274.021 267.624H273.702C272.976 269.672 271.781 271.208 270.117 272.232C268.453 273.256 266.469 273.768 264.165 273.768C260.667 273.768 257.936 272.872 255.973 271.08C254.053 269.288 253.093 266.856 253.093 263.784C253.093 260.669 254.224 258.28 256.486 256.616C258.79 254.952 262.352 254.12 267.173 254.12H273.702V250.856C273.702 248.509 273.061 246.717 271.781 245.48C270.501 244.243 268.539 243.624 265.893 243.624C263.888 243.624 262.203 244.072 260.837 244.968C259.515 245.864 258.405 247.059 257.509 248.552L254.438 245.672C255.333 243.88 256.763 242.365 258.725 241.128C260.688 239.848 263.163 239.208 266.15 239.208C270.16 239.208 273.275 240.189 275.493 242.152C277.712 244.115 278.822 246.845 278.822 250.344V268.52H282.598V273H279.717ZM264.997 269.416C266.277 269.416 267.451 269.267 268.517 268.968C269.584 268.669 270.502 268.243 271.27 267.688C272.038 267.133 272.635 266.493 273.061 265.768C273.488 265.043 273.702 264.253 273.702 263.4V257.96H266.918C263.974 257.96 261.819 258.387 260.453 259.24C259.131 260.093 258.469 261.331 258.469 262.952V264.296C258.469 265.917 259.046 267.176 260.198 268.072C261.392 268.968 262.992 269.416 264.997 269.416Z" fill="black"/>
</svg>
